G04 #@! TF.GenerationSoftware,KiCad,Pcbnew,6.0.0-rc1-unknown-7dfc4e3~65~ubuntu18.04.1*
G04 #@! TF.CreationDate,2018-07-28T16:35:14+05:30*
G04 #@! TF.ProjectId,airmount,6169726D6F756E742E6B696361645F70,rev?*
G04 #@! TF.SameCoordinates,Original*
G04 #@! TF.FileFunction,Copper,L2,Bot,Signal*
G04 #@! TF.FilePolarity,Positive*
%FSLAX46Y46*%
G04 Gerber Fmt 4.6, Leading zero omitted, Abs format (unit mm)*
G04 Created by KiCad (PCBNEW 6.0.0-rc1-unknown-7dfc4e3~65~ubuntu18.04.1) date Sat Jul 28 16:35:14 2018*
%MOMM*%
%LPD*%
G01*
G04 APERTURE LIST*
G04 #@! TA.AperFunction,ComponentPad*
%ADD10R,1.750000X1.750000*%
G04 #@! TD*
G04 #@! TA.AperFunction,ComponentPad*
%ADD11C,1.750000*%
G04 #@! TD*
G04 #@! TA.AperFunction,ViaPad*
%ADD12C,0.800000*%
G04 #@! TD*
G04 #@! TA.AperFunction,Conductor*
%ADD13C,0.254000*%
G04 #@! TD*
G04 APERTURE END LIST*
D10*
G04 #@! TO.P,J1,1*
G04 #@! TO.N,Net-(J1-Pad1)*
X125780800Y-74941800D03*
D11*
G04 #@! TO.P,J1,2*
G04 #@! TO.N,GND*
X128280800Y-74941800D03*
G04 #@! TD*
D12*
G04 #@! TO.N,GND*
X128280800Y-77464758D03*
X130191042Y-79375000D03*
X136906000Y-86089958D03*
X136906000Y-90309122D03*
X136906000Y-88392000D03*
G04 #@! TD*
D13*
G04 #@! TO.N,GND*
G36*
X123869896Y-74066800D02*
X123869896Y-75816800D01*
X123948749Y-76213223D01*
X124173305Y-76549295D01*
X124509377Y-76773851D01*
X124905800Y-76852704D01*
X126655800Y-76852704D01*
X127052223Y-76773851D01*
X127388295Y-76549295D01*
X127485648Y-76403597D01*
X128078946Y-76598620D01*
X128728349Y-76549748D01*
X129101326Y-76395256D01*
X129182890Y-76113298D01*
X128280800Y-75211208D01*
X128266658Y-75225350D01*
X127997250Y-74955942D01*
X128011392Y-74941800D01*
X127997250Y-74927658D01*
X128266658Y-74658250D01*
X128280800Y-74672392D01*
X128294942Y-74658250D01*
X128564350Y-74927658D01*
X128550208Y-74941800D01*
X129452298Y-75843890D01*
X129734256Y-75762326D01*
X129937620Y-75143654D01*
X129888748Y-74494251D01*
X129734256Y-74121274D01*
X129452300Y-74039710D01*
X129514510Y-73977500D01*
X131973679Y-73977500D01*
X132009395Y-73984605D01*
X132016501Y-74020326D01*
X132016500Y-78293352D01*
X132008866Y-78314059D01*
X132016500Y-78507292D01*
X132016500Y-78592317D01*
X132020692Y-78613390D01*
X132025819Y-78743175D01*
X132062193Y-78822030D01*
X132079134Y-78907199D01*
X132151295Y-79015197D01*
X132205699Y-79133139D01*
X132269477Y-79192069D01*
X132317724Y-79264276D01*
X132425723Y-79336439D01*
X132441501Y-79351017D01*
X132513989Y-79395415D01*
X132674800Y-79502866D01*
X132696449Y-79507172D01*
X132716463Y-79519430D01*
X133759415Y-80242442D01*
X133774862Y-80255979D01*
X132903307Y-80255979D01*
X132063106Y-80604002D01*
X131420044Y-81247064D01*
X131072021Y-82087265D01*
X131072021Y-82996693D01*
X131420044Y-83836894D01*
X132063106Y-84479956D01*
X132903307Y-84827979D01*
X133812735Y-84827979D01*
X134652936Y-84479956D01*
X135295998Y-83836894D01*
X135644021Y-82996693D01*
X135644021Y-82138013D01*
X136261657Y-82995364D01*
X136870545Y-84081767D01*
X137352535Y-85230120D01*
X137701430Y-86425653D01*
X137912743Y-87652986D01*
X137983760Y-88896370D01*
X137913567Y-90139787D01*
X137703065Y-91367264D01*
X137354961Y-92563030D01*
X136873733Y-93711695D01*
X136265563Y-94798503D01*
X135538273Y-95809480D01*
X134701213Y-96731623D01*
X133765140Y-97553085D01*
X132742102Y-98263294D01*
X131645233Y-98853132D01*
X130488646Y-99315007D01*
X129287210Y-99642982D01*
X128051779Y-99833552D01*
X127041714Y-99882236D01*
X125757043Y-99809287D01*
X124530069Y-99598455D01*
X123334845Y-99250079D01*
X122186740Y-98768638D01*
X121100526Y-98160329D01*
X120244419Y-97544021D01*
X121096693Y-97544021D01*
X121936894Y-97195998D01*
X122579956Y-96552936D01*
X122927979Y-95712735D01*
X122927979Y-94803307D01*
X122579956Y-93963106D01*
X121936894Y-93320044D01*
X121096693Y-92972021D01*
X120187265Y-92972021D01*
X119347064Y-93320044D01*
X118704002Y-93963106D01*
X118355979Y-94803307D01*
X118355979Y-95669270D01*
X118347745Y-95659880D01*
X117638125Y-94636968D01*
X117048859Y-93540289D01*
X116587532Y-92383964D01*
X116260068Y-91182840D01*
X116070682Y-89952379D01*
X116021805Y-88708376D01*
X116114067Y-87466835D01*
X116346280Y-86243732D01*
X116413788Y-86026318D01*
X117004705Y-86026318D01*
X117122985Y-86620953D01*
X117459818Y-87125060D01*
X117963925Y-87461893D01*
X118558560Y-87580173D01*
X119153195Y-87461893D01*
X119530056Y-87210083D01*
X121486235Y-85253904D01*
X121480821Y-85260772D01*
X120946555Y-86242723D01*
X120585375Y-87300654D01*
X120407609Y-88404316D01*
X120418340Y-89522150D01*
X120617260Y-90622195D01*
X120998683Y-91672998D01*
X121551702Y-92644512D01*
X122260504Y-93508958D01*
X123104823Y-94241621D01*
X124060517Y-94821550D01*
X125100260Y-95232165D01*
X126194322Y-95461723D01*
X127311421Y-95503661D01*
X128419615Y-95356780D01*
X129487219Y-95025281D01*
X130483705Y-94518641D01*
X130708390Y-94351470D01*
X128689917Y-96369944D01*
X128438107Y-96746805D01*
X128319827Y-97341440D01*
X128438107Y-97936075D01*
X128774940Y-98440182D01*
X129279047Y-98777015D01*
X129873682Y-98895295D01*
X130468317Y-98777015D01*
X130845178Y-98525205D01*
X136625205Y-92745179D01*
X136877016Y-92368317D01*
X136995295Y-91773682D01*
X136877016Y-91179047D01*
X136540182Y-90674940D01*
X136036075Y-90338106D01*
X135441440Y-90219827D01*
X134846805Y-90338106D01*
X134469943Y-90589917D01*
X132429980Y-92629880D01*
X132776508Y-92115163D01*
X133235645Y-91095917D01*
X133516486Y-90013883D01*
X133611000Y-88900000D01*
X133609782Y-88773086D01*
X133493901Y-87661222D01*
X133192340Y-86584779D01*
X132713721Y-85574535D01*
X132071729Y-84659376D01*
X131284721Y-83865470D01*
X130375199Y-83215517D01*
X129369171Y-82728100D01*
X128295400Y-82417156D01*
X127184590Y-82291578D01*
X126068502Y-82354954D01*
X124979048Y-82605473D01*
X123947380Y-83035971D01*
X123283962Y-83456177D01*
X125310083Y-81430057D01*
X125561894Y-81053195D01*
X125680173Y-80458560D01*
X125561894Y-79863925D01*
X125225060Y-79359818D01*
X124720953Y-79022984D01*
X124126318Y-78904705D01*
X123531683Y-79022984D01*
X123154821Y-79274795D01*
X117374795Y-85054822D01*
X117122985Y-85431683D01*
X117004705Y-86026318D01*
X116413788Y-86026318D01*
X116715463Y-85054770D01*
X117216868Y-83915240D01*
X117844046Y-82839803D01*
X118588935Y-81842275D01*
X119441957Y-80935486D01*
X120395649Y-80128126D01*
X121310039Y-79505882D01*
X121325200Y-79502866D01*
X121490081Y-79392696D01*
X121566291Y-79345065D01*
X121578357Y-79333712D01*
X121682276Y-79264276D01*
X121733271Y-79187956D01*
X121800114Y-79125065D01*
X121851432Y-79011116D01*
X121920866Y-78907200D01*
X121938772Y-78817180D01*
X121976462Y-78733491D01*
X121980267Y-78608573D01*
X121983500Y-78592318D01*
X121983500Y-78502416D01*
X121989536Y-78304240D01*
X121983500Y-78288313D01*
X121983500Y-74020321D01*
X121990605Y-73984605D01*
X122026321Y-73977500D01*
X123887659Y-73977500D01*
X123869896Y-74066800D01*
X123869896Y-74066800D01*
G37*
X123869896Y-74066800D02*
X123869896Y-75816800D01*
X123948749Y-76213223D01*
X124173305Y-76549295D01*
X124509377Y-76773851D01*
X124905800Y-76852704D01*
X126655800Y-76852704D01*
X127052223Y-76773851D01*
X127388295Y-76549295D01*
X127485648Y-76403597D01*
X128078946Y-76598620D01*
X128728349Y-76549748D01*
X129101326Y-76395256D01*
X129182890Y-76113298D01*
X128280800Y-75211208D01*
X128266658Y-75225350D01*
X127997250Y-74955942D01*
X128011392Y-74941800D01*
X127997250Y-74927658D01*
X128266658Y-74658250D01*
X128280800Y-74672392D01*
X128294942Y-74658250D01*
X128564350Y-74927658D01*
X128550208Y-74941800D01*
X129452298Y-75843890D01*
X129734256Y-75762326D01*
X129937620Y-75143654D01*
X129888748Y-74494251D01*
X129734256Y-74121274D01*
X129452300Y-74039710D01*
X129514510Y-73977500D01*
X131973679Y-73977500D01*
X132009395Y-73984605D01*
X132016501Y-74020326D01*
X132016500Y-78293352D01*
X132008866Y-78314059D01*
X132016500Y-78507292D01*
X132016500Y-78592317D01*
X132020692Y-78613390D01*
X132025819Y-78743175D01*
X132062193Y-78822030D01*
X132079134Y-78907199D01*
X132151295Y-79015197D01*
X132205699Y-79133139D01*
X132269477Y-79192069D01*
X132317724Y-79264276D01*
X132425723Y-79336439D01*
X132441501Y-79351017D01*
X132513989Y-79395415D01*
X132674800Y-79502866D01*
X132696449Y-79507172D01*
X132716463Y-79519430D01*
X133759415Y-80242442D01*
X133774862Y-80255979D01*
X132903307Y-80255979D01*
X132063106Y-80604002D01*
X131420044Y-81247064D01*
X131072021Y-82087265D01*
X131072021Y-82996693D01*
X131420044Y-83836894D01*
X132063106Y-84479956D01*
X132903307Y-84827979D01*
X133812735Y-84827979D01*
X134652936Y-84479956D01*
X135295998Y-83836894D01*
X135644021Y-82996693D01*
X135644021Y-82138013D01*
X136261657Y-82995364D01*
X136870545Y-84081767D01*
X137352535Y-85230120D01*
X137701430Y-86425653D01*
X137912743Y-87652986D01*
X137983760Y-88896370D01*
X137913567Y-90139787D01*
X137703065Y-91367264D01*
X137354961Y-92563030D01*
X136873733Y-93711695D01*
X136265563Y-94798503D01*
X135538273Y-95809480D01*
X134701213Y-96731623D01*
X133765140Y-97553085D01*
X132742102Y-98263294D01*
X131645233Y-98853132D01*
X130488646Y-99315007D01*
X129287210Y-99642982D01*
X128051779Y-99833552D01*
X127041714Y-99882236D01*
X125757043Y-99809287D01*
X124530069Y-99598455D01*
X123334845Y-99250079D01*
X122186740Y-98768638D01*
X121100526Y-98160329D01*
X120244419Y-97544021D01*
X121096693Y-97544021D01*
X121936894Y-97195998D01*
X122579956Y-96552936D01*
X122927979Y-95712735D01*
X122927979Y-94803307D01*
X122579956Y-93963106D01*
X121936894Y-93320044D01*
X121096693Y-92972021D01*
X120187265Y-92972021D01*
X119347064Y-93320044D01*
X118704002Y-93963106D01*
X118355979Y-94803307D01*
X118355979Y-95669270D01*
X118347745Y-95659880D01*
X117638125Y-94636968D01*
X117048859Y-93540289D01*
X116587532Y-92383964D01*
X116260068Y-91182840D01*
X116070682Y-89952379D01*
X116021805Y-88708376D01*
X116114067Y-87466835D01*
X116346280Y-86243732D01*
X116413788Y-86026318D01*
X117004705Y-86026318D01*
X117122985Y-86620953D01*
X117459818Y-87125060D01*
X117963925Y-87461893D01*
X118558560Y-87580173D01*
X119153195Y-87461893D01*
X119530056Y-87210083D01*
X121486235Y-85253904D01*
X121480821Y-85260772D01*
X120946555Y-86242723D01*
X120585375Y-87300654D01*
X120407609Y-88404316D01*
X120418340Y-89522150D01*
X120617260Y-90622195D01*
X120998683Y-91672998D01*
X121551702Y-92644512D01*
X122260504Y-93508958D01*
X123104823Y-94241621D01*
X124060517Y-94821550D01*
X125100260Y-95232165D01*
X126194322Y-95461723D01*
X127311421Y-95503661D01*
X128419615Y-95356780D01*
X129487219Y-95025281D01*
X130483705Y-94518641D01*
X130708390Y-94351470D01*
X128689917Y-96369944D01*
X128438107Y-96746805D01*
X128319827Y-97341440D01*
X128438107Y-97936075D01*
X128774940Y-98440182D01*
X129279047Y-98777015D01*
X129873682Y-98895295D01*
X130468317Y-98777015D01*
X130845178Y-98525205D01*
X136625205Y-92745179D01*
X136877016Y-92368317D01*
X136995295Y-91773682D01*
X136877016Y-91179047D01*
X136540182Y-90674940D01*
X136036075Y-90338106D01*
X135441440Y-90219827D01*
X134846805Y-90338106D01*
X134469943Y-90589917D01*
X132429980Y-92629880D01*
X132776508Y-92115163D01*
X133235645Y-91095917D01*
X133516486Y-90013883D01*
X133611000Y-88900000D01*
X133609782Y-88773086D01*
X133493901Y-87661222D01*
X133192340Y-86584779D01*
X132713721Y-85574535D01*
X132071729Y-84659376D01*
X131284721Y-83865470D01*
X130375199Y-83215517D01*
X129369171Y-82728100D01*
X128295400Y-82417156D01*
X127184590Y-82291578D01*
X126068502Y-82354954D01*
X124979048Y-82605473D01*
X123947380Y-83035971D01*
X123283962Y-83456177D01*
X125310083Y-81430057D01*
X125561894Y-81053195D01*
X125680173Y-80458560D01*
X125561894Y-79863925D01*
X125225060Y-79359818D01*
X124720953Y-79022984D01*
X124126318Y-78904705D01*
X123531683Y-79022984D01*
X123154821Y-79274795D01*
X117374795Y-85054822D01*
X117122985Y-85431683D01*
X117004705Y-86026318D01*
X116413788Y-86026318D01*
X116715463Y-85054770D01*
X117216868Y-83915240D01*
X117844046Y-82839803D01*
X118588935Y-81842275D01*
X119441957Y-80935486D01*
X120395649Y-80128126D01*
X121310039Y-79505882D01*
X121325200Y-79502866D01*
X121490081Y-79392696D01*
X121566291Y-79345065D01*
X121578357Y-79333712D01*
X121682276Y-79264276D01*
X121733271Y-79187956D01*
X121800114Y-79125065D01*
X121851432Y-79011116D01*
X121920866Y-78907200D01*
X121938772Y-78817180D01*
X121976462Y-78733491D01*
X121980267Y-78608573D01*
X121983500Y-78592318D01*
X121983500Y-78502416D01*
X121989536Y-78304240D01*
X121983500Y-78288313D01*
X121983500Y-74020321D01*
X121990605Y-73984605D01*
X122026321Y-73977500D01*
X123887659Y-73977500D01*
X123869896Y-74066800D01*
G04 #@! TD*
M02*
