G04 #@! TF.GenerationSoftware,KiCad,Pcbnew,6.0.0-rc1-unknown-7dfc4e3~65~ubuntu18.04.1*
G04 #@! TF.CreationDate,2018-07-28T12:11:48+05:30*
G04 #@! TF.ProjectId,airmount,6169726D6F756E742E6B696361645F70,rev?*
G04 #@! TF.SameCoordinates,Original*
G04 #@! TF.FileFunction,Legend,Top*
G04 #@! TF.FilePolarity,Positive*
%FSLAX46Y46*%
G04 Gerber Fmt 4.6, Leading zero omitted, Abs format (unit mm)*
G04 Created by KiCad (PCBNEW 6.0.0-rc1-unknown-7dfc4e3~65~ubuntu18.04.1) date Sat Jul 28 12:11:48 2018*
%MOMM*%
%LPD*%
G01*
G04 APERTURE LIST*
%ADD10C,0.152400*%
%ADD11C,0.120000*%
%ADD12C,4.464000*%
%ADD13C,0.100000*%
%ADD14C,2.940000*%
%ADD15R,2.150000X2.150000*%
%ADD16C,2.150000*%
G04 APERTURE END LIST*
D10*
X116606370Y-85055102D02*
X116948475Y-84712997D01*
X116743212Y-85328786D02*
X116264265Y-84370892D01*
X117222159Y-84849839D01*
X117461633Y-84610366D02*
X116982686Y-84131419D01*
X116743212Y-83891945D02*
X116743212Y-83960366D01*
X116811633Y-83960366D01*
X116811633Y-83891945D01*
X116743212Y-83891945D01*
X116811633Y-83960366D01*
X117803738Y-84268261D02*
X117324791Y-83789314D01*
X117461633Y-83926156D02*
X117427422Y-83823524D01*
X117427422Y-83755103D01*
X117461633Y-83652472D01*
X117530054Y-83584051D01*
X118248474Y-83823524D02*
X117769527Y-83344577D01*
X117837948Y-83412998D02*
X117837948Y-83344577D01*
X117872159Y-83241946D01*
X117974790Y-83139314D01*
X118077422Y-83105104D01*
X118180053Y-83139314D01*
X118556369Y-83515630D01*
X118180053Y-83139314D02*
X118145843Y-83036683D01*
X118180053Y-82934051D01*
X118282685Y-82831420D01*
X118385316Y-82797209D01*
X118487948Y-82831420D01*
X118864263Y-83207735D01*
X119309000Y-82762999D02*
X119206368Y-82797209D01*
X119137947Y-82797209D01*
X119035316Y-82762999D01*
X118830053Y-82557736D01*
X118795842Y-82455104D01*
X118795842Y-82386683D01*
X118830053Y-82284052D01*
X118932684Y-82181420D01*
X119035316Y-82147210D01*
X119103737Y-82147210D01*
X119206368Y-82181420D01*
X119411631Y-82386683D01*
X119445842Y-82489315D01*
X119445842Y-82557736D01*
X119411631Y-82660367D01*
X119309000Y-82762999D01*
X119685315Y-81428789D02*
X120164262Y-81907736D01*
X119377421Y-81736684D02*
X119753736Y-82112999D01*
X119856368Y-82147210D01*
X119958999Y-82112999D01*
X120061631Y-82010368D01*
X120095841Y-81907736D01*
X120095841Y-81839315D01*
X120027420Y-81086684D02*
X120506367Y-81565631D01*
X120095841Y-81155105D02*
X120095841Y-81086684D01*
X120130052Y-80984053D01*
X120232683Y-80881421D01*
X120335315Y-80847211D01*
X120437946Y-80881421D01*
X120814262Y-81257737D01*
X120574788Y-80539316D02*
X120848472Y-80265632D01*
X120437946Y-80197211D02*
X121053735Y-80813000D01*
X121156367Y-80847211D01*
X121258998Y-80813000D01*
X121327419Y-80744579D01*
X121464261Y-80744579D02*
X122011629Y-80197211D01*
X121293209Y-79341949D02*
X122251103Y-79820896D01*
X121772156Y-78863002D01*
X121943208Y-78691949D02*
X122387945Y-78247213D01*
X122422155Y-78760370D01*
X122524787Y-78657739D01*
X122627418Y-78623528D01*
X122695839Y-78623528D01*
X122798471Y-78657739D01*
X122969523Y-78828791D01*
X123003734Y-78931423D01*
X123003734Y-78999844D01*
X122969523Y-79102475D01*
X122764260Y-79307738D01*
X122661629Y-79341949D01*
X122593208Y-79341949D01*
D11*
G04 #@! TO.C,J1*
X123230800Y-72491800D02*
X123230800Y-78441800D01*
X123230800Y-78441800D02*
X130830800Y-78441800D01*
X130830800Y-78441800D02*
X130830800Y-72491800D01*
X130830800Y-72491800D02*
X123230800Y-72491800D01*
X126530800Y-72491800D02*
X126530800Y-73241800D01*
X126530800Y-73241800D02*
X127530800Y-73241800D01*
X127530800Y-73241800D02*
X127530800Y-72491800D01*
X127530800Y-72491800D02*
X126530800Y-72491800D01*
X123230800Y-72491800D02*
X123230800Y-73241800D01*
X123230800Y-73241800D02*
X125030800Y-73241800D01*
X125030800Y-73241800D02*
X125030800Y-72491800D01*
X125030800Y-72491800D02*
X123230800Y-72491800D01*
X129030800Y-72491800D02*
X129030800Y-73241800D01*
X129030800Y-73241800D02*
X130830800Y-73241800D01*
X130830800Y-73241800D02*
X130830800Y-72491800D01*
X130830800Y-72491800D02*
X129030800Y-72491800D01*
X123230800Y-74741800D02*
X123980800Y-74741800D01*
X123980800Y-74741800D02*
X123980800Y-77691800D01*
X123980800Y-77691800D02*
X127030800Y-77691800D01*
X130830800Y-74741800D02*
X130080800Y-74741800D01*
X130080800Y-74741800D02*
X130080800Y-77691800D01*
X130080800Y-77691800D02*
X127030800Y-77691800D01*
X125430800Y-72191800D02*
X122930800Y-72191800D01*
X122930800Y-72191800D02*
X122930800Y-74691800D01*
G04 #@! TD*
%LPC*%
D12*
G04 #@! TO.C,M1*
X133358021Y-82541979D03*
X120641979Y-95258021D03*
G04 #@! TD*
D13*
G04 #@! TO.C,M2*
G36*
X135585525Y-90310759D02*
X135728223Y-90331927D01*
X135868158Y-90366979D01*
X136003985Y-90415578D01*
X136134393Y-90477257D01*
X136258128Y-90551421D01*
X136373998Y-90637356D01*
X136480887Y-90734234D01*
X136480888Y-90734235D01*
X136577766Y-90841124D01*
X136663701Y-90956994D01*
X136737865Y-91080729D01*
X136799544Y-91211137D01*
X136848143Y-91346964D01*
X136883195Y-91486899D01*
X136904363Y-91629597D01*
X136911441Y-91773682D01*
X136904363Y-91917767D01*
X136883195Y-92060465D01*
X136848143Y-92200400D01*
X136799544Y-92336227D01*
X136737865Y-92466635D01*
X136663701Y-92590370D01*
X136577766Y-92706240D01*
X136480888Y-92813129D01*
X130913129Y-98380888D01*
X130806240Y-98477766D01*
X130690370Y-98563701D01*
X130566635Y-98637865D01*
X130436227Y-98699544D01*
X130300400Y-98748143D01*
X130160465Y-98783195D01*
X130017767Y-98804363D01*
X129873682Y-98811441D01*
X129729597Y-98804363D01*
X129586899Y-98783195D01*
X129446964Y-98748143D01*
X129311137Y-98699544D01*
X129180729Y-98637865D01*
X129056994Y-98563701D01*
X128941124Y-98477766D01*
X128834235Y-98380888D01*
X128834234Y-98380887D01*
X128737356Y-98273998D01*
X128651421Y-98158128D01*
X128577257Y-98034393D01*
X128515578Y-97903985D01*
X128466979Y-97768158D01*
X128431927Y-97628223D01*
X128410759Y-97485525D01*
X128403681Y-97341440D01*
X128410759Y-97197355D01*
X128431927Y-97054657D01*
X128466979Y-96914722D01*
X128515578Y-96778895D01*
X128577257Y-96648487D01*
X128651421Y-96524752D01*
X128737356Y-96408882D01*
X128834234Y-96301993D01*
X134401993Y-90734234D01*
X134508882Y-90637356D01*
X134624752Y-90551421D01*
X134748487Y-90477257D01*
X134878895Y-90415578D01*
X135014722Y-90366979D01*
X135154657Y-90331927D01*
X135297355Y-90310759D01*
X135441440Y-90303681D01*
X135585525Y-90310759D01*
X135585525Y-90310759D01*
G37*
D14*
X132657561Y-94557561D03*
D13*
G36*
X124270403Y-78995637D02*
X124413101Y-79016805D01*
X124553036Y-79051857D01*
X124688863Y-79100456D01*
X124819271Y-79162135D01*
X124943006Y-79236299D01*
X125058876Y-79322234D01*
X125165765Y-79419112D01*
X125165766Y-79419113D01*
X125262644Y-79526002D01*
X125348579Y-79641872D01*
X125422743Y-79765607D01*
X125484422Y-79896015D01*
X125533021Y-80031842D01*
X125568073Y-80171777D01*
X125589241Y-80314475D01*
X125596319Y-80458560D01*
X125589241Y-80602645D01*
X125568073Y-80745343D01*
X125533021Y-80885278D01*
X125484422Y-81021105D01*
X125422743Y-81151513D01*
X125348579Y-81275248D01*
X125262644Y-81391118D01*
X125165766Y-81498007D01*
X119598007Y-87065766D01*
X119491118Y-87162644D01*
X119375248Y-87248579D01*
X119251513Y-87322743D01*
X119121105Y-87384422D01*
X118985278Y-87433021D01*
X118845343Y-87468073D01*
X118702645Y-87489241D01*
X118558560Y-87496319D01*
X118414475Y-87489241D01*
X118271777Y-87468073D01*
X118131842Y-87433021D01*
X117996015Y-87384422D01*
X117865607Y-87322743D01*
X117741872Y-87248579D01*
X117626002Y-87162644D01*
X117519113Y-87065766D01*
X117519112Y-87065765D01*
X117422234Y-86958876D01*
X117336299Y-86843006D01*
X117262135Y-86719271D01*
X117200456Y-86588863D01*
X117151857Y-86453036D01*
X117116805Y-86313101D01*
X117095637Y-86170403D01*
X117088559Y-86026318D01*
X117095637Y-85882233D01*
X117116805Y-85739535D01*
X117151857Y-85599600D01*
X117200456Y-85463773D01*
X117262135Y-85333365D01*
X117336299Y-85209630D01*
X117422234Y-85093760D01*
X117519112Y-84986871D01*
X123086871Y-79419112D01*
X123193760Y-79322234D01*
X123309630Y-79236299D01*
X123433365Y-79162135D01*
X123563773Y-79100456D01*
X123699600Y-79051857D01*
X123839535Y-79016805D01*
X123982233Y-78995637D01*
X124126318Y-78988559D01*
X124270403Y-78995637D01*
X124270403Y-78995637D01*
G37*
D14*
X121342439Y-83242439D03*
G04 #@! TD*
D15*
G04 #@! TO.C,J1*
X125780800Y-74941800D03*
D16*
X128280800Y-74941800D03*
G04 #@! TD*
M02*
