G04 #@! TF.GenerationSoftware,KiCad,Pcbnew,6.0.0-rc1-unknown-7dfc4e3~65~ubuntu18.04.1*
G04 #@! TF.CreationDate,2018-07-28T16:35:14+05:30*
G04 #@! TF.ProjectId,airmount,6169726D6F756E742E6B696361645F70,rev?*
G04 #@! TF.SameCoordinates,Original*
G04 #@! TF.FileFunction,Copper,L1,Top,Signal*
G04 #@! TF.FilePolarity,Positive*
%FSLAX46Y46*%
G04 Gerber Fmt 4.6, Leading zero omitted, Abs format (unit mm)*
G04 Created by KiCad (PCBNEW 6.0.0-rc1-unknown-7dfc4e3~65~ubuntu18.04.1) date Sat Jul 28 16:35:14 2018*
%MOMM*%
%LPD*%
G01*
G04 APERTURE LIST*
G04 #@! TA.AperFunction,ComponentPad*
%ADD10C,4.064000*%
G04 #@! TD*
G04 #@! TA.AperFunction,Conductor*
%ADD11C,0.127000*%
G04 #@! TD*
G04 #@! TA.AperFunction,ComponentPad*
%ADD12C,2.540000*%
G04 #@! TD*
G04 #@! TA.AperFunction,ComponentPad*
%ADD13R,1.750000X1.750000*%
G04 #@! TD*
G04 #@! TA.AperFunction,ComponentPad*
%ADD14C,1.750000*%
G04 #@! TD*
G04 #@! TA.AperFunction,ViaPad*
%ADD15C,0.800000*%
G04 #@! TD*
G04 #@! TA.AperFunction,Conductor*
%ADD16C,1.016000*%
G04 #@! TD*
G04 APERTURE END LIST*
D10*
G04 #@! TO.P,M1,2*
G04 #@! TO.N,GND*
X133358021Y-82541979D03*
G04 #@! TO.P,M1,1*
G04 #@! TO.N,Net-(J1-Pad1)*
X120641979Y-95258021D03*
G04 #@! TD*
D11*
G04 #@! TO.N,GND*
G04 #@! TO.C,M2*
G36*
X135565922Y-90509796D02*
X135689205Y-90528084D01*
X135810102Y-90558367D01*
X135927448Y-90600354D01*
X136040114Y-90653641D01*
X136147014Y-90717715D01*
X136247119Y-90791958D01*
X136339466Y-90875655D01*
X136339467Y-90875656D01*
X136423164Y-90968003D01*
X136497407Y-91068108D01*
X136561481Y-91175008D01*
X136614768Y-91287674D01*
X136656755Y-91405020D01*
X136687038Y-91525917D01*
X136705326Y-91649200D01*
X136711441Y-91773682D01*
X136705326Y-91898164D01*
X136687038Y-92021447D01*
X136656755Y-92142344D01*
X136614768Y-92259690D01*
X136561481Y-92372356D01*
X136497407Y-92479256D01*
X136423164Y-92579361D01*
X136339467Y-92671708D01*
X130771708Y-98239467D01*
X130679361Y-98323164D01*
X130579256Y-98397407D01*
X130472356Y-98461481D01*
X130359690Y-98514768D01*
X130242344Y-98556755D01*
X130121447Y-98587038D01*
X129998164Y-98605326D01*
X129873682Y-98611441D01*
X129749200Y-98605326D01*
X129625917Y-98587038D01*
X129505020Y-98556755D01*
X129387674Y-98514768D01*
X129275008Y-98461481D01*
X129168108Y-98397407D01*
X129068003Y-98323164D01*
X128975656Y-98239467D01*
X128975655Y-98239466D01*
X128891958Y-98147119D01*
X128817715Y-98047014D01*
X128753641Y-97940114D01*
X128700354Y-97827448D01*
X128658367Y-97710102D01*
X128628084Y-97589205D01*
X128609796Y-97465922D01*
X128603681Y-97341440D01*
X128609796Y-97216958D01*
X128628084Y-97093675D01*
X128658367Y-96972778D01*
X128700354Y-96855432D01*
X128753641Y-96742766D01*
X128817715Y-96635866D01*
X128891958Y-96535761D01*
X128975655Y-96443414D01*
X134543414Y-90875655D01*
X134635761Y-90791958D01*
X134735866Y-90717715D01*
X134842766Y-90653641D01*
X134955432Y-90600354D01*
X135072778Y-90558367D01*
X135193675Y-90528084D01*
X135316958Y-90509796D01*
X135441440Y-90503681D01*
X135565922Y-90509796D01*
X135565922Y-90509796D01*
G37*
D12*
G04 #@! TD*
G04 #@! TO.P,M2,2*
G04 #@! TO.N,GND*
X132657561Y-94557561D03*
D11*
G04 #@! TO.N,Net-(J1-Pad1)*
G04 #@! TO.C,M2*
G36*
X124250800Y-79194674D02*
X124374083Y-79212962D01*
X124494980Y-79243245D01*
X124612326Y-79285232D01*
X124724992Y-79338519D01*
X124831892Y-79402593D01*
X124931997Y-79476836D01*
X125024344Y-79560533D01*
X125024345Y-79560534D01*
X125108042Y-79652881D01*
X125182285Y-79752986D01*
X125246359Y-79859886D01*
X125299646Y-79972552D01*
X125341633Y-80089898D01*
X125371916Y-80210795D01*
X125390204Y-80334078D01*
X125396319Y-80458560D01*
X125390204Y-80583042D01*
X125371916Y-80706325D01*
X125341633Y-80827222D01*
X125299646Y-80944568D01*
X125246359Y-81057234D01*
X125182285Y-81164134D01*
X125108042Y-81264239D01*
X125024345Y-81356586D01*
X119456586Y-86924345D01*
X119364239Y-87008042D01*
X119264134Y-87082285D01*
X119157234Y-87146359D01*
X119044568Y-87199646D01*
X118927222Y-87241633D01*
X118806325Y-87271916D01*
X118683042Y-87290204D01*
X118558560Y-87296319D01*
X118434078Y-87290204D01*
X118310795Y-87271916D01*
X118189898Y-87241633D01*
X118072552Y-87199646D01*
X117959886Y-87146359D01*
X117852986Y-87082285D01*
X117752881Y-87008042D01*
X117660534Y-86924345D01*
X117660533Y-86924344D01*
X117576836Y-86831997D01*
X117502593Y-86731892D01*
X117438519Y-86624992D01*
X117385232Y-86512326D01*
X117343245Y-86394980D01*
X117312962Y-86274083D01*
X117294674Y-86150800D01*
X117288559Y-86026318D01*
X117294674Y-85901836D01*
X117312962Y-85778553D01*
X117343245Y-85657656D01*
X117385232Y-85540310D01*
X117438519Y-85427644D01*
X117502593Y-85320744D01*
X117576836Y-85220639D01*
X117660533Y-85128292D01*
X123228292Y-79560533D01*
X123320639Y-79476836D01*
X123420744Y-79402593D01*
X123527644Y-79338519D01*
X123640310Y-79285232D01*
X123757656Y-79243245D01*
X123878553Y-79212962D01*
X124001836Y-79194674D01*
X124126318Y-79188559D01*
X124250800Y-79194674D01*
X124250800Y-79194674D01*
G37*
D12*
G04 #@! TD*
G04 #@! TO.P,M2,1*
G04 #@! TO.N,Net-(J1-Pad1)*
X121342439Y-83242439D03*
D13*
G04 #@! TO.P,J1,1*
G04 #@! TO.N,Net-(J1-Pad1)*
X125780800Y-74941800D03*
D14*
G04 #@! TO.P,J1,2*
G04 #@! TO.N,GND*
X128280800Y-74941800D03*
G04 #@! TD*
D15*
G04 #@! TO.N,GND*
X128280800Y-77464758D03*
X130191042Y-79375000D03*
X136906000Y-86089958D03*
X136906000Y-90309122D03*
X136906000Y-88392000D03*
G04 #@! TD*
D16*
G04 #@! TO.N,GND*
X128280800Y-77464758D02*
X128280800Y-77464758D01*
X128280800Y-74941800D02*
X128280800Y-77464758D01*
X133358021Y-82541979D02*
X136906000Y-86089958D01*
X136906000Y-90309122D02*
X136906000Y-90309122D01*
X136906000Y-86089958D02*
X136906000Y-88392000D01*
X128280800Y-77464758D02*
X130191042Y-79375000D01*
X130191042Y-79375000D02*
X133358021Y-82541979D01*
X136906000Y-86089958D02*
X136906000Y-86089958D01*
X136906000Y-90309122D02*
X132657561Y-94557561D01*
X136906000Y-88392000D02*
X136906000Y-90309122D01*
G04 #@! TO.N,Net-(J1-Pad1)*
X125780800Y-78804078D02*
X121342439Y-83242439D01*
X125780800Y-74941800D02*
X125780800Y-78804078D01*
X120641979Y-95258021D02*
X117221000Y-91837042D01*
X117221000Y-87363878D02*
X121342439Y-83242439D01*
X117221000Y-91837042D02*
X117221000Y-87363878D01*
G04 #@! TD*
M02*
