G04 #@! TF.FileFunction,Copper,L1,Top,Signal*
%FSLAX46Y46*%
G04 Gerber Fmt 4.6, Leading zero omitted, Abs format (unit mm)*
G04 Created by KiCad (PCBNEW 4.0.7-e2-6376~58~ubuntu16.04.1) date Thu Sep 21 22:43:52 2017*
%MOMM*%
%LPD*%
G01*
G04 APERTURE LIST*
%ADD10C,0.050800*%
%ADD11C,2.400000*%
%ADD12R,2.400000X2.400000*%
%ADD13R,1.700000X1.700000*%
%ADD14O,1.700000X1.700000*%
%ADD15C,1.676400*%
%ADD16R,1.778000X1.778000*%
%ADD17C,1.778000*%
%ADD18C,2.032000*%
%ADD19C,4.064000*%
%ADD20C,1.270000*%
%ADD21C,0.250000*%
G04 APERTURE END LIST*
D10*
D11*
X82550000Y-34330000D03*
D12*
X82550000Y-39330000D03*
X82550000Y-37830000D03*
D11*
X82550000Y-44490000D03*
D12*
X82550000Y-49490000D03*
X82550000Y-47990000D03*
D13*
X80645000Y-54610000D03*
D14*
X80645000Y-57150000D03*
X80645000Y-59690000D03*
D15*
X74930000Y-36195000D03*
X74930000Y-38735000D03*
X66040000Y-38735000D03*
X66040000Y-36195000D03*
X74930000Y-55880000D03*
X74930000Y-53340000D03*
X66040000Y-53340000D03*
X66040000Y-55880000D03*
D16*
X59055000Y-44450000D03*
D17*
X61595000Y-44450000D03*
X59055000Y-46990000D03*
X61595000Y-46990000D03*
X59055000Y-49530000D03*
X61595000Y-49530000D03*
D18*
X66040000Y-41910000D03*
X76200000Y-41910000D03*
X66040000Y-31750000D03*
X76200000Y-31750000D03*
X66040000Y-50165000D03*
X76200000Y-50165000D03*
X76200000Y-60960000D03*
X66040000Y-60960000D03*
D19*
X59055000Y-33020000D03*
X59055000Y-60960000D03*
X86995000Y-60960000D03*
D20*
X82550000Y-34330000D02*
X76795000Y-34330000D01*
X59055000Y-44450000D02*
X59055000Y-40640000D01*
X59055000Y-40640000D02*
X60960000Y-38735000D01*
X82550000Y-34330000D02*
X80852944Y-34330000D01*
X74930000Y-36195000D02*
X71120000Y-36195000D01*
X68580000Y-38735000D02*
X71120000Y-36195000D01*
X76795000Y-34330000D02*
X74930000Y-36195000D01*
X66040000Y-38735000D02*
X68580000Y-38735000D01*
X66040000Y-38735000D02*
X60960000Y-38735000D01*
X78740000Y-57150000D02*
X80645000Y-57150000D01*
X82550000Y-49490000D02*
X80080000Y-49490000D01*
X57785000Y-46990000D02*
X59055000Y-46990000D01*
X82550000Y-47990000D02*
X82550000Y-49490000D01*
X78105000Y-51465000D02*
X78105000Y-55880000D01*
X78105000Y-55880000D02*
X78105000Y-56515000D01*
X74930000Y-55880000D02*
X78105000Y-55880000D01*
X78105000Y-56515000D02*
X78740000Y-57150000D01*
X80080000Y-49490000D02*
X78105000Y-51465000D01*
X71755000Y-55880000D02*
X69215000Y-53340000D01*
X74930000Y-55880000D02*
X71755000Y-55880000D01*
X66040000Y-53340000D02*
X58420000Y-53340000D01*
X58420000Y-53340000D02*
X56515000Y-51435000D01*
X56515000Y-51435000D02*
X56515000Y-48260000D01*
X56515000Y-48260000D02*
X57785000Y-46990000D01*
X69215000Y-53340000D02*
X66040000Y-53340000D01*
X82550000Y-39330000D02*
X78780000Y-39330000D01*
X78780000Y-39330000D02*
X76200000Y-41910000D01*
X61595000Y-44450000D02*
X73660000Y-44450000D01*
X73660000Y-44450000D02*
X76200000Y-41910000D01*
X61595000Y-44450000D02*
X63500000Y-44450000D01*
X82550000Y-39330000D02*
X82550000Y-37830000D01*
X78352944Y-46990000D02*
X76200000Y-46990000D01*
X76200000Y-46990000D02*
X74295000Y-46990000D01*
X76200000Y-50165000D02*
X76200000Y-48728160D01*
X76200000Y-48728160D02*
X76200000Y-46990000D01*
X82550000Y-44490000D02*
X80852944Y-44490000D01*
X80852944Y-44490000D02*
X78352944Y-46990000D01*
X69215000Y-46990000D02*
X74295000Y-46990000D01*
X61595000Y-46990000D02*
X69215000Y-46990000D01*
D21*
X86995000Y-44450000D02*
X86995000Y-53340000D01*
X80645000Y-54610000D02*
X85725000Y-54610000D01*
X85725000Y-54610000D02*
X86995000Y-53340000D01*
X59055000Y-49530000D02*
X60325000Y-48260000D01*
X60325000Y-48260000D02*
X60325000Y-46355000D01*
X60325000Y-46355000D02*
X60960000Y-45720000D01*
X60960000Y-45720000D02*
X76835000Y-45720000D01*
X84455000Y-41910000D02*
X86995000Y-44450000D01*
X76835000Y-45720000D02*
X80645000Y-41910000D01*
X80645000Y-41910000D02*
X84455000Y-41910000D01*
D20*
X80645000Y-59690000D02*
X82550000Y-59690000D01*
X82550000Y-59690000D02*
X85090000Y-57150000D01*
X83820000Y-31750000D02*
X76200000Y-31750000D01*
X85090000Y-57150000D02*
X86995000Y-57150000D01*
X86995000Y-57150000D02*
X88900000Y-55245000D01*
X88900000Y-55245000D02*
X88900000Y-36830000D01*
X88900000Y-36830000D02*
X83820000Y-31750000D01*
X80645000Y-59690000D02*
X78105000Y-62230000D01*
X69215000Y-60960000D02*
X66040000Y-60960000D01*
X76835000Y-63500000D02*
X71755000Y-63500000D01*
X78105000Y-62230000D02*
X76835000Y-63500000D01*
X71755000Y-63500000D02*
X69215000Y-60960000D01*
X73660000Y-38735000D02*
X74930000Y-38735000D01*
X70485000Y-41910000D02*
X73660000Y-38735000D01*
X66040000Y-41910000D02*
X70485000Y-41910000D01*
X66040000Y-36195000D02*
X66040000Y-31750000D01*
X71755000Y-50165000D02*
X74930000Y-53340000D01*
X66040000Y-50165000D02*
X71755000Y-50165000D01*
X67945000Y-55880000D02*
X66040000Y-55880000D01*
X73025000Y-60960000D02*
X67945000Y-55880000D01*
X76200000Y-60960000D02*
X73025000Y-60960000D01*
M02*
