M48
INCH,TZ
T1C0.032
T2C0.040
T3C0.047
T4C0.120
%
G90
G05
T1
X026000Y-014250
X026000Y-015250
X026000Y-021000
X026000Y-022000
X029500Y-014250
X029500Y-015250
X029500Y-021000
X029500Y-022000
T2
X023250Y-017500
X023250Y-018500
X023250Y-019500
X024250Y-017500
X024250Y-018500
X024250Y-019500
X026000Y-012500
X026000Y-016500
X026000Y-019750
X026000Y-024000
X030000Y-012500
X030000Y-016500
X030000Y-019750
X030000Y-024000
X031750Y-021500
X031750Y-022500
X031750Y-023500
T3
X032500Y-013516
X032500Y-014894
X032500Y-015484
X032500Y-017516
X032500Y-018894
X032500Y-019484
T4
X023250Y-013000
X023250Y-024000
X034250Y-024000
T0
M30
