G04 #@! TF.FileFunction,Legend,Top*
%FSLAX46Y46*%
G04 Gerber Fmt 4.6, Leading zero omitted, Abs format (unit mm)*
G04 Created by KiCad (PCBNEW 4.0.7-e2-6376~58~ubuntu16.04.1) date Fri Sep  8 19:20:11 2017*
%MOMM*%
%LPD*%
G01*
G04 APERTURE LIST*
%ADD10C,0.050800*%
%ADD11C,0.203200*%
%ADD12C,0.150000*%
%ADD13C,0.120000*%
%ADD14C,0.200000*%
%ADD15C,2.800000*%
%ADD16R,2.800000X2.800000*%
%ADD17R,2.100000X2.100000*%
%ADD18O,2.100000X2.100000*%
%ADD19C,2.076400*%
%ADD20R,2.178000X2.178000*%
%ADD21C,2.178000*%
%ADD22C,2.432000*%
%ADD23C,4.464000*%
G04 APERTURE END LIST*
D10*
D11*
X56974619Y-44159714D02*
X56974619Y-44740285D01*
X56974619Y-44449999D02*
X55958619Y-44449999D01*
X56103762Y-44546761D01*
X56200524Y-44643523D01*
X56248905Y-44740285D01*
X83112429Y-54537429D02*
X83160810Y-54392286D01*
X83209190Y-54343905D01*
X83305952Y-54295524D01*
X83451095Y-54295524D01*
X83547857Y-54343905D01*
X83596238Y-54392286D01*
X83644619Y-54489048D01*
X83644619Y-54876095D01*
X82628619Y-54876095D01*
X82628619Y-54537429D01*
X82677000Y-54440667D01*
X82725381Y-54392286D01*
X82822143Y-54343905D01*
X82918905Y-54343905D01*
X83015667Y-54392286D01*
X83064048Y-54440667D01*
X83112429Y-54537429D01*
X83112429Y-54876095D01*
X83644619Y-56835524D02*
X83160810Y-57174190D01*
X83644619Y-57416095D02*
X82628619Y-57416095D01*
X82628619Y-57029048D01*
X82677000Y-56932286D01*
X82725381Y-56883905D01*
X82822143Y-56835524D01*
X82967286Y-56835524D01*
X83064048Y-56883905D01*
X83112429Y-56932286D01*
X83160810Y-57029048D01*
X83160810Y-57416095D01*
X82628619Y-60125428D02*
X83644619Y-59883523D01*
X82918905Y-59690000D01*
X83644619Y-59496476D01*
X82628619Y-59254571D01*
D12*
X86650000Y-36830000D02*
X87050000Y-36830000D01*
X85550000Y-41080000D02*
X85550000Y-32580000D01*
X86650000Y-41080000D02*
X86650000Y-32580000D01*
X79450000Y-41080000D02*
X87050000Y-41080000D01*
X87050000Y-32580000D02*
X79450000Y-32580000D01*
X79450000Y-32580000D02*
X79450000Y-41080000D01*
X86650000Y-46990000D02*
X87050000Y-46990000D01*
X85550000Y-51240000D02*
X85550000Y-42740000D01*
X86650000Y-51240000D02*
X86650000Y-42740000D01*
X79450000Y-51240000D02*
X87050000Y-51240000D01*
X87050000Y-42740000D02*
X79450000Y-42740000D01*
X79450000Y-42740000D02*
X79450000Y-51240000D01*
D13*
X79315000Y-61020000D02*
X81975000Y-61020000D01*
X79315000Y-55880000D02*
X79315000Y-61020000D01*
X81975000Y-55880000D02*
X81975000Y-61020000D01*
X79315000Y-55880000D02*
X81975000Y-55880000D01*
X79315000Y-54610000D02*
X79315000Y-53280000D01*
X79315000Y-53280000D02*
X80645000Y-53280000D01*
D14*
X73152000Y-35179000D02*
X76708000Y-35179000D01*
X73151999Y-35179001D02*
G75*
G03X76708000Y-35179000I1778001J-2285999D01*
G01*
X67818000Y-39751000D02*
X64262000Y-39751000D01*
X67818001Y-39750999D02*
G75*
G03X64262000Y-39751000I-1778001J2285999D01*
G01*
X76708000Y-56896000D02*
X73152000Y-56896000D01*
X76708001Y-56895999D02*
G75*
G03X73152000Y-56896000I-1778001J2285999D01*
G01*
X64262000Y-52324000D02*
X67818000Y-52324000D01*
X64261999Y-52324001D02*
G75*
G03X67818000Y-52324000I1778001J-2285999D01*
G01*
D12*
X60325000Y-43180000D02*
X60325000Y-45720000D01*
X60325000Y-45720000D02*
X57785000Y-45720000D01*
X57785000Y-43180000D02*
X57785000Y-50800000D01*
X57785000Y-50800000D02*
X62865000Y-50800000D01*
X62865000Y-50800000D02*
X62865000Y-45720000D01*
X57785000Y-43180000D02*
X60325000Y-43180000D01*
X62865000Y-43180000D02*
X60325000Y-43180000D01*
X62865000Y-45720000D02*
X62865000Y-43180000D01*
X68580000Y-40640000D02*
X73660000Y-40640000D01*
X73660000Y-40640000D02*
X73660000Y-43180000D01*
X73660000Y-43180000D02*
X68580000Y-43180000D01*
X68580000Y-43180000D02*
X68580000Y-40640000D01*
X68580000Y-41910000D02*
X67310000Y-41910000D01*
X73660000Y-41910000D02*
X74930000Y-41910000D01*
X68580000Y-30480000D02*
X73660000Y-30480000D01*
X73660000Y-30480000D02*
X73660000Y-33020000D01*
X73660000Y-33020000D02*
X68580000Y-33020000D01*
X68580000Y-33020000D02*
X68580000Y-30480000D01*
X68580000Y-31750000D02*
X67310000Y-31750000D01*
X73660000Y-31750000D02*
X74930000Y-31750000D01*
X68580000Y-48895000D02*
X73660000Y-48895000D01*
X73660000Y-48895000D02*
X73660000Y-51435000D01*
X73660000Y-51435000D02*
X68580000Y-51435000D01*
X68580000Y-51435000D02*
X68580000Y-48895000D01*
X68580000Y-50165000D02*
X67310000Y-50165000D01*
X73660000Y-50165000D02*
X74930000Y-50165000D01*
X73660000Y-62230000D02*
X68580000Y-62230000D01*
X68580000Y-62230000D02*
X68580000Y-59690000D01*
X68580000Y-59690000D02*
X73660000Y-59690000D01*
X73660000Y-59690000D02*
X73660000Y-62230000D01*
X73660000Y-60960000D02*
X74930000Y-60960000D01*
X68580000Y-60960000D02*
X67310000Y-60960000D01*
X61341000Y-33020000D02*
G75*
G03X61341000Y-33020000I-2286000J0D01*
G01*
X61341000Y-60960000D02*
G75*
G03X61341000Y-60960000I-2286000J0D01*
G01*
X89281000Y-60960000D02*
G75*
G03X89281000Y-60960000I-2286000J0D01*
G01*
X87717381Y-40973333D02*
X88431667Y-40973333D01*
X88574524Y-41020953D01*
X88669762Y-41116191D01*
X88717381Y-41259048D01*
X88717381Y-41354286D01*
X87812619Y-40544762D02*
X87765000Y-40497143D01*
X87717381Y-40401905D01*
X87717381Y-40163809D01*
X87765000Y-40068571D01*
X87812619Y-40020952D01*
X87907857Y-39973333D01*
X88003095Y-39973333D01*
X88145952Y-40020952D01*
X88717381Y-40592381D01*
X88717381Y-39973333D01*
X88669762Y-35504286D02*
X88717381Y-35361429D01*
X88717381Y-35123333D01*
X88669762Y-35028095D01*
X88622143Y-34980476D01*
X88526905Y-34932857D01*
X88431667Y-34932857D01*
X88336429Y-34980476D01*
X88288810Y-35028095D01*
X88241190Y-35123333D01*
X88193571Y-35313810D01*
X88145952Y-35409048D01*
X88098333Y-35456667D01*
X88003095Y-35504286D01*
X87907857Y-35504286D01*
X87812619Y-35456667D01*
X87765000Y-35409048D01*
X87717381Y-35313810D01*
X87717381Y-35075714D01*
X87765000Y-34932857D01*
X87717381Y-34313810D02*
X87717381Y-34123333D01*
X87765000Y-34028095D01*
X87860238Y-33932857D01*
X88050714Y-33885238D01*
X88384048Y-33885238D01*
X88574524Y-33932857D01*
X88669762Y-34028095D01*
X88717381Y-34123333D01*
X88717381Y-34313810D01*
X88669762Y-34409048D01*
X88574524Y-34504286D01*
X88384048Y-34551905D01*
X88050714Y-34551905D01*
X87860238Y-34504286D01*
X87765000Y-34409048D01*
X87717381Y-34313810D01*
X88717381Y-32980476D02*
X88717381Y-33456667D01*
X87717381Y-33456667D01*
X87717381Y-51133333D02*
X88431667Y-51133333D01*
X88574524Y-51180953D01*
X88669762Y-51276191D01*
X88717381Y-51419048D01*
X88717381Y-51514286D01*
X87717381Y-50752381D02*
X87717381Y-50133333D01*
X88098333Y-50466667D01*
X88098333Y-50323809D01*
X88145952Y-50228571D01*
X88193571Y-50180952D01*
X88288810Y-50133333D01*
X88526905Y-50133333D01*
X88622143Y-50180952D01*
X88669762Y-50228571D01*
X88717381Y-50323809D01*
X88717381Y-50609524D01*
X88669762Y-50704762D01*
X88622143Y-50752381D01*
X88717381Y-46307143D02*
X87717381Y-46307143D01*
X87717381Y-45926190D01*
X87765000Y-45830952D01*
X87812619Y-45783333D01*
X87907857Y-45735714D01*
X88050714Y-45735714D01*
X88145952Y-45783333D01*
X88193571Y-45830952D01*
X88241190Y-45926190D01*
X88241190Y-46307143D01*
X87717381Y-45307143D02*
X88526905Y-45307143D01*
X88622143Y-45259524D01*
X88669762Y-45211905D01*
X88717381Y-45116667D01*
X88717381Y-44926190D01*
X88669762Y-44830952D01*
X88622143Y-44783333D01*
X88526905Y-44735714D01*
X87717381Y-44735714D01*
X88717381Y-44259524D02*
X87717381Y-44259524D01*
X88431667Y-43926190D01*
X87717381Y-43592857D01*
X88717381Y-43592857D01*
X88717381Y-43116667D02*
X87717381Y-43116667D01*
X87717381Y-42735714D01*
X87765000Y-42640476D01*
X87812619Y-42592857D01*
X87907857Y-42545238D01*
X88050714Y-42545238D01*
X88145952Y-42592857D01*
X88193571Y-42640476D01*
X88241190Y-42735714D01*
X88241190Y-43116667D01*
X86129762Y-58070476D02*
X86177381Y-57927619D01*
X86177381Y-57689523D01*
X86129762Y-57594285D01*
X86082143Y-57546666D01*
X85986905Y-57499047D01*
X85891667Y-57499047D01*
X85796429Y-57546666D01*
X85748810Y-57594285D01*
X85701190Y-57689523D01*
X85653571Y-57880000D01*
X85605952Y-57975238D01*
X85558333Y-58022857D01*
X85463095Y-58070476D01*
X85367857Y-58070476D01*
X85272619Y-58022857D01*
X85225000Y-57975238D01*
X85177381Y-57880000D01*
X85177381Y-57641904D01*
X85225000Y-57499047D01*
X85653571Y-57070476D02*
X85653571Y-56737142D01*
X86177381Y-56594285D02*
X86177381Y-57070476D01*
X85177381Y-57070476D01*
X85177381Y-56594285D01*
X86177381Y-55594285D02*
X85701190Y-55927619D01*
X86177381Y-56165714D02*
X85177381Y-56165714D01*
X85177381Y-55784761D01*
X85225000Y-55689523D01*
X85272619Y-55641904D01*
X85367857Y-55594285D01*
X85510714Y-55594285D01*
X85605952Y-55641904D01*
X85653571Y-55689523D01*
X85701190Y-55784761D01*
X85701190Y-56165714D01*
X85177381Y-55308571D02*
X86177381Y-54975238D01*
X85177381Y-54641904D01*
X85177381Y-54118095D02*
X85177381Y-53927618D01*
X85225000Y-53832380D01*
X85320238Y-53737142D01*
X85510714Y-53689523D01*
X85844048Y-53689523D01*
X86034524Y-53737142D01*
X86129762Y-53832380D01*
X86177381Y-53927618D01*
X86177381Y-54118095D01*
X86129762Y-54213333D01*
X86034524Y-54308571D01*
X85844048Y-54356190D01*
X85510714Y-54356190D01*
X85320238Y-54308571D01*
X85225000Y-54213333D01*
X85177381Y-54118095D01*
X82637381Y-62563333D02*
X83351667Y-62563333D01*
X83494524Y-62610953D01*
X83589762Y-62706191D01*
X83637381Y-62849048D01*
X83637381Y-62944286D01*
X82970714Y-61658571D02*
X83637381Y-61658571D01*
X82589762Y-61896667D02*
X83304048Y-62134762D01*
X83304048Y-61515714D01*
X73477381Y-38203095D02*
X72477381Y-38203095D01*
X72477381Y-37965000D01*
X72525000Y-37822142D01*
X72620238Y-37726904D01*
X72715476Y-37679285D01*
X72905952Y-37631666D01*
X73048810Y-37631666D01*
X73239286Y-37679285D01*
X73334524Y-37726904D01*
X73429762Y-37822142D01*
X73477381Y-37965000D01*
X73477381Y-38203095D01*
X73477381Y-36679285D02*
X73477381Y-37250714D01*
X73477381Y-36965000D02*
X72477381Y-36965000D01*
X72620238Y-37060238D01*
X72715476Y-37155476D01*
X72763095Y-37250714D01*
X71524762Y-38679286D02*
X71572381Y-38536429D01*
X71572381Y-38298333D01*
X71524762Y-38203095D01*
X71477143Y-38155476D01*
X71381905Y-38107857D01*
X71286667Y-38107857D01*
X71191429Y-38155476D01*
X71143810Y-38203095D01*
X71096190Y-38298333D01*
X71048571Y-38488810D01*
X71000952Y-38584048D01*
X70953333Y-38631667D01*
X70858095Y-38679286D01*
X70762857Y-38679286D01*
X70667619Y-38631667D01*
X70620000Y-38584048D01*
X70572381Y-38488810D01*
X70572381Y-38250714D01*
X70620000Y-38107857D01*
X70572381Y-37488810D02*
X70572381Y-37298333D01*
X70620000Y-37203095D01*
X70715238Y-37107857D01*
X70905714Y-37060238D01*
X71239048Y-37060238D01*
X71429524Y-37107857D01*
X71524762Y-37203095D01*
X71572381Y-37298333D01*
X71572381Y-37488810D01*
X71524762Y-37584048D01*
X71429524Y-37679286D01*
X71239048Y-37726905D01*
X70905714Y-37726905D01*
X70715238Y-37679286D01*
X70620000Y-37584048D01*
X70572381Y-37488810D01*
X71572381Y-36155476D02*
X71572381Y-36631667D01*
X70572381Y-36631667D01*
X68397381Y-38203095D02*
X67397381Y-38203095D01*
X67397381Y-37965000D01*
X67445000Y-37822142D01*
X67540238Y-37726904D01*
X67635476Y-37679285D01*
X67825952Y-37631666D01*
X67968810Y-37631666D01*
X68159286Y-37679285D01*
X68254524Y-37726904D01*
X68349762Y-37822142D01*
X68397381Y-37965000D01*
X68397381Y-38203095D01*
X67492619Y-37250714D02*
X67445000Y-37203095D01*
X67397381Y-37107857D01*
X67397381Y-36869761D01*
X67445000Y-36774523D01*
X67492619Y-36726904D01*
X67587857Y-36679285D01*
X67683095Y-36679285D01*
X67825952Y-36726904D01*
X68397381Y-37298333D01*
X68397381Y-36679285D01*
X61682381Y-38488809D02*
X62682381Y-38155476D01*
X61682381Y-37822142D01*
X62682381Y-37488809D02*
X62015714Y-37488809D01*
X61682381Y-37488809D02*
X61730000Y-37536428D01*
X61777619Y-37488809D01*
X61730000Y-37441190D01*
X61682381Y-37488809D01*
X61777619Y-37488809D01*
X62015714Y-37012619D02*
X62682381Y-37012619D01*
X62110952Y-37012619D02*
X62063333Y-36965000D01*
X62015714Y-36869762D01*
X62015714Y-36726904D01*
X62063333Y-36631666D01*
X62158571Y-36584047D01*
X62682381Y-36584047D01*
X73477381Y-55348095D02*
X72477381Y-55348095D01*
X72477381Y-55110000D01*
X72525000Y-54967142D01*
X72620238Y-54871904D01*
X72715476Y-54824285D01*
X72905952Y-54776666D01*
X73048810Y-54776666D01*
X73239286Y-54824285D01*
X73334524Y-54871904D01*
X73429762Y-54967142D01*
X73477381Y-55110000D01*
X73477381Y-55348095D01*
X72477381Y-54443333D02*
X72477381Y-53824285D01*
X72858333Y-54157619D01*
X72858333Y-54014761D01*
X72905952Y-53919523D01*
X72953571Y-53871904D01*
X73048810Y-53824285D01*
X73286905Y-53824285D01*
X73382143Y-53871904D01*
X73429762Y-53919523D01*
X73477381Y-54014761D01*
X73477381Y-54300476D01*
X73429762Y-54395714D01*
X73382143Y-54443333D01*
X71572381Y-56467143D02*
X70572381Y-56467143D01*
X70572381Y-56086190D01*
X70620000Y-55990952D01*
X70667619Y-55943333D01*
X70762857Y-55895714D01*
X70905714Y-55895714D01*
X71000952Y-55943333D01*
X71048571Y-55990952D01*
X71096190Y-56086190D01*
X71096190Y-56467143D01*
X70572381Y-55467143D02*
X71381905Y-55467143D01*
X71477143Y-55419524D01*
X71524762Y-55371905D01*
X71572381Y-55276667D01*
X71572381Y-55086190D01*
X71524762Y-54990952D01*
X71477143Y-54943333D01*
X71381905Y-54895714D01*
X70572381Y-54895714D01*
X71572381Y-54419524D02*
X70572381Y-54419524D01*
X71286667Y-54086190D01*
X70572381Y-53752857D01*
X71572381Y-53752857D01*
X71572381Y-53276667D02*
X70572381Y-53276667D01*
X70572381Y-52895714D01*
X70620000Y-52800476D01*
X70667619Y-52752857D01*
X70762857Y-52705238D01*
X70905714Y-52705238D01*
X71000952Y-52752857D01*
X71048571Y-52800476D01*
X71096190Y-52895714D01*
X71096190Y-53276667D01*
X68397381Y-55348095D02*
X67397381Y-55348095D01*
X67397381Y-55110000D01*
X67445000Y-54967142D01*
X67540238Y-54871904D01*
X67635476Y-54824285D01*
X67825952Y-54776666D01*
X67968810Y-54776666D01*
X68159286Y-54824285D01*
X68254524Y-54871904D01*
X68349762Y-54967142D01*
X68397381Y-55110000D01*
X68397381Y-55348095D01*
X67730714Y-53919523D02*
X68397381Y-53919523D01*
X67349762Y-54157619D02*
X68064048Y-54395714D01*
X68064048Y-53776666D01*
X62634762Y-56324286D02*
X62682381Y-56181429D01*
X62682381Y-55943333D01*
X62634762Y-55848095D01*
X62587143Y-55800476D01*
X62491905Y-55752857D01*
X62396667Y-55752857D01*
X62301429Y-55800476D01*
X62253810Y-55848095D01*
X62206190Y-55943333D01*
X62158571Y-56133810D01*
X62110952Y-56229048D01*
X62063333Y-56276667D01*
X61968095Y-56324286D01*
X61872857Y-56324286D01*
X61777619Y-56276667D01*
X61730000Y-56229048D01*
X61682381Y-56133810D01*
X61682381Y-55895714D01*
X61730000Y-55752857D01*
X61682381Y-55467143D02*
X62682381Y-55133810D01*
X61682381Y-54800476D01*
X62587143Y-53895714D02*
X62634762Y-53943333D01*
X62682381Y-54086190D01*
X62682381Y-54181428D01*
X62634762Y-54324286D01*
X62539524Y-54419524D01*
X62444286Y-54467143D01*
X62253810Y-54514762D01*
X62110952Y-54514762D01*
X61920476Y-54467143D01*
X61825238Y-54419524D01*
X61730000Y-54324286D01*
X61682381Y-54181428D01*
X61682381Y-54086190D01*
X61730000Y-53943333D01*
X61777619Y-53895714D01*
X62587143Y-52895714D02*
X62634762Y-52943333D01*
X62682381Y-53086190D01*
X62682381Y-53181428D01*
X62634762Y-53324286D01*
X62539524Y-53419524D01*
X62444286Y-53467143D01*
X62253810Y-53514762D01*
X62110952Y-53514762D01*
X61920476Y-53467143D01*
X61825238Y-53419524D01*
X61730000Y-53324286D01*
X61682381Y-53181428D01*
X61682381Y-53086190D01*
X61730000Y-52943333D01*
X61777619Y-52895714D01*
X58507381Y-42243333D02*
X59221667Y-42243333D01*
X59364524Y-42290953D01*
X59459762Y-42386191D01*
X59507381Y-42529048D01*
X59507381Y-42624286D01*
X59507381Y-41243333D02*
X59507381Y-41814762D01*
X59507381Y-41529048D02*
X58507381Y-41529048D01*
X58650238Y-41624286D01*
X58745476Y-41719524D01*
X58793095Y-41814762D01*
X70953334Y-42362381D02*
X70620000Y-41886190D01*
X70381905Y-42362381D02*
X70381905Y-41362381D01*
X70762858Y-41362381D01*
X70858096Y-41410000D01*
X70905715Y-41457619D01*
X70953334Y-41552857D01*
X70953334Y-41695714D01*
X70905715Y-41790952D01*
X70858096Y-41838571D01*
X70762858Y-41886190D01*
X70381905Y-41886190D01*
X71905715Y-42362381D02*
X71334286Y-42362381D01*
X71620000Y-42362381D02*
X71620000Y-41362381D01*
X71524762Y-41505238D01*
X71429524Y-41600476D01*
X71334286Y-41648095D01*
X70953334Y-32202381D02*
X70620000Y-31726190D01*
X70381905Y-32202381D02*
X70381905Y-31202381D01*
X70762858Y-31202381D01*
X70858096Y-31250000D01*
X70905715Y-31297619D01*
X70953334Y-31392857D01*
X70953334Y-31535714D01*
X70905715Y-31630952D01*
X70858096Y-31678571D01*
X70762858Y-31726190D01*
X70381905Y-31726190D01*
X71334286Y-31297619D02*
X71381905Y-31250000D01*
X71477143Y-31202381D01*
X71715239Y-31202381D01*
X71810477Y-31250000D01*
X71858096Y-31297619D01*
X71905715Y-31392857D01*
X71905715Y-31488095D01*
X71858096Y-31630952D01*
X71286667Y-32202381D01*
X71905715Y-32202381D01*
X70953334Y-50617381D02*
X70620000Y-50141190D01*
X70381905Y-50617381D02*
X70381905Y-49617381D01*
X70762858Y-49617381D01*
X70858096Y-49665000D01*
X70905715Y-49712619D01*
X70953334Y-49807857D01*
X70953334Y-49950714D01*
X70905715Y-50045952D01*
X70858096Y-50093571D01*
X70762858Y-50141190D01*
X70381905Y-50141190D01*
X71286667Y-49617381D02*
X71905715Y-49617381D01*
X71572381Y-49998333D01*
X71715239Y-49998333D01*
X71810477Y-50045952D01*
X71858096Y-50093571D01*
X71905715Y-50188810D01*
X71905715Y-50426905D01*
X71858096Y-50522143D01*
X71810477Y-50569762D01*
X71715239Y-50617381D01*
X71429524Y-50617381D01*
X71334286Y-50569762D01*
X71286667Y-50522143D01*
X70953334Y-61412381D02*
X70620000Y-60936190D01*
X70381905Y-61412381D02*
X70381905Y-60412381D01*
X70762858Y-60412381D01*
X70858096Y-60460000D01*
X70905715Y-60507619D01*
X70953334Y-60602857D01*
X70953334Y-60745714D01*
X70905715Y-60840952D01*
X70858096Y-60888571D01*
X70762858Y-60936190D01*
X70381905Y-60936190D01*
X71810477Y-60745714D02*
X71810477Y-61412381D01*
X71572381Y-60364762D02*
X71334286Y-61079048D01*
X71953334Y-61079048D01*
%LPC*%
D15*
X82550000Y-34330000D03*
D16*
X82550000Y-39330000D03*
X82550000Y-37830000D03*
D15*
X82550000Y-44490000D03*
D16*
X82550000Y-49490000D03*
X82550000Y-47990000D03*
D17*
X80645000Y-54610000D03*
D18*
X80645000Y-57150000D03*
X80645000Y-59690000D03*
D19*
X74930000Y-38735000D03*
X74930000Y-36195000D03*
X66040000Y-36195000D03*
X66040000Y-38735000D03*
X74930000Y-53340000D03*
X74930000Y-55880000D03*
X66040000Y-55880000D03*
X66040000Y-53340000D03*
D20*
X59055000Y-44450000D03*
D21*
X61595000Y-44450000D03*
X59055000Y-46990000D03*
X61595000Y-46990000D03*
X59055000Y-49530000D03*
X61595000Y-49530000D03*
D22*
X66040000Y-41910000D03*
X76200000Y-41910000D03*
X66040000Y-31750000D03*
X76200000Y-31750000D03*
X66040000Y-50165000D03*
X76200000Y-50165000D03*
X76200000Y-60960000D03*
X66040000Y-60960000D03*
D23*
X59055000Y-33020000D03*
X59055000Y-60960000D03*
X86995000Y-60960000D03*
M02*
