G04 #@! TF.FileFunction,Legend,Bot*
%FSLAX46Y46*%
G04 Gerber Fmt 4.6, Leading zero omitted, Abs format (unit mm)*
G04 Created by KiCad (PCBNEW 4.0.7-e0-6372~58~ubuntu16.04.1) date Sat Aug 26 16:44:31 2017*
%MOMM*%
%LPD*%
G01*
G04 APERTURE LIST*
%ADD10C,0.100000*%
%ADD11C,0.200000*%
%ADD12C,0.250000*%
%ADD13C,0.010000*%
%ADD14C,0.120000*%
%ADD15C,0.150000*%
%ADD16O,1.727200X2.032000*%
%ADD17R,1.700000X1.700000*%
%ADD18O,1.700000X1.700000*%
%ADD19R,2.000000X3.500000*%
%ADD20R,7.000000X7.000000*%
%ADD21R,0.600000X0.152400*%
%ADD22R,1.500000X1.300000*%
%ADD23R,1.524000X1.524000*%
%ADD24O,1.500000X3.000000*%
%ADD25O,3.000000X1.500000*%
%ADD26C,1.599946*%
%ADD27C,1.600000*%
%ADD28C,3.175000*%
%ADD29C,2.400000*%
%ADD30R,2.400000X2.400000*%
G04 APERTURE END LIST*
D10*
D11*
X135056333Y-109307381D02*
X134484904Y-109307381D01*
X134770619Y-110307381D02*
X134770619Y-109307381D01*
X133770618Y-110259762D02*
X133865856Y-110307381D01*
X134056333Y-110307381D01*
X134151571Y-110259762D01*
X134199190Y-110164524D01*
X134199190Y-109783571D01*
X134151571Y-109688333D01*
X134056333Y-109640714D01*
X133865856Y-109640714D01*
X133770618Y-109688333D01*
X133722999Y-109783571D01*
X133722999Y-109878810D01*
X134199190Y-109974048D01*
X133294428Y-110307381D02*
X133294428Y-109640714D01*
X133294428Y-109735952D02*
X133246809Y-109688333D01*
X133151571Y-109640714D01*
X133008713Y-109640714D01*
X132913475Y-109688333D01*
X132865856Y-109783571D01*
X132865856Y-110307381D01*
X132865856Y-109783571D02*
X132818237Y-109688333D01*
X132722999Y-109640714D01*
X132580142Y-109640714D01*
X132484904Y-109688333D01*
X132437285Y-109783571D01*
X132437285Y-110307381D01*
X131961095Y-109640714D02*
X131961095Y-110640714D01*
X131961095Y-109688333D02*
X131865857Y-109640714D01*
X131675380Y-109640714D01*
X131580142Y-109688333D01*
X131532523Y-109735952D01*
X131484904Y-109831190D01*
X131484904Y-110116905D01*
X131532523Y-110212143D01*
X131580142Y-110259762D01*
X131675380Y-110307381D01*
X131865857Y-110307381D01*
X131961095Y-110259762D01*
X134342047Y-112212381D02*
X134818238Y-112212381D01*
X134818238Y-111212381D01*
X134008714Y-112212381D02*
X134008714Y-111545714D01*
X134008714Y-111212381D02*
X134056333Y-111260000D01*
X134008714Y-111307619D01*
X133961095Y-111260000D01*
X134008714Y-111212381D01*
X134008714Y-111307619D01*
X133103952Y-111545714D02*
X133103952Y-112355238D01*
X133151571Y-112450476D01*
X133199190Y-112498095D01*
X133294429Y-112545714D01*
X133437286Y-112545714D01*
X133532524Y-112498095D01*
X133103952Y-112164762D02*
X133199190Y-112212381D01*
X133389667Y-112212381D01*
X133484905Y-112164762D01*
X133532524Y-112117143D01*
X133580143Y-112021905D01*
X133580143Y-111736190D01*
X133532524Y-111640952D01*
X133484905Y-111593333D01*
X133389667Y-111545714D01*
X133199190Y-111545714D01*
X133103952Y-111593333D01*
X132627762Y-112212381D02*
X132627762Y-111212381D01*
X132199190Y-112212381D02*
X132199190Y-111688571D01*
X132246809Y-111593333D01*
X132342047Y-111545714D01*
X132484905Y-111545714D01*
X132580143Y-111593333D01*
X132627762Y-111640952D01*
X131865857Y-111545714D02*
X131484905Y-111545714D01*
X131723000Y-111212381D02*
X131723000Y-112069524D01*
X131675381Y-112164762D01*
X131580143Y-112212381D01*
X131484905Y-112212381D01*
X134493000Y-113641190D02*
X134493000Y-114117381D01*
X134826333Y-113117381D02*
X134493000Y-113641190D01*
X134159666Y-113117381D01*
X134826333Y-115022381D02*
X134159666Y-116022381D01*
X134159666Y-115022381D02*
X134826333Y-116022381D01*
X141557286Y-115736667D02*
X141081095Y-115736667D01*
X141652524Y-116022381D02*
X141319191Y-115022381D01*
X140985857Y-116022381D01*
X140462048Y-115022381D02*
X140366809Y-115022381D01*
X140271571Y-115070000D01*
X140223952Y-115117619D01*
X140176333Y-115212857D01*
X140128714Y-115403333D01*
X140128714Y-115641429D01*
X140176333Y-115831905D01*
X140223952Y-115927143D01*
X140271571Y-115974762D01*
X140366809Y-116022381D01*
X140462048Y-116022381D01*
X140557286Y-115974762D01*
X140604905Y-115927143D01*
X140652524Y-115831905D01*
X140700143Y-115641429D01*
X140700143Y-115403333D01*
X140652524Y-115212857D01*
X140604905Y-115117619D01*
X140557286Y-115070000D01*
X140462048Y-115022381D01*
X141557286Y-113831667D02*
X141081095Y-113831667D01*
X141652524Y-114117381D02*
X141319191Y-113117381D01*
X140985857Y-114117381D01*
X140128714Y-114117381D02*
X140700143Y-114117381D01*
X140414429Y-114117381D02*
X140414429Y-113117381D01*
X140509667Y-113260238D01*
X140604905Y-113355476D01*
X140700143Y-113403095D01*
X141557286Y-111926667D02*
X141081095Y-111926667D01*
X141652524Y-112212381D02*
X141319191Y-111212381D01*
X140985857Y-112212381D01*
X140700143Y-111307619D02*
X140652524Y-111260000D01*
X140557286Y-111212381D01*
X140319190Y-111212381D01*
X140223952Y-111260000D01*
X140176333Y-111307619D01*
X140128714Y-111402857D01*
X140128714Y-111498095D01*
X140176333Y-111640952D01*
X140747762Y-112212381D01*
X140128714Y-112212381D01*
X141557286Y-110021667D02*
X141081095Y-110021667D01*
X141652524Y-110307381D02*
X141319191Y-109307381D01*
X140985857Y-110307381D01*
X140747762Y-109307381D02*
X140128714Y-109307381D01*
X140462048Y-109688333D01*
X140319190Y-109688333D01*
X140223952Y-109735952D01*
X140176333Y-109783571D01*
X140128714Y-109878810D01*
X140128714Y-110116905D01*
X140176333Y-110212143D01*
X140223952Y-110259762D01*
X140319190Y-110307381D01*
X140604905Y-110307381D01*
X140700143Y-110259762D01*
X140747762Y-110212143D01*
D12*
X121141571Y-119467381D02*
X120903476Y-120467381D01*
X120712999Y-119753095D01*
X120522523Y-120467381D01*
X120284428Y-119467381D01*
X119998714Y-119800714D02*
X119760619Y-120467381D01*
X119522523Y-119800714D02*
X119760619Y-120467381D01*
X119855857Y-120705476D01*
X119903476Y-120753095D01*
X119998714Y-120800714D01*
X118998714Y-120467381D02*
X119093952Y-120419762D01*
X119141571Y-120372143D01*
X119189190Y-120276905D01*
X119189190Y-119991190D01*
X119141571Y-119895952D01*
X119093952Y-119848333D01*
X118998714Y-119800714D01*
X118855856Y-119800714D01*
X118760618Y-119848333D01*
X118712999Y-119895952D01*
X118665380Y-119991190D01*
X118665380Y-120276905D01*
X118712999Y-120372143D01*
X118760618Y-120419762D01*
X118855856Y-120467381D01*
X118998714Y-120467381D01*
X118093952Y-120467381D02*
X118189190Y-120419762D01*
X118236809Y-120324524D01*
X118236809Y-119467381D01*
X117284427Y-119800714D02*
X117284427Y-120467381D01*
X117712999Y-119800714D02*
X117712999Y-120324524D01*
X117665380Y-120419762D01*
X117570142Y-120467381D01*
X117427284Y-120467381D01*
X117332046Y-120419762D01*
X117284427Y-120372143D01*
X116808237Y-120467381D02*
X116808237Y-119800714D01*
X116808237Y-119895952D02*
X116760618Y-119848333D01*
X116665380Y-119800714D01*
X116522522Y-119800714D01*
X116427284Y-119848333D01*
X116379665Y-119943571D01*
X116379665Y-120467381D01*
X116379665Y-119943571D02*
X116332046Y-119848333D01*
X116236808Y-119800714D01*
X116093951Y-119800714D01*
X115998713Y-119848333D01*
X115951094Y-119943571D01*
X115951094Y-120467381D01*
X115474904Y-120372143D02*
X115427285Y-120419762D01*
X115474904Y-120467381D01*
X115522523Y-120419762D01*
X115474904Y-120372143D01*
X115474904Y-120467381D01*
X114570142Y-120419762D02*
X114665380Y-120467381D01*
X114855857Y-120467381D01*
X114951095Y-120419762D01*
X114998714Y-120372143D01*
X115046333Y-120276905D01*
X115046333Y-119991190D01*
X114998714Y-119895952D01*
X114951095Y-119848333D01*
X114855857Y-119800714D01*
X114665380Y-119800714D01*
X114570142Y-119848333D01*
X113998714Y-120467381D02*
X114093952Y-120419762D01*
X114141571Y-120372143D01*
X114189190Y-120276905D01*
X114189190Y-119991190D01*
X114141571Y-119895952D01*
X114093952Y-119848333D01*
X113998714Y-119800714D01*
X113855856Y-119800714D01*
X113760618Y-119848333D01*
X113712999Y-119895952D01*
X113665380Y-119991190D01*
X113665380Y-120276905D01*
X113712999Y-120372143D01*
X113760618Y-120419762D01*
X113855856Y-120467381D01*
X113998714Y-120467381D01*
X113236809Y-120467381D02*
X113236809Y-119800714D01*
X113236809Y-119895952D02*
X113189190Y-119848333D01*
X113093952Y-119800714D01*
X112951094Y-119800714D01*
X112855856Y-119848333D01*
X112808237Y-119943571D01*
X112808237Y-120467381D01*
X112808237Y-119943571D02*
X112760618Y-119848333D01*
X112665380Y-119800714D01*
X112522523Y-119800714D01*
X112427285Y-119848333D01*
X112379666Y-119943571D01*
X112379666Y-120467381D01*
D13*
G36*
X126448038Y-119221685D02*
X126345462Y-119235389D01*
X126287692Y-119241512D01*
X126198035Y-119247992D01*
X126083672Y-119254451D01*
X125951787Y-119260515D01*
X125809562Y-119265808D01*
X125704349Y-119268942D01*
X125200005Y-119282308D01*
X125088887Y-119393117D01*
X125021751Y-119459279D01*
X124940618Y-119538091D01*
X124860001Y-119615481D01*
X124836999Y-119637348D01*
X124696228Y-119770769D01*
X124682818Y-120089136D01*
X124678015Y-120207552D01*
X124675598Y-120294902D01*
X124676291Y-120359160D01*
X124680820Y-120408303D01*
X124689911Y-120450305D01*
X124704287Y-120493140D01*
X124724118Y-120543405D01*
X124747888Y-120602051D01*
X124768661Y-120642043D01*
X124793790Y-120666028D01*
X124830626Y-120676650D01*
X124886521Y-120676555D01*
X124968828Y-120668389D01*
X125046154Y-120659280D01*
X125130012Y-120647378D01*
X125213320Y-120632271D01*
X125261077Y-120621455D01*
X125334741Y-120602272D01*
X125407697Y-120583319D01*
X125422898Y-120579378D01*
X125482660Y-120552217D01*
X125558953Y-120499533D01*
X125627650Y-120441647D01*
X125632934Y-120437158D01*
X125429757Y-120437158D01*
X125428989Y-120439755D01*
X125401376Y-120452385D01*
X125344785Y-120469064D01*
X125268835Y-120487728D01*
X125183145Y-120506316D01*
X125097334Y-120522764D01*
X125021020Y-120535009D01*
X124963822Y-120540989D01*
X124955717Y-120541250D01*
X124895819Y-120540229D01*
X124862166Y-120530988D01*
X124841977Y-120507242D01*
X124829182Y-120479039D01*
X124804540Y-120399062D01*
X124804544Y-120327445D01*
X124831379Y-120254445D01*
X124887227Y-120170317D01*
X124902825Y-120150351D01*
X124957420Y-120085067D01*
X124998399Y-120045885D01*
X125033822Y-120026391D01*
X125065975Y-120020483D01*
X125128430Y-120023455D01*
X125172362Y-120039046D01*
X125190259Y-120063167D01*
X125182503Y-120083891D01*
X125168988Y-120118700D01*
X125190203Y-120142766D01*
X125242336Y-120151769D01*
X125242446Y-120151769D01*
X125273105Y-120155276D01*
X125297991Y-120170595D01*
X125323696Y-120204926D01*
X125356817Y-120265470D01*
X125369547Y-120290541D01*
X125400969Y-120356569D01*
X125422233Y-120408440D01*
X125429757Y-120437158D01*
X125632934Y-120437158D01*
X125708538Y-120372937D01*
X125804605Y-120298049D01*
X125897625Y-120231077D01*
X125915214Y-120219240D01*
X126019029Y-120143363D01*
X126129895Y-120047846D01*
X126204292Y-119975267D01*
X126008176Y-119975267D01*
X125994420Y-119994715D01*
X125991150Y-119998356D01*
X125961942Y-120024443D01*
X125908759Y-120066466D01*
X125839762Y-120118130D01*
X125779343Y-120161693D01*
X125700294Y-120219431D01*
X125627534Y-120275613D01*
X125570585Y-120322723D01*
X125544539Y-120346993D01*
X125504493Y-120383818D01*
X125472986Y-120404282D01*
X125466769Y-120405769D01*
X125448193Y-120389480D01*
X125419386Y-120346590D01*
X125386303Y-120286063D01*
X125383468Y-120280360D01*
X125351854Y-120213217D01*
X125337337Y-120171539D01*
X125337969Y-120146668D01*
X125349967Y-120131429D01*
X125374244Y-120098346D01*
X125374871Y-120095712D01*
X125317366Y-120095712D01*
X125302562Y-120111550D01*
X125299606Y-120113444D01*
X125260165Y-120130830D01*
X125236007Y-120119031D01*
X125232604Y-120114042D01*
X125233454Y-120090783D01*
X125259579Y-120078314D01*
X125295657Y-120082704D01*
X125317366Y-120095712D01*
X125374871Y-120095712D01*
X125378308Y-120081274D01*
X125395214Y-120057403D01*
X125439056Y-120026742D01*
X125499521Y-119994308D01*
X125566297Y-119965121D01*
X125629069Y-119944198D01*
X125675712Y-119936547D01*
X125728464Y-119931492D01*
X125765809Y-119919743D01*
X125765974Y-119919639D01*
X125799838Y-119914867D01*
X125859573Y-119921728D01*
X125908322Y-119932287D01*
X125971342Y-119949012D01*
X126002555Y-119961686D01*
X126008176Y-119975267D01*
X126204292Y-119975267D01*
X126251876Y-119928846D01*
X126389035Y-119782518D01*
X126456961Y-119706536D01*
X126538759Y-119601028D01*
X126564577Y-119552858D01*
X126405796Y-119552858D01*
X126403990Y-119566723D01*
X126400624Y-119573173D01*
X126374994Y-119607760D01*
X126329924Y-119658300D01*
X126272068Y-119718363D01*
X126208078Y-119781519D01*
X126144609Y-119841337D01*
X126088314Y-119891388D01*
X126045847Y-119925240D01*
X126024635Y-119936550D01*
X125987132Y-119930909D01*
X125931553Y-119917215D01*
X125914072Y-119912127D01*
X125855993Y-119889473D01*
X125836644Y-119878231D01*
X125749538Y-119878231D01*
X125732818Y-119892918D01*
X125700692Y-119897769D01*
X125663974Y-119891081D01*
X125651846Y-119878231D01*
X125668567Y-119863543D01*
X125700692Y-119858692D01*
X125737411Y-119865381D01*
X125749538Y-119878231D01*
X125836644Y-119878231D01*
X125810699Y-119863158D01*
X125803172Y-119856650D01*
X125789965Y-119838755D01*
X125791325Y-119818833D01*
X125811266Y-119789794D01*
X125853805Y-119744554D01*
X125883436Y-119714996D01*
X125957886Y-119647756D01*
X126014071Y-119611954D01*
X126044159Y-119604692D01*
X126089282Y-119597694D01*
X126112403Y-119585705D01*
X126140078Y-119574730D01*
X126195375Y-119563458D01*
X126266921Y-119554150D01*
X126275299Y-119553342D01*
X126331895Y-119548635D01*
X126079366Y-119548635D01*
X126064562Y-119564473D01*
X126061606Y-119566367D01*
X126020820Y-119583000D01*
X125991049Y-119580003D01*
X125984000Y-119566769D01*
X125999870Y-119539176D01*
X126037016Y-119530868D01*
X126057657Y-119535628D01*
X126079366Y-119548635D01*
X126331895Y-119548635D01*
X126348380Y-119547264D01*
X126389570Y-119546737D01*
X126405796Y-119552858D01*
X126564577Y-119552858D01*
X126597284Y-119491838D01*
X126618108Y-119439321D01*
X126645293Y-119356124D01*
X126503945Y-119356124D01*
X126503508Y-119379291D01*
X126488251Y-119423275D01*
X126479488Y-119442385D01*
X126459309Y-119480679D01*
X126438299Y-119503780D01*
X126406028Y-119516757D01*
X126352068Y-119524677D01*
X126300107Y-119529542D01*
X126202778Y-119534200D01*
X126136681Y-119527372D01*
X126109138Y-119517452D01*
X126045603Y-119502079D01*
X125998184Y-119505636D01*
X125953609Y-119520799D01*
X125936744Y-119548335D01*
X125935154Y-119570594D01*
X125921277Y-119611941D01*
X125885523Y-119666031D01*
X125836706Y-119723326D01*
X125783642Y-119774287D01*
X125735144Y-119809376D01*
X125705027Y-119819616D01*
X125655598Y-119828877D01*
X125616096Y-119851312D01*
X125598886Y-119878896D01*
X125600168Y-119887666D01*
X125589834Y-119910464D01*
X125551653Y-119941097D01*
X125494795Y-119974878D01*
X125428430Y-120007124D01*
X125361729Y-120033150D01*
X125303861Y-120048270D01*
X125281871Y-120050278D01*
X125228182Y-120045005D01*
X125190118Y-120031997D01*
X125187808Y-120030301D01*
X125167100Y-119995112D01*
X125163385Y-119971702D01*
X125163242Y-119971390D01*
X125096678Y-119971390D01*
X125094166Y-119977273D01*
X125065317Y-119994114D01*
X125030132Y-119988942D01*
X125018112Y-119977971D01*
X125022788Y-119958877D01*
X125049245Y-119945305D01*
X125080239Y-119944748D01*
X125087313Y-119947902D01*
X125096678Y-119971390D01*
X125163242Y-119971390D01*
X125146563Y-119935183D01*
X125124308Y-119922969D01*
X125097855Y-119902333D01*
X125087205Y-119873388D01*
X125066622Y-119873388D01*
X125050246Y-119907312D01*
X125021731Y-119920834D01*
X124986442Y-119938231D01*
X124971399Y-119983048D01*
X124971239Y-119984412D01*
X124955275Y-120031511D01*
X124921275Y-120090985D01*
X124893085Y-120129301D01*
X124821462Y-120216855D01*
X124815659Y-120073794D01*
X124814073Y-120000176D01*
X124815334Y-119940439D01*
X124819162Y-119906642D01*
X124819592Y-119905365D01*
X124846202Y-119876396D01*
X124896097Y-119846107D01*
X124954345Y-119821325D01*
X125006012Y-119808879D01*
X125027727Y-119810199D01*
X125059404Y-119835679D01*
X125066622Y-119873388D01*
X125087205Y-119873388D01*
X125085175Y-119867871D01*
X125088297Y-119835130D01*
X125109255Y-119819657D01*
X125110804Y-119819616D01*
X125145973Y-119808801D01*
X125173567Y-119792422D01*
X125198473Y-119767325D01*
X125196663Y-119761000D01*
X125134077Y-119761000D01*
X125106519Y-119777414D01*
X125084078Y-119780539D01*
X125052960Y-119772134D01*
X125046154Y-119761000D01*
X125062909Y-119746437D01*
X125096153Y-119741462D01*
X125129396Y-119747664D01*
X125134077Y-119761000D01*
X125196663Y-119761000D01*
X125191302Y-119742267D01*
X125184678Y-119733807D01*
X125139421Y-119706663D01*
X125080723Y-119705666D01*
X125023095Y-119729659D01*
X125001259Y-119748429D01*
X124958141Y-119786063D01*
X124906435Y-119819895D01*
X124857478Y-119843827D01*
X124822604Y-119851760D01*
X124814779Y-119848753D01*
X124823855Y-119831778D01*
X124857242Y-119793220D01*
X124910410Y-119737864D01*
X124978828Y-119670493D01*
X125026121Y-119625537D01*
X125250283Y-119415141D01*
X125631796Y-119402415D01*
X125771132Y-119396938D01*
X125916802Y-119389783D01*
X126056741Y-119381638D01*
X126178887Y-119373192D01*
X126252688Y-119366968D01*
X126345360Y-119359171D01*
X126423344Y-119354493D01*
X126478731Y-119353276D01*
X126503614Y-119355860D01*
X126503945Y-119356124D01*
X126645293Y-119356124D01*
X126646796Y-119351526D01*
X126657192Y-119287722D01*
X126645905Y-119245372D01*
X126609544Y-119221940D01*
X126544719Y-119214889D01*
X126448038Y-119221685D01*
X126448038Y-119221685D01*
G37*
X126448038Y-119221685D02*
X126345462Y-119235389D01*
X126287692Y-119241512D01*
X126198035Y-119247992D01*
X126083672Y-119254451D01*
X125951787Y-119260515D01*
X125809562Y-119265808D01*
X125704349Y-119268942D01*
X125200005Y-119282308D01*
X125088887Y-119393117D01*
X125021751Y-119459279D01*
X124940618Y-119538091D01*
X124860001Y-119615481D01*
X124836999Y-119637348D01*
X124696228Y-119770769D01*
X124682818Y-120089136D01*
X124678015Y-120207552D01*
X124675598Y-120294902D01*
X124676291Y-120359160D01*
X124680820Y-120408303D01*
X124689911Y-120450305D01*
X124704287Y-120493140D01*
X124724118Y-120543405D01*
X124747888Y-120602051D01*
X124768661Y-120642043D01*
X124793790Y-120666028D01*
X124830626Y-120676650D01*
X124886521Y-120676555D01*
X124968828Y-120668389D01*
X125046154Y-120659280D01*
X125130012Y-120647378D01*
X125213320Y-120632271D01*
X125261077Y-120621455D01*
X125334741Y-120602272D01*
X125407697Y-120583319D01*
X125422898Y-120579378D01*
X125482660Y-120552217D01*
X125558953Y-120499533D01*
X125627650Y-120441647D01*
X125632934Y-120437158D01*
X125429757Y-120437158D01*
X125428989Y-120439755D01*
X125401376Y-120452385D01*
X125344785Y-120469064D01*
X125268835Y-120487728D01*
X125183145Y-120506316D01*
X125097334Y-120522764D01*
X125021020Y-120535009D01*
X124963822Y-120540989D01*
X124955717Y-120541250D01*
X124895819Y-120540229D01*
X124862166Y-120530988D01*
X124841977Y-120507242D01*
X124829182Y-120479039D01*
X124804540Y-120399062D01*
X124804544Y-120327445D01*
X124831379Y-120254445D01*
X124887227Y-120170317D01*
X124902825Y-120150351D01*
X124957420Y-120085067D01*
X124998399Y-120045885D01*
X125033822Y-120026391D01*
X125065975Y-120020483D01*
X125128430Y-120023455D01*
X125172362Y-120039046D01*
X125190259Y-120063167D01*
X125182503Y-120083891D01*
X125168988Y-120118700D01*
X125190203Y-120142766D01*
X125242336Y-120151769D01*
X125242446Y-120151769D01*
X125273105Y-120155276D01*
X125297991Y-120170595D01*
X125323696Y-120204926D01*
X125356817Y-120265470D01*
X125369547Y-120290541D01*
X125400969Y-120356569D01*
X125422233Y-120408440D01*
X125429757Y-120437158D01*
X125632934Y-120437158D01*
X125708538Y-120372937D01*
X125804605Y-120298049D01*
X125897625Y-120231077D01*
X125915214Y-120219240D01*
X126019029Y-120143363D01*
X126129895Y-120047846D01*
X126204292Y-119975267D01*
X126008176Y-119975267D01*
X125994420Y-119994715D01*
X125991150Y-119998356D01*
X125961942Y-120024443D01*
X125908759Y-120066466D01*
X125839762Y-120118130D01*
X125779343Y-120161693D01*
X125700294Y-120219431D01*
X125627534Y-120275613D01*
X125570585Y-120322723D01*
X125544539Y-120346993D01*
X125504493Y-120383818D01*
X125472986Y-120404282D01*
X125466769Y-120405769D01*
X125448193Y-120389480D01*
X125419386Y-120346590D01*
X125386303Y-120286063D01*
X125383468Y-120280360D01*
X125351854Y-120213217D01*
X125337337Y-120171539D01*
X125337969Y-120146668D01*
X125349967Y-120131429D01*
X125374244Y-120098346D01*
X125374871Y-120095712D01*
X125317366Y-120095712D01*
X125302562Y-120111550D01*
X125299606Y-120113444D01*
X125260165Y-120130830D01*
X125236007Y-120119031D01*
X125232604Y-120114042D01*
X125233454Y-120090783D01*
X125259579Y-120078314D01*
X125295657Y-120082704D01*
X125317366Y-120095712D01*
X125374871Y-120095712D01*
X125378308Y-120081274D01*
X125395214Y-120057403D01*
X125439056Y-120026742D01*
X125499521Y-119994308D01*
X125566297Y-119965121D01*
X125629069Y-119944198D01*
X125675712Y-119936547D01*
X125728464Y-119931492D01*
X125765809Y-119919743D01*
X125765974Y-119919639D01*
X125799838Y-119914867D01*
X125859573Y-119921728D01*
X125908322Y-119932287D01*
X125971342Y-119949012D01*
X126002555Y-119961686D01*
X126008176Y-119975267D01*
X126204292Y-119975267D01*
X126251876Y-119928846D01*
X126389035Y-119782518D01*
X126456961Y-119706536D01*
X126538759Y-119601028D01*
X126564577Y-119552858D01*
X126405796Y-119552858D01*
X126403990Y-119566723D01*
X126400624Y-119573173D01*
X126374994Y-119607760D01*
X126329924Y-119658300D01*
X126272068Y-119718363D01*
X126208078Y-119781519D01*
X126144609Y-119841337D01*
X126088314Y-119891388D01*
X126045847Y-119925240D01*
X126024635Y-119936550D01*
X125987132Y-119930909D01*
X125931553Y-119917215D01*
X125914072Y-119912127D01*
X125855993Y-119889473D01*
X125836644Y-119878231D01*
X125749538Y-119878231D01*
X125732818Y-119892918D01*
X125700692Y-119897769D01*
X125663974Y-119891081D01*
X125651846Y-119878231D01*
X125668567Y-119863543D01*
X125700692Y-119858692D01*
X125737411Y-119865381D01*
X125749538Y-119878231D01*
X125836644Y-119878231D01*
X125810699Y-119863158D01*
X125803172Y-119856650D01*
X125789965Y-119838755D01*
X125791325Y-119818833D01*
X125811266Y-119789794D01*
X125853805Y-119744554D01*
X125883436Y-119714996D01*
X125957886Y-119647756D01*
X126014071Y-119611954D01*
X126044159Y-119604692D01*
X126089282Y-119597694D01*
X126112403Y-119585705D01*
X126140078Y-119574730D01*
X126195375Y-119563458D01*
X126266921Y-119554150D01*
X126275299Y-119553342D01*
X126331895Y-119548635D01*
X126079366Y-119548635D01*
X126064562Y-119564473D01*
X126061606Y-119566367D01*
X126020820Y-119583000D01*
X125991049Y-119580003D01*
X125984000Y-119566769D01*
X125999870Y-119539176D01*
X126037016Y-119530868D01*
X126057657Y-119535628D01*
X126079366Y-119548635D01*
X126331895Y-119548635D01*
X126348380Y-119547264D01*
X126389570Y-119546737D01*
X126405796Y-119552858D01*
X126564577Y-119552858D01*
X126597284Y-119491838D01*
X126618108Y-119439321D01*
X126645293Y-119356124D01*
X126503945Y-119356124D01*
X126503508Y-119379291D01*
X126488251Y-119423275D01*
X126479488Y-119442385D01*
X126459309Y-119480679D01*
X126438299Y-119503780D01*
X126406028Y-119516757D01*
X126352068Y-119524677D01*
X126300107Y-119529542D01*
X126202778Y-119534200D01*
X126136681Y-119527372D01*
X126109138Y-119517452D01*
X126045603Y-119502079D01*
X125998184Y-119505636D01*
X125953609Y-119520799D01*
X125936744Y-119548335D01*
X125935154Y-119570594D01*
X125921277Y-119611941D01*
X125885523Y-119666031D01*
X125836706Y-119723326D01*
X125783642Y-119774287D01*
X125735144Y-119809376D01*
X125705027Y-119819616D01*
X125655598Y-119828877D01*
X125616096Y-119851312D01*
X125598886Y-119878896D01*
X125600168Y-119887666D01*
X125589834Y-119910464D01*
X125551653Y-119941097D01*
X125494795Y-119974878D01*
X125428430Y-120007124D01*
X125361729Y-120033150D01*
X125303861Y-120048270D01*
X125281871Y-120050278D01*
X125228182Y-120045005D01*
X125190118Y-120031997D01*
X125187808Y-120030301D01*
X125167100Y-119995112D01*
X125163385Y-119971702D01*
X125163242Y-119971390D01*
X125096678Y-119971390D01*
X125094166Y-119977273D01*
X125065317Y-119994114D01*
X125030132Y-119988942D01*
X125018112Y-119977971D01*
X125022788Y-119958877D01*
X125049245Y-119945305D01*
X125080239Y-119944748D01*
X125087313Y-119947902D01*
X125096678Y-119971390D01*
X125163242Y-119971390D01*
X125146563Y-119935183D01*
X125124308Y-119922969D01*
X125097855Y-119902333D01*
X125087205Y-119873388D01*
X125066622Y-119873388D01*
X125050246Y-119907312D01*
X125021731Y-119920834D01*
X124986442Y-119938231D01*
X124971399Y-119983048D01*
X124971239Y-119984412D01*
X124955275Y-120031511D01*
X124921275Y-120090985D01*
X124893085Y-120129301D01*
X124821462Y-120216855D01*
X124815659Y-120073794D01*
X124814073Y-120000176D01*
X124815334Y-119940439D01*
X124819162Y-119906642D01*
X124819592Y-119905365D01*
X124846202Y-119876396D01*
X124896097Y-119846107D01*
X124954345Y-119821325D01*
X125006012Y-119808879D01*
X125027727Y-119810199D01*
X125059404Y-119835679D01*
X125066622Y-119873388D01*
X125087205Y-119873388D01*
X125085175Y-119867871D01*
X125088297Y-119835130D01*
X125109255Y-119819657D01*
X125110804Y-119819616D01*
X125145973Y-119808801D01*
X125173567Y-119792422D01*
X125198473Y-119767325D01*
X125196663Y-119761000D01*
X125134077Y-119761000D01*
X125106519Y-119777414D01*
X125084078Y-119780539D01*
X125052960Y-119772134D01*
X125046154Y-119761000D01*
X125062909Y-119746437D01*
X125096153Y-119741462D01*
X125129396Y-119747664D01*
X125134077Y-119761000D01*
X125196663Y-119761000D01*
X125191302Y-119742267D01*
X125184678Y-119733807D01*
X125139421Y-119706663D01*
X125080723Y-119705666D01*
X125023095Y-119729659D01*
X125001259Y-119748429D01*
X124958141Y-119786063D01*
X124906435Y-119819895D01*
X124857478Y-119843827D01*
X124822604Y-119851760D01*
X124814779Y-119848753D01*
X124823855Y-119831778D01*
X124857242Y-119793220D01*
X124910410Y-119737864D01*
X124978828Y-119670493D01*
X125026121Y-119625537D01*
X125250283Y-119415141D01*
X125631796Y-119402415D01*
X125771132Y-119396938D01*
X125916802Y-119389783D01*
X126056741Y-119381638D01*
X126178887Y-119373192D01*
X126252688Y-119366968D01*
X126345360Y-119359171D01*
X126423344Y-119354493D01*
X126478731Y-119353276D01*
X126503614Y-119355860D01*
X126503945Y-119356124D01*
X126645293Y-119356124D01*
X126646796Y-119351526D01*
X126657192Y-119287722D01*
X126645905Y-119245372D01*
X126609544Y-119221940D01*
X126544719Y-119214889D01*
X126448038Y-119221685D01*
G36*
X123523517Y-115952996D02*
X123461157Y-115971680D01*
X123419909Y-115995256D01*
X123385846Y-116034491D01*
X123355142Y-116083164D01*
X123328862Y-116129547D01*
X123310772Y-116171273D01*
X123298816Y-116217955D01*
X123290935Y-116279208D01*
X123285073Y-116364647D01*
X123281980Y-116425087D01*
X123273175Y-116560967D01*
X123259607Y-116682653D01*
X123239206Y-116800041D01*
X123209905Y-116923025D01*
X123169634Y-117061500D01*
X123116326Y-117225361D01*
X123112027Y-117238117D01*
X123061130Y-117400117D01*
X123028452Y-117533101D01*
X123013421Y-117642317D01*
X123015461Y-117733010D01*
X123033999Y-117810425D01*
X123046211Y-117839496D01*
X123071020Y-117882203D01*
X123106019Y-117922350D01*
X123156637Y-117964058D01*
X123228309Y-118011449D01*
X123326464Y-118068646D01*
X123405689Y-118112301D01*
X123514576Y-118172817D01*
X123620820Y-118234966D01*
X123730152Y-118302453D01*
X123848304Y-118378982D01*
X123981008Y-118468258D01*
X124133994Y-118573987D01*
X124294966Y-118687123D01*
X124422722Y-118776383D01*
X124524913Y-118845093D01*
X124606968Y-118896498D01*
X124674320Y-118933844D01*
X124732400Y-118960374D01*
X124781516Y-118977773D01*
X124847505Y-118997310D01*
X124896721Y-119010285D01*
X124919444Y-119014158D01*
X124919895Y-119013937D01*
X124918460Y-118993958D01*
X124911731Y-118941474D01*
X124900568Y-118862568D01*
X124896055Y-118832170D01*
X124771031Y-118832170D01*
X124765717Y-118836170D01*
X124748189Y-118813385D01*
X124732012Y-118786051D01*
X124700620Y-118728963D01*
X124656676Y-118647114D01*
X124602841Y-118545498D01*
X124541778Y-118429108D01*
X124477839Y-118306204D01*
X124412954Y-118179933D01*
X124353889Y-118063005D01*
X124303126Y-117960495D01*
X124263148Y-117877477D01*
X124236438Y-117819025D01*
X124225538Y-117790525D01*
X124212863Y-117765058D01*
X124162670Y-117765058D01*
X124156899Y-117784471D01*
X124136600Y-117784597D01*
X124102334Y-117765858D01*
X124093023Y-117751557D01*
X124098794Y-117732145D01*
X124119092Y-117732019D01*
X124153359Y-117750758D01*
X124162670Y-117765058D01*
X124212863Y-117765058D01*
X124202673Y-117744584D01*
X124176692Y-117721320D01*
X124145174Y-117701135D01*
X124124245Y-117676430D01*
X124108997Y-117637145D01*
X124094520Y-117573214D01*
X124088068Y-117539670D01*
X124076292Y-117464941D01*
X124075635Y-117418315D01*
X124086082Y-117390438D01*
X124087831Y-117388208D01*
X124098849Y-117361104D01*
X124091957Y-117349551D01*
X124047419Y-117349551D01*
X124039103Y-117356330D01*
X124016653Y-117357148D01*
X123977667Y-117350246D01*
X123962604Y-117339581D01*
X123959970Y-117316818D01*
X123981626Y-117310782D01*
X124015569Y-117323704D01*
X124022391Y-117328466D01*
X124047419Y-117349551D01*
X124091957Y-117349551D01*
X124080415Y-117330206D01*
X124072131Y-117321593D01*
X124054342Y-117292303D01*
X123573816Y-117292303D01*
X123553564Y-117298993D01*
X123544085Y-117299154D01*
X123510396Y-117287487D01*
X123502615Y-117269846D01*
X123511894Y-117243827D01*
X123519762Y-117240539D01*
X123545225Y-117253906D01*
X123561231Y-117269846D01*
X123573816Y-117292303D01*
X124054342Y-117292303D01*
X124047545Y-117281112D01*
X124026909Y-117219761D01*
X124012517Y-117150290D01*
X124006664Y-117085447D01*
X124011643Y-117037983D01*
X124018747Y-117024917D01*
X124024278Y-117001222D01*
X124022730Y-116999226D01*
X123964585Y-116999226D01*
X123944333Y-117005916D01*
X123934854Y-117006077D01*
X123901165Y-116994410D01*
X123893385Y-116976769D01*
X123902663Y-116950750D01*
X123910531Y-116947462D01*
X123935994Y-116960829D01*
X123952000Y-116976769D01*
X123964585Y-116999226D01*
X124022730Y-116999226D01*
X123998253Y-116967679D01*
X123986451Y-116957031D01*
X123953131Y-116915107D01*
X123914667Y-116847567D01*
X123876370Y-116766450D01*
X123843550Y-116683793D01*
X123821520Y-116611633D01*
X123815231Y-116568981D01*
X123797468Y-116514597D01*
X123732823Y-116514597D01*
X123727053Y-116534009D01*
X123706754Y-116534135D01*
X123672488Y-116515396D01*
X123663177Y-116501096D01*
X123668948Y-116481683D01*
X123689246Y-116481557D01*
X123723512Y-116500296D01*
X123732823Y-116514597D01*
X123797468Y-116514597D01*
X123797053Y-116513328D01*
X123746961Y-116470016D01*
X123682365Y-116447081D01*
X123634881Y-116443415D01*
X123611408Y-116459672D01*
X123608192Y-116466636D01*
X123609929Y-116510145D01*
X123647951Y-116548574D01*
X123717281Y-116578462D01*
X123754366Y-116591985D01*
X123781169Y-116611647D01*
X123804086Y-116645960D01*
X123829510Y-116703433D01*
X123849170Y-116753993D01*
X123907799Y-116907575D01*
X123842970Y-116919737D01*
X123790626Y-116921533D01*
X123785528Y-116920125D01*
X123655779Y-116920125D01*
X123643534Y-116927466D01*
X123625186Y-116927923D01*
X123586464Y-116920393D01*
X123571834Y-116909735D01*
X123569905Y-116886404D01*
X123591384Y-116877516D01*
X123622336Y-116886001D01*
X123635677Y-116896304D01*
X123655779Y-116920125D01*
X123785528Y-116920125D01*
X123730629Y-116904963D01*
X123669802Y-116877042D01*
X123605824Y-116847165D01*
X123566159Y-116836221D01*
X123542132Y-116842194D01*
X123537362Y-116846284D01*
X123525322Y-116878993D01*
X123542315Y-116913523D01*
X123579214Y-116943273D01*
X123626894Y-116961641D01*
X123676228Y-116962027D01*
X123690829Y-116957294D01*
X123746945Y-116945756D01*
X123802053Y-116953143D01*
X123839279Y-116976858D01*
X123841649Y-116980511D01*
X123870028Y-117007294D01*
X123917587Y-117034387D01*
X123924688Y-117037478D01*
X123970276Y-117062439D01*
X123988680Y-117094895D01*
X123991344Y-117128455D01*
X123994859Y-117186544D01*
X124002297Y-117231467D01*
X124004636Y-117253642D01*
X123993628Y-117268569D01*
X123963402Y-117277624D01*
X123908089Y-117282182D01*
X123821816Y-117283622D01*
X123779765Y-117283637D01*
X123687612Y-117279701D01*
X123628646Y-117267716D01*
X123603919Y-117253706D01*
X123553482Y-117221142D01*
X123502716Y-117207982D01*
X123463619Y-117215947D01*
X123450693Y-117231740D01*
X123453406Y-117270195D01*
X123483625Y-117304269D01*
X123529798Y-117328445D01*
X123580370Y-117337210D01*
X123623788Y-117325047D01*
X123631984Y-117318277D01*
X123662306Y-117309723D01*
X123718029Y-117309998D01*
X123786933Y-117317364D01*
X123856798Y-117330083D01*
X123915403Y-117346418D01*
X123949152Y-117363384D01*
X123990738Y-117391644D01*
X124012990Y-117402069D01*
X124037392Y-117430495D01*
X124059480Y-117497522D01*
X124069118Y-117542786D01*
X124081295Y-117612673D01*
X124084369Y-117654833D01*
X124077531Y-117679725D01*
X124059975Y-117697808D01*
X124056974Y-117700120D01*
X124019930Y-117719062D01*
X123998756Y-117720366D01*
X123970674Y-117715590D01*
X123913655Y-117709133D01*
X123837742Y-117702071D01*
X123797855Y-117698808D01*
X123692661Y-117687508D01*
X123680108Y-117684824D01*
X123537922Y-117684824D01*
X123521643Y-117689153D01*
X123503211Y-117686915D01*
X123464134Y-117672540D01*
X123448787Y-117655731D01*
X123453356Y-117635163D01*
X123478205Y-117633394D01*
X123510042Y-117649225D01*
X123523711Y-117662492D01*
X123537922Y-117684824D01*
X123680108Y-117684824D01*
X123620696Y-117672121D01*
X123576212Y-117651383D01*
X123573711Y-117649488D01*
X123520611Y-117617737D01*
X123476832Y-117601139D01*
X123430111Y-117601235D01*
X123408391Y-117624297D01*
X123415050Y-117660744D01*
X123444121Y-117693950D01*
X123481729Y-117716432D01*
X123528044Y-117723515D01*
X123589033Y-117719012D01*
X123665115Y-117714990D01*
X123755838Y-117717846D01*
X123851056Y-117726328D01*
X123940621Y-117739182D01*
X124014386Y-117755154D01*
X124062205Y-117772992D01*
X124069849Y-117778406D01*
X124115514Y-117807455D01*
X124156905Y-117823530D01*
X124174992Y-117831950D01*
X124195260Y-117850222D01*
X124220036Y-117882123D01*
X124251650Y-117931431D01*
X124292429Y-118001924D01*
X124344703Y-118097379D01*
X124410800Y-118221574D01*
X124460281Y-118315690D01*
X124525332Y-118440659D01*
X124583485Y-118554054D01*
X124632502Y-118651376D01*
X124670149Y-118728127D01*
X124694189Y-118779811D01*
X124702386Y-118801929D01*
X124702243Y-118802347D01*
X124683797Y-118795382D01*
X124640568Y-118769842D01*
X124579466Y-118730011D01*
X124523082Y-118691244D01*
X124335028Y-118560600D01*
X124150024Y-118434673D01*
X123973058Y-118316722D01*
X123809117Y-118210007D01*
X123663188Y-118117788D01*
X123540261Y-118043324D01*
X123471855Y-118004219D01*
X123382972Y-117952940D01*
X123301631Y-117901963D01*
X123236921Y-117857240D01*
X123198317Y-117825126D01*
X123161706Y-117773326D01*
X123142274Y-117709152D01*
X123140310Y-117628092D01*
X123156105Y-117525635D01*
X123189948Y-117397268D01*
X123234618Y-117260077D01*
X123288953Y-117096099D01*
X123329709Y-116954751D01*
X123359607Y-116823150D01*
X123381370Y-116688410D01*
X123397718Y-116537648D01*
X123404409Y-116456224D01*
X123413267Y-116348702D01*
X123421864Y-116272187D01*
X123431932Y-116218659D01*
X123445205Y-116180099D01*
X123463414Y-116148487D01*
X123474040Y-116133918D01*
X123518870Y-116089763D01*
X123568612Y-116070689D01*
X123624881Y-116078005D01*
X123689294Y-116113021D01*
X123763464Y-116177046D01*
X123849007Y-116271389D01*
X123947538Y-116397359D01*
X124060672Y-116556265D01*
X124140202Y-116673923D01*
X124189570Y-116757199D01*
X124246598Y-116870585D01*
X124312304Y-117016274D01*
X124387708Y-117196458D01*
X124417286Y-117269846D01*
X124596867Y-117719231D01*
X124675298Y-118227231D01*
X124696899Y-118366637D01*
X124717085Y-118495961D01*
X124734932Y-118609357D01*
X124749515Y-118700978D01*
X124759911Y-118764980D01*
X124764869Y-118793846D01*
X124771031Y-118832170D01*
X124896055Y-118832170D01*
X124885832Y-118763326D01*
X124868386Y-118649830D01*
X124868019Y-118647478D01*
X124850536Y-118532713D01*
X124835893Y-118431064D01*
X124824941Y-118348892D01*
X124818525Y-118292562D01*
X124817495Y-118268438D01*
X124817497Y-118268431D01*
X124829639Y-118274292D01*
X124856490Y-118307406D01*
X124893748Y-118360887D01*
X124937112Y-118427845D01*
X124982279Y-118501394D01*
X125024950Y-118574645D01*
X125060823Y-118640711D01*
X125085595Y-118692705D01*
X125090714Y-118705923D01*
X125112197Y-118776977D01*
X125128220Y-118847021D01*
X125131058Y-118864673D01*
X125134789Y-118911446D01*
X125124462Y-118931264D01*
X125093675Y-118935494D01*
X125091153Y-118935500D01*
X125042856Y-118947142D01*
X125016042Y-118985268D01*
X125007387Y-119054678D01*
X125007376Y-119056417D01*
X125003678Y-119091333D01*
X124989274Y-119124202D01*
X124958684Y-119162549D01*
X124906428Y-119213898D01*
X124865423Y-119251350D01*
X124737918Y-119368718D01*
X124632186Y-119472345D01*
X124538990Y-119572260D01*
X124449090Y-119678494D01*
X124353245Y-119801079D01*
X124326670Y-119836258D01*
X124257287Y-119929349D01*
X124208438Y-119997764D01*
X124176735Y-120047726D01*
X124158792Y-120085459D01*
X124151222Y-120117186D01*
X124150639Y-120149131D01*
X124151243Y-120158642D01*
X124158269Y-120211106D01*
X124173966Y-120235900D01*
X124205597Y-120244408D01*
X124206000Y-120244447D01*
X124258720Y-120239934D01*
X124290219Y-120228162D01*
X124313675Y-120204470D01*
X124352801Y-120154547D01*
X124402511Y-120085271D01*
X124457722Y-120003519D01*
X124468469Y-119987058D01*
X124534922Y-119887580D01*
X124590945Y-119812267D01*
X124645255Y-119751222D01*
X124706571Y-119694548D01*
X124775020Y-119639046D01*
X124882417Y-119550486D01*
X124983062Y-119458932D01*
X125071357Y-119370158D01*
X125141702Y-119289941D01*
X125188499Y-119224055D01*
X125200655Y-119199959D01*
X125219456Y-119159682D01*
X125235287Y-119151067D01*
X125257677Y-119168655D01*
X125272499Y-119179482D01*
X125295534Y-119187059D01*
X125332224Y-119191616D01*
X125388012Y-119193388D01*
X125468343Y-119192606D01*
X125578657Y-119189501D01*
X125670785Y-119186285D01*
X125819464Y-119180144D01*
X125983331Y-119172159D01*
X126147425Y-119163135D01*
X126296788Y-119153877D01*
X126376167Y-119148318D01*
X126524776Y-119135912D01*
X126643070Y-119120866D01*
X126739258Y-119099270D01*
X126821549Y-119067215D01*
X126898153Y-119020793D01*
X126977277Y-118956096D01*
X127067131Y-118869214D01*
X127156308Y-118776857D01*
X127224740Y-118705793D01*
X127315761Y-118612429D01*
X127424220Y-118501988D01*
X127544966Y-118379691D01*
X127672846Y-118250760D01*
X127802710Y-118120416D01*
X127890741Y-118032423D01*
X128034156Y-117888626D01*
X128151210Y-117769589D01*
X128243877Y-117673163D01*
X128314133Y-117597198D01*
X128363950Y-117539545D01*
X128383717Y-117513386D01*
X128220804Y-117513386D01*
X127742287Y-117998334D01*
X127619531Y-118122943D01*
X127496214Y-118248493D01*
X127377405Y-118369799D01*
X127268169Y-118481675D01*
X127173573Y-118578936D01*
X127098685Y-118656397D01*
X127068385Y-118687998D01*
X126968707Y-118790364D01*
X126885419Y-118868133D01*
X126810151Y-118925158D01*
X126734530Y-118965294D01*
X126650187Y-118992393D01*
X126548749Y-119010308D01*
X126421846Y-119022894D01*
X126325923Y-119029762D01*
X126203379Y-119037224D01*
X126076884Y-119043658D01*
X125952194Y-119048912D01*
X125835070Y-119052835D01*
X125731268Y-119055273D01*
X125646547Y-119056076D01*
X125586665Y-119055089D01*
X125557381Y-119052163D01*
X125555782Y-119050113D01*
X125585745Y-119032561D01*
X125645043Y-119005335D01*
X125726015Y-118971347D01*
X125821001Y-118933511D01*
X125922341Y-118894739D01*
X126022376Y-118857944D01*
X126113445Y-118826037D01*
X126187888Y-118801933D01*
X126238045Y-118788543D01*
X126247769Y-118786991D01*
X126324889Y-118781768D01*
X126422363Y-118778916D01*
X126529412Y-118778330D01*
X126635253Y-118779905D01*
X126729106Y-118783533D01*
X126800189Y-118789109D01*
X126824154Y-118792659D01*
X126885444Y-118795570D01*
X126930971Y-118781198D01*
X126953255Y-118754413D01*
X126950941Y-118745000D01*
X126902308Y-118745000D01*
X126885587Y-118759688D01*
X126853462Y-118764539D01*
X126816743Y-118757850D01*
X126804615Y-118745000D01*
X126811098Y-118739305D01*
X126308205Y-118739305D01*
X126305550Y-118746350D01*
X126281338Y-118762177D01*
X126251953Y-118761947D01*
X126238000Y-118746153D01*
X126253445Y-118718912D01*
X126285347Y-118711447D01*
X126296934Y-118715889D01*
X126308205Y-118739305D01*
X126811098Y-118739305D01*
X126821336Y-118730313D01*
X126853462Y-118725462D01*
X126890180Y-118732150D01*
X126902308Y-118745000D01*
X126950941Y-118745000D01*
X126944814Y-118720086D01*
X126941733Y-118716113D01*
X126910468Y-118694209D01*
X126862499Y-118693351D01*
X126844779Y-118696352D01*
X126784780Y-118704939D01*
X126707857Y-118711845D01*
X126622801Y-118716818D01*
X126538407Y-118719607D01*
X126463468Y-118719963D01*
X126406778Y-118717634D01*
X126377130Y-118712368D01*
X126374769Y-118709762D01*
X126390266Y-118690746D01*
X126431362Y-118657839D01*
X126489966Y-118616241D01*
X126557986Y-118571152D01*
X126627331Y-118527771D01*
X126689910Y-118491299D01*
X126737631Y-118466935D01*
X126762403Y-118459878D01*
X126763122Y-118460199D01*
X126791853Y-118461447D01*
X126841883Y-118450689D01*
X126866818Y-118442789D01*
X126953736Y-118418778D01*
X127015732Y-118415188D01*
X127048762Y-118432249D01*
X127048846Y-118432385D01*
X127076465Y-118446492D01*
X127125434Y-118451620D01*
X127178882Y-118446930D01*
X127203556Y-118440064D01*
X127229111Y-118415388D01*
X127231622Y-118390321D01*
X127175846Y-118390321D01*
X127159810Y-118413935D01*
X127125710Y-118426308D01*
X127110881Y-118425383D01*
X127096493Y-118407436D01*
X126855735Y-118407436D01*
X126853547Y-118412708D01*
X126828813Y-118428314D01*
X126794189Y-118431569D01*
X126768828Y-118422192D01*
X126765538Y-118413999D01*
X126779789Y-118387680D01*
X126786013Y-118382960D01*
X126816951Y-118377155D01*
X126845679Y-118387731D01*
X126855735Y-118407436D01*
X127096493Y-118407436D01*
X127095625Y-118406354D01*
X127095453Y-118402589D01*
X127110502Y-118385437D01*
X127141367Y-118377000D01*
X127168862Y-118380205D01*
X127175846Y-118390321D01*
X127231622Y-118390321D01*
X127232523Y-118381333D01*
X127214440Y-118355442D01*
X127200269Y-118351192D01*
X127133332Y-118351171D01*
X127076865Y-118361345D01*
X127049823Y-118375096D01*
X127017041Y-118388988D01*
X126970193Y-118392721D01*
X126928653Y-118386170D01*
X126913442Y-118375977D01*
X126922562Y-118356727D01*
X126956851Y-118322816D01*
X127008269Y-118280179D01*
X127068775Y-118234750D01*
X127130330Y-118192464D01*
X127184892Y-118159254D01*
X127224422Y-118141055D01*
X127234109Y-118139308D01*
X127283759Y-118128946D01*
X127311788Y-118115752D01*
X127346055Y-118103179D01*
X127378777Y-118119100D01*
X127388895Y-118127842D01*
X127433755Y-118148930D01*
X127490513Y-118152251D01*
X127543658Y-118139499D01*
X127577682Y-118112366D01*
X127580259Y-118106950D01*
X127579967Y-118100231D01*
X127527538Y-118100231D01*
X127510818Y-118114918D01*
X127478692Y-118119769D01*
X127441974Y-118113081D01*
X127429846Y-118100231D01*
X127446567Y-118085543D01*
X127478692Y-118080692D01*
X127515411Y-118087381D01*
X127527538Y-118100231D01*
X127579967Y-118100231D01*
X127578987Y-118077705D01*
X127273538Y-118077705D01*
X127257502Y-118101320D01*
X127223403Y-118113693D01*
X127208573Y-118112768D01*
X127193318Y-118093739D01*
X127193145Y-118089973D01*
X127208194Y-118072822D01*
X127239059Y-118064385D01*
X127266554Y-118067589D01*
X127273538Y-118077705D01*
X127578987Y-118077705D01*
X127578762Y-118072546D01*
X127546461Y-118052678D01*
X127489221Y-118048374D01*
X127412905Y-118060662D01*
X127376115Y-118071165D01*
X127340589Y-118075017D01*
X127332154Y-118063678D01*
X127349017Y-118042582D01*
X127393119Y-118013407D01*
X127454726Y-117980731D01*
X127524107Y-117949132D01*
X127591530Y-117923186D01*
X127647261Y-117907471D01*
X127669855Y-117904846D01*
X127727121Y-117896768D01*
X127772182Y-117877653D01*
X127797089Y-117852556D01*
X127795279Y-117846231D01*
X127742462Y-117846231D01*
X127725741Y-117860918D01*
X127693615Y-117865769D01*
X127656897Y-117859081D01*
X127644769Y-117846231D01*
X127661490Y-117831543D01*
X127693615Y-117826692D01*
X127730334Y-117833381D01*
X127742462Y-117846231D01*
X127795279Y-117846231D01*
X127789918Y-117827498D01*
X127783293Y-117819037D01*
X127744047Y-117795136D01*
X127691528Y-117789773D01*
X127638945Y-117800489D01*
X127599504Y-117824826D01*
X127586154Y-117855731D01*
X127569803Y-117878655D01*
X127527215Y-117911421D01*
X127468092Y-117948525D01*
X127402133Y-117984458D01*
X127339037Y-118013713D01*
X127288504Y-118030785D01*
X127273963Y-118032970D01*
X127200930Y-118037670D01*
X127157754Y-118044012D01*
X127135224Y-118054440D01*
X127124127Y-118071399D01*
X127123540Y-118072895D01*
X127125389Y-118107323D01*
X127136305Y-118119483D01*
X127136089Y-118137773D01*
X127109034Y-118169814D01*
X127062446Y-118210359D01*
X127003634Y-118254160D01*
X126939907Y-118295971D01*
X126878573Y-118330544D01*
X126826939Y-118352632D01*
X126804615Y-118357628D01*
X126745968Y-118373832D01*
X126717700Y-118406205D01*
X126690068Y-118440536D01*
X126636490Y-118486508D01*
X126565960Y-118538267D01*
X126487472Y-118589957D01*
X126410021Y-118635723D01*
X126342600Y-118669708D01*
X126294203Y-118686057D01*
X126286846Y-118686707D01*
X126220960Y-118695947D01*
X126184378Y-118724896D01*
X126176947Y-118741562D01*
X126156415Y-118759589D01*
X126107627Y-118787634D01*
X126038664Y-118821349D01*
X125983518Y-118845655D01*
X125850564Y-118901473D01*
X125750576Y-118942570D01*
X125680771Y-118970002D01*
X125638365Y-118984827D01*
X125620574Y-118988102D01*
X125622538Y-118982776D01*
X125650982Y-118960256D01*
X125708108Y-118919288D01*
X125789767Y-118862615D01*
X125833006Y-118833108D01*
X125586851Y-118833108D01*
X125569068Y-118857617D01*
X125516083Y-118899074D01*
X125460015Y-118936882D01*
X125388742Y-118985632D01*
X125329209Y-119030868D01*
X125289865Y-119065947D01*
X125279886Y-119078517D01*
X125258116Y-119111768D01*
X125249993Y-119109788D01*
X125258381Y-119074908D01*
X125262287Y-119064203D01*
X125271869Y-119013246D01*
X125262070Y-118992178D01*
X125255193Y-118963509D01*
X125283520Y-118930297D01*
X125343823Y-118895064D01*
X125429119Y-118861577D01*
X125516864Y-118835058D01*
X125569446Y-118825578D01*
X125586851Y-118833108D01*
X125833006Y-118833108D01*
X125891809Y-118792981D01*
X126010084Y-118713129D01*
X126140443Y-118625803D01*
X126278737Y-118533745D01*
X126420815Y-118439699D01*
X126562528Y-118346409D01*
X126699726Y-118256618D01*
X126828261Y-118173069D01*
X126943981Y-118098506D01*
X127042739Y-118035672D01*
X127120383Y-117987310D01*
X127172765Y-117956164D01*
X127186970Y-117948505D01*
X127286771Y-117899917D01*
X127403654Y-117845210D01*
X127530773Y-117787370D01*
X127661283Y-117729381D01*
X127788337Y-117674226D01*
X127905091Y-117624891D01*
X128004697Y-117584358D01*
X128080311Y-117555613D01*
X128113518Y-117544615D01*
X128220804Y-117513386D01*
X128383717Y-117513386D01*
X128395304Y-117498053D01*
X128410168Y-117470574D01*
X128411610Y-117465281D01*
X128412537Y-117414450D01*
X128387443Y-117386980D01*
X128331118Y-117377733D01*
X128322703Y-117377607D01*
X128254664Y-117382668D01*
X128172336Y-117399357D01*
X128072180Y-117428911D01*
X127950661Y-117472570D01*
X127804241Y-117531572D01*
X127629383Y-117607156D01*
X127494840Y-117667563D01*
X127358883Y-117729472D01*
X127245990Y-117781707D01*
X127150024Y-117827780D01*
X127064851Y-117871202D01*
X126984332Y-117915487D01*
X126902332Y-117964147D01*
X126812715Y-118020692D01*
X126709343Y-118088637D01*
X126586081Y-118171492D01*
X126436792Y-118272770D01*
X126433385Y-118275085D01*
X126296098Y-118368445D01*
X126163775Y-118458588D01*
X126041262Y-118542200D01*
X125933402Y-118615971D01*
X125845041Y-118676586D01*
X125781024Y-118720735D01*
X125754746Y-118739044D01*
X125699286Y-118775484D01*
X125660180Y-118796204D01*
X125644044Y-118797870D01*
X125644490Y-118794603D01*
X125650661Y-118776095D01*
X125645926Y-118767455D01*
X125622609Y-118768144D01*
X125573030Y-118777623D01*
X125530693Y-118786622D01*
X125438881Y-118811244D01*
X125350358Y-118843706D01*
X125274826Y-118879629D01*
X125221990Y-118914635D01*
X125205145Y-118933501D01*
X125187841Y-118958166D01*
X125182012Y-118959923D01*
X125178916Y-118936229D01*
X125173540Y-118887772D01*
X125170866Y-118862231D01*
X125151326Y-118750785D01*
X125113847Y-118641131D01*
X125054495Y-118523954D01*
X124975006Y-118398269D01*
X124925172Y-118322176D01*
X124884869Y-118255707D01*
X124858631Y-118206665D01*
X124850769Y-118184359D01*
X124862796Y-118142074D01*
X124892301Y-118087507D01*
X124929417Y-118036296D01*
X124964281Y-118004077D01*
X124964634Y-118003876D01*
X124985500Y-117982655D01*
X124975507Y-117963393D01*
X124949887Y-117960925D01*
X124914688Y-117985541D01*
X124876501Y-118028748D01*
X124841914Y-118082054D01*
X124817518Y-118136968D01*
X124809746Y-118177017D01*
X124806254Y-118184094D01*
X124797925Y-118157257D01*
X124785838Y-118101218D01*
X124771072Y-118020690D01*
X124763105Y-117973231D01*
X124742195Y-117846838D01*
X124725277Y-117751093D01*
X124710301Y-117678039D01*
X124695219Y-117619717D01*
X124677982Y-117568169D01*
X124656541Y-117515436D01*
X124629931Y-117455936D01*
X124602095Y-117391796D01*
X124564672Y-117301281D01*
X124521796Y-117194603D01*
X124477602Y-117081976D01*
X124459491Y-117034960D01*
X124419562Y-116932350D01*
X124384710Y-116848868D01*
X124350365Y-116776302D01*
X124311960Y-116706437D01*
X124264923Y-116631061D01*
X124204686Y-116541960D01*
X124126680Y-116430921D01*
X124111648Y-116409729D01*
X124029923Y-116295444D01*
X123965672Y-116208277D01*
X123914356Y-116143061D01*
X123871435Y-116094630D01*
X123832367Y-116057817D01*
X123792614Y-116027453D01*
X123753260Y-116001842D01*
X123630355Y-115925685D01*
X123523517Y-115952996D01*
X123523517Y-115952996D01*
G37*
X123523517Y-115952996D02*
X123461157Y-115971680D01*
X123419909Y-115995256D01*
X123385846Y-116034491D01*
X123355142Y-116083164D01*
X123328862Y-116129547D01*
X123310772Y-116171273D01*
X123298816Y-116217955D01*
X123290935Y-116279208D01*
X123285073Y-116364647D01*
X123281980Y-116425087D01*
X123273175Y-116560967D01*
X123259607Y-116682653D01*
X123239206Y-116800041D01*
X123209905Y-116923025D01*
X123169634Y-117061500D01*
X123116326Y-117225361D01*
X123112027Y-117238117D01*
X123061130Y-117400117D01*
X123028452Y-117533101D01*
X123013421Y-117642317D01*
X123015461Y-117733010D01*
X123033999Y-117810425D01*
X123046211Y-117839496D01*
X123071020Y-117882203D01*
X123106019Y-117922350D01*
X123156637Y-117964058D01*
X123228309Y-118011449D01*
X123326464Y-118068646D01*
X123405689Y-118112301D01*
X123514576Y-118172817D01*
X123620820Y-118234966D01*
X123730152Y-118302453D01*
X123848304Y-118378982D01*
X123981008Y-118468258D01*
X124133994Y-118573987D01*
X124294966Y-118687123D01*
X124422722Y-118776383D01*
X124524913Y-118845093D01*
X124606968Y-118896498D01*
X124674320Y-118933844D01*
X124732400Y-118960374D01*
X124781516Y-118977773D01*
X124847505Y-118997310D01*
X124896721Y-119010285D01*
X124919444Y-119014158D01*
X124919895Y-119013937D01*
X124918460Y-118993958D01*
X124911731Y-118941474D01*
X124900568Y-118862568D01*
X124896055Y-118832170D01*
X124771031Y-118832170D01*
X124765717Y-118836170D01*
X124748189Y-118813385D01*
X124732012Y-118786051D01*
X124700620Y-118728963D01*
X124656676Y-118647114D01*
X124602841Y-118545498D01*
X124541778Y-118429108D01*
X124477839Y-118306204D01*
X124412954Y-118179933D01*
X124353889Y-118063005D01*
X124303126Y-117960495D01*
X124263148Y-117877477D01*
X124236438Y-117819025D01*
X124225538Y-117790525D01*
X124212863Y-117765058D01*
X124162670Y-117765058D01*
X124156899Y-117784471D01*
X124136600Y-117784597D01*
X124102334Y-117765858D01*
X124093023Y-117751557D01*
X124098794Y-117732145D01*
X124119092Y-117732019D01*
X124153359Y-117750758D01*
X124162670Y-117765058D01*
X124212863Y-117765058D01*
X124202673Y-117744584D01*
X124176692Y-117721320D01*
X124145174Y-117701135D01*
X124124245Y-117676430D01*
X124108997Y-117637145D01*
X124094520Y-117573214D01*
X124088068Y-117539670D01*
X124076292Y-117464941D01*
X124075635Y-117418315D01*
X124086082Y-117390438D01*
X124087831Y-117388208D01*
X124098849Y-117361104D01*
X124091957Y-117349551D01*
X124047419Y-117349551D01*
X124039103Y-117356330D01*
X124016653Y-117357148D01*
X123977667Y-117350246D01*
X123962604Y-117339581D01*
X123959970Y-117316818D01*
X123981626Y-117310782D01*
X124015569Y-117323704D01*
X124022391Y-117328466D01*
X124047419Y-117349551D01*
X124091957Y-117349551D01*
X124080415Y-117330206D01*
X124072131Y-117321593D01*
X124054342Y-117292303D01*
X123573816Y-117292303D01*
X123553564Y-117298993D01*
X123544085Y-117299154D01*
X123510396Y-117287487D01*
X123502615Y-117269846D01*
X123511894Y-117243827D01*
X123519762Y-117240539D01*
X123545225Y-117253906D01*
X123561231Y-117269846D01*
X123573816Y-117292303D01*
X124054342Y-117292303D01*
X124047545Y-117281112D01*
X124026909Y-117219761D01*
X124012517Y-117150290D01*
X124006664Y-117085447D01*
X124011643Y-117037983D01*
X124018747Y-117024917D01*
X124024278Y-117001222D01*
X124022730Y-116999226D01*
X123964585Y-116999226D01*
X123944333Y-117005916D01*
X123934854Y-117006077D01*
X123901165Y-116994410D01*
X123893385Y-116976769D01*
X123902663Y-116950750D01*
X123910531Y-116947462D01*
X123935994Y-116960829D01*
X123952000Y-116976769D01*
X123964585Y-116999226D01*
X124022730Y-116999226D01*
X123998253Y-116967679D01*
X123986451Y-116957031D01*
X123953131Y-116915107D01*
X123914667Y-116847567D01*
X123876370Y-116766450D01*
X123843550Y-116683793D01*
X123821520Y-116611633D01*
X123815231Y-116568981D01*
X123797468Y-116514597D01*
X123732823Y-116514597D01*
X123727053Y-116534009D01*
X123706754Y-116534135D01*
X123672488Y-116515396D01*
X123663177Y-116501096D01*
X123668948Y-116481683D01*
X123689246Y-116481557D01*
X123723512Y-116500296D01*
X123732823Y-116514597D01*
X123797468Y-116514597D01*
X123797053Y-116513328D01*
X123746961Y-116470016D01*
X123682365Y-116447081D01*
X123634881Y-116443415D01*
X123611408Y-116459672D01*
X123608192Y-116466636D01*
X123609929Y-116510145D01*
X123647951Y-116548574D01*
X123717281Y-116578462D01*
X123754366Y-116591985D01*
X123781169Y-116611647D01*
X123804086Y-116645960D01*
X123829510Y-116703433D01*
X123849170Y-116753993D01*
X123907799Y-116907575D01*
X123842970Y-116919737D01*
X123790626Y-116921533D01*
X123785528Y-116920125D01*
X123655779Y-116920125D01*
X123643534Y-116927466D01*
X123625186Y-116927923D01*
X123586464Y-116920393D01*
X123571834Y-116909735D01*
X123569905Y-116886404D01*
X123591384Y-116877516D01*
X123622336Y-116886001D01*
X123635677Y-116896304D01*
X123655779Y-116920125D01*
X123785528Y-116920125D01*
X123730629Y-116904963D01*
X123669802Y-116877042D01*
X123605824Y-116847165D01*
X123566159Y-116836221D01*
X123542132Y-116842194D01*
X123537362Y-116846284D01*
X123525322Y-116878993D01*
X123542315Y-116913523D01*
X123579214Y-116943273D01*
X123626894Y-116961641D01*
X123676228Y-116962027D01*
X123690829Y-116957294D01*
X123746945Y-116945756D01*
X123802053Y-116953143D01*
X123839279Y-116976858D01*
X123841649Y-116980511D01*
X123870028Y-117007294D01*
X123917587Y-117034387D01*
X123924688Y-117037478D01*
X123970276Y-117062439D01*
X123988680Y-117094895D01*
X123991344Y-117128455D01*
X123994859Y-117186544D01*
X124002297Y-117231467D01*
X124004636Y-117253642D01*
X123993628Y-117268569D01*
X123963402Y-117277624D01*
X123908089Y-117282182D01*
X123821816Y-117283622D01*
X123779765Y-117283637D01*
X123687612Y-117279701D01*
X123628646Y-117267716D01*
X123603919Y-117253706D01*
X123553482Y-117221142D01*
X123502716Y-117207982D01*
X123463619Y-117215947D01*
X123450693Y-117231740D01*
X123453406Y-117270195D01*
X123483625Y-117304269D01*
X123529798Y-117328445D01*
X123580370Y-117337210D01*
X123623788Y-117325047D01*
X123631984Y-117318277D01*
X123662306Y-117309723D01*
X123718029Y-117309998D01*
X123786933Y-117317364D01*
X123856798Y-117330083D01*
X123915403Y-117346418D01*
X123949152Y-117363384D01*
X123990738Y-117391644D01*
X124012990Y-117402069D01*
X124037392Y-117430495D01*
X124059480Y-117497522D01*
X124069118Y-117542786D01*
X124081295Y-117612673D01*
X124084369Y-117654833D01*
X124077531Y-117679725D01*
X124059975Y-117697808D01*
X124056974Y-117700120D01*
X124019930Y-117719062D01*
X123998756Y-117720366D01*
X123970674Y-117715590D01*
X123913655Y-117709133D01*
X123837742Y-117702071D01*
X123797855Y-117698808D01*
X123692661Y-117687508D01*
X123680108Y-117684824D01*
X123537922Y-117684824D01*
X123521643Y-117689153D01*
X123503211Y-117686915D01*
X123464134Y-117672540D01*
X123448787Y-117655731D01*
X123453356Y-117635163D01*
X123478205Y-117633394D01*
X123510042Y-117649225D01*
X123523711Y-117662492D01*
X123537922Y-117684824D01*
X123680108Y-117684824D01*
X123620696Y-117672121D01*
X123576212Y-117651383D01*
X123573711Y-117649488D01*
X123520611Y-117617737D01*
X123476832Y-117601139D01*
X123430111Y-117601235D01*
X123408391Y-117624297D01*
X123415050Y-117660744D01*
X123444121Y-117693950D01*
X123481729Y-117716432D01*
X123528044Y-117723515D01*
X123589033Y-117719012D01*
X123665115Y-117714990D01*
X123755838Y-117717846D01*
X123851056Y-117726328D01*
X123940621Y-117739182D01*
X124014386Y-117755154D01*
X124062205Y-117772992D01*
X124069849Y-117778406D01*
X124115514Y-117807455D01*
X124156905Y-117823530D01*
X124174992Y-117831950D01*
X124195260Y-117850222D01*
X124220036Y-117882123D01*
X124251650Y-117931431D01*
X124292429Y-118001924D01*
X124344703Y-118097379D01*
X124410800Y-118221574D01*
X124460281Y-118315690D01*
X124525332Y-118440659D01*
X124583485Y-118554054D01*
X124632502Y-118651376D01*
X124670149Y-118728127D01*
X124694189Y-118779811D01*
X124702386Y-118801929D01*
X124702243Y-118802347D01*
X124683797Y-118795382D01*
X124640568Y-118769842D01*
X124579466Y-118730011D01*
X124523082Y-118691244D01*
X124335028Y-118560600D01*
X124150024Y-118434673D01*
X123973058Y-118316722D01*
X123809117Y-118210007D01*
X123663188Y-118117788D01*
X123540261Y-118043324D01*
X123471855Y-118004219D01*
X123382972Y-117952940D01*
X123301631Y-117901963D01*
X123236921Y-117857240D01*
X123198317Y-117825126D01*
X123161706Y-117773326D01*
X123142274Y-117709152D01*
X123140310Y-117628092D01*
X123156105Y-117525635D01*
X123189948Y-117397268D01*
X123234618Y-117260077D01*
X123288953Y-117096099D01*
X123329709Y-116954751D01*
X123359607Y-116823150D01*
X123381370Y-116688410D01*
X123397718Y-116537648D01*
X123404409Y-116456224D01*
X123413267Y-116348702D01*
X123421864Y-116272187D01*
X123431932Y-116218659D01*
X123445205Y-116180099D01*
X123463414Y-116148487D01*
X123474040Y-116133918D01*
X123518870Y-116089763D01*
X123568612Y-116070689D01*
X123624881Y-116078005D01*
X123689294Y-116113021D01*
X123763464Y-116177046D01*
X123849007Y-116271389D01*
X123947538Y-116397359D01*
X124060672Y-116556265D01*
X124140202Y-116673923D01*
X124189570Y-116757199D01*
X124246598Y-116870585D01*
X124312304Y-117016274D01*
X124387708Y-117196458D01*
X124417286Y-117269846D01*
X124596867Y-117719231D01*
X124675298Y-118227231D01*
X124696899Y-118366637D01*
X124717085Y-118495961D01*
X124734932Y-118609357D01*
X124749515Y-118700978D01*
X124759911Y-118764980D01*
X124764869Y-118793846D01*
X124771031Y-118832170D01*
X124896055Y-118832170D01*
X124885832Y-118763326D01*
X124868386Y-118649830D01*
X124868019Y-118647478D01*
X124850536Y-118532713D01*
X124835893Y-118431064D01*
X124824941Y-118348892D01*
X124818525Y-118292562D01*
X124817495Y-118268438D01*
X124817497Y-118268431D01*
X124829639Y-118274292D01*
X124856490Y-118307406D01*
X124893748Y-118360887D01*
X124937112Y-118427845D01*
X124982279Y-118501394D01*
X125024950Y-118574645D01*
X125060823Y-118640711D01*
X125085595Y-118692705D01*
X125090714Y-118705923D01*
X125112197Y-118776977D01*
X125128220Y-118847021D01*
X125131058Y-118864673D01*
X125134789Y-118911446D01*
X125124462Y-118931264D01*
X125093675Y-118935494D01*
X125091153Y-118935500D01*
X125042856Y-118947142D01*
X125016042Y-118985268D01*
X125007387Y-119054678D01*
X125007376Y-119056417D01*
X125003678Y-119091333D01*
X124989274Y-119124202D01*
X124958684Y-119162549D01*
X124906428Y-119213898D01*
X124865423Y-119251350D01*
X124737918Y-119368718D01*
X124632186Y-119472345D01*
X124538990Y-119572260D01*
X124449090Y-119678494D01*
X124353245Y-119801079D01*
X124326670Y-119836258D01*
X124257287Y-119929349D01*
X124208438Y-119997764D01*
X124176735Y-120047726D01*
X124158792Y-120085459D01*
X124151222Y-120117186D01*
X124150639Y-120149131D01*
X124151243Y-120158642D01*
X124158269Y-120211106D01*
X124173966Y-120235900D01*
X124205597Y-120244408D01*
X124206000Y-120244447D01*
X124258720Y-120239934D01*
X124290219Y-120228162D01*
X124313675Y-120204470D01*
X124352801Y-120154547D01*
X124402511Y-120085271D01*
X124457722Y-120003519D01*
X124468469Y-119987058D01*
X124534922Y-119887580D01*
X124590945Y-119812267D01*
X124645255Y-119751222D01*
X124706571Y-119694548D01*
X124775020Y-119639046D01*
X124882417Y-119550486D01*
X124983062Y-119458932D01*
X125071357Y-119370158D01*
X125141702Y-119289941D01*
X125188499Y-119224055D01*
X125200655Y-119199959D01*
X125219456Y-119159682D01*
X125235287Y-119151067D01*
X125257677Y-119168655D01*
X125272499Y-119179482D01*
X125295534Y-119187059D01*
X125332224Y-119191616D01*
X125388012Y-119193388D01*
X125468343Y-119192606D01*
X125578657Y-119189501D01*
X125670785Y-119186285D01*
X125819464Y-119180144D01*
X125983331Y-119172159D01*
X126147425Y-119163135D01*
X126296788Y-119153877D01*
X126376167Y-119148318D01*
X126524776Y-119135912D01*
X126643070Y-119120866D01*
X126739258Y-119099270D01*
X126821549Y-119067215D01*
X126898153Y-119020793D01*
X126977277Y-118956096D01*
X127067131Y-118869214D01*
X127156308Y-118776857D01*
X127224740Y-118705793D01*
X127315761Y-118612429D01*
X127424220Y-118501988D01*
X127544966Y-118379691D01*
X127672846Y-118250760D01*
X127802710Y-118120416D01*
X127890741Y-118032423D01*
X128034156Y-117888626D01*
X128151210Y-117769589D01*
X128243877Y-117673163D01*
X128314133Y-117597198D01*
X128363950Y-117539545D01*
X128383717Y-117513386D01*
X128220804Y-117513386D01*
X127742287Y-117998334D01*
X127619531Y-118122943D01*
X127496214Y-118248493D01*
X127377405Y-118369799D01*
X127268169Y-118481675D01*
X127173573Y-118578936D01*
X127098685Y-118656397D01*
X127068385Y-118687998D01*
X126968707Y-118790364D01*
X126885419Y-118868133D01*
X126810151Y-118925158D01*
X126734530Y-118965294D01*
X126650187Y-118992393D01*
X126548749Y-119010308D01*
X126421846Y-119022894D01*
X126325923Y-119029762D01*
X126203379Y-119037224D01*
X126076884Y-119043658D01*
X125952194Y-119048912D01*
X125835070Y-119052835D01*
X125731268Y-119055273D01*
X125646547Y-119056076D01*
X125586665Y-119055089D01*
X125557381Y-119052163D01*
X125555782Y-119050113D01*
X125585745Y-119032561D01*
X125645043Y-119005335D01*
X125726015Y-118971347D01*
X125821001Y-118933511D01*
X125922341Y-118894739D01*
X126022376Y-118857944D01*
X126113445Y-118826037D01*
X126187888Y-118801933D01*
X126238045Y-118788543D01*
X126247769Y-118786991D01*
X126324889Y-118781768D01*
X126422363Y-118778916D01*
X126529412Y-118778330D01*
X126635253Y-118779905D01*
X126729106Y-118783533D01*
X126800189Y-118789109D01*
X126824154Y-118792659D01*
X126885444Y-118795570D01*
X126930971Y-118781198D01*
X126953255Y-118754413D01*
X126950941Y-118745000D01*
X126902308Y-118745000D01*
X126885587Y-118759688D01*
X126853462Y-118764539D01*
X126816743Y-118757850D01*
X126804615Y-118745000D01*
X126811098Y-118739305D01*
X126308205Y-118739305D01*
X126305550Y-118746350D01*
X126281338Y-118762177D01*
X126251953Y-118761947D01*
X126238000Y-118746153D01*
X126253445Y-118718912D01*
X126285347Y-118711447D01*
X126296934Y-118715889D01*
X126308205Y-118739305D01*
X126811098Y-118739305D01*
X126821336Y-118730313D01*
X126853462Y-118725462D01*
X126890180Y-118732150D01*
X126902308Y-118745000D01*
X126950941Y-118745000D01*
X126944814Y-118720086D01*
X126941733Y-118716113D01*
X126910468Y-118694209D01*
X126862499Y-118693351D01*
X126844779Y-118696352D01*
X126784780Y-118704939D01*
X126707857Y-118711845D01*
X126622801Y-118716818D01*
X126538407Y-118719607D01*
X126463468Y-118719963D01*
X126406778Y-118717634D01*
X126377130Y-118712368D01*
X126374769Y-118709762D01*
X126390266Y-118690746D01*
X126431362Y-118657839D01*
X126489966Y-118616241D01*
X126557986Y-118571152D01*
X126627331Y-118527771D01*
X126689910Y-118491299D01*
X126737631Y-118466935D01*
X126762403Y-118459878D01*
X126763122Y-118460199D01*
X126791853Y-118461447D01*
X126841883Y-118450689D01*
X126866818Y-118442789D01*
X126953736Y-118418778D01*
X127015732Y-118415188D01*
X127048762Y-118432249D01*
X127048846Y-118432385D01*
X127076465Y-118446492D01*
X127125434Y-118451620D01*
X127178882Y-118446930D01*
X127203556Y-118440064D01*
X127229111Y-118415388D01*
X127231622Y-118390321D01*
X127175846Y-118390321D01*
X127159810Y-118413935D01*
X127125710Y-118426308D01*
X127110881Y-118425383D01*
X127096493Y-118407436D01*
X126855735Y-118407436D01*
X126853547Y-118412708D01*
X126828813Y-118428314D01*
X126794189Y-118431569D01*
X126768828Y-118422192D01*
X126765538Y-118413999D01*
X126779789Y-118387680D01*
X126786013Y-118382960D01*
X126816951Y-118377155D01*
X126845679Y-118387731D01*
X126855735Y-118407436D01*
X127096493Y-118407436D01*
X127095625Y-118406354D01*
X127095453Y-118402589D01*
X127110502Y-118385437D01*
X127141367Y-118377000D01*
X127168862Y-118380205D01*
X127175846Y-118390321D01*
X127231622Y-118390321D01*
X127232523Y-118381333D01*
X127214440Y-118355442D01*
X127200269Y-118351192D01*
X127133332Y-118351171D01*
X127076865Y-118361345D01*
X127049823Y-118375096D01*
X127017041Y-118388988D01*
X126970193Y-118392721D01*
X126928653Y-118386170D01*
X126913442Y-118375977D01*
X126922562Y-118356727D01*
X126956851Y-118322816D01*
X127008269Y-118280179D01*
X127068775Y-118234750D01*
X127130330Y-118192464D01*
X127184892Y-118159254D01*
X127224422Y-118141055D01*
X127234109Y-118139308D01*
X127283759Y-118128946D01*
X127311788Y-118115752D01*
X127346055Y-118103179D01*
X127378777Y-118119100D01*
X127388895Y-118127842D01*
X127433755Y-118148930D01*
X127490513Y-118152251D01*
X127543658Y-118139499D01*
X127577682Y-118112366D01*
X127580259Y-118106950D01*
X127579967Y-118100231D01*
X127527538Y-118100231D01*
X127510818Y-118114918D01*
X127478692Y-118119769D01*
X127441974Y-118113081D01*
X127429846Y-118100231D01*
X127446567Y-118085543D01*
X127478692Y-118080692D01*
X127515411Y-118087381D01*
X127527538Y-118100231D01*
X127579967Y-118100231D01*
X127578987Y-118077705D01*
X127273538Y-118077705D01*
X127257502Y-118101320D01*
X127223403Y-118113693D01*
X127208573Y-118112768D01*
X127193318Y-118093739D01*
X127193145Y-118089973D01*
X127208194Y-118072822D01*
X127239059Y-118064385D01*
X127266554Y-118067589D01*
X127273538Y-118077705D01*
X127578987Y-118077705D01*
X127578762Y-118072546D01*
X127546461Y-118052678D01*
X127489221Y-118048374D01*
X127412905Y-118060662D01*
X127376115Y-118071165D01*
X127340589Y-118075017D01*
X127332154Y-118063678D01*
X127349017Y-118042582D01*
X127393119Y-118013407D01*
X127454726Y-117980731D01*
X127524107Y-117949132D01*
X127591530Y-117923186D01*
X127647261Y-117907471D01*
X127669855Y-117904846D01*
X127727121Y-117896768D01*
X127772182Y-117877653D01*
X127797089Y-117852556D01*
X127795279Y-117846231D01*
X127742462Y-117846231D01*
X127725741Y-117860918D01*
X127693615Y-117865769D01*
X127656897Y-117859081D01*
X127644769Y-117846231D01*
X127661490Y-117831543D01*
X127693615Y-117826692D01*
X127730334Y-117833381D01*
X127742462Y-117846231D01*
X127795279Y-117846231D01*
X127789918Y-117827498D01*
X127783293Y-117819037D01*
X127744047Y-117795136D01*
X127691528Y-117789773D01*
X127638945Y-117800489D01*
X127599504Y-117824826D01*
X127586154Y-117855731D01*
X127569803Y-117878655D01*
X127527215Y-117911421D01*
X127468092Y-117948525D01*
X127402133Y-117984458D01*
X127339037Y-118013713D01*
X127288504Y-118030785D01*
X127273963Y-118032970D01*
X127200930Y-118037670D01*
X127157754Y-118044012D01*
X127135224Y-118054440D01*
X127124127Y-118071399D01*
X127123540Y-118072895D01*
X127125389Y-118107323D01*
X127136305Y-118119483D01*
X127136089Y-118137773D01*
X127109034Y-118169814D01*
X127062446Y-118210359D01*
X127003634Y-118254160D01*
X126939907Y-118295971D01*
X126878573Y-118330544D01*
X126826939Y-118352632D01*
X126804615Y-118357628D01*
X126745968Y-118373832D01*
X126717700Y-118406205D01*
X126690068Y-118440536D01*
X126636490Y-118486508D01*
X126565960Y-118538267D01*
X126487472Y-118589957D01*
X126410021Y-118635723D01*
X126342600Y-118669708D01*
X126294203Y-118686057D01*
X126286846Y-118686707D01*
X126220960Y-118695947D01*
X126184378Y-118724896D01*
X126176947Y-118741562D01*
X126156415Y-118759589D01*
X126107627Y-118787634D01*
X126038664Y-118821349D01*
X125983518Y-118845655D01*
X125850564Y-118901473D01*
X125750576Y-118942570D01*
X125680771Y-118970002D01*
X125638365Y-118984827D01*
X125620574Y-118988102D01*
X125622538Y-118982776D01*
X125650982Y-118960256D01*
X125708108Y-118919288D01*
X125789767Y-118862615D01*
X125833006Y-118833108D01*
X125586851Y-118833108D01*
X125569068Y-118857617D01*
X125516083Y-118899074D01*
X125460015Y-118936882D01*
X125388742Y-118985632D01*
X125329209Y-119030868D01*
X125289865Y-119065947D01*
X125279886Y-119078517D01*
X125258116Y-119111768D01*
X125249993Y-119109788D01*
X125258381Y-119074908D01*
X125262287Y-119064203D01*
X125271869Y-119013246D01*
X125262070Y-118992178D01*
X125255193Y-118963509D01*
X125283520Y-118930297D01*
X125343823Y-118895064D01*
X125429119Y-118861577D01*
X125516864Y-118835058D01*
X125569446Y-118825578D01*
X125586851Y-118833108D01*
X125833006Y-118833108D01*
X125891809Y-118792981D01*
X126010084Y-118713129D01*
X126140443Y-118625803D01*
X126278737Y-118533745D01*
X126420815Y-118439699D01*
X126562528Y-118346409D01*
X126699726Y-118256618D01*
X126828261Y-118173069D01*
X126943981Y-118098506D01*
X127042739Y-118035672D01*
X127120383Y-117987310D01*
X127172765Y-117956164D01*
X127186970Y-117948505D01*
X127286771Y-117899917D01*
X127403654Y-117845210D01*
X127530773Y-117787370D01*
X127661283Y-117729381D01*
X127788337Y-117674226D01*
X127905091Y-117624891D01*
X128004697Y-117584358D01*
X128080311Y-117555613D01*
X128113518Y-117544615D01*
X128220804Y-117513386D01*
X128383717Y-117513386D01*
X128395304Y-117498053D01*
X128410168Y-117470574D01*
X128411610Y-117465281D01*
X128412537Y-117414450D01*
X128387443Y-117386980D01*
X128331118Y-117377733D01*
X128322703Y-117377607D01*
X128254664Y-117382668D01*
X128172336Y-117399357D01*
X128072180Y-117428911D01*
X127950661Y-117472570D01*
X127804241Y-117531572D01*
X127629383Y-117607156D01*
X127494840Y-117667563D01*
X127358883Y-117729472D01*
X127245990Y-117781707D01*
X127150024Y-117827780D01*
X127064851Y-117871202D01*
X126984332Y-117915487D01*
X126902332Y-117964147D01*
X126812715Y-118020692D01*
X126709343Y-118088637D01*
X126586081Y-118171492D01*
X126436792Y-118272770D01*
X126433385Y-118275085D01*
X126296098Y-118368445D01*
X126163775Y-118458588D01*
X126041262Y-118542200D01*
X125933402Y-118615971D01*
X125845041Y-118676586D01*
X125781024Y-118720735D01*
X125754746Y-118739044D01*
X125699286Y-118775484D01*
X125660180Y-118796204D01*
X125644044Y-118797870D01*
X125644490Y-118794603D01*
X125650661Y-118776095D01*
X125645926Y-118767455D01*
X125622609Y-118768144D01*
X125573030Y-118777623D01*
X125530693Y-118786622D01*
X125438881Y-118811244D01*
X125350358Y-118843706D01*
X125274826Y-118879629D01*
X125221990Y-118914635D01*
X125205145Y-118933501D01*
X125187841Y-118958166D01*
X125182012Y-118959923D01*
X125178916Y-118936229D01*
X125173540Y-118887772D01*
X125170866Y-118862231D01*
X125151326Y-118750785D01*
X125113847Y-118641131D01*
X125054495Y-118523954D01*
X124975006Y-118398269D01*
X124925172Y-118322176D01*
X124884869Y-118255707D01*
X124858631Y-118206665D01*
X124850769Y-118184359D01*
X124862796Y-118142074D01*
X124892301Y-118087507D01*
X124929417Y-118036296D01*
X124964281Y-118004077D01*
X124964634Y-118003876D01*
X124985500Y-117982655D01*
X124975507Y-117963393D01*
X124949887Y-117960925D01*
X124914688Y-117985541D01*
X124876501Y-118028748D01*
X124841914Y-118082054D01*
X124817518Y-118136968D01*
X124809746Y-118177017D01*
X124806254Y-118184094D01*
X124797925Y-118157257D01*
X124785838Y-118101218D01*
X124771072Y-118020690D01*
X124763105Y-117973231D01*
X124742195Y-117846838D01*
X124725277Y-117751093D01*
X124710301Y-117678039D01*
X124695219Y-117619717D01*
X124677982Y-117568169D01*
X124656541Y-117515436D01*
X124629931Y-117455936D01*
X124602095Y-117391796D01*
X124564672Y-117301281D01*
X124521796Y-117194603D01*
X124477602Y-117081976D01*
X124459491Y-117034960D01*
X124419562Y-116932350D01*
X124384710Y-116848868D01*
X124350365Y-116776302D01*
X124311960Y-116706437D01*
X124264923Y-116631061D01*
X124204686Y-116541960D01*
X124126680Y-116430921D01*
X124111648Y-116409729D01*
X124029923Y-116295444D01*
X123965672Y-116208277D01*
X123914356Y-116143061D01*
X123871435Y-116094630D01*
X123832367Y-116057817D01*
X123792614Y-116027453D01*
X123753260Y-116001842D01*
X123630355Y-115925685D01*
X123523517Y-115952996D01*
G36*
X122919855Y-117991016D02*
X122919182Y-117991363D01*
X122851075Y-118038784D01*
X122774842Y-118111138D01*
X122699507Y-118198248D01*
X122634099Y-118289936D01*
X122598010Y-118353493D01*
X122573148Y-118405818D01*
X122555747Y-118450694D01*
X122544254Y-118497177D01*
X122537112Y-118554325D01*
X122532769Y-118631193D01*
X122529668Y-118736839D01*
X122529254Y-118754031D01*
X122527383Y-118870431D01*
X122528950Y-118963221D01*
X122535254Y-119045800D01*
X122547595Y-119131566D01*
X122567270Y-119233917D01*
X122582928Y-119307903D01*
X122610129Y-119431147D01*
X122633236Y-119524118D01*
X122655638Y-119594899D01*
X122680722Y-119651571D01*
X122711876Y-119702216D01*
X122752488Y-119754915D01*
X122787872Y-119796788D01*
X122832290Y-119850542D01*
X122864321Y-119893241D01*
X122877351Y-119916035D01*
X122877385Y-119916504D01*
X122894997Y-119927816D01*
X122942126Y-119944962D01*
X123010209Y-119965005D01*
X123046093Y-119974362D01*
X123131909Y-119997184D01*
X123211492Y-120020598D01*
X123271019Y-120040473D01*
X123282941Y-120045145D01*
X123352318Y-120066099D01*
X123426502Y-120070032D01*
X123514116Y-120056105D01*
X123623779Y-120023480D01*
X123668692Y-120007588D01*
X123762950Y-119971955D01*
X123876192Y-119927225D01*
X123991660Y-119880091D01*
X124061385Y-119850731D01*
X124158175Y-119807922D01*
X124232111Y-119770262D01*
X124294954Y-119729966D01*
X124358469Y-119679252D01*
X124434418Y-119610333D01*
X124457608Y-119588515D01*
X124636985Y-119419077D01*
X124621865Y-119353291D01*
X124491245Y-119353291D01*
X124481521Y-119382474D01*
X124445806Y-119427544D01*
X124390671Y-119482788D01*
X124322690Y-119542492D01*
X124248432Y-119600941D01*
X124174472Y-119652423D01*
X124107380Y-119691222D01*
X124096659Y-119696364D01*
X123990572Y-119743394D01*
X123876705Y-119790675D01*
X123761670Y-119835807D01*
X123652081Y-119876386D01*
X123554549Y-119910011D01*
X123475686Y-119934279D01*
X123422105Y-119946788D01*
X123404923Y-119947663D01*
X123349284Y-119934422D01*
X123299636Y-119918183D01*
X123262813Y-119901637D01*
X123250485Y-119890845D01*
X123250790Y-119890517D01*
X123269493Y-119880070D01*
X123317933Y-119854041D01*
X123391249Y-119815015D01*
X123484578Y-119765574D01*
X123593060Y-119708300D01*
X123670652Y-119667435D01*
X123820349Y-119589787D01*
X123938308Y-119531167D01*
X124026426Y-119490713D01*
X124086602Y-119467563D01*
X124120734Y-119460858D01*
X124124684Y-119461435D01*
X124164513Y-119459407D01*
X124182111Y-119434537D01*
X124180594Y-119427042D01*
X124038808Y-119427042D01*
X124025646Y-119440724D01*
X123983201Y-119468841D01*
X123917147Y-119508359D01*
X123833153Y-119556244D01*
X123736894Y-119609461D01*
X123634039Y-119664975D01*
X123530262Y-119719752D01*
X123431234Y-119770757D01*
X123342627Y-119814955D01*
X123270113Y-119849313D01*
X123219364Y-119870794D01*
X123198431Y-119876664D01*
X123156436Y-119872132D01*
X123095242Y-119858844D01*
X123061584Y-119849594D01*
X122993324Y-119822434D01*
X122939061Y-119781019D01*
X122893293Y-119727774D01*
X122856227Y-119677853D01*
X122832292Y-119641989D01*
X122826781Y-119629245D01*
X122846444Y-119622598D01*
X122897568Y-119607537D01*
X122973891Y-119585847D01*
X123069151Y-119559313D01*
X123152718Y-119536360D01*
X123260590Y-119506411D01*
X123356448Y-119478866D01*
X123433410Y-119455776D01*
X123484595Y-119439192D01*
X123501836Y-119432312D01*
X123541335Y-119426664D01*
X123585290Y-119436533D01*
X123639548Y-119447120D01*
X123678612Y-119433287D01*
X123714453Y-119422251D01*
X123774108Y-119414517D01*
X123846407Y-119410277D01*
X123920182Y-119409725D01*
X123984262Y-119413055D01*
X124027477Y-119420461D01*
X124038808Y-119427042D01*
X124180594Y-119427042D01*
X124175024Y-119399539D01*
X124127846Y-119399539D01*
X124124176Y-119424249D01*
X124104841Y-119425524D01*
X124080598Y-119416987D01*
X124060987Y-119402457D01*
X123632431Y-119402457D01*
X123612179Y-119409147D01*
X123602700Y-119409308D01*
X123574492Y-119399539D01*
X123504653Y-119399539D01*
X123485215Y-119409445D01*
X123435382Y-119427463D01*
X123362457Y-119451418D01*
X123273744Y-119479135D01*
X123176546Y-119508438D01*
X123078166Y-119537153D01*
X122985909Y-119563104D01*
X122907077Y-119584117D01*
X122848973Y-119598016D01*
X122823235Y-119602477D01*
X122797449Y-119588332D01*
X122779730Y-119560731D01*
X122768076Y-119526020D01*
X122750944Y-119466705D01*
X122731173Y-119393705D01*
X122711604Y-119317938D01*
X122695077Y-119250321D01*
X122684432Y-119201771D01*
X122682000Y-119185026D01*
X122699942Y-119178996D01*
X122747787Y-119176474D01*
X122816562Y-119177002D01*
X122897295Y-119180122D01*
X122981012Y-119185375D01*
X123058743Y-119192303D01*
X123121515Y-119200448D01*
X123160354Y-119209350D01*
X123160692Y-119209481D01*
X123219622Y-119229463D01*
X123268154Y-119242123D01*
X123311529Y-119257785D01*
X123366249Y-119286626D01*
X123422464Y-119322091D01*
X123470322Y-119357621D01*
X123499975Y-119386662D01*
X123504653Y-119399539D01*
X123574492Y-119399539D01*
X123569011Y-119397641D01*
X123561231Y-119380000D01*
X123570510Y-119353981D01*
X123578377Y-119350692D01*
X123603840Y-119364060D01*
X123619846Y-119380000D01*
X123632431Y-119402457D01*
X124060987Y-119402457D01*
X124052193Y-119395942D01*
X124059131Y-119376576D01*
X124088769Y-119370231D01*
X124120593Y-119382448D01*
X124127846Y-119399539D01*
X124175024Y-119399539D01*
X124174687Y-119397879D01*
X124148478Y-119367188D01*
X124097647Y-119339688D01*
X124046464Y-119332487D01*
X124008139Y-119346178D01*
X123998143Y-119360462D01*
X123972870Y-119377710D01*
X123920462Y-119388211D01*
X123852257Y-119392062D01*
X123779593Y-119389363D01*
X123713807Y-119380213D01*
X123666236Y-119364710D01*
X123655625Y-119357477D01*
X123613796Y-119336133D01*
X123553976Y-119323058D01*
X123536856Y-119321740D01*
X123463881Y-119307330D01*
X123385375Y-119274365D01*
X123314155Y-119230046D01*
X123263035Y-119181571D01*
X123257033Y-119171828D01*
X123205285Y-119171828D01*
X123199514Y-119191240D01*
X123179215Y-119191366D01*
X123144949Y-119172627D01*
X123135638Y-119158326D01*
X123141409Y-119138914D01*
X123161708Y-119138788D01*
X123195974Y-119157527D01*
X123205285Y-119171828D01*
X123257033Y-119171828D01*
X123250177Y-119160702D01*
X123213497Y-119120806D01*
X123182079Y-119107886D01*
X123086441Y-119107886D01*
X123066117Y-119136021D01*
X123020086Y-119150111D01*
X122943078Y-119154909D01*
X122888230Y-119155308D01*
X122795389Y-119153697D01*
X122734273Y-119148158D01*
X122697638Y-119137628D01*
X122681140Y-119124964D01*
X122672003Y-119097829D01*
X122662781Y-119044009D01*
X122654212Y-118972891D01*
X122647033Y-118893862D01*
X122641980Y-118816312D01*
X122639790Y-118749626D01*
X122641201Y-118703194D01*
X122646709Y-118686385D01*
X122668166Y-118692239D01*
X122716862Y-118707731D01*
X122783094Y-118729757D01*
X122797044Y-118734487D01*
X122910823Y-118782966D01*
X122991509Y-118841978D01*
X123044728Y-118916779D01*
X123071045Y-118990479D01*
X123086327Y-119060956D01*
X123086441Y-119107886D01*
X123182079Y-119107886D01*
X123172461Y-119103931D01*
X123130669Y-119087749D01*
X123109269Y-119052590D01*
X123102714Y-119024835D01*
X123091063Y-118970730D01*
X123079963Y-118931011D01*
X123079302Y-118929228D01*
X123083985Y-118906214D01*
X123108603Y-118901308D01*
X123151717Y-118890660D01*
X123162226Y-118862874D01*
X123157697Y-118855380D01*
X123104893Y-118855380D01*
X123084641Y-118862070D01*
X123075162Y-118862231D01*
X123041473Y-118850564D01*
X123033692Y-118832923D01*
X123042971Y-118806904D01*
X123050838Y-118803616D01*
X123076302Y-118816983D01*
X123092308Y-118832923D01*
X123104893Y-118855380D01*
X123157697Y-118855380D01*
X123138843Y-118824183D01*
X123126861Y-118812941D01*
X123076999Y-118770051D01*
X123128615Y-118688162D01*
X123163368Y-118638623D01*
X123191816Y-118616707D01*
X123224767Y-118614911D01*
X123232257Y-118616192D01*
X123285250Y-118615236D01*
X123312170Y-118592808D01*
X123312072Y-118591946D01*
X123153425Y-118591946D01*
X123133017Y-118643863D01*
X123098693Y-118698281D01*
X123057799Y-118743143D01*
X123024818Y-118764231D01*
X122988553Y-118764658D01*
X122927204Y-118752919D01*
X122851651Y-118732136D01*
X122772771Y-118705431D01*
X122701443Y-118675927D01*
X122679525Y-118665126D01*
X122660896Y-118634848D01*
X122660621Y-118578990D01*
X122677139Y-118505591D01*
X122708888Y-118422692D01*
X122737540Y-118366478D01*
X122778999Y-118297218D01*
X122813125Y-118258173D01*
X122847949Y-118248615D01*
X122891503Y-118267813D01*
X122951816Y-118315037D01*
X122985137Y-118343983D01*
X123044867Y-118398869D01*
X123092556Y-118447270D01*
X123120756Y-118481435D01*
X123124923Y-118489419D01*
X123142286Y-118533588D01*
X123152569Y-118554587D01*
X123153425Y-118591946D01*
X123312072Y-118591946D01*
X123309404Y-118568541D01*
X123268154Y-118568541D01*
X123255911Y-118587283D01*
X123220165Y-118575939D01*
X123210104Y-118569917D01*
X123192020Y-118548463D01*
X123194608Y-118538495D01*
X123222462Y-118532875D01*
X123254409Y-118546589D01*
X123268154Y-118568541D01*
X123309404Y-118568541D01*
X123308017Y-118556383D01*
X123289000Y-118531384D01*
X123245298Y-118501458D01*
X123206909Y-118491000D01*
X123171592Y-118477335D01*
X123118939Y-118440341D01*
X123057436Y-118386017D01*
X123054707Y-118383370D01*
X122995575Y-118327307D01*
X122941499Y-118278691D01*
X122903042Y-118246978D01*
X122899603Y-118244494D01*
X122854993Y-118213248D01*
X122898903Y-118166508D01*
X122937513Y-118133954D01*
X122970217Y-118119789D01*
X122971061Y-118119769D01*
X122993100Y-118130436D01*
X123043610Y-118160820D01*
X123118866Y-118208498D01*
X123215138Y-118271045D01*
X123328701Y-118346038D01*
X123455827Y-118431052D01*
X123592790Y-118523665D01*
X123607540Y-118533697D01*
X123792453Y-118659442D01*
X123947824Y-118765092D01*
X124076279Y-118852742D01*
X124180442Y-118924484D01*
X124262938Y-118982411D01*
X124326393Y-119028618D01*
X124373432Y-119065198D01*
X124406679Y-119094243D01*
X124428759Y-119117848D01*
X124442299Y-119138106D01*
X124449922Y-119157109D01*
X124454255Y-119176953D01*
X124457921Y-119199729D01*
X124460536Y-119213923D01*
X124474229Y-119279558D01*
X124486093Y-119332681D01*
X124491245Y-119353291D01*
X124621865Y-119353291D01*
X124590991Y-119218973D01*
X124571293Y-119135884D01*
X124554126Y-119068258D01*
X124541656Y-119024346D01*
X124536691Y-119011941D01*
X124516003Y-118997197D01*
X124466878Y-118963333D01*
X124393286Y-118913036D01*
X124299199Y-118848988D01*
X124188589Y-118773873D01*
X124065428Y-118690377D01*
X123933687Y-118601181D01*
X123797337Y-118508972D01*
X123660351Y-118416432D01*
X123526700Y-118326245D01*
X123400355Y-118241096D01*
X123285288Y-118163669D01*
X123185471Y-118096647D01*
X123104875Y-118042715D01*
X123047472Y-118004557D01*
X123017234Y-117984856D01*
X123014049Y-117982944D01*
X122971779Y-117973236D01*
X122919855Y-117991016D01*
X122919855Y-117991016D01*
G37*
X122919855Y-117991016D02*
X122919182Y-117991363D01*
X122851075Y-118038784D01*
X122774842Y-118111138D01*
X122699507Y-118198248D01*
X122634099Y-118289936D01*
X122598010Y-118353493D01*
X122573148Y-118405818D01*
X122555747Y-118450694D01*
X122544254Y-118497177D01*
X122537112Y-118554325D01*
X122532769Y-118631193D01*
X122529668Y-118736839D01*
X122529254Y-118754031D01*
X122527383Y-118870431D01*
X122528950Y-118963221D01*
X122535254Y-119045800D01*
X122547595Y-119131566D01*
X122567270Y-119233917D01*
X122582928Y-119307903D01*
X122610129Y-119431147D01*
X122633236Y-119524118D01*
X122655638Y-119594899D01*
X122680722Y-119651571D01*
X122711876Y-119702216D01*
X122752488Y-119754915D01*
X122787872Y-119796788D01*
X122832290Y-119850542D01*
X122864321Y-119893241D01*
X122877351Y-119916035D01*
X122877385Y-119916504D01*
X122894997Y-119927816D01*
X122942126Y-119944962D01*
X123010209Y-119965005D01*
X123046093Y-119974362D01*
X123131909Y-119997184D01*
X123211492Y-120020598D01*
X123271019Y-120040473D01*
X123282941Y-120045145D01*
X123352318Y-120066099D01*
X123426502Y-120070032D01*
X123514116Y-120056105D01*
X123623779Y-120023480D01*
X123668692Y-120007588D01*
X123762950Y-119971955D01*
X123876192Y-119927225D01*
X123991660Y-119880091D01*
X124061385Y-119850731D01*
X124158175Y-119807922D01*
X124232111Y-119770262D01*
X124294954Y-119729966D01*
X124358469Y-119679252D01*
X124434418Y-119610333D01*
X124457608Y-119588515D01*
X124636985Y-119419077D01*
X124621865Y-119353291D01*
X124491245Y-119353291D01*
X124481521Y-119382474D01*
X124445806Y-119427544D01*
X124390671Y-119482788D01*
X124322690Y-119542492D01*
X124248432Y-119600941D01*
X124174472Y-119652423D01*
X124107380Y-119691222D01*
X124096659Y-119696364D01*
X123990572Y-119743394D01*
X123876705Y-119790675D01*
X123761670Y-119835807D01*
X123652081Y-119876386D01*
X123554549Y-119910011D01*
X123475686Y-119934279D01*
X123422105Y-119946788D01*
X123404923Y-119947663D01*
X123349284Y-119934422D01*
X123299636Y-119918183D01*
X123262813Y-119901637D01*
X123250485Y-119890845D01*
X123250790Y-119890517D01*
X123269493Y-119880070D01*
X123317933Y-119854041D01*
X123391249Y-119815015D01*
X123484578Y-119765574D01*
X123593060Y-119708300D01*
X123670652Y-119667435D01*
X123820349Y-119589787D01*
X123938308Y-119531167D01*
X124026426Y-119490713D01*
X124086602Y-119467563D01*
X124120734Y-119460858D01*
X124124684Y-119461435D01*
X124164513Y-119459407D01*
X124182111Y-119434537D01*
X124180594Y-119427042D01*
X124038808Y-119427042D01*
X124025646Y-119440724D01*
X123983201Y-119468841D01*
X123917147Y-119508359D01*
X123833153Y-119556244D01*
X123736894Y-119609461D01*
X123634039Y-119664975D01*
X123530262Y-119719752D01*
X123431234Y-119770757D01*
X123342627Y-119814955D01*
X123270113Y-119849313D01*
X123219364Y-119870794D01*
X123198431Y-119876664D01*
X123156436Y-119872132D01*
X123095242Y-119858844D01*
X123061584Y-119849594D01*
X122993324Y-119822434D01*
X122939061Y-119781019D01*
X122893293Y-119727774D01*
X122856227Y-119677853D01*
X122832292Y-119641989D01*
X122826781Y-119629245D01*
X122846444Y-119622598D01*
X122897568Y-119607537D01*
X122973891Y-119585847D01*
X123069151Y-119559313D01*
X123152718Y-119536360D01*
X123260590Y-119506411D01*
X123356448Y-119478866D01*
X123433410Y-119455776D01*
X123484595Y-119439192D01*
X123501836Y-119432312D01*
X123541335Y-119426664D01*
X123585290Y-119436533D01*
X123639548Y-119447120D01*
X123678612Y-119433287D01*
X123714453Y-119422251D01*
X123774108Y-119414517D01*
X123846407Y-119410277D01*
X123920182Y-119409725D01*
X123984262Y-119413055D01*
X124027477Y-119420461D01*
X124038808Y-119427042D01*
X124180594Y-119427042D01*
X124175024Y-119399539D01*
X124127846Y-119399539D01*
X124124176Y-119424249D01*
X124104841Y-119425524D01*
X124080598Y-119416987D01*
X124060987Y-119402457D01*
X123632431Y-119402457D01*
X123612179Y-119409147D01*
X123602700Y-119409308D01*
X123574492Y-119399539D01*
X123504653Y-119399539D01*
X123485215Y-119409445D01*
X123435382Y-119427463D01*
X123362457Y-119451418D01*
X123273744Y-119479135D01*
X123176546Y-119508438D01*
X123078166Y-119537153D01*
X122985909Y-119563104D01*
X122907077Y-119584117D01*
X122848973Y-119598016D01*
X122823235Y-119602477D01*
X122797449Y-119588332D01*
X122779730Y-119560731D01*
X122768076Y-119526020D01*
X122750944Y-119466705D01*
X122731173Y-119393705D01*
X122711604Y-119317938D01*
X122695077Y-119250321D01*
X122684432Y-119201771D01*
X122682000Y-119185026D01*
X122699942Y-119178996D01*
X122747787Y-119176474D01*
X122816562Y-119177002D01*
X122897295Y-119180122D01*
X122981012Y-119185375D01*
X123058743Y-119192303D01*
X123121515Y-119200448D01*
X123160354Y-119209350D01*
X123160692Y-119209481D01*
X123219622Y-119229463D01*
X123268154Y-119242123D01*
X123311529Y-119257785D01*
X123366249Y-119286626D01*
X123422464Y-119322091D01*
X123470322Y-119357621D01*
X123499975Y-119386662D01*
X123504653Y-119399539D01*
X123574492Y-119399539D01*
X123569011Y-119397641D01*
X123561231Y-119380000D01*
X123570510Y-119353981D01*
X123578377Y-119350692D01*
X123603840Y-119364060D01*
X123619846Y-119380000D01*
X123632431Y-119402457D01*
X124060987Y-119402457D01*
X124052193Y-119395942D01*
X124059131Y-119376576D01*
X124088769Y-119370231D01*
X124120593Y-119382448D01*
X124127846Y-119399539D01*
X124175024Y-119399539D01*
X124174687Y-119397879D01*
X124148478Y-119367188D01*
X124097647Y-119339688D01*
X124046464Y-119332487D01*
X124008139Y-119346178D01*
X123998143Y-119360462D01*
X123972870Y-119377710D01*
X123920462Y-119388211D01*
X123852257Y-119392062D01*
X123779593Y-119389363D01*
X123713807Y-119380213D01*
X123666236Y-119364710D01*
X123655625Y-119357477D01*
X123613796Y-119336133D01*
X123553976Y-119323058D01*
X123536856Y-119321740D01*
X123463881Y-119307330D01*
X123385375Y-119274365D01*
X123314155Y-119230046D01*
X123263035Y-119181571D01*
X123257033Y-119171828D01*
X123205285Y-119171828D01*
X123199514Y-119191240D01*
X123179215Y-119191366D01*
X123144949Y-119172627D01*
X123135638Y-119158326D01*
X123141409Y-119138914D01*
X123161708Y-119138788D01*
X123195974Y-119157527D01*
X123205285Y-119171828D01*
X123257033Y-119171828D01*
X123250177Y-119160702D01*
X123213497Y-119120806D01*
X123182079Y-119107886D01*
X123086441Y-119107886D01*
X123066117Y-119136021D01*
X123020086Y-119150111D01*
X122943078Y-119154909D01*
X122888230Y-119155308D01*
X122795389Y-119153697D01*
X122734273Y-119148158D01*
X122697638Y-119137628D01*
X122681140Y-119124964D01*
X122672003Y-119097829D01*
X122662781Y-119044009D01*
X122654212Y-118972891D01*
X122647033Y-118893862D01*
X122641980Y-118816312D01*
X122639790Y-118749626D01*
X122641201Y-118703194D01*
X122646709Y-118686385D01*
X122668166Y-118692239D01*
X122716862Y-118707731D01*
X122783094Y-118729757D01*
X122797044Y-118734487D01*
X122910823Y-118782966D01*
X122991509Y-118841978D01*
X123044728Y-118916779D01*
X123071045Y-118990479D01*
X123086327Y-119060956D01*
X123086441Y-119107886D01*
X123182079Y-119107886D01*
X123172461Y-119103931D01*
X123130669Y-119087749D01*
X123109269Y-119052590D01*
X123102714Y-119024835D01*
X123091063Y-118970730D01*
X123079963Y-118931011D01*
X123079302Y-118929228D01*
X123083985Y-118906214D01*
X123108603Y-118901308D01*
X123151717Y-118890660D01*
X123162226Y-118862874D01*
X123157697Y-118855380D01*
X123104893Y-118855380D01*
X123084641Y-118862070D01*
X123075162Y-118862231D01*
X123041473Y-118850564D01*
X123033692Y-118832923D01*
X123042971Y-118806904D01*
X123050838Y-118803616D01*
X123076302Y-118816983D01*
X123092308Y-118832923D01*
X123104893Y-118855380D01*
X123157697Y-118855380D01*
X123138843Y-118824183D01*
X123126861Y-118812941D01*
X123076999Y-118770051D01*
X123128615Y-118688162D01*
X123163368Y-118638623D01*
X123191816Y-118616707D01*
X123224767Y-118614911D01*
X123232257Y-118616192D01*
X123285250Y-118615236D01*
X123312170Y-118592808D01*
X123312072Y-118591946D01*
X123153425Y-118591946D01*
X123133017Y-118643863D01*
X123098693Y-118698281D01*
X123057799Y-118743143D01*
X123024818Y-118764231D01*
X122988553Y-118764658D01*
X122927204Y-118752919D01*
X122851651Y-118732136D01*
X122772771Y-118705431D01*
X122701443Y-118675927D01*
X122679525Y-118665126D01*
X122660896Y-118634848D01*
X122660621Y-118578990D01*
X122677139Y-118505591D01*
X122708888Y-118422692D01*
X122737540Y-118366478D01*
X122778999Y-118297218D01*
X122813125Y-118258173D01*
X122847949Y-118248615D01*
X122891503Y-118267813D01*
X122951816Y-118315037D01*
X122985137Y-118343983D01*
X123044867Y-118398869D01*
X123092556Y-118447270D01*
X123120756Y-118481435D01*
X123124923Y-118489419D01*
X123142286Y-118533588D01*
X123152569Y-118554587D01*
X123153425Y-118591946D01*
X123312072Y-118591946D01*
X123309404Y-118568541D01*
X123268154Y-118568541D01*
X123255911Y-118587283D01*
X123220165Y-118575939D01*
X123210104Y-118569917D01*
X123192020Y-118548463D01*
X123194608Y-118538495D01*
X123222462Y-118532875D01*
X123254409Y-118546589D01*
X123268154Y-118568541D01*
X123309404Y-118568541D01*
X123308017Y-118556383D01*
X123289000Y-118531384D01*
X123245298Y-118501458D01*
X123206909Y-118491000D01*
X123171592Y-118477335D01*
X123118939Y-118440341D01*
X123057436Y-118386017D01*
X123054707Y-118383370D01*
X122995575Y-118327307D01*
X122941499Y-118278691D01*
X122903042Y-118246978D01*
X122899603Y-118244494D01*
X122854993Y-118213248D01*
X122898903Y-118166508D01*
X122937513Y-118133954D01*
X122970217Y-118119789D01*
X122971061Y-118119769D01*
X122993100Y-118130436D01*
X123043610Y-118160820D01*
X123118866Y-118208498D01*
X123215138Y-118271045D01*
X123328701Y-118346038D01*
X123455827Y-118431052D01*
X123592790Y-118523665D01*
X123607540Y-118533697D01*
X123792453Y-118659442D01*
X123947824Y-118765092D01*
X124076279Y-118852742D01*
X124180442Y-118924484D01*
X124262938Y-118982411D01*
X124326393Y-119028618D01*
X124373432Y-119065198D01*
X124406679Y-119094243D01*
X124428759Y-119117848D01*
X124442299Y-119138106D01*
X124449922Y-119157109D01*
X124454255Y-119176953D01*
X124457921Y-119199729D01*
X124460536Y-119213923D01*
X124474229Y-119279558D01*
X124486093Y-119332681D01*
X124491245Y-119353291D01*
X124621865Y-119353291D01*
X124590991Y-119218973D01*
X124571293Y-119135884D01*
X124554126Y-119068258D01*
X124541656Y-119024346D01*
X124536691Y-119011941D01*
X124516003Y-118997197D01*
X124466878Y-118963333D01*
X124393286Y-118913036D01*
X124299199Y-118848988D01*
X124188589Y-118773873D01*
X124065428Y-118690377D01*
X123933687Y-118601181D01*
X123797337Y-118508972D01*
X123660351Y-118416432D01*
X123526700Y-118326245D01*
X123400355Y-118241096D01*
X123285288Y-118163669D01*
X123185471Y-118096647D01*
X123104875Y-118042715D01*
X123047472Y-118004557D01*
X123017234Y-117984856D01*
X123014049Y-117982944D01*
X122971779Y-117973236D01*
X122919855Y-117991016D01*
D14*
X147318000Y-100595000D02*
X146968000Y-100595000D01*
X146968000Y-100595000D02*
X146968000Y-102095000D01*
X151968000Y-100595000D02*
X148768000Y-100595000D01*
X153768000Y-102095000D02*
X153768000Y-100595000D01*
X153768000Y-100595000D02*
X153368000Y-100595000D01*
D15*
X151129905Y-109942381D02*
X151129905Y-110751905D01*
X151082286Y-110847143D01*
X151034667Y-110894762D01*
X150939429Y-110942381D01*
X150748952Y-110942381D01*
X150653714Y-110894762D01*
X150606095Y-110847143D01*
X150558476Y-110751905D01*
X150558476Y-109942381D01*
X150129905Y-110037619D02*
X150082286Y-109990000D01*
X149987048Y-109942381D01*
X149748952Y-109942381D01*
X149653714Y-109990000D01*
X149606095Y-110037619D01*
X149558476Y-110132857D01*
X149558476Y-110228095D01*
X149606095Y-110370952D01*
X150177524Y-110942381D01*
X149558476Y-110942381D01*
%LPC*%
D16*
X156718000Y-75565000D03*
X159258000Y-75565000D03*
X161798000Y-75565000D03*
X164338000Y-75565000D03*
X166878000Y-75565000D03*
X169418000Y-75565000D03*
X171958000Y-75565000D03*
X174498000Y-75565000D03*
X129794000Y-75565000D03*
X132334000Y-75565000D03*
X134874000Y-75565000D03*
X137414000Y-75565000D03*
X139954000Y-75565000D03*
X142494000Y-75565000D03*
X145034000Y-75565000D03*
X147574000Y-75565000D03*
X150114000Y-75565000D03*
X152654000Y-75565000D03*
X161798000Y-123825000D03*
X164338000Y-123825000D03*
X166878000Y-123825000D03*
X169418000Y-123825000D03*
X171958000Y-123825000D03*
X174498000Y-123825000D03*
X138938000Y-123825000D03*
X141478000Y-123825000D03*
X144018000Y-123825000D03*
X146558000Y-123825000D03*
X149098000Y-123825000D03*
X151638000Y-123825000D03*
X154178000Y-123825000D03*
X156718000Y-123825000D03*
D17*
X114808000Y-75565000D03*
D18*
X117348000Y-75565000D03*
X119888000Y-75565000D03*
X122428000Y-75565000D03*
D17*
X126873000Y-83185000D03*
D18*
X126873000Y-85725000D03*
X126873000Y-88265000D03*
D17*
X164338000Y-89535000D03*
D18*
X164338000Y-92075000D03*
X164338000Y-94615000D03*
D17*
X166878000Y-89535000D03*
D18*
X166878000Y-92075000D03*
X166878000Y-94615000D03*
D17*
X169418000Y-89535000D03*
D18*
X169418000Y-92075000D03*
X169418000Y-94615000D03*
D19*
X148068000Y-98295000D03*
X152648000Y-98295000D03*
D20*
X150368000Y-105695000D03*
D21*
X137968000Y-115570000D03*
D22*
X139018000Y-115570000D03*
X136318000Y-115570000D03*
D21*
X137368000Y-115570000D03*
D23*
X137668000Y-115570000D03*
D21*
X137968000Y-109855000D03*
D22*
X139018000Y-109855000D03*
X136318000Y-109855000D03*
D21*
X137368000Y-109855000D03*
D23*
X137668000Y-109855000D03*
D21*
X137968000Y-111760000D03*
D22*
X139018000Y-111760000D03*
X136318000Y-111760000D03*
D21*
X137368000Y-111760000D03*
D23*
X137668000Y-111760000D03*
D21*
X137968000Y-113665000D03*
D22*
X139018000Y-113665000D03*
X136318000Y-113665000D03*
D21*
X137368000Y-113665000D03*
D23*
X137668000Y-113665000D03*
D24*
X121158000Y-109940000D03*
X119158000Y-109940000D03*
X123158000Y-109940000D03*
D25*
X130008000Y-100965000D03*
X130008000Y-98965000D03*
X130008000Y-102965000D03*
D26*
X127157988Y-94965012D03*
X115158012Y-106964988D03*
D27*
X130048000Y-122986800D03*
X130048000Y-119583200D03*
D28*
X126238000Y-75565000D03*
X177038000Y-90805000D03*
X177038000Y-118745000D03*
X124968000Y-123825000D03*
D29*
X166878000Y-112435000D03*
D30*
X166878000Y-117435000D03*
X166878000Y-115935000D03*
D29*
X166878000Y-102275000D03*
D30*
X166878000Y-107275000D03*
X166878000Y-105775000D03*
M02*
