G04 #@! TF.FileFunction,Legend,Bot*
%FSLAX46Y46*%
G04 Gerber Fmt 4.6, Leading zero omitted, Abs format (unit mm)*
G04 Created by KiCad (PCBNEW 4.0.7-e1-6374~58~ubuntu16.04.1) date Sat Aug 26 20:00:43 2017*
%MOMM*%
%LPD*%
G01*
G04 APERTURE LIST*
%ADD10C,0.100000*%
%ADD11C,0.200000*%
%ADD12C,0.250000*%
%ADD13C,0.010000*%
%ADD14C,0.120000*%
%ADD15C,0.150000*%
%ADD16O,1.727200X2.032000*%
%ADD17R,1.700000X1.700000*%
%ADD18O,1.700000X1.700000*%
%ADD19R,2.000000X3.500000*%
%ADD20R,7.000000X7.000000*%
%ADD21R,0.600000X0.152400*%
%ADD22R,1.500000X1.300000*%
%ADD23R,1.524000X1.524000*%
%ADD24O,1.500000X3.000000*%
%ADD25O,3.000000X1.500000*%
%ADD26C,1.599946*%
%ADD27C,1.600000*%
%ADD28C,3.175000*%
%ADD29C,2.400000*%
%ADD30R,2.400000X2.400000*%
G04 APERTURE END LIST*
D10*
D11*
X134421333Y-109307381D02*
X133849904Y-109307381D01*
X134135619Y-110307381D02*
X134135619Y-109307381D01*
X133135618Y-110259762D02*
X133230856Y-110307381D01*
X133421333Y-110307381D01*
X133516571Y-110259762D01*
X133564190Y-110164524D01*
X133564190Y-109783571D01*
X133516571Y-109688333D01*
X133421333Y-109640714D01*
X133230856Y-109640714D01*
X133135618Y-109688333D01*
X133087999Y-109783571D01*
X133087999Y-109878810D01*
X133564190Y-109974048D01*
X132659428Y-110307381D02*
X132659428Y-109640714D01*
X132659428Y-109735952D02*
X132611809Y-109688333D01*
X132516571Y-109640714D01*
X132373713Y-109640714D01*
X132278475Y-109688333D01*
X132230856Y-109783571D01*
X132230856Y-110307381D01*
X132230856Y-109783571D02*
X132183237Y-109688333D01*
X132087999Y-109640714D01*
X131945142Y-109640714D01*
X131849904Y-109688333D01*
X131802285Y-109783571D01*
X131802285Y-110307381D01*
X131326095Y-109640714D02*
X131326095Y-110640714D01*
X131326095Y-109688333D02*
X131230857Y-109640714D01*
X131040380Y-109640714D01*
X130945142Y-109688333D01*
X130897523Y-109735952D01*
X130849904Y-109831190D01*
X130849904Y-110116905D01*
X130897523Y-110212143D01*
X130945142Y-110259762D01*
X131040380Y-110307381D01*
X131230857Y-110307381D01*
X131326095Y-110259762D01*
X133707047Y-112212381D02*
X134183238Y-112212381D01*
X134183238Y-111212381D01*
X133373714Y-112212381D02*
X133373714Y-111545714D01*
X133373714Y-111212381D02*
X133421333Y-111260000D01*
X133373714Y-111307619D01*
X133326095Y-111260000D01*
X133373714Y-111212381D01*
X133373714Y-111307619D01*
X132468952Y-111545714D02*
X132468952Y-112355238D01*
X132516571Y-112450476D01*
X132564190Y-112498095D01*
X132659429Y-112545714D01*
X132802286Y-112545714D01*
X132897524Y-112498095D01*
X132468952Y-112164762D02*
X132564190Y-112212381D01*
X132754667Y-112212381D01*
X132849905Y-112164762D01*
X132897524Y-112117143D01*
X132945143Y-112021905D01*
X132945143Y-111736190D01*
X132897524Y-111640952D01*
X132849905Y-111593333D01*
X132754667Y-111545714D01*
X132564190Y-111545714D01*
X132468952Y-111593333D01*
X131992762Y-112212381D02*
X131992762Y-111212381D01*
X131564190Y-112212381D02*
X131564190Y-111688571D01*
X131611809Y-111593333D01*
X131707047Y-111545714D01*
X131849905Y-111545714D01*
X131945143Y-111593333D01*
X131992762Y-111640952D01*
X131230857Y-111545714D02*
X130849905Y-111545714D01*
X131088000Y-111212381D02*
X131088000Y-112069524D01*
X131040381Y-112164762D01*
X130945143Y-112212381D01*
X130849905Y-112212381D01*
X133858000Y-113641190D02*
X133858000Y-114117381D01*
X134191333Y-113117381D02*
X133858000Y-113641190D01*
X133524666Y-113117381D01*
X134191333Y-115022381D02*
X133524666Y-116022381D01*
X133524666Y-115022381D02*
X134191333Y-116022381D01*
X142192286Y-115736667D02*
X141716095Y-115736667D01*
X142287524Y-116022381D02*
X141954191Y-115022381D01*
X141620857Y-116022381D01*
X141097048Y-115022381D02*
X141001809Y-115022381D01*
X140906571Y-115070000D01*
X140858952Y-115117619D01*
X140811333Y-115212857D01*
X140763714Y-115403333D01*
X140763714Y-115641429D01*
X140811333Y-115831905D01*
X140858952Y-115927143D01*
X140906571Y-115974762D01*
X141001809Y-116022381D01*
X141097048Y-116022381D01*
X141192286Y-115974762D01*
X141239905Y-115927143D01*
X141287524Y-115831905D01*
X141335143Y-115641429D01*
X141335143Y-115403333D01*
X141287524Y-115212857D01*
X141239905Y-115117619D01*
X141192286Y-115070000D01*
X141097048Y-115022381D01*
X142192286Y-113831667D02*
X141716095Y-113831667D01*
X142287524Y-114117381D02*
X141954191Y-113117381D01*
X141620857Y-114117381D01*
X140763714Y-114117381D02*
X141335143Y-114117381D01*
X141049429Y-114117381D02*
X141049429Y-113117381D01*
X141144667Y-113260238D01*
X141239905Y-113355476D01*
X141335143Y-113403095D01*
X142192286Y-111926667D02*
X141716095Y-111926667D01*
X142287524Y-112212381D02*
X141954191Y-111212381D01*
X141620857Y-112212381D01*
X141335143Y-111307619D02*
X141287524Y-111260000D01*
X141192286Y-111212381D01*
X140954190Y-111212381D01*
X140858952Y-111260000D01*
X140811333Y-111307619D01*
X140763714Y-111402857D01*
X140763714Y-111498095D01*
X140811333Y-111640952D01*
X141382762Y-112212381D01*
X140763714Y-112212381D01*
X142192286Y-110021667D02*
X141716095Y-110021667D01*
X142287524Y-110307381D02*
X141954191Y-109307381D01*
X141620857Y-110307381D01*
X141382762Y-109307381D02*
X140763714Y-109307381D01*
X141097048Y-109688333D01*
X140954190Y-109688333D01*
X140858952Y-109735952D01*
X140811333Y-109783571D01*
X140763714Y-109878810D01*
X140763714Y-110116905D01*
X140811333Y-110212143D01*
X140858952Y-110259762D01*
X140954190Y-110307381D01*
X141239905Y-110307381D01*
X141335143Y-110259762D01*
X141382762Y-110212143D01*
D12*
X123046571Y-116292381D02*
X122808476Y-117292381D01*
X122617999Y-116578095D01*
X122427523Y-117292381D01*
X122189428Y-116292381D01*
X121903714Y-116625714D02*
X121665619Y-117292381D01*
X121427523Y-116625714D02*
X121665619Y-117292381D01*
X121760857Y-117530476D01*
X121808476Y-117578095D01*
X121903714Y-117625714D01*
X120903714Y-117292381D02*
X120998952Y-117244762D01*
X121046571Y-117197143D01*
X121094190Y-117101905D01*
X121094190Y-116816190D01*
X121046571Y-116720952D01*
X120998952Y-116673333D01*
X120903714Y-116625714D01*
X120760856Y-116625714D01*
X120665618Y-116673333D01*
X120617999Y-116720952D01*
X120570380Y-116816190D01*
X120570380Y-117101905D01*
X120617999Y-117197143D01*
X120665618Y-117244762D01*
X120760856Y-117292381D01*
X120903714Y-117292381D01*
X119998952Y-117292381D02*
X120094190Y-117244762D01*
X120141809Y-117149524D01*
X120141809Y-116292381D01*
X119189427Y-116625714D02*
X119189427Y-117292381D01*
X119617999Y-116625714D02*
X119617999Y-117149524D01*
X119570380Y-117244762D01*
X119475142Y-117292381D01*
X119332284Y-117292381D01*
X119237046Y-117244762D01*
X119189427Y-117197143D01*
X118713237Y-117292381D02*
X118713237Y-116625714D01*
X118713237Y-116720952D02*
X118665618Y-116673333D01*
X118570380Y-116625714D01*
X118427522Y-116625714D01*
X118332284Y-116673333D01*
X118284665Y-116768571D01*
X118284665Y-117292381D01*
X118284665Y-116768571D02*
X118237046Y-116673333D01*
X118141808Y-116625714D01*
X117998951Y-116625714D01*
X117903713Y-116673333D01*
X117856094Y-116768571D01*
X117856094Y-117292381D01*
X117379904Y-117197143D02*
X117332285Y-117244762D01*
X117379904Y-117292381D01*
X117427523Y-117244762D01*
X117379904Y-117197143D01*
X117379904Y-117292381D01*
X116475142Y-117244762D02*
X116570380Y-117292381D01*
X116760857Y-117292381D01*
X116856095Y-117244762D01*
X116903714Y-117197143D01*
X116951333Y-117101905D01*
X116951333Y-116816190D01*
X116903714Y-116720952D01*
X116856095Y-116673333D01*
X116760857Y-116625714D01*
X116570380Y-116625714D01*
X116475142Y-116673333D01*
X115903714Y-117292381D02*
X115998952Y-117244762D01*
X116046571Y-117197143D01*
X116094190Y-117101905D01*
X116094190Y-116816190D01*
X116046571Y-116720952D01*
X115998952Y-116673333D01*
X115903714Y-116625714D01*
X115760856Y-116625714D01*
X115665618Y-116673333D01*
X115617999Y-116720952D01*
X115570380Y-116816190D01*
X115570380Y-117101905D01*
X115617999Y-117197143D01*
X115665618Y-117244762D01*
X115760856Y-117292381D01*
X115903714Y-117292381D01*
X115141809Y-117292381D02*
X115141809Y-116625714D01*
X115141809Y-116720952D02*
X115094190Y-116673333D01*
X114998952Y-116625714D01*
X114856094Y-116625714D01*
X114760856Y-116673333D01*
X114713237Y-116768571D01*
X114713237Y-117292381D01*
X114713237Y-116768571D02*
X114665618Y-116673333D01*
X114570380Y-116625714D01*
X114427523Y-116625714D01*
X114332285Y-116673333D01*
X114284666Y-116768571D01*
X114284666Y-117292381D01*
D13*
G36*
X128353038Y-116046685D02*
X128250462Y-116060389D01*
X128192692Y-116066512D01*
X128103035Y-116072992D01*
X127988672Y-116079451D01*
X127856787Y-116085515D01*
X127714562Y-116090808D01*
X127609349Y-116093942D01*
X127105005Y-116107308D01*
X126993887Y-116218117D01*
X126926751Y-116284279D01*
X126845618Y-116363091D01*
X126765001Y-116440481D01*
X126741999Y-116462348D01*
X126601228Y-116595769D01*
X126587818Y-116914136D01*
X126583015Y-117032552D01*
X126580598Y-117119902D01*
X126581291Y-117184160D01*
X126585820Y-117233303D01*
X126594911Y-117275305D01*
X126609287Y-117318140D01*
X126629118Y-117368405D01*
X126652888Y-117427051D01*
X126673661Y-117467043D01*
X126698790Y-117491028D01*
X126735626Y-117501650D01*
X126791521Y-117501555D01*
X126873828Y-117493389D01*
X126951154Y-117484280D01*
X127035012Y-117472378D01*
X127118320Y-117457271D01*
X127166077Y-117446455D01*
X127239741Y-117427272D01*
X127312697Y-117408319D01*
X127327898Y-117404378D01*
X127387660Y-117377217D01*
X127463953Y-117324533D01*
X127532650Y-117266647D01*
X127537934Y-117262158D01*
X127334757Y-117262158D01*
X127333989Y-117264755D01*
X127306376Y-117277385D01*
X127249785Y-117294064D01*
X127173835Y-117312728D01*
X127088145Y-117331316D01*
X127002334Y-117347764D01*
X126926020Y-117360009D01*
X126868822Y-117365989D01*
X126860717Y-117366250D01*
X126800819Y-117365229D01*
X126767166Y-117355988D01*
X126746977Y-117332242D01*
X126734182Y-117304039D01*
X126709540Y-117224062D01*
X126709544Y-117152445D01*
X126736379Y-117079445D01*
X126792227Y-116995317D01*
X126807825Y-116975351D01*
X126862420Y-116910067D01*
X126903399Y-116870885D01*
X126938822Y-116851391D01*
X126970975Y-116845483D01*
X127033430Y-116848455D01*
X127077362Y-116864046D01*
X127095259Y-116888167D01*
X127087503Y-116908891D01*
X127073988Y-116943700D01*
X127095203Y-116967766D01*
X127147336Y-116976769D01*
X127147446Y-116976769D01*
X127178105Y-116980276D01*
X127202991Y-116995595D01*
X127228696Y-117029926D01*
X127261817Y-117090470D01*
X127274547Y-117115541D01*
X127305969Y-117181569D01*
X127327233Y-117233440D01*
X127334757Y-117262158D01*
X127537934Y-117262158D01*
X127613538Y-117197937D01*
X127709605Y-117123049D01*
X127802625Y-117056077D01*
X127820214Y-117044240D01*
X127924029Y-116968363D01*
X128034895Y-116872846D01*
X128109292Y-116800267D01*
X127913176Y-116800267D01*
X127899420Y-116819715D01*
X127896150Y-116823356D01*
X127866942Y-116849443D01*
X127813759Y-116891466D01*
X127744762Y-116943130D01*
X127684343Y-116986693D01*
X127605294Y-117044431D01*
X127532534Y-117100613D01*
X127475585Y-117147723D01*
X127449539Y-117171993D01*
X127409493Y-117208818D01*
X127377986Y-117229282D01*
X127371769Y-117230769D01*
X127353193Y-117214480D01*
X127324386Y-117171590D01*
X127291303Y-117111063D01*
X127288468Y-117105360D01*
X127256854Y-117038217D01*
X127242337Y-116996539D01*
X127242969Y-116971668D01*
X127254967Y-116956429D01*
X127279244Y-116923346D01*
X127279871Y-116920712D01*
X127222366Y-116920712D01*
X127207562Y-116936550D01*
X127204606Y-116938444D01*
X127165165Y-116955830D01*
X127141007Y-116944031D01*
X127137604Y-116939042D01*
X127138454Y-116915783D01*
X127164579Y-116903314D01*
X127200657Y-116907704D01*
X127222366Y-116920712D01*
X127279871Y-116920712D01*
X127283308Y-116906274D01*
X127300214Y-116882403D01*
X127344056Y-116851742D01*
X127404521Y-116819308D01*
X127471297Y-116790121D01*
X127534069Y-116769198D01*
X127580712Y-116761547D01*
X127633464Y-116756492D01*
X127670809Y-116744743D01*
X127670974Y-116744639D01*
X127704838Y-116739867D01*
X127764573Y-116746728D01*
X127813322Y-116757287D01*
X127876342Y-116774012D01*
X127907555Y-116786686D01*
X127913176Y-116800267D01*
X128109292Y-116800267D01*
X128156876Y-116753846D01*
X128294035Y-116607518D01*
X128361961Y-116531536D01*
X128443759Y-116426028D01*
X128469577Y-116377858D01*
X128310796Y-116377858D01*
X128308990Y-116391723D01*
X128305624Y-116398173D01*
X128279994Y-116432760D01*
X128234924Y-116483300D01*
X128177068Y-116543363D01*
X128113078Y-116606519D01*
X128049609Y-116666337D01*
X127993314Y-116716388D01*
X127950847Y-116750240D01*
X127929635Y-116761550D01*
X127892132Y-116755909D01*
X127836553Y-116742215D01*
X127819072Y-116737127D01*
X127760993Y-116714473D01*
X127741644Y-116703231D01*
X127654538Y-116703231D01*
X127637818Y-116717918D01*
X127605692Y-116722769D01*
X127568974Y-116716081D01*
X127556846Y-116703231D01*
X127573567Y-116688543D01*
X127605692Y-116683692D01*
X127642411Y-116690381D01*
X127654538Y-116703231D01*
X127741644Y-116703231D01*
X127715699Y-116688158D01*
X127708172Y-116681650D01*
X127694965Y-116663755D01*
X127696325Y-116643833D01*
X127716266Y-116614794D01*
X127758805Y-116569554D01*
X127788436Y-116539996D01*
X127862886Y-116472756D01*
X127919071Y-116436954D01*
X127949159Y-116429692D01*
X127994282Y-116422694D01*
X128017403Y-116410705D01*
X128045078Y-116399730D01*
X128100375Y-116388458D01*
X128171921Y-116379150D01*
X128180299Y-116378342D01*
X128236895Y-116373635D01*
X127984366Y-116373635D01*
X127969562Y-116389473D01*
X127966606Y-116391367D01*
X127925820Y-116408000D01*
X127896049Y-116405003D01*
X127889000Y-116391769D01*
X127904870Y-116364176D01*
X127942016Y-116355868D01*
X127962657Y-116360628D01*
X127984366Y-116373635D01*
X128236895Y-116373635D01*
X128253380Y-116372264D01*
X128294570Y-116371737D01*
X128310796Y-116377858D01*
X128469577Y-116377858D01*
X128502284Y-116316838D01*
X128523108Y-116264321D01*
X128550293Y-116181124D01*
X128408945Y-116181124D01*
X128408508Y-116204291D01*
X128393251Y-116248275D01*
X128384488Y-116267385D01*
X128364309Y-116305679D01*
X128343299Y-116328780D01*
X128311028Y-116341757D01*
X128257068Y-116349677D01*
X128205107Y-116354542D01*
X128107778Y-116359200D01*
X128041681Y-116352372D01*
X128014138Y-116342452D01*
X127950603Y-116327079D01*
X127903184Y-116330636D01*
X127858609Y-116345799D01*
X127841744Y-116373335D01*
X127840154Y-116395594D01*
X127826277Y-116436941D01*
X127790523Y-116491031D01*
X127741706Y-116548326D01*
X127688642Y-116599287D01*
X127640144Y-116634376D01*
X127610027Y-116644616D01*
X127560598Y-116653877D01*
X127521096Y-116676312D01*
X127503886Y-116703896D01*
X127505168Y-116712666D01*
X127494834Y-116735464D01*
X127456653Y-116766097D01*
X127399795Y-116799878D01*
X127333430Y-116832124D01*
X127266729Y-116858150D01*
X127208861Y-116873270D01*
X127186871Y-116875278D01*
X127133182Y-116870005D01*
X127095118Y-116856997D01*
X127092808Y-116855301D01*
X127072100Y-116820112D01*
X127068385Y-116796702D01*
X127068242Y-116796390D01*
X127001678Y-116796390D01*
X126999166Y-116802273D01*
X126970317Y-116819114D01*
X126935132Y-116813942D01*
X126923112Y-116802971D01*
X126927788Y-116783877D01*
X126954245Y-116770305D01*
X126985239Y-116769748D01*
X126992313Y-116772902D01*
X127001678Y-116796390D01*
X127068242Y-116796390D01*
X127051563Y-116760183D01*
X127029308Y-116747969D01*
X127002855Y-116727333D01*
X126992205Y-116698388D01*
X126971622Y-116698388D01*
X126955246Y-116732312D01*
X126926731Y-116745834D01*
X126891442Y-116763231D01*
X126876399Y-116808048D01*
X126876239Y-116809412D01*
X126860275Y-116856511D01*
X126826275Y-116915985D01*
X126798085Y-116954301D01*
X126726462Y-117041855D01*
X126720659Y-116898794D01*
X126719073Y-116825176D01*
X126720334Y-116765439D01*
X126724162Y-116731642D01*
X126724592Y-116730365D01*
X126751202Y-116701396D01*
X126801097Y-116671107D01*
X126859345Y-116646325D01*
X126911012Y-116633879D01*
X126932727Y-116635199D01*
X126964404Y-116660679D01*
X126971622Y-116698388D01*
X126992205Y-116698388D01*
X126990175Y-116692871D01*
X126993297Y-116660130D01*
X127014255Y-116644657D01*
X127015804Y-116644616D01*
X127050973Y-116633801D01*
X127078567Y-116617422D01*
X127103473Y-116592325D01*
X127101663Y-116586000D01*
X127039077Y-116586000D01*
X127011519Y-116602414D01*
X126989078Y-116605539D01*
X126957960Y-116597134D01*
X126951154Y-116586000D01*
X126967909Y-116571437D01*
X127001153Y-116566462D01*
X127034396Y-116572664D01*
X127039077Y-116586000D01*
X127101663Y-116586000D01*
X127096302Y-116567267D01*
X127089678Y-116558807D01*
X127044421Y-116531663D01*
X126985723Y-116530666D01*
X126928095Y-116554659D01*
X126906259Y-116573429D01*
X126863141Y-116611063D01*
X126811435Y-116644895D01*
X126762478Y-116668827D01*
X126727604Y-116676760D01*
X126719779Y-116673753D01*
X126728855Y-116656778D01*
X126762242Y-116618220D01*
X126815410Y-116562864D01*
X126883828Y-116495493D01*
X126931121Y-116450537D01*
X127155283Y-116240141D01*
X127536796Y-116227415D01*
X127676132Y-116221938D01*
X127821802Y-116214783D01*
X127961741Y-116206638D01*
X128083887Y-116198192D01*
X128157688Y-116191968D01*
X128250360Y-116184171D01*
X128328344Y-116179493D01*
X128383731Y-116178276D01*
X128408614Y-116180860D01*
X128408945Y-116181124D01*
X128550293Y-116181124D01*
X128551796Y-116176526D01*
X128562192Y-116112722D01*
X128550905Y-116070372D01*
X128514544Y-116046940D01*
X128449719Y-116039889D01*
X128353038Y-116046685D01*
X128353038Y-116046685D01*
G37*
X128353038Y-116046685D02*
X128250462Y-116060389D01*
X128192692Y-116066512D01*
X128103035Y-116072992D01*
X127988672Y-116079451D01*
X127856787Y-116085515D01*
X127714562Y-116090808D01*
X127609349Y-116093942D01*
X127105005Y-116107308D01*
X126993887Y-116218117D01*
X126926751Y-116284279D01*
X126845618Y-116363091D01*
X126765001Y-116440481D01*
X126741999Y-116462348D01*
X126601228Y-116595769D01*
X126587818Y-116914136D01*
X126583015Y-117032552D01*
X126580598Y-117119902D01*
X126581291Y-117184160D01*
X126585820Y-117233303D01*
X126594911Y-117275305D01*
X126609287Y-117318140D01*
X126629118Y-117368405D01*
X126652888Y-117427051D01*
X126673661Y-117467043D01*
X126698790Y-117491028D01*
X126735626Y-117501650D01*
X126791521Y-117501555D01*
X126873828Y-117493389D01*
X126951154Y-117484280D01*
X127035012Y-117472378D01*
X127118320Y-117457271D01*
X127166077Y-117446455D01*
X127239741Y-117427272D01*
X127312697Y-117408319D01*
X127327898Y-117404378D01*
X127387660Y-117377217D01*
X127463953Y-117324533D01*
X127532650Y-117266647D01*
X127537934Y-117262158D01*
X127334757Y-117262158D01*
X127333989Y-117264755D01*
X127306376Y-117277385D01*
X127249785Y-117294064D01*
X127173835Y-117312728D01*
X127088145Y-117331316D01*
X127002334Y-117347764D01*
X126926020Y-117360009D01*
X126868822Y-117365989D01*
X126860717Y-117366250D01*
X126800819Y-117365229D01*
X126767166Y-117355988D01*
X126746977Y-117332242D01*
X126734182Y-117304039D01*
X126709540Y-117224062D01*
X126709544Y-117152445D01*
X126736379Y-117079445D01*
X126792227Y-116995317D01*
X126807825Y-116975351D01*
X126862420Y-116910067D01*
X126903399Y-116870885D01*
X126938822Y-116851391D01*
X126970975Y-116845483D01*
X127033430Y-116848455D01*
X127077362Y-116864046D01*
X127095259Y-116888167D01*
X127087503Y-116908891D01*
X127073988Y-116943700D01*
X127095203Y-116967766D01*
X127147336Y-116976769D01*
X127147446Y-116976769D01*
X127178105Y-116980276D01*
X127202991Y-116995595D01*
X127228696Y-117029926D01*
X127261817Y-117090470D01*
X127274547Y-117115541D01*
X127305969Y-117181569D01*
X127327233Y-117233440D01*
X127334757Y-117262158D01*
X127537934Y-117262158D01*
X127613538Y-117197937D01*
X127709605Y-117123049D01*
X127802625Y-117056077D01*
X127820214Y-117044240D01*
X127924029Y-116968363D01*
X128034895Y-116872846D01*
X128109292Y-116800267D01*
X127913176Y-116800267D01*
X127899420Y-116819715D01*
X127896150Y-116823356D01*
X127866942Y-116849443D01*
X127813759Y-116891466D01*
X127744762Y-116943130D01*
X127684343Y-116986693D01*
X127605294Y-117044431D01*
X127532534Y-117100613D01*
X127475585Y-117147723D01*
X127449539Y-117171993D01*
X127409493Y-117208818D01*
X127377986Y-117229282D01*
X127371769Y-117230769D01*
X127353193Y-117214480D01*
X127324386Y-117171590D01*
X127291303Y-117111063D01*
X127288468Y-117105360D01*
X127256854Y-117038217D01*
X127242337Y-116996539D01*
X127242969Y-116971668D01*
X127254967Y-116956429D01*
X127279244Y-116923346D01*
X127279871Y-116920712D01*
X127222366Y-116920712D01*
X127207562Y-116936550D01*
X127204606Y-116938444D01*
X127165165Y-116955830D01*
X127141007Y-116944031D01*
X127137604Y-116939042D01*
X127138454Y-116915783D01*
X127164579Y-116903314D01*
X127200657Y-116907704D01*
X127222366Y-116920712D01*
X127279871Y-116920712D01*
X127283308Y-116906274D01*
X127300214Y-116882403D01*
X127344056Y-116851742D01*
X127404521Y-116819308D01*
X127471297Y-116790121D01*
X127534069Y-116769198D01*
X127580712Y-116761547D01*
X127633464Y-116756492D01*
X127670809Y-116744743D01*
X127670974Y-116744639D01*
X127704838Y-116739867D01*
X127764573Y-116746728D01*
X127813322Y-116757287D01*
X127876342Y-116774012D01*
X127907555Y-116786686D01*
X127913176Y-116800267D01*
X128109292Y-116800267D01*
X128156876Y-116753846D01*
X128294035Y-116607518D01*
X128361961Y-116531536D01*
X128443759Y-116426028D01*
X128469577Y-116377858D01*
X128310796Y-116377858D01*
X128308990Y-116391723D01*
X128305624Y-116398173D01*
X128279994Y-116432760D01*
X128234924Y-116483300D01*
X128177068Y-116543363D01*
X128113078Y-116606519D01*
X128049609Y-116666337D01*
X127993314Y-116716388D01*
X127950847Y-116750240D01*
X127929635Y-116761550D01*
X127892132Y-116755909D01*
X127836553Y-116742215D01*
X127819072Y-116737127D01*
X127760993Y-116714473D01*
X127741644Y-116703231D01*
X127654538Y-116703231D01*
X127637818Y-116717918D01*
X127605692Y-116722769D01*
X127568974Y-116716081D01*
X127556846Y-116703231D01*
X127573567Y-116688543D01*
X127605692Y-116683692D01*
X127642411Y-116690381D01*
X127654538Y-116703231D01*
X127741644Y-116703231D01*
X127715699Y-116688158D01*
X127708172Y-116681650D01*
X127694965Y-116663755D01*
X127696325Y-116643833D01*
X127716266Y-116614794D01*
X127758805Y-116569554D01*
X127788436Y-116539996D01*
X127862886Y-116472756D01*
X127919071Y-116436954D01*
X127949159Y-116429692D01*
X127994282Y-116422694D01*
X128017403Y-116410705D01*
X128045078Y-116399730D01*
X128100375Y-116388458D01*
X128171921Y-116379150D01*
X128180299Y-116378342D01*
X128236895Y-116373635D01*
X127984366Y-116373635D01*
X127969562Y-116389473D01*
X127966606Y-116391367D01*
X127925820Y-116408000D01*
X127896049Y-116405003D01*
X127889000Y-116391769D01*
X127904870Y-116364176D01*
X127942016Y-116355868D01*
X127962657Y-116360628D01*
X127984366Y-116373635D01*
X128236895Y-116373635D01*
X128253380Y-116372264D01*
X128294570Y-116371737D01*
X128310796Y-116377858D01*
X128469577Y-116377858D01*
X128502284Y-116316838D01*
X128523108Y-116264321D01*
X128550293Y-116181124D01*
X128408945Y-116181124D01*
X128408508Y-116204291D01*
X128393251Y-116248275D01*
X128384488Y-116267385D01*
X128364309Y-116305679D01*
X128343299Y-116328780D01*
X128311028Y-116341757D01*
X128257068Y-116349677D01*
X128205107Y-116354542D01*
X128107778Y-116359200D01*
X128041681Y-116352372D01*
X128014138Y-116342452D01*
X127950603Y-116327079D01*
X127903184Y-116330636D01*
X127858609Y-116345799D01*
X127841744Y-116373335D01*
X127840154Y-116395594D01*
X127826277Y-116436941D01*
X127790523Y-116491031D01*
X127741706Y-116548326D01*
X127688642Y-116599287D01*
X127640144Y-116634376D01*
X127610027Y-116644616D01*
X127560598Y-116653877D01*
X127521096Y-116676312D01*
X127503886Y-116703896D01*
X127505168Y-116712666D01*
X127494834Y-116735464D01*
X127456653Y-116766097D01*
X127399795Y-116799878D01*
X127333430Y-116832124D01*
X127266729Y-116858150D01*
X127208861Y-116873270D01*
X127186871Y-116875278D01*
X127133182Y-116870005D01*
X127095118Y-116856997D01*
X127092808Y-116855301D01*
X127072100Y-116820112D01*
X127068385Y-116796702D01*
X127068242Y-116796390D01*
X127001678Y-116796390D01*
X126999166Y-116802273D01*
X126970317Y-116819114D01*
X126935132Y-116813942D01*
X126923112Y-116802971D01*
X126927788Y-116783877D01*
X126954245Y-116770305D01*
X126985239Y-116769748D01*
X126992313Y-116772902D01*
X127001678Y-116796390D01*
X127068242Y-116796390D01*
X127051563Y-116760183D01*
X127029308Y-116747969D01*
X127002855Y-116727333D01*
X126992205Y-116698388D01*
X126971622Y-116698388D01*
X126955246Y-116732312D01*
X126926731Y-116745834D01*
X126891442Y-116763231D01*
X126876399Y-116808048D01*
X126876239Y-116809412D01*
X126860275Y-116856511D01*
X126826275Y-116915985D01*
X126798085Y-116954301D01*
X126726462Y-117041855D01*
X126720659Y-116898794D01*
X126719073Y-116825176D01*
X126720334Y-116765439D01*
X126724162Y-116731642D01*
X126724592Y-116730365D01*
X126751202Y-116701396D01*
X126801097Y-116671107D01*
X126859345Y-116646325D01*
X126911012Y-116633879D01*
X126932727Y-116635199D01*
X126964404Y-116660679D01*
X126971622Y-116698388D01*
X126992205Y-116698388D01*
X126990175Y-116692871D01*
X126993297Y-116660130D01*
X127014255Y-116644657D01*
X127015804Y-116644616D01*
X127050973Y-116633801D01*
X127078567Y-116617422D01*
X127103473Y-116592325D01*
X127101663Y-116586000D01*
X127039077Y-116586000D01*
X127011519Y-116602414D01*
X126989078Y-116605539D01*
X126957960Y-116597134D01*
X126951154Y-116586000D01*
X126967909Y-116571437D01*
X127001153Y-116566462D01*
X127034396Y-116572664D01*
X127039077Y-116586000D01*
X127101663Y-116586000D01*
X127096302Y-116567267D01*
X127089678Y-116558807D01*
X127044421Y-116531663D01*
X126985723Y-116530666D01*
X126928095Y-116554659D01*
X126906259Y-116573429D01*
X126863141Y-116611063D01*
X126811435Y-116644895D01*
X126762478Y-116668827D01*
X126727604Y-116676760D01*
X126719779Y-116673753D01*
X126728855Y-116656778D01*
X126762242Y-116618220D01*
X126815410Y-116562864D01*
X126883828Y-116495493D01*
X126931121Y-116450537D01*
X127155283Y-116240141D01*
X127536796Y-116227415D01*
X127676132Y-116221938D01*
X127821802Y-116214783D01*
X127961741Y-116206638D01*
X128083887Y-116198192D01*
X128157688Y-116191968D01*
X128250360Y-116184171D01*
X128328344Y-116179493D01*
X128383731Y-116178276D01*
X128408614Y-116180860D01*
X128408945Y-116181124D01*
X128550293Y-116181124D01*
X128551796Y-116176526D01*
X128562192Y-116112722D01*
X128550905Y-116070372D01*
X128514544Y-116046940D01*
X128449719Y-116039889D01*
X128353038Y-116046685D01*
G36*
X125428517Y-112777996D02*
X125366157Y-112796680D01*
X125324909Y-112820256D01*
X125290846Y-112859491D01*
X125260142Y-112908164D01*
X125233862Y-112954547D01*
X125215772Y-112996273D01*
X125203816Y-113042955D01*
X125195935Y-113104208D01*
X125190073Y-113189647D01*
X125186980Y-113250087D01*
X125178175Y-113385967D01*
X125164607Y-113507653D01*
X125144206Y-113625041D01*
X125114905Y-113748025D01*
X125074634Y-113886500D01*
X125021326Y-114050361D01*
X125017027Y-114063117D01*
X124966130Y-114225117D01*
X124933452Y-114358101D01*
X124918421Y-114467317D01*
X124920461Y-114558010D01*
X124938999Y-114635425D01*
X124951211Y-114664496D01*
X124976020Y-114707203D01*
X125011019Y-114747350D01*
X125061637Y-114789058D01*
X125133309Y-114836449D01*
X125231464Y-114893646D01*
X125310689Y-114937301D01*
X125419576Y-114997817D01*
X125525820Y-115059966D01*
X125635152Y-115127453D01*
X125753304Y-115203982D01*
X125886008Y-115293258D01*
X126038994Y-115398987D01*
X126199966Y-115512123D01*
X126327722Y-115601383D01*
X126429913Y-115670093D01*
X126511968Y-115721498D01*
X126579320Y-115758844D01*
X126637400Y-115785374D01*
X126686516Y-115802773D01*
X126752505Y-115822310D01*
X126801721Y-115835285D01*
X126824444Y-115839158D01*
X126824895Y-115838937D01*
X126823460Y-115818958D01*
X126816731Y-115766474D01*
X126805568Y-115687568D01*
X126801055Y-115657170D01*
X126676031Y-115657170D01*
X126670717Y-115661170D01*
X126653189Y-115638385D01*
X126637012Y-115611051D01*
X126605620Y-115553963D01*
X126561676Y-115472114D01*
X126507841Y-115370498D01*
X126446778Y-115254108D01*
X126382839Y-115131204D01*
X126317954Y-115004933D01*
X126258889Y-114888005D01*
X126208126Y-114785495D01*
X126168148Y-114702477D01*
X126141438Y-114644025D01*
X126130538Y-114615525D01*
X126117863Y-114590058D01*
X126067670Y-114590058D01*
X126061899Y-114609471D01*
X126041600Y-114609597D01*
X126007334Y-114590858D01*
X125998023Y-114576557D01*
X126003794Y-114557145D01*
X126024092Y-114557019D01*
X126058359Y-114575758D01*
X126067670Y-114590058D01*
X126117863Y-114590058D01*
X126107673Y-114569584D01*
X126081692Y-114546320D01*
X126050174Y-114526135D01*
X126029245Y-114501430D01*
X126013997Y-114462145D01*
X125999520Y-114398214D01*
X125993068Y-114364670D01*
X125981292Y-114289941D01*
X125980635Y-114243315D01*
X125991082Y-114215438D01*
X125992831Y-114213208D01*
X126003849Y-114186104D01*
X125996957Y-114174551D01*
X125952419Y-114174551D01*
X125944103Y-114181330D01*
X125921653Y-114182148D01*
X125882667Y-114175246D01*
X125867604Y-114164581D01*
X125864970Y-114141818D01*
X125886626Y-114135782D01*
X125920569Y-114148704D01*
X125927391Y-114153466D01*
X125952419Y-114174551D01*
X125996957Y-114174551D01*
X125985415Y-114155206D01*
X125977131Y-114146593D01*
X125959342Y-114117303D01*
X125478816Y-114117303D01*
X125458564Y-114123993D01*
X125449085Y-114124154D01*
X125415396Y-114112487D01*
X125407615Y-114094846D01*
X125416894Y-114068827D01*
X125424762Y-114065539D01*
X125450225Y-114078906D01*
X125466231Y-114094846D01*
X125478816Y-114117303D01*
X125959342Y-114117303D01*
X125952545Y-114106112D01*
X125931909Y-114044761D01*
X125917517Y-113975290D01*
X125911664Y-113910447D01*
X125916643Y-113862983D01*
X125923747Y-113849917D01*
X125929278Y-113826222D01*
X125927730Y-113824226D01*
X125869585Y-113824226D01*
X125849333Y-113830916D01*
X125839854Y-113831077D01*
X125806165Y-113819410D01*
X125798385Y-113801769D01*
X125807663Y-113775750D01*
X125815531Y-113772462D01*
X125840994Y-113785829D01*
X125857000Y-113801769D01*
X125869585Y-113824226D01*
X125927730Y-113824226D01*
X125903253Y-113792679D01*
X125891451Y-113782031D01*
X125858131Y-113740107D01*
X125819667Y-113672567D01*
X125781370Y-113591450D01*
X125748550Y-113508793D01*
X125726520Y-113436633D01*
X125720231Y-113393981D01*
X125702468Y-113339597D01*
X125637823Y-113339597D01*
X125632053Y-113359009D01*
X125611754Y-113359135D01*
X125577488Y-113340396D01*
X125568177Y-113326096D01*
X125573948Y-113306683D01*
X125594246Y-113306557D01*
X125628512Y-113325296D01*
X125637823Y-113339597D01*
X125702468Y-113339597D01*
X125702053Y-113338328D01*
X125651961Y-113295016D01*
X125587365Y-113272081D01*
X125539881Y-113268415D01*
X125516408Y-113284672D01*
X125513192Y-113291636D01*
X125514929Y-113335145D01*
X125552951Y-113373574D01*
X125622281Y-113403462D01*
X125659366Y-113416985D01*
X125686169Y-113436647D01*
X125709086Y-113470960D01*
X125734510Y-113528433D01*
X125754170Y-113578993D01*
X125812799Y-113732575D01*
X125747970Y-113744737D01*
X125695626Y-113746533D01*
X125690528Y-113745125D01*
X125560779Y-113745125D01*
X125548534Y-113752466D01*
X125530186Y-113752923D01*
X125491464Y-113745393D01*
X125476834Y-113734735D01*
X125474905Y-113711404D01*
X125496384Y-113702516D01*
X125527336Y-113711001D01*
X125540677Y-113721304D01*
X125560779Y-113745125D01*
X125690528Y-113745125D01*
X125635629Y-113729963D01*
X125574802Y-113702042D01*
X125510824Y-113672165D01*
X125471159Y-113661221D01*
X125447132Y-113667194D01*
X125442362Y-113671284D01*
X125430322Y-113703993D01*
X125447315Y-113738523D01*
X125484214Y-113768273D01*
X125531894Y-113786641D01*
X125581228Y-113787027D01*
X125595829Y-113782294D01*
X125651945Y-113770756D01*
X125707053Y-113778143D01*
X125744279Y-113801858D01*
X125746649Y-113805511D01*
X125775028Y-113832294D01*
X125822587Y-113859387D01*
X125829688Y-113862478D01*
X125875276Y-113887439D01*
X125893680Y-113919895D01*
X125896344Y-113953455D01*
X125899859Y-114011544D01*
X125907297Y-114056467D01*
X125909636Y-114078642D01*
X125898628Y-114093569D01*
X125868402Y-114102624D01*
X125813089Y-114107182D01*
X125726816Y-114108622D01*
X125684765Y-114108637D01*
X125592612Y-114104701D01*
X125533646Y-114092716D01*
X125508919Y-114078706D01*
X125458482Y-114046142D01*
X125407716Y-114032982D01*
X125368619Y-114040947D01*
X125355693Y-114056740D01*
X125358406Y-114095195D01*
X125388625Y-114129269D01*
X125434798Y-114153445D01*
X125485370Y-114162210D01*
X125528788Y-114150047D01*
X125536984Y-114143277D01*
X125567306Y-114134723D01*
X125623029Y-114134998D01*
X125691933Y-114142364D01*
X125761798Y-114155083D01*
X125820403Y-114171418D01*
X125854152Y-114188384D01*
X125895738Y-114216644D01*
X125917990Y-114227069D01*
X125942392Y-114255495D01*
X125964480Y-114322522D01*
X125974118Y-114367786D01*
X125986295Y-114437673D01*
X125989369Y-114479833D01*
X125982531Y-114504725D01*
X125964975Y-114522808D01*
X125961974Y-114525120D01*
X125924930Y-114544062D01*
X125903756Y-114545366D01*
X125875674Y-114540590D01*
X125818655Y-114534133D01*
X125742742Y-114527071D01*
X125702855Y-114523808D01*
X125597661Y-114512508D01*
X125585108Y-114509824D01*
X125442922Y-114509824D01*
X125426643Y-114514153D01*
X125408211Y-114511915D01*
X125369134Y-114497540D01*
X125353787Y-114480731D01*
X125358356Y-114460163D01*
X125383205Y-114458394D01*
X125415042Y-114474225D01*
X125428711Y-114487492D01*
X125442922Y-114509824D01*
X125585108Y-114509824D01*
X125525696Y-114497121D01*
X125481212Y-114476383D01*
X125478711Y-114474488D01*
X125425611Y-114442737D01*
X125381832Y-114426139D01*
X125335111Y-114426235D01*
X125313391Y-114449297D01*
X125320050Y-114485744D01*
X125349121Y-114518950D01*
X125386729Y-114541432D01*
X125433044Y-114548515D01*
X125494033Y-114544012D01*
X125570115Y-114539990D01*
X125660838Y-114542846D01*
X125756056Y-114551328D01*
X125845621Y-114564182D01*
X125919386Y-114580154D01*
X125967205Y-114597992D01*
X125974849Y-114603406D01*
X126020514Y-114632455D01*
X126061905Y-114648530D01*
X126079992Y-114656950D01*
X126100260Y-114675222D01*
X126125036Y-114707123D01*
X126156650Y-114756431D01*
X126197429Y-114826924D01*
X126249703Y-114922379D01*
X126315800Y-115046574D01*
X126365281Y-115140690D01*
X126430332Y-115265659D01*
X126488485Y-115379054D01*
X126537502Y-115476376D01*
X126575149Y-115553127D01*
X126599189Y-115604811D01*
X126607386Y-115626929D01*
X126607243Y-115627347D01*
X126588797Y-115620382D01*
X126545568Y-115594842D01*
X126484466Y-115555011D01*
X126428082Y-115516244D01*
X126240028Y-115385600D01*
X126055024Y-115259673D01*
X125878058Y-115141722D01*
X125714117Y-115035007D01*
X125568188Y-114942788D01*
X125445261Y-114868324D01*
X125376855Y-114829219D01*
X125287972Y-114777940D01*
X125206631Y-114726963D01*
X125141921Y-114682240D01*
X125103317Y-114650126D01*
X125066706Y-114598326D01*
X125047274Y-114534152D01*
X125045310Y-114453092D01*
X125061105Y-114350635D01*
X125094948Y-114222268D01*
X125139618Y-114085077D01*
X125193953Y-113921099D01*
X125234709Y-113779751D01*
X125264607Y-113648150D01*
X125286370Y-113513410D01*
X125302718Y-113362648D01*
X125309409Y-113281224D01*
X125318267Y-113173702D01*
X125326864Y-113097187D01*
X125336932Y-113043659D01*
X125350205Y-113005099D01*
X125368414Y-112973487D01*
X125379040Y-112958918D01*
X125423870Y-112914763D01*
X125473612Y-112895689D01*
X125529881Y-112903005D01*
X125594294Y-112938021D01*
X125668464Y-113002046D01*
X125754007Y-113096389D01*
X125852538Y-113222359D01*
X125965672Y-113381265D01*
X126045202Y-113498923D01*
X126094570Y-113582199D01*
X126151598Y-113695585D01*
X126217304Y-113841274D01*
X126292708Y-114021458D01*
X126322286Y-114094846D01*
X126501867Y-114544231D01*
X126580298Y-115052231D01*
X126601899Y-115191637D01*
X126622085Y-115320961D01*
X126639932Y-115434357D01*
X126654515Y-115525978D01*
X126664911Y-115589980D01*
X126669869Y-115618846D01*
X126676031Y-115657170D01*
X126801055Y-115657170D01*
X126790832Y-115588326D01*
X126773386Y-115474830D01*
X126773019Y-115472478D01*
X126755536Y-115357713D01*
X126740893Y-115256064D01*
X126729941Y-115173892D01*
X126723525Y-115117562D01*
X126722495Y-115093438D01*
X126722497Y-115093431D01*
X126734639Y-115099292D01*
X126761490Y-115132406D01*
X126798748Y-115185887D01*
X126842112Y-115252845D01*
X126887279Y-115326394D01*
X126929950Y-115399645D01*
X126965823Y-115465711D01*
X126990595Y-115517705D01*
X126995714Y-115530923D01*
X127017197Y-115601977D01*
X127033220Y-115672021D01*
X127036058Y-115689673D01*
X127039789Y-115736446D01*
X127029462Y-115756264D01*
X126998675Y-115760494D01*
X126996153Y-115760500D01*
X126947856Y-115772142D01*
X126921042Y-115810268D01*
X126912387Y-115879678D01*
X126912376Y-115881417D01*
X126908678Y-115916333D01*
X126894274Y-115949202D01*
X126863684Y-115987549D01*
X126811428Y-116038898D01*
X126770423Y-116076350D01*
X126642918Y-116193718D01*
X126537186Y-116297345D01*
X126443990Y-116397260D01*
X126354090Y-116503494D01*
X126258245Y-116626079D01*
X126231670Y-116661258D01*
X126162287Y-116754349D01*
X126113438Y-116822764D01*
X126081735Y-116872726D01*
X126063792Y-116910459D01*
X126056222Y-116942186D01*
X126055639Y-116974131D01*
X126056243Y-116983642D01*
X126063269Y-117036106D01*
X126078966Y-117060900D01*
X126110597Y-117069408D01*
X126111000Y-117069447D01*
X126163720Y-117064934D01*
X126195219Y-117053162D01*
X126218675Y-117029470D01*
X126257801Y-116979547D01*
X126307511Y-116910271D01*
X126362722Y-116828519D01*
X126373469Y-116812058D01*
X126439922Y-116712580D01*
X126495945Y-116637267D01*
X126550255Y-116576222D01*
X126611571Y-116519548D01*
X126680020Y-116464046D01*
X126787417Y-116375486D01*
X126888062Y-116283932D01*
X126976357Y-116195158D01*
X127046702Y-116114941D01*
X127093499Y-116049055D01*
X127105655Y-116024959D01*
X127124456Y-115984682D01*
X127140287Y-115976067D01*
X127162677Y-115993655D01*
X127177499Y-116004482D01*
X127200534Y-116012059D01*
X127237224Y-116016616D01*
X127293012Y-116018388D01*
X127373343Y-116017606D01*
X127483657Y-116014501D01*
X127575785Y-116011285D01*
X127724464Y-116005144D01*
X127888331Y-115997159D01*
X128052425Y-115988135D01*
X128201788Y-115978877D01*
X128281167Y-115973318D01*
X128429776Y-115960912D01*
X128548070Y-115945866D01*
X128644258Y-115924270D01*
X128726549Y-115892215D01*
X128803153Y-115845793D01*
X128882277Y-115781096D01*
X128972131Y-115694214D01*
X129061308Y-115601857D01*
X129129740Y-115530793D01*
X129220761Y-115437429D01*
X129329220Y-115326988D01*
X129449966Y-115204691D01*
X129577846Y-115075760D01*
X129707710Y-114945416D01*
X129795741Y-114857423D01*
X129939156Y-114713626D01*
X130056210Y-114594589D01*
X130148877Y-114498163D01*
X130219133Y-114422198D01*
X130268950Y-114364545D01*
X130288717Y-114338386D01*
X130125804Y-114338386D01*
X129647287Y-114823334D01*
X129524531Y-114947943D01*
X129401214Y-115073493D01*
X129282405Y-115194799D01*
X129173169Y-115306675D01*
X129078573Y-115403936D01*
X129003685Y-115481397D01*
X128973385Y-115512998D01*
X128873707Y-115615364D01*
X128790419Y-115693133D01*
X128715151Y-115750158D01*
X128639530Y-115790294D01*
X128555187Y-115817393D01*
X128453749Y-115835308D01*
X128326846Y-115847894D01*
X128230923Y-115854762D01*
X128108379Y-115862224D01*
X127981884Y-115868658D01*
X127857194Y-115873912D01*
X127740070Y-115877835D01*
X127636268Y-115880273D01*
X127551547Y-115881076D01*
X127491665Y-115880089D01*
X127462381Y-115877163D01*
X127460782Y-115875113D01*
X127490745Y-115857561D01*
X127550043Y-115830335D01*
X127631015Y-115796347D01*
X127726001Y-115758511D01*
X127827341Y-115719739D01*
X127927376Y-115682944D01*
X128018445Y-115651037D01*
X128092888Y-115626933D01*
X128143045Y-115613543D01*
X128152769Y-115611991D01*
X128229889Y-115606768D01*
X128327363Y-115603916D01*
X128434412Y-115603330D01*
X128540253Y-115604905D01*
X128634106Y-115608533D01*
X128705189Y-115614109D01*
X128729154Y-115617659D01*
X128790444Y-115620570D01*
X128835971Y-115606198D01*
X128858255Y-115579413D01*
X128855941Y-115570000D01*
X128807308Y-115570000D01*
X128790587Y-115584688D01*
X128758462Y-115589539D01*
X128721743Y-115582850D01*
X128709615Y-115570000D01*
X128716098Y-115564305D01*
X128213205Y-115564305D01*
X128210550Y-115571350D01*
X128186338Y-115587177D01*
X128156953Y-115586947D01*
X128143000Y-115571153D01*
X128158445Y-115543912D01*
X128190347Y-115536447D01*
X128201934Y-115540889D01*
X128213205Y-115564305D01*
X128716098Y-115564305D01*
X128726336Y-115555313D01*
X128758462Y-115550462D01*
X128795180Y-115557150D01*
X128807308Y-115570000D01*
X128855941Y-115570000D01*
X128849814Y-115545086D01*
X128846733Y-115541113D01*
X128815468Y-115519209D01*
X128767499Y-115518351D01*
X128749779Y-115521352D01*
X128689780Y-115529939D01*
X128612857Y-115536845D01*
X128527801Y-115541818D01*
X128443407Y-115544607D01*
X128368468Y-115544963D01*
X128311778Y-115542634D01*
X128282130Y-115537368D01*
X128279769Y-115534762D01*
X128295266Y-115515746D01*
X128336362Y-115482839D01*
X128394966Y-115441241D01*
X128462986Y-115396152D01*
X128532331Y-115352771D01*
X128594910Y-115316299D01*
X128642631Y-115291935D01*
X128667403Y-115284878D01*
X128668122Y-115285199D01*
X128696853Y-115286447D01*
X128746883Y-115275689D01*
X128771818Y-115267789D01*
X128858736Y-115243778D01*
X128920732Y-115240188D01*
X128953762Y-115257249D01*
X128953846Y-115257385D01*
X128981465Y-115271492D01*
X129030434Y-115276620D01*
X129083882Y-115271930D01*
X129108556Y-115265064D01*
X129134111Y-115240388D01*
X129136622Y-115215321D01*
X129080846Y-115215321D01*
X129064810Y-115238935D01*
X129030710Y-115251308D01*
X129015881Y-115250383D01*
X129001493Y-115232436D01*
X128760735Y-115232436D01*
X128758547Y-115237708D01*
X128733813Y-115253314D01*
X128699189Y-115256569D01*
X128673828Y-115247192D01*
X128670538Y-115238999D01*
X128684789Y-115212680D01*
X128691013Y-115207960D01*
X128721951Y-115202155D01*
X128750679Y-115212731D01*
X128760735Y-115232436D01*
X129001493Y-115232436D01*
X129000625Y-115231354D01*
X129000453Y-115227589D01*
X129015502Y-115210437D01*
X129046367Y-115202000D01*
X129073862Y-115205205D01*
X129080846Y-115215321D01*
X129136622Y-115215321D01*
X129137523Y-115206333D01*
X129119440Y-115180442D01*
X129105269Y-115176192D01*
X129038332Y-115176171D01*
X128981865Y-115186345D01*
X128954823Y-115200096D01*
X128922041Y-115213988D01*
X128875193Y-115217721D01*
X128833653Y-115211170D01*
X128818442Y-115200977D01*
X128827562Y-115181727D01*
X128861851Y-115147816D01*
X128913269Y-115105179D01*
X128973775Y-115059750D01*
X129035330Y-115017464D01*
X129089892Y-114984254D01*
X129129422Y-114966055D01*
X129139109Y-114964308D01*
X129188759Y-114953946D01*
X129216788Y-114940752D01*
X129251055Y-114928179D01*
X129283777Y-114944100D01*
X129293895Y-114952842D01*
X129338755Y-114973930D01*
X129395513Y-114977251D01*
X129448658Y-114964499D01*
X129482682Y-114937366D01*
X129485259Y-114931950D01*
X129484967Y-114925231D01*
X129432538Y-114925231D01*
X129415818Y-114939918D01*
X129383692Y-114944769D01*
X129346974Y-114938081D01*
X129334846Y-114925231D01*
X129351567Y-114910543D01*
X129383692Y-114905692D01*
X129420411Y-114912381D01*
X129432538Y-114925231D01*
X129484967Y-114925231D01*
X129483987Y-114902705D01*
X129178538Y-114902705D01*
X129162502Y-114926320D01*
X129128403Y-114938693D01*
X129113573Y-114937768D01*
X129098318Y-114918739D01*
X129098145Y-114914973D01*
X129113194Y-114897822D01*
X129144059Y-114889385D01*
X129171554Y-114892589D01*
X129178538Y-114902705D01*
X129483987Y-114902705D01*
X129483762Y-114897546D01*
X129451461Y-114877678D01*
X129394221Y-114873374D01*
X129317905Y-114885662D01*
X129281115Y-114896165D01*
X129245589Y-114900017D01*
X129237154Y-114888678D01*
X129254017Y-114867582D01*
X129298119Y-114838407D01*
X129359726Y-114805731D01*
X129429107Y-114774132D01*
X129496530Y-114748186D01*
X129552261Y-114732471D01*
X129574855Y-114729846D01*
X129632121Y-114721768D01*
X129677182Y-114702653D01*
X129702089Y-114677556D01*
X129700279Y-114671231D01*
X129647462Y-114671231D01*
X129630741Y-114685918D01*
X129598615Y-114690769D01*
X129561897Y-114684081D01*
X129549769Y-114671231D01*
X129566490Y-114656543D01*
X129598615Y-114651692D01*
X129635334Y-114658381D01*
X129647462Y-114671231D01*
X129700279Y-114671231D01*
X129694918Y-114652498D01*
X129688293Y-114644037D01*
X129649047Y-114620136D01*
X129596528Y-114614773D01*
X129543945Y-114625489D01*
X129504504Y-114649826D01*
X129491154Y-114680731D01*
X129474803Y-114703655D01*
X129432215Y-114736421D01*
X129373092Y-114773525D01*
X129307133Y-114809458D01*
X129244037Y-114838713D01*
X129193504Y-114855785D01*
X129178963Y-114857970D01*
X129105930Y-114862670D01*
X129062754Y-114869012D01*
X129040224Y-114879440D01*
X129029127Y-114896399D01*
X129028540Y-114897895D01*
X129030389Y-114932323D01*
X129041305Y-114944483D01*
X129041089Y-114962773D01*
X129014034Y-114994814D01*
X128967446Y-115035359D01*
X128908634Y-115079160D01*
X128844907Y-115120971D01*
X128783573Y-115155544D01*
X128731939Y-115177632D01*
X128709615Y-115182628D01*
X128650968Y-115198832D01*
X128622700Y-115231205D01*
X128595068Y-115265536D01*
X128541490Y-115311508D01*
X128470960Y-115363267D01*
X128392472Y-115414957D01*
X128315021Y-115460723D01*
X128247600Y-115494708D01*
X128199203Y-115511057D01*
X128191846Y-115511707D01*
X128125960Y-115520947D01*
X128089378Y-115549896D01*
X128081947Y-115566562D01*
X128061415Y-115584589D01*
X128012627Y-115612634D01*
X127943664Y-115646349D01*
X127888518Y-115670655D01*
X127755564Y-115726473D01*
X127655576Y-115767570D01*
X127585771Y-115795002D01*
X127543365Y-115809827D01*
X127525574Y-115813102D01*
X127527538Y-115807776D01*
X127555982Y-115785256D01*
X127613108Y-115744288D01*
X127694767Y-115687615D01*
X127738006Y-115658108D01*
X127491851Y-115658108D01*
X127474068Y-115682617D01*
X127421083Y-115724074D01*
X127365015Y-115761882D01*
X127293742Y-115810632D01*
X127234209Y-115855868D01*
X127194865Y-115890947D01*
X127184886Y-115903517D01*
X127163116Y-115936768D01*
X127154993Y-115934788D01*
X127163381Y-115899908D01*
X127167287Y-115889203D01*
X127176869Y-115838246D01*
X127167070Y-115817178D01*
X127160193Y-115788509D01*
X127188520Y-115755297D01*
X127248823Y-115720064D01*
X127334119Y-115686577D01*
X127421864Y-115660058D01*
X127474446Y-115650578D01*
X127491851Y-115658108D01*
X127738006Y-115658108D01*
X127796809Y-115617981D01*
X127915084Y-115538129D01*
X128045443Y-115450803D01*
X128183737Y-115358745D01*
X128325815Y-115264699D01*
X128467528Y-115171409D01*
X128604726Y-115081618D01*
X128733261Y-114998069D01*
X128848981Y-114923506D01*
X128947739Y-114860672D01*
X129025383Y-114812310D01*
X129077765Y-114781164D01*
X129091970Y-114773505D01*
X129191771Y-114724917D01*
X129308654Y-114670210D01*
X129435773Y-114612370D01*
X129566283Y-114554381D01*
X129693337Y-114499226D01*
X129810091Y-114449891D01*
X129909697Y-114409358D01*
X129985311Y-114380613D01*
X130018518Y-114369615D01*
X130125804Y-114338386D01*
X130288717Y-114338386D01*
X130300304Y-114323053D01*
X130315168Y-114295574D01*
X130316610Y-114290281D01*
X130317537Y-114239450D01*
X130292443Y-114211980D01*
X130236118Y-114202733D01*
X130227703Y-114202607D01*
X130159664Y-114207668D01*
X130077336Y-114224357D01*
X129977180Y-114253911D01*
X129855661Y-114297570D01*
X129709241Y-114356572D01*
X129534383Y-114432156D01*
X129399840Y-114492563D01*
X129263883Y-114554472D01*
X129150990Y-114606707D01*
X129055024Y-114652780D01*
X128969851Y-114696202D01*
X128889332Y-114740487D01*
X128807332Y-114789147D01*
X128717715Y-114845692D01*
X128614343Y-114913637D01*
X128491081Y-114996492D01*
X128341792Y-115097770D01*
X128338385Y-115100085D01*
X128201098Y-115193445D01*
X128068775Y-115283588D01*
X127946262Y-115367200D01*
X127838402Y-115440971D01*
X127750041Y-115501586D01*
X127686024Y-115545735D01*
X127659746Y-115564044D01*
X127604286Y-115600484D01*
X127565180Y-115621204D01*
X127549044Y-115622870D01*
X127549490Y-115619603D01*
X127555661Y-115601095D01*
X127550926Y-115592455D01*
X127527609Y-115593144D01*
X127478030Y-115602623D01*
X127435693Y-115611622D01*
X127343881Y-115636244D01*
X127255358Y-115668706D01*
X127179826Y-115704629D01*
X127126990Y-115739635D01*
X127110145Y-115758501D01*
X127092841Y-115783166D01*
X127087012Y-115784923D01*
X127083916Y-115761229D01*
X127078540Y-115712772D01*
X127075866Y-115687231D01*
X127056326Y-115575785D01*
X127018847Y-115466131D01*
X126959495Y-115348954D01*
X126880006Y-115223269D01*
X126830172Y-115147176D01*
X126789869Y-115080707D01*
X126763631Y-115031665D01*
X126755769Y-115009359D01*
X126767796Y-114967074D01*
X126797301Y-114912507D01*
X126834417Y-114861296D01*
X126869281Y-114829077D01*
X126869634Y-114828876D01*
X126890500Y-114807655D01*
X126880507Y-114788393D01*
X126854887Y-114785925D01*
X126819688Y-114810541D01*
X126781501Y-114853748D01*
X126746914Y-114907054D01*
X126722518Y-114961968D01*
X126714746Y-115002017D01*
X126711254Y-115009094D01*
X126702925Y-114982257D01*
X126690838Y-114926218D01*
X126676072Y-114845690D01*
X126668105Y-114798231D01*
X126647195Y-114671838D01*
X126630277Y-114576093D01*
X126615301Y-114503039D01*
X126600219Y-114444717D01*
X126582982Y-114393169D01*
X126561541Y-114340436D01*
X126534931Y-114280936D01*
X126507095Y-114216796D01*
X126469672Y-114126281D01*
X126426796Y-114019603D01*
X126382602Y-113906976D01*
X126364491Y-113859960D01*
X126324562Y-113757350D01*
X126289710Y-113673868D01*
X126255365Y-113601302D01*
X126216960Y-113531437D01*
X126169923Y-113456061D01*
X126109686Y-113366960D01*
X126031680Y-113255921D01*
X126016648Y-113234729D01*
X125934923Y-113120444D01*
X125870672Y-113033277D01*
X125819356Y-112968061D01*
X125776435Y-112919630D01*
X125737367Y-112882817D01*
X125697614Y-112852453D01*
X125658260Y-112826842D01*
X125535355Y-112750685D01*
X125428517Y-112777996D01*
X125428517Y-112777996D01*
G37*
X125428517Y-112777996D02*
X125366157Y-112796680D01*
X125324909Y-112820256D01*
X125290846Y-112859491D01*
X125260142Y-112908164D01*
X125233862Y-112954547D01*
X125215772Y-112996273D01*
X125203816Y-113042955D01*
X125195935Y-113104208D01*
X125190073Y-113189647D01*
X125186980Y-113250087D01*
X125178175Y-113385967D01*
X125164607Y-113507653D01*
X125144206Y-113625041D01*
X125114905Y-113748025D01*
X125074634Y-113886500D01*
X125021326Y-114050361D01*
X125017027Y-114063117D01*
X124966130Y-114225117D01*
X124933452Y-114358101D01*
X124918421Y-114467317D01*
X124920461Y-114558010D01*
X124938999Y-114635425D01*
X124951211Y-114664496D01*
X124976020Y-114707203D01*
X125011019Y-114747350D01*
X125061637Y-114789058D01*
X125133309Y-114836449D01*
X125231464Y-114893646D01*
X125310689Y-114937301D01*
X125419576Y-114997817D01*
X125525820Y-115059966D01*
X125635152Y-115127453D01*
X125753304Y-115203982D01*
X125886008Y-115293258D01*
X126038994Y-115398987D01*
X126199966Y-115512123D01*
X126327722Y-115601383D01*
X126429913Y-115670093D01*
X126511968Y-115721498D01*
X126579320Y-115758844D01*
X126637400Y-115785374D01*
X126686516Y-115802773D01*
X126752505Y-115822310D01*
X126801721Y-115835285D01*
X126824444Y-115839158D01*
X126824895Y-115838937D01*
X126823460Y-115818958D01*
X126816731Y-115766474D01*
X126805568Y-115687568D01*
X126801055Y-115657170D01*
X126676031Y-115657170D01*
X126670717Y-115661170D01*
X126653189Y-115638385D01*
X126637012Y-115611051D01*
X126605620Y-115553963D01*
X126561676Y-115472114D01*
X126507841Y-115370498D01*
X126446778Y-115254108D01*
X126382839Y-115131204D01*
X126317954Y-115004933D01*
X126258889Y-114888005D01*
X126208126Y-114785495D01*
X126168148Y-114702477D01*
X126141438Y-114644025D01*
X126130538Y-114615525D01*
X126117863Y-114590058D01*
X126067670Y-114590058D01*
X126061899Y-114609471D01*
X126041600Y-114609597D01*
X126007334Y-114590858D01*
X125998023Y-114576557D01*
X126003794Y-114557145D01*
X126024092Y-114557019D01*
X126058359Y-114575758D01*
X126067670Y-114590058D01*
X126117863Y-114590058D01*
X126107673Y-114569584D01*
X126081692Y-114546320D01*
X126050174Y-114526135D01*
X126029245Y-114501430D01*
X126013997Y-114462145D01*
X125999520Y-114398214D01*
X125993068Y-114364670D01*
X125981292Y-114289941D01*
X125980635Y-114243315D01*
X125991082Y-114215438D01*
X125992831Y-114213208D01*
X126003849Y-114186104D01*
X125996957Y-114174551D01*
X125952419Y-114174551D01*
X125944103Y-114181330D01*
X125921653Y-114182148D01*
X125882667Y-114175246D01*
X125867604Y-114164581D01*
X125864970Y-114141818D01*
X125886626Y-114135782D01*
X125920569Y-114148704D01*
X125927391Y-114153466D01*
X125952419Y-114174551D01*
X125996957Y-114174551D01*
X125985415Y-114155206D01*
X125977131Y-114146593D01*
X125959342Y-114117303D01*
X125478816Y-114117303D01*
X125458564Y-114123993D01*
X125449085Y-114124154D01*
X125415396Y-114112487D01*
X125407615Y-114094846D01*
X125416894Y-114068827D01*
X125424762Y-114065539D01*
X125450225Y-114078906D01*
X125466231Y-114094846D01*
X125478816Y-114117303D01*
X125959342Y-114117303D01*
X125952545Y-114106112D01*
X125931909Y-114044761D01*
X125917517Y-113975290D01*
X125911664Y-113910447D01*
X125916643Y-113862983D01*
X125923747Y-113849917D01*
X125929278Y-113826222D01*
X125927730Y-113824226D01*
X125869585Y-113824226D01*
X125849333Y-113830916D01*
X125839854Y-113831077D01*
X125806165Y-113819410D01*
X125798385Y-113801769D01*
X125807663Y-113775750D01*
X125815531Y-113772462D01*
X125840994Y-113785829D01*
X125857000Y-113801769D01*
X125869585Y-113824226D01*
X125927730Y-113824226D01*
X125903253Y-113792679D01*
X125891451Y-113782031D01*
X125858131Y-113740107D01*
X125819667Y-113672567D01*
X125781370Y-113591450D01*
X125748550Y-113508793D01*
X125726520Y-113436633D01*
X125720231Y-113393981D01*
X125702468Y-113339597D01*
X125637823Y-113339597D01*
X125632053Y-113359009D01*
X125611754Y-113359135D01*
X125577488Y-113340396D01*
X125568177Y-113326096D01*
X125573948Y-113306683D01*
X125594246Y-113306557D01*
X125628512Y-113325296D01*
X125637823Y-113339597D01*
X125702468Y-113339597D01*
X125702053Y-113338328D01*
X125651961Y-113295016D01*
X125587365Y-113272081D01*
X125539881Y-113268415D01*
X125516408Y-113284672D01*
X125513192Y-113291636D01*
X125514929Y-113335145D01*
X125552951Y-113373574D01*
X125622281Y-113403462D01*
X125659366Y-113416985D01*
X125686169Y-113436647D01*
X125709086Y-113470960D01*
X125734510Y-113528433D01*
X125754170Y-113578993D01*
X125812799Y-113732575D01*
X125747970Y-113744737D01*
X125695626Y-113746533D01*
X125690528Y-113745125D01*
X125560779Y-113745125D01*
X125548534Y-113752466D01*
X125530186Y-113752923D01*
X125491464Y-113745393D01*
X125476834Y-113734735D01*
X125474905Y-113711404D01*
X125496384Y-113702516D01*
X125527336Y-113711001D01*
X125540677Y-113721304D01*
X125560779Y-113745125D01*
X125690528Y-113745125D01*
X125635629Y-113729963D01*
X125574802Y-113702042D01*
X125510824Y-113672165D01*
X125471159Y-113661221D01*
X125447132Y-113667194D01*
X125442362Y-113671284D01*
X125430322Y-113703993D01*
X125447315Y-113738523D01*
X125484214Y-113768273D01*
X125531894Y-113786641D01*
X125581228Y-113787027D01*
X125595829Y-113782294D01*
X125651945Y-113770756D01*
X125707053Y-113778143D01*
X125744279Y-113801858D01*
X125746649Y-113805511D01*
X125775028Y-113832294D01*
X125822587Y-113859387D01*
X125829688Y-113862478D01*
X125875276Y-113887439D01*
X125893680Y-113919895D01*
X125896344Y-113953455D01*
X125899859Y-114011544D01*
X125907297Y-114056467D01*
X125909636Y-114078642D01*
X125898628Y-114093569D01*
X125868402Y-114102624D01*
X125813089Y-114107182D01*
X125726816Y-114108622D01*
X125684765Y-114108637D01*
X125592612Y-114104701D01*
X125533646Y-114092716D01*
X125508919Y-114078706D01*
X125458482Y-114046142D01*
X125407716Y-114032982D01*
X125368619Y-114040947D01*
X125355693Y-114056740D01*
X125358406Y-114095195D01*
X125388625Y-114129269D01*
X125434798Y-114153445D01*
X125485370Y-114162210D01*
X125528788Y-114150047D01*
X125536984Y-114143277D01*
X125567306Y-114134723D01*
X125623029Y-114134998D01*
X125691933Y-114142364D01*
X125761798Y-114155083D01*
X125820403Y-114171418D01*
X125854152Y-114188384D01*
X125895738Y-114216644D01*
X125917990Y-114227069D01*
X125942392Y-114255495D01*
X125964480Y-114322522D01*
X125974118Y-114367786D01*
X125986295Y-114437673D01*
X125989369Y-114479833D01*
X125982531Y-114504725D01*
X125964975Y-114522808D01*
X125961974Y-114525120D01*
X125924930Y-114544062D01*
X125903756Y-114545366D01*
X125875674Y-114540590D01*
X125818655Y-114534133D01*
X125742742Y-114527071D01*
X125702855Y-114523808D01*
X125597661Y-114512508D01*
X125585108Y-114509824D01*
X125442922Y-114509824D01*
X125426643Y-114514153D01*
X125408211Y-114511915D01*
X125369134Y-114497540D01*
X125353787Y-114480731D01*
X125358356Y-114460163D01*
X125383205Y-114458394D01*
X125415042Y-114474225D01*
X125428711Y-114487492D01*
X125442922Y-114509824D01*
X125585108Y-114509824D01*
X125525696Y-114497121D01*
X125481212Y-114476383D01*
X125478711Y-114474488D01*
X125425611Y-114442737D01*
X125381832Y-114426139D01*
X125335111Y-114426235D01*
X125313391Y-114449297D01*
X125320050Y-114485744D01*
X125349121Y-114518950D01*
X125386729Y-114541432D01*
X125433044Y-114548515D01*
X125494033Y-114544012D01*
X125570115Y-114539990D01*
X125660838Y-114542846D01*
X125756056Y-114551328D01*
X125845621Y-114564182D01*
X125919386Y-114580154D01*
X125967205Y-114597992D01*
X125974849Y-114603406D01*
X126020514Y-114632455D01*
X126061905Y-114648530D01*
X126079992Y-114656950D01*
X126100260Y-114675222D01*
X126125036Y-114707123D01*
X126156650Y-114756431D01*
X126197429Y-114826924D01*
X126249703Y-114922379D01*
X126315800Y-115046574D01*
X126365281Y-115140690D01*
X126430332Y-115265659D01*
X126488485Y-115379054D01*
X126537502Y-115476376D01*
X126575149Y-115553127D01*
X126599189Y-115604811D01*
X126607386Y-115626929D01*
X126607243Y-115627347D01*
X126588797Y-115620382D01*
X126545568Y-115594842D01*
X126484466Y-115555011D01*
X126428082Y-115516244D01*
X126240028Y-115385600D01*
X126055024Y-115259673D01*
X125878058Y-115141722D01*
X125714117Y-115035007D01*
X125568188Y-114942788D01*
X125445261Y-114868324D01*
X125376855Y-114829219D01*
X125287972Y-114777940D01*
X125206631Y-114726963D01*
X125141921Y-114682240D01*
X125103317Y-114650126D01*
X125066706Y-114598326D01*
X125047274Y-114534152D01*
X125045310Y-114453092D01*
X125061105Y-114350635D01*
X125094948Y-114222268D01*
X125139618Y-114085077D01*
X125193953Y-113921099D01*
X125234709Y-113779751D01*
X125264607Y-113648150D01*
X125286370Y-113513410D01*
X125302718Y-113362648D01*
X125309409Y-113281224D01*
X125318267Y-113173702D01*
X125326864Y-113097187D01*
X125336932Y-113043659D01*
X125350205Y-113005099D01*
X125368414Y-112973487D01*
X125379040Y-112958918D01*
X125423870Y-112914763D01*
X125473612Y-112895689D01*
X125529881Y-112903005D01*
X125594294Y-112938021D01*
X125668464Y-113002046D01*
X125754007Y-113096389D01*
X125852538Y-113222359D01*
X125965672Y-113381265D01*
X126045202Y-113498923D01*
X126094570Y-113582199D01*
X126151598Y-113695585D01*
X126217304Y-113841274D01*
X126292708Y-114021458D01*
X126322286Y-114094846D01*
X126501867Y-114544231D01*
X126580298Y-115052231D01*
X126601899Y-115191637D01*
X126622085Y-115320961D01*
X126639932Y-115434357D01*
X126654515Y-115525978D01*
X126664911Y-115589980D01*
X126669869Y-115618846D01*
X126676031Y-115657170D01*
X126801055Y-115657170D01*
X126790832Y-115588326D01*
X126773386Y-115474830D01*
X126773019Y-115472478D01*
X126755536Y-115357713D01*
X126740893Y-115256064D01*
X126729941Y-115173892D01*
X126723525Y-115117562D01*
X126722495Y-115093438D01*
X126722497Y-115093431D01*
X126734639Y-115099292D01*
X126761490Y-115132406D01*
X126798748Y-115185887D01*
X126842112Y-115252845D01*
X126887279Y-115326394D01*
X126929950Y-115399645D01*
X126965823Y-115465711D01*
X126990595Y-115517705D01*
X126995714Y-115530923D01*
X127017197Y-115601977D01*
X127033220Y-115672021D01*
X127036058Y-115689673D01*
X127039789Y-115736446D01*
X127029462Y-115756264D01*
X126998675Y-115760494D01*
X126996153Y-115760500D01*
X126947856Y-115772142D01*
X126921042Y-115810268D01*
X126912387Y-115879678D01*
X126912376Y-115881417D01*
X126908678Y-115916333D01*
X126894274Y-115949202D01*
X126863684Y-115987549D01*
X126811428Y-116038898D01*
X126770423Y-116076350D01*
X126642918Y-116193718D01*
X126537186Y-116297345D01*
X126443990Y-116397260D01*
X126354090Y-116503494D01*
X126258245Y-116626079D01*
X126231670Y-116661258D01*
X126162287Y-116754349D01*
X126113438Y-116822764D01*
X126081735Y-116872726D01*
X126063792Y-116910459D01*
X126056222Y-116942186D01*
X126055639Y-116974131D01*
X126056243Y-116983642D01*
X126063269Y-117036106D01*
X126078966Y-117060900D01*
X126110597Y-117069408D01*
X126111000Y-117069447D01*
X126163720Y-117064934D01*
X126195219Y-117053162D01*
X126218675Y-117029470D01*
X126257801Y-116979547D01*
X126307511Y-116910271D01*
X126362722Y-116828519D01*
X126373469Y-116812058D01*
X126439922Y-116712580D01*
X126495945Y-116637267D01*
X126550255Y-116576222D01*
X126611571Y-116519548D01*
X126680020Y-116464046D01*
X126787417Y-116375486D01*
X126888062Y-116283932D01*
X126976357Y-116195158D01*
X127046702Y-116114941D01*
X127093499Y-116049055D01*
X127105655Y-116024959D01*
X127124456Y-115984682D01*
X127140287Y-115976067D01*
X127162677Y-115993655D01*
X127177499Y-116004482D01*
X127200534Y-116012059D01*
X127237224Y-116016616D01*
X127293012Y-116018388D01*
X127373343Y-116017606D01*
X127483657Y-116014501D01*
X127575785Y-116011285D01*
X127724464Y-116005144D01*
X127888331Y-115997159D01*
X128052425Y-115988135D01*
X128201788Y-115978877D01*
X128281167Y-115973318D01*
X128429776Y-115960912D01*
X128548070Y-115945866D01*
X128644258Y-115924270D01*
X128726549Y-115892215D01*
X128803153Y-115845793D01*
X128882277Y-115781096D01*
X128972131Y-115694214D01*
X129061308Y-115601857D01*
X129129740Y-115530793D01*
X129220761Y-115437429D01*
X129329220Y-115326988D01*
X129449966Y-115204691D01*
X129577846Y-115075760D01*
X129707710Y-114945416D01*
X129795741Y-114857423D01*
X129939156Y-114713626D01*
X130056210Y-114594589D01*
X130148877Y-114498163D01*
X130219133Y-114422198D01*
X130268950Y-114364545D01*
X130288717Y-114338386D01*
X130125804Y-114338386D01*
X129647287Y-114823334D01*
X129524531Y-114947943D01*
X129401214Y-115073493D01*
X129282405Y-115194799D01*
X129173169Y-115306675D01*
X129078573Y-115403936D01*
X129003685Y-115481397D01*
X128973385Y-115512998D01*
X128873707Y-115615364D01*
X128790419Y-115693133D01*
X128715151Y-115750158D01*
X128639530Y-115790294D01*
X128555187Y-115817393D01*
X128453749Y-115835308D01*
X128326846Y-115847894D01*
X128230923Y-115854762D01*
X128108379Y-115862224D01*
X127981884Y-115868658D01*
X127857194Y-115873912D01*
X127740070Y-115877835D01*
X127636268Y-115880273D01*
X127551547Y-115881076D01*
X127491665Y-115880089D01*
X127462381Y-115877163D01*
X127460782Y-115875113D01*
X127490745Y-115857561D01*
X127550043Y-115830335D01*
X127631015Y-115796347D01*
X127726001Y-115758511D01*
X127827341Y-115719739D01*
X127927376Y-115682944D01*
X128018445Y-115651037D01*
X128092888Y-115626933D01*
X128143045Y-115613543D01*
X128152769Y-115611991D01*
X128229889Y-115606768D01*
X128327363Y-115603916D01*
X128434412Y-115603330D01*
X128540253Y-115604905D01*
X128634106Y-115608533D01*
X128705189Y-115614109D01*
X128729154Y-115617659D01*
X128790444Y-115620570D01*
X128835971Y-115606198D01*
X128858255Y-115579413D01*
X128855941Y-115570000D01*
X128807308Y-115570000D01*
X128790587Y-115584688D01*
X128758462Y-115589539D01*
X128721743Y-115582850D01*
X128709615Y-115570000D01*
X128716098Y-115564305D01*
X128213205Y-115564305D01*
X128210550Y-115571350D01*
X128186338Y-115587177D01*
X128156953Y-115586947D01*
X128143000Y-115571153D01*
X128158445Y-115543912D01*
X128190347Y-115536447D01*
X128201934Y-115540889D01*
X128213205Y-115564305D01*
X128716098Y-115564305D01*
X128726336Y-115555313D01*
X128758462Y-115550462D01*
X128795180Y-115557150D01*
X128807308Y-115570000D01*
X128855941Y-115570000D01*
X128849814Y-115545086D01*
X128846733Y-115541113D01*
X128815468Y-115519209D01*
X128767499Y-115518351D01*
X128749779Y-115521352D01*
X128689780Y-115529939D01*
X128612857Y-115536845D01*
X128527801Y-115541818D01*
X128443407Y-115544607D01*
X128368468Y-115544963D01*
X128311778Y-115542634D01*
X128282130Y-115537368D01*
X128279769Y-115534762D01*
X128295266Y-115515746D01*
X128336362Y-115482839D01*
X128394966Y-115441241D01*
X128462986Y-115396152D01*
X128532331Y-115352771D01*
X128594910Y-115316299D01*
X128642631Y-115291935D01*
X128667403Y-115284878D01*
X128668122Y-115285199D01*
X128696853Y-115286447D01*
X128746883Y-115275689D01*
X128771818Y-115267789D01*
X128858736Y-115243778D01*
X128920732Y-115240188D01*
X128953762Y-115257249D01*
X128953846Y-115257385D01*
X128981465Y-115271492D01*
X129030434Y-115276620D01*
X129083882Y-115271930D01*
X129108556Y-115265064D01*
X129134111Y-115240388D01*
X129136622Y-115215321D01*
X129080846Y-115215321D01*
X129064810Y-115238935D01*
X129030710Y-115251308D01*
X129015881Y-115250383D01*
X129001493Y-115232436D01*
X128760735Y-115232436D01*
X128758547Y-115237708D01*
X128733813Y-115253314D01*
X128699189Y-115256569D01*
X128673828Y-115247192D01*
X128670538Y-115238999D01*
X128684789Y-115212680D01*
X128691013Y-115207960D01*
X128721951Y-115202155D01*
X128750679Y-115212731D01*
X128760735Y-115232436D01*
X129001493Y-115232436D01*
X129000625Y-115231354D01*
X129000453Y-115227589D01*
X129015502Y-115210437D01*
X129046367Y-115202000D01*
X129073862Y-115205205D01*
X129080846Y-115215321D01*
X129136622Y-115215321D01*
X129137523Y-115206333D01*
X129119440Y-115180442D01*
X129105269Y-115176192D01*
X129038332Y-115176171D01*
X128981865Y-115186345D01*
X128954823Y-115200096D01*
X128922041Y-115213988D01*
X128875193Y-115217721D01*
X128833653Y-115211170D01*
X128818442Y-115200977D01*
X128827562Y-115181727D01*
X128861851Y-115147816D01*
X128913269Y-115105179D01*
X128973775Y-115059750D01*
X129035330Y-115017464D01*
X129089892Y-114984254D01*
X129129422Y-114966055D01*
X129139109Y-114964308D01*
X129188759Y-114953946D01*
X129216788Y-114940752D01*
X129251055Y-114928179D01*
X129283777Y-114944100D01*
X129293895Y-114952842D01*
X129338755Y-114973930D01*
X129395513Y-114977251D01*
X129448658Y-114964499D01*
X129482682Y-114937366D01*
X129485259Y-114931950D01*
X129484967Y-114925231D01*
X129432538Y-114925231D01*
X129415818Y-114939918D01*
X129383692Y-114944769D01*
X129346974Y-114938081D01*
X129334846Y-114925231D01*
X129351567Y-114910543D01*
X129383692Y-114905692D01*
X129420411Y-114912381D01*
X129432538Y-114925231D01*
X129484967Y-114925231D01*
X129483987Y-114902705D01*
X129178538Y-114902705D01*
X129162502Y-114926320D01*
X129128403Y-114938693D01*
X129113573Y-114937768D01*
X129098318Y-114918739D01*
X129098145Y-114914973D01*
X129113194Y-114897822D01*
X129144059Y-114889385D01*
X129171554Y-114892589D01*
X129178538Y-114902705D01*
X129483987Y-114902705D01*
X129483762Y-114897546D01*
X129451461Y-114877678D01*
X129394221Y-114873374D01*
X129317905Y-114885662D01*
X129281115Y-114896165D01*
X129245589Y-114900017D01*
X129237154Y-114888678D01*
X129254017Y-114867582D01*
X129298119Y-114838407D01*
X129359726Y-114805731D01*
X129429107Y-114774132D01*
X129496530Y-114748186D01*
X129552261Y-114732471D01*
X129574855Y-114729846D01*
X129632121Y-114721768D01*
X129677182Y-114702653D01*
X129702089Y-114677556D01*
X129700279Y-114671231D01*
X129647462Y-114671231D01*
X129630741Y-114685918D01*
X129598615Y-114690769D01*
X129561897Y-114684081D01*
X129549769Y-114671231D01*
X129566490Y-114656543D01*
X129598615Y-114651692D01*
X129635334Y-114658381D01*
X129647462Y-114671231D01*
X129700279Y-114671231D01*
X129694918Y-114652498D01*
X129688293Y-114644037D01*
X129649047Y-114620136D01*
X129596528Y-114614773D01*
X129543945Y-114625489D01*
X129504504Y-114649826D01*
X129491154Y-114680731D01*
X129474803Y-114703655D01*
X129432215Y-114736421D01*
X129373092Y-114773525D01*
X129307133Y-114809458D01*
X129244037Y-114838713D01*
X129193504Y-114855785D01*
X129178963Y-114857970D01*
X129105930Y-114862670D01*
X129062754Y-114869012D01*
X129040224Y-114879440D01*
X129029127Y-114896399D01*
X129028540Y-114897895D01*
X129030389Y-114932323D01*
X129041305Y-114944483D01*
X129041089Y-114962773D01*
X129014034Y-114994814D01*
X128967446Y-115035359D01*
X128908634Y-115079160D01*
X128844907Y-115120971D01*
X128783573Y-115155544D01*
X128731939Y-115177632D01*
X128709615Y-115182628D01*
X128650968Y-115198832D01*
X128622700Y-115231205D01*
X128595068Y-115265536D01*
X128541490Y-115311508D01*
X128470960Y-115363267D01*
X128392472Y-115414957D01*
X128315021Y-115460723D01*
X128247600Y-115494708D01*
X128199203Y-115511057D01*
X128191846Y-115511707D01*
X128125960Y-115520947D01*
X128089378Y-115549896D01*
X128081947Y-115566562D01*
X128061415Y-115584589D01*
X128012627Y-115612634D01*
X127943664Y-115646349D01*
X127888518Y-115670655D01*
X127755564Y-115726473D01*
X127655576Y-115767570D01*
X127585771Y-115795002D01*
X127543365Y-115809827D01*
X127525574Y-115813102D01*
X127527538Y-115807776D01*
X127555982Y-115785256D01*
X127613108Y-115744288D01*
X127694767Y-115687615D01*
X127738006Y-115658108D01*
X127491851Y-115658108D01*
X127474068Y-115682617D01*
X127421083Y-115724074D01*
X127365015Y-115761882D01*
X127293742Y-115810632D01*
X127234209Y-115855868D01*
X127194865Y-115890947D01*
X127184886Y-115903517D01*
X127163116Y-115936768D01*
X127154993Y-115934788D01*
X127163381Y-115899908D01*
X127167287Y-115889203D01*
X127176869Y-115838246D01*
X127167070Y-115817178D01*
X127160193Y-115788509D01*
X127188520Y-115755297D01*
X127248823Y-115720064D01*
X127334119Y-115686577D01*
X127421864Y-115660058D01*
X127474446Y-115650578D01*
X127491851Y-115658108D01*
X127738006Y-115658108D01*
X127796809Y-115617981D01*
X127915084Y-115538129D01*
X128045443Y-115450803D01*
X128183737Y-115358745D01*
X128325815Y-115264699D01*
X128467528Y-115171409D01*
X128604726Y-115081618D01*
X128733261Y-114998069D01*
X128848981Y-114923506D01*
X128947739Y-114860672D01*
X129025383Y-114812310D01*
X129077765Y-114781164D01*
X129091970Y-114773505D01*
X129191771Y-114724917D01*
X129308654Y-114670210D01*
X129435773Y-114612370D01*
X129566283Y-114554381D01*
X129693337Y-114499226D01*
X129810091Y-114449891D01*
X129909697Y-114409358D01*
X129985311Y-114380613D01*
X130018518Y-114369615D01*
X130125804Y-114338386D01*
X130288717Y-114338386D01*
X130300304Y-114323053D01*
X130315168Y-114295574D01*
X130316610Y-114290281D01*
X130317537Y-114239450D01*
X130292443Y-114211980D01*
X130236118Y-114202733D01*
X130227703Y-114202607D01*
X130159664Y-114207668D01*
X130077336Y-114224357D01*
X129977180Y-114253911D01*
X129855661Y-114297570D01*
X129709241Y-114356572D01*
X129534383Y-114432156D01*
X129399840Y-114492563D01*
X129263883Y-114554472D01*
X129150990Y-114606707D01*
X129055024Y-114652780D01*
X128969851Y-114696202D01*
X128889332Y-114740487D01*
X128807332Y-114789147D01*
X128717715Y-114845692D01*
X128614343Y-114913637D01*
X128491081Y-114996492D01*
X128341792Y-115097770D01*
X128338385Y-115100085D01*
X128201098Y-115193445D01*
X128068775Y-115283588D01*
X127946262Y-115367200D01*
X127838402Y-115440971D01*
X127750041Y-115501586D01*
X127686024Y-115545735D01*
X127659746Y-115564044D01*
X127604286Y-115600484D01*
X127565180Y-115621204D01*
X127549044Y-115622870D01*
X127549490Y-115619603D01*
X127555661Y-115601095D01*
X127550926Y-115592455D01*
X127527609Y-115593144D01*
X127478030Y-115602623D01*
X127435693Y-115611622D01*
X127343881Y-115636244D01*
X127255358Y-115668706D01*
X127179826Y-115704629D01*
X127126990Y-115739635D01*
X127110145Y-115758501D01*
X127092841Y-115783166D01*
X127087012Y-115784923D01*
X127083916Y-115761229D01*
X127078540Y-115712772D01*
X127075866Y-115687231D01*
X127056326Y-115575785D01*
X127018847Y-115466131D01*
X126959495Y-115348954D01*
X126880006Y-115223269D01*
X126830172Y-115147176D01*
X126789869Y-115080707D01*
X126763631Y-115031665D01*
X126755769Y-115009359D01*
X126767796Y-114967074D01*
X126797301Y-114912507D01*
X126834417Y-114861296D01*
X126869281Y-114829077D01*
X126869634Y-114828876D01*
X126890500Y-114807655D01*
X126880507Y-114788393D01*
X126854887Y-114785925D01*
X126819688Y-114810541D01*
X126781501Y-114853748D01*
X126746914Y-114907054D01*
X126722518Y-114961968D01*
X126714746Y-115002017D01*
X126711254Y-115009094D01*
X126702925Y-114982257D01*
X126690838Y-114926218D01*
X126676072Y-114845690D01*
X126668105Y-114798231D01*
X126647195Y-114671838D01*
X126630277Y-114576093D01*
X126615301Y-114503039D01*
X126600219Y-114444717D01*
X126582982Y-114393169D01*
X126561541Y-114340436D01*
X126534931Y-114280936D01*
X126507095Y-114216796D01*
X126469672Y-114126281D01*
X126426796Y-114019603D01*
X126382602Y-113906976D01*
X126364491Y-113859960D01*
X126324562Y-113757350D01*
X126289710Y-113673868D01*
X126255365Y-113601302D01*
X126216960Y-113531437D01*
X126169923Y-113456061D01*
X126109686Y-113366960D01*
X126031680Y-113255921D01*
X126016648Y-113234729D01*
X125934923Y-113120444D01*
X125870672Y-113033277D01*
X125819356Y-112968061D01*
X125776435Y-112919630D01*
X125737367Y-112882817D01*
X125697614Y-112852453D01*
X125658260Y-112826842D01*
X125535355Y-112750685D01*
X125428517Y-112777996D01*
G36*
X124824855Y-114816016D02*
X124824182Y-114816363D01*
X124756075Y-114863784D01*
X124679842Y-114936138D01*
X124604507Y-115023248D01*
X124539099Y-115114936D01*
X124503010Y-115178493D01*
X124478148Y-115230818D01*
X124460747Y-115275694D01*
X124449254Y-115322177D01*
X124442112Y-115379325D01*
X124437769Y-115456193D01*
X124434668Y-115561839D01*
X124434254Y-115579031D01*
X124432383Y-115695431D01*
X124433950Y-115788221D01*
X124440254Y-115870800D01*
X124452595Y-115956566D01*
X124472270Y-116058917D01*
X124487928Y-116132903D01*
X124515129Y-116256147D01*
X124538236Y-116349118D01*
X124560638Y-116419899D01*
X124585722Y-116476571D01*
X124616876Y-116527216D01*
X124657488Y-116579915D01*
X124692872Y-116621788D01*
X124737290Y-116675542D01*
X124769321Y-116718241D01*
X124782351Y-116741035D01*
X124782385Y-116741504D01*
X124799997Y-116752816D01*
X124847126Y-116769962D01*
X124915209Y-116790005D01*
X124951093Y-116799362D01*
X125036909Y-116822184D01*
X125116492Y-116845598D01*
X125176019Y-116865473D01*
X125187941Y-116870145D01*
X125257318Y-116891099D01*
X125331502Y-116895032D01*
X125419116Y-116881105D01*
X125528779Y-116848480D01*
X125573692Y-116832588D01*
X125667950Y-116796955D01*
X125781192Y-116752225D01*
X125896660Y-116705091D01*
X125966385Y-116675731D01*
X126063175Y-116632922D01*
X126137111Y-116595262D01*
X126199954Y-116554966D01*
X126263469Y-116504252D01*
X126339418Y-116435333D01*
X126362608Y-116413515D01*
X126541985Y-116244077D01*
X126526865Y-116178291D01*
X126396245Y-116178291D01*
X126386521Y-116207474D01*
X126350806Y-116252544D01*
X126295671Y-116307788D01*
X126227690Y-116367492D01*
X126153432Y-116425941D01*
X126079472Y-116477423D01*
X126012380Y-116516222D01*
X126001659Y-116521364D01*
X125895572Y-116568394D01*
X125781705Y-116615675D01*
X125666670Y-116660807D01*
X125557081Y-116701386D01*
X125459549Y-116735011D01*
X125380686Y-116759279D01*
X125327105Y-116771788D01*
X125309923Y-116772663D01*
X125254284Y-116759422D01*
X125204636Y-116743183D01*
X125167813Y-116726637D01*
X125155485Y-116715845D01*
X125155790Y-116715517D01*
X125174493Y-116705070D01*
X125222933Y-116679041D01*
X125296249Y-116640015D01*
X125389578Y-116590574D01*
X125498060Y-116533300D01*
X125575652Y-116492435D01*
X125725349Y-116414787D01*
X125843308Y-116356167D01*
X125931426Y-116315713D01*
X125991602Y-116292563D01*
X126025734Y-116285858D01*
X126029684Y-116286435D01*
X126069513Y-116284407D01*
X126087111Y-116259537D01*
X126085594Y-116252042D01*
X125943808Y-116252042D01*
X125930646Y-116265724D01*
X125888201Y-116293841D01*
X125822147Y-116333359D01*
X125738153Y-116381244D01*
X125641894Y-116434461D01*
X125539039Y-116489975D01*
X125435262Y-116544752D01*
X125336234Y-116595757D01*
X125247627Y-116639955D01*
X125175113Y-116674313D01*
X125124364Y-116695794D01*
X125103431Y-116701664D01*
X125061436Y-116697132D01*
X125000242Y-116683844D01*
X124966584Y-116674594D01*
X124898324Y-116647434D01*
X124844061Y-116606019D01*
X124798293Y-116552774D01*
X124761227Y-116502853D01*
X124737292Y-116466989D01*
X124731781Y-116454245D01*
X124751444Y-116447598D01*
X124802568Y-116432537D01*
X124878891Y-116410847D01*
X124974151Y-116384313D01*
X125057718Y-116361360D01*
X125165590Y-116331411D01*
X125261448Y-116303866D01*
X125338410Y-116280776D01*
X125389595Y-116264192D01*
X125406836Y-116257312D01*
X125446335Y-116251664D01*
X125490290Y-116261533D01*
X125544548Y-116272120D01*
X125583612Y-116258287D01*
X125619453Y-116247251D01*
X125679108Y-116239517D01*
X125751407Y-116235277D01*
X125825182Y-116234725D01*
X125889262Y-116238055D01*
X125932477Y-116245461D01*
X125943808Y-116252042D01*
X126085594Y-116252042D01*
X126080024Y-116224539D01*
X126032846Y-116224539D01*
X126029176Y-116249249D01*
X126009841Y-116250524D01*
X125985598Y-116241987D01*
X125965987Y-116227457D01*
X125537431Y-116227457D01*
X125517179Y-116234147D01*
X125507700Y-116234308D01*
X125479492Y-116224539D01*
X125409653Y-116224539D01*
X125390215Y-116234445D01*
X125340382Y-116252463D01*
X125267457Y-116276418D01*
X125178744Y-116304135D01*
X125081546Y-116333438D01*
X124983166Y-116362153D01*
X124890909Y-116388104D01*
X124812077Y-116409117D01*
X124753973Y-116423016D01*
X124728235Y-116427477D01*
X124702449Y-116413332D01*
X124684730Y-116385731D01*
X124673076Y-116351020D01*
X124655944Y-116291705D01*
X124636173Y-116218705D01*
X124616604Y-116142938D01*
X124600077Y-116075321D01*
X124589432Y-116026771D01*
X124587000Y-116010026D01*
X124604942Y-116003996D01*
X124652787Y-116001474D01*
X124721562Y-116002002D01*
X124802295Y-116005122D01*
X124886012Y-116010375D01*
X124963743Y-116017303D01*
X125026515Y-116025448D01*
X125065354Y-116034350D01*
X125065692Y-116034481D01*
X125124622Y-116054463D01*
X125173154Y-116067123D01*
X125216529Y-116082785D01*
X125271249Y-116111626D01*
X125327464Y-116147091D01*
X125375322Y-116182621D01*
X125404975Y-116211662D01*
X125409653Y-116224539D01*
X125479492Y-116224539D01*
X125474011Y-116222641D01*
X125466231Y-116205000D01*
X125475510Y-116178981D01*
X125483377Y-116175692D01*
X125508840Y-116189060D01*
X125524846Y-116205000D01*
X125537431Y-116227457D01*
X125965987Y-116227457D01*
X125957193Y-116220942D01*
X125964131Y-116201576D01*
X125993769Y-116195231D01*
X126025593Y-116207448D01*
X126032846Y-116224539D01*
X126080024Y-116224539D01*
X126079687Y-116222879D01*
X126053478Y-116192188D01*
X126002647Y-116164688D01*
X125951464Y-116157487D01*
X125913139Y-116171178D01*
X125903143Y-116185462D01*
X125877870Y-116202710D01*
X125825462Y-116213211D01*
X125757257Y-116217062D01*
X125684593Y-116214363D01*
X125618807Y-116205213D01*
X125571236Y-116189710D01*
X125560625Y-116182477D01*
X125518796Y-116161133D01*
X125458976Y-116148058D01*
X125441856Y-116146740D01*
X125368881Y-116132330D01*
X125290375Y-116099365D01*
X125219155Y-116055046D01*
X125168035Y-116006571D01*
X125162033Y-115996828D01*
X125110285Y-115996828D01*
X125104514Y-116016240D01*
X125084215Y-116016366D01*
X125049949Y-115997627D01*
X125040638Y-115983326D01*
X125046409Y-115963914D01*
X125066708Y-115963788D01*
X125100974Y-115982527D01*
X125110285Y-115996828D01*
X125162033Y-115996828D01*
X125155177Y-115985702D01*
X125118497Y-115945806D01*
X125087079Y-115932886D01*
X124991441Y-115932886D01*
X124971117Y-115961021D01*
X124925086Y-115975111D01*
X124848078Y-115979909D01*
X124793230Y-115980308D01*
X124700389Y-115978697D01*
X124639273Y-115973158D01*
X124602638Y-115962628D01*
X124586140Y-115949964D01*
X124577003Y-115922829D01*
X124567781Y-115869009D01*
X124559212Y-115797891D01*
X124552033Y-115718862D01*
X124546980Y-115641312D01*
X124544790Y-115574626D01*
X124546201Y-115528194D01*
X124551709Y-115511385D01*
X124573166Y-115517239D01*
X124621862Y-115532731D01*
X124688094Y-115554757D01*
X124702044Y-115559487D01*
X124815823Y-115607966D01*
X124896509Y-115666978D01*
X124949728Y-115741779D01*
X124976045Y-115815479D01*
X124991327Y-115885956D01*
X124991441Y-115932886D01*
X125087079Y-115932886D01*
X125077461Y-115928931D01*
X125035669Y-115912749D01*
X125014269Y-115877590D01*
X125007714Y-115849835D01*
X124996063Y-115795730D01*
X124984963Y-115756011D01*
X124984302Y-115754228D01*
X124988985Y-115731214D01*
X125013603Y-115726308D01*
X125056717Y-115715660D01*
X125067226Y-115687874D01*
X125062697Y-115680380D01*
X125009893Y-115680380D01*
X124989641Y-115687070D01*
X124980162Y-115687231D01*
X124946473Y-115675564D01*
X124938692Y-115657923D01*
X124947971Y-115631904D01*
X124955838Y-115628616D01*
X124981302Y-115641983D01*
X124997308Y-115657923D01*
X125009893Y-115680380D01*
X125062697Y-115680380D01*
X125043843Y-115649183D01*
X125031861Y-115637941D01*
X124981999Y-115595051D01*
X125033615Y-115513162D01*
X125068368Y-115463623D01*
X125096816Y-115441707D01*
X125129767Y-115439911D01*
X125137257Y-115441192D01*
X125190250Y-115440236D01*
X125217170Y-115417808D01*
X125217072Y-115416946D01*
X125058425Y-115416946D01*
X125038017Y-115468863D01*
X125003693Y-115523281D01*
X124962799Y-115568143D01*
X124929818Y-115589231D01*
X124893553Y-115589658D01*
X124832204Y-115577919D01*
X124756651Y-115557136D01*
X124677771Y-115530431D01*
X124606443Y-115500927D01*
X124584525Y-115490126D01*
X124565896Y-115459848D01*
X124565621Y-115403990D01*
X124582139Y-115330591D01*
X124613888Y-115247692D01*
X124642540Y-115191478D01*
X124683999Y-115122218D01*
X124718125Y-115083173D01*
X124752949Y-115073615D01*
X124796503Y-115092813D01*
X124856816Y-115140037D01*
X124890137Y-115168983D01*
X124949867Y-115223869D01*
X124997556Y-115272270D01*
X125025756Y-115306435D01*
X125029923Y-115314419D01*
X125047286Y-115358588D01*
X125057569Y-115379587D01*
X125058425Y-115416946D01*
X125217072Y-115416946D01*
X125214404Y-115393541D01*
X125173154Y-115393541D01*
X125160911Y-115412283D01*
X125125165Y-115400939D01*
X125115104Y-115394917D01*
X125097020Y-115373463D01*
X125099608Y-115363495D01*
X125127462Y-115357875D01*
X125159409Y-115371589D01*
X125173154Y-115393541D01*
X125214404Y-115393541D01*
X125213017Y-115381383D01*
X125194000Y-115356384D01*
X125150298Y-115326458D01*
X125111909Y-115316000D01*
X125076592Y-115302335D01*
X125023939Y-115265341D01*
X124962436Y-115211017D01*
X124959707Y-115208370D01*
X124900575Y-115152307D01*
X124846499Y-115103691D01*
X124808042Y-115071978D01*
X124804603Y-115069494D01*
X124759993Y-115038248D01*
X124803903Y-114991508D01*
X124842513Y-114958954D01*
X124875217Y-114944789D01*
X124876061Y-114944769D01*
X124898100Y-114955436D01*
X124948610Y-114985820D01*
X125023866Y-115033498D01*
X125120138Y-115096045D01*
X125233701Y-115171038D01*
X125360827Y-115256052D01*
X125497790Y-115348665D01*
X125512540Y-115358697D01*
X125697453Y-115484442D01*
X125852824Y-115590092D01*
X125981279Y-115677742D01*
X126085442Y-115749484D01*
X126167938Y-115807411D01*
X126231393Y-115853618D01*
X126278432Y-115890198D01*
X126311679Y-115919243D01*
X126333759Y-115942848D01*
X126347299Y-115963106D01*
X126354922Y-115982109D01*
X126359255Y-116001953D01*
X126362921Y-116024729D01*
X126365536Y-116038923D01*
X126379229Y-116104558D01*
X126391093Y-116157681D01*
X126396245Y-116178291D01*
X126526865Y-116178291D01*
X126495991Y-116043973D01*
X126476293Y-115960884D01*
X126459126Y-115893258D01*
X126446656Y-115849346D01*
X126441691Y-115836941D01*
X126421003Y-115822197D01*
X126371878Y-115788333D01*
X126298286Y-115738036D01*
X126204199Y-115673988D01*
X126093589Y-115598873D01*
X125970428Y-115515377D01*
X125838687Y-115426181D01*
X125702337Y-115333972D01*
X125565351Y-115241432D01*
X125431700Y-115151245D01*
X125305355Y-115066096D01*
X125190288Y-114988669D01*
X125090471Y-114921647D01*
X125009875Y-114867715D01*
X124952472Y-114829557D01*
X124922234Y-114809856D01*
X124919049Y-114807944D01*
X124876779Y-114798236D01*
X124824855Y-114816016D01*
X124824855Y-114816016D01*
G37*
X124824855Y-114816016D02*
X124824182Y-114816363D01*
X124756075Y-114863784D01*
X124679842Y-114936138D01*
X124604507Y-115023248D01*
X124539099Y-115114936D01*
X124503010Y-115178493D01*
X124478148Y-115230818D01*
X124460747Y-115275694D01*
X124449254Y-115322177D01*
X124442112Y-115379325D01*
X124437769Y-115456193D01*
X124434668Y-115561839D01*
X124434254Y-115579031D01*
X124432383Y-115695431D01*
X124433950Y-115788221D01*
X124440254Y-115870800D01*
X124452595Y-115956566D01*
X124472270Y-116058917D01*
X124487928Y-116132903D01*
X124515129Y-116256147D01*
X124538236Y-116349118D01*
X124560638Y-116419899D01*
X124585722Y-116476571D01*
X124616876Y-116527216D01*
X124657488Y-116579915D01*
X124692872Y-116621788D01*
X124737290Y-116675542D01*
X124769321Y-116718241D01*
X124782351Y-116741035D01*
X124782385Y-116741504D01*
X124799997Y-116752816D01*
X124847126Y-116769962D01*
X124915209Y-116790005D01*
X124951093Y-116799362D01*
X125036909Y-116822184D01*
X125116492Y-116845598D01*
X125176019Y-116865473D01*
X125187941Y-116870145D01*
X125257318Y-116891099D01*
X125331502Y-116895032D01*
X125419116Y-116881105D01*
X125528779Y-116848480D01*
X125573692Y-116832588D01*
X125667950Y-116796955D01*
X125781192Y-116752225D01*
X125896660Y-116705091D01*
X125966385Y-116675731D01*
X126063175Y-116632922D01*
X126137111Y-116595262D01*
X126199954Y-116554966D01*
X126263469Y-116504252D01*
X126339418Y-116435333D01*
X126362608Y-116413515D01*
X126541985Y-116244077D01*
X126526865Y-116178291D01*
X126396245Y-116178291D01*
X126386521Y-116207474D01*
X126350806Y-116252544D01*
X126295671Y-116307788D01*
X126227690Y-116367492D01*
X126153432Y-116425941D01*
X126079472Y-116477423D01*
X126012380Y-116516222D01*
X126001659Y-116521364D01*
X125895572Y-116568394D01*
X125781705Y-116615675D01*
X125666670Y-116660807D01*
X125557081Y-116701386D01*
X125459549Y-116735011D01*
X125380686Y-116759279D01*
X125327105Y-116771788D01*
X125309923Y-116772663D01*
X125254284Y-116759422D01*
X125204636Y-116743183D01*
X125167813Y-116726637D01*
X125155485Y-116715845D01*
X125155790Y-116715517D01*
X125174493Y-116705070D01*
X125222933Y-116679041D01*
X125296249Y-116640015D01*
X125389578Y-116590574D01*
X125498060Y-116533300D01*
X125575652Y-116492435D01*
X125725349Y-116414787D01*
X125843308Y-116356167D01*
X125931426Y-116315713D01*
X125991602Y-116292563D01*
X126025734Y-116285858D01*
X126029684Y-116286435D01*
X126069513Y-116284407D01*
X126087111Y-116259537D01*
X126085594Y-116252042D01*
X125943808Y-116252042D01*
X125930646Y-116265724D01*
X125888201Y-116293841D01*
X125822147Y-116333359D01*
X125738153Y-116381244D01*
X125641894Y-116434461D01*
X125539039Y-116489975D01*
X125435262Y-116544752D01*
X125336234Y-116595757D01*
X125247627Y-116639955D01*
X125175113Y-116674313D01*
X125124364Y-116695794D01*
X125103431Y-116701664D01*
X125061436Y-116697132D01*
X125000242Y-116683844D01*
X124966584Y-116674594D01*
X124898324Y-116647434D01*
X124844061Y-116606019D01*
X124798293Y-116552774D01*
X124761227Y-116502853D01*
X124737292Y-116466989D01*
X124731781Y-116454245D01*
X124751444Y-116447598D01*
X124802568Y-116432537D01*
X124878891Y-116410847D01*
X124974151Y-116384313D01*
X125057718Y-116361360D01*
X125165590Y-116331411D01*
X125261448Y-116303866D01*
X125338410Y-116280776D01*
X125389595Y-116264192D01*
X125406836Y-116257312D01*
X125446335Y-116251664D01*
X125490290Y-116261533D01*
X125544548Y-116272120D01*
X125583612Y-116258287D01*
X125619453Y-116247251D01*
X125679108Y-116239517D01*
X125751407Y-116235277D01*
X125825182Y-116234725D01*
X125889262Y-116238055D01*
X125932477Y-116245461D01*
X125943808Y-116252042D01*
X126085594Y-116252042D01*
X126080024Y-116224539D01*
X126032846Y-116224539D01*
X126029176Y-116249249D01*
X126009841Y-116250524D01*
X125985598Y-116241987D01*
X125965987Y-116227457D01*
X125537431Y-116227457D01*
X125517179Y-116234147D01*
X125507700Y-116234308D01*
X125479492Y-116224539D01*
X125409653Y-116224539D01*
X125390215Y-116234445D01*
X125340382Y-116252463D01*
X125267457Y-116276418D01*
X125178744Y-116304135D01*
X125081546Y-116333438D01*
X124983166Y-116362153D01*
X124890909Y-116388104D01*
X124812077Y-116409117D01*
X124753973Y-116423016D01*
X124728235Y-116427477D01*
X124702449Y-116413332D01*
X124684730Y-116385731D01*
X124673076Y-116351020D01*
X124655944Y-116291705D01*
X124636173Y-116218705D01*
X124616604Y-116142938D01*
X124600077Y-116075321D01*
X124589432Y-116026771D01*
X124587000Y-116010026D01*
X124604942Y-116003996D01*
X124652787Y-116001474D01*
X124721562Y-116002002D01*
X124802295Y-116005122D01*
X124886012Y-116010375D01*
X124963743Y-116017303D01*
X125026515Y-116025448D01*
X125065354Y-116034350D01*
X125065692Y-116034481D01*
X125124622Y-116054463D01*
X125173154Y-116067123D01*
X125216529Y-116082785D01*
X125271249Y-116111626D01*
X125327464Y-116147091D01*
X125375322Y-116182621D01*
X125404975Y-116211662D01*
X125409653Y-116224539D01*
X125479492Y-116224539D01*
X125474011Y-116222641D01*
X125466231Y-116205000D01*
X125475510Y-116178981D01*
X125483377Y-116175692D01*
X125508840Y-116189060D01*
X125524846Y-116205000D01*
X125537431Y-116227457D01*
X125965987Y-116227457D01*
X125957193Y-116220942D01*
X125964131Y-116201576D01*
X125993769Y-116195231D01*
X126025593Y-116207448D01*
X126032846Y-116224539D01*
X126080024Y-116224539D01*
X126079687Y-116222879D01*
X126053478Y-116192188D01*
X126002647Y-116164688D01*
X125951464Y-116157487D01*
X125913139Y-116171178D01*
X125903143Y-116185462D01*
X125877870Y-116202710D01*
X125825462Y-116213211D01*
X125757257Y-116217062D01*
X125684593Y-116214363D01*
X125618807Y-116205213D01*
X125571236Y-116189710D01*
X125560625Y-116182477D01*
X125518796Y-116161133D01*
X125458976Y-116148058D01*
X125441856Y-116146740D01*
X125368881Y-116132330D01*
X125290375Y-116099365D01*
X125219155Y-116055046D01*
X125168035Y-116006571D01*
X125162033Y-115996828D01*
X125110285Y-115996828D01*
X125104514Y-116016240D01*
X125084215Y-116016366D01*
X125049949Y-115997627D01*
X125040638Y-115983326D01*
X125046409Y-115963914D01*
X125066708Y-115963788D01*
X125100974Y-115982527D01*
X125110285Y-115996828D01*
X125162033Y-115996828D01*
X125155177Y-115985702D01*
X125118497Y-115945806D01*
X125087079Y-115932886D01*
X124991441Y-115932886D01*
X124971117Y-115961021D01*
X124925086Y-115975111D01*
X124848078Y-115979909D01*
X124793230Y-115980308D01*
X124700389Y-115978697D01*
X124639273Y-115973158D01*
X124602638Y-115962628D01*
X124586140Y-115949964D01*
X124577003Y-115922829D01*
X124567781Y-115869009D01*
X124559212Y-115797891D01*
X124552033Y-115718862D01*
X124546980Y-115641312D01*
X124544790Y-115574626D01*
X124546201Y-115528194D01*
X124551709Y-115511385D01*
X124573166Y-115517239D01*
X124621862Y-115532731D01*
X124688094Y-115554757D01*
X124702044Y-115559487D01*
X124815823Y-115607966D01*
X124896509Y-115666978D01*
X124949728Y-115741779D01*
X124976045Y-115815479D01*
X124991327Y-115885956D01*
X124991441Y-115932886D01*
X125087079Y-115932886D01*
X125077461Y-115928931D01*
X125035669Y-115912749D01*
X125014269Y-115877590D01*
X125007714Y-115849835D01*
X124996063Y-115795730D01*
X124984963Y-115756011D01*
X124984302Y-115754228D01*
X124988985Y-115731214D01*
X125013603Y-115726308D01*
X125056717Y-115715660D01*
X125067226Y-115687874D01*
X125062697Y-115680380D01*
X125009893Y-115680380D01*
X124989641Y-115687070D01*
X124980162Y-115687231D01*
X124946473Y-115675564D01*
X124938692Y-115657923D01*
X124947971Y-115631904D01*
X124955838Y-115628616D01*
X124981302Y-115641983D01*
X124997308Y-115657923D01*
X125009893Y-115680380D01*
X125062697Y-115680380D01*
X125043843Y-115649183D01*
X125031861Y-115637941D01*
X124981999Y-115595051D01*
X125033615Y-115513162D01*
X125068368Y-115463623D01*
X125096816Y-115441707D01*
X125129767Y-115439911D01*
X125137257Y-115441192D01*
X125190250Y-115440236D01*
X125217170Y-115417808D01*
X125217072Y-115416946D01*
X125058425Y-115416946D01*
X125038017Y-115468863D01*
X125003693Y-115523281D01*
X124962799Y-115568143D01*
X124929818Y-115589231D01*
X124893553Y-115589658D01*
X124832204Y-115577919D01*
X124756651Y-115557136D01*
X124677771Y-115530431D01*
X124606443Y-115500927D01*
X124584525Y-115490126D01*
X124565896Y-115459848D01*
X124565621Y-115403990D01*
X124582139Y-115330591D01*
X124613888Y-115247692D01*
X124642540Y-115191478D01*
X124683999Y-115122218D01*
X124718125Y-115083173D01*
X124752949Y-115073615D01*
X124796503Y-115092813D01*
X124856816Y-115140037D01*
X124890137Y-115168983D01*
X124949867Y-115223869D01*
X124997556Y-115272270D01*
X125025756Y-115306435D01*
X125029923Y-115314419D01*
X125047286Y-115358588D01*
X125057569Y-115379587D01*
X125058425Y-115416946D01*
X125217072Y-115416946D01*
X125214404Y-115393541D01*
X125173154Y-115393541D01*
X125160911Y-115412283D01*
X125125165Y-115400939D01*
X125115104Y-115394917D01*
X125097020Y-115373463D01*
X125099608Y-115363495D01*
X125127462Y-115357875D01*
X125159409Y-115371589D01*
X125173154Y-115393541D01*
X125214404Y-115393541D01*
X125213017Y-115381383D01*
X125194000Y-115356384D01*
X125150298Y-115326458D01*
X125111909Y-115316000D01*
X125076592Y-115302335D01*
X125023939Y-115265341D01*
X124962436Y-115211017D01*
X124959707Y-115208370D01*
X124900575Y-115152307D01*
X124846499Y-115103691D01*
X124808042Y-115071978D01*
X124804603Y-115069494D01*
X124759993Y-115038248D01*
X124803903Y-114991508D01*
X124842513Y-114958954D01*
X124875217Y-114944789D01*
X124876061Y-114944769D01*
X124898100Y-114955436D01*
X124948610Y-114985820D01*
X125023866Y-115033498D01*
X125120138Y-115096045D01*
X125233701Y-115171038D01*
X125360827Y-115256052D01*
X125497790Y-115348665D01*
X125512540Y-115358697D01*
X125697453Y-115484442D01*
X125852824Y-115590092D01*
X125981279Y-115677742D01*
X126085442Y-115749484D01*
X126167938Y-115807411D01*
X126231393Y-115853618D01*
X126278432Y-115890198D01*
X126311679Y-115919243D01*
X126333759Y-115942848D01*
X126347299Y-115963106D01*
X126354922Y-115982109D01*
X126359255Y-116001953D01*
X126362921Y-116024729D01*
X126365536Y-116038923D01*
X126379229Y-116104558D01*
X126391093Y-116157681D01*
X126396245Y-116178291D01*
X126526865Y-116178291D01*
X126495991Y-116043973D01*
X126476293Y-115960884D01*
X126459126Y-115893258D01*
X126446656Y-115849346D01*
X126441691Y-115836941D01*
X126421003Y-115822197D01*
X126371878Y-115788333D01*
X126298286Y-115738036D01*
X126204199Y-115673988D01*
X126093589Y-115598873D01*
X125970428Y-115515377D01*
X125838687Y-115426181D01*
X125702337Y-115333972D01*
X125565351Y-115241432D01*
X125431700Y-115151245D01*
X125305355Y-115066096D01*
X125190288Y-114988669D01*
X125090471Y-114921647D01*
X125009875Y-114867715D01*
X124952472Y-114829557D01*
X124922234Y-114809856D01*
X124919049Y-114807944D01*
X124876779Y-114798236D01*
X124824855Y-114816016D01*
D14*
X147318000Y-100595000D02*
X146968000Y-100595000D01*
X146968000Y-100595000D02*
X146968000Y-102095000D01*
X151968000Y-100595000D02*
X148768000Y-100595000D01*
X153768000Y-102095000D02*
X153768000Y-100595000D01*
X153768000Y-100595000D02*
X153368000Y-100595000D01*
D15*
X151129905Y-109942381D02*
X151129905Y-110751905D01*
X151082286Y-110847143D01*
X151034667Y-110894762D01*
X150939429Y-110942381D01*
X150748952Y-110942381D01*
X150653714Y-110894762D01*
X150606095Y-110847143D01*
X150558476Y-110751905D01*
X150558476Y-109942381D01*
X150129905Y-110037619D02*
X150082286Y-109990000D01*
X149987048Y-109942381D01*
X149748952Y-109942381D01*
X149653714Y-109990000D01*
X149606095Y-110037619D01*
X149558476Y-110132857D01*
X149558476Y-110228095D01*
X149606095Y-110370952D01*
X150177524Y-110942381D01*
X149558476Y-110942381D01*
%LPC*%
D16*
X156718000Y-75565000D03*
X159258000Y-75565000D03*
X161798000Y-75565000D03*
X164338000Y-75565000D03*
X166878000Y-75565000D03*
X169418000Y-75565000D03*
X171958000Y-75565000D03*
X174498000Y-75565000D03*
X129794000Y-75565000D03*
X132334000Y-75565000D03*
X134874000Y-75565000D03*
X137414000Y-75565000D03*
X139954000Y-75565000D03*
X142494000Y-75565000D03*
X145034000Y-75565000D03*
X147574000Y-75565000D03*
X150114000Y-75565000D03*
X152654000Y-75565000D03*
X161798000Y-123825000D03*
X164338000Y-123825000D03*
X166878000Y-123825000D03*
X169418000Y-123825000D03*
X171958000Y-123825000D03*
X174498000Y-123825000D03*
X138938000Y-123825000D03*
X141478000Y-123825000D03*
X144018000Y-123825000D03*
X146558000Y-123825000D03*
X149098000Y-123825000D03*
X151638000Y-123825000D03*
X154178000Y-123825000D03*
X156718000Y-123825000D03*
D17*
X114808000Y-75565000D03*
D18*
X117348000Y-75565000D03*
X119888000Y-75565000D03*
X122428000Y-75565000D03*
D17*
X126873000Y-83185000D03*
D18*
X126873000Y-85725000D03*
X126873000Y-88265000D03*
D17*
X164338000Y-89535000D03*
D18*
X164338000Y-92075000D03*
X164338000Y-94615000D03*
D17*
X166878000Y-89535000D03*
D18*
X166878000Y-92075000D03*
X166878000Y-94615000D03*
D17*
X169418000Y-89535000D03*
D18*
X169418000Y-92075000D03*
X169418000Y-94615000D03*
D19*
X148068000Y-98295000D03*
X152648000Y-98295000D03*
D20*
X150368000Y-105695000D03*
D21*
X137968000Y-115570000D03*
D22*
X139018000Y-115570000D03*
X136318000Y-115570000D03*
D21*
X137368000Y-115570000D03*
D23*
X137668000Y-115570000D03*
D21*
X137968000Y-109855000D03*
D22*
X139018000Y-109855000D03*
X136318000Y-109855000D03*
D21*
X137368000Y-109855000D03*
D23*
X137668000Y-109855000D03*
D21*
X137968000Y-111760000D03*
D22*
X139018000Y-111760000D03*
X136318000Y-111760000D03*
D21*
X137368000Y-111760000D03*
D23*
X137668000Y-111760000D03*
D21*
X137968000Y-113665000D03*
D22*
X139018000Y-113665000D03*
X136318000Y-113665000D03*
D21*
X137368000Y-113665000D03*
D23*
X137668000Y-113665000D03*
D24*
X121158000Y-109940000D03*
X119158000Y-109940000D03*
X123158000Y-109940000D03*
D25*
X130008000Y-100965000D03*
X130008000Y-98965000D03*
X130008000Y-102965000D03*
D26*
X127157988Y-94965012D03*
X115158012Y-106964988D03*
D27*
X130048000Y-119583200D03*
X130048000Y-122986800D03*
D28*
X126238000Y-75565000D03*
X177038000Y-90805000D03*
X177038000Y-118745000D03*
X124968000Y-123825000D03*
D29*
X166878000Y-112435000D03*
D30*
X166878000Y-117435000D03*
X166878000Y-115935000D03*
D29*
X166878000Y-102275000D03*
D30*
X166878000Y-107275000D03*
X166878000Y-105775000D03*
M02*
