G04 #@! TF.FileFunction,Soldermask,Bot*
%FSLAX46Y46*%
G04 Gerber Fmt 4.6, Leading zero omitted, Abs format (unit mm)*
G04 Created by KiCad (PCBNEW 4.0.7-e1-6374~58~ubuntu16.04.1) date Sat Aug 26 00:48:47 2017*
%MOMM*%
%LPD*%
G01*
G04 APERTURE LIST*
%ADD10C,0.100000*%
%ADD11O,1.727200X2.032000*%
%ADD12R,1.700000X1.700000*%
%ADD13O,1.700000X1.700000*%
%ADD14C,2.400000*%
%ADD15R,2.400000X2.400000*%
%ADD16R,2.000000X3.500000*%
%ADD17R,7.000000X7.000000*%
%ADD18R,0.600000X0.152400*%
%ADD19R,1.500000X1.300000*%
%ADD20R,1.524000X1.524000*%
%ADD21C,1.600000*%
%ADD22O,1.500000X3.000000*%
%ADD23O,3.000000X1.500000*%
%ADD24C,1.599946*%
G04 APERTURE END LIST*
D10*
D11*
X156718000Y-75565000D03*
X159258000Y-75565000D03*
X161798000Y-75565000D03*
X164338000Y-75565000D03*
X166878000Y-75565000D03*
X169418000Y-75565000D03*
X171958000Y-75565000D03*
X174498000Y-75565000D03*
X129794000Y-75565000D03*
X132334000Y-75565000D03*
X134874000Y-75565000D03*
X137414000Y-75565000D03*
X139954000Y-75565000D03*
X142494000Y-75565000D03*
X145034000Y-75565000D03*
X147574000Y-75565000D03*
X150114000Y-75565000D03*
X152654000Y-75565000D03*
X161798000Y-123825000D03*
X164338000Y-123825000D03*
X166878000Y-123825000D03*
X169418000Y-123825000D03*
X171958000Y-123825000D03*
X174498000Y-123825000D03*
X138938000Y-123825000D03*
X141478000Y-123825000D03*
X144018000Y-123825000D03*
X146558000Y-123825000D03*
X149098000Y-123825000D03*
X151638000Y-123825000D03*
X154178000Y-123825000D03*
X156718000Y-123825000D03*
D12*
X114808000Y-75565000D03*
D13*
X117348000Y-75565000D03*
X119888000Y-75565000D03*
X122428000Y-75565000D03*
D12*
X126873000Y-83185000D03*
D13*
X126873000Y-85725000D03*
X126873000Y-88265000D03*
D12*
X163068000Y-80645000D03*
D13*
X163068000Y-83185000D03*
X163068000Y-85725000D03*
D12*
X165608000Y-80645000D03*
D13*
X165608000Y-83185000D03*
X165608000Y-85725000D03*
D12*
X168148000Y-80645000D03*
D13*
X168148000Y-83185000D03*
X168148000Y-85725000D03*
D14*
X165608000Y-103500000D03*
D15*
X165608000Y-108500000D03*
D14*
X165608000Y-113705000D03*
D15*
X165608000Y-118705000D03*
D16*
X148068000Y-98295000D03*
X152648000Y-98295000D03*
D17*
X150368000Y-105695000D03*
D18*
X137968000Y-115570000D03*
D19*
X139018000Y-115570000D03*
X136318000Y-115570000D03*
D18*
X137368000Y-115570000D03*
D20*
X137668000Y-115570000D03*
D18*
X137968000Y-109855000D03*
D19*
X139018000Y-109855000D03*
X136318000Y-109855000D03*
D18*
X137368000Y-109855000D03*
D20*
X137668000Y-109855000D03*
D18*
X137968000Y-111760000D03*
D19*
X139018000Y-111760000D03*
X136318000Y-111760000D03*
D18*
X137368000Y-111760000D03*
D20*
X137668000Y-111760000D03*
D18*
X137968000Y-113665000D03*
D19*
X139018000Y-113665000D03*
X136318000Y-113665000D03*
D18*
X137368000Y-113665000D03*
D20*
X137668000Y-113665000D03*
D21*
X132588000Y-122555000D03*
X132588000Y-120015000D03*
D22*
X121158000Y-109940000D03*
X119158000Y-109940000D03*
X123158000Y-109940000D03*
D23*
X130008000Y-100965000D03*
X130008000Y-98965000D03*
X130008000Y-102965000D03*
D24*
X127157988Y-94965012D03*
X115158012Y-106964988D03*
M02*
