G04 #@! TF.FileFunction,Paste,Top*
%FSLAX46Y46*%
G04 Gerber Fmt 4.6, Leading zero omitted, Abs format (unit mm)*
G04 Created by KiCad (PCBNEW 4.0.7-e1-6374~58~ubuntu16.04.1) date Sat Aug 26 01:38:44 2017*
%MOMM*%
%LPD*%
G01*
G04 APERTURE LIST*
%ADD10C,0.100000*%
%ADD11R,1.000000X1.600000*%
%ADD12R,1.300000X1.500000*%
%ADD13R,1.550000X1.300000*%
%ADD14R,1.500000X1.300000*%
%ADD15R,0.700000X1.000000*%
%ADD16R,1.800860X3.500120*%
%ADD17R,1.250000X1.500000*%
%ADD18R,1.500000X1.250000*%
%ADD19R,1.600000X2.600000*%
G04 APERTURE END LIST*
D10*
D11*
X133528000Y-88225000D03*
X136728000Y-88225000D03*
X133528000Y-83225000D03*
X136728000Y-83225000D03*
D12*
X119888000Y-122635000D03*
X119888000Y-119935000D03*
D13*
X138768000Y-103215000D03*
X138768000Y-98715000D03*
X146728000Y-98715000D03*
X146728000Y-103215000D03*
D14*
X164258000Y-90170000D03*
X166958000Y-90170000D03*
X164258000Y-97790000D03*
X166958000Y-97790000D03*
X166958000Y-93980000D03*
X164258000Y-93980000D03*
D12*
X114808000Y-122635000D03*
X114808000Y-119935000D03*
X124968000Y-119935000D03*
X124968000Y-122635000D03*
D15*
X172273000Y-95220000D03*
X171323000Y-95220000D03*
X170373000Y-95220000D03*
X170373000Y-97820000D03*
X172273000Y-97820000D03*
X171323000Y-97820000D03*
D16*
X157988000Y-108544360D03*
X157988000Y-103545640D03*
X157988000Y-118704360D03*
X157988000Y-113705640D03*
D17*
X114808000Y-83205000D03*
X114808000Y-85705000D03*
X121158000Y-83205000D03*
X121158000Y-85705000D03*
X155448000Y-83205000D03*
X155448000Y-85705000D03*
X141478000Y-83205000D03*
X141478000Y-85705000D03*
X135128000Y-102215000D03*
X135128000Y-99715000D03*
D18*
X122408000Y-114935000D03*
X119908000Y-114935000D03*
D17*
X147828000Y-93325000D03*
X147828000Y-90825000D03*
D19*
X151638000Y-93875000D03*
X151638000Y-90275000D03*
X151638000Y-82655000D03*
X151638000Y-86255000D03*
M02*
