G04 #@! TF.FileFunction,Copper,L1,Top,Signal*
%FSLAX46Y46*%
G04 Gerber Fmt 4.6, Leading zero omitted, Abs format (unit mm)*
G04 Created by KiCad (PCBNEW 4.0.7-e2-6376~58~ubuntu16.04.1) date Tue Sep  5 21:03:57 2017*
%MOMM*%
%LPD*%
G01*
G04 APERTURE LIST*
%ADD10C,0.100000*%
%ADD11R,1.600000X2.600000*%
%ADD12R,1.000000X1.600000*%
%ADD13R,1.300000X1.500000*%
%ADD14R,1.500000X1.300000*%
%ADD15R,0.700000X1.000000*%
%ADD16O,1.727200X2.032000*%
%ADD17R,1.700000X1.700000*%
%ADD18O,1.700000X1.700000*%
%ADD19R,1.800860X3.500120*%
%ADD20R,1.500000X1.250000*%
%ADD21R,1.250000X1.500000*%
%ADD22C,1.600000*%
%ADD23C,2.400000*%
%ADD24R,2.400000X2.400000*%
%ADD25R,1.200000X1.200000*%
%ADD26R,1.600000X1.600000*%
%ADD27R,1.200000X0.200000*%
%ADD28C,0.600000*%
%ADD29C,0.750000*%
%ADD30C,0.250000*%
%ADD31C,0.120000*%
G04 APERTURE END LIST*
D10*
D11*
X155448000Y-91545000D03*
X155448000Y-95145000D03*
D12*
X148768000Y-87590000D03*
X151968000Y-87590000D03*
X148768000Y-82590000D03*
X151968000Y-82590000D03*
D13*
X121158000Y-119935000D03*
X121158000Y-122635000D03*
X174498000Y-83265000D03*
X174498000Y-80565000D03*
X165608000Y-83265000D03*
X165608000Y-80565000D03*
X162433000Y-83265000D03*
X162433000Y-80565000D03*
X116078000Y-119935000D03*
X116078000Y-122635000D03*
D14*
X138223000Y-120015000D03*
X140923000Y-120015000D03*
D15*
X171003000Y-80615000D03*
X170053000Y-80615000D03*
X169103000Y-80615000D03*
X169103000Y-83215000D03*
X171003000Y-83215000D03*
X170053000Y-83215000D03*
D16*
X156718000Y-75565000D03*
X159258000Y-75565000D03*
X161798000Y-75565000D03*
X164338000Y-75565000D03*
X166878000Y-75565000D03*
X169418000Y-75565000D03*
X171958000Y-75565000D03*
X174498000Y-75565000D03*
X129794000Y-75565000D03*
X132334000Y-75565000D03*
X134874000Y-75565000D03*
X137414000Y-75565000D03*
X139954000Y-75565000D03*
X142494000Y-75565000D03*
X145034000Y-75565000D03*
X147574000Y-75565000D03*
X150114000Y-75565000D03*
X152654000Y-75565000D03*
X161798000Y-123825000D03*
X164338000Y-123825000D03*
X166878000Y-123825000D03*
X169418000Y-123825000D03*
X171958000Y-123825000D03*
X174498000Y-123825000D03*
X138938000Y-123825000D03*
X141478000Y-123825000D03*
X144018000Y-123825000D03*
X146558000Y-123825000D03*
X149098000Y-123825000D03*
X151638000Y-123825000D03*
X154178000Y-123825000D03*
X156718000Y-123825000D03*
D17*
X114808000Y-75565000D03*
D18*
X117348000Y-75565000D03*
X119888000Y-75565000D03*
X122428000Y-75565000D03*
D17*
X142113000Y-82550000D03*
D18*
X142113000Y-85090000D03*
X142113000Y-87630000D03*
D17*
X164338000Y-89535000D03*
D18*
X164338000Y-92075000D03*
X164338000Y-94615000D03*
D17*
X166878000Y-89535000D03*
D18*
X166878000Y-92075000D03*
X166878000Y-94615000D03*
D17*
X169418000Y-89535000D03*
D18*
X169418000Y-92075000D03*
X169418000Y-94615000D03*
D19*
X157988000Y-107274360D03*
X157988000Y-102275640D03*
X157988000Y-117434360D03*
X157988000Y-112435640D03*
D20*
X117368000Y-81280000D03*
X119868000Y-81280000D03*
D21*
X145288000Y-83840000D03*
X145288000Y-86340000D03*
X159893000Y-92095000D03*
X159893000Y-94595000D03*
X155448000Y-83840000D03*
X155448000Y-86340000D03*
X142113000Y-99715000D03*
X142113000Y-102215000D03*
D20*
X128798000Y-114300000D03*
X131298000Y-114300000D03*
D21*
X145923000Y-99715000D03*
X145923000Y-102215000D03*
D11*
X150368000Y-99165000D03*
X150368000Y-102765000D03*
D22*
X130048000Y-119583200D03*
X130048000Y-122986800D03*
D23*
X166878000Y-112435000D03*
D24*
X166878000Y-117435000D03*
X166878000Y-115935000D03*
D23*
X166878000Y-102275000D03*
D24*
X166878000Y-107275000D03*
X166878000Y-105775000D03*
D25*
X133493000Y-123085000D03*
X135493000Y-123085000D03*
D26*
X134493000Y-119785000D03*
D27*
X133893000Y-123585000D03*
X135093000Y-123585000D03*
D22*
X116028000Y-102945000D03*
X116028000Y-96445000D03*
X120528000Y-96445000D03*
X120528000Y-102945000D03*
X138428000Y-102195000D03*
X138428000Y-99695000D03*
X138428000Y-97195000D03*
X131278000Y-109695000D03*
X128778000Y-109695000D03*
X126278000Y-109695000D03*
D28*
X150368000Y-105695000D03*
X121793000Y-81915000D03*
X152908000Y-85090000D03*
X145923000Y-103505000D03*
X116078000Y-124460000D03*
X142113000Y-120015000D03*
X174498000Y-85090000D03*
X165608000Y-85090000D03*
X170053000Y-81915000D03*
X145923000Y-97790000D03*
X161798000Y-120015000D03*
X134493000Y-113665000D03*
X163068000Y-118745000D03*
X134493000Y-111760000D03*
X134493000Y-117475000D03*
X134493000Y-115570000D03*
X154813000Y-98425000D03*
D29*
X151968000Y-82590000D02*
X151968000Y-81610000D01*
X151968000Y-81610000D02*
X151003000Y-80645000D01*
X151003000Y-80645000D02*
X147193000Y-80645000D01*
X147193000Y-80645000D02*
X145288000Y-82550000D01*
X142113000Y-82550000D02*
X145288000Y-82550000D01*
X145288000Y-83840000D02*
X145288000Y-82550000D01*
X138428000Y-83695000D02*
X139573000Y-82550000D01*
X139573000Y-82550000D02*
X142113000Y-82550000D01*
X138428000Y-97195000D02*
X138428000Y-83695000D01*
X113538000Y-78435000D02*
X113538000Y-81280000D01*
X113538000Y-81280000D02*
X113538000Y-116205000D01*
X117368000Y-81280000D02*
X113538000Y-81280000D01*
X113538000Y-116205000D02*
X114173000Y-116840000D01*
X114173000Y-116840000D02*
X121158000Y-116840000D01*
X114808000Y-75565000D02*
X114808000Y-77165000D01*
X114808000Y-77165000D02*
X113538000Y-78435000D01*
X144018000Y-116205000D02*
X149098000Y-121285000D01*
X149098000Y-121285000D02*
X149098000Y-123825000D01*
X144018000Y-98425000D02*
X144018000Y-116205000D01*
X142788000Y-97195000D02*
X144018000Y-98425000D01*
X138428000Y-97195000D02*
X142788000Y-97195000D01*
X151968000Y-82590000D02*
X153218000Y-82590000D01*
X153218000Y-82590000D02*
X154468000Y-83840000D01*
X154468000Y-83840000D02*
X155448000Y-83840000D01*
X126278000Y-109695000D02*
X126278000Y-105410000D01*
X126278000Y-105410000D02*
X126278000Y-99020000D01*
X126278000Y-99020000D02*
X128103000Y-97195000D01*
X126278000Y-109695000D02*
X123223000Y-109695000D01*
X123223000Y-109695000D02*
X121158000Y-111760000D01*
X121158000Y-111760000D02*
X121158000Y-116840000D01*
X138428000Y-97195000D02*
X128103000Y-97195000D01*
X130048000Y-119583200D02*
X130048000Y-118110000D01*
X128778000Y-116840000D02*
X121158000Y-116840000D01*
X130048000Y-118110000D02*
X128778000Y-116840000D01*
X121158000Y-119935000D02*
X121158000Y-116840000D01*
X148768000Y-87590000D02*
X148768000Y-88595000D01*
X148768000Y-88595000D02*
X148463000Y-88900000D01*
X148463000Y-88900000D02*
X146558000Y-88900000D01*
X146558000Y-88900000D02*
X145288000Y-87630000D01*
X142113000Y-87630000D02*
X145288000Y-87630000D01*
X145288000Y-86340000D02*
X145288000Y-87630000D01*
X150368000Y-102765000D02*
X150368000Y-105695000D01*
X119868000Y-81280000D02*
X121158000Y-81280000D01*
X121158000Y-81280000D02*
X121793000Y-81915000D01*
X154793000Y-86340000D02*
X153543000Y-85090000D01*
X153543000Y-85090000D02*
X152908000Y-85090000D01*
X155448000Y-86340000D02*
X154793000Y-86340000D01*
X145923000Y-102215000D02*
X145923000Y-103505000D01*
X158373000Y-96520000D02*
X159893000Y-96520000D01*
X159893000Y-96520000D02*
X161163000Y-96520000D01*
X159893000Y-94595000D02*
X159893000Y-96520000D01*
X161163000Y-96520000D02*
X163068000Y-94615000D01*
X163068000Y-94615000D02*
X164338000Y-94615000D01*
X155448000Y-95145000D02*
X156998000Y-95145000D01*
X156998000Y-95145000D02*
X158373000Y-96520000D01*
X131278000Y-109695000D02*
X131278000Y-114280000D01*
X131278000Y-114280000D02*
X131298000Y-114300000D01*
X116078000Y-124460000D02*
X116078000Y-122635000D01*
X131298000Y-109965000D02*
X131278000Y-109945000D01*
X142113000Y-102215000D02*
X138448000Y-102215000D01*
X138448000Y-102215000D02*
X138428000Y-102195000D01*
X142113000Y-120015000D02*
X140923000Y-120015000D01*
X166243000Y-85090000D02*
X165608000Y-85090000D01*
X166878000Y-84455000D02*
X166243000Y-85090000D01*
X166878000Y-82550000D02*
X166878000Y-84455000D01*
X167513000Y-81915000D02*
X166878000Y-82550000D01*
X170053000Y-81915000D02*
X167513000Y-81915000D01*
X173228000Y-82550000D02*
X173228000Y-84455000D01*
X172593000Y-81915000D02*
X173228000Y-82550000D01*
X170053000Y-81915000D02*
X172593000Y-81915000D01*
X173228000Y-84455000D02*
X173863000Y-85090000D01*
X173863000Y-85090000D02*
X174498000Y-85090000D01*
X165608000Y-83265000D02*
X165608000Y-85090000D01*
X174498000Y-85090000D02*
X174498000Y-83265000D01*
X170053000Y-80615000D02*
X170053000Y-81915000D01*
X170053000Y-81915000D02*
X170053000Y-83215000D01*
X147828000Y-116205000D02*
X149057360Y-117434360D01*
X149057360Y-117434360D02*
X157988000Y-117434360D01*
X147828000Y-98425000D02*
X147828000Y-116205000D01*
X147193000Y-97790000D02*
X147828000Y-98425000D01*
X145923000Y-97790000D02*
X147193000Y-97790000D01*
X145923000Y-99715000D02*
X145923000Y-97790000D01*
X166878000Y-117435000D02*
X166878000Y-115935000D01*
X157988000Y-117434360D02*
X157988000Y-121285000D01*
X156718000Y-122555000D02*
X156718000Y-123825000D01*
X157988000Y-121285000D02*
X156718000Y-122555000D01*
X166878000Y-117435000D02*
X157988640Y-117435000D01*
X157988640Y-117435000D02*
X157988000Y-117434360D01*
D30*
X128778000Y-109695000D02*
X128778000Y-114280000D01*
X128778000Y-114280000D02*
X128798000Y-114300000D01*
X128778000Y-109695000D02*
X128778000Y-108585000D01*
X161798000Y-120015000D02*
X161798000Y-123825000D01*
X129413000Y-107950000D02*
X132588000Y-107950000D01*
X133223000Y-108585000D02*
X132588000Y-107950000D01*
X133223000Y-113030000D02*
X133223000Y-108585000D01*
X133858000Y-113665000D02*
X133223000Y-113030000D01*
X134493000Y-113665000D02*
X133858000Y-113665000D01*
X128778000Y-108585000D02*
X129413000Y-107950000D01*
X128798000Y-109965000D02*
X128778000Y-109945000D01*
X164338000Y-120015000D02*
X164338000Y-123825000D01*
X163068000Y-118745000D02*
X164338000Y-120015000D01*
X136398000Y-100330000D02*
X137033000Y-99695000D01*
X137033000Y-99695000D02*
X138428000Y-99695000D01*
X136398000Y-104140000D02*
X136398000Y-100330000D01*
X137668000Y-105410000D02*
X136398000Y-104140000D01*
X137668000Y-109220000D02*
X137668000Y-105410000D01*
X137033000Y-109855000D02*
X137668000Y-109220000D01*
X135128000Y-109855000D02*
X137033000Y-109855000D01*
X134493000Y-110490000D02*
X135128000Y-109855000D01*
X134493000Y-111760000D02*
X134493000Y-110490000D01*
X142113000Y-99715000D02*
X138448000Y-99715000D01*
X138448000Y-99715000D02*
X138428000Y-99695000D01*
X133493000Y-123085000D02*
X133493000Y-122190000D01*
X133493000Y-122190000D02*
X132842000Y-121539000D01*
X132842000Y-121539000D02*
X132842000Y-119126000D01*
X132842000Y-119126000D02*
X134493000Y-117475000D01*
X133493000Y-123085000D02*
X132051200Y-123085000D01*
X132051200Y-123085000D02*
X131953000Y-122986800D01*
X131953000Y-122986800D02*
X130048000Y-122986800D01*
D31*
X133493000Y-123085000D02*
X133493000Y-123185000D01*
X133493000Y-123185000D02*
X133893000Y-123585000D01*
X135093000Y-123585000D02*
X133893000Y-123585000D01*
X135493000Y-123085000D02*
X135493000Y-123185000D01*
X135493000Y-123185000D02*
X135093000Y-123585000D01*
D30*
X134493000Y-119785000D02*
X135543000Y-119785000D01*
X135543000Y-119785000D02*
X135773000Y-120015000D01*
X135773000Y-120015000D02*
X137033000Y-120015000D01*
X135493000Y-123085000D02*
X136343000Y-123085000D01*
X136343000Y-123085000D02*
X137033000Y-122395000D01*
X137033000Y-122395000D02*
X137033000Y-120015000D01*
X137033000Y-120015000D02*
X138223000Y-120015000D01*
X124333000Y-120650000D02*
X122348000Y-122635000D01*
X122348000Y-122635000D02*
X121158000Y-122635000D01*
X127508000Y-120650000D02*
X124333000Y-120650000D01*
X128143000Y-121285000D02*
X127508000Y-120650000D01*
X131318000Y-121285000D02*
X128143000Y-121285000D01*
X131953000Y-120650000D02*
X131318000Y-121285000D01*
X131953000Y-116205000D02*
X131953000Y-120650000D01*
X132588000Y-115570000D02*
X131953000Y-116205000D01*
X134493000Y-115570000D02*
X132588000Y-115570000D01*
X121158000Y-122635000D02*
X119968000Y-122635000D01*
X117268000Y-119935000D02*
X119968000Y-122635000D01*
X117268000Y-119935000D02*
X116078000Y-119935000D01*
X132334000Y-75565000D02*
X132334000Y-77089000D01*
X132334000Y-77089000D02*
X129413000Y-80010000D01*
X121158000Y-80010000D02*
X119888000Y-78740000D01*
X129413000Y-80010000D02*
X121158000Y-80010000D01*
X119888000Y-78740000D02*
X119888000Y-75565000D01*
X129794000Y-75565000D02*
X129794000Y-77724000D01*
X129794000Y-77724000D02*
X128778000Y-78740000D01*
X122428000Y-78740000D02*
X121158000Y-77470000D01*
X128778000Y-78740000D02*
X122428000Y-78740000D01*
X121158000Y-74295000D02*
X120523000Y-73660000D01*
X121158000Y-77470000D02*
X121158000Y-74295000D01*
X117983000Y-73660000D02*
X117348000Y-74295000D01*
X117348000Y-74295000D02*
X117348000Y-75565000D01*
X120523000Y-73660000D02*
X117983000Y-73660000D01*
X162433000Y-80565000D02*
X162433000Y-79375000D01*
X150114000Y-74549000D02*
X150114000Y-75565000D01*
X151003000Y-73660000D02*
X150114000Y-74549000D01*
X167513000Y-73660000D02*
X151003000Y-73660000D01*
X168148000Y-74295000D02*
X167513000Y-73660000D01*
X168148000Y-78105000D02*
X168148000Y-74295000D01*
X167513000Y-78740000D02*
X168148000Y-78105000D01*
X163068000Y-78740000D02*
X167513000Y-78740000D01*
X162433000Y-79375000D02*
X163068000Y-78740000D01*
X152654000Y-78105000D02*
X152654000Y-75565000D01*
X157353000Y-87630000D02*
X157353000Y-82804000D01*
X157353000Y-82804000D02*
X152654000Y-78105000D01*
X156718000Y-88265000D02*
X157353000Y-87630000D01*
X153393000Y-88265000D02*
X156718000Y-88265000D01*
X151968000Y-87590000D02*
X152718000Y-87590000D01*
X152718000Y-87590000D02*
X153393000Y-88265000D01*
X164338000Y-89535000D02*
X164338000Y-88265000D01*
X163703000Y-87630000D02*
X159893000Y-87630000D01*
X164338000Y-88265000D02*
X163703000Y-87630000D01*
X159893000Y-87630000D02*
X159258000Y-86995000D01*
X159258000Y-75565000D02*
X159258000Y-86995000D01*
X166878000Y-89535000D02*
X166878000Y-87630000D01*
X166243000Y-86995000D02*
X160528000Y-86995000D01*
X166878000Y-87630000D02*
X166243000Y-86995000D01*
X160528000Y-86995000D02*
X159893000Y-86360000D01*
X159893000Y-78740000D02*
X159893000Y-86360000D01*
X161798000Y-76835000D02*
X159893000Y-78740000D01*
X161798000Y-75565000D02*
X161798000Y-76835000D01*
X169418000Y-89535000D02*
X169418000Y-86995000D01*
X168783000Y-86360000D02*
X161163000Y-86360000D01*
X169418000Y-86995000D02*
X168783000Y-86360000D01*
X161163000Y-86360000D02*
X160528000Y-85725000D01*
X160528000Y-79375000D02*
X160528000Y-85725000D01*
X162433000Y-77470000D02*
X160528000Y-79375000D01*
X166878000Y-75717400D02*
X165125400Y-77470000D01*
X165125400Y-77470000D02*
X162433000Y-77470000D01*
X166878000Y-75565000D02*
X166878000Y-75717400D01*
X171003000Y-80615000D02*
X171003000Y-79055000D01*
X169418000Y-77470000D02*
X169418000Y-75565000D01*
X171003000Y-79055000D02*
X169418000Y-77470000D01*
X174498000Y-80565000D02*
X173308000Y-80565000D01*
X173258000Y-80615000D02*
X171003000Y-80615000D01*
X173308000Y-80565000D02*
X173258000Y-80615000D01*
X141478000Y-78105000D02*
X142494000Y-77089000D01*
X142494000Y-77089000D02*
X142494000Y-75565000D01*
X133223000Y-78105000D02*
X141478000Y-78105000D01*
X130683000Y-80645000D02*
X133223000Y-78105000D01*
X130683000Y-90170000D02*
X130683000Y-80645000D01*
X124408000Y-96445000D02*
X130683000Y-90170000D01*
X120528000Y-96445000D02*
X124408000Y-96445000D01*
X120528000Y-102945000D02*
X120528000Y-96445000D01*
D29*
X154813000Y-105749790D02*
X154813000Y-98425000D01*
X157988000Y-107274360D02*
X156337570Y-107274360D01*
X156337570Y-107274360D02*
X154813000Y-105749790D01*
X150368000Y-93345000D02*
X152168000Y-91545000D01*
X152168000Y-91545000D02*
X155448000Y-91545000D01*
X150368000Y-99165000D02*
X150368000Y-93345000D01*
X154073000Y-99165000D02*
X154813000Y-98425000D01*
X150368000Y-99165000D02*
X154073000Y-99165000D01*
X158373000Y-90170000D02*
X159893000Y-90170000D01*
X159893000Y-90170000D02*
X161163000Y-90170000D01*
X159893000Y-92095000D02*
X159893000Y-90170000D01*
X161163000Y-90170000D02*
X163068000Y-92075000D01*
X163068000Y-92075000D02*
X164338000Y-92075000D01*
X155448000Y-91545000D02*
X156998000Y-91545000D01*
X156998000Y-91545000D02*
X158373000Y-90170000D01*
X166878000Y-107275000D02*
X166878000Y-105775000D01*
X166878000Y-107275000D02*
X157988640Y-107275000D01*
X157988640Y-107275000D02*
X157988000Y-107274360D01*
X166878000Y-92075000D02*
X169418000Y-92075000D01*
X164338000Y-92075000D02*
X166878000Y-92075000D01*
D30*
X147828000Y-85090000D02*
X148768000Y-84150000D01*
X148768000Y-84150000D02*
X148768000Y-82590000D01*
X142113000Y-85090000D02*
X147828000Y-85090000D01*
X165608000Y-80565000D02*
X164799000Y-80565000D01*
X163369000Y-83265000D02*
X162433000Y-83265000D01*
X163957000Y-82677000D02*
X163369000Y-83265000D01*
X163957000Y-81407000D02*
X163957000Y-82677000D01*
X164799000Y-80565000D02*
X163957000Y-81407000D01*
X165608000Y-80565000D02*
X166798000Y-80565000D01*
X166848000Y-80615000D02*
X169103000Y-80615000D01*
X166798000Y-80565000D02*
X166848000Y-80615000D01*
D29*
X172466000Y-110236000D02*
X170267000Y-112435000D01*
X166878000Y-112435000D02*
X157988640Y-112435000D01*
X157988640Y-112435000D02*
X157988000Y-112435640D01*
X166878000Y-112435000D02*
X170267000Y-112435000D01*
X172466000Y-110236000D02*
X172466000Y-85598000D01*
X171003000Y-83215000D02*
X171003000Y-84135000D01*
X172466000Y-85598000D02*
X171003000Y-84135000D01*
X166878000Y-102275000D02*
X157988640Y-102275000D01*
X157988640Y-102275000D02*
X157988000Y-102275640D01*
X166878000Y-102275000D02*
X168743000Y-102275000D01*
X168743000Y-102275000D02*
X171119800Y-99898200D01*
X171119800Y-99898200D02*
X171119800Y-86791800D01*
X169103000Y-83215000D02*
X169103000Y-84775000D01*
X171119800Y-86791800D02*
X169103000Y-84775000D01*
M02*
