G04 #@! TF.FileFunction,Copper,L1,Top,Signal*
%FSLAX46Y46*%
G04 Gerber Fmt 4.6, Leading zero omitted, Abs format (unit mm)*
G04 Created by KiCad (PCBNEW 4.0.7-e1-6374~58~ubuntu16.04.1) date Sat Aug 26 00:48:47 2017*
%MOMM*%
%LPD*%
G01*
G04 APERTURE LIST*
%ADD10C,0.100000*%
%ADD11R,1.000000X1.600000*%
%ADD12R,1.300000X1.500000*%
%ADD13R,1.550000X1.300000*%
%ADD14R,1.500000X1.300000*%
%ADD15R,0.700000X1.000000*%
%ADD16O,1.727200X2.032000*%
%ADD17R,1.700000X1.700000*%
%ADD18O,1.700000X1.700000*%
%ADD19R,1.800860X3.500120*%
%ADD20R,1.250000X1.500000*%
%ADD21R,1.500000X1.250000*%
%ADD22C,2.400000*%
%ADD23R,2.400000X2.400000*%
%ADD24R,1.600000X2.600000*%
%ADD25C,1.600000*%
%ADD26O,1.500000X3.000000*%
%ADD27O,3.000000X1.500000*%
%ADD28C,0.600000*%
%ADD29C,0.750000*%
%ADD30C,0.250000*%
G04 APERTURE END LIST*
D10*
D11*
X133528000Y-88225000D03*
X136728000Y-88225000D03*
X133528000Y-83225000D03*
X136728000Y-83225000D03*
D12*
X119888000Y-122635000D03*
X119888000Y-119935000D03*
D13*
X138768000Y-103215000D03*
X138768000Y-98715000D03*
X146728000Y-98715000D03*
X146728000Y-103215000D03*
D14*
X164258000Y-90170000D03*
X166958000Y-90170000D03*
X164258000Y-97790000D03*
X166958000Y-97790000D03*
X166958000Y-93980000D03*
X164258000Y-93980000D03*
D12*
X114808000Y-122635000D03*
X114808000Y-119935000D03*
X124968000Y-119935000D03*
X124968000Y-122635000D03*
D15*
X172273000Y-95220000D03*
X171323000Y-95220000D03*
X170373000Y-95220000D03*
X170373000Y-97820000D03*
X172273000Y-97820000D03*
X171323000Y-97820000D03*
D16*
X156718000Y-75565000D03*
X159258000Y-75565000D03*
X161798000Y-75565000D03*
X164338000Y-75565000D03*
X166878000Y-75565000D03*
X169418000Y-75565000D03*
X171958000Y-75565000D03*
X174498000Y-75565000D03*
X129794000Y-75565000D03*
X132334000Y-75565000D03*
X134874000Y-75565000D03*
X137414000Y-75565000D03*
X139954000Y-75565000D03*
X142494000Y-75565000D03*
X145034000Y-75565000D03*
X147574000Y-75565000D03*
X150114000Y-75565000D03*
X152654000Y-75565000D03*
X161798000Y-123825000D03*
X164338000Y-123825000D03*
X166878000Y-123825000D03*
X169418000Y-123825000D03*
X171958000Y-123825000D03*
X174498000Y-123825000D03*
X138938000Y-123825000D03*
X141478000Y-123825000D03*
X144018000Y-123825000D03*
X146558000Y-123825000D03*
X149098000Y-123825000D03*
X151638000Y-123825000D03*
X154178000Y-123825000D03*
X156718000Y-123825000D03*
D17*
X114808000Y-75565000D03*
D18*
X117348000Y-75565000D03*
X119888000Y-75565000D03*
X122428000Y-75565000D03*
D17*
X126873000Y-83185000D03*
D18*
X126873000Y-85725000D03*
X126873000Y-88265000D03*
D17*
X163068000Y-80645000D03*
D18*
X163068000Y-83185000D03*
X163068000Y-85725000D03*
D17*
X165608000Y-80645000D03*
D18*
X165608000Y-83185000D03*
X165608000Y-85725000D03*
D17*
X168148000Y-80645000D03*
D18*
X168148000Y-83185000D03*
X168148000Y-85725000D03*
D19*
X157988000Y-108544360D03*
X157988000Y-103545640D03*
X157988000Y-118704360D03*
X157988000Y-113705640D03*
D20*
X114808000Y-83205000D03*
X114808000Y-85705000D03*
X121158000Y-83205000D03*
X121158000Y-85705000D03*
X155448000Y-83205000D03*
X155448000Y-85705000D03*
X141478000Y-83205000D03*
X141478000Y-85705000D03*
X135128000Y-102215000D03*
X135128000Y-99715000D03*
D21*
X122408000Y-114935000D03*
X119908000Y-114935000D03*
D20*
X147828000Y-93325000D03*
X147828000Y-90825000D03*
D22*
X165608000Y-103500000D03*
D23*
X165608000Y-108500000D03*
D22*
X165608000Y-113705000D03*
D23*
X165608000Y-118705000D03*
D24*
X151638000Y-93875000D03*
X151638000Y-90275000D03*
X151638000Y-82655000D03*
X151638000Y-86255000D03*
D25*
X132588000Y-122555000D03*
X132588000Y-120015000D03*
D26*
X121158000Y-109940000D03*
X119158000Y-109940000D03*
X123158000Y-109940000D03*
D27*
X130008000Y-100965000D03*
X130008000Y-98965000D03*
X130008000Y-102965000D03*
D28*
X138938000Y-101600000D03*
X135128000Y-98425000D03*
X121158000Y-86995000D03*
X114808000Y-86995000D03*
X131953000Y-88265000D03*
X140208000Y-85725000D03*
X149098000Y-90825000D03*
X156718000Y-85725000D03*
X171323000Y-96520000D03*
X163068000Y-90170000D03*
X163068000Y-97790000D03*
X123698000Y-122555000D03*
X119888000Y-113665000D03*
X114808000Y-118745000D03*
X147828000Y-95250000D03*
X134493000Y-115570000D03*
X134493000Y-113665000D03*
X121285000Y-118237000D03*
X151638000Y-95885000D03*
D29*
X119253000Y-104140000D02*
X112927998Y-104140000D01*
X123158000Y-104870000D02*
X122428000Y-104140000D01*
X122428000Y-104140000D02*
X119253000Y-104140000D01*
X123158000Y-109940000D02*
X123158000Y-104870000D01*
X112927998Y-104140000D02*
X112927998Y-93320002D01*
X112927998Y-93320002D02*
X117983000Y-88265000D01*
X117983000Y-88265000D02*
X117983000Y-83205000D01*
X112927998Y-104140000D02*
X112927998Y-111760000D01*
X117983000Y-83205000D02*
X121158000Y-83205000D01*
X114808000Y-83205000D02*
X117983000Y-83205000D01*
X126873000Y-83185000D02*
X123698000Y-83185000D01*
X123698000Y-83185000D02*
X121178000Y-83185000D01*
X130008000Y-95210000D02*
X123698000Y-88900000D01*
X123698000Y-88900000D02*
X123698000Y-83185000D01*
X130008000Y-98965000D02*
X130008000Y-95210000D01*
X112927998Y-111760000D02*
X112927998Y-123190000D01*
X112927998Y-123190000D02*
X114197998Y-124460000D01*
X114197998Y-124460000D02*
X121158000Y-124460000D01*
X121158000Y-124460000D02*
X120213000Y-124460000D01*
X130683000Y-124460000D02*
X121158000Y-124460000D01*
X135128000Y-122555000D02*
X132588000Y-122555000D01*
X136398000Y-121285000D02*
X135128000Y-122555000D01*
X148324000Y-121285000D02*
X136398000Y-121285000D01*
X149098000Y-123825000D02*
X149098000Y-122059000D01*
X149098000Y-122059000D02*
X148324000Y-121285000D01*
X132588000Y-122555000D02*
X130683000Y-124460000D01*
X120213000Y-124460000D02*
X119888000Y-124135000D01*
X119888000Y-124135000D02*
X119888000Y-122635000D01*
X114808000Y-83205000D02*
X114808000Y-75565000D01*
X121178000Y-83185000D02*
X121158000Y-83205000D01*
X132588000Y-80645000D02*
X130048000Y-83185000D01*
X130048000Y-83185000D02*
X126873000Y-83185000D01*
X135698000Y-80645000D02*
X132588000Y-80645000D01*
X136728000Y-83225000D02*
X136728000Y-81675000D01*
X136728000Y-81675000D02*
X135698000Y-80645000D01*
X141478000Y-83205000D02*
X136748000Y-83205000D01*
X136748000Y-83205000D02*
X136728000Y-83225000D01*
X138768000Y-103215000D02*
X138768000Y-101770000D01*
X138768000Y-101770000D02*
X138938000Y-101600000D01*
X135128000Y-99715000D02*
X135128000Y-98425000D01*
X121158000Y-86995000D02*
X121158000Y-85705000D01*
X114808000Y-85705000D02*
X114808000Y-86995000D01*
X133528000Y-88225000D02*
X131993000Y-88225000D01*
X131993000Y-88225000D02*
X131953000Y-88265000D01*
X141478000Y-85705000D02*
X140228000Y-85705000D01*
X140228000Y-85705000D02*
X140208000Y-85725000D01*
X149098000Y-90825000D02*
X147828000Y-90825000D01*
X149538000Y-90825000D02*
X149098000Y-90825000D01*
X151638000Y-90275000D02*
X150088000Y-90275000D01*
X150088000Y-90275000D02*
X149538000Y-90825000D01*
X155448000Y-85705000D02*
X154073000Y-85705000D01*
X154073000Y-85705000D02*
X153523000Y-86255000D01*
X153523000Y-86255000D02*
X151638000Y-86255000D01*
X155448000Y-85705000D02*
X156698000Y-85705000D01*
X156698000Y-85705000D02*
X156718000Y-85725000D01*
X171323000Y-96520000D02*
X171323000Y-97820000D01*
X171323000Y-95220000D02*
X171323000Y-96520000D01*
X163068000Y-90170000D02*
X164258000Y-90170000D01*
X164258000Y-97790000D02*
X163068000Y-97790000D01*
X124968000Y-122635000D02*
X123778000Y-122635000D01*
X123778000Y-122635000D02*
X123698000Y-122555000D01*
X119908000Y-114935000D02*
X119908000Y-113685000D01*
X119908000Y-113685000D02*
X119888000Y-113665000D01*
X114808000Y-119935000D02*
X114808000Y-118745000D01*
X146728000Y-103215000D02*
X138768000Y-103215000D01*
X147828000Y-93325000D02*
X147828000Y-95250000D01*
X157988000Y-118704360D02*
X157988000Y-121285000D01*
X157988000Y-121285000D02*
X156718000Y-122555000D01*
X156718000Y-122555000D02*
X156718000Y-123825000D01*
X165608000Y-118705000D02*
X157988640Y-118705000D01*
X157988640Y-118705000D02*
X157988000Y-118704360D01*
D30*
X122408000Y-114935000D02*
X133858000Y-114935000D01*
X133858000Y-114935000D02*
X134493000Y-115570000D01*
X121158000Y-111760000D02*
X122408000Y-113010000D01*
X122408000Y-113010000D02*
X122408000Y-114935000D01*
X121158000Y-109940000D02*
X121158000Y-111760000D01*
X133858000Y-104775000D02*
X133858000Y-113030000D01*
X133858000Y-113030000D02*
X134493000Y-113665000D01*
X135128000Y-103505000D02*
X133858000Y-104775000D01*
X135128000Y-102215000D02*
X135128000Y-103505000D01*
X131953000Y-100965000D02*
X133203000Y-102215000D01*
X133203000Y-102215000D02*
X135128000Y-102215000D01*
X130008000Y-100965000D02*
X131953000Y-100965000D01*
X132588000Y-120015000D02*
X125048000Y-120015000D01*
X125048000Y-120015000D02*
X124968000Y-119935000D01*
X120523000Y-118237000D02*
X119888000Y-118872000D01*
X119888000Y-118872000D02*
X119888000Y-119935000D01*
X121285000Y-118237000D02*
X120523000Y-118237000D01*
X115998000Y-122635000D02*
X118698000Y-119935000D01*
X118698000Y-119935000D02*
X119888000Y-119935000D01*
X114808000Y-122635000D02*
X115998000Y-122635000D01*
X119888000Y-75565000D02*
X119888000Y-76767081D01*
X119888000Y-76767081D02*
X120590919Y-77470000D01*
X120590919Y-77470000D02*
X131695000Y-77470000D01*
X131695000Y-77470000D02*
X132334000Y-76831000D01*
X132334000Y-76831000D02*
X132334000Y-75565000D01*
X117983000Y-73660000D02*
X117348000Y-74295000D01*
X117348000Y-74295000D02*
X117348000Y-75565000D01*
X129155000Y-73660000D02*
X117983000Y-73660000D01*
X129794000Y-75565000D02*
X129794000Y-74299000D01*
X129794000Y-74299000D02*
X129155000Y-73660000D01*
X164258000Y-93980000D02*
X158623000Y-93980000D01*
X158623000Y-93980000D02*
X155448000Y-97155000D01*
X145923000Y-81280000D02*
X147193000Y-80010000D01*
X155448000Y-97155000D02*
X147193000Y-97155000D01*
X147193000Y-97155000D02*
X145923000Y-95885000D01*
X145923000Y-95885000D02*
X145923000Y-81280000D01*
X153543000Y-80010000D02*
X154813000Y-78740000D01*
X153543000Y-73660000D02*
X150753000Y-73660000D01*
X147193000Y-80010000D02*
X153543000Y-80010000D01*
X154813000Y-78740000D02*
X154813000Y-74930000D01*
X150114000Y-74299000D02*
X150114000Y-75565000D01*
X154813000Y-74930000D02*
X153543000Y-73660000D01*
X150753000Y-73660000D02*
X150114000Y-74299000D01*
X136728000Y-88225000D02*
X144058000Y-88225000D01*
X144058000Y-88225000D02*
X144653000Y-87630000D01*
X144653000Y-87630000D02*
X144653000Y-80010000D01*
X144653000Y-80010000D02*
X146558000Y-78105000D01*
X146558000Y-78105000D02*
X151638000Y-78105000D01*
X152654000Y-77089000D02*
X152654000Y-75565000D01*
X151638000Y-78105000D02*
X152654000Y-77089000D01*
X163068000Y-80645000D02*
X160528000Y-80645000D01*
X160528000Y-80645000D02*
X159258000Y-79375000D01*
X159258000Y-79375000D02*
X159258000Y-75565000D01*
X163068000Y-78105000D02*
X161798000Y-76835000D01*
X161798000Y-76835000D02*
X161798000Y-75565000D01*
X164338000Y-78105000D02*
X163068000Y-78105000D01*
X165608000Y-79375000D02*
X164338000Y-78105000D01*
X165608000Y-80645000D02*
X165608000Y-79375000D01*
X168148000Y-78740000D02*
X166878000Y-77470000D01*
X166878000Y-77470000D02*
X166878000Y-75565000D01*
X168148000Y-80645000D02*
X168148000Y-78740000D01*
X170688000Y-78740000D02*
X170688000Y-90170000D01*
X170688000Y-90170000D02*
X170688000Y-92075000D01*
X166958000Y-90170000D02*
X170688000Y-90170000D01*
X170688000Y-92075000D02*
X172273000Y-93660000D01*
X172273000Y-93660000D02*
X172273000Y-95220000D01*
X169418000Y-77470000D02*
X170688000Y-78740000D01*
X169418000Y-75565000D02*
X169418000Y-77470000D01*
X138768000Y-98715000D02*
X138768000Y-97620000D01*
X138768000Y-97620000D02*
X135128000Y-93980000D01*
X137668000Y-85725000D02*
X138938000Y-86995000D01*
X135128000Y-93980000D02*
X135128000Y-86360000D01*
X142748000Y-86995000D02*
X143383000Y-86360000D01*
X135128000Y-86360000D02*
X135763000Y-85725000D01*
X135763000Y-85725000D02*
X137668000Y-85725000D01*
X138938000Y-86995000D02*
X142748000Y-86995000D01*
X143383000Y-86360000D02*
X143383000Y-77720000D01*
X143383000Y-77720000D02*
X142494000Y-76831000D01*
X142494000Y-76831000D02*
X142494000Y-75565000D01*
X138768000Y-98715000D02*
X146728000Y-98715000D01*
D29*
X163068000Y-83185000D02*
X158623000Y-83185000D01*
X158623000Y-83185000D02*
X155468000Y-83185000D01*
X155553000Y-93875000D02*
X158623000Y-90805000D01*
X158623000Y-90805000D02*
X158623000Y-83185000D01*
X151638000Y-93875000D02*
X155553000Y-93875000D01*
X151638000Y-95885000D02*
X151638000Y-93875000D01*
X151638000Y-82655000D02*
X153188000Y-82655000D01*
X153188000Y-82655000D02*
X153738000Y-83205000D01*
X153738000Y-83205000D02*
X155448000Y-83205000D01*
X155468000Y-83185000D02*
X155448000Y-83205000D01*
X165608000Y-83185000D02*
X163068000Y-83185000D01*
X168148000Y-83185000D02*
X165608000Y-83185000D01*
X165608000Y-108500000D02*
X158032360Y-108500000D01*
X158032360Y-108500000D02*
X157988000Y-108544360D01*
D30*
X132548000Y-83225000D02*
X130048000Y-85725000D01*
X130048000Y-85725000D02*
X126873000Y-85725000D01*
X133528000Y-83225000D02*
X132548000Y-83225000D01*
X168148000Y-93980000D02*
X169388000Y-95220000D01*
X169388000Y-95220000D02*
X170373000Y-95220000D01*
X166958000Y-93980000D02*
X168148000Y-93980000D01*
X166958000Y-93980000D02*
X166958000Y-94880000D01*
X166958000Y-94880000D02*
X166958000Y-97790000D01*
D29*
X165608000Y-113705000D02*
X157988640Y-113705000D01*
D30*
X157988640Y-113705000D02*
X157988000Y-113705640D01*
D29*
X172273000Y-97820000D02*
X172273000Y-112080000D01*
X170648000Y-113705000D02*
X165608000Y-113705000D01*
X172273000Y-112080000D02*
X170648000Y-113705000D01*
X165608000Y-103500000D02*
X158033640Y-103500000D01*
D30*
X158033640Y-103500000D02*
X157988000Y-103545640D01*
D29*
X170373000Y-97820000D02*
X170373000Y-102550000D01*
X169423000Y-103500000D02*
X165608000Y-103500000D01*
X170373000Y-102550000D02*
X169423000Y-103500000D01*
M02*
