G04 #@! TF.FileFunction,Legend,Top*
%FSLAX46Y46*%
G04 Gerber Fmt 4.6, Leading zero omitted, Abs format (unit mm)*
G04 Created by KiCad (PCBNEW 4.0.7-e2-6376~58~ubuntu16.04.1) date Tue Sep 19 14:58:34 2017*
%MOMM*%
%LPD*%
G01*
G04 APERTURE LIST*
%ADD10C,0.100000*%
%ADD11C,0.150000*%
%ADD12C,0.254000*%
%ADD13C,0.200000*%
%ADD14C,0.300000*%
%ADD15C,0.120000*%
%ADD16C,0.002540*%
%ADD17C,0.203200*%
%ADD18C,0.127000*%
%ADD19R,1.700000X1.700000*%
%ADD20O,1.700000X1.700000*%
%ADD21R,1.600000X2.600000*%
%ADD22R,1.000000X1.600000*%
%ADD23R,1.300000X1.500000*%
%ADD24R,1.500000X1.300000*%
%ADD25R,0.700000X1.000000*%
%ADD26O,1.727200X2.032000*%
%ADD27R,1.800860X3.500120*%
%ADD28R,1.500000X1.250000*%
%ADD29R,1.250000X1.500000*%
%ADD30C,1.600000*%
%ADD31C,2.400000*%
%ADD32R,2.400000X2.400000*%
%ADD33R,1.200000X1.200000*%
%ADD34R,1.600000X1.600000*%
%ADD35R,1.200000X0.200000*%
%ADD36C,3.175000*%
%ADD37C,0.787400*%
%ADD38C,0.990600*%
%ADD39C,2.374900*%
G04 APERTURE END LIST*
D10*
D11*
X146024572Y-87356905D02*
X145567429Y-87356905D01*
X145796000Y-87356905D02*
X145796000Y-86556905D01*
X145719810Y-86671190D01*
X145643619Y-86747381D01*
X145567429Y-86785476D01*
X158978572Y-92944905D02*
X158521429Y-92944905D01*
X158750000Y-92944905D02*
X158750000Y-92144905D01*
X158673810Y-92259190D01*
X158597619Y-92335381D01*
X158521429Y-92373476D01*
D12*
X112903000Y-82550000D02*
G75*
G03X112903000Y-85090000I0J-1270000D01*
G01*
X135763000Y-85090000D02*
G75*
G03X135763000Y-82550000I0J1270000D01*
G01*
X135763000Y-85090000D02*
X112903000Y-85090000D01*
X112903000Y-82550000D02*
X135763000Y-82550000D01*
D10*
X135105714Y-126071286D02*
X135077143Y-126099857D01*
X134991429Y-126128429D01*
X134934286Y-126128429D01*
X134848571Y-126099857D01*
X134791429Y-126042714D01*
X134762857Y-125985571D01*
X134734286Y-125871286D01*
X134734286Y-125785571D01*
X134762857Y-125671286D01*
X134791429Y-125614143D01*
X134848571Y-125557000D01*
X134934286Y-125528429D01*
X134991429Y-125528429D01*
X135077143Y-125557000D01*
X135105714Y-125585571D01*
X135362857Y-125528429D02*
X135362857Y-126014143D01*
X135391429Y-126071286D01*
X135420000Y-126099857D01*
X135477143Y-126128429D01*
X135591429Y-126128429D01*
X135648571Y-126099857D01*
X135677143Y-126071286D01*
X135705714Y-126014143D01*
X135705714Y-125528429D01*
X135905714Y-125528429D02*
X136248571Y-125528429D01*
X136077142Y-126128429D02*
X136077142Y-125528429D01*
X136820000Y-125528429D02*
X137162857Y-125528429D01*
X136991428Y-126128429D02*
X136991428Y-125528429D01*
X137705714Y-126128429D02*
X137505714Y-125842714D01*
X137362857Y-126128429D02*
X137362857Y-125528429D01*
X137591429Y-125528429D01*
X137648571Y-125557000D01*
X137677143Y-125585571D01*
X137705714Y-125642714D01*
X137705714Y-125728429D01*
X137677143Y-125785571D01*
X137648571Y-125814143D01*
X137591429Y-125842714D01*
X137362857Y-125842714D01*
X137934286Y-125957000D02*
X138220000Y-125957000D01*
X137877143Y-126128429D02*
X138077143Y-125528429D01*
X138277143Y-126128429D01*
X138820000Y-126071286D02*
X138791429Y-126099857D01*
X138705715Y-126128429D01*
X138648572Y-126128429D01*
X138562857Y-126099857D01*
X138505715Y-126042714D01*
X138477143Y-125985571D01*
X138448572Y-125871286D01*
X138448572Y-125785571D01*
X138477143Y-125671286D01*
X138505715Y-125614143D01*
X138562857Y-125557000D01*
X138648572Y-125528429D01*
X138705715Y-125528429D01*
X138791429Y-125557000D01*
X138820000Y-125585571D01*
X139077143Y-126128429D02*
X139077143Y-125528429D01*
X139420000Y-126128429D02*
X139162857Y-125785571D01*
X139420000Y-125528429D02*
X139077143Y-125871286D01*
X140134286Y-126128429D02*
X140134286Y-125528429D01*
X140620000Y-125814143D02*
X140420000Y-125814143D01*
X140420000Y-126128429D02*
X140420000Y-125528429D01*
X140705714Y-125528429D01*
X141391429Y-125528429D02*
X141391429Y-126014143D01*
X141420001Y-126071286D01*
X141448572Y-126099857D01*
X141505715Y-126128429D01*
X141620001Y-126128429D01*
X141677143Y-126099857D01*
X141705715Y-126071286D01*
X141734286Y-126014143D01*
X141734286Y-125528429D01*
X141991429Y-126099857D02*
X142077143Y-126128429D01*
X142220000Y-126128429D01*
X142277143Y-126099857D01*
X142305714Y-126071286D01*
X142334286Y-126014143D01*
X142334286Y-125957000D01*
X142305714Y-125899857D01*
X142277143Y-125871286D01*
X142220000Y-125842714D01*
X142105714Y-125814143D01*
X142048572Y-125785571D01*
X142020000Y-125757000D01*
X141991429Y-125699857D01*
X141991429Y-125642714D01*
X142020000Y-125585571D01*
X142048572Y-125557000D01*
X142105714Y-125528429D01*
X142248572Y-125528429D01*
X142334286Y-125557000D01*
X142591429Y-126128429D02*
X142591429Y-125528429D01*
X142877143Y-126128429D02*
X142877143Y-125528429D01*
X143220000Y-126128429D01*
X143220000Y-125528429D01*
X143820000Y-125557000D02*
X143762857Y-125528429D01*
X143677143Y-125528429D01*
X143591428Y-125557000D01*
X143534286Y-125614143D01*
X143505714Y-125671286D01*
X143477143Y-125785571D01*
X143477143Y-125871286D01*
X143505714Y-125985571D01*
X143534286Y-126042714D01*
X143591428Y-126099857D01*
X143677143Y-126128429D01*
X143734286Y-126128429D01*
X143820000Y-126099857D01*
X143848571Y-126071286D01*
X143848571Y-125871286D01*
X143734286Y-125871286D01*
X144905714Y-126128429D02*
X144705714Y-125842714D01*
X144562857Y-126128429D02*
X144562857Y-125528429D01*
X144791429Y-125528429D01*
X144848571Y-125557000D01*
X144877143Y-125585571D01*
X144905714Y-125642714D01*
X144905714Y-125728429D01*
X144877143Y-125785571D01*
X144848571Y-125814143D01*
X144791429Y-125842714D01*
X144562857Y-125842714D01*
X145077143Y-125528429D02*
X145277143Y-126128429D01*
X145477143Y-125528429D01*
X145991429Y-126128429D02*
X145648572Y-126128429D01*
X145820000Y-126128429D02*
X145820000Y-125528429D01*
X145762857Y-125614143D01*
X145705715Y-125671286D01*
X145648572Y-125699857D01*
D11*
X134620000Y-124333000D02*
X134620000Y-124079000D01*
X134366000Y-124079000D02*
X134366000Y-124333000D01*
X134747000Y-124333000D02*
X134493000Y-123825000D01*
X134239000Y-124333000D02*
X134747000Y-124333000D01*
X134493000Y-123825000D02*
X134239000Y-124333000D01*
X134493000Y-123825000D02*
X134493000Y-126365000D01*
X141204905Y-79019428D02*
X141204905Y-79476571D01*
X141204905Y-79248000D02*
X140404905Y-79248000D01*
X140519190Y-79324190D01*
X140595381Y-79400381D01*
X140633476Y-79476571D01*
X171551572Y-80371905D02*
X171094429Y-80371905D01*
X171323000Y-80371905D02*
X171323000Y-79571905D01*
X171246810Y-79686190D01*
X171170619Y-79762381D01*
X171094429Y-79800476D01*
D13*
X172664429Y-85018571D02*
X172807286Y-85066190D01*
X172854905Y-85113810D01*
X172902524Y-85209048D01*
X172902524Y-85351905D01*
X172854905Y-85447143D01*
X172807286Y-85494762D01*
X172712048Y-85542381D01*
X172331095Y-85542381D01*
X172331095Y-84542381D01*
X172664429Y-84542381D01*
X172759667Y-84590000D01*
X172807286Y-84637619D01*
X172854905Y-84732857D01*
X172854905Y-84828095D01*
X172807286Y-84923333D01*
X172759667Y-84970952D01*
X172664429Y-85018571D01*
X172331095Y-85018571D01*
X172902524Y-83002381D02*
X172569190Y-82526190D01*
X172331095Y-83002381D02*
X172331095Y-82002381D01*
X172712048Y-82002381D01*
X172807286Y-82050000D01*
X172854905Y-82097619D01*
X172902524Y-82192857D01*
X172902524Y-82335714D01*
X172854905Y-82430952D01*
X172807286Y-82478571D01*
X172712048Y-82526190D01*
X172331095Y-82526190D01*
X172164429Y-79462381D02*
X172402524Y-80462381D01*
X172593001Y-79748095D01*
X172783477Y-80462381D01*
X173021572Y-79462381D01*
X165163477Y-77557381D02*
X164973000Y-77557381D01*
X164877762Y-77605000D01*
X164830143Y-77652619D01*
X164734905Y-77795476D01*
X164687286Y-77985952D01*
X164687286Y-78366905D01*
X164734905Y-78462143D01*
X164782524Y-78509762D01*
X164877762Y-78557381D01*
X165068239Y-78557381D01*
X165163477Y-78509762D01*
X165211096Y-78462143D01*
X165258715Y-78366905D01*
X165258715Y-78128810D01*
X165211096Y-78033571D01*
X165163477Y-77985952D01*
X165068239Y-77938333D01*
X164877762Y-77938333D01*
X164782524Y-77985952D01*
X164734905Y-78033571D01*
X164687286Y-78128810D01*
X167751096Y-77557381D02*
X167274905Y-77557381D01*
X167227286Y-78033571D01*
X167274905Y-77985952D01*
X167370143Y-77938333D01*
X167608239Y-77938333D01*
X167703477Y-77985952D01*
X167751096Y-78033571D01*
X167798715Y-78128810D01*
X167798715Y-78366905D01*
X167751096Y-78462143D01*
X167703477Y-78509762D01*
X167608239Y-78557381D01*
X167370143Y-78557381D01*
X167274905Y-78509762D01*
X167227286Y-78462143D01*
X169719667Y-77557381D02*
X170338715Y-77557381D01*
X170005381Y-77938333D01*
X170148239Y-77938333D01*
X170243477Y-77985952D01*
X170291096Y-78033571D01*
X170338715Y-78128810D01*
X170338715Y-78366905D01*
X170291096Y-78462143D01*
X170243477Y-78509762D01*
X170148239Y-78557381D01*
X169862524Y-78557381D01*
X169767286Y-78509762D01*
X169719667Y-78462143D01*
D10*
X139299905Y-84448571D02*
X138499905Y-84448571D01*
X138499905Y-84258095D01*
X138538000Y-84143809D01*
X138614190Y-84067618D01*
X138690381Y-84029523D01*
X138842762Y-83991428D01*
X138957048Y-83991428D01*
X139109429Y-84029523D01*
X139185619Y-84067618D01*
X139261810Y-84143809D01*
X139299905Y-84258095D01*
X139299905Y-84448571D01*
X138499905Y-83496190D02*
X138499905Y-83343809D01*
X138538000Y-83267618D01*
X138614190Y-83191428D01*
X138766571Y-83153333D01*
X139033238Y-83153333D01*
X139185619Y-83191428D01*
X139261810Y-83267618D01*
X139299905Y-83343809D01*
X139299905Y-83496190D01*
X139261810Y-83572380D01*
X139185619Y-83648571D01*
X139033238Y-83686666D01*
X138766571Y-83686666D01*
X138614190Y-83648571D01*
X138538000Y-83572380D01*
X138499905Y-83496190D01*
X138538000Y-86969523D02*
X138499905Y-87045714D01*
X138499905Y-87159999D01*
X138538000Y-87274285D01*
X138614190Y-87350476D01*
X138690381Y-87388571D01*
X138842762Y-87426666D01*
X138957048Y-87426666D01*
X139109429Y-87388571D01*
X139185619Y-87350476D01*
X139261810Y-87274285D01*
X139299905Y-87159999D01*
X139299905Y-87083809D01*
X139261810Y-86969523D01*
X139223714Y-86931428D01*
X138957048Y-86931428D01*
X138957048Y-87083809D01*
X139299905Y-86588571D02*
X138499905Y-86588571D01*
X139299905Y-86131428D01*
X138499905Y-86131428D01*
X139299905Y-85750476D02*
X138499905Y-85750476D01*
X138499905Y-85560000D01*
X138538000Y-85445714D01*
X138614190Y-85369523D01*
X138690381Y-85331428D01*
X138842762Y-85293333D01*
X138957048Y-85293333D01*
X139109429Y-85331428D01*
X139185619Y-85369523D01*
X139261810Y-85445714D01*
X139299905Y-85560000D01*
X139299905Y-85750476D01*
X138995143Y-82435571D02*
X138995143Y-81826047D01*
X139299905Y-82130809D02*
X138690381Y-82130809D01*
X138499905Y-81064142D02*
X138499905Y-81445095D01*
X138880857Y-81483190D01*
X138842762Y-81445095D01*
X138804667Y-81368904D01*
X138804667Y-81178428D01*
X138842762Y-81102238D01*
X138880857Y-81064142D01*
X138957048Y-81026047D01*
X139147524Y-81026047D01*
X139223714Y-81064142D01*
X139261810Y-81102238D01*
X139299905Y-81178428D01*
X139299905Y-81368904D01*
X139261810Y-81445095D01*
X139223714Y-81483190D01*
X138499905Y-80797476D02*
X139299905Y-80530809D01*
X138499905Y-80264142D01*
X122828000Y-78130477D02*
X122866095Y-78054286D01*
X122866095Y-77940001D01*
X122828000Y-77825715D01*
X122751810Y-77749524D01*
X122675619Y-77711429D01*
X122523238Y-77673334D01*
X122408952Y-77673334D01*
X122256571Y-77711429D01*
X122180381Y-77749524D01*
X122104190Y-77825715D01*
X122066095Y-77940001D01*
X122066095Y-78016191D01*
X122104190Y-78130477D01*
X122142286Y-78168572D01*
X122408952Y-78168572D01*
X122408952Y-78016191D01*
X122066095Y-78511429D02*
X122866095Y-78511429D01*
X122066095Y-78968572D01*
X122866095Y-78968572D01*
X122066095Y-79349524D02*
X122866095Y-79349524D01*
X122866095Y-79540000D01*
X122828000Y-79654286D01*
X122751810Y-79730477D01*
X122675619Y-79768572D01*
X122523238Y-79806667D01*
X122408952Y-79806667D01*
X122256571Y-79768572D01*
X122180381Y-79730477D01*
X122104190Y-79654286D01*
X122066095Y-79540000D01*
X122066095Y-79349524D01*
X114750857Y-77711429D02*
X114750857Y-78320953D01*
X114446095Y-78016191D02*
X115055619Y-78016191D01*
X115246095Y-79082858D02*
X115246095Y-78701905D01*
X114865143Y-78663810D01*
X114903238Y-78701905D01*
X114941333Y-78778096D01*
X114941333Y-78968572D01*
X114903238Y-79044762D01*
X114865143Y-79082858D01*
X114788952Y-79120953D01*
X114598476Y-79120953D01*
X114522286Y-79082858D01*
X114484190Y-79044762D01*
X114446095Y-78968572D01*
X114446095Y-78778096D01*
X114484190Y-78701905D01*
X114522286Y-78663810D01*
X115246095Y-79349524D02*
X114446095Y-79616191D01*
X115246095Y-79882858D01*
X119564190Y-77768572D02*
X119526095Y-77882858D01*
X119526095Y-78073334D01*
X119564190Y-78149524D01*
X119602286Y-78187620D01*
X119678476Y-78225715D01*
X119754667Y-78225715D01*
X119830857Y-78187620D01*
X119868952Y-78149524D01*
X119907048Y-78073334D01*
X119945143Y-77920953D01*
X119983238Y-77844762D01*
X120021333Y-77806667D01*
X120097524Y-77768572D01*
X120173714Y-77768572D01*
X120249905Y-77806667D01*
X120288000Y-77844762D01*
X120326095Y-77920953D01*
X120326095Y-78111429D01*
X120288000Y-78225715D01*
X119526095Y-78568572D02*
X120326095Y-78568572D01*
X120326095Y-78759048D01*
X120288000Y-78873334D01*
X120211810Y-78949525D01*
X120135619Y-78987620D01*
X119983238Y-79025715D01*
X119868952Y-79025715D01*
X119716571Y-78987620D01*
X119640381Y-78949525D01*
X119564190Y-78873334D01*
X119526095Y-78759048D01*
X119526095Y-78568572D01*
X119754667Y-79330477D02*
X119754667Y-79711429D01*
X119526095Y-79254286D02*
X120326095Y-79520953D01*
X119526095Y-79787620D01*
X117024190Y-77787619D02*
X116986095Y-77901905D01*
X116986095Y-78092381D01*
X117024190Y-78168571D01*
X117062286Y-78206667D01*
X117138476Y-78244762D01*
X117214667Y-78244762D01*
X117290857Y-78206667D01*
X117328952Y-78168571D01*
X117367048Y-78092381D01*
X117405143Y-77940000D01*
X117443238Y-77863809D01*
X117481333Y-77825714D01*
X117557524Y-77787619D01*
X117633714Y-77787619D01*
X117709905Y-77825714D01*
X117748000Y-77863809D01*
X117786095Y-77940000D01*
X117786095Y-78130476D01*
X117748000Y-78244762D01*
X117062286Y-79044762D02*
X117024190Y-79006667D01*
X116986095Y-78892381D01*
X116986095Y-78816191D01*
X117024190Y-78701905D01*
X117100381Y-78625714D01*
X117176571Y-78587619D01*
X117328952Y-78549524D01*
X117443238Y-78549524D01*
X117595619Y-78587619D01*
X117671810Y-78625714D01*
X117748000Y-78701905D01*
X117786095Y-78816191D01*
X117786095Y-78892381D01*
X117748000Y-79006667D01*
X117709905Y-79044762D01*
X116986095Y-79768572D02*
X116986095Y-79387619D01*
X117786095Y-79387619D01*
D14*
X113975859Y-84498571D02*
X113475859Y-83784286D01*
X113118716Y-84498571D02*
X113118716Y-82998571D01*
X113690144Y-82998571D01*
X113833002Y-83070000D01*
X113904430Y-83141429D01*
X113975859Y-83284286D01*
X113975859Y-83498571D01*
X113904430Y-83641429D01*
X113833002Y-83712857D01*
X113690144Y-83784286D01*
X113118716Y-83784286D01*
X115190144Y-84427143D02*
X115047287Y-84498571D01*
X114761573Y-84498571D01*
X114618716Y-84427143D01*
X114547287Y-84284286D01*
X114547287Y-83712857D01*
X114618716Y-83570000D01*
X114761573Y-83498571D01*
X115047287Y-83498571D01*
X115190144Y-83570000D01*
X115261573Y-83712857D01*
X115261573Y-83855714D01*
X114547287Y-83998571D01*
X116547287Y-84498571D02*
X116547287Y-83712857D01*
X116475858Y-83570000D01*
X116333001Y-83498571D01*
X116047287Y-83498571D01*
X115904430Y-83570000D01*
X116547287Y-84427143D02*
X116404430Y-84498571D01*
X116047287Y-84498571D01*
X115904430Y-84427143D01*
X115833001Y-84284286D01*
X115833001Y-84141429D01*
X115904430Y-83998571D01*
X116047287Y-83927143D01*
X116404430Y-83927143D01*
X116547287Y-83855714D01*
X117904430Y-84498571D02*
X117904430Y-82998571D01*
X117904430Y-84427143D02*
X117761573Y-84498571D01*
X117475859Y-84498571D01*
X117333001Y-84427143D01*
X117261573Y-84355714D01*
X117190144Y-84212857D01*
X117190144Y-83784286D01*
X117261573Y-83641429D01*
X117333001Y-83570000D01*
X117475859Y-83498571D01*
X117761573Y-83498571D01*
X117904430Y-83570000D01*
X118475859Y-83498571D02*
X118833002Y-84498571D01*
X119190144Y-83498571D02*
X118833002Y-84498571D01*
X118690144Y-84855714D01*
X118618716Y-84927143D01*
X118475859Y-84998571D01*
X120833001Y-84070000D02*
X121547287Y-84070000D01*
X120690144Y-84498571D02*
X121190144Y-82998571D01*
X121690144Y-84498571D01*
X122190144Y-84498571D02*
X122190144Y-83498571D01*
X122190144Y-82998571D02*
X122118715Y-83070000D01*
X122190144Y-83141429D01*
X122261572Y-83070000D01*
X122190144Y-82998571D01*
X122190144Y-83141429D01*
X122904430Y-84498571D02*
X122904430Y-83498571D01*
X122904430Y-83641429D02*
X122975858Y-83570000D01*
X123118716Y-83498571D01*
X123333001Y-83498571D01*
X123475858Y-83570000D01*
X123547287Y-83712857D01*
X123547287Y-84498571D01*
X123547287Y-83712857D02*
X123618716Y-83570000D01*
X123761573Y-83498571D01*
X123975858Y-83498571D01*
X124118716Y-83570000D01*
X124190144Y-83712857D01*
X124190144Y-84498571D01*
X126547287Y-83712857D02*
X126047287Y-83712857D01*
X126047287Y-84498571D02*
X126047287Y-82998571D01*
X126761573Y-82998571D01*
X127333001Y-84498571D02*
X127333001Y-83498571D01*
X127333001Y-82998571D02*
X127261572Y-83070000D01*
X127333001Y-83141429D01*
X127404429Y-83070000D01*
X127333001Y-82998571D01*
X127333001Y-83141429D01*
X128047287Y-84498571D02*
X128047287Y-83498571D01*
X128047287Y-83784286D02*
X128118715Y-83641429D01*
X128190144Y-83570000D01*
X128333001Y-83498571D01*
X128475858Y-83498571D01*
X129547286Y-84427143D02*
X129404429Y-84498571D01*
X129118715Y-84498571D01*
X128975858Y-84427143D01*
X128904429Y-84284286D01*
X128904429Y-83712857D01*
X128975858Y-83570000D01*
X129118715Y-83498571D01*
X129404429Y-83498571D01*
X129547286Y-83570000D01*
X129618715Y-83712857D01*
X129618715Y-83855714D01*
X128904429Y-83998571D01*
X131190143Y-82998571D02*
X131690143Y-84498571D01*
X132190143Y-82998571D01*
X132618714Y-83141429D02*
X132690143Y-83070000D01*
X132833000Y-82998571D01*
X133190143Y-82998571D01*
X133333000Y-83070000D01*
X133404429Y-83141429D01*
X133475857Y-83284286D01*
X133475857Y-83427143D01*
X133404429Y-83641429D01*
X132547286Y-84498571D01*
X133475857Y-84498571D01*
X134118714Y-84355714D02*
X134190142Y-84427143D01*
X134118714Y-84498571D01*
X134047285Y-84427143D01*
X134118714Y-84355714D01*
X134118714Y-84498571D01*
X135618714Y-84498571D02*
X134761571Y-84498571D01*
X135190143Y-84498571D02*
X135190143Y-82998571D01*
X135047286Y-83212857D01*
X134904428Y-83355714D01*
X134761571Y-83427143D01*
D15*
X163008000Y-86420000D02*
X165668000Y-86420000D01*
X163008000Y-81280000D02*
X163008000Y-86420000D01*
X165668000Y-81280000D02*
X165668000Y-86420000D01*
X163008000Y-81280000D02*
X165668000Y-81280000D01*
X163008000Y-80010000D02*
X163008000Y-78680000D01*
X163008000Y-78680000D02*
X164338000Y-78680000D01*
X154428000Y-86110000D02*
X155598000Y-86110000D01*
X159008000Y-86110000D02*
X157838000Y-86110000D01*
X158238000Y-81530000D02*
X157838000Y-81530000D01*
X155198000Y-81530000D02*
X155598000Y-81530000D01*
X154428000Y-82300000D02*
X154428000Y-86110000D01*
X154428000Y-82300000D02*
X155198000Y-81530000D01*
X159008000Y-82300000D02*
X159008000Y-86110000D01*
X159008000Y-82300000D02*
X158238000Y-81530000D01*
D10*
X146963000Y-86320000D02*
X145963000Y-85320000D01*
X150963000Y-81320000D02*
X145963000Y-81320000D01*
X145963000Y-81320000D02*
X145963000Y-86320000D01*
X145963000Y-86320000D02*
X150963000Y-86320000D01*
X150963000Y-86320000D02*
X150963000Y-81320000D01*
X150463000Y-83820000D02*
G75*
G03X150463000Y-83820000I-2000000J0D01*
G01*
D15*
X120278000Y-121885000D02*
X120278000Y-120685000D01*
X122038000Y-120685000D02*
X122038000Y-121885000D01*
X161408000Y-93380000D02*
X161408000Y-94580000D01*
X159648000Y-94580000D02*
X159648000Y-93380000D01*
X153788000Y-93380000D02*
X153788000Y-94580000D01*
X152028000Y-94580000D02*
X152028000Y-93380000D01*
X149343000Y-93380000D02*
X149343000Y-94580000D01*
X147583000Y-94580000D02*
X147583000Y-93380000D01*
X115198000Y-121885000D02*
X115198000Y-120685000D01*
X116958000Y-120685000D02*
X116958000Y-121885000D01*
X140173000Y-120895000D02*
X138973000Y-120895000D01*
X138973000Y-119135000D02*
X140173000Y-119135000D01*
X158318000Y-94830000D02*
X158318000Y-92230000D01*
X155118000Y-94830000D02*
X155118000Y-93130000D01*
D11*
X157988000Y-76835000D02*
X175768000Y-76835000D01*
X175768000Y-76835000D02*
X175768000Y-74295000D01*
X175768000Y-74295000D02*
X157988000Y-74295000D01*
X155168000Y-77115000D02*
X156718000Y-77115000D01*
X157988000Y-76835000D02*
X157988000Y-74295000D01*
X156718000Y-74015000D02*
X155168000Y-74015000D01*
X155168000Y-74015000D02*
X155168000Y-77115000D01*
X131064000Y-76835000D02*
X153924000Y-76835000D01*
X153924000Y-76835000D02*
X153924000Y-74295000D01*
X153924000Y-74295000D02*
X131064000Y-74295000D01*
X128244000Y-77115000D02*
X129794000Y-77115000D01*
X131064000Y-76835000D02*
X131064000Y-74295000D01*
X129794000Y-74015000D02*
X128244000Y-74015000D01*
X128244000Y-74015000D02*
X128244000Y-77115000D01*
X163068000Y-125095000D02*
X175768000Y-125095000D01*
X175768000Y-125095000D02*
X175768000Y-122555000D01*
X175768000Y-122555000D02*
X163068000Y-122555000D01*
X160248000Y-125375000D02*
X161798000Y-125375000D01*
X163068000Y-125095000D02*
X163068000Y-122555000D01*
X161798000Y-122275000D02*
X160248000Y-122275000D01*
X160248000Y-122275000D02*
X160248000Y-125375000D01*
X140208000Y-125095000D02*
X157988000Y-125095000D01*
X157988000Y-125095000D02*
X157988000Y-122555000D01*
X157988000Y-122555000D02*
X140208000Y-122555000D01*
X137388000Y-125375000D02*
X138938000Y-125375000D01*
X140208000Y-125095000D02*
X140208000Y-122555000D01*
X138938000Y-122275000D02*
X137388000Y-122275000D01*
X137388000Y-122275000D02*
X137388000Y-125375000D01*
D15*
X123758000Y-76895000D02*
X123758000Y-74235000D01*
X116078000Y-76895000D02*
X123758000Y-76895000D01*
X116078000Y-74235000D02*
X123758000Y-74235000D01*
X116078000Y-76895000D02*
X116078000Y-74235000D01*
X114808000Y-76895000D02*
X113478000Y-76895000D01*
X113478000Y-76895000D02*
X113478000Y-75565000D01*
X139513000Y-87690000D02*
X142173000Y-87690000D01*
X139513000Y-82550000D02*
X139513000Y-87690000D01*
X142173000Y-82550000D02*
X142173000Y-87690000D01*
X139513000Y-82550000D02*
X142173000Y-82550000D01*
X139513000Y-81280000D02*
X139513000Y-79950000D01*
X139513000Y-79950000D02*
X140843000Y-79950000D01*
X165548000Y-86420000D02*
X168208000Y-86420000D01*
X165548000Y-81280000D02*
X165548000Y-86420000D01*
X168208000Y-81280000D02*
X168208000Y-86420000D01*
X165548000Y-81280000D02*
X168208000Y-81280000D01*
X165548000Y-80010000D02*
X165548000Y-78680000D01*
X165548000Y-78680000D02*
X166878000Y-78680000D01*
X168088000Y-86420000D02*
X170748000Y-86420000D01*
X168088000Y-81280000D02*
X168088000Y-86420000D01*
X170748000Y-81280000D02*
X170748000Y-86420000D01*
X168088000Y-81280000D02*
X170748000Y-81280000D01*
X168088000Y-80010000D02*
X168088000Y-78680000D01*
X168088000Y-78680000D02*
X169418000Y-78680000D01*
D11*
X159893000Y-105025000D02*
X159443000Y-104475000D01*
X159443000Y-104475000D02*
X160343000Y-104475000D01*
X160343000Y-104475000D02*
X159893000Y-105025000D01*
X159343000Y-105025000D02*
X160443000Y-105025000D01*
X161643060Y-106574140D02*
X161292540Y-106574140D01*
X158142940Y-106574140D02*
X158493460Y-106574140D01*
X161643060Y-102524560D02*
X161292540Y-102524560D01*
X161643060Y-107025440D02*
X161292540Y-107025440D01*
X158142940Y-107025440D02*
X158493460Y-107025440D01*
X158142940Y-102524560D02*
X158493460Y-102524560D01*
X161643060Y-107025440D02*
X161643060Y-102524560D01*
X158142940Y-107025440D02*
X158142940Y-102524560D01*
X159893000Y-115185000D02*
X159443000Y-114635000D01*
X159443000Y-114635000D02*
X160343000Y-114635000D01*
X160343000Y-114635000D02*
X159893000Y-115185000D01*
X159343000Y-115185000D02*
X160443000Y-115185000D01*
X161643060Y-116734140D02*
X161292540Y-116734140D01*
X158142940Y-116734140D02*
X158493460Y-116734140D01*
X161643060Y-112684560D02*
X161292540Y-112684560D01*
X161643060Y-117185440D02*
X161292540Y-117185440D01*
X158142940Y-117185440D02*
X158493460Y-117185440D01*
X158142940Y-112684560D02*
X158493460Y-112684560D01*
X161643060Y-117185440D02*
X161643060Y-112684560D01*
X158142940Y-117185440D02*
X158142940Y-112684560D01*
X119118000Y-80430000D02*
X118118000Y-80430000D01*
X118118000Y-82130000D02*
X119118000Y-82130000D01*
X144868000Y-84320000D02*
X144868000Y-83320000D01*
X143168000Y-83320000D02*
X143168000Y-84320000D01*
X161378000Y-84320000D02*
X161378000Y-83320000D01*
X159678000Y-83320000D02*
X159678000Y-84320000D01*
X153758000Y-84320000D02*
X153758000Y-83320000D01*
X152058000Y-83320000D02*
X152058000Y-84320000D01*
X142963000Y-101465000D02*
X142963000Y-100465000D01*
X141263000Y-100465000D02*
X141263000Y-101465000D01*
X130548000Y-113450000D02*
X129548000Y-113450000D01*
X129548000Y-115150000D02*
X130548000Y-115150000D01*
X146773000Y-101465000D02*
X146773000Y-100465000D01*
X145073000Y-100465000D02*
X145073000Y-101465000D01*
D15*
X148078000Y-103255000D02*
X149248000Y-103255000D01*
X152658000Y-103255000D02*
X151488000Y-103255000D01*
X151888000Y-98675000D02*
X151488000Y-98675000D01*
X148848000Y-98675000D02*
X149248000Y-98675000D01*
X148078000Y-99445000D02*
X148078000Y-103255000D01*
X148078000Y-99445000D02*
X148848000Y-98675000D01*
X152658000Y-99445000D02*
X152658000Y-103255000D01*
X152658000Y-99445000D02*
X151888000Y-98675000D01*
D16*
G36*
X112783620Y-114124740D02*
X112819180Y-114104420D01*
X112897920Y-114056160D01*
X113009680Y-113982500D01*
X113141760Y-113896140D01*
X113273840Y-113804700D01*
X113383060Y-113733580D01*
X113459260Y-113682780D01*
X113489740Y-113665000D01*
X113507520Y-113672620D01*
X113571020Y-113703100D01*
X113659920Y-113748820D01*
X113713260Y-113776760D01*
X113797080Y-113812320D01*
X113840260Y-113819940D01*
X113845340Y-113809780D01*
X113875820Y-113746280D01*
X113924080Y-113637060D01*
X113987580Y-113492280D01*
X114061240Y-113322100D01*
X114137440Y-113139220D01*
X114216180Y-112953800D01*
X114289840Y-112776000D01*
X114353340Y-112615980D01*
X114406680Y-112483900D01*
X114442240Y-112395000D01*
X114454940Y-112356900D01*
X114449860Y-112346740D01*
X114409220Y-112306100D01*
X114335560Y-112252760D01*
X114178080Y-112123220D01*
X114020600Y-111930180D01*
X113926620Y-111709200D01*
X113893600Y-111462820D01*
X113921540Y-111234220D01*
X114010440Y-111015780D01*
X114162840Y-110820200D01*
X114348260Y-110672880D01*
X114564160Y-110581440D01*
X114808000Y-110550960D01*
X115039140Y-110576360D01*
X115262660Y-110665260D01*
X115460780Y-110815120D01*
X115544600Y-110911640D01*
X115658900Y-111109760D01*
X115722400Y-111323120D01*
X115730020Y-111379000D01*
X115719860Y-111612680D01*
X115651280Y-111836200D01*
X115526820Y-112036860D01*
X115356640Y-112201960D01*
X115333780Y-112217200D01*
X115255040Y-112278160D01*
X115201700Y-112318800D01*
X115158520Y-112351820D01*
X115458240Y-113070640D01*
X115506500Y-113184940D01*
X115587780Y-113383060D01*
X115658900Y-113550700D01*
X115717320Y-113685320D01*
X115757960Y-113776760D01*
X115775740Y-113812320D01*
X115775740Y-113814860D01*
X115803680Y-113819940D01*
X115857020Y-113799620D01*
X115958620Y-113751360D01*
X116024660Y-113715800D01*
X116100860Y-113680240D01*
X116136420Y-113665000D01*
X116164360Y-113682780D01*
X116238020Y-113728500D01*
X116344700Y-113799620D01*
X116474240Y-113888520D01*
X116596160Y-113972340D01*
X116707920Y-114046000D01*
X116789200Y-114099340D01*
X116829840Y-114119660D01*
X116834920Y-114119660D01*
X116870480Y-114099340D01*
X116936520Y-114046000D01*
X117033040Y-113954560D01*
X117172740Y-113817400D01*
X117193060Y-113794540D01*
X117307360Y-113680240D01*
X117398800Y-113583720D01*
X117462300Y-113512600D01*
X117485160Y-113482120D01*
X117485160Y-113482120D01*
X117464840Y-113444020D01*
X117411500Y-113360200D01*
X117337840Y-113245900D01*
X117246400Y-113113820D01*
X117007640Y-112768380D01*
X117139720Y-112440720D01*
X117180360Y-112341660D01*
X117231160Y-112219740D01*
X117269260Y-112133380D01*
X117287040Y-112095280D01*
X117322600Y-112082580D01*
X117411500Y-112062260D01*
X117541040Y-112034320D01*
X117695980Y-112006380D01*
X117843300Y-111978440D01*
X117975380Y-111953040D01*
X118071900Y-111935260D01*
X118115080Y-111927640D01*
X118125240Y-111920020D01*
X118135400Y-111899700D01*
X118140480Y-111853980D01*
X118143020Y-111772700D01*
X118145560Y-111645700D01*
X118145560Y-111462820D01*
X118145560Y-111442500D01*
X118143020Y-111267240D01*
X118140480Y-111127540D01*
X118135400Y-111036100D01*
X118130320Y-111000540D01*
X118130320Y-111000540D01*
X118087140Y-110990380D01*
X117993160Y-110970060D01*
X117861080Y-110944660D01*
X117703600Y-110914180D01*
X117693440Y-110911640D01*
X117535960Y-110881160D01*
X117401340Y-110853220D01*
X117309900Y-110832900D01*
X117271800Y-110820200D01*
X117261640Y-110810040D01*
X117231160Y-110746540D01*
X117185440Y-110650020D01*
X117132100Y-110530640D01*
X117081300Y-110406180D01*
X117038120Y-110294420D01*
X117007640Y-110210600D01*
X116997480Y-110172500D01*
X116997480Y-110172500D01*
X117022880Y-110134400D01*
X117076220Y-110053120D01*
X117152420Y-109938820D01*
X117246400Y-109804200D01*
X117251480Y-109794040D01*
X117342920Y-109661960D01*
X117416580Y-109547660D01*
X117464840Y-109466380D01*
X117485160Y-109430820D01*
X117482620Y-109428280D01*
X117454680Y-109390180D01*
X117386100Y-109313980D01*
X117289580Y-109212380D01*
X117172740Y-109093000D01*
X117134640Y-109057440D01*
X117005100Y-108930440D01*
X116913660Y-108846620D01*
X116857780Y-108803440D01*
X116832380Y-108793280D01*
X116829840Y-108793280D01*
X116789200Y-108818680D01*
X116705380Y-108874560D01*
X116591080Y-108950760D01*
X116456460Y-109042200D01*
X116446300Y-109049820D01*
X116314220Y-109141260D01*
X116202460Y-109214920D01*
X116123720Y-109268260D01*
X116088160Y-109288580D01*
X116083080Y-109288580D01*
X116027200Y-109273340D01*
X115933220Y-109240320D01*
X115816380Y-109194600D01*
X115691920Y-109143800D01*
X115580160Y-109098080D01*
X115496340Y-109059980D01*
X115458240Y-109037120D01*
X115455700Y-109034580D01*
X115443000Y-108986320D01*
X115420140Y-108887260D01*
X115389660Y-108750100D01*
X115359180Y-108585000D01*
X115354100Y-108559600D01*
X115323620Y-108399580D01*
X115298220Y-108270040D01*
X115280440Y-108178600D01*
X115270280Y-108140500D01*
X115247420Y-108135420D01*
X115171220Y-108130340D01*
X115051840Y-108127800D01*
X114909600Y-108125260D01*
X114757200Y-108125260D01*
X114609880Y-108130340D01*
X114485420Y-108132880D01*
X114393980Y-108140500D01*
X114355880Y-108148120D01*
X114355880Y-108150660D01*
X114340640Y-108198920D01*
X114320320Y-108297980D01*
X114292380Y-108437680D01*
X114259360Y-108600240D01*
X114254280Y-108630720D01*
X114223800Y-108788200D01*
X114198400Y-108917740D01*
X114178080Y-109009180D01*
X114167920Y-109044740D01*
X114155220Y-109052360D01*
X114089180Y-109080300D01*
X113982500Y-109123480D01*
X113850420Y-109176820D01*
X113545620Y-109301280D01*
X113169700Y-109044740D01*
X113136680Y-109021880D01*
X113002060Y-108927900D01*
X112890300Y-108854240D01*
X112814100Y-108805980D01*
X112781080Y-108788200D01*
X112778540Y-108788200D01*
X112740440Y-108821220D01*
X112666780Y-108889800D01*
X112565180Y-108988860D01*
X112448340Y-109108240D01*
X112359440Y-109194600D01*
X112257840Y-109298740D01*
X112191800Y-109369860D01*
X112156240Y-109415580D01*
X112143540Y-109443520D01*
X112146080Y-109461300D01*
X112171480Y-109499400D01*
X112224820Y-109583220D01*
X112303560Y-109694980D01*
X112395000Y-109829600D01*
X112468660Y-109938820D01*
X112549940Y-110065820D01*
X112603280Y-110154720D01*
X112621060Y-110197900D01*
X112615980Y-110218220D01*
X112590580Y-110289340D01*
X112547400Y-110401100D01*
X112488980Y-110533180D01*
X112359440Y-110830360D01*
X112166400Y-110868460D01*
X112047020Y-110888780D01*
X111881920Y-110921800D01*
X111724440Y-110952280D01*
X111478060Y-111000540D01*
X111470440Y-111904780D01*
X111508540Y-111920020D01*
X111544100Y-111930180D01*
X111635540Y-111950500D01*
X111765080Y-111975900D01*
X111920020Y-112003840D01*
X112049560Y-112029240D01*
X112181640Y-112054640D01*
X112278160Y-112072420D01*
X112318800Y-112082580D01*
X112328960Y-112095280D01*
X112361980Y-112158780D01*
X112410240Y-112260380D01*
X112461040Y-112382300D01*
X112514380Y-112509300D01*
X112560100Y-112626140D01*
X112593120Y-112715040D01*
X112605820Y-112763300D01*
X112588040Y-112796320D01*
X112537240Y-112875060D01*
X112466120Y-112984280D01*
X112374680Y-113116360D01*
X112285780Y-113245900D01*
X112209580Y-113360200D01*
X112158780Y-113438940D01*
X112135920Y-113477040D01*
X112146080Y-113502440D01*
X112199420Y-113565940D01*
X112298480Y-113667540D01*
X112445800Y-113812320D01*
X112468660Y-113835180D01*
X112585500Y-113949480D01*
X112684560Y-114040920D01*
X112753140Y-114101880D01*
X112783620Y-114124740D01*
X112783620Y-114124740D01*
G37*
X112783620Y-114124740D02*
X112819180Y-114104420D01*
X112897920Y-114056160D01*
X113009680Y-113982500D01*
X113141760Y-113896140D01*
X113273840Y-113804700D01*
X113383060Y-113733580D01*
X113459260Y-113682780D01*
X113489740Y-113665000D01*
X113507520Y-113672620D01*
X113571020Y-113703100D01*
X113659920Y-113748820D01*
X113713260Y-113776760D01*
X113797080Y-113812320D01*
X113840260Y-113819940D01*
X113845340Y-113809780D01*
X113875820Y-113746280D01*
X113924080Y-113637060D01*
X113987580Y-113492280D01*
X114061240Y-113322100D01*
X114137440Y-113139220D01*
X114216180Y-112953800D01*
X114289840Y-112776000D01*
X114353340Y-112615980D01*
X114406680Y-112483900D01*
X114442240Y-112395000D01*
X114454940Y-112356900D01*
X114449860Y-112346740D01*
X114409220Y-112306100D01*
X114335560Y-112252760D01*
X114178080Y-112123220D01*
X114020600Y-111930180D01*
X113926620Y-111709200D01*
X113893600Y-111462820D01*
X113921540Y-111234220D01*
X114010440Y-111015780D01*
X114162840Y-110820200D01*
X114348260Y-110672880D01*
X114564160Y-110581440D01*
X114808000Y-110550960D01*
X115039140Y-110576360D01*
X115262660Y-110665260D01*
X115460780Y-110815120D01*
X115544600Y-110911640D01*
X115658900Y-111109760D01*
X115722400Y-111323120D01*
X115730020Y-111379000D01*
X115719860Y-111612680D01*
X115651280Y-111836200D01*
X115526820Y-112036860D01*
X115356640Y-112201960D01*
X115333780Y-112217200D01*
X115255040Y-112278160D01*
X115201700Y-112318800D01*
X115158520Y-112351820D01*
X115458240Y-113070640D01*
X115506500Y-113184940D01*
X115587780Y-113383060D01*
X115658900Y-113550700D01*
X115717320Y-113685320D01*
X115757960Y-113776760D01*
X115775740Y-113812320D01*
X115775740Y-113814860D01*
X115803680Y-113819940D01*
X115857020Y-113799620D01*
X115958620Y-113751360D01*
X116024660Y-113715800D01*
X116100860Y-113680240D01*
X116136420Y-113665000D01*
X116164360Y-113682780D01*
X116238020Y-113728500D01*
X116344700Y-113799620D01*
X116474240Y-113888520D01*
X116596160Y-113972340D01*
X116707920Y-114046000D01*
X116789200Y-114099340D01*
X116829840Y-114119660D01*
X116834920Y-114119660D01*
X116870480Y-114099340D01*
X116936520Y-114046000D01*
X117033040Y-113954560D01*
X117172740Y-113817400D01*
X117193060Y-113794540D01*
X117307360Y-113680240D01*
X117398800Y-113583720D01*
X117462300Y-113512600D01*
X117485160Y-113482120D01*
X117485160Y-113482120D01*
X117464840Y-113444020D01*
X117411500Y-113360200D01*
X117337840Y-113245900D01*
X117246400Y-113113820D01*
X117007640Y-112768380D01*
X117139720Y-112440720D01*
X117180360Y-112341660D01*
X117231160Y-112219740D01*
X117269260Y-112133380D01*
X117287040Y-112095280D01*
X117322600Y-112082580D01*
X117411500Y-112062260D01*
X117541040Y-112034320D01*
X117695980Y-112006380D01*
X117843300Y-111978440D01*
X117975380Y-111953040D01*
X118071900Y-111935260D01*
X118115080Y-111927640D01*
X118125240Y-111920020D01*
X118135400Y-111899700D01*
X118140480Y-111853980D01*
X118143020Y-111772700D01*
X118145560Y-111645700D01*
X118145560Y-111462820D01*
X118145560Y-111442500D01*
X118143020Y-111267240D01*
X118140480Y-111127540D01*
X118135400Y-111036100D01*
X118130320Y-111000540D01*
X118130320Y-111000540D01*
X118087140Y-110990380D01*
X117993160Y-110970060D01*
X117861080Y-110944660D01*
X117703600Y-110914180D01*
X117693440Y-110911640D01*
X117535960Y-110881160D01*
X117401340Y-110853220D01*
X117309900Y-110832900D01*
X117271800Y-110820200D01*
X117261640Y-110810040D01*
X117231160Y-110746540D01*
X117185440Y-110650020D01*
X117132100Y-110530640D01*
X117081300Y-110406180D01*
X117038120Y-110294420D01*
X117007640Y-110210600D01*
X116997480Y-110172500D01*
X116997480Y-110172500D01*
X117022880Y-110134400D01*
X117076220Y-110053120D01*
X117152420Y-109938820D01*
X117246400Y-109804200D01*
X117251480Y-109794040D01*
X117342920Y-109661960D01*
X117416580Y-109547660D01*
X117464840Y-109466380D01*
X117485160Y-109430820D01*
X117482620Y-109428280D01*
X117454680Y-109390180D01*
X117386100Y-109313980D01*
X117289580Y-109212380D01*
X117172740Y-109093000D01*
X117134640Y-109057440D01*
X117005100Y-108930440D01*
X116913660Y-108846620D01*
X116857780Y-108803440D01*
X116832380Y-108793280D01*
X116829840Y-108793280D01*
X116789200Y-108818680D01*
X116705380Y-108874560D01*
X116591080Y-108950760D01*
X116456460Y-109042200D01*
X116446300Y-109049820D01*
X116314220Y-109141260D01*
X116202460Y-109214920D01*
X116123720Y-109268260D01*
X116088160Y-109288580D01*
X116083080Y-109288580D01*
X116027200Y-109273340D01*
X115933220Y-109240320D01*
X115816380Y-109194600D01*
X115691920Y-109143800D01*
X115580160Y-109098080D01*
X115496340Y-109059980D01*
X115458240Y-109037120D01*
X115455700Y-109034580D01*
X115443000Y-108986320D01*
X115420140Y-108887260D01*
X115389660Y-108750100D01*
X115359180Y-108585000D01*
X115354100Y-108559600D01*
X115323620Y-108399580D01*
X115298220Y-108270040D01*
X115280440Y-108178600D01*
X115270280Y-108140500D01*
X115247420Y-108135420D01*
X115171220Y-108130340D01*
X115051840Y-108127800D01*
X114909600Y-108125260D01*
X114757200Y-108125260D01*
X114609880Y-108130340D01*
X114485420Y-108132880D01*
X114393980Y-108140500D01*
X114355880Y-108148120D01*
X114355880Y-108150660D01*
X114340640Y-108198920D01*
X114320320Y-108297980D01*
X114292380Y-108437680D01*
X114259360Y-108600240D01*
X114254280Y-108630720D01*
X114223800Y-108788200D01*
X114198400Y-108917740D01*
X114178080Y-109009180D01*
X114167920Y-109044740D01*
X114155220Y-109052360D01*
X114089180Y-109080300D01*
X113982500Y-109123480D01*
X113850420Y-109176820D01*
X113545620Y-109301280D01*
X113169700Y-109044740D01*
X113136680Y-109021880D01*
X113002060Y-108927900D01*
X112890300Y-108854240D01*
X112814100Y-108805980D01*
X112781080Y-108788200D01*
X112778540Y-108788200D01*
X112740440Y-108821220D01*
X112666780Y-108889800D01*
X112565180Y-108988860D01*
X112448340Y-109108240D01*
X112359440Y-109194600D01*
X112257840Y-109298740D01*
X112191800Y-109369860D01*
X112156240Y-109415580D01*
X112143540Y-109443520D01*
X112146080Y-109461300D01*
X112171480Y-109499400D01*
X112224820Y-109583220D01*
X112303560Y-109694980D01*
X112395000Y-109829600D01*
X112468660Y-109938820D01*
X112549940Y-110065820D01*
X112603280Y-110154720D01*
X112621060Y-110197900D01*
X112615980Y-110218220D01*
X112590580Y-110289340D01*
X112547400Y-110401100D01*
X112488980Y-110533180D01*
X112359440Y-110830360D01*
X112166400Y-110868460D01*
X112047020Y-110888780D01*
X111881920Y-110921800D01*
X111724440Y-110952280D01*
X111478060Y-111000540D01*
X111470440Y-111904780D01*
X111508540Y-111920020D01*
X111544100Y-111930180D01*
X111635540Y-111950500D01*
X111765080Y-111975900D01*
X111920020Y-112003840D01*
X112049560Y-112029240D01*
X112181640Y-112054640D01*
X112278160Y-112072420D01*
X112318800Y-112082580D01*
X112328960Y-112095280D01*
X112361980Y-112158780D01*
X112410240Y-112260380D01*
X112461040Y-112382300D01*
X112514380Y-112509300D01*
X112560100Y-112626140D01*
X112593120Y-112715040D01*
X112605820Y-112763300D01*
X112588040Y-112796320D01*
X112537240Y-112875060D01*
X112466120Y-112984280D01*
X112374680Y-113116360D01*
X112285780Y-113245900D01*
X112209580Y-113360200D01*
X112158780Y-113438940D01*
X112135920Y-113477040D01*
X112146080Y-113502440D01*
X112199420Y-113565940D01*
X112298480Y-113667540D01*
X112445800Y-113812320D01*
X112468660Y-113835180D01*
X112585500Y-113949480D01*
X112684560Y-114040920D01*
X112753140Y-114101880D01*
X112783620Y-114124740D01*
D11*
X128270000Y-120396000D02*
X128270000Y-122174000D01*
X128905000Y-120396000D02*
X128270000Y-120396000D01*
X128905000Y-121666000D02*
X128905000Y-120396000D01*
X129413000Y-121666000D02*
X128905000Y-121666000D01*
X129413000Y-120904000D02*
X129413000Y-121666000D01*
X130048000Y-120904000D02*
X129413000Y-120904000D01*
X130048000Y-121666000D02*
X130048000Y-120904000D01*
X130683000Y-121666000D02*
X130048000Y-121666000D01*
X130683000Y-120904000D02*
X130683000Y-121666000D01*
X131318000Y-120904000D02*
X130683000Y-120904000D01*
X131318000Y-122174000D02*
X131318000Y-120904000D01*
X131826000Y-122174000D02*
X131318000Y-122174000D01*
X131826000Y-120396000D02*
X131826000Y-122174000D01*
X128016000Y-122682000D02*
X128016000Y-119888000D01*
X132080000Y-119888000D02*
X132080000Y-122682000D01*
X132080000Y-119888000D02*
G75*
G03X128016000Y-119888000I-2032000J-1397000D01*
G01*
X128016000Y-122682000D02*
G75*
G03X132080000Y-122682000I2032000J1397000D01*
G01*
X170978000Y-114895000D02*
X171378000Y-114895000D01*
X169878000Y-119145000D02*
X169878000Y-110645000D01*
X170978000Y-119145000D02*
X170978000Y-110645000D01*
X163778000Y-119145000D02*
X171378000Y-119145000D01*
X171378000Y-110645000D02*
X163778000Y-110645000D01*
X163778000Y-110645000D02*
X163778000Y-119145000D01*
X170978000Y-104775000D02*
X171378000Y-104775000D01*
X169878000Y-109025000D02*
X169878000Y-100525000D01*
X170978000Y-109025000D02*
X170978000Y-100525000D01*
X163778000Y-109025000D02*
X171378000Y-109025000D01*
X171378000Y-100525000D02*
X163778000Y-100525000D01*
X163778000Y-100525000D02*
X163778000Y-109025000D01*
D10*
X134493000Y-121885000D02*
X134793000Y-121985000D01*
X134493000Y-121885000D02*
X134693000Y-121685000D01*
X133893000Y-121285000D02*
G75*
G02X134493000Y-121885000I600000J0D01*
G01*
D13*
X132993000Y-123285000D02*
X132993000Y-119285000D01*
X135993000Y-123285000D02*
X132993000Y-123285000D01*
X135993000Y-119285000D02*
X135993000Y-123285000D01*
X132993000Y-119285000D02*
X135993000Y-119285000D01*
D11*
X169799000Y-94615000D02*
X168656000Y-96266000D01*
X166497000Y-94615000D02*
X167640000Y-96266000D01*
X167640000Y-96265999D02*
G75*
G03X168656000Y-96266000I508000J380999D01*
G01*
X166497000Y-90805000D02*
X166497000Y-94615000D01*
X169799000Y-90805000D02*
X169799000Y-94615000D01*
X169799000Y-90805000D02*
G75*
G03X169164000Y-90170000I-635000J0D01*
G01*
X167132000Y-90170000D02*
G75*
G03X166497000Y-90805000I0J-635000D01*
G01*
X168148000Y-90170000D02*
X169164000Y-90170000D01*
X168148000Y-90170000D02*
X167132000Y-90170000D01*
X164338000Y-96393000D02*
G75*
G03X165608000Y-97663000I1270000J0D01*
G01*
X170688000Y-97663000D02*
G75*
G03X171958000Y-96393000I0J1270000D01*
G01*
X171958000Y-90297000D02*
G75*
G03X170688000Y-89027000I-1270000J0D01*
G01*
X165608000Y-89027000D02*
G75*
G03X164338000Y-90297000I0J-1270000D01*
G01*
X170688000Y-97663000D02*
X168148000Y-97663000D01*
X171958000Y-90297000D02*
X171958000Y-96393000D01*
X168148000Y-89027000D02*
X170688000Y-89027000D01*
X165608000Y-89027000D02*
X168148000Y-89027000D01*
X164338000Y-96393000D02*
X164338000Y-90297000D01*
X168148000Y-97663000D02*
X165608000Y-97663000D01*
X163449000Y-93472000D02*
X164719000Y-93472000D01*
X163449000Y-91948000D02*
X163449000Y-93472000D01*
X164719000Y-91948000D02*
X163449000Y-91948000D01*
X164719000Y-93472000D02*
X164719000Y-91948000D01*
X164719000Y-96647000D02*
X163449000Y-96647000D01*
X163449000Y-95123000D02*
X163449000Y-96647000D01*
X164719000Y-95123000D02*
X163449000Y-95123000D01*
X164719000Y-96647000D02*
X164719000Y-95123000D01*
X171577000Y-93472000D02*
X172847000Y-93472000D01*
X172847000Y-91948000D02*
X172847000Y-93472000D01*
X171577000Y-91948000D02*
X172847000Y-91948000D01*
X171577000Y-93472000D02*
X171577000Y-91948000D01*
X172847000Y-96647000D02*
X171577000Y-96647000D01*
X172847000Y-95123000D02*
X172847000Y-96647000D01*
X171577000Y-95123000D02*
X172847000Y-95123000D01*
X171577000Y-96647000D02*
X171577000Y-95123000D01*
D17*
X142778000Y-99695000D02*
G75*
G03X142778000Y-99695000I-14000000J0D01*
G01*
D11*
X135278000Y-97195000D02*
X137778000Y-97195000D01*
X135278000Y-102195000D02*
X137778000Y-102195000D01*
X137778000Y-99695000D02*
X135778000Y-99695000D01*
X136803855Y-99195000D02*
X135803855Y-99695000D01*
X136803855Y-100195000D02*
X136803855Y-99195000D01*
X135803855Y-99695000D02*
X136803855Y-100195000D01*
X128778000Y-109195000D02*
X128778000Y-107195000D01*
X136778000Y-95195000D02*
X136778000Y-92695000D01*
X124278000Y-107695000D02*
X121778000Y-107695000D01*
X126278000Y-106695000D02*
X126278000Y-109195000D01*
X131278000Y-106695000D02*
X131278000Y-109195000D01*
X134803855Y-97695000D02*
X135303855Y-97195000D01*
X135803855Y-98195000D02*
X134803855Y-97695000D01*
X134803855Y-98695000D02*
X135803855Y-98195000D01*
X135803855Y-99195000D02*
X134803855Y-98695000D01*
X134803855Y-99695000D02*
X135803855Y-99195000D01*
X135803855Y-100195000D02*
X134803855Y-99695000D01*
X134803855Y-100695000D02*
X135803855Y-100195000D01*
X135803855Y-101195000D02*
X134803855Y-100695000D01*
X134803855Y-101695000D02*
X135803855Y-101195000D01*
X135303855Y-102195000D02*
X134803855Y-101695000D01*
X136778000Y-92695000D02*
G75*
G03X135778000Y-91695000I-1000000J0D01*
G01*
X135778000Y-107695000D02*
G75*
G03X136778000Y-106695000I0J1000000D01*
G01*
X120778000Y-106695000D02*
G75*
G03X121778000Y-107695000I1000000J0D01*
G01*
X121778000Y-91695000D02*
G75*
G03X120778000Y-92695000I0J-1000000D01*
G01*
X114778000Y-104695000D02*
G75*
G03X115278000Y-105195000I500000J0D01*
G01*
X115278000Y-94195000D02*
G75*
G03X114778000Y-94695000I0J-500000D01*
G01*
X139778000Y-104195000D02*
G75*
G03X140278000Y-103695000I0J500000D01*
G01*
X140278000Y-95695000D02*
G75*
G03X139778000Y-95195000I-500000J0D01*
G01*
X132778000Y-111195000D02*
G75*
G03X133278000Y-110695000I0J500000D01*
G01*
X124278000Y-110695000D02*
G75*
G03X124778000Y-111195000I500000J0D01*
G01*
X132778000Y-99695000D02*
G75*
G03X132778000Y-99695000I-4000000J0D01*
G01*
X127778000Y-100195000D02*
X127778000Y-99195000D01*
X129778000Y-100195000D02*
X127778000Y-100195000D01*
X129778000Y-99195000D02*
X129778000Y-100195000D01*
X127778000Y-99195000D02*
X129778000Y-99195000D01*
X128278000Y-111695000D02*
X128278000Y-111195000D01*
X129278000Y-111695000D02*
X128278000Y-111695000D01*
X129278000Y-111195000D02*
X129278000Y-111695000D01*
X140778000Y-99195000D02*
X140278000Y-99195000D01*
X140778000Y-100195000D02*
X140778000Y-99195000D01*
X140278000Y-100195000D02*
X140778000Y-100195000D01*
X139778000Y-95195000D02*
X136778000Y-95195000D01*
X140278000Y-103695000D02*
X140278000Y-95695000D01*
X136778000Y-104195000D02*
X139778000Y-104195000D01*
X133278000Y-110695000D02*
X133278000Y-107695000D01*
X124778000Y-111195000D02*
X132778000Y-111195000D01*
X124278000Y-107695000D02*
X124278000Y-110695000D01*
X115278000Y-94195000D02*
X120778000Y-94195000D01*
X114778000Y-104695000D02*
X114778000Y-94695000D01*
X120778000Y-105195000D02*
X115278000Y-105195000D01*
X120778000Y-106695000D02*
X120778000Y-92695000D01*
X135778000Y-107695000D02*
X133278000Y-107695000D01*
X136778000Y-104195000D02*
X136778000Y-106695000D01*
X121778000Y-91695000D02*
X135778000Y-91695000D01*
X126778000Y-106195000D02*
X127278000Y-107195000D01*
X127278000Y-107195000D02*
X127778000Y-106195000D01*
X127778000Y-106195000D02*
X128278000Y-107195000D01*
X126278000Y-106695000D02*
X126778000Y-106195000D01*
X129278000Y-108195000D02*
X128778000Y-107195000D01*
X128278000Y-108195000D02*
X129278000Y-108195000D01*
X128778000Y-106195000D02*
X129278000Y-107195000D01*
X128778000Y-107195000D02*
X128278000Y-108195000D01*
X128278000Y-107195000D02*
X128778000Y-106195000D01*
X129278000Y-107195000D02*
X129778000Y-106195000D01*
X130278000Y-107195000D02*
X130778000Y-106195000D01*
X129778000Y-106195000D02*
X130278000Y-107195000D01*
X130778000Y-106195000D02*
X131278000Y-106695000D01*
X156551334Y-80240143D02*
X156503715Y-80287762D01*
X156360858Y-80335381D01*
X156265620Y-80335381D01*
X156122762Y-80287762D01*
X156027524Y-80192524D01*
X155979905Y-80097286D01*
X155932286Y-79906810D01*
X155932286Y-79763952D01*
X155979905Y-79573476D01*
X156027524Y-79478238D01*
X156122762Y-79383000D01*
X156265620Y-79335381D01*
X156360858Y-79335381D01*
X156503715Y-79383000D01*
X156551334Y-79430619D01*
X156884667Y-79335381D02*
X157551334Y-79335381D01*
X157122762Y-80335381D01*
X154779429Y-81430952D02*
X154779429Y-80669047D01*
X155160381Y-81049999D02*
X154398476Y-81049999D01*
X147701095Y-79335381D02*
X147701095Y-80144905D01*
X147748714Y-80240143D01*
X147796333Y-80287762D01*
X147891571Y-80335381D01*
X148082048Y-80335381D01*
X148177286Y-80287762D01*
X148224905Y-80240143D01*
X148272524Y-80144905D01*
X148272524Y-79335381D01*
X149272524Y-80335381D02*
X148701095Y-80335381D01*
X148986809Y-80335381D02*
X148986809Y-79335381D01*
X148891571Y-79478238D01*
X148796333Y-79573476D01*
X148701095Y-79621095D01*
X119872286Y-116927381D02*
X120443715Y-116927381D01*
X120158000Y-117927381D02*
X120158000Y-116927381D01*
X120777048Y-117927381D02*
X120777048Y-116927381D01*
X120777048Y-117403571D02*
X121348477Y-117403571D01*
X121348477Y-117927381D02*
X121348477Y-116927381D01*
X122348477Y-117927381D02*
X121777048Y-117927381D01*
X122062762Y-117927381D02*
X122062762Y-116927381D01*
X121967524Y-117070238D01*
X121872286Y-117165476D01*
X121777048Y-117213095D01*
X119348476Y-124547381D02*
X119919905Y-124547381D01*
X119634190Y-125547381D02*
X119634190Y-124547381D01*
X120253238Y-125023571D02*
X120586572Y-125023571D01*
X120729429Y-125547381D02*
X120253238Y-125547381D01*
X120253238Y-124547381D01*
X120729429Y-124547381D01*
X121158000Y-125547381D02*
X121158000Y-124547381D01*
X121491334Y-125261667D01*
X121824667Y-124547381D01*
X121824667Y-125547381D01*
X122300857Y-125547381D02*
X122300857Y-124547381D01*
X122681810Y-124547381D01*
X122777048Y-124595000D01*
X122824667Y-124642619D01*
X122872286Y-124737857D01*
X122872286Y-124880714D01*
X122824667Y-124975952D01*
X122777048Y-125023571D01*
X122681810Y-125071190D01*
X122300857Y-125071190D01*
X160361334Y-91257381D02*
X160028000Y-90781190D01*
X159789905Y-91257381D02*
X159789905Y-90257381D01*
X160170858Y-90257381D01*
X160266096Y-90305000D01*
X160313715Y-90352619D01*
X160361334Y-90447857D01*
X160361334Y-90590714D01*
X160313715Y-90685952D01*
X160266096Y-90733571D01*
X160170858Y-90781190D01*
X159789905Y-90781190D01*
X160694667Y-90257381D02*
X161361334Y-90257381D01*
X160932762Y-91257381D01*
X152741334Y-91257381D02*
X152408000Y-90781190D01*
X152169905Y-91257381D02*
X152169905Y-90257381D01*
X152550858Y-90257381D01*
X152646096Y-90305000D01*
X152693715Y-90352619D01*
X152741334Y-90447857D01*
X152741334Y-90590714D01*
X152693715Y-90685952D01*
X152646096Y-90733571D01*
X152550858Y-90781190D01*
X152169905Y-90781190D01*
X153598477Y-90257381D02*
X153408000Y-90257381D01*
X153312762Y-90305000D01*
X153265143Y-90352619D01*
X153169905Y-90495476D01*
X153122286Y-90685952D01*
X153122286Y-91066905D01*
X153169905Y-91162143D01*
X153217524Y-91209762D01*
X153312762Y-91257381D01*
X153503239Y-91257381D01*
X153598477Y-91209762D01*
X153646096Y-91162143D01*
X153693715Y-91066905D01*
X153693715Y-90828810D01*
X153646096Y-90733571D01*
X153598477Y-90685952D01*
X153503239Y-90638333D01*
X153312762Y-90638333D01*
X153217524Y-90685952D01*
X153169905Y-90733571D01*
X153122286Y-90828810D01*
X148296334Y-91257381D02*
X147963000Y-90781190D01*
X147724905Y-91257381D02*
X147724905Y-90257381D01*
X148105858Y-90257381D01*
X148201096Y-90305000D01*
X148248715Y-90352619D01*
X148296334Y-90447857D01*
X148296334Y-90590714D01*
X148248715Y-90685952D01*
X148201096Y-90733571D01*
X148105858Y-90781190D01*
X147724905Y-90781190D01*
X149201096Y-90257381D02*
X148724905Y-90257381D01*
X148677286Y-90733571D01*
X148724905Y-90685952D01*
X148820143Y-90638333D01*
X149058239Y-90638333D01*
X149153477Y-90685952D01*
X149201096Y-90733571D01*
X149248715Y-90828810D01*
X149248715Y-91066905D01*
X149201096Y-91162143D01*
X149153477Y-91209762D01*
X149058239Y-91257381D01*
X148820143Y-91257381D01*
X148724905Y-91209762D01*
X148677286Y-91162143D01*
X115911334Y-117927381D02*
X115578000Y-117451190D01*
X115339905Y-117927381D02*
X115339905Y-116927381D01*
X115720858Y-116927381D01*
X115816096Y-116975000D01*
X115863715Y-117022619D01*
X115911334Y-117117857D01*
X115911334Y-117260714D01*
X115863715Y-117355952D01*
X115816096Y-117403571D01*
X115720858Y-117451190D01*
X115339905Y-117451190D01*
X116292286Y-117022619D02*
X116339905Y-116975000D01*
X116435143Y-116927381D01*
X116673239Y-116927381D01*
X116768477Y-116975000D01*
X116816096Y-117022619D01*
X116863715Y-117117857D01*
X116863715Y-117213095D01*
X116816096Y-117355952D01*
X116244667Y-117927381D01*
X116863715Y-117927381D01*
X139406334Y-117927381D02*
X139073000Y-117451190D01*
X138834905Y-117927381D02*
X138834905Y-116927381D01*
X139215858Y-116927381D01*
X139311096Y-116975000D01*
X139358715Y-117022619D01*
X139406334Y-117117857D01*
X139406334Y-117260714D01*
X139358715Y-117355952D01*
X139311096Y-117403571D01*
X139215858Y-117451190D01*
X138834905Y-117451190D01*
X140358715Y-117927381D02*
X139787286Y-117927381D01*
X140073000Y-117927381D02*
X140073000Y-116927381D01*
X139977762Y-117070238D01*
X139882524Y-117165476D01*
X139787286Y-117213095D01*
X156622762Y-91352619D02*
X156527524Y-91305000D01*
X156432286Y-91209762D01*
X156289429Y-91066905D01*
X156194190Y-91019286D01*
X156098952Y-91019286D01*
X156146571Y-91257381D02*
X156051333Y-91209762D01*
X155956095Y-91114524D01*
X155908476Y-90924048D01*
X155908476Y-90590714D01*
X155956095Y-90400238D01*
X156051333Y-90305000D01*
X156146571Y-90257381D01*
X156337048Y-90257381D01*
X156432286Y-90305000D01*
X156527524Y-90400238D01*
X156575143Y-90590714D01*
X156575143Y-90924048D01*
X156527524Y-91114524D01*
X156432286Y-91209762D01*
X156337048Y-91257381D01*
X156146571Y-91257381D01*
X157527524Y-91257381D02*
X156956095Y-91257381D01*
X157241809Y-91257381D02*
X157241809Y-90257381D01*
X157146571Y-90400238D01*
X157051333Y-90495476D01*
X156956095Y-90543095D01*
D13*
X111934667Y-75017381D02*
X111934667Y-75731667D01*
X111887047Y-75874524D01*
X111791809Y-75969762D01*
X111648952Y-76017381D01*
X111553714Y-76017381D01*
X112315619Y-75017381D02*
X112982286Y-75017381D01*
X112553714Y-76017381D01*
X111418810Y-79319381D02*
X111418810Y-78319381D01*
X111847381Y-78414619D02*
X111895000Y-78367000D01*
X111990238Y-78319381D01*
X112228334Y-78319381D01*
X112323572Y-78367000D01*
X112371191Y-78414619D01*
X112418810Y-78509857D01*
X112418810Y-78605095D01*
X112371191Y-78747952D01*
X111799762Y-79319381D01*
X112418810Y-79319381D01*
X113418810Y-79224143D02*
X113371191Y-79271762D01*
X113228334Y-79319381D01*
X113133096Y-79319381D01*
X112990238Y-79271762D01*
X112895000Y-79176524D01*
X112847381Y-79081286D01*
X112799762Y-78890810D01*
X112799762Y-78747952D01*
X112847381Y-78557476D01*
X112895000Y-78462238D01*
X112990238Y-78367000D01*
X113133096Y-78319381D01*
X113228334Y-78319381D01*
X113371191Y-78367000D01*
X113418810Y-78414619D01*
D11*
X137229905Y-87705714D02*
X138029905Y-87515238D01*
X137458476Y-87362857D01*
X138029905Y-87210476D01*
X137229905Y-87020000D01*
X137991810Y-86753333D02*
X138029905Y-86639047D01*
X138029905Y-86448571D01*
X137991810Y-86372381D01*
X137953714Y-86334285D01*
X137877524Y-86296190D01*
X137801333Y-86296190D01*
X137725143Y-86334285D01*
X137687048Y-86372381D01*
X137648952Y-86448571D01*
X137610857Y-86600952D01*
X137572762Y-86677143D01*
X137534667Y-86715238D01*
X137458476Y-86753333D01*
X137382286Y-86753333D01*
X137306095Y-86715238D01*
X137268000Y-86677143D01*
X137229905Y-86600952D01*
X137229905Y-86410476D01*
X137268000Y-86296190D01*
X137306095Y-85991428D02*
X137268000Y-85953333D01*
X137229905Y-85877142D01*
X137229905Y-85686666D01*
X137268000Y-85610476D01*
X137306095Y-85572380D01*
X137382286Y-85534285D01*
X137458476Y-85534285D01*
X137572762Y-85572380D01*
X138029905Y-86029523D01*
X138029905Y-85534285D01*
X137572762Y-85077142D02*
X137534667Y-85153333D01*
X137496571Y-85191428D01*
X137420381Y-85229523D01*
X137382286Y-85229523D01*
X137306095Y-85191428D01*
X137268000Y-85153333D01*
X137229905Y-85077142D01*
X137229905Y-84924761D01*
X137268000Y-84848571D01*
X137306095Y-84810475D01*
X137382286Y-84772380D01*
X137420381Y-84772380D01*
X137496571Y-84810475D01*
X137534667Y-84848571D01*
X137572762Y-84924761D01*
X137572762Y-85077142D01*
X137610857Y-85153333D01*
X137648952Y-85191428D01*
X137725143Y-85229523D01*
X137877524Y-85229523D01*
X137953714Y-85191428D01*
X137991810Y-85153333D01*
X138029905Y-85077142D01*
X138029905Y-84924761D01*
X137991810Y-84848571D01*
X137953714Y-84810475D01*
X137877524Y-84772380D01*
X137725143Y-84772380D01*
X137648952Y-84810475D01*
X137610857Y-84848571D01*
X137572762Y-84924761D01*
X138029905Y-84010475D02*
X138029905Y-84467618D01*
X138029905Y-84239047D02*
X137229905Y-84239047D01*
X137344190Y-84315237D01*
X137420381Y-84391428D01*
X137458476Y-84467618D01*
X138029905Y-83248570D02*
X138029905Y-83705713D01*
X138029905Y-83477142D02*
X137229905Y-83477142D01*
X137344190Y-83553332D01*
X137420381Y-83629523D01*
X137458476Y-83705713D01*
X137725143Y-82905713D02*
X137725143Y-82296189D01*
X137229905Y-81762856D02*
X137229905Y-81610475D01*
X137268000Y-81534284D01*
X137344190Y-81458094D01*
X137496571Y-81419999D01*
X137763238Y-81419999D01*
X137915619Y-81458094D01*
X137991810Y-81534284D01*
X138029905Y-81610475D01*
X138029905Y-81762856D01*
X137991810Y-81839046D01*
X137915619Y-81915237D01*
X137763238Y-81953332D01*
X137496571Y-81953332D01*
X137344190Y-81915237D01*
X137268000Y-81839046D01*
X137229905Y-81762856D01*
X137229905Y-81077142D02*
X137877524Y-81077142D01*
X137953714Y-81039047D01*
X137991810Y-81000951D01*
X138029905Y-80924761D01*
X138029905Y-80772380D01*
X137991810Y-80696189D01*
X137953714Y-80658094D01*
X137877524Y-80619999D01*
X137229905Y-80619999D01*
X137229905Y-80353333D02*
X137229905Y-79896190D01*
X138029905Y-80124761D02*
X137229905Y-80124761D01*
X164687524Y-87824762D02*
X164830381Y-87872381D01*
X165068477Y-87872381D01*
X165163715Y-87824762D01*
X165211334Y-87777143D01*
X165258953Y-87681905D01*
X165258953Y-87586667D01*
X165211334Y-87491429D01*
X165163715Y-87443810D01*
X165068477Y-87396190D01*
X164878000Y-87348571D01*
X164782762Y-87300952D01*
X164735143Y-87253333D01*
X164687524Y-87158095D01*
X164687524Y-87062857D01*
X164735143Y-86967619D01*
X164782762Y-86920000D01*
X164878000Y-86872381D01*
X165116096Y-86872381D01*
X165258953Y-86920000D01*
X165687524Y-87348571D02*
X166020858Y-87348571D01*
X166163715Y-87872381D02*
X165687524Y-87872381D01*
X165687524Y-86872381D01*
X166163715Y-86872381D01*
X167163715Y-87872381D02*
X166830381Y-87396190D01*
X166592286Y-87872381D02*
X166592286Y-86872381D01*
X166973239Y-86872381D01*
X167068477Y-86920000D01*
X167116096Y-86967619D01*
X167163715Y-87062857D01*
X167163715Y-87205714D01*
X167116096Y-87300952D01*
X167068477Y-87348571D01*
X166973239Y-87396190D01*
X166592286Y-87396190D01*
X167449429Y-86872381D02*
X167782762Y-87872381D01*
X168116096Y-86872381D01*
X168639905Y-86872381D02*
X168830382Y-86872381D01*
X168925620Y-86920000D01*
X169020858Y-87015238D01*
X169068477Y-87205714D01*
X169068477Y-87539048D01*
X169020858Y-87729524D01*
X168925620Y-87824762D01*
X168830382Y-87872381D01*
X168639905Y-87872381D01*
X168544667Y-87824762D01*
X168449429Y-87729524D01*
X168401810Y-87539048D01*
X168401810Y-87205714D01*
X168449429Y-87015238D01*
X168544667Y-86920000D01*
X168639905Y-86872381D01*
X156995905Y-108529381D02*
X156995905Y-107529381D01*
X157234000Y-107529381D01*
X157376858Y-107577000D01*
X157472096Y-107672238D01*
X157519715Y-107767476D01*
X157567334Y-107957952D01*
X157567334Y-108100810D01*
X157519715Y-108291286D01*
X157472096Y-108386524D01*
X157376858Y-108481762D01*
X157234000Y-108529381D01*
X156995905Y-108529381D01*
X157948286Y-107624619D02*
X157995905Y-107577000D01*
X158091143Y-107529381D01*
X158329239Y-107529381D01*
X158424477Y-107577000D01*
X158472096Y-107624619D01*
X158519715Y-107719857D01*
X158519715Y-107815095D01*
X158472096Y-107957952D01*
X157900667Y-108529381D01*
X158519715Y-108529381D01*
X157249905Y-118689381D02*
X157249905Y-117689381D01*
X157488000Y-117689381D01*
X157630858Y-117737000D01*
X157726096Y-117832238D01*
X157773715Y-117927476D01*
X157821334Y-118117952D01*
X157821334Y-118260810D01*
X157773715Y-118451286D01*
X157726096Y-118546524D01*
X157630858Y-118641762D01*
X157488000Y-118689381D01*
X157249905Y-118689381D01*
X158773715Y-118689381D02*
X158202286Y-118689381D01*
X158488000Y-118689381D02*
X158488000Y-117689381D01*
X158392762Y-117832238D01*
X158297524Y-117927476D01*
X158202286Y-117975095D01*
X121626334Y-81637143D02*
X121578715Y-81684762D01*
X121435858Y-81732381D01*
X121340620Y-81732381D01*
X121197762Y-81684762D01*
X121102524Y-81589524D01*
X121054905Y-81494286D01*
X121007286Y-81303810D01*
X121007286Y-81160952D01*
X121054905Y-80970476D01*
X121102524Y-80875238D01*
X121197762Y-80780000D01*
X121340620Y-80732381D01*
X121435858Y-80732381D01*
X121578715Y-80780000D01*
X121626334Y-80827619D01*
X122102524Y-81732381D02*
X122293000Y-81732381D01*
X122388239Y-81684762D01*
X122435858Y-81637143D01*
X122531096Y-81494286D01*
X122578715Y-81303810D01*
X122578715Y-80922857D01*
X122531096Y-80827619D01*
X122483477Y-80780000D01*
X122388239Y-80732381D01*
X122197762Y-80732381D01*
X122102524Y-80780000D01*
X122054905Y-80827619D01*
X122007286Y-80922857D01*
X122007286Y-81160952D01*
X122054905Y-81256190D01*
X122102524Y-81303810D01*
X122197762Y-81351429D01*
X122388239Y-81351429D01*
X122483477Y-81303810D01*
X122531096Y-81256190D01*
X122578715Y-81160952D01*
X143851334Y-80240143D02*
X143803715Y-80287762D01*
X143660858Y-80335381D01*
X143565620Y-80335381D01*
X143422762Y-80287762D01*
X143327524Y-80192524D01*
X143279905Y-80097286D01*
X143232286Y-79906810D01*
X143232286Y-79763952D01*
X143279905Y-79573476D01*
X143327524Y-79478238D01*
X143422762Y-79383000D01*
X143565620Y-79335381D01*
X143660858Y-79335381D01*
X143803715Y-79383000D01*
X143851334Y-79430619D01*
X144422762Y-79763952D02*
X144327524Y-79716333D01*
X144279905Y-79668714D01*
X144232286Y-79573476D01*
X144232286Y-79525857D01*
X144279905Y-79430619D01*
X144327524Y-79383000D01*
X144422762Y-79335381D01*
X144613239Y-79335381D01*
X144708477Y-79383000D01*
X144756096Y-79430619D01*
X144803715Y-79525857D01*
X144803715Y-79573476D01*
X144756096Y-79668714D01*
X144708477Y-79716333D01*
X144613239Y-79763952D01*
X144422762Y-79763952D01*
X144327524Y-79811571D01*
X144279905Y-79859190D01*
X144232286Y-79954429D01*
X144232286Y-80144905D01*
X144279905Y-80240143D01*
X144327524Y-80287762D01*
X144422762Y-80335381D01*
X144613239Y-80335381D01*
X144708477Y-80287762D01*
X144756096Y-80240143D01*
X144803715Y-80144905D01*
X144803715Y-79954429D01*
X144756096Y-79859190D01*
X144708477Y-79811571D01*
X144613239Y-79763952D01*
X160361334Y-80240143D02*
X160313715Y-80287762D01*
X160170858Y-80335381D01*
X160075620Y-80335381D01*
X159932762Y-80287762D01*
X159837524Y-80192524D01*
X159789905Y-80097286D01*
X159742286Y-79906810D01*
X159742286Y-79763952D01*
X159789905Y-79573476D01*
X159837524Y-79478238D01*
X159932762Y-79383000D01*
X160075620Y-79335381D01*
X160170858Y-79335381D01*
X160313715Y-79383000D01*
X160361334Y-79430619D01*
X161218477Y-79335381D02*
X161028000Y-79335381D01*
X160932762Y-79383000D01*
X160885143Y-79430619D01*
X160789905Y-79573476D01*
X160742286Y-79763952D01*
X160742286Y-80144905D01*
X160789905Y-80240143D01*
X160837524Y-80287762D01*
X160932762Y-80335381D01*
X161123239Y-80335381D01*
X161218477Y-80287762D01*
X161266096Y-80240143D01*
X161313715Y-80144905D01*
X161313715Y-79906810D01*
X161266096Y-79811571D01*
X161218477Y-79763952D01*
X161123239Y-79716333D01*
X160932762Y-79716333D01*
X160837524Y-79763952D01*
X160789905Y-79811571D01*
X160742286Y-79906810D01*
X152741334Y-80240143D02*
X152693715Y-80287762D01*
X152550858Y-80335381D01*
X152455620Y-80335381D01*
X152312762Y-80287762D01*
X152217524Y-80192524D01*
X152169905Y-80097286D01*
X152122286Y-79906810D01*
X152122286Y-79763952D01*
X152169905Y-79573476D01*
X152217524Y-79478238D01*
X152312762Y-79383000D01*
X152455620Y-79335381D01*
X152550858Y-79335381D01*
X152693715Y-79383000D01*
X152741334Y-79430619D01*
X153646096Y-79335381D02*
X153169905Y-79335381D01*
X153122286Y-79811571D01*
X153169905Y-79763952D01*
X153265143Y-79716333D01*
X153503239Y-79716333D01*
X153598477Y-79763952D01*
X153646096Y-79811571D01*
X153693715Y-79906810D01*
X153693715Y-80144905D01*
X153646096Y-80240143D01*
X153598477Y-80287762D01*
X153503239Y-80335381D01*
X153265143Y-80335381D01*
X153169905Y-80287762D01*
X153122286Y-80240143D01*
X142962334Y-105132143D02*
X142914715Y-105179762D01*
X142771858Y-105227381D01*
X142676620Y-105227381D01*
X142533762Y-105179762D01*
X142438524Y-105084524D01*
X142390905Y-104989286D01*
X142343286Y-104798810D01*
X142343286Y-104655952D01*
X142390905Y-104465476D01*
X142438524Y-104370238D01*
X142533762Y-104275000D01*
X142676620Y-104227381D01*
X142771858Y-104227381D01*
X142914715Y-104275000D01*
X142962334Y-104322619D01*
X143819477Y-104560714D02*
X143819477Y-105227381D01*
X143581381Y-104179762D02*
X143343286Y-104894048D01*
X143962334Y-104894048D01*
X133056334Y-114657143D02*
X133008715Y-114704762D01*
X132865858Y-114752381D01*
X132770620Y-114752381D01*
X132627762Y-114704762D01*
X132532524Y-114609524D01*
X132484905Y-114514286D01*
X132437286Y-114323810D01*
X132437286Y-114180952D01*
X132484905Y-113990476D01*
X132532524Y-113895238D01*
X132627762Y-113800000D01*
X132770620Y-113752381D01*
X132865858Y-113752381D01*
X133008715Y-113800000D01*
X133056334Y-113847619D01*
X133389667Y-113752381D02*
X134008715Y-113752381D01*
X133675381Y-114133333D01*
X133818239Y-114133333D01*
X133913477Y-114180952D01*
X133961096Y-114228571D01*
X134008715Y-114323810D01*
X134008715Y-114561905D01*
X133961096Y-114657143D01*
X133913477Y-114704762D01*
X133818239Y-114752381D01*
X133532524Y-114752381D01*
X133437286Y-114704762D01*
X133389667Y-114657143D01*
X145756334Y-105132143D02*
X145708715Y-105179762D01*
X145565858Y-105227381D01*
X145470620Y-105227381D01*
X145327762Y-105179762D01*
X145232524Y-105084524D01*
X145184905Y-104989286D01*
X145137286Y-104798810D01*
X145137286Y-104655952D01*
X145184905Y-104465476D01*
X145232524Y-104370238D01*
X145327762Y-104275000D01*
X145470620Y-104227381D01*
X145565858Y-104227381D01*
X145708715Y-104275000D01*
X145756334Y-104322619D01*
X146708715Y-105227381D02*
X146137286Y-105227381D01*
X146423000Y-105227381D02*
X146423000Y-104227381D01*
X146327762Y-104370238D01*
X146232524Y-104465476D01*
X146137286Y-104513095D01*
X150201334Y-105259143D02*
X150153715Y-105306762D01*
X150010858Y-105354381D01*
X149915620Y-105354381D01*
X149772762Y-105306762D01*
X149677524Y-105211524D01*
X149629905Y-105116286D01*
X149582286Y-104925810D01*
X149582286Y-104782952D01*
X149629905Y-104592476D01*
X149677524Y-104497238D01*
X149772762Y-104402000D01*
X149915620Y-104354381D01*
X150010858Y-104354381D01*
X150153715Y-104402000D01*
X150201334Y-104449619D01*
X150582286Y-104449619D02*
X150629905Y-104402000D01*
X150725143Y-104354381D01*
X150963239Y-104354381D01*
X151058477Y-104402000D01*
X151106096Y-104449619D01*
X151153715Y-104544857D01*
X151153715Y-104640095D01*
X151106096Y-104782952D01*
X150534667Y-105354381D01*
X151153715Y-105354381D01*
X148429429Y-98575952D02*
X148429429Y-97814047D01*
X148810381Y-98194999D02*
X148048476Y-98194999D01*
D18*
X111832571Y-114898714D02*
X111948685Y-114898714D01*
X112006743Y-114935000D01*
X112064800Y-115007571D01*
X112093828Y-115152714D01*
X112093828Y-115406714D01*
X112064800Y-115551857D01*
X112006743Y-115624429D01*
X111948685Y-115660714D01*
X111832571Y-115660714D01*
X111774514Y-115624429D01*
X111716457Y-115551857D01*
X111687428Y-115406714D01*
X111687428Y-115152714D01*
X111716457Y-115007571D01*
X111774514Y-114935000D01*
X111832571Y-114898714D01*
X112355086Y-115152714D02*
X112355086Y-115914714D01*
X112355086Y-115189000D02*
X112413143Y-115152714D01*
X112529257Y-115152714D01*
X112587314Y-115189000D01*
X112616343Y-115225286D01*
X112645372Y-115297857D01*
X112645372Y-115515571D01*
X112616343Y-115588143D01*
X112587314Y-115624429D01*
X112529257Y-115660714D01*
X112413143Y-115660714D01*
X112355086Y-115624429D01*
X113138857Y-115624429D02*
X113080800Y-115660714D01*
X112964686Y-115660714D01*
X112906629Y-115624429D01*
X112877600Y-115551857D01*
X112877600Y-115261571D01*
X112906629Y-115189000D01*
X112964686Y-115152714D01*
X113080800Y-115152714D01*
X113138857Y-115189000D01*
X113167886Y-115261571D01*
X113167886Y-115334143D01*
X112877600Y-115406714D01*
X113429143Y-115152714D02*
X113429143Y-115660714D01*
X113429143Y-115225286D02*
X113458171Y-115189000D01*
X113516229Y-115152714D01*
X113603314Y-115152714D01*
X113661371Y-115189000D01*
X113690400Y-115261571D01*
X113690400Y-115660714D01*
X113980686Y-115660714D02*
X113980686Y-114898714D01*
X113980686Y-115261571D02*
X114329029Y-115261571D01*
X114329029Y-115660714D02*
X114329029Y-114898714D01*
X114880572Y-115660714D02*
X114880572Y-115261571D01*
X114851543Y-115189000D01*
X114793486Y-115152714D01*
X114677372Y-115152714D01*
X114619315Y-115189000D01*
X114880572Y-115624429D02*
X114822515Y-115660714D01*
X114677372Y-115660714D01*
X114619315Y-115624429D01*
X114590286Y-115551857D01*
X114590286Y-115479286D01*
X114619315Y-115406714D01*
X114677372Y-115370429D01*
X114822515Y-115370429D01*
X114880572Y-115334143D01*
X115170858Y-115660714D02*
X115170858Y-115152714D01*
X115170858Y-115297857D02*
X115199886Y-115225286D01*
X115228915Y-115189000D01*
X115286972Y-115152714D01*
X115345029Y-115152714D01*
X115809486Y-115660714D02*
X115809486Y-114898714D01*
X115809486Y-115624429D02*
X115751429Y-115660714D01*
X115635315Y-115660714D01*
X115577257Y-115624429D01*
X115548229Y-115588143D01*
X115519200Y-115515571D01*
X115519200Y-115297857D01*
X115548229Y-115225286D01*
X115577257Y-115189000D01*
X115635315Y-115152714D01*
X115751429Y-115152714D01*
X115809486Y-115189000D01*
X116041715Y-115152714D02*
X116157829Y-115660714D01*
X116273943Y-115297857D01*
X116390058Y-115660714D01*
X116506172Y-115152714D01*
X116999658Y-115660714D02*
X116999658Y-115261571D01*
X116970629Y-115189000D01*
X116912572Y-115152714D01*
X116796458Y-115152714D01*
X116738401Y-115189000D01*
X116999658Y-115624429D02*
X116941601Y-115660714D01*
X116796458Y-115660714D01*
X116738401Y-115624429D01*
X116709372Y-115551857D01*
X116709372Y-115479286D01*
X116738401Y-115406714D01*
X116796458Y-115370429D01*
X116941601Y-115370429D01*
X116999658Y-115334143D01*
X117289944Y-115660714D02*
X117289944Y-115152714D01*
X117289944Y-115297857D02*
X117318972Y-115225286D01*
X117348001Y-115189000D01*
X117406058Y-115152714D01*
X117464115Y-115152714D01*
X117899543Y-115624429D02*
X117841486Y-115660714D01*
X117725372Y-115660714D01*
X117667315Y-115624429D01*
X117638286Y-115551857D01*
X117638286Y-115261571D01*
X117667315Y-115189000D01*
X117725372Y-115152714D01*
X117841486Y-115152714D01*
X117899543Y-115189000D01*
X117928572Y-115261571D01*
X117928572Y-115334143D01*
X117638286Y-115406714D01*
D11*
X128881334Y-117927381D02*
X128405143Y-117927381D01*
X128405143Y-116927381D01*
X129214667Y-117927381D02*
X129214667Y-116927381D01*
X129452762Y-116927381D01*
X129595620Y-116975000D01*
X129690858Y-117070238D01*
X129738477Y-117165476D01*
X129786096Y-117355952D01*
X129786096Y-117498810D01*
X129738477Y-117689286D01*
X129690858Y-117784524D01*
X129595620Y-117879762D01*
X129452762Y-117927381D01*
X129214667Y-117927381D01*
X130786096Y-117927381D02*
X130452762Y-117451190D01*
X130214667Y-117927381D02*
X130214667Y-116927381D01*
X130595620Y-116927381D01*
X130690858Y-116975000D01*
X130738477Y-117022619D01*
X130786096Y-117117857D01*
X130786096Y-117260714D01*
X130738477Y-117355952D01*
X130690858Y-117403571D01*
X130595620Y-117451190D01*
X130214667Y-117451190D01*
X131738477Y-117927381D02*
X131167048Y-117927381D01*
X131452762Y-117927381D02*
X131452762Y-116927381D01*
X131357524Y-117070238D01*
X131262286Y-117165476D01*
X131167048Y-117213095D01*
X128714667Y-125547381D02*
X128238476Y-125547381D01*
X128238476Y-124547381D01*
X129048000Y-125547381D02*
X129048000Y-124547381D01*
X130048000Y-124595000D02*
X129952762Y-124547381D01*
X129809905Y-124547381D01*
X129667047Y-124595000D01*
X129571809Y-124690238D01*
X129524190Y-124785476D01*
X129476571Y-124975952D01*
X129476571Y-125118810D01*
X129524190Y-125309286D01*
X129571809Y-125404524D01*
X129667047Y-125499762D01*
X129809905Y-125547381D01*
X129905143Y-125547381D01*
X130048000Y-125499762D01*
X130095619Y-125452143D01*
X130095619Y-125118810D01*
X129905143Y-125118810D01*
X130524190Y-125547381D02*
X130524190Y-124547381D01*
X130524190Y-125023571D02*
X131095619Y-125023571D01*
X131095619Y-125547381D02*
X131095619Y-124547381D01*
X131428952Y-124547381D02*
X132000381Y-124547381D01*
X131714666Y-125547381D02*
X131714666Y-124547381D01*
X172259667Y-118202381D02*
X172259667Y-118916667D01*
X172212047Y-119059524D01*
X172116809Y-119154762D01*
X171973952Y-119202381D01*
X171878714Y-119202381D01*
X172640619Y-118202381D02*
X173259667Y-118202381D01*
X172926333Y-118583333D01*
X173069191Y-118583333D01*
X173164429Y-118630952D01*
X173212048Y-118678571D01*
X173259667Y-118773810D01*
X173259667Y-119011905D01*
X173212048Y-119107143D01*
X173164429Y-119154762D01*
X173069191Y-119202381D01*
X172783476Y-119202381D01*
X172688238Y-119154762D01*
X172640619Y-119107143D01*
X172648714Y-115344762D02*
X172791571Y-115392381D01*
X173029667Y-115392381D01*
X173124905Y-115344762D01*
X173172524Y-115297143D01*
X173220143Y-115201905D01*
X173220143Y-115106667D01*
X173172524Y-115011429D01*
X173124905Y-114963810D01*
X173029667Y-114916190D01*
X172839190Y-114868571D01*
X172743952Y-114820952D01*
X172696333Y-114773333D01*
X172648714Y-114678095D01*
X172648714Y-114582857D01*
X172696333Y-114487619D01*
X172743952Y-114440000D01*
X172839190Y-114392381D01*
X173077286Y-114392381D01*
X173220143Y-114440000D01*
X173839190Y-114392381D02*
X174029667Y-114392381D01*
X174124905Y-114440000D01*
X174220143Y-114535238D01*
X174267762Y-114725714D01*
X174267762Y-115059048D01*
X174220143Y-115249524D01*
X174124905Y-115344762D01*
X174029667Y-115392381D01*
X173839190Y-115392381D01*
X173743952Y-115344762D01*
X173648714Y-115249524D01*
X173601095Y-115059048D01*
X173601095Y-114725714D01*
X173648714Y-114535238D01*
X173743952Y-114440000D01*
X173839190Y-114392381D01*
X175172524Y-115392381D02*
X174696333Y-115392381D01*
X174696333Y-114392381D01*
X172259667Y-108082381D02*
X172259667Y-108796667D01*
X172212047Y-108939524D01*
X172116809Y-109034762D01*
X171973952Y-109082381D01*
X171878714Y-109082381D01*
X173212048Y-108082381D02*
X172735857Y-108082381D01*
X172688238Y-108558571D01*
X172735857Y-108510952D01*
X172831095Y-108463333D01*
X173069191Y-108463333D01*
X173164429Y-108510952D01*
X173212048Y-108558571D01*
X173259667Y-108653810D01*
X173259667Y-108891905D01*
X173212048Y-108987143D01*
X173164429Y-109034762D01*
X173069191Y-109082381D01*
X172831095Y-109082381D01*
X172735857Y-109034762D01*
X172688238Y-108987143D01*
X172005857Y-105272381D02*
X172005857Y-104272381D01*
X172386810Y-104272381D01*
X172482048Y-104320000D01*
X172529667Y-104367619D01*
X172577286Y-104462857D01*
X172577286Y-104605714D01*
X172529667Y-104700952D01*
X172482048Y-104748571D01*
X172386810Y-104796190D01*
X172005857Y-104796190D01*
X173005857Y-104272381D02*
X173005857Y-105081905D01*
X173053476Y-105177143D01*
X173101095Y-105224762D01*
X173196333Y-105272381D01*
X173386810Y-105272381D01*
X173482048Y-105224762D01*
X173529667Y-105177143D01*
X173577286Y-105081905D01*
X173577286Y-104272381D01*
X174053476Y-105272381D02*
X174053476Y-104272381D01*
X174386810Y-104986667D01*
X174720143Y-104272381D01*
X174720143Y-105272381D01*
X175196333Y-105272381D02*
X175196333Y-104272381D01*
X175577286Y-104272381D01*
X175672524Y-104320000D01*
X175720143Y-104367619D01*
X175767762Y-104462857D01*
X175767762Y-104605714D01*
X175720143Y-104700952D01*
X175672524Y-104748571D01*
X175577286Y-104796190D01*
X175196333Y-104796190D01*
X133897762Y-117927381D02*
X133564428Y-117451190D01*
X133326333Y-117927381D02*
X133326333Y-116927381D01*
X133707286Y-116927381D01*
X133802524Y-116975000D01*
X133850143Y-117022619D01*
X133897762Y-117117857D01*
X133897762Y-117260714D01*
X133850143Y-117355952D01*
X133802524Y-117403571D01*
X133707286Y-117451190D01*
X133326333Y-117451190D01*
X134183476Y-116927381D02*
X134516809Y-117927381D01*
X134850143Y-116927381D01*
X135707286Y-117927381D02*
X135135857Y-117927381D01*
X135421571Y-117927381D02*
X135421571Y-116927381D01*
X135326333Y-117070238D01*
X135231095Y-117165476D01*
X135135857Y-117213095D01*
X164004667Y-97877381D02*
X164004667Y-98591667D01*
X163957047Y-98734524D01*
X163861809Y-98829762D01*
X163718952Y-98877381D01*
X163623714Y-98877381D01*
X164623714Y-98305952D02*
X164528476Y-98258333D01*
X164480857Y-98210714D01*
X164433238Y-98115476D01*
X164433238Y-98067857D01*
X164480857Y-97972619D01*
X164528476Y-97925000D01*
X164623714Y-97877381D01*
X164814191Y-97877381D01*
X164909429Y-97925000D01*
X164957048Y-97972619D01*
X165004667Y-98067857D01*
X165004667Y-98115476D01*
X164957048Y-98210714D01*
X164909429Y-98258333D01*
X164814191Y-98305952D01*
X164623714Y-98305952D01*
X164528476Y-98353571D01*
X164480857Y-98401190D01*
X164433238Y-98496429D01*
X164433238Y-98686905D01*
X164480857Y-98782143D01*
X164528476Y-98829762D01*
X164623714Y-98877381D01*
X164814191Y-98877381D01*
X164909429Y-98829762D01*
X164957048Y-98782143D01*
X165004667Y-98686905D01*
X165004667Y-98496429D01*
X164957048Y-98401190D01*
X164909429Y-98353571D01*
X164814191Y-98305952D01*
X166108476Y-98591667D02*
X166584667Y-98591667D01*
X166013238Y-98877381D02*
X166346571Y-97877381D01*
X166679905Y-98877381D01*
X167013238Y-97877381D02*
X167013238Y-98686905D01*
X167060857Y-98782143D01*
X167108476Y-98829762D01*
X167203714Y-98877381D01*
X167394191Y-98877381D01*
X167489429Y-98829762D01*
X167537048Y-98782143D01*
X167584667Y-98686905D01*
X167584667Y-97877381D01*
X167965619Y-97877381D02*
X168632286Y-98877381D01*
X168632286Y-97877381D02*
X167965619Y-98877381D01*
X168775143Y-98972619D02*
X169537048Y-98972619D01*
X169632286Y-97877381D02*
X170203715Y-97877381D01*
X169918000Y-98877381D02*
X169918000Y-97877381D01*
X170537048Y-98353571D02*
X170870382Y-98353571D01*
X171013239Y-98877381D02*
X170537048Y-98877381D01*
X170537048Y-97877381D01*
X171013239Y-97877381D01*
X171394191Y-98829762D02*
X171537048Y-98877381D01*
X171775144Y-98877381D01*
X171870382Y-98829762D01*
X171918001Y-98782143D01*
X171965620Y-98686905D01*
X171965620Y-98591667D01*
X171918001Y-98496429D01*
X171870382Y-98448810D01*
X171775144Y-98401190D01*
X171584667Y-98353571D01*
X171489429Y-98305952D01*
X171441810Y-98258333D01*
X171394191Y-98163095D01*
X171394191Y-98067857D01*
X171441810Y-97972619D01*
X171489429Y-97925000D01*
X171584667Y-97877381D01*
X171822763Y-97877381D01*
X171965620Y-97925000D01*
X172251334Y-97877381D02*
X172822763Y-97877381D01*
X172537048Y-98877381D02*
X172537048Y-97877381D01*
X123682286Y-94702381D02*
X123682286Y-95416667D01*
X123634666Y-95559524D01*
X123539428Y-95654762D01*
X123396571Y-95702381D01*
X123301333Y-95702381D01*
X124348952Y-94702381D02*
X124539429Y-94702381D01*
X124634667Y-94750000D01*
X124729905Y-94845238D01*
X124777524Y-95035714D01*
X124777524Y-95369048D01*
X124729905Y-95559524D01*
X124634667Y-95654762D01*
X124539429Y-95702381D01*
X124348952Y-95702381D01*
X124253714Y-95654762D01*
X124158476Y-95559524D01*
X124110857Y-95369048D01*
X124110857Y-95035714D01*
X124158476Y-94845238D01*
X124253714Y-94750000D01*
X124348952Y-94702381D01*
X125396571Y-95226190D02*
X125396571Y-95702381D01*
X125063238Y-94702381D02*
X125396571Y-95226190D01*
X125729905Y-94702381D01*
X126587048Y-95702381D02*
X126015619Y-95702381D01*
X126301333Y-95702381D02*
X126301333Y-94702381D01*
X126206095Y-94845238D01*
X126110857Y-94940476D01*
X126015619Y-94988095D01*
X123777999Y-93749762D02*
X123920856Y-93797381D01*
X124158952Y-93797381D01*
X124254190Y-93749762D01*
X124301809Y-93702143D01*
X124349428Y-93606905D01*
X124349428Y-93511667D01*
X124301809Y-93416429D01*
X124254190Y-93368810D01*
X124158952Y-93321190D01*
X123968475Y-93273571D01*
X123873237Y-93225952D01*
X123825618Y-93178333D01*
X123777999Y-93083095D01*
X123777999Y-92987857D01*
X123825618Y-92892619D01*
X123873237Y-92845000D01*
X123968475Y-92797381D01*
X124206571Y-92797381D01*
X124349428Y-92845000D01*
X125158952Y-93749762D02*
X125063714Y-93797381D01*
X124873237Y-93797381D01*
X124777999Y-93749762D01*
X124730380Y-93654524D01*
X124730380Y-93273571D01*
X124777999Y-93178333D01*
X124873237Y-93130714D01*
X125063714Y-93130714D01*
X125158952Y-93178333D01*
X125206571Y-93273571D01*
X125206571Y-93368810D01*
X124730380Y-93464048D01*
X126016095Y-93749762D02*
X125920857Y-93797381D01*
X125730380Y-93797381D01*
X125635142Y-93749762D01*
X125587523Y-93654524D01*
X125587523Y-93273571D01*
X125635142Y-93178333D01*
X125730380Y-93130714D01*
X125920857Y-93130714D01*
X126016095Y-93178333D01*
X126063714Y-93273571D01*
X126063714Y-93368810D01*
X125587523Y-93464048D01*
X126873238Y-93749762D02*
X126778000Y-93797381D01*
X126587523Y-93797381D01*
X126492285Y-93749762D01*
X126444666Y-93654524D01*
X126444666Y-93273571D01*
X126492285Y-93178333D01*
X126587523Y-93130714D01*
X126778000Y-93130714D01*
X126873238Y-93178333D01*
X126920857Y-93273571D01*
X126920857Y-93368810D01*
X126444666Y-93464048D01*
X127778000Y-93797381D02*
X127778000Y-92797381D01*
X127778000Y-93749762D02*
X127682762Y-93797381D01*
X127492285Y-93797381D01*
X127397047Y-93749762D01*
X127349428Y-93702143D01*
X127301809Y-93606905D01*
X127301809Y-93321190D01*
X127349428Y-93225952D01*
X127397047Y-93178333D01*
X127492285Y-93130714D01*
X127682762Y-93130714D01*
X127778000Y-93178333D01*
X128539905Y-92797381D02*
X128539905Y-93511667D01*
X128492285Y-93654524D01*
X128397047Y-93749762D01*
X128254190Y-93797381D01*
X128158952Y-93797381D01*
X129158952Y-93797381D02*
X129063714Y-93749762D01*
X129016095Y-93702143D01*
X128968476Y-93606905D01*
X128968476Y-93321190D01*
X129016095Y-93225952D01*
X129063714Y-93178333D01*
X129158952Y-93130714D01*
X129301810Y-93130714D01*
X129397048Y-93178333D01*
X129444667Y-93225952D01*
X129492286Y-93321190D01*
X129492286Y-93606905D01*
X129444667Y-93702143D01*
X129397048Y-93749762D01*
X129301810Y-93797381D01*
X129158952Y-93797381D01*
X129825619Y-93130714D02*
X130063714Y-93797381D01*
X130301810Y-93130714D02*
X130063714Y-93797381D01*
X129968476Y-94035476D01*
X129920857Y-94083095D01*
X129825619Y-94130714D01*
X130635143Y-93749762D02*
X130730381Y-93797381D01*
X130920857Y-93797381D01*
X131016096Y-93749762D01*
X131063715Y-93654524D01*
X131063715Y-93606905D01*
X131016096Y-93511667D01*
X130920857Y-93464048D01*
X130778000Y-93464048D01*
X130682762Y-93416429D01*
X130635143Y-93321190D01*
X130635143Y-93273571D01*
X130682762Y-93178333D01*
X130778000Y-93130714D01*
X130920857Y-93130714D01*
X131016096Y-93178333D01*
X131349429Y-93130714D02*
X131730381Y-93130714D01*
X131492286Y-92797381D02*
X131492286Y-93654524D01*
X131539905Y-93749762D01*
X131635143Y-93797381D01*
X131730381Y-93797381D01*
X132063715Y-93797381D02*
X132063715Y-93130714D01*
X132063715Y-92797381D02*
X132016096Y-92845000D01*
X132063715Y-92892619D01*
X132111334Y-92845000D01*
X132063715Y-92797381D01*
X132063715Y-92892619D01*
X132968477Y-93749762D02*
X132873239Y-93797381D01*
X132682762Y-93797381D01*
X132587524Y-93749762D01*
X132539905Y-93702143D01*
X132492286Y-93606905D01*
X132492286Y-93321190D01*
X132539905Y-93225952D01*
X132587524Y-93178333D01*
X132682762Y-93130714D01*
X132873239Y-93130714D01*
X132968477Y-93178333D01*
X133397048Y-93797381D02*
X133397048Y-92797381D01*
X133492286Y-93416429D02*
X133778001Y-93797381D01*
X133778001Y-93130714D02*
X133397048Y-93511667D01*
D13*
X117570382Y-93273571D02*
X117237048Y-93273571D01*
X117237048Y-93797381D02*
X117237048Y-92797381D01*
X117713239Y-92797381D01*
X118094191Y-93797381D02*
X118094191Y-92797381D01*
X119141810Y-93797381D02*
X118808476Y-93321190D01*
X118570381Y-93797381D02*
X118570381Y-92797381D01*
X118951334Y-92797381D01*
X119046572Y-92845000D01*
X119094191Y-92892619D01*
X119141810Y-92987857D01*
X119141810Y-93130714D01*
X119094191Y-93225952D01*
X119046572Y-93273571D01*
X118951334Y-93321190D01*
X118570381Y-93321190D01*
X119570381Y-93273571D02*
X119903715Y-93273571D01*
X120046572Y-93797381D02*
X119570381Y-93797381D01*
X119570381Y-92797381D01*
X120046572Y-92797381D01*
X133778000Y-99671190D02*
X133778000Y-100147381D01*
X133444667Y-99147381D02*
X133778000Y-99671190D01*
X134111334Y-99147381D01*
X128444667Y-104647381D02*
X129111334Y-105647381D01*
X129111334Y-104647381D02*
X128444667Y-105647381D01*
%LPC*%
D19*
X164338000Y-80010000D03*
D20*
X164338000Y-82550000D03*
X164338000Y-85090000D03*
D21*
X156718000Y-82020000D03*
X156718000Y-85620000D03*
D22*
X146863000Y-86320000D03*
X150063000Y-86320000D03*
X146863000Y-81320000D03*
X150063000Y-81320000D03*
D23*
X121158000Y-119935000D03*
X121158000Y-122635000D03*
X160528000Y-95330000D03*
X160528000Y-92630000D03*
X152908000Y-95330000D03*
X152908000Y-92630000D03*
X148463000Y-95330000D03*
X148463000Y-92630000D03*
X116078000Y-119935000D03*
X116078000Y-122635000D03*
D24*
X138223000Y-120015000D03*
X140923000Y-120015000D03*
D25*
X157668000Y-92680000D03*
X156718000Y-92680000D03*
X155768000Y-92680000D03*
X155768000Y-95280000D03*
X157668000Y-95280000D03*
X156718000Y-95280000D03*
D26*
X156718000Y-75565000D03*
X159258000Y-75565000D03*
X161798000Y-75565000D03*
X164338000Y-75565000D03*
X166878000Y-75565000D03*
X169418000Y-75565000D03*
X171958000Y-75565000D03*
X174498000Y-75565000D03*
X129794000Y-75565000D03*
X132334000Y-75565000D03*
X134874000Y-75565000D03*
X137414000Y-75565000D03*
X139954000Y-75565000D03*
X142494000Y-75565000D03*
X145034000Y-75565000D03*
X147574000Y-75565000D03*
X150114000Y-75565000D03*
X152654000Y-75565000D03*
X161798000Y-123825000D03*
X164338000Y-123825000D03*
X166878000Y-123825000D03*
X169418000Y-123825000D03*
X171958000Y-123825000D03*
X174498000Y-123825000D03*
X138938000Y-123825000D03*
X141478000Y-123825000D03*
X144018000Y-123825000D03*
X146558000Y-123825000D03*
X149098000Y-123825000D03*
X151638000Y-123825000D03*
X154178000Y-123825000D03*
X156718000Y-123825000D03*
D19*
X114808000Y-75565000D03*
D20*
X117348000Y-75565000D03*
X119888000Y-75565000D03*
X122428000Y-75565000D03*
D19*
X140843000Y-81280000D03*
D20*
X140843000Y-83820000D03*
X140843000Y-86360000D03*
D19*
X166878000Y-80010000D03*
D20*
X166878000Y-82550000D03*
X166878000Y-85090000D03*
D19*
X169418000Y-80010000D03*
D20*
X169418000Y-82550000D03*
X169418000Y-85090000D03*
D27*
X159893000Y-107274360D03*
X159893000Y-102275640D03*
X159893000Y-117434360D03*
X159893000Y-112435640D03*
D28*
X117368000Y-81280000D03*
X119868000Y-81280000D03*
D29*
X144018000Y-82570000D03*
X144018000Y-85070000D03*
X160528000Y-82570000D03*
X160528000Y-85070000D03*
X152908000Y-82570000D03*
X152908000Y-85070000D03*
X142113000Y-99715000D03*
X142113000Y-102215000D03*
D28*
X128798000Y-114300000D03*
X131298000Y-114300000D03*
D29*
X145923000Y-99715000D03*
X145923000Y-102215000D03*
D21*
X150368000Y-99165000D03*
X150368000Y-102765000D03*
D30*
X130048000Y-119583200D03*
X130048000Y-122986800D03*
D31*
X166878000Y-112395000D03*
D32*
X166878000Y-117395000D03*
X166878000Y-115895000D03*
D31*
X166878000Y-102275000D03*
D32*
X166878000Y-107275000D03*
X166878000Y-105775000D03*
D33*
X133493000Y-123085000D03*
X135493000Y-123085000D03*
D34*
X134493000Y-119785000D03*
D35*
X133893000Y-123585000D03*
X135093000Y-123585000D03*
D36*
X124968000Y-123825000D03*
X177038000Y-118745000D03*
X177038000Y-90805000D03*
X126238000Y-75565000D03*
D37*
X168783000Y-94615000D03*
X167513000Y-94615000D03*
X168783000Y-93345000D03*
X167513000Y-93345000D03*
X168783000Y-92075000D03*
X167513000Y-92075000D03*
D38*
X168148000Y-95885000D03*
X167132000Y-90805000D03*
X169164000Y-90805000D03*
D39*
X165608000Y-95885000D03*
X170688000Y-95885000D03*
X170688000Y-92710000D03*
X165608000Y-92710000D03*
D30*
X116028000Y-102945000D03*
X116028000Y-96445000D03*
X120528000Y-96445000D03*
X120528000Y-102945000D03*
X138428000Y-102195000D03*
X138428000Y-99695000D03*
X138428000Y-97195000D03*
X131278000Y-109695000D03*
X128778000Y-109695000D03*
X126278000Y-109695000D03*
M02*
