G04 #@! TF.FileFunction,Soldermask,Top*
%FSLAX46Y46*%
G04 Gerber Fmt 4.6, Leading zero omitted, Abs format (unit mm)*
G04 Created by KiCad (PCBNEW 4.0.7-e1-6374~58~ubuntu16.04.1) date Sat Aug 26 01:38:44 2017*
%MOMM*%
%LPD*%
G01*
G04 APERTURE LIST*
%ADD10C,0.100000*%
%ADD11R,1.000000X1.600000*%
%ADD12R,1.300000X1.500000*%
%ADD13R,1.550000X1.300000*%
%ADD14R,1.500000X1.300000*%
%ADD15R,0.700000X1.000000*%
%ADD16O,1.727200X2.032000*%
%ADD17R,1.700000X1.700000*%
%ADD18O,1.700000X1.700000*%
%ADD19R,1.800860X3.500120*%
%ADD20R,1.250000X1.500000*%
%ADD21R,1.500000X1.250000*%
%ADD22C,2.400000*%
%ADD23R,2.400000X2.400000*%
%ADD24R,1.600000X2.600000*%
%ADD25O,1.500000X3.000000*%
%ADD26O,3.000000X1.500000*%
%ADD27C,1.599946*%
%ADD28C,1.600000*%
G04 APERTURE END LIST*
D10*
D11*
X133528000Y-88225000D03*
X136728000Y-88225000D03*
X133528000Y-83225000D03*
X136728000Y-83225000D03*
D12*
X119888000Y-122635000D03*
X119888000Y-119935000D03*
D13*
X138768000Y-103215000D03*
X138768000Y-98715000D03*
X146728000Y-98715000D03*
X146728000Y-103215000D03*
D14*
X164258000Y-90170000D03*
X166958000Y-90170000D03*
X164258000Y-97790000D03*
X166958000Y-97790000D03*
X166958000Y-93980000D03*
X164258000Y-93980000D03*
D12*
X114808000Y-122635000D03*
X114808000Y-119935000D03*
X124968000Y-119935000D03*
X124968000Y-122635000D03*
D15*
X172273000Y-95220000D03*
X171323000Y-95220000D03*
X170373000Y-95220000D03*
X170373000Y-97820000D03*
X172273000Y-97820000D03*
X171323000Y-97820000D03*
D16*
X156718000Y-75565000D03*
X159258000Y-75565000D03*
X161798000Y-75565000D03*
X164338000Y-75565000D03*
X166878000Y-75565000D03*
X169418000Y-75565000D03*
X171958000Y-75565000D03*
X174498000Y-75565000D03*
X129794000Y-75565000D03*
X132334000Y-75565000D03*
X134874000Y-75565000D03*
X137414000Y-75565000D03*
X139954000Y-75565000D03*
X142494000Y-75565000D03*
X145034000Y-75565000D03*
X147574000Y-75565000D03*
X150114000Y-75565000D03*
X152654000Y-75565000D03*
X161798000Y-123825000D03*
X164338000Y-123825000D03*
X166878000Y-123825000D03*
X169418000Y-123825000D03*
X171958000Y-123825000D03*
X174498000Y-123825000D03*
X138938000Y-123825000D03*
X141478000Y-123825000D03*
X144018000Y-123825000D03*
X146558000Y-123825000D03*
X149098000Y-123825000D03*
X151638000Y-123825000D03*
X154178000Y-123825000D03*
X156718000Y-123825000D03*
D17*
X114808000Y-75565000D03*
D18*
X117348000Y-75565000D03*
X119888000Y-75565000D03*
X122428000Y-75565000D03*
D17*
X126873000Y-83185000D03*
D18*
X126873000Y-85725000D03*
X126873000Y-88265000D03*
D17*
X163068000Y-80645000D03*
D18*
X163068000Y-83185000D03*
X163068000Y-85725000D03*
D17*
X165608000Y-80645000D03*
D18*
X165608000Y-83185000D03*
X165608000Y-85725000D03*
D17*
X168148000Y-80645000D03*
D18*
X168148000Y-83185000D03*
X168148000Y-85725000D03*
D19*
X157988000Y-108544360D03*
X157988000Y-103545640D03*
X157988000Y-118704360D03*
X157988000Y-113705640D03*
D20*
X114808000Y-83205000D03*
X114808000Y-85705000D03*
X121158000Y-83205000D03*
X121158000Y-85705000D03*
X155448000Y-83205000D03*
X155448000Y-85705000D03*
X141478000Y-83205000D03*
X141478000Y-85705000D03*
X135128000Y-102215000D03*
X135128000Y-99715000D03*
D21*
X122408000Y-114935000D03*
X119908000Y-114935000D03*
D20*
X147828000Y-93325000D03*
X147828000Y-90825000D03*
D22*
X165608000Y-103500000D03*
D23*
X165608000Y-108500000D03*
D22*
X165608000Y-113705000D03*
D23*
X165608000Y-118705000D03*
D24*
X151638000Y-93875000D03*
X151638000Y-90275000D03*
X151638000Y-82655000D03*
X151638000Y-86255000D03*
D25*
X121158000Y-109940000D03*
X119158000Y-109940000D03*
X123158000Y-109940000D03*
D26*
X130008000Y-100965000D03*
X130008000Y-98965000D03*
X130008000Y-102965000D03*
D27*
X127157988Y-94965012D03*
X115158012Y-106964988D03*
D28*
X132588000Y-123621800D03*
X132588000Y-120218200D03*
M02*
