G04 #@! TF.FileFunction,Copper,L2,Bot,Signal*
%FSLAX46Y46*%
G04 Gerber Fmt 4.6, Leading zero omitted, Abs format (unit mm)*
G04 Created by KiCad (PCBNEW 4.0.7-e2-6376~58~ubuntu16.04.1) date Tue Oct  3 14:32:46 2017*
%MOMM*%
%LPD*%
G01*
G04 APERTURE LIST*
%ADD10C,0.100000*%
%ADD11R,1.700000X1.700000*%
%ADD12O,1.700000X1.700000*%
%ADD13O,1.727200X2.032000*%
%ADD14R,2.000000X3.500000*%
%ADD15R,7.000000X7.000000*%
%ADD16R,0.600000X0.152400*%
%ADD17R,1.500000X1.300000*%
%ADD18C,1.600000*%
%ADD19C,2.200000*%
%ADD20C,2.400000*%
%ADD21O,2.400000X1.800000*%
%ADD22C,0.600000*%
%ADD23C,0.750000*%
%ADD24C,0.250000*%
%ADD25C,0.254000*%
G04 APERTURE END LIST*
D10*
D11*
X164338000Y-80010000D03*
D12*
X164338000Y-82550000D03*
X164338000Y-85090000D03*
D13*
X156718000Y-75565000D03*
X159258000Y-75565000D03*
X161798000Y-75565000D03*
X164338000Y-75565000D03*
X166878000Y-75565000D03*
X169418000Y-75565000D03*
X171958000Y-75565000D03*
X174498000Y-75565000D03*
X129794000Y-75565000D03*
X132334000Y-75565000D03*
X134874000Y-75565000D03*
X137414000Y-75565000D03*
X139954000Y-75565000D03*
X142494000Y-75565000D03*
X145034000Y-75565000D03*
X147574000Y-75565000D03*
X150114000Y-75565000D03*
X152654000Y-75565000D03*
X161798000Y-123825000D03*
X164338000Y-123825000D03*
X166878000Y-123825000D03*
X169418000Y-123825000D03*
X171958000Y-123825000D03*
X174498000Y-123825000D03*
X138938000Y-123825000D03*
X141478000Y-123825000D03*
X144018000Y-123825000D03*
X146558000Y-123825000D03*
X149098000Y-123825000D03*
X151638000Y-123825000D03*
X154178000Y-123825000D03*
X156718000Y-123825000D03*
D11*
X114808000Y-75565000D03*
D12*
X117348000Y-75565000D03*
X119888000Y-75565000D03*
X122428000Y-75565000D03*
D11*
X140843000Y-81280000D03*
D12*
X140843000Y-83820000D03*
X140843000Y-86360000D03*
D11*
X166878000Y-80010000D03*
D12*
X166878000Y-82550000D03*
X166878000Y-85090000D03*
D11*
X169418000Y-80010000D03*
D12*
X169418000Y-82550000D03*
X169418000Y-85090000D03*
D14*
X148068000Y-98295000D03*
X152648000Y-98295000D03*
D15*
X150368000Y-105695000D03*
D16*
X137968000Y-113665000D03*
D17*
X139018000Y-113665000D03*
X136318000Y-113665000D03*
D16*
X137368000Y-113665000D03*
X137968000Y-115570000D03*
D17*
X139018000Y-115570000D03*
X136318000Y-115570000D03*
D16*
X137368000Y-115570000D03*
X137968000Y-117475000D03*
D17*
X139018000Y-117475000D03*
X136318000Y-117475000D03*
D16*
X137368000Y-117475000D03*
X137968000Y-111760000D03*
D17*
X139018000Y-111760000D03*
X136318000Y-111760000D03*
D16*
X137368000Y-111760000D03*
D18*
X130048000Y-119583200D03*
X130048000Y-122986800D03*
X116028000Y-102945000D03*
X116028000Y-96445000D03*
X120528000Y-96445000D03*
X120528000Y-102945000D03*
X138428000Y-102195000D03*
X138428000Y-99695000D03*
X138428000Y-97195000D03*
X131278000Y-109695000D03*
X128778000Y-109695000D03*
X126278000Y-109695000D03*
D19*
X122128000Y-107445000D03*
X122128000Y-91945000D03*
X135428000Y-91945000D03*
X135428000Y-107445000D03*
D20*
X166878000Y-112395000D03*
D21*
X166878000Y-117645000D03*
X166878000Y-115645000D03*
D20*
X166878000Y-102275000D03*
D21*
X166878000Y-107525000D03*
X166878000Y-105525000D03*
D22*
X165608000Y-88264976D03*
X159258000Y-95250000D03*
X151638000Y-95250000D03*
X156718000Y-91440000D03*
X151638000Y-85090000D03*
X146558000Y-84455000D03*
X150368000Y-105695000D03*
X121793000Y-81915000D03*
X145923000Y-103505000D03*
X116078000Y-124460000D03*
X142113000Y-120015000D03*
X145923000Y-97790000D03*
X161798000Y-120015000D03*
X134493000Y-113665000D03*
X163068000Y-118745000D03*
X134493000Y-111760000D03*
X134493000Y-117475000D03*
X134493000Y-115570000D03*
X173863018Y-82550000D03*
X154813000Y-98425000D03*
X158623000Y-98425000D03*
X163576000Y-98171000D03*
D23*
X124333000Y-98425000D02*
X123063000Y-99695000D01*
X123063000Y-99695000D02*
X116028000Y-99695000D01*
X124333000Y-88900000D02*
X124333000Y-98425000D01*
X121793000Y-81915000D02*
X121793000Y-86360000D01*
X121793000Y-86360000D02*
X124333000Y-88900000D01*
X165608000Y-86360000D02*
X165608000Y-88264976D01*
X166878000Y-85090000D02*
X165608000Y-86360000D01*
X156718000Y-85090000D02*
X159258000Y-85090000D01*
X159258000Y-85090000D02*
X164338000Y-85090000D01*
X159258000Y-95250000D02*
X159258000Y-85090000D01*
X151638000Y-95250000D02*
X151638000Y-85090000D01*
X151638000Y-85090000D02*
X156718000Y-85090000D01*
X156718000Y-91440000D02*
X156718000Y-85090000D01*
X138938000Y-86360000D02*
X137414000Y-84836000D01*
X137414000Y-84836000D02*
X137414000Y-81915000D01*
X140843000Y-86360000D02*
X138938000Y-86360000D01*
X151003000Y-84455000D02*
X146558000Y-84455000D01*
X151638000Y-85090000D02*
X151003000Y-84455000D01*
X144653000Y-86360000D02*
X140843000Y-86360000D01*
X146558000Y-84455000D02*
X144653000Y-86360000D01*
X166878000Y-85090000D02*
X164338000Y-85090000D01*
X169418000Y-85090000D02*
X166878000Y-85090000D01*
X121793000Y-78740000D02*
X121793000Y-81915000D01*
X122428000Y-78105000D02*
X121793000Y-78740000D01*
X122428000Y-75565000D02*
X122428000Y-78105000D01*
X137414000Y-81915000D02*
X137414000Y-75565000D01*
X121793000Y-81915000D02*
X137414000Y-81915000D01*
X138938000Y-104775000D02*
X138428000Y-104265000D01*
X138428000Y-104265000D02*
X138428000Y-102195000D01*
X145288000Y-104775000D02*
X138938000Y-104775000D01*
X145923000Y-104140000D02*
X145288000Y-104775000D01*
X145923000Y-103505000D02*
X145923000Y-104140000D01*
X131278000Y-109945000D02*
X131278000Y-113665000D01*
X131278000Y-113665000D02*
X131278000Y-116165000D01*
X117348000Y-113665000D02*
X131278000Y-113665000D01*
X131278000Y-116165000D02*
X135128000Y-120015000D01*
X135128000Y-120015000D02*
X142113000Y-120015000D01*
X133263000Y-102195000D02*
X131278000Y-104180000D01*
X131278000Y-104180000D02*
X131278000Y-109945000D01*
X138428000Y-102195000D02*
X133263000Y-102195000D01*
X116028000Y-110440000D02*
X117348000Y-111760000D01*
X117348000Y-111760000D02*
X117348000Y-113665000D01*
X116028000Y-102945000D02*
X116028000Y-110440000D01*
X117348000Y-113665000D02*
X116078000Y-114935000D01*
X116078000Y-114935000D02*
X116078000Y-124460000D01*
X131278000Y-109945000D02*
X131278000Y-112435000D01*
X116028000Y-102945000D02*
X116028000Y-99695000D01*
X116028000Y-99695000D02*
X116028000Y-96445000D01*
X143383000Y-121285000D02*
X142113000Y-120015000D01*
X150864000Y-121285000D02*
X143383000Y-121285000D01*
X151638000Y-123825000D02*
X151638000Y-122059000D01*
X151638000Y-122059000D02*
X150864000Y-121285000D01*
X154178000Y-123825000D02*
X151638000Y-123825000D01*
X148068000Y-98295000D02*
X146428000Y-98295000D01*
X146428000Y-98295000D02*
X145923000Y-97790000D01*
D24*
X139018000Y-113665000D02*
X140843000Y-113665000D01*
X140843000Y-113665000D02*
X145923000Y-118745000D01*
X145923000Y-118745000D02*
X156716590Y-118745000D01*
X156716590Y-118745000D02*
X157986590Y-120015000D01*
X157986590Y-120015000D02*
X161798000Y-120015000D01*
X136318000Y-113665000D02*
X134493000Y-113665000D01*
X137968000Y-113665000D02*
X139018000Y-113665000D01*
X137368000Y-113665000D02*
X137968000Y-113665000D01*
X136318000Y-113665000D02*
X137368000Y-113665000D01*
X139018000Y-111760000D02*
X140018000Y-111760000D01*
X146368000Y-118110000D02*
X156718000Y-118110000D01*
X156718000Y-118110000D02*
X157353000Y-118745000D01*
X140018000Y-111760000D02*
X146368000Y-118110000D01*
X157353000Y-118745000D02*
X163068000Y-118745000D01*
X136318000Y-111760000D02*
X134493000Y-111760000D01*
X137368000Y-111760000D02*
X136318000Y-111760000D01*
X137968000Y-111760000D02*
X137368000Y-111760000D01*
X139018000Y-111760000D02*
X137968000Y-111760000D01*
X164338000Y-123825000D02*
X164338000Y-123672600D01*
X166878000Y-123672600D02*
X166878000Y-123825000D01*
X139018000Y-117475000D02*
X142113000Y-117475000D01*
X156713770Y-120015000D02*
X158618770Y-121920000D01*
X142113000Y-117475000D02*
X144653000Y-120015000D01*
X144653000Y-120015000D02*
X156713770Y-120015000D01*
X158618770Y-121920000D02*
X165125400Y-121920000D01*
X165125400Y-121920000D02*
X166878000Y-123672600D01*
X136318000Y-117475000D02*
X134493000Y-117475000D01*
X137968000Y-117475000D02*
X139018000Y-117475000D01*
X137368000Y-117475000D02*
X137968000Y-117475000D01*
X136318000Y-117475000D02*
X137368000Y-117475000D01*
X139018000Y-115570000D02*
X141478000Y-115570000D01*
X141478000Y-115570000D02*
X145288000Y-119380000D01*
X145288000Y-119380000D02*
X156715180Y-119380000D01*
X156715180Y-119380000D02*
X158620180Y-121285000D01*
X158620180Y-121285000D02*
X167030400Y-121285000D01*
X167030400Y-121285000D02*
X169418000Y-123672600D01*
X169418000Y-123672600D02*
X169418000Y-123825000D01*
X136318000Y-115570000D02*
X134493000Y-115570000D01*
X137368000Y-115570000D02*
X136318000Y-115570000D01*
X137968000Y-115570000D02*
X137368000Y-115570000D01*
X139018000Y-115570000D02*
X137968000Y-115570000D01*
D23*
X169418000Y-82550000D02*
X173863018Y-82550000D01*
X152648000Y-98295000D02*
X154683000Y-98295000D01*
X154683000Y-98295000D02*
X154813000Y-98425000D01*
X158623000Y-98425000D02*
X158623000Y-111760000D01*
X158623000Y-111760000D02*
X159258000Y-112395000D01*
X159258000Y-112395000D02*
X166878000Y-112395000D01*
X163576000Y-101092000D02*
X164759000Y-102275000D01*
X164759000Y-102275000D02*
X166878000Y-102275000D01*
X163576000Y-98171000D02*
X163576000Y-101092000D01*
D25*
G36*
X124354955Y-74304411D02*
X124015887Y-75120978D01*
X124015115Y-76005143D01*
X124352758Y-76822300D01*
X124977411Y-77448045D01*
X125793978Y-77787113D01*
X126678143Y-77787885D01*
X127495300Y-77450242D01*
X128121045Y-76825589D01*
X128383617Y-76193244D01*
X128409474Y-76323234D01*
X128734330Y-76809415D01*
X129220511Y-77134271D01*
X129794000Y-77248345D01*
X130367489Y-77134271D01*
X130853670Y-76809415D01*
X131064000Y-76494634D01*
X131274330Y-76809415D01*
X131760511Y-77134271D01*
X132334000Y-77248345D01*
X132907489Y-77134271D01*
X133393670Y-76809415D01*
X133604000Y-76494634D01*
X133814330Y-76809415D01*
X134300511Y-77134271D01*
X134874000Y-77248345D01*
X135447489Y-77134271D01*
X135933670Y-76809415D01*
X136140461Y-76499931D01*
X136511964Y-76915732D01*
X137039209Y-77169709D01*
X137054974Y-77172358D01*
X137287000Y-77051217D01*
X137287000Y-75692000D01*
X137267000Y-75692000D01*
X137267000Y-75438000D01*
X137287000Y-75438000D01*
X137287000Y-74078783D01*
X137541000Y-74078783D01*
X137541000Y-75438000D01*
X137561000Y-75438000D01*
X137561000Y-75692000D01*
X137541000Y-75692000D01*
X137541000Y-77051217D01*
X137773026Y-77172358D01*
X137788791Y-77169709D01*
X138316036Y-76915732D01*
X138687539Y-76499931D01*
X138894330Y-76809415D01*
X139380511Y-77134271D01*
X139954000Y-77248345D01*
X140527489Y-77134271D01*
X141013670Y-76809415D01*
X141224000Y-76494634D01*
X141434330Y-76809415D01*
X141920511Y-77134271D01*
X142494000Y-77248345D01*
X143067489Y-77134271D01*
X143553670Y-76809415D01*
X143764000Y-76494634D01*
X143974330Y-76809415D01*
X144460511Y-77134271D01*
X145034000Y-77248345D01*
X145607489Y-77134271D01*
X146093670Y-76809415D01*
X146304000Y-76494634D01*
X146514330Y-76809415D01*
X147000511Y-77134271D01*
X147574000Y-77248345D01*
X148147489Y-77134271D01*
X148633670Y-76809415D01*
X148844000Y-76494634D01*
X149054330Y-76809415D01*
X149540511Y-77134271D01*
X150114000Y-77248345D01*
X150687489Y-77134271D01*
X151173670Y-76809415D01*
X151384000Y-76494634D01*
X151594330Y-76809415D01*
X152080511Y-77134271D01*
X152654000Y-77248345D01*
X153227489Y-77134271D01*
X153713670Y-76809415D01*
X154038526Y-76323234D01*
X154152600Y-75749745D01*
X154152600Y-75380255D01*
X155219400Y-75380255D01*
X155219400Y-75749745D01*
X155333474Y-76323234D01*
X155658330Y-76809415D01*
X156144511Y-77134271D01*
X156718000Y-77248345D01*
X157291489Y-77134271D01*
X157777670Y-76809415D01*
X157988000Y-76494634D01*
X158198330Y-76809415D01*
X158684511Y-77134271D01*
X159258000Y-77248345D01*
X159831489Y-77134271D01*
X160317670Y-76809415D01*
X160528000Y-76494634D01*
X160738330Y-76809415D01*
X161224511Y-77134271D01*
X161798000Y-77248345D01*
X162371489Y-77134271D01*
X162857670Y-76809415D01*
X163068000Y-76494634D01*
X163278330Y-76809415D01*
X163764511Y-77134271D01*
X164338000Y-77248345D01*
X164911489Y-77134271D01*
X165397670Y-76809415D01*
X165608000Y-76494634D01*
X165818330Y-76809415D01*
X166304511Y-77134271D01*
X166878000Y-77248345D01*
X167451489Y-77134271D01*
X167937670Y-76809415D01*
X168148000Y-76494634D01*
X168358330Y-76809415D01*
X168844511Y-77134271D01*
X169418000Y-77248345D01*
X169991489Y-77134271D01*
X170477670Y-76809415D01*
X170688000Y-76494634D01*
X170898330Y-76809415D01*
X171384511Y-77134271D01*
X171958000Y-77248345D01*
X172531489Y-77134271D01*
X173017670Y-76809415D01*
X173228000Y-76494634D01*
X173438330Y-76809415D01*
X173924511Y-77134271D01*
X174498000Y-77248345D01*
X175071489Y-77134271D01*
X175557670Y-76809415D01*
X175882526Y-76323234D01*
X175996600Y-75749745D01*
X175996600Y-75380255D01*
X175882526Y-74806766D01*
X175557670Y-74320585D01*
X175071489Y-73995729D01*
X174498000Y-73881655D01*
X173924511Y-73995729D01*
X173438330Y-74320585D01*
X173228000Y-74635366D01*
X173017670Y-74320585D01*
X172531489Y-73995729D01*
X171958000Y-73881655D01*
X171384511Y-73995729D01*
X170898330Y-74320585D01*
X170688000Y-74635366D01*
X170477670Y-74320585D01*
X169991489Y-73995729D01*
X169418000Y-73881655D01*
X168844511Y-73995729D01*
X168358330Y-74320585D01*
X168148000Y-74635366D01*
X167937670Y-74320585D01*
X167451489Y-73995729D01*
X166878000Y-73881655D01*
X166304511Y-73995729D01*
X165818330Y-74320585D01*
X165608000Y-74635366D01*
X165397670Y-74320585D01*
X164911489Y-73995729D01*
X164338000Y-73881655D01*
X163764511Y-73995729D01*
X163278330Y-74320585D01*
X163068000Y-74635366D01*
X162857670Y-74320585D01*
X162371489Y-73995729D01*
X161798000Y-73881655D01*
X161224511Y-73995729D01*
X160738330Y-74320585D01*
X160528000Y-74635366D01*
X160317670Y-74320585D01*
X159831489Y-73995729D01*
X159258000Y-73881655D01*
X158684511Y-73995729D01*
X158198330Y-74320585D01*
X157988000Y-74635366D01*
X157777670Y-74320585D01*
X157291489Y-73995729D01*
X156718000Y-73881655D01*
X156144511Y-73995729D01*
X155658330Y-74320585D01*
X155333474Y-74806766D01*
X155219400Y-75380255D01*
X154152600Y-75380255D01*
X154038526Y-74806766D01*
X153713670Y-74320585D01*
X153227489Y-73995729D01*
X152654000Y-73881655D01*
X152080511Y-73995729D01*
X151594330Y-74320585D01*
X151384000Y-74635366D01*
X151173670Y-74320585D01*
X150687489Y-73995729D01*
X150114000Y-73881655D01*
X149540511Y-73995729D01*
X149054330Y-74320585D01*
X148844000Y-74635366D01*
X148633670Y-74320585D01*
X148147489Y-73995729D01*
X147574000Y-73881655D01*
X147000511Y-73995729D01*
X146514330Y-74320585D01*
X146304000Y-74635366D01*
X146093670Y-74320585D01*
X145607489Y-73995729D01*
X145034000Y-73881655D01*
X144460511Y-73995729D01*
X143974330Y-74320585D01*
X143764000Y-74635366D01*
X143553670Y-74320585D01*
X143067489Y-73995729D01*
X142494000Y-73881655D01*
X141920511Y-73995729D01*
X141434330Y-74320585D01*
X141224000Y-74635366D01*
X141013670Y-74320585D01*
X140527489Y-73995729D01*
X139954000Y-73881655D01*
X139380511Y-73995729D01*
X138894330Y-74320585D01*
X138687539Y-74630069D01*
X138316036Y-74214268D01*
X137788791Y-73960291D01*
X137773026Y-73957642D01*
X137541000Y-74078783D01*
X137287000Y-74078783D01*
X137054974Y-73957642D01*
X137039209Y-73960291D01*
X136511964Y-74214268D01*
X136140461Y-74630069D01*
X135933670Y-74320585D01*
X135447489Y-73995729D01*
X134874000Y-73881655D01*
X134300511Y-73995729D01*
X133814330Y-74320585D01*
X133604000Y-74635366D01*
X133393670Y-74320585D01*
X132907489Y-73995729D01*
X132334000Y-73881655D01*
X131760511Y-73995729D01*
X131274330Y-74320585D01*
X131064000Y-74635366D01*
X130853670Y-74320585D01*
X130367489Y-73995729D01*
X129794000Y-73881655D01*
X129220511Y-73995729D01*
X128734330Y-74320585D01*
X128409474Y-74806766D01*
X128383470Y-74937498D01*
X128123242Y-74307700D01*
X127551541Y-73735000D01*
X175219908Y-73735000D01*
X176276000Y-74791091D01*
X176276000Y-88715104D01*
X175780700Y-88919758D01*
X175154955Y-89544411D01*
X174815887Y-90360978D01*
X174815115Y-91245143D01*
X175152758Y-92062300D01*
X175777411Y-92688045D01*
X176276000Y-92895077D01*
X176276000Y-93270000D01*
X173863000Y-93270000D01*
X173794416Y-93283642D01*
X173481483Y-93331978D01*
X173225543Y-93437992D01*
X173225541Y-93437993D01*
X173019532Y-93575644D01*
X172823644Y-93771532D01*
X172685993Y-93977541D01*
X172685992Y-93977542D01*
X172579978Y-94233483D01*
X172531642Y-94476487D01*
X172531642Y-94546416D01*
X172518000Y-94615000D01*
X172518000Y-102235000D01*
X172531642Y-102303584D01*
X172531642Y-102373513D01*
X172579978Y-102616517D01*
X172685992Y-102872458D01*
X172685993Y-102872459D01*
X172823644Y-103078468D01*
X173019532Y-103274356D01*
X173225541Y-103412007D01*
X173225543Y-103412008D01*
X173481483Y-103518022D01*
X173724488Y-103566358D01*
X173794416Y-103566358D01*
X173863000Y-103580000D01*
X176276000Y-103580000D01*
X176276000Y-116655104D01*
X175780700Y-116859758D01*
X175154955Y-117484411D01*
X174815887Y-118300978D01*
X174815115Y-119185143D01*
X175152758Y-120002300D01*
X175777411Y-120628045D01*
X176276000Y-120835077D01*
X176276000Y-125655000D01*
X127635000Y-125655000D01*
X127635000Y-123270987D01*
X128612752Y-123270987D01*
X128830757Y-123798600D01*
X129234077Y-124202624D01*
X129761309Y-124421550D01*
X130332187Y-124422048D01*
X130859800Y-124204043D01*
X131263824Y-123800723D01*
X131330456Y-123640255D01*
X137439400Y-123640255D01*
X137439400Y-124009745D01*
X137553474Y-124583234D01*
X137878330Y-125069415D01*
X138364511Y-125394271D01*
X138938000Y-125508345D01*
X139511489Y-125394271D01*
X139997670Y-125069415D01*
X140208000Y-124754634D01*
X140418330Y-125069415D01*
X140904511Y-125394271D01*
X141478000Y-125508345D01*
X142051489Y-125394271D01*
X142537670Y-125069415D01*
X142748000Y-124754634D01*
X142958330Y-125069415D01*
X143444511Y-125394271D01*
X144018000Y-125508345D01*
X144591489Y-125394271D01*
X145077670Y-125069415D01*
X145288000Y-124754634D01*
X145498330Y-125069415D01*
X145984511Y-125394271D01*
X146558000Y-125508345D01*
X147131489Y-125394271D01*
X147617670Y-125069415D01*
X147828000Y-124754634D01*
X148038330Y-125069415D01*
X148524511Y-125394271D01*
X149098000Y-125508345D01*
X149671489Y-125394271D01*
X150157670Y-125069415D01*
X150364461Y-124759931D01*
X150735964Y-125175732D01*
X151263209Y-125429709D01*
X151278974Y-125432358D01*
X151511000Y-125311217D01*
X151511000Y-123952000D01*
X151765000Y-123952000D01*
X151765000Y-125311217D01*
X151997026Y-125432358D01*
X152012791Y-125429709D01*
X152540036Y-125175732D01*
X152908000Y-124763892D01*
X153275964Y-125175732D01*
X153803209Y-125429709D01*
X153818974Y-125432358D01*
X154051000Y-125311217D01*
X154051000Y-123952000D01*
X151765000Y-123952000D01*
X151511000Y-123952000D01*
X151491000Y-123952000D01*
X151491000Y-123698000D01*
X151511000Y-123698000D01*
X151511000Y-122338783D01*
X151765000Y-122338783D01*
X151765000Y-123698000D01*
X154051000Y-123698000D01*
X154051000Y-122338783D01*
X154305000Y-122338783D01*
X154305000Y-123698000D01*
X154325000Y-123698000D01*
X154325000Y-123952000D01*
X154305000Y-123952000D01*
X154305000Y-125311217D01*
X154537026Y-125432358D01*
X154552791Y-125429709D01*
X155080036Y-125175732D01*
X155451539Y-124759931D01*
X155658330Y-125069415D01*
X156144511Y-125394271D01*
X156718000Y-125508345D01*
X157291489Y-125394271D01*
X157777670Y-125069415D01*
X158102526Y-124583234D01*
X158216600Y-124009745D01*
X158216600Y-123640255D01*
X158102526Y-123066766D01*
X157777670Y-122580585D01*
X157291489Y-122255729D01*
X156718000Y-122141655D01*
X156144511Y-122255729D01*
X155658330Y-122580585D01*
X155451539Y-122890069D01*
X155080036Y-122474268D01*
X154552791Y-122220291D01*
X154537026Y-122217642D01*
X154305000Y-122338783D01*
X154051000Y-122338783D01*
X153818974Y-122217642D01*
X153803209Y-122220291D01*
X153275964Y-122474268D01*
X152908000Y-122886108D01*
X152540036Y-122474268D01*
X152012791Y-122220291D01*
X151997026Y-122217642D01*
X151765000Y-122338783D01*
X151511000Y-122338783D01*
X151278974Y-122217642D01*
X151263209Y-122220291D01*
X150735964Y-122474268D01*
X150364461Y-122890069D01*
X150157670Y-122580585D01*
X149671489Y-122255729D01*
X149098000Y-122141655D01*
X148524511Y-122255729D01*
X148038330Y-122580585D01*
X147828000Y-122895366D01*
X147617670Y-122580585D01*
X147131489Y-122255729D01*
X146558000Y-122141655D01*
X145984511Y-122255729D01*
X145498330Y-122580585D01*
X145288000Y-122895366D01*
X145077670Y-122580585D01*
X144591489Y-122255729D01*
X144018000Y-122141655D01*
X143444511Y-122255729D01*
X142958330Y-122580585D01*
X142748000Y-122895366D01*
X142537670Y-122580585D01*
X142051489Y-122255729D01*
X141478000Y-122141655D01*
X140904511Y-122255729D01*
X140418330Y-122580585D01*
X140208000Y-122895366D01*
X139997670Y-122580585D01*
X139511489Y-122255729D01*
X138938000Y-122141655D01*
X138364511Y-122255729D01*
X137878330Y-122580585D01*
X137553474Y-123066766D01*
X137439400Y-123640255D01*
X131330456Y-123640255D01*
X131482750Y-123273491D01*
X131483248Y-122702613D01*
X131265243Y-122175000D01*
X130861923Y-121770976D01*
X130334691Y-121552050D01*
X129763813Y-121551552D01*
X129236200Y-121769557D01*
X128832176Y-122172877D01*
X128613250Y-122700109D01*
X128612752Y-123270987D01*
X127635000Y-123270987D01*
X127635000Y-119867387D01*
X128612752Y-119867387D01*
X128830757Y-120395000D01*
X129234077Y-120799024D01*
X129761309Y-121017950D01*
X130332187Y-121018448D01*
X130859800Y-120800443D01*
X131263824Y-120397123D01*
X131482750Y-119869891D01*
X131483248Y-119299013D01*
X131265243Y-118771400D01*
X130861923Y-118367376D01*
X130334691Y-118148450D01*
X129763813Y-118147952D01*
X129236200Y-118365957D01*
X128832176Y-118769277D01*
X128613250Y-119296509D01*
X128612752Y-119867387D01*
X127635000Y-119867387D01*
X127635000Y-118110000D01*
X127626315Y-118063841D01*
X127599035Y-118021447D01*
X127557410Y-117993006D01*
X127508000Y-117983000D01*
X117348000Y-117983000D01*
X117301841Y-117991685D01*
X117259447Y-118018965D01*
X117231006Y-118060590D01*
X117221000Y-118110000D01*
X117221000Y-125655000D01*
X111708000Y-125655000D01*
X111708000Y-111945167D01*
X133557838Y-111945167D01*
X133699883Y-112288943D01*
X133962673Y-112552192D01*
X134306201Y-112694838D01*
X134678167Y-112695162D01*
X134952860Y-112581661D01*
X134964838Y-112645317D01*
X135007138Y-112711053D01*
X134971569Y-112763110D01*
X134955092Y-112844474D01*
X134679799Y-112730162D01*
X134307833Y-112729838D01*
X133964057Y-112871883D01*
X133700808Y-113134673D01*
X133558162Y-113478201D01*
X133557838Y-113850167D01*
X133699883Y-114193943D01*
X133962673Y-114457192D01*
X134306201Y-114599838D01*
X134678167Y-114600162D01*
X134952860Y-114486661D01*
X134964838Y-114550317D01*
X135007138Y-114616053D01*
X134971569Y-114668110D01*
X134955092Y-114749474D01*
X134679799Y-114635162D01*
X134307833Y-114634838D01*
X133964057Y-114776883D01*
X133700808Y-115039673D01*
X133558162Y-115383201D01*
X133557838Y-115755167D01*
X133699883Y-116098943D01*
X133962673Y-116362192D01*
X134306201Y-116504838D01*
X134678167Y-116505162D01*
X134952860Y-116391661D01*
X134964838Y-116455317D01*
X135007138Y-116521053D01*
X134971569Y-116573110D01*
X134955092Y-116654474D01*
X134679799Y-116540162D01*
X134307833Y-116539838D01*
X133964057Y-116681883D01*
X133700808Y-116944673D01*
X133558162Y-117288201D01*
X133557838Y-117660167D01*
X133699883Y-118003943D01*
X133962673Y-118267192D01*
X134306201Y-118409838D01*
X134678167Y-118410162D01*
X134952860Y-118296661D01*
X134964838Y-118360317D01*
X135103910Y-118576441D01*
X135316110Y-118721431D01*
X135568000Y-118772440D01*
X137068000Y-118772440D01*
X137303317Y-118728162D01*
X137519441Y-118589090D01*
X137664431Y-118376890D01*
X137667081Y-118363803D01*
X137803910Y-118576441D01*
X138016110Y-118721431D01*
X138268000Y-118772440D01*
X139768000Y-118772440D01*
X140003317Y-118728162D01*
X140219441Y-118589090D01*
X140364431Y-118376890D01*
X140393164Y-118235000D01*
X141798198Y-118235000D01*
X144115599Y-120552401D01*
X144362160Y-120717148D01*
X144410414Y-120726746D01*
X144653000Y-120775000D01*
X156398968Y-120775000D01*
X158081369Y-122457401D01*
X158327931Y-122622148D01*
X158618770Y-122680000D01*
X160671903Y-122680000D01*
X160413474Y-123066766D01*
X160299400Y-123640255D01*
X160299400Y-124009745D01*
X160413474Y-124583234D01*
X160738330Y-125069415D01*
X161224511Y-125394271D01*
X161798000Y-125508345D01*
X162371489Y-125394271D01*
X162857670Y-125069415D01*
X163068000Y-124754634D01*
X163278330Y-125069415D01*
X163764511Y-125394271D01*
X164338000Y-125508345D01*
X164911489Y-125394271D01*
X165397670Y-125069415D01*
X165608000Y-124754634D01*
X165818330Y-125069415D01*
X166304511Y-125394271D01*
X166878000Y-125508345D01*
X167451489Y-125394271D01*
X167937670Y-125069415D01*
X168148000Y-124754634D01*
X168358330Y-125069415D01*
X168844511Y-125394271D01*
X169418000Y-125508345D01*
X169991489Y-125394271D01*
X170477670Y-125069415D01*
X170688000Y-124754634D01*
X170898330Y-125069415D01*
X171384511Y-125394271D01*
X171958000Y-125508345D01*
X172531489Y-125394271D01*
X173017670Y-125069415D01*
X173228000Y-124754634D01*
X173438330Y-125069415D01*
X173924511Y-125394271D01*
X174498000Y-125508345D01*
X175071489Y-125394271D01*
X175557670Y-125069415D01*
X175882526Y-124583234D01*
X175996600Y-124009745D01*
X175996600Y-123640255D01*
X175882526Y-123066766D01*
X175557670Y-122580585D01*
X175071489Y-122255729D01*
X174498000Y-122141655D01*
X173924511Y-122255729D01*
X173438330Y-122580585D01*
X173228000Y-122895366D01*
X173017670Y-122580585D01*
X172531489Y-122255729D01*
X171958000Y-122141655D01*
X171384511Y-122255729D01*
X170898330Y-122580585D01*
X170688000Y-122895366D01*
X170477670Y-122580585D01*
X169991489Y-122255729D01*
X169418000Y-122141655D01*
X169037536Y-122217334D01*
X167567801Y-120747599D01*
X167321239Y-120582852D01*
X167030400Y-120525000D01*
X162598633Y-120525000D01*
X162732838Y-120201799D01*
X162733162Y-119829833D01*
X162627690Y-119574570D01*
X162881201Y-119679838D01*
X163253167Y-119680162D01*
X163596943Y-119538117D01*
X163860192Y-119275327D01*
X164002838Y-118931799D01*
X164003162Y-118559833D01*
X163861117Y-118216057D01*
X163598327Y-117952808D01*
X163254799Y-117810162D01*
X162882833Y-117809838D01*
X162539057Y-117951883D01*
X162505882Y-117985000D01*
X157667802Y-117985000D01*
X157255401Y-117572599D01*
X157008839Y-117407852D01*
X156718000Y-117350000D01*
X146682802Y-117350000D01*
X140555401Y-111222599D01*
X140415440Y-111129080D01*
X140415440Y-111110000D01*
X140371162Y-110874683D01*
X140232090Y-110658559D01*
X140019890Y-110513569D01*
X139768000Y-110462560D01*
X138268000Y-110462560D01*
X138032683Y-110506838D01*
X137816559Y-110645910D01*
X137671569Y-110858110D01*
X137668919Y-110871197D01*
X137532090Y-110658559D01*
X137319890Y-110513569D01*
X137068000Y-110462560D01*
X135568000Y-110462560D01*
X135332683Y-110506838D01*
X135116559Y-110645910D01*
X134971569Y-110858110D01*
X134955092Y-110939474D01*
X134679799Y-110825162D01*
X134307833Y-110824838D01*
X133964057Y-110966883D01*
X133700808Y-111229673D01*
X133558162Y-111573201D01*
X133557838Y-111945167D01*
X111708000Y-111945167D01*
X111708000Y-109979187D01*
X124842752Y-109979187D01*
X125060757Y-110506800D01*
X125464077Y-110910824D01*
X125991309Y-111129750D01*
X126562187Y-111130248D01*
X127089800Y-110912243D01*
X127493824Y-110508923D01*
X127527813Y-110427069D01*
X127560757Y-110506800D01*
X127964077Y-110910824D01*
X128491309Y-111129750D01*
X129062187Y-111130248D01*
X129589800Y-110912243D01*
X129799663Y-110702745D01*
X130449861Y-110702745D01*
X130523995Y-110948864D01*
X131061223Y-111141965D01*
X131631454Y-111114778D01*
X132032005Y-110948864D01*
X132106139Y-110702745D01*
X131278000Y-109874605D01*
X130449861Y-110702745D01*
X129799663Y-110702745D01*
X129993824Y-110508923D01*
X130021423Y-110442456D01*
X130024136Y-110449005D01*
X130270255Y-110523139D01*
X131098395Y-109695000D01*
X131457605Y-109695000D01*
X132285745Y-110523139D01*
X132531864Y-110449005D01*
X132724965Y-109911777D01*
X132697778Y-109341546D01*
X132531864Y-108940995D01*
X132285745Y-108866861D01*
X131457605Y-109695000D01*
X131098395Y-109695000D01*
X130270255Y-108866861D01*
X130024136Y-108940995D01*
X130021804Y-108947483D01*
X129995243Y-108883200D01*
X129799640Y-108687255D01*
X130449861Y-108687255D01*
X131278000Y-109515395D01*
X132106139Y-108687255D01*
X132032005Y-108441136D01*
X131494777Y-108248035D01*
X130924546Y-108275222D01*
X130523995Y-108441136D01*
X130449861Y-108687255D01*
X129799640Y-108687255D01*
X129591923Y-108479176D01*
X129064691Y-108260250D01*
X128493813Y-108259752D01*
X127966200Y-108477757D01*
X127562176Y-108881077D01*
X127528187Y-108962931D01*
X127495243Y-108883200D01*
X127091923Y-108479176D01*
X126564691Y-108260250D01*
X125993813Y-108259752D01*
X125466200Y-108477757D01*
X125062176Y-108881077D01*
X124843250Y-109408309D01*
X124842752Y-109979187D01*
X111708000Y-109979187D01*
X111708000Y-107788599D01*
X120392699Y-107788599D01*
X120656281Y-108426515D01*
X121143918Y-108915004D01*
X121781373Y-109179699D01*
X122471599Y-109180301D01*
X123109515Y-108916719D01*
X123598004Y-108429082D01*
X123862699Y-107791627D01*
X123862701Y-107788599D01*
X133692699Y-107788599D01*
X133956281Y-108426515D01*
X134443918Y-108915004D01*
X135081373Y-109179699D01*
X135771599Y-109180301D01*
X136409515Y-108916719D01*
X136898004Y-108429082D01*
X137162699Y-107791627D01*
X137163301Y-107101401D01*
X136899719Y-106463485D01*
X136417826Y-105980750D01*
X146233000Y-105980750D01*
X146233000Y-109321310D01*
X146329673Y-109554699D01*
X146508302Y-109733327D01*
X146741691Y-109830000D01*
X150082250Y-109830000D01*
X150241000Y-109671250D01*
X150241000Y-105822000D01*
X150495000Y-105822000D01*
X150495000Y-109671250D01*
X150653750Y-109830000D01*
X153994309Y-109830000D01*
X154227698Y-109733327D01*
X154406327Y-109554699D01*
X154503000Y-109321310D01*
X154503000Y-105980750D01*
X154344250Y-105822000D01*
X150495000Y-105822000D01*
X150241000Y-105822000D01*
X146391750Y-105822000D01*
X146233000Y-105980750D01*
X136417826Y-105980750D01*
X136412082Y-105974996D01*
X135774627Y-105710301D01*
X135084401Y-105709699D01*
X134446485Y-105973281D01*
X133957996Y-106460918D01*
X133693301Y-107098373D01*
X133692699Y-107788599D01*
X123862701Y-107788599D01*
X123863301Y-107101401D01*
X123599719Y-106463485D01*
X123112082Y-105974996D01*
X122474627Y-105710301D01*
X121784401Y-105709699D01*
X121146485Y-105973281D01*
X120657996Y-106460918D01*
X120393301Y-107098373D01*
X120392699Y-107788599D01*
X111708000Y-107788599D01*
X111708000Y-103952745D01*
X115199861Y-103952745D01*
X115273995Y-104198864D01*
X115811223Y-104391965D01*
X116381454Y-104364778D01*
X116782005Y-104198864D01*
X116856139Y-103952745D01*
X116028000Y-103124605D01*
X115199861Y-103952745D01*
X111708000Y-103952745D01*
X111708000Y-102728223D01*
X114581035Y-102728223D01*
X114608222Y-103298454D01*
X114774136Y-103699005D01*
X115020255Y-103773139D01*
X115848395Y-102945000D01*
X116207605Y-102945000D01*
X117035745Y-103773139D01*
X117281864Y-103699005D01*
X117450735Y-103229187D01*
X119092752Y-103229187D01*
X119310757Y-103756800D01*
X119714077Y-104160824D01*
X120241309Y-104379750D01*
X120812187Y-104380248D01*
X121339800Y-104162243D01*
X121743824Y-103758923D01*
X121962750Y-103231691D01*
X121962775Y-103202745D01*
X137599861Y-103202745D01*
X137673995Y-103448864D01*
X138211223Y-103641965D01*
X138781454Y-103614778D01*
X139182005Y-103448864D01*
X139256139Y-103202745D01*
X138428000Y-102374605D01*
X137599861Y-103202745D01*
X121962775Y-103202745D01*
X121963248Y-102660813D01*
X121745243Y-102133200D01*
X121590537Y-101978223D01*
X136981035Y-101978223D01*
X137008222Y-102548454D01*
X137174136Y-102949005D01*
X137420255Y-103023139D01*
X138248395Y-102195000D01*
X138607605Y-102195000D01*
X139435745Y-103023139D01*
X139681864Y-102949005D01*
X139874965Y-102411777D01*
X139858608Y-102068690D01*
X146233000Y-102068690D01*
X146233000Y-105409250D01*
X146391750Y-105568000D01*
X150241000Y-105568000D01*
X150241000Y-101718750D01*
X150495000Y-101718750D01*
X150495000Y-105568000D01*
X154344250Y-105568000D01*
X154503000Y-105409250D01*
X154503000Y-102068690D01*
X154406327Y-101835301D01*
X154227698Y-101656673D01*
X153994309Y-101560000D01*
X150653750Y-101560000D01*
X150495000Y-101718750D01*
X150241000Y-101718750D01*
X150082250Y-101560000D01*
X146741691Y-101560000D01*
X146508302Y-101656673D01*
X146329673Y-101835301D01*
X146233000Y-102068690D01*
X139858608Y-102068690D01*
X139847778Y-101841546D01*
X139681864Y-101440995D01*
X139435745Y-101366861D01*
X138607605Y-102195000D01*
X138248395Y-102195000D01*
X137420255Y-101366861D01*
X137174136Y-101440995D01*
X136981035Y-101978223D01*
X121590537Y-101978223D01*
X121341923Y-101729176D01*
X120814691Y-101510250D01*
X120243813Y-101509752D01*
X119716200Y-101727757D01*
X119312176Y-102131077D01*
X119093250Y-102658309D01*
X119092752Y-103229187D01*
X117450735Y-103229187D01*
X117474965Y-103161777D01*
X117447778Y-102591546D01*
X117281864Y-102190995D01*
X117035745Y-102116861D01*
X116207605Y-102945000D01*
X115848395Y-102945000D01*
X115020255Y-102116861D01*
X114774136Y-102190995D01*
X114581035Y-102728223D01*
X111708000Y-102728223D01*
X111708000Y-101937255D01*
X115199861Y-101937255D01*
X116028000Y-102765395D01*
X116856139Y-101937255D01*
X116782005Y-101691136D01*
X116244777Y-101498035D01*
X115674546Y-101525222D01*
X115273995Y-101691136D01*
X115199861Y-101937255D01*
X111708000Y-101937255D01*
X111708000Y-97452745D01*
X115199861Y-97452745D01*
X115273995Y-97698864D01*
X115811223Y-97891965D01*
X116381454Y-97864778D01*
X116782005Y-97698864D01*
X116856139Y-97452745D01*
X116028000Y-96624605D01*
X115199861Y-97452745D01*
X111708000Y-97452745D01*
X111708000Y-96228223D01*
X114581035Y-96228223D01*
X114608222Y-96798454D01*
X114774136Y-97199005D01*
X115020255Y-97273139D01*
X115848395Y-96445000D01*
X116207605Y-96445000D01*
X117035745Y-97273139D01*
X117281864Y-97199005D01*
X117450735Y-96729187D01*
X119092752Y-96729187D01*
X119310757Y-97256800D01*
X119714077Y-97660824D01*
X120241309Y-97879750D01*
X120812187Y-97880248D01*
X121339800Y-97662243D01*
X121523175Y-97479187D01*
X136992752Y-97479187D01*
X137210757Y-98006800D01*
X137614077Y-98410824D01*
X137695931Y-98444813D01*
X137616200Y-98477757D01*
X137212176Y-98881077D01*
X136993250Y-99408309D01*
X136992752Y-99979187D01*
X137210757Y-100506800D01*
X137614077Y-100910824D01*
X137680544Y-100938423D01*
X137673995Y-100941136D01*
X137599861Y-101187255D01*
X138428000Y-102015395D01*
X139256139Y-101187255D01*
X139182005Y-100941136D01*
X139175517Y-100938804D01*
X139239800Y-100912243D01*
X139643824Y-100508923D01*
X139862750Y-99981691D01*
X139863248Y-99410813D01*
X139645243Y-98883200D01*
X139241923Y-98479176D01*
X139160069Y-98445187D01*
X139239800Y-98412243D01*
X139643824Y-98008923D01*
X139734728Y-97790000D01*
X144913000Y-97790000D01*
X144989882Y-98176510D01*
X145208822Y-98504178D01*
X145713822Y-99009178D01*
X146041490Y-99228118D01*
X146420560Y-99303520D01*
X146420560Y-100045000D01*
X146464838Y-100280317D01*
X146603910Y-100496441D01*
X146816110Y-100641431D01*
X147068000Y-100692440D01*
X149068000Y-100692440D01*
X149303317Y-100648162D01*
X149519441Y-100509090D01*
X149664431Y-100296890D01*
X149715440Y-100045000D01*
X149715440Y-96545000D01*
X151000560Y-96545000D01*
X151000560Y-100045000D01*
X151044838Y-100280317D01*
X151183910Y-100496441D01*
X151396110Y-100641431D01*
X151648000Y-100692440D01*
X153648000Y-100692440D01*
X153883317Y-100648162D01*
X154099441Y-100509090D01*
X154244431Y-100296890D01*
X154295440Y-100045000D01*
X154295440Y-99305000D01*
X154346993Y-99305000D01*
X154426490Y-99358118D01*
X154813000Y-99435000D01*
X155199510Y-99358118D01*
X155527178Y-99139178D01*
X155746118Y-98811510D01*
X155823000Y-98425000D01*
X157613000Y-98425000D01*
X157613000Y-111760000D01*
X157689882Y-112146510D01*
X157908822Y-112474178D01*
X158543822Y-113109178D01*
X158871490Y-113328118D01*
X159258000Y-113405000D01*
X165309850Y-113405000D01*
X165321455Y-113433086D01*
X165837199Y-113949730D01*
X166326451Y-114152885D01*
X165954631Y-114226845D01*
X165456641Y-114559591D01*
X165123895Y-115057581D01*
X165007050Y-115645000D01*
X165123895Y-116232419D01*
X165399573Y-116645000D01*
X165123895Y-117057581D01*
X165007050Y-117645000D01*
X165123895Y-118232419D01*
X165456641Y-118730409D01*
X165954631Y-119063155D01*
X166542050Y-119180000D01*
X167213950Y-119180000D01*
X167801369Y-119063155D01*
X168299359Y-118730409D01*
X168632105Y-118232419D01*
X168748950Y-117645000D01*
X168632105Y-117057581D01*
X168356427Y-116645000D01*
X168632105Y-116232419D01*
X168748950Y-115645000D01*
X168632105Y-115057581D01*
X168299359Y-114559591D01*
X167801369Y-114226845D01*
X167429046Y-114152785D01*
X167916086Y-113951545D01*
X168432730Y-113435801D01*
X168712681Y-112761605D01*
X168713318Y-112031597D01*
X168434545Y-111356914D01*
X167918801Y-110840270D01*
X167244605Y-110560319D01*
X166514597Y-110559682D01*
X165839914Y-110838455D01*
X165323270Y-111354199D01*
X165310480Y-111385000D01*
X159676356Y-111385000D01*
X159633000Y-111341644D01*
X159633000Y-98425000D01*
X159582477Y-98171000D01*
X162566000Y-98171000D01*
X162566000Y-101092000D01*
X162642882Y-101478510D01*
X162861822Y-101806178D01*
X164044822Y-102989178D01*
X164372490Y-103208118D01*
X164759000Y-103285000D01*
X165309850Y-103285000D01*
X165321455Y-103313086D01*
X165837199Y-103829730D01*
X166326451Y-104032885D01*
X165954631Y-104106845D01*
X165456641Y-104439591D01*
X165123895Y-104937581D01*
X165007050Y-105525000D01*
X165123895Y-106112419D01*
X165399573Y-106525000D01*
X165123895Y-106937581D01*
X165007050Y-107525000D01*
X165123895Y-108112419D01*
X165456641Y-108610409D01*
X165954631Y-108943155D01*
X166542050Y-109060000D01*
X167213950Y-109060000D01*
X167801369Y-108943155D01*
X168299359Y-108610409D01*
X168632105Y-108112419D01*
X168748950Y-107525000D01*
X168632105Y-106937581D01*
X168356427Y-106525000D01*
X168632105Y-106112419D01*
X168748950Y-105525000D01*
X168632105Y-104937581D01*
X168299359Y-104439591D01*
X167801369Y-104106845D01*
X167429046Y-104032785D01*
X167916086Y-103831545D01*
X168432730Y-103315801D01*
X168712681Y-102641605D01*
X168713318Y-101911597D01*
X168434545Y-101236914D01*
X167918801Y-100720270D01*
X167244605Y-100440319D01*
X166514597Y-100439682D01*
X165839914Y-100718455D01*
X165323270Y-101234199D01*
X165310480Y-101265000D01*
X165177356Y-101265000D01*
X164586000Y-100673644D01*
X164586000Y-98171000D01*
X164509118Y-97784490D01*
X164290178Y-97456822D01*
X163962510Y-97237882D01*
X163576000Y-97161000D01*
X163189490Y-97237882D01*
X162861822Y-97456822D01*
X162642882Y-97784490D01*
X162566000Y-98171000D01*
X159582477Y-98171000D01*
X159556118Y-98038490D01*
X159337178Y-97710822D01*
X159009510Y-97491882D01*
X158623000Y-97415000D01*
X158236490Y-97491882D01*
X157908822Y-97710822D01*
X157689882Y-98038490D01*
X157613000Y-98425000D01*
X155823000Y-98425000D01*
X155746118Y-98038490D01*
X155527178Y-97710822D01*
X155397178Y-97580822D01*
X155069510Y-97361882D01*
X154683000Y-97285000D01*
X154295440Y-97285000D01*
X154295440Y-96545000D01*
X154251162Y-96309683D01*
X154112090Y-96093559D01*
X153899890Y-95948569D01*
X153648000Y-95897560D01*
X151648000Y-95897560D01*
X151412683Y-95941838D01*
X151196559Y-96080910D01*
X151051569Y-96293110D01*
X151000560Y-96545000D01*
X149715440Y-96545000D01*
X149671162Y-96309683D01*
X149532090Y-96093559D01*
X149319890Y-95948569D01*
X149068000Y-95897560D01*
X147068000Y-95897560D01*
X146832683Y-95941838D01*
X146616559Y-96080910D01*
X146471569Y-96293110D01*
X146420560Y-96545000D01*
X146420560Y-96931083D01*
X146309510Y-96856882D01*
X145923000Y-96780000D01*
X145536490Y-96856882D01*
X145208822Y-97075822D01*
X144989882Y-97403490D01*
X144913000Y-97790000D01*
X139734728Y-97790000D01*
X139862750Y-97481691D01*
X139863248Y-96910813D01*
X139645243Y-96383200D01*
X139241923Y-95979176D01*
X138714691Y-95760250D01*
X138143813Y-95759752D01*
X137616200Y-95977757D01*
X137212176Y-96381077D01*
X136993250Y-96908309D01*
X136992752Y-97479187D01*
X121523175Y-97479187D01*
X121743824Y-97258923D01*
X121962750Y-96731691D01*
X121963248Y-96160813D01*
X121745243Y-95633200D01*
X121341923Y-95229176D01*
X120814691Y-95010250D01*
X120243813Y-95009752D01*
X119716200Y-95227757D01*
X119312176Y-95631077D01*
X119093250Y-96158309D01*
X119092752Y-96729187D01*
X117450735Y-96729187D01*
X117474965Y-96661777D01*
X117447778Y-96091546D01*
X117281864Y-95690995D01*
X117035745Y-95616861D01*
X116207605Y-96445000D01*
X115848395Y-96445000D01*
X115020255Y-95616861D01*
X114774136Y-95690995D01*
X114581035Y-96228223D01*
X111708000Y-96228223D01*
X111708000Y-95437255D01*
X115199861Y-95437255D01*
X116028000Y-96265395D01*
X116856139Y-95437255D01*
X116782005Y-95191136D01*
X116244777Y-94998035D01*
X115674546Y-95025222D01*
X115273995Y-95191136D01*
X115199861Y-95437255D01*
X111708000Y-95437255D01*
X111708000Y-94742000D01*
X121158000Y-94742000D01*
X121207410Y-94731994D01*
X121249035Y-94703553D01*
X121276315Y-94661159D01*
X121285000Y-94615000D01*
X121285000Y-93473586D01*
X121781373Y-93679699D01*
X122471599Y-93680301D01*
X123109515Y-93416719D01*
X123598004Y-92929082D01*
X123862699Y-92291627D01*
X123862701Y-92288599D01*
X133692699Y-92288599D01*
X133956281Y-92926515D01*
X134443918Y-93415004D01*
X135081373Y-93679699D01*
X135771599Y-93680301D01*
X136409515Y-93416719D01*
X136755921Y-93070917D01*
X163785234Y-93070917D01*
X164062101Y-93740986D01*
X164574317Y-94254097D01*
X164678271Y-94297262D01*
X164577014Y-94339101D01*
X164063903Y-94851317D01*
X163785867Y-95520902D01*
X163785234Y-96245917D01*
X164062101Y-96915986D01*
X164574317Y-97429097D01*
X165243902Y-97707133D01*
X165968917Y-97707766D01*
X166638986Y-97430899D01*
X167152097Y-96918683D01*
X167278619Y-96613983D01*
X167506900Y-96842663D01*
X167922183Y-97015103D01*
X168371844Y-97015496D01*
X168787427Y-96843781D01*
X169017407Y-96614203D01*
X169142101Y-96915986D01*
X169654317Y-97429097D01*
X170323902Y-97707133D01*
X171048917Y-97707766D01*
X171718986Y-97430899D01*
X172232097Y-96918683D01*
X172510133Y-96249098D01*
X172510766Y-95524083D01*
X172233899Y-94854014D01*
X171721683Y-94340903D01*
X171617729Y-94297738D01*
X171718986Y-94255899D01*
X172232097Y-93743683D01*
X172510133Y-93074098D01*
X172510766Y-92349083D01*
X172233899Y-91679014D01*
X171721683Y-91165903D01*
X171052098Y-90887867D01*
X170327083Y-90887234D01*
X170294217Y-90900814D01*
X170294496Y-90581156D01*
X170122781Y-90165573D01*
X169805100Y-89847337D01*
X169389817Y-89674897D01*
X168940156Y-89674504D01*
X168524573Y-89846219D01*
X168206337Y-90163900D01*
X168148070Y-90304223D01*
X168090781Y-90165573D01*
X167773100Y-89847337D01*
X167357817Y-89674897D01*
X166908156Y-89674504D01*
X166492573Y-89846219D01*
X166174337Y-90163900D01*
X166001897Y-90579183D01*
X166001617Y-90900124D01*
X165972098Y-90887867D01*
X165247083Y-90887234D01*
X164577014Y-91164101D01*
X164063903Y-91676317D01*
X163785867Y-92345902D01*
X163785234Y-93070917D01*
X136755921Y-93070917D01*
X136898004Y-92929082D01*
X137162699Y-92291627D01*
X137163301Y-91601401D01*
X136899719Y-90963485D01*
X136412082Y-90474996D01*
X135774627Y-90210301D01*
X135084401Y-90209699D01*
X134446485Y-90473281D01*
X133957996Y-90960918D01*
X133693301Y-91598373D01*
X133692699Y-92288599D01*
X123862701Y-92288599D01*
X123863301Y-91601401D01*
X123599719Y-90963485D01*
X123112082Y-90474996D01*
X122474627Y-90210301D01*
X121784401Y-90209699D01*
X121285000Y-90416048D01*
X121285000Y-86716890D01*
X139401524Y-86716890D01*
X139571355Y-87126924D01*
X139961642Y-87555183D01*
X140486108Y-87801486D01*
X140716000Y-87680819D01*
X140716000Y-86487000D01*
X140970000Y-86487000D01*
X140970000Y-87680819D01*
X141199892Y-87801486D01*
X141724358Y-87555183D01*
X142114645Y-87126924D01*
X142284476Y-86716890D01*
X142163155Y-86487000D01*
X140970000Y-86487000D01*
X140716000Y-86487000D01*
X139522845Y-86487000D01*
X139401524Y-86716890D01*
X121285000Y-86716890D01*
X121285000Y-83820000D01*
X139328907Y-83820000D01*
X139441946Y-84388285D01*
X139763853Y-84870054D01*
X140104553Y-85097702D01*
X139961642Y-85164817D01*
X139571355Y-85593076D01*
X139401524Y-86003110D01*
X139522845Y-86233000D01*
X140716000Y-86233000D01*
X140716000Y-86213000D01*
X140970000Y-86213000D01*
X140970000Y-86233000D01*
X142163155Y-86233000D01*
X142284476Y-86003110D01*
X142114645Y-85593076D01*
X141981421Y-85446890D01*
X162896524Y-85446890D01*
X163066355Y-85856924D01*
X163456642Y-86285183D01*
X163981108Y-86531486D01*
X164211000Y-86410819D01*
X164211000Y-85217000D01*
X164465000Y-85217000D01*
X164465000Y-86410819D01*
X164694892Y-86531486D01*
X165219358Y-86285183D01*
X165608000Y-85858729D01*
X165996642Y-86285183D01*
X166521108Y-86531486D01*
X166751000Y-86410819D01*
X166751000Y-85217000D01*
X167005000Y-85217000D01*
X167005000Y-86410819D01*
X167234892Y-86531486D01*
X167759358Y-86285183D01*
X168148000Y-85858729D01*
X168536642Y-86285183D01*
X169061108Y-86531486D01*
X169291000Y-86410819D01*
X169291000Y-85217000D01*
X169545000Y-85217000D01*
X169545000Y-86410819D01*
X169774892Y-86531486D01*
X170299358Y-86285183D01*
X170689645Y-85856924D01*
X170859476Y-85446890D01*
X170738155Y-85217000D01*
X169545000Y-85217000D01*
X169291000Y-85217000D01*
X167005000Y-85217000D01*
X166751000Y-85217000D01*
X164465000Y-85217000D01*
X164211000Y-85217000D01*
X163017845Y-85217000D01*
X162896524Y-85446890D01*
X141981421Y-85446890D01*
X141724358Y-85164817D01*
X141581447Y-85097702D01*
X141922147Y-84870054D01*
X142244054Y-84388285D01*
X142357093Y-83820000D01*
X142244054Y-83251715D01*
X141922147Y-82769946D01*
X141880548Y-82742150D01*
X141928317Y-82733162D01*
X142144441Y-82594090D01*
X142174566Y-82550000D01*
X162823907Y-82550000D01*
X162936946Y-83118285D01*
X163258853Y-83600054D01*
X163599553Y-83827702D01*
X163456642Y-83894817D01*
X163066355Y-84323076D01*
X162896524Y-84733110D01*
X163017845Y-84963000D01*
X164211000Y-84963000D01*
X164211000Y-84943000D01*
X164465000Y-84943000D01*
X164465000Y-84963000D01*
X166751000Y-84963000D01*
X166751000Y-84943000D01*
X167005000Y-84943000D01*
X167005000Y-84963000D01*
X169291000Y-84963000D01*
X169291000Y-84943000D01*
X169545000Y-84943000D01*
X169545000Y-84963000D01*
X170738155Y-84963000D01*
X170859476Y-84733110D01*
X170689645Y-84323076D01*
X170299358Y-83894817D01*
X170156447Y-83827702D01*
X170497147Y-83600054D01*
X170523910Y-83560000D01*
X173863018Y-83560000D01*
X174249528Y-83483118D01*
X174577196Y-83264178D01*
X174796136Y-82936510D01*
X174873018Y-82550000D01*
X174796136Y-82163490D01*
X174577196Y-81835822D01*
X174249528Y-81616882D01*
X173863018Y-81540000D01*
X170523910Y-81540000D01*
X170497147Y-81499946D01*
X170455548Y-81472150D01*
X170503317Y-81463162D01*
X170719441Y-81324090D01*
X170864431Y-81111890D01*
X170915440Y-80860000D01*
X170915440Y-79160000D01*
X170871162Y-78924683D01*
X170732090Y-78708559D01*
X170519890Y-78563569D01*
X170268000Y-78512560D01*
X168568000Y-78512560D01*
X168332683Y-78556838D01*
X168145923Y-78677015D01*
X167979890Y-78563569D01*
X167728000Y-78512560D01*
X166028000Y-78512560D01*
X165792683Y-78556838D01*
X165605923Y-78677015D01*
X165439890Y-78563569D01*
X165188000Y-78512560D01*
X163488000Y-78512560D01*
X163252683Y-78556838D01*
X163036559Y-78695910D01*
X162891569Y-78908110D01*
X162840560Y-79160000D01*
X162840560Y-80860000D01*
X162884838Y-81095317D01*
X163023910Y-81311441D01*
X163236110Y-81456431D01*
X163303541Y-81470086D01*
X163258853Y-81499946D01*
X162936946Y-81981715D01*
X162823907Y-82550000D01*
X142174566Y-82550000D01*
X142289431Y-82381890D01*
X142340440Y-82130000D01*
X142340440Y-80430000D01*
X142296162Y-80194683D01*
X142157090Y-79978559D01*
X141944890Y-79833569D01*
X141693000Y-79782560D01*
X139993000Y-79782560D01*
X139757683Y-79826838D01*
X139541559Y-79965910D01*
X139396569Y-80178110D01*
X139345560Y-80430000D01*
X139345560Y-82130000D01*
X139389838Y-82365317D01*
X139528910Y-82581441D01*
X139741110Y-82726431D01*
X139808541Y-82740086D01*
X139763853Y-82769946D01*
X139441946Y-83251715D01*
X139328907Y-83820000D01*
X121285000Y-83820000D01*
X121285000Y-81915000D01*
X121274994Y-81865590D01*
X121246553Y-81823965D01*
X121204159Y-81796685D01*
X121158000Y-81788000D01*
X111708000Y-81788000D01*
X111708000Y-74715000D01*
X113310560Y-74715000D01*
X113310560Y-76415000D01*
X113354838Y-76650317D01*
X113493910Y-76866441D01*
X113706110Y-77011431D01*
X113958000Y-77062440D01*
X115658000Y-77062440D01*
X115893317Y-77018162D01*
X116109441Y-76879090D01*
X116254431Y-76666890D01*
X116268086Y-76599459D01*
X116297946Y-76644147D01*
X116779715Y-76966054D01*
X117348000Y-77079093D01*
X117916285Y-76966054D01*
X118398054Y-76644147D01*
X118618000Y-76314974D01*
X118837946Y-76644147D01*
X119319715Y-76966054D01*
X119888000Y-77079093D01*
X120456285Y-76966054D01*
X120938054Y-76644147D01*
X121165702Y-76303447D01*
X121232817Y-76446358D01*
X121661076Y-76836645D01*
X122071110Y-77006476D01*
X122301000Y-76885155D01*
X122301000Y-75692000D01*
X122555000Y-75692000D01*
X122555000Y-76885155D01*
X122784890Y-77006476D01*
X123194924Y-76836645D01*
X123623183Y-76446358D01*
X123869486Y-75921892D01*
X123748819Y-75692000D01*
X122555000Y-75692000D01*
X122301000Y-75692000D01*
X122281000Y-75692000D01*
X122281000Y-75438000D01*
X122301000Y-75438000D01*
X122301000Y-74244845D01*
X122555000Y-74244845D01*
X122555000Y-75438000D01*
X123748819Y-75438000D01*
X123869486Y-75208108D01*
X123623183Y-74683642D01*
X123194924Y-74293355D01*
X122784890Y-74123524D01*
X122555000Y-74244845D01*
X122301000Y-74244845D01*
X122071110Y-74123524D01*
X121661076Y-74293355D01*
X121232817Y-74683642D01*
X121165702Y-74826553D01*
X120938054Y-74485853D01*
X120456285Y-74163946D01*
X119888000Y-74050907D01*
X119319715Y-74163946D01*
X118837946Y-74485853D01*
X118618000Y-74815026D01*
X118398054Y-74485853D01*
X117916285Y-74163946D01*
X117348000Y-74050907D01*
X116779715Y-74163946D01*
X116297946Y-74485853D01*
X116270150Y-74527452D01*
X116261162Y-74479683D01*
X116122090Y-74263559D01*
X115909890Y-74118569D01*
X115658000Y-74067560D01*
X113958000Y-74067560D01*
X113722683Y-74111838D01*
X113506559Y-74250910D01*
X113361569Y-74463110D01*
X113310560Y-74715000D01*
X111708000Y-74715000D01*
X111708000Y-73735000D01*
X124925361Y-73735000D01*
X124354955Y-74304411D01*
X124354955Y-74304411D01*
G37*
X124354955Y-74304411D02*
X124015887Y-75120978D01*
X124015115Y-76005143D01*
X124352758Y-76822300D01*
X124977411Y-77448045D01*
X125793978Y-77787113D01*
X126678143Y-77787885D01*
X127495300Y-77450242D01*
X128121045Y-76825589D01*
X128383617Y-76193244D01*
X128409474Y-76323234D01*
X128734330Y-76809415D01*
X129220511Y-77134271D01*
X129794000Y-77248345D01*
X130367489Y-77134271D01*
X130853670Y-76809415D01*
X131064000Y-76494634D01*
X131274330Y-76809415D01*
X131760511Y-77134271D01*
X132334000Y-77248345D01*
X132907489Y-77134271D01*
X133393670Y-76809415D01*
X133604000Y-76494634D01*
X133814330Y-76809415D01*
X134300511Y-77134271D01*
X134874000Y-77248345D01*
X135447489Y-77134271D01*
X135933670Y-76809415D01*
X136140461Y-76499931D01*
X136511964Y-76915732D01*
X137039209Y-77169709D01*
X137054974Y-77172358D01*
X137287000Y-77051217D01*
X137287000Y-75692000D01*
X137267000Y-75692000D01*
X137267000Y-75438000D01*
X137287000Y-75438000D01*
X137287000Y-74078783D01*
X137541000Y-74078783D01*
X137541000Y-75438000D01*
X137561000Y-75438000D01*
X137561000Y-75692000D01*
X137541000Y-75692000D01*
X137541000Y-77051217D01*
X137773026Y-77172358D01*
X137788791Y-77169709D01*
X138316036Y-76915732D01*
X138687539Y-76499931D01*
X138894330Y-76809415D01*
X139380511Y-77134271D01*
X139954000Y-77248345D01*
X140527489Y-77134271D01*
X141013670Y-76809415D01*
X141224000Y-76494634D01*
X141434330Y-76809415D01*
X141920511Y-77134271D01*
X142494000Y-77248345D01*
X143067489Y-77134271D01*
X143553670Y-76809415D01*
X143764000Y-76494634D01*
X143974330Y-76809415D01*
X144460511Y-77134271D01*
X145034000Y-77248345D01*
X145607489Y-77134271D01*
X146093670Y-76809415D01*
X146304000Y-76494634D01*
X146514330Y-76809415D01*
X147000511Y-77134271D01*
X147574000Y-77248345D01*
X148147489Y-77134271D01*
X148633670Y-76809415D01*
X148844000Y-76494634D01*
X149054330Y-76809415D01*
X149540511Y-77134271D01*
X150114000Y-77248345D01*
X150687489Y-77134271D01*
X151173670Y-76809415D01*
X151384000Y-76494634D01*
X151594330Y-76809415D01*
X152080511Y-77134271D01*
X152654000Y-77248345D01*
X153227489Y-77134271D01*
X153713670Y-76809415D01*
X154038526Y-76323234D01*
X154152600Y-75749745D01*
X154152600Y-75380255D01*
X155219400Y-75380255D01*
X155219400Y-75749745D01*
X155333474Y-76323234D01*
X155658330Y-76809415D01*
X156144511Y-77134271D01*
X156718000Y-77248345D01*
X157291489Y-77134271D01*
X157777670Y-76809415D01*
X157988000Y-76494634D01*
X158198330Y-76809415D01*
X158684511Y-77134271D01*
X159258000Y-77248345D01*
X159831489Y-77134271D01*
X160317670Y-76809415D01*
X160528000Y-76494634D01*
X160738330Y-76809415D01*
X161224511Y-77134271D01*
X161798000Y-77248345D01*
X162371489Y-77134271D01*
X162857670Y-76809415D01*
X163068000Y-76494634D01*
X163278330Y-76809415D01*
X163764511Y-77134271D01*
X164338000Y-77248345D01*
X164911489Y-77134271D01*
X165397670Y-76809415D01*
X165608000Y-76494634D01*
X165818330Y-76809415D01*
X166304511Y-77134271D01*
X166878000Y-77248345D01*
X167451489Y-77134271D01*
X167937670Y-76809415D01*
X168148000Y-76494634D01*
X168358330Y-76809415D01*
X168844511Y-77134271D01*
X169418000Y-77248345D01*
X169991489Y-77134271D01*
X170477670Y-76809415D01*
X170688000Y-76494634D01*
X170898330Y-76809415D01*
X171384511Y-77134271D01*
X171958000Y-77248345D01*
X172531489Y-77134271D01*
X173017670Y-76809415D01*
X173228000Y-76494634D01*
X173438330Y-76809415D01*
X173924511Y-77134271D01*
X174498000Y-77248345D01*
X175071489Y-77134271D01*
X175557670Y-76809415D01*
X175882526Y-76323234D01*
X175996600Y-75749745D01*
X175996600Y-75380255D01*
X175882526Y-74806766D01*
X175557670Y-74320585D01*
X175071489Y-73995729D01*
X174498000Y-73881655D01*
X173924511Y-73995729D01*
X173438330Y-74320585D01*
X173228000Y-74635366D01*
X173017670Y-74320585D01*
X172531489Y-73995729D01*
X171958000Y-73881655D01*
X171384511Y-73995729D01*
X170898330Y-74320585D01*
X170688000Y-74635366D01*
X170477670Y-74320585D01*
X169991489Y-73995729D01*
X169418000Y-73881655D01*
X168844511Y-73995729D01*
X168358330Y-74320585D01*
X168148000Y-74635366D01*
X167937670Y-74320585D01*
X167451489Y-73995729D01*
X166878000Y-73881655D01*
X166304511Y-73995729D01*
X165818330Y-74320585D01*
X165608000Y-74635366D01*
X165397670Y-74320585D01*
X164911489Y-73995729D01*
X164338000Y-73881655D01*
X163764511Y-73995729D01*
X163278330Y-74320585D01*
X163068000Y-74635366D01*
X162857670Y-74320585D01*
X162371489Y-73995729D01*
X161798000Y-73881655D01*
X161224511Y-73995729D01*
X160738330Y-74320585D01*
X160528000Y-74635366D01*
X160317670Y-74320585D01*
X159831489Y-73995729D01*
X159258000Y-73881655D01*
X158684511Y-73995729D01*
X158198330Y-74320585D01*
X157988000Y-74635366D01*
X157777670Y-74320585D01*
X157291489Y-73995729D01*
X156718000Y-73881655D01*
X156144511Y-73995729D01*
X155658330Y-74320585D01*
X155333474Y-74806766D01*
X155219400Y-75380255D01*
X154152600Y-75380255D01*
X154038526Y-74806766D01*
X153713670Y-74320585D01*
X153227489Y-73995729D01*
X152654000Y-73881655D01*
X152080511Y-73995729D01*
X151594330Y-74320585D01*
X151384000Y-74635366D01*
X151173670Y-74320585D01*
X150687489Y-73995729D01*
X150114000Y-73881655D01*
X149540511Y-73995729D01*
X149054330Y-74320585D01*
X148844000Y-74635366D01*
X148633670Y-74320585D01*
X148147489Y-73995729D01*
X147574000Y-73881655D01*
X147000511Y-73995729D01*
X146514330Y-74320585D01*
X146304000Y-74635366D01*
X146093670Y-74320585D01*
X145607489Y-73995729D01*
X145034000Y-73881655D01*
X144460511Y-73995729D01*
X143974330Y-74320585D01*
X143764000Y-74635366D01*
X143553670Y-74320585D01*
X143067489Y-73995729D01*
X142494000Y-73881655D01*
X141920511Y-73995729D01*
X141434330Y-74320585D01*
X141224000Y-74635366D01*
X141013670Y-74320585D01*
X140527489Y-73995729D01*
X139954000Y-73881655D01*
X139380511Y-73995729D01*
X138894330Y-74320585D01*
X138687539Y-74630069D01*
X138316036Y-74214268D01*
X137788791Y-73960291D01*
X137773026Y-73957642D01*
X137541000Y-74078783D01*
X137287000Y-74078783D01*
X137054974Y-73957642D01*
X137039209Y-73960291D01*
X136511964Y-74214268D01*
X136140461Y-74630069D01*
X135933670Y-74320585D01*
X135447489Y-73995729D01*
X134874000Y-73881655D01*
X134300511Y-73995729D01*
X133814330Y-74320585D01*
X133604000Y-74635366D01*
X133393670Y-74320585D01*
X132907489Y-73995729D01*
X132334000Y-73881655D01*
X131760511Y-73995729D01*
X131274330Y-74320585D01*
X131064000Y-74635366D01*
X130853670Y-74320585D01*
X130367489Y-73995729D01*
X129794000Y-73881655D01*
X129220511Y-73995729D01*
X128734330Y-74320585D01*
X128409474Y-74806766D01*
X128383470Y-74937498D01*
X128123242Y-74307700D01*
X127551541Y-73735000D01*
X175219908Y-73735000D01*
X176276000Y-74791091D01*
X176276000Y-88715104D01*
X175780700Y-88919758D01*
X175154955Y-89544411D01*
X174815887Y-90360978D01*
X174815115Y-91245143D01*
X175152758Y-92062300D01*
X175777411Y-92688045D01*
X176276000Y-92895077D01*
X176276000Y-93270000D01*
X173863000Y-93270000D01*
X173794416Y-93283642D01*
X173481483Y-93331978D01*
X173225543Y-93437992D01*
X173225541Y-93437993D01*
X173019532Y-93575644D01*
X172823644Y-93771532D01*
X172685993Y-93977541D01*
X172685992Y-93977542D01*
X172579978Y-94233483D01*
X172531642Y-94476487D01*
X172531642Y-94546416D01*
X172518000Y-94615000D01*
X172518000Y-102235000D01*
X172531642Y-102303584D01*
X172531642Y-102373513D01*
X172579978Y-102616517D01*
X172685992Y-102872458D01*
X172685993Y-102872459D01*
X172823644Y-103078468D01*
X173019532Y-103274356D01*
X173225541Y-103412007D01*
X173225543Y-103412008D01*
X173481483Y-103518022D01*
X173724488Y-103566358D01*
X173794416Y-103566358D01*
X173863000Y-103580000D01*
X176276000Y-103580000D01*
X176276000Y-116655104D01*
X175780700Y-116859758D01*
X175154955Y-117484411D01*
X174815887Y-118300978D01*
X174815115Y-119185143D01*
X175152758Y-120002300D01*
X175777411Y-120628045D01*
X176276000Y-120835077D01*
X176276000Y-125655000D01*
X127635000Y-125655000D01*
X127635000Y-123270987D01*
X128612752Y-123270987D01*
X128830757Y-123798600D01*
X129234077Y-124202624D01*
X129761309Y-124421550D01*
X130332187Y-124422048D01*
X130859800Y-124204043D01*
X131263824Y-123800723D01*
X131330456Y-123640255D01*
X137439400Y-123640255D01*
X137439400Y-124009745D01*
X137553474Y-124583234D01*
X137878330Y-125069415D01*
X138364511Y-125394271D01*
X138938000Y-125508345D01*
X139511489Y-125394271D01*
X139997670Y-125069415D01*
X140208000Y-124754634D01*
X140418330Y-125069415D01*
X140904511Y-125394271D01*
X141478000Y-125508345D01*
X142051489Y-125394271D01*
X142537670Y-125069415D01*
X142748000Y-124754634D01*
X142958330Y-125069415D01*
X143444511Y-125394271D01*
X144018000Y-125508345D01*
X144591489Y-125394271D01*
X145077670Y-125069415D01*
X145288000Y-124754634D01*
X145498330Y-125069415D01*
X145984511Y-125394271D01*
X146558000Y-125508345D01*
X147131489Y-125394271D01*
X147617670Y-125069415D01*
X147828000Y-124754634D01*
X148038330Y-125069415D01*
X148524511Y-125394271D01*
X149098000Y-125508345D01*
X149671489Y-125394271D01*
X150157670Y-125069415D01*
X150364461Y-124759931D01*
X150735964Y-125175732D01*
X151263209Y-125429709D01*
X151278974Y-125432358D01*
X151511000Y-125311217D01*
X151511000Y-123952000D01*
X151765000Y-123952000D01*
X151765000Y-125311217D01*
X151997026Y-125432358D01*
X152012791Y-125429709D01*
X152540036Y-125175732D01*
X152908000Y-124763892D01*
X153275964Y-125175732D01*
X153803209Y-125429709D01*
X153818974Y-125432358D01*
X154051000Y-125311217D01*
X154051000Y-123952000D01*
X151765000Y-123952000D01*
X151511000Y-123952000D01*
X151491000Y-123952000D01*
X151491000Y-123698000D01*
X151511000Y-123698000D01*
X151511000Y-122338783D01*
X151765000Y-122338783D01*
X151765000Y-123698000D01*
X154051000Y-123698000D01*
X154051000Y-122338783D01*
X154305000Y-122338783D01*
X154305000Y-123698000D01*
X154325000Y-123698000D01*
X154325000Y-123952000D01*
X154305000Y-123952000D01*
X154305000Y-125311217D01*
X154537026Y-125432358D01*
X154552791Y-125429709D01*
X155080036Y-125175732D01*
X155451539Y-124759931D01*
X155658330Y-125069415D01*
X156144511Y-125394271D01*
X156718000Y-125508345D01*
X157291489Y-125394271D01*
X157777670Y-125069415D01*
X158102526Y-124583234D01*
X158216600Y-124009745D01*
X158216600Y-123640255D01*
X158102526Y-123066766D01*
X157777670Y-122580585D01*
X157291489Y-122255729D01*
X156718000Y-122141655D01*
X156144511Y-122255729D01*
X155658330Y-122580585D01*
X155451539Y-122890069D01*
X155080036Y-122474268D01*
X154552791Y-122220291D01*
X154537026Y-122217642D01*
X154305000Y-122338783D01*
X154051000Y-122338783D01*
X153818974Y-122217642D01*
X153803209Y-122220291D01*
X153275964Y-122474268D01*
X152908000Y-122886108D01*
X152540036Y-122474268D01*
X152012791Y-122220291D01*
X151997026Y-122217642D01*
X151765000Y-122338783D01*
X151511000Y-122338783D01*
X151278974Y-122217642D01*
X151263209Y-122220291D01*
X150735964Y-122474268D01*
X150364461Y-122890069D01*
X150157670Y-122580585D01*
X149671489Y-122255729D01*
X149098000Y-122141655D01*
X148524511Y-122255729D01*
X148038330Y-122580585D01*
X147828000Y-122895366D01*
X147617670Y-122580585D01*
X147131489Y-122255729D01*
X146558000Y-122141655D01*
X145984511Y-122255729D01*
X145498330Y-122580585D01*
X145288000Y-122895366D01*
X145077670Y-122580585D01*
X144591489Y-122255729D01*
X144018000Y-122141655D01*
X143444511Y-122255729D01*
X142958330Y-122580585D01*
X142748000Y-122895366D01*
X142537670Y-122580585D01*
X142051489Y-122255729D01*
X141478000Y-122141655D01*
X140904511Y-122255729D01*
X140418330Y-122580585D01*
X140208000Y-122895366D01*
X139997670Y-122580585D01*
X139511489Y-122255729D01*
X138938000Y-122141655D01*
X138364511Y-122255729D01*
X137878330Y-122580585D01*
X137553474Y-123066766D01*
X137439400Y-123640255D01*
X131330456Y-123640255D01*
X131482750Y-123273491D01*
X131483248Y-122702613D01*
X131265243Y-122175000D01*
X130861923Y-121770976D01*
X130334691Y-121552050D01*
X129763813Y-121551552D01*
X129236200Y-121769557D01*
X128832176Y-122172877D01*
X128613250Y-122700109D01*
X128612752Y-123270987D01*
X127635000Y-123270987D01*
X127635000Y-119867387D01*
X128612752Y-119867387D01*
X128830757Y-120395000D01*
X129234077Y-120799024D01*
X129761309Y-121017950D01*
X130332187Y-121018448D01*
X130859800Y-120800443D01*
X131263824Y-120397123D01*
X131482750Y-119869891D01*
X131483248Y-119299013D01*
X131265243Y-118771400D01*
X130861923Y-118367376D01*
X130334691Y-118148450D01*
X129763813Y-118147952D01*
X129236200Y-118365957D01*
X128832176Y-118769277D01*
X128613250Y-119296509D01*
X128612752Y-119867387D01*
X127635000Y-119867387D01*
X127635000Y-118110000D01*
X127626315Y-118063841D01*
X127599035Y-118021447D01*
X127557410Y-117993006D01*
X127508000Y-117983000D01*
X117348000Y-117983000D01*
X117301841Y-117991685D01*
X117259447Y-118018965D01*
X117231006Y-118060590D01*
X117221000Y-118110000D01*
X117221000Y-125655000D01*
X111708000Y-125655000D01*
X111708000Y-111945167D01*
X133557838Y-111945167D01*
X133699883Y-112288943D01*
X133962673Y-112552192D01*
X134306201Y-112694838D01*
X134678167Y-112695162D01*
X134952860Y-112581661D01*
X134964838Y-112645317D01*
X135007138Y-112711053D01*
X134971569Y-112763110D01*
X134955092Y-112844474D01*
X134679799Y-112730162D01*
X134307833Y-112729838D01*
X133964057Y-112871883D01*
X133700808Y-113134673D01*
X133558162Y-113478201D01*
X133557838Y-113850167D01*
X133699883Y-114193943D01*
X133962673Y-114457192D01*
X134306201Y-114599838D01*
X134678167Y-114600162D01*
X134952860Y-114486661D01*
X134964838Y-114550317D01*
X135007138Y-114616053D01*
X134971569Y-114668110D01*
X134955092Y-114749474D01*
X134679799Y-114635162D01*
X134307833Y-114634838D01*
X133964057Y-114776883D01*
X133700808Y-115039673D01*
X133558162Y-115383201D01*
X133557838Y-115755167D01*
X133699883Y-116098943D01*
X133962673Y-116362192D01*
X134306201Y-116504838D01*
X134678167Y-116505162D01*
X134952860Y-116391661D01*
X134964838Y-116455317D01*
X135007138Y-116521053D01*
X134971569Y-116573110D01*
X134955092Y-116654474D01*
X134679799Y-116540162D01*
X134307833Y-116539838D01*
X133964057Y-116681883D01*
X133700808Y-116944673D01*
X133558162Y-117288201D01*
X133557838Y-117660167D01*
X133699883Y-118003943D01*
X133962673Y-118267192D01*
X134306201Y-118409838D01*
X134678167Y-118410162D01*
X134952860Y-118296661D01*
X134964838Y-118360317D01*
X135103910Y-118576441D01*
X135316110Y-118721431D01*
X135568000Y-118772440D01*
X137068000Y-118772440D01*
X137303317Y-118728162D01*
X137519441Y-118589090D01*
X137664431Y-118376890D01*
X137667081Y-118363803D01*
X137803910Y-118576441D01*
X138016110Y-118721431D01*
X138268000Y-118772440D01*
X139768000Y-118772440D01*
X140003317Y-118728162D01*
X140219441Y-118589090D01*
X140364431Y-118376890D01*
X140393164Y-118235000D01*
X141798198Y-118235000D01*
X144115599Y-120552401D01*
X144362160Y-120717148D01*
X144410414Y-120726746D01*
X144653000Y-120775000D01*
X156398968Y-120775000D01*
X158081369Y-122457401D01*
X158327931Y-122622148D01*
X158618770Y-122680000D01*
X160671903Y-122680000D01*
X160413474Y-123066766D01*
X160299400Y-123640255D01*
X160299400Y-124009745D01*
X160413474Y-124583234D01*
X160738330Y-125069415D01*
X161224511Y-125394271D01*
X161798000Y-125508345D01*
X162371489Y-125394271D01*
X162857670Y-125069415D01*
X163068000Y-124754634D01*
X163278330Y-125069415D01*
X163764511Y-125394271D01*
X164338000Y-125508345D01*
X164911489Y-125394271D01*
X165397670Y-125069415D01*
X165608000Y-124754634D01*
X165818330Y-125069415D01*
X166304511Y-125394271D01*
X166878000Y-125508345D01*
X167451489Y-125394271D01*
X167937670Y-125069415D01*
X168148000Y-124754634D01*
X168358330Y-125069415D01*
X168844511Y-125394271D01*
X169418000Y-125508345D01*
X169991489Y-125394271D01*
X170477670Y-125069415D01*
X170688000Y-124754634D01*
X170898330Y-125069415D01*
X171384511Y-125394271D01*
X171958000Y-125508345D01*
X172531489Y-125394271D01*
X173017670Y-125069415D01*
X173228000Y-124754634D01*
X173438330Y-125069415D01*
X173924511Y-125394271D01*
X174498000Y-125508345D01*
X175071489Y-125394271D01*
X175557670Y-125069415D01*
X175882526Y-124583234D01*
X175996600Y-124009745D01*
X175996600Y-123640255D01*
X175882526Y-123066766D01*
X175557670Y-122580585D01*
X175071489Y-122255729D01*
X174498000Y-122141655D01*
X173924511Y-122255729D01*
X173438330Y-122580585D01*
X173228000Y-122895366D01*
X173017670Y-122580585D01*
X172531489Y-122255729D01*
X171958000Y-122141655D01*
X171384511Y-122255729D01*
X170898330Y-122580585D01*
X170688000Y-122895366D01*
X170477670Y-122580585D01*
X169991489Y-122255729D01*
X169418000Y-122141655D01*
X169037536Y-122217334D01*
X167567801Y-120747599D01*
X167321239Y-120582852D01*
X167030400Y-120525000D01*
X162598633Y-120525000D01*
X162732838Y-120201799D01*
X162733162Y-119829833D01*
X162627690Y-119574570D01*
X162881201Y-119679838D01*
X163253167Y-119680162D01*
X163596943Y-119538117D01*
X163860192Y-119275327D01*
X164002838Y-118931799D01*
X164003162Y-118559833D01*
X163861117Y-118216057D01*
X163598327Y-117952808D01*
X163254799Y-117810162D01*
X162882833Y-117809838D01*
X162539057Y-117951883D01*
X162505882Y-117985000D01*
X157667802Y-117985000D01*
X157255401Y-117572599D01*
X157008839Y-117407852D01*
X156718000Y-117350000D01*
X146682802Y-117350000D01*
X140555401Y-111222599D01*
X140415440Y-111129080D01*
X140415440Y-111110000D01*
X140371162Y-110874683D01*
X140232090Y-110658559D01*
X140019890Y-110513569D01*
X139768000Y-110462560D01*
X138268000Y-110462560D01*
X138032683Y-110506838D01*
X137816559Y-110645910D01*
X137671569Y-110858110D01*
X137668919Y-110871197D01*
X137532090Y-110658559D01*
X137319890Y-110513569D01*
X137068000Y-110462560D01*
X135568000Y-110462560D01*
X135332683Y-110506838D01*
X135116559Y-110645910D01*
X134971569Y-110858110D01*
X134955092Y-110939474D01*
X134679799Y-110825162D01*
X134307833Y-110824838D01*
X133964057Y-110966883D01*
X133700808Y-111229673D01*
X133558162Y-111573201D01*
X133557838Y-111945167D01*
X111708000Y-111945167D01*
X111708000Y-109979187D01*
X124842752Y-109979187D01*
X125060757Y-110506800D01*
X125464077Y-110910824D01*
X125991309Y-111129750D01*
X126562187Y-111130248D01*
X127089800Y-110912243D01*
X127493824Y-110508923D01*
X127527813Y-110427069D01*
X127560757Y-110506800D01*
X127964077Y-110910824D01*
X128491309Y-111129750D01*
X129062187Y-111130248D01*
X129589800Y-110912243D01*
X129799663Y-110702745D01*
X130449861Y-110702745D01*
X130523995Y-110948864D01*
X131061223Y-111141965D01*
X131631454Y-111114778D01*
X132032005Y-110948864D01*
X132106139Y-110702745D01*
X131278000Y-109874605D01*
X130449861Y-110702745D01*
X129799663Y-110702745D01*
X129993824Y-110508923D01*
X130021423Y-110442456D01*
X130024136Y-110449005D01*
X130270255Y-110523139D01*
X131098395Y-109695000D01*
X131457605Y-109695000D01*
X132285745Y-110523139D01*
X132531864Y-110449005D01*
X132724965Y-109911777D01*
X132697778Y-109341546D01*
X132531864Y-108940995D01*
X132285745Y-108866861D01*
X131457605Y-109695000D01*
X131098395Y-109695000D01*
X130270255Y-108866861D01*
X130024136Y-108940995D01*
X130021804Y-108947483D01*
X129995243Y-108883200D01*
X129799640Y-108687255D01*
X130449861Y-108687255D01*
X131278000Y-109515395D01*
X132106139Y-108687255D01*
X132032005Y-108441136D01*
X131494777Y-108248035D01*
X130924546Y-108275222D01*
X130523995Y-108441136D01*
X130449861Y-108687255D01*
X129799640Y-108687255D01*
X129591923Y-108479176D01*
X129064691Y-108260250D01*
X128493813Y-108259752D01*
X127966200Y-108477757D01*
X127562176Y-108881077D01*
X127528187Y-108962931D01*
X127495243Y-108883200D01*
X127091923Y-108479176D01*
X126564691Y-108260250D01*
X125993813Y-108259752D01*
X125466200Y-108477757D01*
X125062176Y-108881077D01*
X124843250Y-109408309D01*
X124842752Y-109979187D01*
X111708000Y-109979187D01*
X111708000Y-107788599D01*
X120392699Y-107788599D01*
X120656281Y-108426515D01*
X121143918Y-108915004D01*
X121781373Y-109179699D01*
X122471599Y-109180301D01*
X123109515Y-108916719D01*
X123598004Y-108429082D01*
X123862699Y-107791627D01*
X123862701Y-107788599D01*
X133692699Y-107788599D01*
X133956281Y-108426515D01*
X134443918Y-108915004D01*
X135081373Y-109179699D01*
X135771599Y-109180301D01*
X136409515Y-108916719D01*
X136898004Y-108429082D01*
X137162699Y-107791627D01*
X137163301Y-107101401D01*
X136899719Y-106463485D01*
X136417826Y-105980750D01*
X146233000Y-105980750D01*
X146233000Y-109321310D01*
X146329673Y-109554699D01*
X146508302Y-109733327D01*
X146741691Y-109830000D01*
X150082250Y-109830000D01*
X150241000Y-109671250D01*
X150241000Y-105822000D01*
X150495000Y-105822000D01*
X150495000Y-109671250D01*
X150653750Y-109830000D01*
X153994309Y-109830000D01*
X154227698Y-109733327D01*
X154406327Y-109554699D01*
X154503000Y-109321310D01*
X154503000Y-105980750D01*
X154344250Y-105822000D01*
X150495000Y-105822000D01*
X150241000Y-105822000D01*
X146391750Y-105822000D01*
X146233000Y-105980750D01*
X136417826Y-105980750D01*
X136412082Y-105974996D01*
X135774627Y-105710301D01*
X135084401Y-105709699D01*
X134446485Y-105973281D01*
X133957996Y-106460918D01*
X133693301Y-107098373D01*
X133692699Y-107788599D01*
X123862701Y-107788599D01*
X123863301Y-107101401D01*
X123599719Y-106463485D01*
X123112082Y-105974996D01*
X122474627Y-105710301D01*
X121784401Y-105709699D01*
X121146485Y-105973281D01*
X120657996Y-106460918D01*
X120393301Y-107098373D01*
X120392699Y-107788599D01*
X111708000Y-107788599D01*
X111708000Y-103952745D01*
X115199861Y-103952745D01*
X115273995Y-104198864D01*
X115811223Y-104391965D01*
X116381454Y-104364778D01*
X116782005Y-104198864D01*
X116856139Y-103952745D01*
X116028000Y-103124605D01*
X115199861Y-103952745D01*
X111708000Y-103952745D01*
X111708000Y-102728223D01*
X114581035Y-102728223D01*
X114608222Y-103298454D01*
X114774136Y-103699005D01*
X115020255Y-103773139D01*
X115848395Y-102945000D01*
X116207605Y-102945000D01*
X117035745Y-103773139D01*
X117281864Y-103699005D01*
X117450735Y-103229187D01*
X119092752Y-103229187D01*
X119310757Y-103756800D01*
X119714077Y-104160824D01*
X120241309Y-104379750D01*
X120812187Y-104380248D01*
X121339800Y-104162243D01*
X121743824Y-103758923D01*
X121962750Y-103231691D01*
X121962775Y-103202745D01*
X137599861Y-103202745D01*
X137673995Y-103448864D01*
X138211223Y-103641965D01*
X138781454Y-103614778D01*
X139182005Y-103448864D01*
X139256139Y-103202745D01*
X138428000Y-102374605D01*
X137599861Y-103202745D01*
X121962775Y-103202745D01*
X121963248Y-102660813D01*
X121745243Y-102133200D01*
X121590537Y-101978223D01*
X136981035Y-101978223D01*
X137008222Y-102548454D01*
X137174136Y-102949005D01*
X137420255Y-103023139D01*
X138248395Y-102195000D01*
X138607605Y-102195000D01*
X139435745Y-103023139D01*
X139681864Y-102949005D01*
X139874965Y-102411777D01*
X139858608Y-102068690D01*
X146233000Y-102068690D01*
X146233000Y-105409250D01*
X146391750Y-105568000D01*
X150241000Y-105568000D01*
X150241000Y-101718750D01*
X150495000Y-101718750D01*
X150495000Y-105568000D01*
X154344250Y-105568000D01*
X154503000Y-105409250D01*
X154503000Y-102068690D01*
X154406327Y-101835301D01*
X154227698Y-101656673D01*
X153994309Y-101560000D01*
X150653750Y-101560000D01*
X150495000Y-101718750D01*
X150241000Y-101718750D01*
X150082250Y-101560000D01*
X146741691Y-101560000D01*
X146508302Y-101656673D01*
X146329673Y-101835301D01*
X146233000Y-102068690D01*
X139858608Y-102068690D01*
X139847778Y-101841546D01*
X139681864Y-101440995D01*
X139435745Y-101366861D01*
X138607605Y-102195000D01*
X138248395Y-102195000D01*
X137420255Y-101366861D01*
X137174136Y-101440995D01*
X136981035Y-101978223D01*
X121590537Y-101978223D01*
X121341923Y-101729176D01*
X120814691Y-101510250D01*
X120243813Y-101509752D01*
X119716200Y-101727757D01*
X119312176Y-102131077D01*
X119093250Y-102658309D01*
X119092752Y-103229187D01*
X117450735Y-103229187D01*
X117474965Y-103161777D01*
X117447778Y-102591546D01*
X117281864Y-102190995D01*
X117035745Y-102116861D01*
X116207605Y-102945000D01*
X115848395Y-102945000D01*
X115020255Y-102116861D01*
X114774136Y-102190995D01*
X114581035Y-102728223D01*
X111708000Y-102728223D01*
X111708000Y-101937255D01*
X115199861Y-101937255D01*
X116028000Y-102765395D01*
X116856139Y-101937255D01*
X116782005Y-101691136D01*
X116244777Y-101498035D01*
X115674546Y-101525222D01*
X115273995Y-101691136D01*
X115199861Y-101937255D01*
X111708000Y-101937255D01*
X111708000Y-97452745D01*
X115199861Y-97452745D01*
X115273995Y-97698864D01*
X115811223Y-97891965D01*
X116381454Y-97864778D01*
X116782005Y-97698864D01*
X116856139Y-97452745D01*
X116028000Y-96624605D01*
X115199861Y-97452745D01*
X111708000Y-97452745D01*
X111708000Y-96228223D01*
X114581035Y-96228223D01*
X114608222Y-96798454D01*
X114774136Y-97199005D01*
X115020255Y-97273139D01*
X115848395Y-96445000D01*
X116207605Y-96445000D01*
X117035745Y-97273139D01*
X117281864Y-97199005D01*
X117450735Y-96729187D01*
X119092752Y-96729187D01*
X119310757Y-97256800D01*
X119714077Y-97660824D01*
X120241309Y-97879750D01*
X120812187Y-97880248D01*
X121339800Y-97662243D01*
X121523175Y-97479187D01*
X136992752Y-97479187D01*
X137210757Y-98006800D01*
X137614077Y-98410824D01*
X137695931Y-98444813D01*
X137616200Y-98477757D01*
X137212176Y-98881077D01*
X136993250Y-99408309D01*
X136992752Y-99979187D01*
X137210757Y-100506800D01*
X137614077Y-100910824D01*
X137680544Y-100938423D01*
X137673995Y-100941136D01*
X137599861Y-101187255D01*
X138428000Y-102015395D01*
X139256139Y-101187255D01*
X139182005Y-100941136D01*
X139175517Y-100938804D01*
X139239800Y-100912243D01*
X139643824Y-100508923D01*
X139862750Y-99981691D01*
X139863248Y-99410813D01*
X139645243Y-98883200D01*
X139241923Y-98479176D01*
X139160069Y-98445187D01*
X139239800Y-98412243D01*
X139643824Y-98008923D01*
X139734728Y-97790000D01*
X144913000Y-97790000D01*
X144989882Y-98176510D01*
X145208822Y-98504178D01*
X145713822Y-99009178D01*
X146041490Y-99228118D01*
X146420560Y-99303520D01*
X146420560Y-100045000D01*
X146464838Y-100280317D01*
X146603910Y-100496441D01*
X146816110Y-100641431D01*
X147068000Y-100692440D01*
X149068000Y-100692440D01*
X149303317Y-100648162D01*
X149519441Y-100509090D01*
X149664431Y-100296890D01*
X149715440Y-100045000D01*
X149715440Y-96545000D01*
X151000560Y-96545000D01*
X151000560Y-100045000D01*
X151044838Y-100280317D01*
X151183910Y-100496441D01*
X151396110Y-100641431D01*
X151648000Y-100692440D01*
X153648000Y-100692440D01*
X153883317Y-100648162D01*
X154099441Y-100509090D01*
X154244431Y-100296890D01*
X154295440Y-100045000D01*
X154295440Y-99305000D01*
X154346993Y-99305000D01*
X154426490Y-99358118D01*
X154813000Y-99435000D01*
X155199510Y-99358118D01*
X155527178Y-99139178D01*
X155746118Y-98811510D01*
X155823000Y-98425000D01*
X157613000Y-98425000D01*
X157613000Y-111760000D01*
X157689882Y-112146510D01*
X157908822Y-112474178D01*
X158543822Y-113109178D01*
X158871490Y-113328118D01*
X159258000Y-113405000D01*
X165309850Y-113405000D01*
X165321455Y-113433086D01*
X165837199Y-113949730D01*
X166326451Y-114152885D01*
X165954631Y-114226845D01*
X165456641Y-114559591D01*
X165123895Y-115057581D01*
X165007050Y-115645000D01*
X165123895Y-116232419D01*
X165399573Y-116645000D01*
X165123895Y-117057581D01*
X165007050Y-117645000D01*
X165123895Y-118232419D01*
X165456641Y-118730409D01*
X165954631Y-119063155D01*
X166542050Y-119180000D01*
X167213950Y-119180000D01*
X167801369Y-119063155D01*
X168299359Y-118730409D01*
X168632105Y-118232419D01*
X168748950Y-117645000D01*
X168632105Y-117057581D01*
X168356427Y-116645000D01*
X168632105Y-116232419D01*
X168748950Y-115645000D01*
X168632105Y-115057581D01*
X168299359Y-114559591D01*
X167801369Y-114226845D01*
X167429046Y-114152785D01*
X167916086Y-113951545D01*
X168432730Y-113435801D01*
X168712681Y-112761605D01*
X168713318Y-112031597D01*
X168434545Y-111356914D01*
X167918801Y-110840270D01*
X167244605Y-110560319D01*
X166514597Y-110559682D01*
X165839914Y-110838455D01*
X165323270Y-111354199D01*
X165310480Y-111385000D01*
X159676356Y-111385000D01*
X159633000Y-111341644D01*
X159633000Y-98425000D01*
X159582477Y-98171000D01*
X162566000Y-98171000D01*
X162566000Y-101092000D01*
X162642882Y-101478510D01*
X162861822Y-101806178D01*
X164044822Y-102989178D01*
X164372490Y-103208118D01*
X164759000Y-103285000D01*
X165309850Y-103285000D01*
X165321455Y-103313086D01*
X165837199Y-103829730D01*
X166326451Y-104032885D01*
X165954631Y-104106845D01*
X165456641Y-104439591D01*
X165123895Y-104937581D01*
X165007050Y-105525000D01*
X165123895Y-106112419D01*
X165399573Y-106525000D01*
X165123895Y-106937581D01*
X165007050Y-107525000D01*
X165123895Y-108112419D01*
X165456641Y-108610409D01*
X165954631Y-108943155D01*
X166542050Y-109060000D01*
X167213950Y-109060000D01*
X167801369Y-108943155D01*
X168299359Y-108610409D01*
X168632105Y-108112419D01*
X168748950Y-107525000D01*
X168632105Y-106937581D01*
X168356427Y-106525000D01*
X168632105Y-106112419D01*
X168748950Y-105525000D01*
X168632105Y-104937581D01*
X168299359Y-104439591D01*
X167801369Y-104106845D01*
X167429046Y-104032785D01*
X167916086Y-103831545D01*
X168432730Y-103315801D01*
X168712681Y-102641605D01*
X168713318Y-101911597D01*
X168434545Y-101236914D01*
X167918801Y-100720270D01*
X167244605Y-100440319D01*
X166514597Y-100439682D01*
X165839914Y-100718455D01*
X165323270Y-101234199D01*
X165310480Y-101265000D01*
X165177356Y-101265000D01*
X164586000Y-100673644D01*
X164586000Y-98171000D01*
X164509118Y-97784490D01*
X164290178Y-97456822D01*
X163962510Y-97237882D01*
X163576000Y-97161000D01*
X163189490Y-97237882D01*
X162861822Y-97456822D01*
X162642882Y-97784490D01*
X162566000Y-98171000D01*
X159582477Y-98171000D01*
X159556118Y-98038490D01*
X159337178Y-97710822D01*
X159009510Y-97491882D01*
X158623000Y-97415000D01*
X158236490Y-97491882D01*
X157908822Y-97710822D01*
X157689882Y-98038490D01*
X157613000Y-98425000D01*
X155823000Y-98425000D01*
X155746118Y-98038490D01*
X155527178Y-97710822D01*
X155397178Y-97580822D01*
X155069510Y-97361882D01*
X154683000Y-97285000D01*
X154295440Y-97285000D01*
X154295440Y-96545000D01*
X154251162Y-96309683D01*
X154112090Y-96093559D01*
X153899890Y-95948569D01*
X153648000Y-95897560D01*
X151648000Y-95897560D01*
X151412683Y-95941838D01*
X151196559Y-96080910D01*
X151051569Y-96293110D01*
X151000560Y-96545000D01*
X149715440Y-96545000D01*
X149671162Y-96309683D01*
X149532090Y-96093559D01*
X149319890Y-95948569D01*
X149068000Y-95897560D01*
X147068000Y-95897560D01*
X146832683Y-95941838D01*
X146616559Y-96080910D01*
X146471569Y-96293110D01*
X146420560Y-96545000D01*
X146420560Y-96931083D01*
X146309510Y-96856882D01*
X145923000Y-96780000D01*
X145536490Y-96856882D01*
X145208822Y-97075822D01*
X144989882Y-97403490D01*
X144913000Y-97790000D01*
X139734728Y-97790000D01*
X139862750Y-97481691D01*
X139863248Y-96910813D01*
X139645243Y-96383200D01*
X139241923Y-95979176D01*
X138714691Y-95760250D01*
X138143813Y-95759752D01*
X137616200Y-95977757D01*
X137212176Y-96381077D01*
X136993250Y-96908309D01*
X136992752Y-97479187D01*
X121523175Y-97479187D01*
X121743824Y-97258923D01*
X121962750Y-96731691D01*
X121963248Y-96160813D01*
X121745243Y-95633200D01*
X121341923Y-95229176D01*
X120814691Y-95010250D01*
X120243813Y-95009752D01*
X119716200Y-95227757D01*
X119312176Y-95631077D01*
X119093250Y-96158309D01*
X119092752Y-96729187D01*
X117450735Y-96729187D01*
X117474965Y-96661777D01*
X117447778Y-96091546D01*
X117281864Y-95690995D01*
X117035745Y-95616861D01*
X116207605Y-96445000D01*
X115848395Y-96445000D01*
X115020255Y-95616861D01*
X114774136Y-95690995D01*
X114581035Y-96228223D01*
X111708000Y-96228223D01*
X111708000Y-95437255D01*
X115199861Y-95437255D01*
X116028000Y-96265395D01*
X116856139Y-95437255D01*
X116782005Y-95191136D01*
X116244777Y-94998035D01*
X115674546Y-95025222D01*
X115273995Y-95191136D01*
X115199861Y-95437255D01*
X111708000Y-95437255D01*
X111708000Y-94742000D01*
X121158000Y-94742000D01*
X121207410Y-94731994D01*
X121249035Y-94703553D01*
X121276315Y-94661159D01*
X121285000Y-94615000D01*
X121285000Y-93473586D01*
X121781373Y-93679699D01*
X122471599Y-93680301D01*
X123109515Y-93416719D01*
X123598004Y-92929082D01*
X123862699Y-92291627D01*
X123862701Y-92288599D01*
X133692699Y-92288599D01*
X133956281Y-92926515D01*
X134443918Y-93415004D01*
X135081373Y-93679699D01*
X135771599Y-93680301D01*
X136409515Y-93416719D01*
X136755921Y-93070917D01*
X163785234Y-93070917D01*
X164062101Y-93740986D01*
X164574317Y-94254097D01*
X164678271Y-94297262D01*
X164577014Y-94339101D01*
X164063903Y-94851317D01*
X163785867Y-95520902D01*
X163785234Y-96245917D01*
X164062101Y-96915986D01*
X164574317Y-97429097D01*
X165243902Y-97707133D01*
X165968917Y-97707766D01*
X166638986Y-97430899D01*
X167152097Y-96918683D01*
X167278619Y-96613983D01*
X167506900Y-96842663D01*
X167922183Y-97015103D01*
X168371844Y-97015496D01*
X168787427Y-96843781D01*
X169017407Y-96614203D01*
X169142101Y-96915986D01*
X169654317Y-97429097D01*
X170323902Y-97707133D01*
X171048917Y-97707766D01*
X171718986Y-97430899D01*
X172232097Y-96918683D01*
X172510133Y-96249098D01*
X172510766Y-95524083D01*
X172233899Y-94854014D01*
X171721683Y-94340903D01*
X171617729Y-94297738D01*
X171718986Y-94255899D01*
X172232097Y-93743683D01*
X172510133Y-93074098D01*
X172510766Y-92349083D01*
X172233899Y-91679014D01*
X171721683Y-91165903D01*
X171052098Y-90887867D01*
X170327083Y-90887234D01*
X170294217Y-90900814D01*
X170294496Y-90581156D01*
X170122781Y-90165573D01*
X169805100Y-89847337D01*
X169389817Y-89674897D01*
X168940156Y-89674504D01*
X168524573Y-89846219D01*
X168206337Y-90163900D01*
X168148070Y-90304223D01*
X168090781Y-90165573D01*
X167773100Y-89847337D01*
X167357817Y-89674897D01*
X166908156Y-89674504D01*
X166492573Y-89846219D01*
X166174337Y-90163900D01*
X166001897Y-90579183D01*
X166001617Y-90900124D01*
X165972098Y-90887867D01*
X165247083Y-90887234D01*
X164577014Y-91164101D01*
X164063903Y-91676317D01*
X163785867Y-92345902D01*
X163785234Y-93070917D01*
X136755921Y-93070917D01*
X136898004Y-92929082D01*
X137162699Y-92291627D01*
X137163301Y-91601401D01*
X136899719Y-90963485D01*
X136412082Y-90474996D01*
X135774627Y-90210301D01*
X135084401Y-90209699D01*
X134446485Y-90473281D01*
X133957996Y-90960918D01*
X133693301Y-91598373D01*
X133692699Y-92288599D01*
X123862701Y-92288599D01*
X123863301Y-91601401D01*
X123599719Y-90963485D01*
X123112082Y-90474996D01*
X122474627Y-90210301D01*
X121784401Y-90209699D01*
X121285000Y-90416048D01*
X121285000Y-86716890D01*
X139401524Y-86716890D01*
X139571355Y-87126924D01*
X139961642Y-87555183D01*
X140486108Y-87801486D01*
X140716000Y-87680819D01*
X140716000Y-86487000D01*
X140970000Y-86487000D01*
X140970000Y-87680819D01*
X141199892Y-87801486D01*
X141724358Y-87555183D01*
X142114645Y-87126924D01*
X142284476Y-86716890D01*
X142163155Y-86487000D01*
X140970000Y-86487000D01*
X140716000Y-86487000D01*
X139522845Y-86487000D01*
X139401524Y-86716890D01*
X121285000Y-86716890D01*
X121285000Y-83820000D01*
X139328907Y-83820000D01*
X139441946Y-84388285D01*
X139763853Y-84870054D01*
X140104553Y-85097702D01*
X139961642Y-85164817D01*
X139571355Y-85593076D01*
X139401524Y-86003110D01*
X139522845Y-86233000D01*
X140716000Y-86233000D01*
X140716000Y-86213000D01*
X140970000Y-86213000D01*
X140970000Y-86233000D01*
X142163155Y-86233000D01*
X142284476Y-86003110D01*
X142114645Y-85593076D01*
X141981421Y-85446890D01*
X162896524Y-85446890D01*
X163066355Y-85856924D01*
X163456642Y-86285183D01*
X163981108Y-86531486D01*
X164211000Y-86410819D01*
X164211000Y-85217000D01*
X164465000Y-85217000D01*
X164465000Y-86410819D01*
X164694892Y-86531486D01*
X165219358Y-86285183D01*
X165608000Y-85858729D01*
X165996642Y-86285183D01*
X166521108Y-86531486D01*
X166751000Y-86410819D01*
X166751000Y-85217000D01*
X167005000Y-85217000D01*
X167005000Y-86410819D01*
X167234892Y-86531486D01*
X167759358Y-86285183D01*
X168148000Y-85858729D01*
X168536642Y-86285183D01*
X169061108Y-86531486D01*
X169291000Y-86410819D01*
X169291000Y-85217000D01*
X169545000Y-85217000D01*
X169545000Y-86410819D01*
X169774892Y-86531486D01*
X170299358Y-86285183D01*
X170689645Y-85856924D01*
X170859476Y-85446890D01*
X170738155Y-85217000D01*
X169545000Y-85217000D01*
X169291000Y-85217000D01*
X167005000Y-85217000D01*
X166751000Y-85217000D01*
X164465000Y-85217000D01*
X164211000Y-85217000D01*
X163017845Y-85217000D01*
X162896524Y-85446890D01*
X141981421Y-85446890D01*
X141724358Y-85164817D01*
X141581447Y-85097702D01*
X141922147Y-84870054D01*
X142244054Y-84388285D01*
X142357093Y-83820000D01*
X142244054Y-83251715D01*
X141922147Y-82769946D01*
X141880548Y-82742150D01*
X141928317Y-82733162D01*
X142144441Y-82594090D01*
X142174566Y-82550000D01*
X162823907Y-82550000D01*
X162936946Y-83118285D01*
X163258853Y-83600054D01*
X163599553Y-83827702D01*
X163456642Y-83894817D01*
X163066355Y-84323076D01*
X162896524Y-84733110D01*
X163017845Y-84963000D01*
X164211000Y-84963000D01*
X164211000Y-84943000D01*
X164465000Y-84943000D01*
X164465000Y-84963000D01*
X166751000Y-84963000D01*
X166751000Y-84943000D01*
X167005000Y-84943000D01*
X167005000Y-84963000D01*
X169291000Y-84963000D01*
X169291000Y-84943000D01*
X169545000Y-84943000D01*
X169545000Y-84963000D01*
X170738155Y-84963000D01*
X170859476Y-84733110D01*
X170689645Y-84323076D01*
X170299358Y-83894817D01*
X170156447Y-83827702D01*
X170497147Y-83600054D01*
X170523910Y-83560000D01*
X173863018Y-83560000D01*
X174249528Y-83483118D01*
X174577196Y-83264178D01*
X174796136Y-82936510D01*
X174873018Y-82550000D01*
X174796136Y-82163490D01*
X174577196Y-81835822D01*
X174249528Y-81616882D01*
X173863018Y-81540000D01*
X170523910Y-81540000D01*
X170497147Y-81499946D01*
X170455548Y-81472150D01*
X170503317Y-81463162D01*
X170719441Y-81324090D01*
X170864431Y-81111890D01*
X170915440Y-80860000D01*
X170915440Y-79160000D01*
X170871162Y-78924683D01*
X170732090Y-78708559D01*
X170519890Y-78563569D01*
X170268000Y-78512560D01*
X168568000Y-78512560D01*
X168332683Y-78556838D01*
X168145923Y-78677015D01*
X167979890Y-78563569D01*
X167728000Y-78512560D01*
X166028000Y-78512560D01*
X165792683Y-78556838D01*
X165605923Y-78677015D01*
X165439890Y-78563569D01*
X165188000Y-78512560D01*
X163488000Y-78512560D01*
X163252683Y-78556838D01*
X163036559Y-78695910D01*
X162891569Y-78908110D01*
X162840560Y-79160000D01*
X162840560Y-80860000D01*
X162884838Y-81095317D01*
X163023910Y-81311441D01*
X163236110Y-81456431D01*
X163303541Y-81470086D01*
X163258853Y-81499946D01*
X162936946Y-81981715D01*
X162823907Y-82550000D01*
X142174566Y-82550000D01*
X142289431Y-82381890D01*
X142340440Y-82130000D01*
X142340440Y-80430000D01*
X142296162Y-80194683D01*
X142157090Y-79978559D01*
X141944890Y-79833569D01*
X141693000Y-79782560D01*
X139993000Y-79782560D01*
X139757683Y-79826838D01*
X139541559Y-79965910D01*
X139396569Y-80178110D01*
X139345560Y-80430000D01*
X139345560Y-82130000D01*
X139389838Y-82365317D01*
X139528910Y-82581441D01*
X139741110Y-82726431D01*
X139808541Y-82740086D01*
X139763853Y-82769946D01*
X139441946Y-83251715D01*
X139328907Y-83820000D01*
X121285000Y-83820000D01*
X121285000Y-81915000D01*
X121274994Y-81865590D01*
X121246553Y-81823965D01*
X121204159Y-81796685D01*
X121158000Y-81788000D01*
X111708000Y-81788000D01*
X111708000Y-74715000D01*
X113310560Y-74715000D01*
X113310560Y-76415000D01*
X113354838Y-76650317D01*
X113493910Y-76866441D01*
X113706110Y-77011431D01*
X113958000Y-77062440D01*
X115658000Y-77062440D01*
X115893317Y-77018162D01*
X116109441Y-76879090D01*
X116254431Y-76666890D01*
X116268086Y-76599459D01*
X116297946Y-76644147D01*
X116779715Y-76966054D01*
X117348000Y-77079093D01*
X117916285Y-76966054D01*
X118398054Y-76644147D01*
X118618000Y-76314974D01*
X118837946Y-76644147D01*
X119319715Y-76966054D01*
X119888000Y-77079093D01*
X120456285Y-76966054D01*
X120938054Y-76644147D01*
X121165702Y-76303447D01*
X121232817Y-76446358D01*
X121661076Y-76836645D01*
X122071110Y-77006476D01*
X122301000Y-76885155D01*
X122301000Y-75692000D01*
X122555000Y-75692000D01*
X122555000Y-76885155D01*
X122784890Y-77006476D01*
X123194924Y-76836645D01*
X123623183Y-76446358D01*
X123869486Y-75921892D01*
X123748819Y-75692000D01*
X122555000Y-75692000D01*
X122301000Y-75692000D01*
X122281000Y-75692000D01*
X122281000Y-75438000D01*
X122301000Y-75438000D01*
X122301000Y-74244845D01*
X122555000Y-74244845D01*
X122555000Y-75438000D01*
X123748819Y-75438000D01*
X123869486Y-75208108D01*
X123623183Y-74683642D01*
X123194924Y-74293355D01*
X122784890Y-74123524D01*
X122555000Y-74244845D01*
X122301000Y-74244845D01*
X122071110Y-74123524D01*
X121661076Y-74293355D01*
X121232817Y-74683642D01*
X121165702Y-74826553D01*
X120938054Y-74485853D01*
X120456285Y-74163946D01*
X119888000Y-74050907D01*
X119319715Y-74163946D01*
X118837946Y-74485853D01*
X118618000Y-74815026D01*
X118398054Y-74485853D01*
X117916285Y-74163946D01*
X117348000Y-74050907D01*
X116779715Y-74163946D01*
X116297946Y-74485853D01*
X116270150Y-74527452D01*
X116261162Y-74479683D01*
X116122090Y-74263559D01*
X115909890Y-74118569D01*
X115658000Y-74067560D01*
X113958000Y-74067560D01*
X113722683Y-74111838D01*
X113506559Y-74250910D01*
X113361569Y-74463110D01*
X113310560Y-74715000D01*
X111708000Y-74715000D01*
X111708000Y-73735000D01*
X124925361Y-73735000D01*
X124354955Y-74304411D01*
M02*
