G04 #@! TF.FileFunction,Legend,Top*
%FSLAX46Y46*%
G04 Gerber Fmt 4.6, Leading zero omitted, Abs format (unit mm)*
G04 Created by KiCad (PCBNEW 4.0.7-e2-6376~58~ubuntu16.04.1) date Tue Sep  5 18:57:24 2017*
%MOMM*%
%LPD*%
G01*
G04 APERTURE LIST*
%ADD10C,0.100000*%
%ADD11C,0.150000*%
%ADD12C,0.200000*%
%ADD13C,0.300000*%
%ADD14C,0.120000*%
%ADD15C,0.002540*%
%ADD16C,0.127000*%
%ADD17R,1.600000X2.600000*%
%ADD18R,1.000000X1.600000*%
%ADD19R,1.300000X1.500000*%
%ADD20R,1.500000X1.300000*%
%ADD21R,0.700000X1.000000*%
%ADD22O,1.727200X2.032000*%
%ADD23R,1.700000X1.700000*%
%ADD24O,1.700000X1.700000*%
%ADD25R,1.800860X3.500120*%
%ADD26R,1.250000X1.500000*%
%ADD27R,1.500000X1.250000*%
%ADD28C,1.600000*%
%ADD29C,3.175000*%
%ADD30C,2.400000*%
%ADD31R,2.400000X2.400000*%
%ADD32R,1.200000X1.200000*%
%ADD33R,1.600000X1.600000*%
%ADD34R,1.200000X0.200000*%
G04 APERTURE END LIST*
D10*
D11*
X135763000Y-78740000D02*
G75*
G03X135763000Y-81280000I0J-1270000D01*
G01*
X158623000Y-81280000D02*
G75*
G03X158623000Y-78740000I0J1270000D01*
G01*
X158623000Y-81280000D02*
X135763000Y-81280000D01*
X135763000Y-78740000D02*
X158623000Y-78740000D01*
D10*
X135105714Y-126071286D02*
X135077143Y-126099857D01*
X134991429Y-126128429D01*
X134934286Y-126128429D01*
X134848571Y-126099857D01*
X134791429Y-126042714D01*
X134762857Y-125985571D01*
X134734286Y-125871286D01*
X134734286Y-125785571D01*
X134762857Y-125671286D01*
X134791429Y-125614143D01*
X134848571Y-125557000D01*
X134934286Y-125528429D01*
X134991429Y-125528429D01*
X135077143Y-125557000D01*
X135105714Y-125585571D01*
X135362857Y-125528429D02*
X135362857Y-126014143D01*
X135391429Y-126071286D01*
X135420000Y-126099857D01*
X135477143Y-126128429D01*
X135591429Y-126128429D01*
X135648571Y-126099857D01*
X135677143Y-126071286D01*
X135705714Y-126014143D01*
X135705714Y-125528429D01*
X135905714Y-125528429D02*
X136248571Y-125528429D01*
X136077142Y-126128429D02*
X136077142Y-125528429D01*
X136820000Y-125528429D02*
X137162857Y-125528429D01*
X136991428Y-126128429D02*
X136991428Y-125528429D01*
X137705714Y-126128429D02*
X137505714Y-125842714D01*
X137362857Y-126128429D02*
X137362857Y-125528429D01*
X137591429Y-125528429D01*
X137648571Y-125557000D01*
X137677143Y-125585571D01*
X137705714Y-125642714D01*
X137705714Y-125728429D01*
X137677143Y-125785571D01*
X137648571Y-125814143D01*
X137591429Y-125842714D01*
X137362857Y-125842714D01*
X137934286Y-125957000D02*
X138220000Y-125957000D01*
X137877143Y-126128429D02*
X138077143Y-125528429D01*
X138277143Y-126128429D01*
X138820000Y-126071286D02*
X138791429Y-126099857D01*
X138705715Y-126128429D01*
X138648572Y-126128429D01*
X138562857Y-126099857D01*
X138505715Y-126042714D01*
X138477143Y-125985571D01*
X138448572Y-125871286D01*
X138448572Y-125785571D01*
X138477143Y-125671286D01*
X138505715Y-125614143D01*
X138562857Y-125557000D01*
X138648572Y-125528429D01*
X138705715Y-125528429D01*
X138791429Y-125557000D01*
X138820000Y-125585571D01*
X139077143Y-126128429D02*
X139077143Y-125528429D01*
X139420000Y-126128429D02*
X139162857Y-125785571D01*
X139420000Y-125528429D02*
X139077143Y-125871286D01*
X140134286Y-126128429D02*
X140134286Y-125528429D01*
X140620000Y-125814143D02*
X140420000Y-125814143D01*
X140420000Y-126128429D02*
X140420000Y-125528429D01*
X140705714Y-125528429D01*
X141391429Y-125528429D02*
X141391429Y-126014143D01*
X141420001Y-126071286D01*
X141448572Y-126099857D01*
X141505715Y-126128429D01*
X141620001Y-126128429D01*
X141677143Y-126099857D01*
X141705715Y-126071286D01*
X141734286Y-126014143D01*
X141734286Y-125528429D01*
X141991429Y-126099857D02*
X142077143Y-126128429D01*
X142220000Y-126128429D01*
X142277143Y-126099857D01*
X142305714Y-126071286D01*
X142334286Y-126014143D01*
X142334286Y-125957000D01*
X142305714Y-125899857D01*
X142277143Y-125871286D01*
X142220000Y-125842714D01*
X142105714Y-125814143D01*
X142048572Y-125785571D01*
X142020000Y-125757000D01*
X141991429Y-125699857D01*
X141991429Y-125642714D01*
X142020000Y-125585571D01*
X142048572Y-125557000D01*
X142105714Y-125528429D01*
X142248572Y-125528429D01*
X142334286Y-125557000D01*
X142591429Y-126128429D02*
X142591429Y-125528429D01*
X142877143Y-126128429D02*
X142877143Y-125528429D01*
X143220000Y-126128429D01*
X143220000Y-125528429D01*
X143820000Y-125557000D02*
X143762857Y-125528429D01*
X143677143Y-125528429D01*
X143591428Y-125557000D01*
X143534286Y-125614143D01*
X143505714Y-125671286D01*
X143477143Y-125785571D01*
X143477143Y-125871286D01*
X143505714Y-125985571D01*
X143534286Y-126042714D01*
X143591428Y-126099857D01*
X143677143Y-126128429D01*
X143734286Y-126128429D01*
X143820000Y-126099857D01*
X143848571Y-126071286D01*
X143848571Y-125871286D01*
X143734286Y-125871286D01*
X144905714Y-126128429D02*
X144705714Y-125842714D01*
X144562857Y-126128429D02*
X144562857Y-125528429D01*
X144791429Y-125528429D01*
X144848571Y-125557000D01*
X144877143Y-125585571D01*
X144905714Y-125642714D01*
X144905714Y-125728429D01*
X144877143Y-125785571D01*
X144848571Y-125814143D01*
X144791429Y-125842714D01*
X144562857Y-125842714D01*
X145077143Y-125528429D02*
X145277143Y-126128429D01*
X145477143Y-125528429D01*
X145991429Y-126128429D02*
X145648572Y-126128429D01*
X145820000Y-126128429D02*
X145820000Y-125528429D01*
X145762857Y-125614143D01*
X145705715Y-125671286D01*
X145648572Y-125699857D01*
D11*
X134620000Y-124333000D02*
X134620000Y-124079000D01*
X134366000Y-124079000D02*
X134366000Y-124333000D01*
X134747000Y-124333000D02*
X134493000Y-123825000D01*
X134239000Y-124333000D02*
X134747000Y-124333000D01*
X134493000Y-123825000D02*
X134239000Y-124333000D01*
X134493000Y-123825000D02*
X134493000Y-126365000D01*
X127234905Y-81051428D02*
X127234905Y-81508571D01*
X127234905Y-81280000D02*
X126434905Y-81280000D01*
X126549190Y-81356190D01*
X126625381Y-81432381D01*
X126663476Y-81508571D01*
X172313572Y-81006905D02*
X171856429Y-81006905D01*
X172085000Y-81006905D02*
X172085000Y-80206905D01*
X172008810Y-80321190D01*
X171932619Y-80397381D01*
X171856429Y-80435476D01*
D12*
X172029429Y-94543571D02*
X172172286Y-94591190D01*
X172219905Y-94638810D01*
X172267524Y-94734048D01*
X172267524Y-94876905D01*
X172219905Y-94972143D01*
X172172286Y-95019762D01*
X172077048Y-95067381D01*
X171696095Y-95067381D01*
X171696095Y-94067381D01*
X172029429Y-94067381D01*
X172124667Y-94115000D01*
X172172286Y-94162619D01*
X172219905Y-94257857D01*
X172219905Y-94353095D01*
X172172286Y-94448333D01*
X172124667Y-94495952D01*
X172029429Y-94543571D01*
X171696095Y-94543571D01*
X172267524Y-92527381D02*
X171934190Y-92051190D01*
X171696095Y-92527381D02*
X171696095Y-91527381D01*
X172077048Y-91527381D01*
X172172286Y-91575000D01*
X172219905Y-91622619D01*
X172267524Y-91717857D01*
X172267524Y-91860714D01*
X172219905Y-91955952D01*
X172172286Y-92003571D01*
X172077048Y-92051190D01*
X171696095Y-92051190D01*
X171529429Y-88987381D02*
X171767524Y-89987381D01*
X171958001Y-89273095D01*
X172148477Y-89987381D01*
X172386572Y-88987381D01*
X164528477Y-86447381D02*
X164338000Y-86447381D01*
X164242762Y-86495000D01*
X164195143Y-86542619D01*
X164099905Y-86685476D01*
X164052286Y-86875952D01*
X164052286Y-87256905D01*
X164099905Y-87352143D01*
X164147524Y-87399762D01*
X164242762Y-87447381D01*
X164433239Y-87447381D01*
X164528477Y-87399762D01*
X164576096Y-87352143D01*
X164623715Y-87256905D01*
X164623715Y-87018810D01*
X164576096Y-86923571D01*
X164528477Y-86875952D01*
X164433239Y-86828333D01*
X164242762Y-86828333D01*
X164147524Y-86875952D01*
X164099905Y-86923571D01*
X164052286Y-87018810D01*
X167116096Y-86447381D02*
X166639905Y-86447381D01*
X166592286Y-86923571D01*
X166639905Y-86875952D01*
X166735143Y-86828333D01*
X166973239Y-86828333D01*
X167068477Y-86875952D01*
X167116096Y-86923571D01*
X167163715Y-87018810D01*
X167163715Y-87256905D01*
X167116096Y-87352143D01*
X167068477Y-87399762D01*
X166973239Y-87447381D01*
X166735143Y-87447381D01*
X166639905Y-87399762D01*
X166592286Y-87352143D01*
X169084667Y-86447381D02*
X169703715Y-86447381D01*
X169370381Y-86828333D01*
X169513239Y-86828333D01*
X169608477Y-86875952D01*
X169656096Y-86923571D01*
X169703715Y-87018810D01*
X169703715Y-87256905D01*
X169656096Y-87352143D01*
X169608477Y-87399762D01*
X169513239Y-87447381D01*
X169227524Y-87447381D01*
X169132286Y-87399762D01*
X169084667Y-87352143D01*
D10*
X128968476Y-86086905D02*
X128968476Y-85286905D01*
X129158952Y-85286905D01*
X129273238Y-85325000D01*
X129349429Y-85401190D01*
X129387524Y-85477381D01*
X129425619Y-85629762D01*
X129425619Y-85744048D01*
X129387524Y-85896429D01*
X129349429Y-85972619D01*
X129273238Y-86048810D01*
X129158952Y-86086905D01*
X128968476Y-86086905D01*
X129920857Y-85286905D02*
X130073238Y-85286905D01*
X130149429Y-85325000D01*
X130225619Y-85401190D01*
X130263714Y-85553571D01*
X130263714Y-85820238D01*
X130225619Y-85972619D01*
X130149429Y-86048810D01*
X130073238Y-86086905D01*
X129920857Y-86086905D01*
X129844667Y-86048810D01*
X129768476Y-85972619D01*
X129730381Y-85820238D01*
X129730381Y-85553571D01*
X129768476Y-85401190D01*
X129844667Y-85325000D01*
X129920857Y-85286905D01*
X129387524Y-87865000D02*
X129311333Y-87826905D01*
X129197048Y-87826905D01*
X129082762Y-87865000D01*
X129006571Y-87941190D01*
X128968476Y-88017381D01*
X128930381Y-88169762D01*
X128930381Y-88284048D01*
X128968476Y-88436429D01*
X129006571Y-88512619D01*
X129082762Y-88588810D01*
X129197048Y-88626905D01*
X129273238Y-88626905D01*
X129387524Y-88588810D01*
X129425619Y-88550714D01*
X129425619Y-88284048D01*
X129273238Y-88284048D01*
X129768476Y-88626905D02*
X129768476Y-87826905D01*
X130225619Y-88626905D01*
X130225619Y-87826905D01*
X130606571Y-88626905D02*
X130606571Y-87826905D01*
X130797047Y-87826905D01*
X130911333Y-87865000D01*
X130987524Y-87941190D01*
X131025619Y-88017381D01*
X131063714Y-88169762D01*
X131063714Y-88284048D01*
X131025619Y-88436429D01*
X130987524Y-88512619D01*
X130911333Y-88588810D01*
X130797047Y-88626905D01*
X130606571Y-88626905D01*
X128968476Y-83242143D02*
X129578000Y-83242143D01*
X129273238Y-83546905D02*
X129273238Y-82937381D01*
X130339905Y-82746905D02*
X129958952Y-82746905D01*
X129920857Y-83127857D01*
X129958952Y-83089762D01*
X130035143Y-83051667D01*
X130225619Y-83051667D01*
X130301809Y-83089762D01*
X130339905Y-83127857D01*
X130378000Y-83204048D01*
X130378000Y-83394524D01*
X130339905Y-83470714D01*
X130301809Y-83508810D01*
X130225619Y-83546905D01*
X130035143Y-83546905D01*
X129958952Y-83508810D01*
X129920857Y-83470714D01*
X130606571Y-82746905D02*
X130873238Y-83546905D01*
X131139905Y-82746905D01*
X122828000Y-78130477D02*
X122866095Y-78054286D01*
X122866095Y-77940001D01*
X122828000Y-77825715D01*
X122751810Y-77749524D01*
X122675619Y-77711429D01*
X122523238Y-77673334D01*
X122408952Y-77673334D01*
X122256571Y-77711429D01*
X122180381Y-77749524D01*
X122104190Y-77825715D01*
X122066095Y-77940001D01*
X122066095Y-78016191D01*
X122104190Y-78130477D01*
X122142286Y-78168572D01*
X122408952Y-78168572D01*
X122408952Y-78016191D01*
X122066095Y-78511429D02*
X122866095Y-78511429D01*
X122066095Y-78968572D01*
X122866095Y-78968572D01*
X122066095Y-79349524D02*
X122866095Y-79349524D01*
X122866095Y-79540000D01*
X122828000Y-79654286D01*
X122751810Y-79730477D01*
X122675619Y-79768572D01*
X122523238Y-79806667D01*
X122408952Y-79806667D01*
X122256571Y-79768572D01*
X122180381Y-79730477D01*
X122104190Y-79654286D01*
X122066095Y-79540000D01*
X122066095Y-79349524D01*
X114750857Y-77711429D02*
X114750857Y-78320953D01*
X114446095Y-78016191D02*
X115055619Y-78016191D01*
X115246095Y-79082858D02*
X115246095Y-78701905D01*
X114865143Y-78663810D01*
X114903238Y-78701905D01*
X114941333Y-78778096D01*
X114941333Y-78968572D01*
X114903238Y-79044762D01*
X114865143Y-79082858D01*
X114788952Y-79120953D01*
X114598476Y-79120953D01*
X114522286Y-79082858D01*
X114484190Y-79044762D01*
X114446095Y-78968572D01*
X114446095Y-78778096D01*
X114484190Y-78701905D01*
X114522286Y-78663810D01*
X115246095Y-79349524D02*
X114446095Y-79616191D01*
X115246095Y-79882858D01*
X119564190Y-77768572D02*
X119526095Y-77882858D01*
X119526095Y-78073334D01*
X119564190Y-78149524D01*
X119602286Y-78187620D01*
X119678476Y-78225715D01*
X119754667Y-78225715D01*
X119830857Y-78187620D01*
X119868952Y-78149524D01*
X119907048Y-78073334D01*
X119945143Y-77920953D01*
X119983238Y-77844762D01*
X120021333Y-77806667D01*
X120097524Y-77768572D01*
X120173714Y-77768572D01*
X120249905Y-77806667D01*
X120288000Y-77844762D01*
X120326095Y-77920953D01*
X120326095Y-78111429D01*
X120288000Y-78225715D01*
X119526095Y-78568572D02*
X120326095Y-78568572D01*
X120326095Y-78759048D01*
X120288000Y-78873334D01*
X120211810Y-78949525D01*
X120135619Y-78987620D01*
X119983238Y-79025715D01*
X119868952Y-79025715D01*
X119716571Y-78987620D01*
X119640381Y-78949525D01*
X119564190Y-78873334D01*
X119526095Y-78759048D01*
X119526095Y-78568572D01*
X119754667Y-79330477D02*
X119754667Y-79711429D01*
X119526095Y-79254286D02*
X120326095Y-79520953D01*
X119526095Y-79787620D01*
X117024190Y-77787619D02*
X116986095Y-77901905D01*
X116986095Y-78092381D01*
X117024190Y-78168571D01*
X117062286Y-78206667D01*
X117138476Y-78244762D01*
X117214667Y-78244762D01*
X117290857Y-78206667D01*
X117328952Y-78168571D01*
X117367048Y-78092381D01*
X117405143Y-77940000D01*
X117443238Y-77863809D01*
X117481333Y-77825714D01*
X117557524Y-77787619D01*
X117633714Y-77787619D01*
X117709905Y-77825714D01*
X117748000Y-77863809D01*
X117786095Y-77940000D01*
X117786095Y-78130476D01*
X117748000Y-78244762D01*
X117062286Y-79044762D02*
X117024190Y-79006667D01*
X116986095Y-78892381D01*
X116986095Y-78816191D01*
X117024190Y-78701905D01*
X117100381Y-78625714D01*
X117176571Y-78587619D01*
X117328952Y-78549524D01*
X117443238Y-78549524D01*
X117595619Y-78587619D01*
X117671810Y-78625714D01*
X117748000Y-78701905D01*
X117786095Y-78816191D01*
X117786095Y-78892381D01*
X117748000Y-79006667D01*
X117709905Y-79044762D01*
X116986095Y-79768572D02*
X116986095Y-79387619D01*
X117786095Y-79387619D01*
D13*
X136835859Y-80688571D02*
X136335859Y-79974286D01*
X135978716Y-80688571D02*
X135978716Y-79188571D01*
X136550144Y-79188571D01*
X136693002Y-79260000D01*
X136764430Y-79331429D01*
X136835859Y-79474286D01*
X136835859Y-79688571D01*
X136764430Y-79831429D01*
X136693002Y-79902857D01*
X136550144Y-79974286D01*
X135978716Y-79974286D01*
X138050144Y-80617143D02*
X137907287Y-80688571D01*
X137621573Y-80688571D01*
X137478716Y-80617143D01*
X137407287Y-80474286D01*
X137407287Y-79902857D01*
X137478716Y-79760000D01*
X137621573Y-79688571D01*
X137907287Y-79688571D01*
X138050144Y-79760000D01*
X138121573Y-79902857D01*
X138121573Y-80045714D01*
X137407287Y-80188571D01*
X139407287Y-80688571D02*
X139407287Y-79902857D01*
X139335858Y-79760000D01*
X139193001Y-79688571D01*
X138907287Y-79688571D01*
X138764430Y-79760000D01*
X139407287Y-80617143D02*
X139264430Y-80688571D01*
X138907287Y-80688571D01*
X138764430Y-80617143D01*
X138693001Y-80474286D01*
X138693001Y-80331429D01*
X138764430Y-80188571D01*
X138907287Y-80117143D01*
X139264430Y-80117143D01*
X139407287Y-80045714D01*
X140764430Y-80688571D02*
X140764430Y-79188571D01*
X140764430Y-80617143D02*
X140621573Y-80688571D01*
X140335859Y-80688571D01*
X140193001Y-80617143D01*
X140121573Y-80545714D01*
X140050144Y-80402857D01*
X140050144Y-79974286D01*
X140121573Y-79831429D01*
X140193001Y-79760000D01*
X140335859Y-79688571D01*
X140621573Y-79688571D01*
X140764430Y-79760000D01*
X141335859Y-79688571D02*
X141693002Y-80688571D01*
X142050144Y-79688571D02*
X141693002Y-80688571D01*
X141550144Y-81045714D01*
X141478716Y-81117143D01*
X141335859Y-81188571D01*
X143693001Y-80260000D02*
X144407287Y-80260000D01*
X143550144Y-80688571D02*
X144050144Y-79188571D01*
X144550144Y-80688571D01*
X145050144Y-80688571D02*
X145050144Y-79688571D01*
X145050144Y-79188571D02*
X144978715Y-79260000D01*
X145050144Y-79331429D01*
X145121572Y-79260000D01*
X145050144Y-79188571D01*
X145050144Y-79331429D01*
X145764430Y-80688571D02*
X145764430Y-79688571D01*
X145764430Y-79831429D02*
X145835858Y-79760000D01*
X145978716Y-79688571D01*
X146193001Y-79688571D01*
X146335858Y-79760000D01*
X146407287Y-79902857D01*
X146407287Y-80688571D01*
X146407287Y-79902857D02*
X146478716Y-79760000D01*
X146621573Y-79688571D01*
X146835858Y-79688571D01*
X146978716Y-79760000D01*
X147050144Y-79902857D01*
X147050144Y-80688571D01*
X149407287Y-79902857D02*
X148907287Y-79902857D01*
X148907287Y-80688571D02*
X148907287Y-79188571D01*
X149621573Y-79188571D01*
X150193001Y-80688571D02*
X150193001Y-79688571D01*
X150193001Y-79188571D02*
X150121572Y-79260000D01*
X150193001Y-79331429D01*
X150264429Y-79260000D01*
X150193001Y-79188571D01*
X150193001Y-79331429D01*
X150907287Y-80688571D02*
X150907287Y-79688571D01*
X150907287Y-79974286D02*
X150978715Y-79831429D01*
X151050144Y-79760000D01*
X151193001Y-79688571D01*
X151335858Y-79688571D01*
X152407286Y-80617143D02*
X152264429Y-80688571D01*
X151978715Y-80688571D01*
X151835858Y-80617143D01*
X151764429Y-80474286D01*
X151764429Y-79902857D01*
X151835858Y-79760000D01*
X151978715Y-79688571D01*
X152264429Y-79688571D01*
X152407286Y-79760000D01*
X152478715Y-79902857D01*
X152478715Y-80045714D01*
X151764429Y-80188571D01*
X154050143Y-79188571D02*
X154550143Y-80688571D01*
X155050143Y-79188571D01*
X155478714Y-79331429D02*
X155550143Y-79260000D01*
X155693000Y-79188571D01*
X156050143Y-79188571D01*
X156193000Y-79260000D01*
X156264429Y-79331429D01*
X156335857Y-79474286D01*
X156335857Y-79617143D01*
X156264429Y-79831429D01*
X155407286Y-80688571D01*
X156335857Y-80688571D01*
X156978714Y-80545714D02*
X157050142Y-80617143D01*
X156978714Y-80688571D01*
X156907285Y-80617143D01*
X156978714Y-80545714D01*
X156978714Y-80688571D01*
X158478714Y-80688571D02*
X157621571Y-80688571D01*
X158050143Y-80688571D02*
X158050143Y-79188571D01*
X157907286Y-79402857D01*
X157764428Y-79545714D01*
X157621571Y-79617143D01*
D14*
X153158000Y-94365000D02*
X154328000Y-94365000D01*
X157738000Y-94365000D02*
X156568000Y-94365000D01*
X156968000Y-89785000D02*
X156568000Y-89785000D01*
X153928000Y-89785000D02*
X154328000Y-89785000D01*
X153158000Y-90555000D02*
X153158000Y-94365000D01*
X153158000Y-90555000D02*
X153928000Y-89785000D01*
X157738000Y-90555000D02*
X157738000Y-94365000D01*
X157738000Y-90555000D02*
X156968000Y-89785000D01*
D10*
X133628000Y-88225000D02*
X132628000Y-87225000D01*
X137628000Y-83225000D02*
X132628000Y-83225000D01*
X132628000Y-83225000D02*
X132628000Y-88225000D01*
X132628000Y-88225000D02*
X137628000Y-88225000D01*
X137628000Y-88225000D02*
X137628000Y-83225000D01*
X137128000Y-85725000D02*
G75*
G03X137128000Y-85725000I-2000000J0D01*
G01*
D14*
X120278000Y-121885000D02*
X120278000Y-120685000D01*
X122038000Y-120685000D02*
X122038000Y-121885000D01*
X175378000Y-81315000D02*
X175378000Y-82515000D01*
X173618000Y-82515000D02*
X173618000Y-81315000D01*
X166488000Y-81315000D02*
X166488000Y-82515000D01*
X164728000Y-82515000D02*
X164728000Y-81315000D01*
X163313000Y-81315000D02*
X163313000Y-82515000D01*
X161553000Y-82515000D02*
X161553000Y-81315000D01*
X115198000Y-121885000D02*
X115198000Y-120685000D01*
X116958000Y-120685000D02*
X116958000Y-121885000D01*
X140173000Y-120895000D02*
X138973000Y-120895000D01*
X138973000Y-119135000D02*
X140173000Y-119135000D01*
X171653000Y-82765000D02*
X171653000Y-80165000D01*
X168453000Y-82765000D02*
X168453000Y-81065000D01*
D11*
X157988000Y-76835000D02*
X175768000Y-76835000D01*
X175768000Y-76835000D02*
X175768000Y-74295000D01*
X175768000Y-74295000D02*
X157988000Y-74295000D01*
X155168000Y-77115000D02*
X156718000Y-77115000D01*
X157988000Y-76835000D02*
X157988000Y-74295000D01*
X156718000Y-74015000D02*
X155168000Y-74015000D01*
X155168000Y-74015000D02*
X155168000Y-77115000D01*
X131064000Y-76835000D02*
X153924000Y-76835000D01*
X153924000Y-76835000D02*
X153924000Y-74295000D01*
X153924000Y-74295000D02*
X131064000Y-74295000D01*
X128244000Y-77115000D02*
X129794000Y-77115000D01*
X131064000Y-76835000D02*
X131064000Y-74295000D01*
X129794000Y-74015000D02*
X128244000Y-74015000D01*
X128244000Y-74015000D02*
X128244000Y-77115000D01*
X163068000Y-125095000D02*
X175768000Y-125095000D01*
X175768000Y-125095000D02*
X175768000Y-122555000D01*
X175768000Y-122555000D02*
X163068000Y-122555000D01*
X160248000Y-125375000D02*
X161798000Y-125375000D01*
X163068000Y-125095000D02*
X163068000Y-122555000D01*
X161798000Y-122275000D02*
X160248000Y-122275000D01*
X160248000Y-122275000D02*
X160248000Y-125375000D01*
X140208000Y-125095000D02*
X157988000Y-125095000D01*
X157988000Y-125095000D02*
X157988000Y-122555000D01*
X157988000Y-122555000D02*
X140208000Y-122555000D01*
X137388000Y-125375000D02*
X138938000Y-125375000D01*
X140208000Y-125095000D02*
X140208000Y-122555000D01*
X138938000Y-122275000D02*
X137388000Y-122275000D01*
X137388000Y-122275000D02*
X137388000Y-125375000D01*
D14*
X123758000Y-76895000D02*
X123758000Y-74235000D01*
X116078000Y-76895000D02*
X123758000Y-76895000D01*
X116078000Y-74235000D02*
X123758000Y-74235000D01*
X116078000Y-76895000D02*
X116078000Y-74235000D01*
X114808000Y-76895000D02*
X113478000Y-76895000D01*
X113478000Y-76895000D02*
X113478000Y-75565000D01*
X125543000Y-89595000D02*
X128203000Y-89595000D01*
X125543000Y-84455000D02*
X125543000Y-89595000D01*
X128203000Y-84455000D02*
X128203000Y-89595000D01*
X125543000Y-84455000D02*
X128203000Y-84455000D01*
X125543000Y-83185000D02*
X125543000Y-81855000D01*
X125543000Y-81855000D02*
X126873000Y-81855000D01*
X163008000Y-95945000D02*
X165668000Y-95945000D01*
X163008000Y-90805000D02*
X163008000Y-95945000D01*
X165668000Y-90805000D02*
X165668000Y-95945000D01*
X163008000Y-90805000D02*
X165668000Y-90805000D01*
X163008000Y-89535000D02*
X163008000Y-88205000D01*
X163008000Y-88205000D02*
X164338000Y-88205000D01*
X165548000Y-95945000D02*
X168208000Y-95945000D01*
X165548000Y-90805000D02*
X165548000Y-95945000D01*
X168208000Y-90805000D02*
X168208000Y-95945000D01*
X165548000Y-90805000D02*
X168208000Y-90805000D01*
X165548000Y-89535000D02*
X165548000Y-88205000D01*
X165548000Y-88205000D02*
X166878000Y-88205000D01*
X168088000Y-95945000D02*
X170748000Y-95945000D01*
X168088000Y-90805000D02*
X168088000Y-95945000D01*
X170748000Y-90805000D02*
X170748000Y-95945000D01*
X168088000Y-90805000D02*
X170748000Y-90805000D01*
X168088000Y-89535000D02*
X168088000Y-88205000D01*
X168088000Y-88205000D02*
X169418000Y-88205000D01*
D11*
X157988000Y-105025000D02*
X157538000Y-104475000D01*
X157538000Y-104475000D02*
X158438000Y-104475000D01*
X158438000Y-104475000D02*
X157988000Y-105025000D01*
X157438000Y-105025000D02*
X158538000Y-105025000D01*
X159738060Y-106574140D02*
X159387540Y-106574140D01*
X156237940Y-106574140D02*
X156588460Y-106574140D01*
X159738060Y-102524560D02*
X159387540Y-102524560D01*
X159738060Y-107025440D02*
X159387540Y-107025440D01*
X156237940Y-107025440D02*
X156588460Y-107025440D01*
X156237940Y-102524560D02*
X156588460Y-102524560D01*
X159738060Y-107025440D02*
X159738060Y-102524560D01*
X156237940Y-107025440D02*
X156237940Y-102524560D01*
X157988000Y-115185000D02*
X157538000Y-114635000D01*
X157538000Y-114635000D02*
X158438000Y-114635000D01*
X158438000Y-114635000D02*
X157988000Y-115185000D01*
X157438000Y-115185000D02*
X158538000Y-115185000D01*
X159738060Y-116734140D02*
X159387540Y-116734140D01*
X156237940Y-116734140D02*
X156588460Y-116734140D01*
X159738060Y-112684560D02*
X159387540Y-112684560D01*
X159738060Y-117185440D02*
X159387540Y-117185440D01*
X156237940Y-117185440D02*
X156588460Y-117185440D01*
X156237940Y-112684560D02*
X156588460Y-112684560D01*
X159738060Y-117185440D02*
X159738060Y-112684560D01*
X156237940Y-117185440D02*
X156237940Y-112684560D01*
X115658000Y-86225000D02*
X115658000Y-85225000D01*
X113958000Y-85225000D02*
X113958000Y-86225000D01*
X122008000Y-86225000D02*
X122008000Y-85225000D01*
X120308000Y-85225000D02*
X120308000Y-86225000D01*
X160743000Y-92575000D02*
X160743000Y-91575000D01*
X159043000Y-91575000D02*
X159043000Y-92575000D01*
X142328000Y-86225000D02*
X142328000Y-85225000D01*
X140628000Y-85225000D02*
X140628000Y-86225000D01*
X143598000Y-101465000D02*
X143598000Y-100465000D01*
X141898000Y-100465000D02*
X141898000Y-101465000D01*
X130548000Y-113450000D02*
X129548000Y-113450000D01*
X129548000Y-115150000D02*
X130548000Y-115150000D01*
X143168000Y-91575000D02*
X143168000Y-92575000D01*
X144868000Y-92575000D02*
X144868000Y-91575000D01*
D14*
X151388000Y-89785000D02*
X150218000Y-89785000D01*
X146808000Y-89785000D02*
X147978000Y-89785000D01*
X147578000Y-94365000D02*
X147978000Y-94365000D01*
X150618000Y-94365000D02*
X150218000Y-94365000D01*
X151388000Y-93595000D02*
X151388000Y-89785000D01*
X151388000Y-93595000D02*
X150618000Y-94365000D01*
X146808000Y-93595000D02*
X146808000Y-89785000D01*
X146808000Y-93595000D02*
X147578000Y-94365000D01*
D15*
G36*
X147073620Y-102694740D02*
X147109180Y-102674420D01*
X147187920Y-102626160D01*
X147299680Y-102552500D01*
X147431760Y-102466140D01*
X147563840Y-102374700D01*
X147673060Y-102303580D01*
X147749260Y-102252780D01*
X147779740Y-102235000D01*
X147797520Y-102242620D01*
X147861020Y-102273100D01*
X147949920Y-102318820D01*
X148003260Y-102346760D01*
X148087080Y-102382320D01*
X148130260Y-102389940D01*
X148135340Y-102379780D01*
X148165820Y-102316280D01*
X148214080Y-102207060D01*
X148277580Y-102062280D01*
X148351240Y-101892100D01*
X148427440Y-101709220D01*
X148506180Y-101523800D01*
X148579840Y-101346000D01*
X148643340Y-101185980D01*
X148696680Y-101053900D01*
X148732240Y-100965000D01*
X148744940Y-100926900D01*
X148739860Y-100916740D01*
X148699220Y-100876100D01*
X148625560Y-100822760D01*
X148468080Y-100693220D01*
X148310600Y-100500180D01*
X148216620Y-100279200D01*
X148183600Y-100032820D01*
X148211540Y-99804220D01*
X148300440Y-99585780D01*
X148452840Y-99390200D01*
X148638260Y-99242880D01*
X148854160Y-99151440D01*
X149098000Y-99120960D01*
X149329140Y-99146360D01*
X149552660Y-99235260D01*
X149750780Y-99385120D01*
X149834600Y-99481640D01*
X149948900Y-99679760D01*
X150012400Y-99893120D01*
X150020020Y-99949000D01*
X150009860Y-100182680D01*
X149941280Y-100406200D01*
X149816820Y-100606860D01*
X149646640Y-100771960D01*
X149623780Y-100787200D01*
X149545040Y-100848160D01*
X149491700Y-100888800D01*
X149448520Y-100921820D01*
X149748240Y-101640640D01*
X149796500Y-101754940D01*
X149877780Y-101953060D01*
X149948900Y-102120700D01*
X150007320Y-102255320D01*
X150047960Y-102346760D01*
X150065740Y-102382320D01*
X150065740Y-102384860D01*
X150093680Y-102389940D01*
X150147020Y-102369620D01*
X150248620Y-102321360D01*
X150314660Y-102285800D01*
X150390860Y-102250240D01*
X150426420Y-102235000D01*
X150454360Y-102252780D01*
X150528020Y-102298500D01*
X150634700Y-102369620D01*
X150764240Y-102458520D01*
X150886160Y-102542340D01*
X150997920Y-102616000D01*
X151079200Y-102669340D01*
X151119840Y-102689660D01*
X151124920Y-102689660D01*
X151160480Y-102669340D01*
X151226520Y-102616000D01*
X151323040Y-102524560D01*
X151462740Y-102387400D01*
X151483060Y-102364540D01*
X151597360Y-102250240D01*
X151688800Y-102153720D01*
X151752300Y-102082600D01*
X151775160Y-102052120D01*
X151775160Y-102052120D01*
X151754840Y-102014020D01*
X151701500Y-101930200D01*
X151627840Y-101815900D01*
X151536400Y-101683820D01*
X151297640Y-101338380D01*
X151429720Y-101010720D01*
X151470360Y-100911660D01*
X151521160Y-100789740D01*
X151559260Y-100703380D01*
X151577040Y-100665280D01*
X151612600Y-100652580D01*
X151701500Y-100632260D01*
X151831040Y-100604320D01*
X151985980Y-100576380D01*
X152133300Y-100548440D01*
X152265380Y-100523040D01*
X152361900Y-100505260D01*
X152405080Y-100497640D01*
X152415240Y-100490020D01*
X152425400Y-100469700D01*
X152430480Y-100423980D01*
X152433020Y-100342700D01*
X152435560Y-100215700D01*
X152435560Y-100032820D01*
X152435560Y-100012500D01*
X152433020Y-99837240D01*
X152430480Y-99697540D01*
X152425400Y-99606100D01*
X152420320Y-99570540D01*
X152420320Y-99570540D01*
X152377140Y-99560380D01*
X152283160Y-99540060D01*
X152151080Y-99514660D01*
X151993600Y-99484180D01*
X151983440Y-99481640D01*
X151825960Y-99451160D01*
X151691340Y-99423220D01*
X151599900Y-99402900D01*
X151561800Y-99390200D01*
X151551640Y-99380040D01*
X151521160Y-99316540D01*
X151475440Y-99220020D01*
X151422100Y-99100640D01*
X151371300Y-98976180D01*
X151328120Y-98864420D01*
X151297640Y-98780600D01*
X151287480Y-98742500D01*
X151287480Y-98742500D01*
X151312880Y-98704400D01*
X151366220Y-98623120D01*
X151442420Y-98508820D01*
X151536400Y-98374200D01*
X151541480Y-98364040D01*
X151632920Y-98231960D01*
X151706580Y-98117660D01*
X151754840Y-98036380D01*
X151775160Y-98000820D01*
X151772620Y-97998280D01*
X151744680Y-97960180D01*
X151676100Y-97883980D01*
X151579580Y-97782380D01*
X151462740Y-97663000D01*
X151424640Y-97627440D01*
X151295100Y-97500440D01*
X151203660Y-97416620D01*
X151147780Y-97373440D01*
X151122380Y-97363280D01*
X151119840Y-97363280D01*
X151079200Y-97388680D01*
X150995380Y-97444560D01*
X150881080Y-97520760D01*
X150746460Y-97612200D01*
X150736300Y-97619820D01*
X150604220Y-97711260D01*
X150492460Y-97784920D01*
X150413720Y-97838260D01*
X150378160Y-97858580D01*
X150373080Y-97858580D01*
X150317200Y-97843340D01*
X150223220Y-97810320D01*
X150106380Y-97764600D01*
X149981920Y-97713800D01*
X149870160Y-97668080D01*
X149786340Y-97629980D01*
X149748240Y-97607120D01*
X149745700Y-97604580D01*
X149733000Y-97556320D01*
X149710140Y-97457260D01*
X149679660Y-97320100D01*
X149649180Y-97155000D01*
X149644100Y-97129600D01*
X149613620Y-96969580D01*
X149588220Y-96840040D01*
X149570440Y-96748600D01*
X149560280Y-96710500D01*
X149537420Y-96705420D01*
X149461220Y-96700340D01*
X149341840Y-96697800D01*
X149199600Y-96695260D01*
X149047200Y-96695260D01*
X148899880Y-96700340D01*
X148775420Y-96702880D01*
X148683980Y-96710500D01*
X148645880Y-96718120D01*
X148645880Y-96720660D01*
X148630640Y-96768920D01*
X148610320Y-96867980D01*
X148582380Y-97007680D01*
X148549360Y-97170240D01*
X148544280Y-97200720D01*
X148513800Y-97358200D01*
X148488400Y-97487740D01*
X148468080Y-97579180D01*
X148457920Y-97614740D01*
X148445220Y-97622360D01*
X148379180Y-97650300D01*
X148272500Y-97693480D01*
X148140420Y-97746820D01*
X147835620Y-97871280D01*
X147459700Y-97614740D01*
X147426680Y-97591880D01*
X147292060Y-97497900D01*
X147180300Y-97424240D01*
X147104100Y-97375980D01*
X147071080Y-97358200D01*
X147068540Y-97358200D01*
X147030440Y-97391220D01*
X146956780Y-97459800D01*
X146855180Y-97558860D01*
X146738340Y-97678240D01*
X146649440Y-97764600D01*
X146547840Y-97868740D01*
X146481800Y-97939860D01*
X146446240Y-97985580D01*
X146433540Y-98013520D01*
X146436080Y-98031300D01*
X146461480Y-98069400D01*
X146514820Y-98153220D01*
X146593560Y-98264980D01*
X146685000Y-98399600D01*
X146758660Y-98508820D01*
X146839940Y-98635820D01*
X146893280Y-98724720D01*
X146911060Y-98767900D01*
X146905980Y-98788220D01*
X146880580Y-98859340D01*
X146837400Y-98971100D01*
X146778980Y-99103180D01*
X146649440Y-99400360D01*
X146456400Y-99438460D01*
X146337020Y-99458780D01*
X146171920Y-99491800D01*
X146014440Y-99522280D01*
X145768060Y-99570540D01*
X145760440Y-100474780D01*
X145798540Y-100490020D01*
X145834100Y-100500180D01*
X145925540Y-100520500D01*
X146055080Y-100545900D01*
X146210020Y-100573840D01*
X146339560Y-100599240D01*
X146471640Y-100624640D01*
X146568160Y-100642420D01*
X146608800Y-100652580D01*
X146618960Y-100665280D01*
X146651980Y-100728780D01*
X146700240Y-100830380D01*
X146751040Y-100952300D01*
X146804380Y-101079300D01*
X146850100Y-101196140D01*
X146883120Y-101285040D01*
X146895820Y-101333300D01*
X146878040Y-101366320D01*
X146827240Y-101445060D01*
X146756120Y-101554280D01*
X146664680Y-101686360D01*
X146575780Y-101815900D01*
X146499580Y-101930200D01*
X146448780Y-102008940D01*
X146425920Y-102047040D01*
X146436080Y-102072440D01*
X146489420Y-102135940D01*
X146588480Y-102237540D01*
X146735800Y-102382320D01*
X146758660Y-102405180D01*
X146875500Y-102519480D01*
X146974560Y-102610920D01*
X147043140Y-102671880D01*
X147073620Y-102694740D01*
X147073620Y-102694740D01*
G37*
X147073620Y-102694740D02*
X147109180Y-102674420D01*
X147187920Y-102626160D01*
X147299680Y-102552500D01*
X147431760Y-102466140D01*
X147563840Y-102374700D01*
X147673060Y-102303580D01*
X147749260Y-102252780D01*
X147779740Y-102235000D01*
X147797520Y-102242620D01*
X147861020Y-102273100D01*
X147949920Y-102318820D01*
X148003260Y-102346760D01*
X148087080Y-102382320D01*
X148130260Y-102389940D01*
X148135340Y-102379780D01*
X148165820Y-102316280D01*
X148214080Y-102207060D01*
X148277580Y-102062280D01*
X148351240Y-101892100D01*
X148427440Y-101709220D01*
X148506180Y-101523800D01*
X148579840Y-101346000D01*
X148643340Y-101185980D01*
X148696680Y-101053900D01*
X148732240Y-100965000D01*
X148744940Y-100926900D01*
X148739860Y-100916740D01*
X148699220Y-100876100D01*
X148625560Y-100822760D01*
X148468080Y-100693220D01*
X148310600Y-100500180D01*
X148216620Y-100279200D01*
X148183600Y-100032820D01*
X148211540Y-99804220D01*
X148300440Y-99585780D01*
X148452840Y-99390200D01*
X148638260Y-99242880D01*
X148854160Y-99151440D01*
X149098000Y-99120960D01*
X149329140Y-99146360D01*
X149552660Y-99235260D01*
X149750780Y-99385120D01*
X149834600Y-99481640D01*
X149948900Y-99679760D01*
X150012400Y-99893120D01*
X150020020Y-99949000D01*
X150009860Y-100182680D01*
X149941280Y-100406200D01*
X149816820Y-100606860D01*
X149646640Y-100771960D01*
X149623780Y-100787200D01*
X149545040Y-100848160D01*
X149491700Y-100888800D01*
X149448520Y-100921820D01*
X149748240Y-101640640D01*
X149796500Y-101754940D01*
X149877780Y-101953060D01*
X149948900Y-102120700D01*
X150007320Y-102255320D01*
X150047960Y-102346760D01*
X150065740Y-102382320D01*
X150065740Y-102384860D01*
X150093680Y-102389940D01*
X150147020Y-102369620D01*
X150248620Y-102321360D01*
X150314660Y-102285800D01*
X150390860Y-102250240D01*
X150426420Y-102235000D01*
X150454360Y-102252780D01*
X150528020Y-102298500D01*
X150634700Y-102369620D01*
X150764240Y-102458520D01*
X150886160Y-102542340D01*
X150997920Y-102616000D01*
X151079200Y-102669340D01*
X151119840Y-102689660D01*
X151124920Y-102689660D01*
X151160480Y-102669340D01*
X151226520Y-102616000D01*
X151323040Y-102524560D01*
X151462740Y-102387400D01*
X151483060Y-102364540D01*
X151597360Y-102250240D01*
X151688800Y-102153720D01*
X151752300Y-102082600D01*
X151775160Y-102052120D01*
X151775160Y-102052120D01*
X151754840Y-102014020D01*
X151701500Y-101930200D01*
X151627840Y-101815900D01*
X151536400Y-101683820D01*
X151297640Y-101338380D01*
X151429720Y-101010720D01*
X151470360Y-100911660D01*
X151521160Y-100789740D01*
X151559260Y-100703380D01*
X151577040Y-100665280D01*
X151612600Y-100652580D01*
X151701500Y-100632260D01*
X151831040Y-100604320D01*
X151985980Y-100576380D01*
X152133300Y-100548440D01*
X152265380Y-100523040D01*
X152361900Y-100505260D01*
X152405080Y-100497640D01*
X152415240Y-100490020D01*
X152425400Y-100469700D01*
X152430480Y-100423980D01*
X152433020Y-100342700D01*
X152435560Y-100215700D01*
X152435560Y-100032820D01*
X152435560Y-100012500D01*
X152433020Y-99837240D01*
X152430480Y-99697540D01*
X152425400Y-99606100D01*
X152420320Y-99570540D01*
X152420320Y-99570540D01*
X152377140Y-99560380D01*
X152283160Y-99540060D01*
X152151080Y-99514660D01*
X151993600Y-99484180D01*
X151983440Y-99481640D01*
X151825960Y-99451160D01*
X151691340Y-99423220D01*
X151599900Y-99402900D01*
X151561800Y-99390200D01*
X151551640Y-99380040D01*
X151521160Y-99316540D01*
X151475440Y-99220020D01*
X151422100Y-99100640D01*
X151371300Y-98976180D01*
X151328120Y-98864420D01*
X151297640Y-98780600D01*
X151287480Y-98742500D01*
X151287480Y-98742500D01*
X151312880Y-98704400D01*
X151366220Y-98623120D01*
X151442420Y-98508820D01*
X151536400Y-98374200D01*
X151541480Y-98364040D01*
X151632920Y-98231960D01*
X151706580Y-98117660D01*
X151754840Y-98036380D01*
X151775160Y-98000820D01*
X151772620Y-97998280D01*
X151744680Y-97960180D01*
X151676100Y-97883980D01*
X151579580Y-97782380D01*
X151462740Y-97663000D01*
X151424640Y-97627440D01*
X151295100Y-97500440D01*
X151203660Y-97416620D01*
X151147780Y-97373440D01*
X151122380Y-97363280D01*
X151119840Y-97363280D01*
X151079200Y-97388680D01*
X150995380Y-97444560D01*
X150881080Y-97520760D01*
X150746460Y-97612200D01*
X150736300Y-97619820D01*
X150604220Y-97711260D01*
X150492460Y-97784920D01*
X150413720Y-97838260D01*
X150378160Y-97858580D01*
X150373080Y-97858580D01*
X150317200Y-97843340D01*
X150223220Y-97810320D01*
X150106380Y-97764600D01*
X149981920Y-97713800D01*
X149870160Y-97668080D01*
X149786340Y-97629980D01*
X149748240Y-97607120D01*
X149745700Y-97604580D01*
X149733000Y-97556320D01*
X149710140Y-97457260D01*
X149679660Y-97320100D01*
X149649180Y-97155000D01*
X149644100Y-97129600D01*
X149613620Y-96969580D01*
X149588220Y-96840040D01*
X149570440Y-96748600D01*
X149560280Y-96710500D01*
X149537420Y-96705420D01*
X149461220Y-96700340D01*
X149341840Y-96697800D01*
X149199600Y-96695260D01*
X149047200Y-96695260D01*
X148899880Y-96700340D01*
X148775420Y-96702880D01*
X148683980Y-96710500D01*
X148645880Y-96718120D01*
X148645880Y-96720660D01*
X148630640Y-96768920D01*
X148610320Y-96867980D01*
X148582380Y-97007680D01*
X148549360Y-97170240D01*
X148544280Y-97200720D01*
X148513800Y-97358200D01*
X148488400Y-97487740D01*
X148468080Y-97579180D01*
X148457920Y-97614740D01*
X148445220Y-97622360D01*
X148379180Y-97650300D01*
X148272500Y-97693480D01*
X148140420Y-97746820D01*
X147835620Y-97871280D01*
X147459700Y-97614740D01*
X147426680Y-97591880D01*
X147292060Y-97497900D01*
X147180300Y-97424240D01*
X147104100Y-97375980D01*
X147071080Y-97358200D01*
X147068540Y-97358200D01*
X147030440Y-97391220D01*
X146956780Y-97459800D01*
X146855180Y-97558860D01*
X146738340Y-97678240D01*
X146649440Y-97764600D01*
X146547840Y-97868740D01*
X146481800Y-97939860D01*
X146446240Y-97985580D01*
X146433540Y-98013520D01*
X146436080Y-98031300D01*
X146461480Y-98069400D01*
X146514820Y-98153220D01*
X146593560Y-98264980D01*
X146685000Y-98399600D01*
X146758660Y-98508820D01*
X146839940Y-98635820D01*
X146893280Y-98724720D01*
X146911060Y-98767900D01*
X146905980Y-98788220D01*
X146880580Y-98859340D01*
X146837400Y-98971100D01*
X146778980Y-99103180D01*
X146649440Y-99400360D01*
X146456400Y-99438460D01*
X146337020Y-99458780D01*
X146171920Y-99491800D01*
X146014440Y-99522280D01*
X145768060Y-99570540D01*
X145760440Y-100474780D01*
X145798540Y-100490020D01*
X145834100Y-100500180D01*
X145925540Y-100520500D01*
X146055080Y-100545900D01*
X146210020Y-100573840D01*
X146339560Y-100599240D01*
X146471640Y-100624640D01*
X146568160Y-100642420D01*
X146608800Y-100652580D01*
X146618960Y-100665280D01*
X146651980Y-100728780D01*
X146700240Y-100830380D01*
X146751040Y-100952300D01*
X146804380Y-101079300D01*
X146850100Y-101196140D01*
X146883120Y-101285040D01*
X146895820Y-101333300D01*
X146878040Y-101366320D01*
X146827240Y-101445060D01*
X146756120Y-101554280D01*
X146664680Y-101686360D01*
X146575780Y-101815900D01*
X146499580Y-101930200D01*
X146448780Y-102008940D01*
X146425920Y-102047040D01*
X146436080Y-102072440D01*
X146489420Y-102135940D01*
X146588480Y-102237540D01*
X146735800Y-102382320D01*
X146758660Y-102405180D01*
X146875500Y-102519480D01*
X146974560Y-102610920D01*
X147043140Y-102671880D01*
X147073620Y-102694740D01*
D11*
X128270000Y-120396000D02*
X128270000Y-122174000D01*
X128905000Y-120396000D02*
X128270000Y-120396000D01*
X128905000Y-121666000D02*
X128905000Y-120396000D01*
X129413000Y-121666000D02*
X128905000Y-121666000D01*
X129413000Y-120904000D02*
X129413000Y-121666000D01*
X130048000Y-120904000D02*
X129413000Y-120904000D01*
X130048000Y-121666000D02*
X130048000Y-120904000D01*
X130683000Y-121666000D02*
X130048000Y-121666000D01*
X130683000Y-120904000D02*
X130683000Y-121666000D01*
X131318000Y-120904000D02*
X130683000Y-120904000D01*
X131318000Y-122174000D02*
X131318000Y-120904000D01*
X131826000Y-122174000D02*
X131318000Y-122174000D01*
X131826000Y-120396000D02*
X131826000Y-122174000D01*
X128016000Y-122682000D02*
X128016000Y-119888000D01*
X132080000Y-119888000D02*
X132080000Y-122682000D01*
X132080000Y-119888000D02*
G75*
G03X128016000Y-119888000I-2032000J-1397000D01*
G01*
X128016000Y-122682000D02*
G75*
G03X132080000Y-122682000I2032000J1397000D01*
G01*
X170978000Y-114935000D02*
X171378000Y-114935000D01*
X169878000Y-119185000D02*
X169878000Y-110685000D01*
X170978000Y-119185000D02*
X170978000Y-110685000D01*
X163778000Y-119185000D02*
X171378000Y-119185000D01*
X171378000Y-110685000D02*
X163778000Y-110685000D01*
X163778000Y-110685000D02*
X163778000Y-119185000D01*
X170978000Y-104775000D02*
X171378000Y-104775000D01*
X169878000Y-109025000D02*
X169878000Y-100525000D01*
X170978000Y-109025000D02*
X170978000Y-100525000D01*
X163778000Y-109025000D02*
X171378000Y-109025000D01*
X171378000Y-100525000D02*
X163778000Y-100525000D01*
X163778000Y-100525000D02*
X163778000Y-109025000D01*
D10*
X134493000Y-121885000D02*
X134793000Y-121985000D01*
X134493000Y-121885000D02*
X134693000Y-121685000D01*
X133893000Y-121285000D02*
G75*
G02X134493000Y-121885000I600000J0D01*
G01*
D12*
X132993000Y-123285000D02*
X132993000Y-119285000D01*
X135993000Y-123285000D02*
X132993000Y-123285000D01*
X135993000Y-119285000D02*
X135993000Y-123285000D01*
X132993000Y-119285000D02*
X135993000Y-119285000D01*
D11*
X135278000Y-97195000D02*
X137778000Y-97195000D01*
X135278000Y-102195000D02*
X137778000Y-102195000D01*
X137778000Y-99695000D02*
X135778000Y-99695000D01*
X136803855Y-99195000D02*
X135803855Y-99695000D01*
X136803855Y-100195000D02*
X136803855Y-99195000D01*
X135803855Y-99695000D02*
X136803855Y-100195000D01*
X128778000Y-109195000D02*
X128778000Y-107195000D01*
X136778000Y-95195000D02*
X136778000Y-92695000D01*
X124278000Y-107695000D02*
X121778000Y-107695000D01*
X126278000Y-106695000D02*
X126278000Y-109195000D01*
X131278000Y-106695000D02*
X131278000Y-109195000D01*
X134803855Y-97695000D02*
X135303855Y-97195000D01*
X135803855Y-98195000D02*
X134803855Y-97695000D01*
X134803855Y-98695000D02*
X135803855Y-98195000D01*
X135803855Y-99195000D02*
X134803855Y-98695000D01*
X134803855Y-99695000D02*
X135803855Y-99195000D01*
X135803855Y-100195000D02*
X134803855Y-99695000D01*
X134803855Y-100695000D02*
X135803855Y-100195000D01*
X135803855Y-101195000D02*
X134803855Y-100695000D01*
X134803855Y-101695000D02*
X135803855Y-101195000D01*
X135303855Y-102195000D02*
X134803855Y-101695000D01*
X136778000Y-92695000D02*
G75*
G03X135778000Y-91695000I-1000000J0D01*
G01*
X135778000Y-107695000D02*
G75*
G03X136778000Y-106695000I0J1000000D01*
G01*
X120778000Y-106695000D02*
G75*
G03X121778000Y-107695000I1000000J0D01*
G01*
X121778000Y-91695000D02*
G75*
G03X120778000Y-92695000I0J-1000000D01*
G01*
X114778000Y-104695000D02*
G75*
G03X115278000Y-105195000I500000J0D01*
G01*
X115278000Y-94195000D02*
G75*
G03X114778000Y-94695000I0J-500000D01*
G01*
X139778000Y-104195000D02*
G75*
G03X140278000Y-103695000I0J500000D01*
G01*
X140278000Y-95695000D02*
G75*
G03X139778000Y-95195000I-500000J0D01*
G01*
X132778000Y-111195000D02*
G75*
G03X133278000Y-110695000I0J500000D01*
G01*
X124278000Y-110695000D02*
G75*
G03X124778000Y-111195000I500000J0D01*
G01*
X132778000Y-99695000D02*
G75*
G03X132778000Y-99695000I-4000000J0D01*
G01*
X127778000Y-100195000D02*
X127778000Y-99195000D01*
X129778000Y-100195000D02*
X127778000Y-100195000D01*
X129778000Y-99195000D02*
X129778000Y-100195000D01*
X127778000Y-99195000D02*
X129778000Y-99195000D01*
X128278000Y-111695000D02*
X128278000Y-111195000D01*
X129278000Y-111695000D02*
X128278000Y-111695000D01*
X129278000Y-111195000D02*
X129278000Y-111695000D01*
X140778000Y-99195000D02*
X140278000Y-99195000D01*
X140778000Y-100195000D02*
X140778000Y-99195000D01*
X140278000Y-100195000D02*
X140778000Y-100195000D01*
X139778000Y-95195000D02*
X136778000Y-95195000D01*
X140278000Y-103695000D02*
X140278000Y-95695000D01*
X136778000Y-104195000D02*
X139778000Y-104195000D01*
X133278000Y-110695000D02*
X133278000Y-107695000D01*
X124778000Y-111195000D02*
X132778000Y-111195000D01*
X124278000Y-107695000D02*
X124278000Y-110695000D01*
X115278000Y-94195000D02*
X120778000Y-94195000D01*
X114778000Y-104695000D02*
X114778000Y-94695000D01*
X120778000Y-105195000D02*
X115278000Y-105195000D01*
X120778000Y-106695000D02*
X120778000Y-92695000D01*
X135778000Y-107695000D02*
X133278000Y-107695000D01*
X136778000Y-104195000D02*
X136778000Y-106695000D01*
X121778000Y-91695000D02*
X135778000Y-91695000D01*
X126778000Y-106195000D02*
X127278000Y-107195000D01*
X127278000Y-107195000D02*
X127778000Y-106195000D01*
X127778000Y-106195000D02*
X128278000Y-107195000D01*
X126278000Y-106695000D02*
X126778000Y-106195000D01*
X129278000Y-108195000D02*
X128778000Y-107195000D01*
X128278000Y-108195000D02*
X129278000Y-108195000D01*
X128778000Y-106195000D02*
X129278000Y-107195000D01*
X128778000Y-107195000D02*
X128278000Y-108195000D01*
X128278000Y-107195000D02*
X128778000Y-106195000D01*
X129278000Y-107195000D02*
X129778000Y-106195000D01*
X130278000Y-107195000D02*
X130778000Y-106195000D01*
X129778000Y-106195000D02*
X130278000Y-107195000D01*
X130778000Y-106195000D02*
X131278000Y-106695000D01*
X155281334Y-88495143D02*
X155233715Y-88542762D01*
X155090858Y-88590381D01*
X154995620Y-88590381D01*
X154852762Y-88542762D01*
X154757524Y-88447524D01*
X154709905Y-88352286D01*
X154662286Y-88161810D01*
X154662286Y-88018952D01*
X154709905Y-87828476D01*
X154757524Y-87733238D01*
X154852762Y-87638000D01*
X154995620Y-87590381D01*
X155090858Y-87590381D01*
X155233715Y-87638000D01*
X155281334Y-87685619D01*
X155614667Y-87590381D02*
X156281334Y-87590381D01*
X155852762Y-88590381D01*
X153509429Y-89685952D02*
X153509429Y-88924047D01*
X153890381Y-89304999D02*
X153128476Y-89304999D01*
X132715095Y-89241381D02*
X132715095Y-90050905D01*
X132762714Y-90146143D01*
X132810333Y-90193762D01*
X132905571Y-90241381D01*
X133096048Y-90241381D01*
X133191286Y-90193762D01*
X133238905Y-90146143D01*
X133286524Y-90050905D01*
X133286524Y-89241381D01*
X134286524Y-90241381D02*
X133715095Y-90241381D01*
X134000809Y-90241381D02*
X134000809Y-89241381D01*
X133905571Y-89384238D01*
X133810333Y-89479476D01*
X133715095Y-89527095D01*
X119872286Y-116927381D02*
X120443715Y-116927381D01*
X120158000Y-117927381D02*
X120158000Y-116927381D01*
X120777048Y-117927381D02*
X120777048Y-116927381D01*
X120777048Y-117403571D02*
X121348477Y-117403571D01*
X121348477Y-117927381D02*
X121348477Y-116927381D01*
X122348477Y-117927381D02*
X121777048Y-117927381D01*
X122062762Y-117927381D02*
X122062762Y-116927381D01*
X121967524Y-117070238D01*
X121872286Y-117165476D01*
X121777048Y-117213095D01*
X119348476Y-124547381D02*
X119919905Y-124547381D01*
X119634190Y-125547381D02*
X119634190Y-124547381D01*
X120253238Y-125023571D02*
X120586572Y-125023571D01*
X120729429Y-125547381D02*
X120253238Y-125547381D01*
X120253238Y-124547381D01*
X120729429Y-124547381D01*
X121158000Y-125547381D02*
X121158000Y-124547381D01*
X121491334Y-125261667D01*
X121824667Y-124547381D01*
X121824667Y-125547381D01*
X122300857Y-125547381D02*
X122300857Y-124547381D01*
X122681810Y-124547381D01*
X122777048Y-124595000D01*
X122824667Y-124642619D01*
X122872286Y-124737857D01*
X122872286Y-124880714D01*
X122824667Y-124975952D01*
X122777048Y-125023571D01*
X122681810Y-125071190D01*
X122300857Y-125071190D01*
X174331334Y-79192381D02*
X173998000Y-78716190D01*
X173759905Y-79192381D02*
X173759905Y-78192381D01*
X174140858Y-78192381D01*
X174236096Y-78240000D01*
X174283715Y-78287619D01*
X174331334Y-78382857D01*
X174331334Y-78525714D01*
X174283715Y-78620952D01*
X174236096Y-78668571D01*
X174140858Y-78716190D01*
X173759905Y-78716190D01*
X174664667Y-78192381D02*
X175331334Y-78192381D01*
X174902762Y-79192381D01*
X165441334Y-79192381D02*
X165108000Y-78716190D01*
X164869905Y-79192381D02*
X164869905Y-78192381D01*
X165250858Y-78192381D01*
X165346096Y-78240000D01*
X165393715Y-78287619D01*
X165441334Y-78382857D01*
X165441334Y-78525714D01*
X165393715Y-78620952D01*
X165346096Y-78668571D01*
X165250858Y-78716190D01*
X164869905Y-78716190D01*
X166298477Y-78192381D02*
X166108000Y-78192381D01*
X166012762Y-78240000D01*
X165965143Y-78287619D01*
X165869905Y-78430476D01*
X165822286Y-78620952D01*
X165822286Y-79001905D01*
X165869905Y-79097143D01*
X165917524Y-79144762D01*
X166012762Y-79192381D01*
X166203239Y-79192381D01*
X166298477Y-79144762D01*
X166346096Y-79097143D01*
X166393715Y-79001905D01*
X166393715Y-78763810D01*
X166346096Y-78668571D01*
X166298477Y-78620952D01*
X166203239Y-78573333D01*
X166012762Y-78573333D01*
X165917524Y-78620952D01*
X165869905Y-78668571D01*
X165822286Y-78763810D01*
X162266334Y-79192381D02*
X161933000Y-78716190D01*
X161694905Y-79192381D02*
X161694905Y-78192381D01*
X162075858Y-78192381D01*
X162171096Y-78240000D01*
X162218715Y-78287619D01*
X162266334Y-78382857D01*
X162266334Y-78525714D01*
X162218715Y-78620952D01*
X162171096Y-78668571D01*
X162075858Y-78716190D01*
X161694905Y-78716190D01*
X163171096Y-78192381D02*
X162694905Y-78192381D01*
X162647286Y-78668571D01*
X162694905Y-78620952D01*
X162790143Y-78573333D01*
X163028239Y-78573333D01*
X163123477Y-78620952D01*
X163171096Y-78668571D01*
X163218715Y-78763810D01*
X163218715Y-79001905D01*
X163171096Y-79097143D01*
X163123477Y-79144762D01*
X163028239Y-79192381D01*
X162790143Y-79192381D01*
X162694905Y-79144762D01*
X162647286Y-79097143D01*
X115911334Y-117927381D02*
X115578000Y-117451190D01*
X115339905Y-117927381D02*
X115339905Y-116927381D01*
X115720858Y-116927381D01*
X115816096Y-116975000D01*
X115863715Y-117022619D01*
X115911334Y-117117857D01*
X115911334Y-117260714D01*
X115863715Y-117355952D01*
X115816096Y-117403571D01*
X115720858Y-117451190D01*
X115339905Y-117451190D01*
X116292286Y-117022619D02*
X116339905Y-116975000D01*
X116435143Y-116927381D01*
X116673239Y-116927381D01*
X116768477Y-116975000D01*
X116816096Y-117022619D01*
X116863715Y-117117857D01*
X116863715Y-117213095D01*
X116816096Y-117355952D01*
X116244667Y-117927381D01*
X116863715Y-117927381D01*
X139406334Y-117927381D02*
X139073000Y-117451190D01*
X138834905Y-117927381D02*
X138834905Y-116927381D01*
X139215858Y-116927381D01*
X139311096Y-116975000D01*
X139358715Y-117022619D01*
X139406334Y-117117857D01*
X139406334Y-117260714D01*
X139358715Y-117355952D01*
X139311096Y-117403571D01*
X139215858Y-117451190D01*
X138834905Y-117451190D01*
X140358715Y-117927381D02*
X139787286Y-117927381D01*
X140073000Y-117927381D02*
X140073000Y-116927381D01*
X139977762Y-117070238D01*
X139882524Y-117165476D01*
X139787286Y-117213095D01*
X169957762Y-79287619D02*
X169862524Y-79240000D01*
X169767286Y-79144762D01*
X169624429Y-79001905D01*
X169529190Y-78954286D01*
X169433952Y-78954286D01*
X169481571Y-79192381D02*
X169386333Y-79144762D01*
X169291095Y-79049524D01*
X169243476Y-78859048D01*
X169243476Y-78525714D01*
X169291095Y-78335238D01*
X169386333Y-78240000D01*
X169481571Y-78192381D01*
X169672048Y-78192381D01*
X169767286Y-78240000D01*
X169862524Y-78335238D01*
X169910143Y-78525714D01*
X169910143Y-78859048D01*
X169862524Y-79049524D01*
X169767286Y-79144762D01*
X169672048Y-79192381D01*
X169481571Y-79192381D01*
X170862524Y-79192381D02*
X170291095Y-79192381D01*
X170576809Y-79192381D02*
X170576809Y-78192381D01*
X170481571Y-78335238D01*
X170386333Y-78430476D01*
X170291095Y-78478095D01*
D12*
X111934667Y-75017381D02*
X111934667Y-75731667D01*
X111887047Y-75874524D01*
X111791809Y-75969762D01*
X111648952Y-76017381D01*
X111553714Y-76017381D01*
X112315619Y-75017381D02*
X112982286Y-75017381D01*
X112553714Y-76017381D01*
X111418810Y-79319381D02*
X111418810Y-78319381D01*
X111847381Y-78414619D02*
X111895000Y-78367000D01*
X111990238Y-78319381D01*
X112228334Y-78319381D01*
X112323572Y-78367000D01*
X112371191Y-78414619D01*
X112418810Y-78509857D01*
X112418810Y-78605095D01*
X112371191Y-78747952D01*
X111799762Y-79319381D01*
X112418810Y-79319381D01*
X113418810Y-79224143D02*
X113371191Y-79271762D01*
X113228334Y-79319381D01*
X113133096Y-79319381D01*
X112990238Y-79271762D01*
X112895000Y-79176524D01*
X112847381Y-79081286D01*
X112799762Y-78890810D01*
X112799762Y-78747952D01*
X112847381Y-78557476D01*
X112895000Y-78462238D01*
X112990238Y-78367000D01*
X113133096Y-78319381D01*
X113228334Y-78319381D01*
X113371191Y-78367000D01*
X113418810Y-78414619D01*
D11*
X123785381Y-90582143D02*
X124785381Y-90344048D01*
X124071095Y-90153571D01*
X124785381Y-89963095D01*
X123785381Y-89725000D01*
X124737762Y-89391667D02*
X124785381Y-89248810D01*
X124785381Y-89010714D01*
X124737762Y-88915476D01*
X124690143Y-88867857D01*
X124594905Y-88820238D01*
X124499667Y-88820238D01*
X124404429Y-88867857D01*
X124356810Y-88915476D01*
X124309190Y-89010714D01*
X124261571Y-89201191D01*
X124213952Y-89296429D01*
X124166333Y-89344048D01*
X124071095Y-89391667D01*
X123975857Y-89391667D01*
X123880619Y-89344048D01*
X123833000Y-89296429D01*
X123785381Y-89201191D01*
X123785381Y-88963095D01*
X123833000Y-88820238D01*
X123880619Y-88439286D02*
X123833000Y-88391667D01*
X123785381Y-88296429D01*
X123785381Y-88058333D01*
X123833000Y-87963095D01*
X123880619Y-87915476D01*
X123975857Y-87867857D01*
X124071095Y-87867857D01*
X124213952Y-87915476D01*
X124785381Y-88486905D01*
X124785381Y-87867857D01*
X124213952Y-87296429D02*
X124166333Y-87391667D01*
X124118714Y-87439286D01*
X124023476Y-87486905D01*
X123975857Y-87486905D01*
X123880619Y-87439286D01*
X123833000Y-87391667D01*
X123785381Y-87296429D01*
X123785381Y-87105952D01*
X123833000Y-87010714D01*
X123880619Y-86963095D01*
X123975857Y-86915476D01*
X124023476Y-86915476D01*
X124118714Y-86963095D01*
X124166333Y-87010714D01*
X124213952Y-87105952D01*
X124213952Y-87296429D01*
X124261571Y-87391667D01*
X124309190Y-87439286D01*
X124404429Y-87486905D01*
X124594905Y-87486905D01*
X124690143Y-87439286D01*
X124737762Y-87391667D01*
X124785381Y-87296429D01*
X124785381Y-87105952D01*
X124737762Y-87010714D01*
X124690143Y-86963095D01*
X124594905Y-86915476D01*
X124404429Y-86915476D01*
X124309190Y-86963095D01*
X124261571Y-87010714D01*
X124213952Y-87105952D01*
X124785381Y-85963095D02*
X124785381Y-86534524D01*
X124785381Y-86248810D02*
X123785381Y-86248810D01*
X123928238Y-86344048D01*
X124023476Y-86439286D01*
X124071095Y-86534524D01*
X124785381Y-85010714D02*
X124785381Y-85582143D01*
X124785381Y-85296429D02*
X123785381Y-85296429D01*
X123928238Y-85391667D01*
X124023476Y-85486905D01*
X124071095Y-85582143D01*
X124404429Y-84582143D02*
X124404429Y-83820238D01*
X123785381Y-83153572D02*
X123785381Y-82963095D01*
X123833000Y-82867857D01*
X123928238Y-82772619D01*
X124118714Y-82725000D01*
X124452048Y-82725000D01*
X124642524Y-82772619D01*
X124737762Y-82867857D01*
X124785381Y-82963095D01*
X124785381Y-83153572D01*
X124737762Y-83248810D01*
X124642524Y-83344048D01*
X124452048Y-83391667D01*
X124118714Y-83391667D01*
X123928238Y-83344048D01*
X123833000Y-83248810D01*
X123785381Y-83153572D01*
X123785381Y-82296429D02*
X124594905Y-82296429D01*
X124690143Y-82248810D01*
X124737762Y-82201191D01*
X124785381Y-82105953D01*
X124785381Y-81915476D01*
X124737762Y-81820238D01*
X124690143Y-81772619D01*
X124594905Y-81725000D01*
X123785381Y-81725000D01*
X123785381Y-81391667D02*
X123785381Y-80820238D01*
X124785381Y-81105953D02*
X123785381Y-81105953D01*
X164687524Y-97349762D02*
X164830381Y-97397381D01*
X165068477Y-97397381D01*
X165163715Y-97349762D01*
X165211334Y-97302143D01*
X165258953Y-97206905D01*
X165258953Y-97111667D01*
X165211334Y-97016429D01*
X165163715Y-96968810D01*
X165068477Y-96921190D01*
X164878000Y-96873571D01*
X164782762Y-96825952D01*
X164735143Y-96778333D01*
X164687524Y-96683095D01*
X164687524Y-96587857D01*
X164735143Y-96492619D01*
X164782762Y-96445000D01*
X164878000Y-96397381D01*
X165116096Y-96397381D01*
X165258953Y-96445000D01*
X165687524Y-96873571D02*
X166020858Y-96873571D01*
X166163715Y-97397381D02*
X165687524Y-97397381D01*
X165687524Y-96397381D01*
X166163715Y-96397381D01*
X167163715Y-97397381D02*
X166830381Y-96921190D01*
X166592286Y-97397381D02*
X166592286Y-96397381D01*
X166973239Y-96397381D01*
X167068477Y-96445000D01*
X167116096Y-96492619D01*
X167163715Y-96587857D01*
X167163715Y-96730714D01*
X167116096Y-96825952D01*
X167068477Y-96873571D01*
X166973239Y-96921190D01*
X166592286Y-96921190D01*
X167449429Y-96397381D02*
X167782762Y-97397381D01*
X168116096Y-96397381D01*
X168639905Y-96397381D02*
X168830382Y-96397381D01*
X168925620Y-96445000D01*
X169020858Y-96540238D01*
X169068477Y-96730714D01*
X169068477Y-97064048D01*
X169020858Y-97254524D01*
X168925620Y-97349762D01*
X168830382Y-97397381D01*
X168639905Y-97397381D01*
X168544667Y-97349762D01*
X168449429Y-97254524D01*
X168401810Y-97064048D01*
X168401810Y-96730714D01*
X168449429Y-96540238D01*
X168544667Y-96445000D01*
X168639905Y-96397381D01*
X155090905Y-108529381D02*
X155090905Y-107529381D01*
X155329000Y-107529381D01*
X155471858Y-107577000D01*
X155567096Y-107672238D01*
X155614715Y-107767476D01*
X155662334Y-107957952D01*
X155662334Y-108100810D01*
X155614715Y-108291286D01*
X155567096Y-108386524D01*
X155471858Y-108481762D01*
X155329000Y-108529381D01*
X155090905Y-108529381D01*
X156043286Y-107624619D02*
X156090905Y-107577000D01*
X156186143Y-107529381D01*
X156424239Y-107529381D01*
X156519477Y-107577000D01*
X156567096Y-107624619D01*
X156614715Y-107719857D01*
X156614715Y-107815095D01*
X156567096Y-107957952D01*
X155995667Y-108529381D01*
X156614715Y-108529381D01*
X155344905Y-118689381D02*
X155344905Y-117689381D01*
X155583000Y-117689381D01*
X155725858Y-117737000D01*
X155821096Y-117832238D01*
X155868715Y-117927476D01*
X155916334Y-118117952D01*
X155916334Y-118260810D01*
X155868715Y-118451286D01*
X155821096Y-118546524D01*
X155725858Y-118641762D01*
X155583000Y-118689381D01*
X155344905Y-118689381D01*
X156868715Y-118689381D02*
X156297286Y-118689381D01*
X156583000Y-118689381D02*
X156583000Y-117689381D01*
X156487762Y-117832238D01*
X156392524Y-117927476D01*
X156297286Y-117975095D01*
X114641334Y-89257143D02*
X114593715Y-89304762D01*
X114450858Y-89352381D01*
X114355620Y-89352381D01*
X114212762Y-89304762D01*
X114117524Y-89209524D01*
X114069905Y-89114286D01*
X114022286Y-88923810D01*
X114022286Y-88780952D01*
X114069905Y-88590476D01*
X114117524Y-88495238D01*
X114212762Y-88400000D01*
X114355620Y-88352381D01*
X114450858Y-88352381D01*
X114593715Y-88400000D01*
X114641334Y-88447619D01*
X115117524Y-89352381D02*
X115308000Y-89352381D01*
X115403239Y-89304762D01*
X115450858Y-89257143D01*
X115546096Y-89114286D01*
X115593715Y-88923810D01*
X115593715Y-88542857D01*
X115546096Y-88447619D01*
X115498477Y-88400000D01*
X115403239Y-88352381D01*
X115212762Y-88352381D01*
X115117524Y-88400000D01*
X115069905Y-88447619D01*
X115022286Y-88542857D01*
X115022286Y-88780952D01*
X115069905Y-88876190D01*
X115117524Y-88923810D01*
X115212762Y-88971429D01*
X115403239Y-88971429D01*
X115498477Y-88923810D01*
X115546096Y-88876190D01*
X115593715Y-88780952D01*
X120991334Y-89257143D02*
X120943715Y-89304762D01*
X120800858Y-89352381D01*
X120705620Y-89352381D01*
X120562762Y-89304762D01*
X120467524Y-89209524D01*
X120419905Y-89114286D01*
X120372286Y-88923810D01*
X120372286Y-88780952D01*
X120419905Y-88590476D01*
X120467524Y-88495238D01*
X120562762Y-88400000D01*
X120705620Y-88352381D01*
X120800858Y-88352381D01*
X120943715Y-88400000D01*
X120991334Y-88447619D01*
X121562762Y-88780952D02*
X121467524Y-88733333D01*
X121419905Y-88685714D01*
X121372286Y-88590476D01*
X121372286Y-88542857D01*
X121419905Y-88447619D01*
X121467524Y-88400000D01*
X121562762Y-88352381D01*
X121753239Y-88352381D01*
X121848477Y-88400000D01*
X121896096Y-88447619D01*
X121943715Y-88542857D01*
X121943715Y-88590476D01*
X121896096Y-88685714D01*
X121848477Y-88733333D01*
X121753239Y-88780952D01*
X121562762Y-88780952D01*
X121467524Y-88828571D01*
X121419905Y-88876190D01*
X121372286Y-88971429D01*
X121372286Y-89161905D01*
X121419905Y-89257143D01*
X121467524Y-89304762D01*
X121562762Y-89352381D01*
X121753239Y-89352381D01*
X121848477Y-89304762D01*
X121896096Y-89257143D01*
X121943715Y-89161905D01*
X121943715Y-88971429D01*
X121896096Y-88876190D01*
X121848477Y-88828571D01*
X121753239Y-88780952D01*
X159726334Y-89257143D02*
X159678715Y-89304762D01*
X159535858Y-89352381D01*
X159440620Y-89352381D01*
X159297762Y-89304762D01*
X159202524Y-89209524D01*
X159154905Y-89114286D01*
X159107286Y-88923810D01*
X159107286Y-88780952D01*
X159154905Y-88590476D01*
X159202524Y-88495238D01*
X159297762Y-88400000D01*
X159440620Y-88352381D01*
X159535858Y-88352381D01*
X159678715Y-88400000D01*
X159726334Y-88447619D01*
X160583477Y-88352381D02*
X160393000Y-88352381D01*
X160297762Y-88400000D01*
X160250143Y-88447619D01*
X160154905Y-88590476D01*
X160107286Y-88780952D01*
X160107286Y-89161905D01*
X160154905Y-89257143D01*
X160202524Y-89304762D01*
X160297762Y-89352381D01*
X160488239Y-89352381D01*
X160583477Y-89304762D01*
X160631096Y-89257143D01*
X160678715Y-89161905D01*
X160678715Y-88923810D01*
X160631096Y-88828571D01*
X160583477Y-88780952D01*
X160488239Y-88733333D01*
X160297762Y-88733333D01*
X160202524Y-88780952D01*
X160154905Y-88828571D01*
X160107286Y-88923810D01*
X141311334Y-89257143D02*
X141263715Y-89304762D01*
X141120858Y-89352381D01*
X141025620Y-89352381D01*
X140882762Y-89304762D01*
X140787524Y-89209524D01*
X140739905Y-89114286D01*
X140692286Y-88923810D01*
X140692286Y-88780952D01*
X140739905Y-88590476D01*
X140787524Y-88495238D01*
X140882762Y-88400000D01*
X141025620Y-88352381D01*
X141120858Y-88352381D01*
X141263715Y-88400000D01*
X141311334Y-88447619D01*
X142216096Y-88352381D02*
X141739905Y-88352381D01*
X141692286Y-88828571D01*
X141739905Y-88780952D01*
X141835143Y-88733333D01*
X142073239Y-88733333D01*
X142168477Y-88780952D01*
X142216096Y-88828571D01*
X142263715Y-88923810D01*
X142263715Y-89161905D01*
X142216096Y-89257143D01*
X142168477Y-89304762D01*
X142073239Y-89352381D01*
X141835143Y-89352381D01*
X141739905Y-89304762D01*
X141692286Y-89257143D01*
X142581334Y-98147143D02*
X142533715Y-98194762D01*
X142390858Y-98242381D01*
X142295620Y-98242381D01*
X142152762Y-98194762D01*
X142057524Y-98099524D01*
X142009905Y-98004286D01*
X141962286Y-97813810D01*
X141962286Y-97670952D01*
X142009905Y-97480476D01*
X142057524Y-97385238D01*
X142152762Y-97290000D01*
X142295620Y-97242381D01*
X142390858Y-97242381D01*
X142533715Y-97290000D01*
X142581334Y-97337619D01*
X143438477Y-97575714D02*
X143438477Y-98242381D01*
X143200381Y-97194762D02*
X142962286Y-97909048D01*
X143581334Y-97909048D01*
X133056334Y-114657143D02*
X133008715Y-114704762D01*
X132865858Y-114752381D01*
X132770620Y-114752381D01*
X132627762Y-114704762D01*
X132532524Y-114609524D01*
X132484905Y-114514286D01*
X132437286Y-114323810D01*
X132437286Y-114180952D01*
X132484905Y-113990476D01*
X132532524Y-113895238D01*
X132627762Y-113800000D01*
X132770620Y-113752381D01*
X132865858Y-113752381D01*
X133008715Y-113800000D01*
X133056334Y-113847619D01*
X133389667Y-113752381D02*
X134008715Y-113752381D01*
X133675381Y-114133333D01*
X133818239Y-114133333D01*
X133913477Y-114180952D01*
X133961096Y-114228571D01*
X134008715Y-114323810D01*
X134008715Y-114561905D01*
X133961096Y-114657143D01*
X133913477Y-114704762D01*
X133818239Y-114752381D01*
X133532524Y-114752381D01*
X133437286Y-114704762D01*
X133389667Y-114657143D01*
X143851334Y-89257143D02*
X143803715Y-89304762D01*
X143660858Y-89352381D01*
X143565620Y-89352381D01*
X143422762Y-89304762D01*
X143327524Y-89209524D01*
X143279905Y-89114286D01*
X143232286Y-88923810D01*
X143232286Y-88780952D01*
X143279905Y-88590476D01*
X143327524Y-88495238D01*
X143422762Y-88400000D01*
X143565620Y-88352381D01*
X143660858Y-88352381D01*
X143803715Y-88400000D01*
X143851334Y-88447619D01*
X144803715Y-89352381D02*
X144232286Y-89352381D01*
X144518000Y-89352381D02*
X144518000Y-88352381D01*
X144422762Y-88495238D01*
X144327524Y-88590476D01*
X144232286Y-88638095D01*
X148931334Y-88495143D02*
X148883715Y-88542762D01*
X148740858Y-88590381D01*
X148645620Y-88590381D01*
X148502762Y-88542762D01*
X148407524Y-88447524D01*
X148359905Y-88352286D01*
X148312286Y-88161810D01*
X148312286Y-88018952D01*
X148359905Y-87828476D01*
X148407524Y-87733238D01*
X148502762Y-87638000D01*
X148645620Y-87590381D01*
X148740858Y-87590381D01*
X148883715Y-87638000D01*
X148931334Y-87685619D01*
X149312286Y-87685619D02*
X149359905Y-87638000D01*
X149455143Y-87590381D01*
X149693239Y-87590381D01*
X149788477Y-87638000D01*
X149836096Y-87685619D01*
X149883715Y-87780857D01*
X149883715Y-87876095D01*
X149836096Y-88018952D01*
X149264667Y-88590381D01*
X149883715Y-88590381D01*
X151179429Y-95225952D02*
X151179429Y-94464047D01*
X151560381Y-94844999D02*
X150798476Y-94844999D01*
D16*
X146122571Y-103468714D02*
X146238685Y-103468714D01*
X146296743Y-103505000D01*
X146354800Y-103577571D01*
X146383828Y-103722714D01*
X146383828Y-103976714D01*
X146354800Y-104121857D01*
X146296743Y-104194429D01*
X146238685Y-104230714D01*
X146122571Y-104230714D01*
X146064514Y-104194429D01*
X146006457Y-104121857D01*
X145977428Y-103976714D01*
X145977428Y-103722714D01*
X146006457Y-103577571D01*
X146064514Y-103505000D01*
X146122571Y-103468714D01*
X146645086Y-103722714D02*
X146645086Y-104484714D01*
X146645086Y-103759000D02*
X146703143Y-103722714D01*
X146819257Y-103722714D01*
X146877314Y-103759000D01*
X146906343Y-103795286D01*
X146935372Y-103867857D01*
X146935372Y-104085571D01*
X146906343Y-104158143D01*
X146877314Y-104194429D01*
X146819257Y-104230714D01*
X146703143Y-104230714D01*
X146645086Y-104194429D01*
X147428857Y-104194429D02*
X147370800Y-104230714D01*
X147254686Y-104230714D01*
X147196629Y-104194429D01*
X147167600Y-104121857D01*
X147167600Y-103831571D01*
X147196629Y-103759000D01*
X147254686Y-103722714D01*
X147370800Y-103722714D01*
X147428857Y-103759000D01*
X147457886Y-103831571D01*
X147457886Y-103904143D01*
X147167600Y-103976714D01*
X147719143Y-103722714D02*
X147719143Y-104230714D01*
X147719143Y-103795286D02*
X147748171Y-103759000D01*
X147806229Y-103722714D01*
X147893314Y-103722714D01*
X147951371Y-103759000D01*
X147980400Y-103831571D01*
X147980400Y-104230714D01*
X148270686Y-104230714D02*
X148270686Y-103468714D01*
X148270686Y-103831571D02*
X148619029Y-103831571D01*
X148619029Y-104230714D02*
X148619029Y-103468714D01*
X149170572Y-104230714D02*
X149170572Y-103831571D01*
X149141543Y-103759000D01*
X149083486Y-103722714D01*
X148967372Y-103722714D01*
X148909315Y-103759000D01*
X149170572Y-104194429D02*
X149112515Y-104230714D01*
X148967372Y-104230714D01*
X148909315Y-104194429D01*
X148880286Y-104121857D01*
X148880286Y-104049286D01*
X148909315Y-103976714D01*
X148967372Y-103940429D01*
X149112515Y-103940429D01*
X149170572Y-103904143D01*
X149460858Y-104230714D02*
X149460858Y-103722714D01*
X149460858Y-103867857D02*
X149489886Y-103795286D01*
X149518915Y-103759000D01*
X149576972Y-103722714D01*
X149635029Y-103722714D01*
X150099486Y-104230714D02*
X150099486Y-103468714D01*
X150099486Y-104194429D02*
X150041429Y-104230714D01*
X149925315Y-104230714D01*
X149867257Y-104194429D01*
X149838229Y-104158143D01*
X149809200Y-104085571D01*
X149809200Y-103867857D01*
X149838229Y-103795286D01*
X149867257Y-103759000D01*
X149925315Y-103722714D01*
X150041429Y-103722714D01*
X150099486Y-103759000D01*
X150331715Y-103722714D02*
X150447829Y-104230714D01*
X150563943Y-103867857D01*
X150680058Y-104230714D01*
X150796172Y-103722714D01*
X151289658Y-104230714D02*
X151289658Y-103831571D01*
X151260629Y-103759000D01*
X151202572Y-103722714D01*
X151086458Y-103722714D01*
X151028401Y-103759000D01*
X151289658Y-104194429D02*
X151231601Y-104230714D01*
X151086458Y-104230714D01*
X151028401Y-104194429D01*
X150999372Y-104121857D01*
X150999372Y-104049286D01*
X151028401Y-103976714D01*
X151086458Y-103940429D01*
X151231601Y-103940429D01*
X151289658Y-103904143D01*
X151579944Y-104230714D02*
X151579944Y-103722714D01*
X151579944Y-103867857D02*
X151608972Y-103795286D01*
X151638001Y-103759000D01*
X151696058Y-103722714D01*
X151754115Y-103722714D01*
X152189543Y-104194429D02*
X152131486Y-104230714D01*
X152015372Y-104230714D01*
X151957315Y-104194429D01*
X151928286Y-104121857D01*
X151928286Y-103831571D01*
X151957315Y-103759000D01*
X152015372Y-103722714D01*
X152131486Y-103722714D01*
X152189543Y-103759000D01*
X152218572Y-103831571D01*
X152218572Y-103904143D01*
X151928286Y-103976714D01*
D11*
X128881334Y-117927381D02*
X128405143Y-117927381D01*
X128405143Y-116927381D01*
X129214667Y-117927381D02*
X129214667Y-116927381D01*
X129452762Y-116927381D01*
X129595620Y-116975000D01*
X129690858Y-117070238D01*
X129738477Y-117165476D01*
X129786096Y-117355952D01*
X129786096Y-117498810D01*
X129738477Y-117689286D01*
X129690858Y-117784524D01*
X129595620Y-117879762D01*
X129452762Y-117927381D01*
X129214667Y-117927381D01*
X130786096Y-117927381D02*
X130452762Y-117451190D01*
X130214667Y-117927381D02*
X130214667Y-116927381D01*
X130595620Y-116927381D01*
X130690858Y-116975000D01*
X130738477Y-117022619D01*
X130786096Y-117117857D01*
X130786096Y-117260714D01*
X130738477Y-117355952D01*
X130690858Y-117403571D01*
X130595620Y-117451190D01*
X130214667Y-117451190D01*
X131738477Y-117927381D02*
X131167048Y-117927381D01*
X131452762Y-117927381D02*
X131452762Y-116927381D01*
X131357524Y-117070238D01*
X131262286Y-117165476D01*
X131167048Y-117213095D01*
X128714667Y-125547381D02*
X128238476Y-125547381D01*
X128238476Y-124547381D01*
X129048000Y-125547381D02*
X129048000Y-124547381D01*
X130048000Y-124595000D02*
X129952762Y-124547381D01*
X129809905Y-124547381D01*
X129667047Y-124595000D01*
X129571809Y-124690238D01*
X129524190Y-124785476D01*
X129476571Y-124975952D01*
X129476571Y-125118810D01*
X129524190Y-125309286D01*
X129571809Y-125404524D01*
X129667047Y-125499762D01*
X129809905Y-125547381D01*
X129905143Y-125547381D01*
X130048000Y-125499762D01*
X130095619Y-125452143D01*
X130095619Y-125118810D01*
X129905143Y-125118810D01*
X130524190Y-125547381D02*
X130524190Y-124547381D01*
X130524190Y-125023571D02*
X131095619Y-125023571D01*
X131095619Y-125547381D02*
X131095619Y-124547381D01*
X131428952Y-124547381D02*
X132000381Y-124547381D01*
X131714666Y-125547381D02*
X131714666Y-124547381D01*
X172259667Y-118242381D02*
X172259667Y-118956667D01*
X172212047Y-119099524D01*
X172116809Y-119194762D01*
X171973952Y-119242381D01*
X171878714Y-119242381D01*
X172640619Y-118242381D02*
X173259667Y-118242381D01*
X172926333Y-118623333D01*
X173069191Y-118623333D01*
X173164429Y-118670952D01*
X173212048Y-118718571D01*
X173259667Y-118813810D01*
X173259667Y-119051905D01*
X173212048Y-119147143D01*
X173164429Y-119194762D01*
X173069191Y-119242381D01*
X172783476Y-119242381D01*
X172688238Y-119194762D01*
X172640619Y-119147143D01*
X172648714Y-115384762D02*
X172791571Y-115432381D01*
X173029667Y-115432381D01*
X173124905Y-115384762D01*
X173172524Y-115337143D01*
X173220143Y-115241905D01*
X173220143Y-115146667D01*
X173172524Y-115051429D01*
X173124905Y-115003810D01*
X173029667Y-114956190D01*
X172839190Y-114908571D01*
X172743952Y-114860952D01*
X172696333Y-114813333D01*
X172648714Y-114718095D01*
X172648714Y-114622857D01*
X172696333Y-114527619D01*
X172743952Y-114480000D01*
X172839190Y-114432381D01*
X173077286Y-114432381D01*
X173220143Y-114480000D01*
X173839190Y-114432381D02*
X174029667Y-114432381D01*
X174124905Y-114480000D01*
X174220143Y-114575238D01*
X174267762Y-114765714D01*
X174267762Y-115099048D01*
X174220143Y-115289524D01*
X174124905Y-115384762D01*
X174029667Y-115432381D01*
X173839190Y-115432381D01*
X173743952Y-115384762D01*
X173648714Y-115289524D01*
X173601095Y-115099048D01*
X173601095Y-114765714D01*
X173648714Y-114575238D01*
X173743952Y-114480000D01*
X173839190Y-114432381D01*
X175172524Y-115432381D02*
X174696333Y-115432381D01*
X174696333Y-114432381D01*
X172259667Y-108082381D02*
X172259667Y-108796667D01*
X172212047Y-108939524D01*
X172116809Y-109034762D01*
X171973952Y-109082381D01*
X171878714Y-109082381D01*
X173212048Y-108082381D02*
X172735857Y-108082381D01*
X172688238Y-108558571D01*
X172735857Y-108510952D01*
X172831095Y-108463333D01*
X173069191Y-108463333D01*
X173164429Y-108510952D01*
X173212048Y-108558571D01*
X173259667Y-108653810D01*
X173259667Y-108891905D01*
X173212048Y-108987143D01*
X173164429Y-109034762D01*
X173069191Y-109082381D01*
X172831095Y-109082381D01*
X172735857Y-109034762D01*
X172688238Y-108987143D01*
X172005857Y-105272381D02*
X172005857Y-104272381D01*
X172386810Y-104272381D01*
X172482048Y-104320000D01*
X172529667Y-104367619D01*
X172577286Y-104462857D01*
X172577286Y-104605714D01*
X172529667Y-104700952D01*
X172482048Y-104748571D01*
X172386810Y-104796190D01*
X172005857Y-104796190D01*
X173005857Y-104272381D02*
X173005857Y-105081905D01*
X173053476Y-105177143D01*
X173101095Y-105224762D01*
X173196333Y-105272381D01*
X173386810Y-105272381D01*
X173482048Y-105224762D01*
X173529667Y-105177143D01*
X173577286Y-105081905D01*
X173577286Y-104272381D01*
X174053476Y-105272381D02*
X174053476Y-104272381D01*
X174386810Y-104986667D01*
X174720143Y-104272381D01*
X174720143Y-105272381D01*
X175196333Y-105272381D02*
X175196333Y-104272381D01*
X175577286Y-104272381D01*
X175672524Y-104320000D01*
X175720143Y-104367619D01*
X175767762Y-104462857D01*
X175767762Y-104605714D01*
X175720143Y-104700952D01*
X175672524Y-104748571D01*
X175577286Y-104796190D01*
X175196333Y-104796190D01*
X133897762Y-117927381D02*
X133564428Y-117451190D01*
X133326333Y-117927381D02*
X133326333Y-116927381D01*
X133707286Y-116927381D01*
X133802524Y-116975000D01*
X133850143Y-117022619D01*
X133897762Y-117117857D01*
X133897762Y-117260714D01*
X133850143Y-117355952D01*
X133802524Y-117403571D01*
X133707286Y-117451190D01*
X133326333Y-117451190D01*
X134183476Y-116927381D02*
X134516809Y-117927381D01*
X134850143Y-116927381D01*
X135707286Y-117927381D02*
X135135857Y-117927381D01*
X135421571Y-117927381D02*
X135421571Y-116927381D01*
X135326333Y-117070238D01*
X135231095Y-117165476D01*
X135135857Y-117213095D01*
X123682286Y-94702381D02*
X123682286Y-95416667D01*
X123634666Y-95559524D01*
X123539428Y-95654762D01*
X123396571Y-95702381D01*
X123301333Y-95702381D01*
X124348952Y-94702381D02*
X124539429Y-94702381D01*
X124634667Y-94750000D01*
X124729905Y-94845238D01*
X124777524Y-95035714D01*
X124777524Y-95369048D01*
X124729905Y-95559524D01*
X124634667Y-95654762D01*
X124539429Y-95702381D01*
X124348952Y-95702381D01*
X124253714Y-95654762D01*
X124158476Y-95559524D01*
X124110857Y-95369048D01*
X124110857Y-95035714D01*
X124158476Y-94845238D01*
X124253714Y-94750000D01*
X124348952Y-94702381D01*
X125396571Y-95226190D02*
X125396571Y-95702381D01*
X125063238Y-94702381D02*
X125396571Y-95226190D01*
X125729905Y-94702381D01*
X126587048Y-95702381D02*
X126015619Y-95702381D01*
X126301333Y-95702381D02*
X126301333Y-94702381D01*
X126206095Y-94845238D01*
X126110857Y-94940476D01*
X126015619Y-94988095D01*
X123777999Y-93749762D02*
X123920856Y-93797381D01*
X124158952Y-93797381D01*
X124254190Y-93749762D01*
X124301809Y-93702143D01*
X124349428Y-93606905D01*
X124349428Y-93511667D01*
X124301809Y-93416429D01*
X124254190Y-93368810D01*
X124158952Y-93321190D01*
X123968475Y-93273571D01*
X123873237Y-93225952D01*
X123825618Y-93178333D01*
X123777999Y-93083095D01*
X123777999Y-92987857D01*
X123825618Y-92892619D01*
X123873237Y-92845000D01*
X123968475Y-92797381D01*
X124206571Y-92797381D01*
X124349428Y-92845000D01*
X125158952Y-93749762D02*
X125063714Y-93797381D01*
X124873237Y-93797381D01*
X124777999Y-93749762D01*
X124730380Y-93654524D01*
X124730380Y-93273571D01*
X124777999Y-93178333D01*
X124873237Y-93130714D01*
X125063714Y-93130714D01*
X125158952Y-93178333D01*
X125206571Y-93273571D01*
X125206571Y-93368810D01*
X124730380Y-93464048D01*
X126016095Y-93749762D02*
X125920857Y-93797381D01*
X125730380Y-93797381D01*
X125635142Y-93749762D01*
X125587523Y-93654524D01*
X125587523Y-93273571D01*
X125635142Y-93178333D01*
X125730380Y-93130714D01*
X125920857Y-93130714D01*
X126016095Y-93178333D01*
X126063714Y-93273571D01*
X126063714Y-93368810D01*
X125587523Y-93464048D01*
X126873238Y-93749762D02*
X126778000Y-93797381D01*
X126587523Y-93797381D01*
X126492285Y-93749762D01*
X126444666Y-93654524D01*
X126444666Y-93273571D01*
X126492285Y-93178333D01*
X126587523Y-93130714D01*
X126778000Y-93130714D01*
X126873238Y-93178333D01*
X126920857Y-93273571D01*
X126920857Y-93368810D01*
X126444666Y-93464048D01*
X127778000Y-93797381D02*
X127778000Y-92797381D01*
X127778000Y-93749762D02*
X127682762Y-93797381D01*
X127492285Y-93797381D01*
X127397047Y-93749762D01*
X127349428Y-93702143D01*
X127301809Y-93606905D01*
X127301809Y-93321190D01*
X127349428Y-93225952D01*
X127397047Y-93178333D01*
X127492285Y-93130714D01*
X127682762Y-93130714D01*
X127778000Y-93178333D01*
X128539905Y-92797381D02*
X128539905Y-93511667D01*
X128492285Y-93654524D01*
X128397047Y-93749762D01*
X128254190Y-93797381D01*
X128158952Y-93797381D01*
X129158952Y-93797381D02*
X129063714Y-93749762D01*
X129016095Y-93702143D01*
X128968476Y-93606905D01*
X128968476Y-93321190D01*
X129016095Y-93225952D01*
X129063714Y-93178333D01*
X129158952Y-93130714D01*
X129301810Y-93130714D01*
X129397048Y-93178333D01*
X129444667Y-93225952D01*
X129492286Y-93321190D01*
X129492286Y-93606905D01*
X129444667Y-93702143D01*
X129397048Y-93749762D01*
X129301810Y-93797381D01*
X129158952Y-93797381D01*
X129825619Y-93130714D02*
X130063714Y-93797381D01*
X130301810Y-93130714D02*
X130063714Y-93797381D01*
X129968476Y-94035476D01*
X129920857Y-94083095D01*
X129825619Y-94130714D01*
X130635143Y-93749762D02*
X130730381Y-93797381D01*
X130920857Y-93797381D01*
X131016096Y-93749762D01*
X131063715Y-93654524D01*
X131063715Y-93606905D01*
X131016096Y-93511667D01*
X130920857Y-93464048D01*
X130778000Y-93464048D01*
X130682762Y-93416429D01*
X130635143Y-93321190D01*
X130635143Y-93273571D01*
X130682762Y-93178333D01*
X130778000Y-93130714D01*
X130920857Y-93130714D01*
X131016096Y-93178333D01*
X131349429Y-93130714D02*
X131730381Y-93130714D01*
X131492286Y-92797381D02*
X131492286Y-93654524D01*
X131539905Y-93749762D01*
X131635143Y-93797381D01*
X131730381Y-93797381D01*
X132063715Y-93797381D02*
X132063715Y-93130714D01*
X132063715Y-92797381D02*
X132016096Y-92845000D01*
X132063715Y-92892619D01*
X132111334Y-92845000D01*
X132063715Y-92797381D01*
X132063715Y-92892619D01*
X132968477Y-93749762D02*
X132873239Y-93797381D01*
X132682762Y-93797381D01*
X132587524Y-93749762D01*
X132539905Y-93702143D01*
X132492286Y-93606905D01*
X132492286Y-93321190D01*
X132539905Y-93225952D01*
X132587524Y-93178333D01*
X132682762Y-93130714D01*
X132873239Y-93130714D01*
X132968477Y-93178333D01*
X133397048Y-93797381D02*
X133397048Y-92797381D01*
X133492286Y-93416429D02*
X133778001Y-93797381D01*
X133778001Y-93130714D02*
X133397048Y-93511667D01*
D12*
X115030382Y-92638571D02*
X114697048Y-92638571D01*
X114697048Y-93162381D02*
X114697048Y-92162381D01*
X115173239Y-92162381D01*
X115554191Y-93162381D02*
X115554191Y-92162381D01*
X116601810Y-93162381D02*
X116268476Y-92686190D01*
X116030381Y-93162381D02*
X116030381Y-92162381D01*
X116411334Y-92162381D01*
X116506572Y-92210000D01*
X116554191Y-92257619D01*
X116601810Y-92352857D01*
X116601810Y-92495714D01*
X116554191Y-92590952D01*
X116506572Y-92638571D01*
X116411334Y-92686190D01*
X116030381Y-92686190D01*
X117030381Y-92638571D02*
X117363715Y-92638571D01*
X117506572Y-93162381D02*
X117030381Y-93162381D01*
X117030381Y-92162381D01*
X117506572Y-92162381D01*
X133778000Y-99671190D02*
X133778000Y-100147381D01*
X133444667Y-99147381D02*
X133778000Y-99671190D01*
X134111334Y-99147381D01*
X128444667Y-104647381D02*
X129111334Y-105647381D01*
X129111334Y-104647381D02*
X128444667Y-105647381D01*
%LPC*%
D17*
X155448000Y-90275000D03*
X155448000Y-93875000D03*
D18*
X133528000Y-88225000D03*
X136728000Y-88225000D03*
X133528000Y-83225000D03*
X136728000Y-83225000D03*
D19*
X121158000Y-119935000D03*
X121158000Y-122635000D03*
X174498000Y-83265000D03*
X174498000Y-80565000D03*
X165608000Y-83265000D03*
X165608000Y-80565000D03*
X162433000Y-83265000D03*
X162433000Y-80565000D03*
X116078000Y-119935000D03*
X116078000Y-122635000D03*
D20*
X138223000Y-120015000D03*
X140923000Y-120015000D03*
D21*
X171003000Y-80615000D03*
X170053000Y-80615000D03*
X169103000Y-80615000D03*
X169103000Y-83215000D03*
X171003000Y-83215000D03*
X170053000Y-83215000D03*
D22*
X156718000Y-75565000D03*
X159258000Y-75565000D03*
X161798000Y-75565000D03*
X164338000Y-75565000D03*
X166878000Y-75565000D03*
X169418000Y-75565000D03*
X171958000Y-75565000D03*
X174498000Y-75565000D03*
X129794000Y-75565000D03*
X132334000Y-75565000D03*
X134874000Y-75565000D03*
X137414000Y-75565000D03*
X139954000Y-75565000D03*
X142494000Y-75565000D03*
X145034000Y-75565000D03*
X147574000Y-75565000D03*
X150114000Y-75565000D03*
X152654000Y-75565000D03*
X161798000Y-123825000D03*
X164338000Y-123825000D03*
X166878000Y-123825000D03*
X169418000Y-123825000D03*
X171958000Y-123825000D03*
X174498000Y-123825000D03*
X138938000Y-123825000D03*
X141478000Y-123825000D03*
X144018000Y-123825000D03*
X146558000Y-123825000D03*
X149098000Y-123825000D03*
X151638000Y-123825000D03*
X154178000Y-123825000D03*
X156718000Y-123825000D03*
D23*
X114808000Y-75565000D03*
D24*
X117348000Y-75565000D03*
X119888000Y-75565000D03*
X122428000Y-75565000D03*
D23*
X126873000Y-83185000D03*
D24*
X126873000Y-85725000D03*
X126873000Y-88265000D03*
D23*
X164338000Y-89535000D03*
D24*
X164338000Y-92075000D03*
X164338000Y-94615000D03*
D23*
X166878000Y-89535000D03*
D24*
X166878000Y-92075000D03*
X166878000Y-94615000D03*
D23*
X169418000Y-89535000D03*
D24*
X169418000Y-92075000D03*
X169418000Y-94615000D03*
D25*
X157988000Y-107274360D03*
X157988000Y-102275640D03*
X157988000Y-117434360D03*
X157988000Y-112435640D03*
D26*
X114808000Y-84475000D03*
X114808000Y-86975000D03*
X121158000Y-84475000D03*
X121158000Y-86975000D03*
X159893000Y-90825000D03*
X159893000Y-93325000D03*
X141478000Y-84475000D03*
X141478000Y-86975000D03*
X142748000Y-99715000D03*
X142748000Y-102215000D03*
D27*
X128798000Y-114300000D03*
X131298000Y-114300000D03*
D26*
X144018000Y-93325000D03*
X144018000Y-90825000D03*
D17*
X149098000Y-93875000D03*
X149098000Y-90275000D03*
D28*
X130048000Y-119583200D03*
X130048000Y-122986800D03*
D29*
X126238000Y-75565000D03*
X177038000Y-90805000D03*
X177038000Y-118745000D03*
X124968000Y-123825000D03*
D30*
X166878000Y-112435000D03*
D31*
X166878000Y-117435000D03*
X166878000Y-115935000D03*
D30*
X166878000Y-102275000D03*
D31*
X166878000Y-107275000D03*
X166878000Y-105775000D03*
D32*
X133493000Y-123085000D03*
X135493000Y-123085000D03*
D33*
X134493000Y-119785000D03*
D34*
X133893000Y-123585000D03*
X135093000Y-123585000D03*
D28*
X116028000Y-102945000D03*
X116028000Y-96445000D03*
X120528000Y-96445000D03*
X120528000Y-102945000D03*
X138428000Y-102195000D03*
X138428000Y-99695000D03*
X138428000Y-97195000D03*
X131278000Y-109695000D03*
X128778000Y-109695000D03*
X126278000Y-109695000D03*
M02*
