G04 #@! TF.FileFunction,Profile,NP*
%FSLAX46Y46*%
G04 Gerber Fmt 4.6, Leading zero omitted, Abs format (unit mm)*
G04 Created by KiCad (PCBNEW 4.0.7-e0-6372~58~ubuntu16.04.1) date Sat Aug 26 16:44:31 2017*
%MOMM*%
%LPD*%
G01*
G04 APERTURE LIST*
%ADD10C,0.100000*%
%ADD11C,0.150000*%
G04 APERTURE END LIST*
D10*
D11*
X176403000Y-126365000D02*
G75*
G03X177038000Y-125730000I0J635000D01*
G01*
X110998000Y-125730000D02*
G75*
G03X111633000Y-126365000I635000J0D01*
G01*
X111633000Y-73025000D02*
G75*
G03X110998000Y-73660000I0J-635000D01*
G01*
X179578000Y-103505000D02*
X179578000Y-121285000D01*
X179578000Y-93345000D02*
X179578000Y-88519000D01*
X173863000Y-102870000D02*
X178943000Y-102870000D01*
X173228000Y-94615000D02*
X173228000Y-102235000D01*
X178943000Y-93980000D02*
X173863000Y-93980000D01*
X179578000Y-103505000D02*
G75*
G03X178943000Y-102870000I-635000J0D01*
G01*
X178943000Y-93980000D02*
G75*
G03X179578000Y-93345000I0J635000D01*
G01*
X173863000Y-93980000D02*
G75*
G03X173228000Y-94615000I0J-635000D01*
G01*
X173228000Y-102235000D02*
G75*
G03X173863000Y-102870000I635000J0D01*
G01*
X177038000Y-74549000D02*
X175514000Y-73025000D01*
X177038000Y-85979000D02*
X177038000Y-74549000D01*
X179578000Y-88519000D02*
X177038000Y-85979000D01*
X177038000Y-123825000D02*
X179578000Y-121285000D01*
X177038000Y-125730000D02*
X177038000Y-123825000D01*
X111633000Y-126365000D02*
X176403000Y-126365000D01*
X110998000Y-73660000D02*
X110998000Y-125730000D01*
X175514000Y-73025000D02*
X111633000Y-73025000D01*
M02*
