G04 #@! TF.FileFunction,Copper,L2,Bot,Signal*
%FSLAX46Y46*%
G04 Gerber Fmt 4.6, Leading zero omitted, Abs format (unit mm)*
G04 Created by KiCad (PCBNEW 4.0.7-e0-6372~58~ubuntu16.04.1) date Sat Aug 26 16:44:31 2017*
%MOMM*%
%LPD*%
G01*
G04 APERTURE LIST*
%ADD10C,0.100000*%
%ADD11O,1.727200X2.032000*%
%ADD12R,1.700000X1.700000*%
%ADD13O,1.700000X1.700000*%
%ADD14R,2.000000X3.500000*%
%ADD15R,7.000000X7.000000*%
%ADD16R,0.600000X0.152400*%
%ADD17R,1.500000X1.300000*%
%ADD18O,1.500000X3.000000*%
%ADD19O,3.000000X1.500000*%
%ADD20C,1.600000*%
%ADD21C,2.400000*%
%ADD22R,2.400000X2.400000*%
%ADD23C,0.600000*%
%ADD24C,0.750000*%
%ADD25C,0.250000*%
%ADD26C,0.254000*%
G04 APERTURE END LIST*
D10*
D11*
X156718000Y-75565000D03*
X159258000Y-75565000D03*
X161798000Y-75565000D03*
X164338000Y-75565000D03*
X166878000Y-75565000D03*
X169418000Y-75565000D03*
X171958000Y-75565000D03*
X174498000Y-75565000D03*
X129794000Y-75565000D03*
X132334000Y-75565000D03*
X134874000Y-75565000D03*
X137414000Y-75565000D03*
X139954000Y-75565000D03*
X142494000Y-75565000D03*
X145034000Y-75565000D03*
X147574000Y-75565000D03*
X150114000Y-75565000D03*
X152654000Y-75565000D03*
X161798000Y-123825000D03*
X164338000Y-123825000D03*
X166878000Y-123825000D03*
X169418000Y-123825000D03*
X171958000Y-123825000D03*
X174498000Y-123825000D03*
X138938000Y-123825000D03*
X141478000Y-123825000D03*
X144018000Y-123825000D03*
X146558000Y-123825000D03*
X149098000Y-123825000D03*
X151638000Y-123825000D03*
X154178000Y-123825000D03*
X156718000Y-123825000D03*
D12*
X114808000Y-75565000D03*
D13*
X117348000Y-75565000D03*
X119888000Y-75565000D03*
X122428000Y-75565000D03*
D12*
X126873000Y-83185000D03*
D13*
X126873000Y-85725000D03*
X126873000Y-88265000D03*
D12*
X164338000Y-89535000D03*
D13*
X164338000Y-92075000D03*
X164338000Y-94615000D03*
D12*
X166878000Y-89535000D03*
D13*
X166878000Y-92075000D03*
X166878000Y-94615000D03*
D12*
X169418000Y-89535000D03*
D13*
X169418000Y-92075000D03*
X169418000Y-94615000D03*
D14*
X148068000Y-98295000D03*
X152648000Y-98295000D03*
D15*
X150368000Y-105695000D03*
D16*
X137968000Y-115570000D03*
D17*
X139018000Y-115570000D03*
X136318000Y-115570000D03*
D16*
X137368000Y-115570000D03*
X137968000Y-109855000D03*
D17*
X139018000Y-109855000D03*
X136318000Y-109855000D03*
D16*
X137368000Y-109855000D03*
X137968000Y-111760000D03*
D17*
X139018000Y-111760000D03*
X136318000Y-111760000D03*
D16*
X137368000Y-111760000D03*
X137968000Y-113665000D03*
D17*
X139018000Y-113665000D03*
X136318000Y-113665000D03*
D16*
X137368000Y-113665000D03*
D18*
X121158000Y-109940000D03*
X119158000Y-109940000D03*
X123158000Y-109940000D03*
D19*
X130008000Y-100965000D03*
X130008000Y-98965000D03*
X130008000Y-102965000D03*
D20*
X130048000Y-122986800D03*
X130048000Y-119583200D03*
D21*
X166878000Y-112435000D03*
D22*
X166878000Y-117435000D03*
X166878000Y-115935000D03*
D21*
X166878000Y-102275000D03*
D22*
X166878000Y-107275000D03*
X166878000Y-105775000D03*
D23*
X142113000Y-120015000D03*
X116078000Y-124460000D03*
X174498000Y-85090000D03*
X165608000Y-85090000D03*
X149098000Y-86995000D03*
X138938000Y-101600000D03*
X135128000Y-98425000D03*
X121158000Y-88265000D03*
X114808000Y-88265000D03*
X131953000Y-88265000D03*
X140208000Y-86995000D03*
X119888000Y-113665000D03*
X170053000Y-81915000D03*
X144018000Y-95250000D03*
X134493000Y-115570000D03*
X134493000Y-113665000D03*
X121285000Y-118237000D03*
X152273000Y-94615000D03*
D24*
X143383000Y-121285000D02*
X142113000Y-120015000D01*
X150864000Y-121285000D02*
X143383000Y-121285000D01*
X151638000Y-123825000D02*
X151638000Y-122059000D01*
X151638000Y-122059000D02*
X150864000Y-121285000D01*
X119158000Y-109940000D02*
X119158000Y-112935000D01*
X116078000Y-111520000D02*
X116078000Y-124460000D01*
X119158000Y-109940000D02*
X117658000Y-109940000D01*
X117658000Y-109940000D02*
X116078000Y-111520000D01*
X119158000Y-109940000D02*
X119158000Y-104870000D01*
X119158000Y-104870000D02*
X121063000Y-102965000D01*
X121063000Y-102965000D02*
X130008000Y-102965000D01*
X130008000Y-102965000D02*
X137573000Y-102965000D01*
X137573000Y-102965000D02*
X138938000Y-101600000D01*
X170053000Y-85090000D02*
X170053000Y-86360000D01*
X171958000Y-93345000D02*
X170688000Y-94615000D01*
X171958000Y-88265000D02*
X171958000Y-93345000D01*
X170053000Y-86360000D02*
X171958000Y-88265000D01*
X154178000Y-123825000D02*
X151638000Y-123825000D01*
X165608000Y-85090000D02*
X156718000Y-85090000D01*
X154813000Y-86995000D02*
X149098000Y-86995000D01*
X156718000Y-85090000D02*
X154813000Y-86995000D01*
X170688000Y-94615000D02*
X169418000Y-94615000D01*
X140208000Y-88265000D02*
X146558000Y-88265000D01*
X149098000Y-86995000D02*
X147828000Y-86995000D01*
X146558000Y-88265000D02*
X147828000Y-86995000D01*
X166878000Y-94615000D02*
X164338000Y-94615000D01*
X169418000Y-94615000D02*
X166878000Y-94615000D01*
X137414000Y-79121000D02*
X140208000Y-81915000D01*
X140208000Y-81915000D02*
X140208000Y-86995000D01*
X137414000Y-75565000D02*
X137414000Y-79121000D01*
X114808000Y-81915000D02*
X114808000Y-88265000D01*
X116078000Y-80645000D02*
X114808000Y-81915000D01*
X121158000Y-80645000D02*
X116078000Y-80645000D01*
X122428000Y-79375000D02*
X121158000Y-80645000D01*
X122428000Y-75565000D02*
X122428000Y-79375000D01*
X137668000Y-98425000D02*
X135128000Y-98425000D01*
X138938000Y-101600000D02*
X138938000Y-99695000D01*
X138938000Y-99695000D02*
X137668000Y-98425000D01*
X131953000Y-88265000D02*
X135128000Y-88265000D01*
X135128000Y-88265000D02*
X140208000Y-88265000D01*
X135128000Y-98425000D02*
X135128000Y-88265000D01*
X121158000Y-88265000D02*
X126873000Y-88265000D01*
X114808000Y-88265000D02*
X121158000Y-88265000D01*
X140208000Y-86995000D02*
X140208000Y-88265000D01*
X131953000Y-88265000D02*
X126873000Y-88265000D01*
X119888000Y-113665000D02*
X119158000Y-112935000D01*
X165608000Y-85090000D02*
X170053000Y-85090000D01*
X170053000Y-85090000D02*
X174498000Y-85090000D01*
X170053000Y-85090000D02*
X170053000Y-81915000D01*
X166878000Y-117435000D02*
X147153000Y-117435000D01*
X147153000Y-117435000D02*
X144018000Y-114300000D01*
X148068000Y-98295000D02*
X144018000Y-98295000D01*
X144018000Y-95250000D02*
X144018000Y-98295000D01*
X144018000Y-98295000D02*
X144018000Y-114300000D01*
D25*
X139018000Y-115570000D02*
X140208000Y-115570000D01*
X144653000Y-120015000D02*
X156874400Y-120015000D01*
X140208000Y-115570000D02*
X144653000Y-120015000D01*
X156874400Y-120015000D02*
X160684400Y-123825000D01*
X160684400Y-123825000D02*
X161798000Y-123825000D01*
X137368000Y-115570000D02*
X136318000Y-115570000D01*
X139018000Y-115570000D02*
X137368000Y-115570000D01*
X139018000Y-115570000D02*
X137968000Y-115570000D01*
X134493000Y-115570000D02*
X136318000Y-115570000D01*
X141033633Y-114490633D02*
X140208000Y-113665000D01*
X140208000Y-113665000D02*
X139018000Y-113665000D01*
X141033633Y-115759222D02*
X141033633Y-114490633D01*
X164338000Y-123672600D02*
X162458400Y-121793000D01*
X144839399Y-119564989D02*
X141033633Y-115759222D01*
X157060800Y-119564989D02*
X144839399Y-119564989D01*
X159288810Y-121793000D02*
X157060800Y-119564989D01*
X164338000Y-123825000D02*
X164338000Y-123672600D01*
X139118000Y-113665000D02*
X139018000Y-113665000D01*
X162458400Y-121793000D02*
X159288810Y-121793000D01*
X137968000Y-113665000D02*
X139018000Y-113665000D01*
X137368000Y-113665000D02*
X137968000Y-113665000D01*
X136318000Y-113665000D02*
X137368000Y-113665000D01*
X134493000Y-113665000D02*
X136318000Y-113665000D01*
X141483644Y-112400644D02*
X140843000Y-111760000D01*
X140843000Y-111760000D02*
X139018000Y-111760000D01*
X141483644Y-114125644D02*
X141483644Y-112400644D01*
X139118000Y-111760000D02*
X139018000Y-111760000D01*
X141483644Y-115572824D02*
X141483644Y-114125644D01*
X145025798Y-119114978D02*
X141483644Y-115572824D01*
X157247200Y-119114978D02*
X145025798Y-119114978D01*
X164363400Y-121158000D02*
X159290222Y-121158000D01*
X166878000Y-123672600D02*
X164363400Y-121158000D01*
X159290222Y-121158000D02*
X157247200Y-119114978D01*
X166878000Y-123825000D02*
X166878000Y-123672600D01*
X132588000Y-114490000D02*
X132588000Y-118618000D01*
X135318000Y-111760000D02*
X132588000Y-114490000D01*
X136318000Y-111760000D02*
X135318000Y-111760000D01*
X131622800Y-119583200D02*
X130048000Y-119583200D01*
X132588000Y-118618000D02*
X131622800Y-119583200D01*
X137368000Y-111760000D02*
X136318000Y-111760000D01*
X137968000Y-111760000D02*
X137368000Y-111760000D01*
X139018000Y-111760000D02*
X137968000Y-111760000D01*
X142113000Y-110490000D02*
X141478000Y-109855000D01*
X141478000Y-109855000D02*
X139018000Y-109855000D01*
X142113000Y-113030000D02*
X142113000Y-112850000D01*
X142113000Y-115565768D02*
X142113000Y-113030000D01*
X142113000Y-113030000D02*
X142113000Y-110490000D01*
X139118000Y-109855000D02*
X139018000Y-109855000D01*
X145212198Y-118664967D02*
X142113000Y-115565768D01*
X159291632Y-120523000D02*
X157433600Y-118664967D01*
X157433600Y-118664967D02*
X145212198Y-118664967D01*
X166268400Y-120523000D02*
X159291632Y-120523000D01*
X169418000Y-123672600D02*
X166268400Y-120523000D01*
X169418000Y-123825000D02*
X169418000Y-123672600D01*
X135001000Y-109855000D02*
X129286000Y-115570000D01*
X121285000Y-116078000D02*
X121793000Y-115570000D01*
X121793000Y-115570000D02*
X129286000Y-115570000D01*
X121285000Y-118237000D02*
X121285000Y-116078000D01*
X137968000Y-109855000D02*
X139018000Y-109855000D01*
X137368000Y-109855000D02*
X137968000Y-109855000D01*
X136318000Y-109855000D02*
X137368000Y-109855000D01*
X136318000Y-109855000D02*
X135001000Y-109855000D01*
D24*
X166878000Y-107275000D02*
X163663000Y-107275000D01*
X163663000Y-107275000D02*
X161798000Y-105410000D01*
X152648000Y-94990000D02*
X152648000Y-98295000D01*
X152273000Y-94615000D02*
X152648000Y-94990000D01*
X158493000Y-98295000D02*
X152648000Y-98295000D01*
X161798000Y-101600000D02*
X158493000Y-98295000D01*
X161798000Y-105410000D02*
X161798000Y-101600000D01*
D26*
G36*
X124354955Y-74304411D02*
X124015887Y-75120978D01*
X124015115Y-76005143D01*
X124352758Y-76822300D01*
X124977411Y-77448045D01*
X125793978Y-77787113D01*
X126678143Y-77787885D01*
X127495300Y-77450242D01*
X128121045Y-76825589D01*
X128383617Y-76193244D01*
X128409474Y-76323234D01*
X128734330Y-76809415D01*
X129220511Y-77134271D01*
X129794000Y-77248345D01*
X130367489Y-77134271D01*
X130853670Y-76809415D01*
X131064000Y-76494634D01*
X131274330Y-76809415D01*
X131760511Y-77134271D01*
X132334000Y-77248345D01*
X132907489Y-77134271D01*
X133393670Y-76809415D01*
X133604000Y-76494634D01*
X133814330Y-76809415D01*
X134300511Y-77134271D01*
X134874000Y-77248345D01*
X135447489Y-77134271D01*
X135933670Y-76809415D01*
X136140461Y-76499931D01*
X136511964Y-76915732D01*
X137039209Y-77169709D01*
X137054974Y-77172358D01*
X137287000Y-77051217D01*
X137287000Y-75692000D01*
X137267000Y-75692000D01*
X137267000Y-75438000D01*
X137287000Y-75438000D01*
X137287000Y-74078783D01*
X137541000Y-74078783D01*
X137541000Y-75438000D01*
X137561000Y-75438000D01*
X137561000Y-75692000D01*
X137541000Y-75692000D01*
X137541000Y-77051217D01*
X137773026Y-77172358D01*
X137788791Y-77169709D01*
X138316036Y-76915732D01*
X138687539Y-76499931D01*
X138894330Y-76809415D01*
X139380511Y-77134271D01*
X139954000Y-77248345D01*
X140527489Y-77134271D01*
X141013670Y-76809415D01*
X141224000Y-76494634D01*
X141434330Y-76809415D01*
X141920511Y-77134271D01*
X142494000Y-77248345D01*
X143067489Y-77134271D01*
X143553670Y-76809415D01*
X143764000Y-76494634D01*
X143974330Y-76809415D01*
X144460511Y-77134271D01*
X145034000Y-77248345D01*
X145607489Y-77134271D01*
X146093670Y-76809415D01*
X146304000Y-76494634D01*
X146514330Y-76809415D01*
X147000511Y-77134271D01*
X147574000Y-77248345D01*
X148147489Y-77134271D01*
X148633670Y-76809415D01*
X148844000Y-76494634D01*
X149054330Y-76809415D01*
X149540511Y-77134271D01*
X150114000Y-77248345D01*
X150687489Y-77134271D01*
X151173670Y-76809415D01*
X151384000Y-76494634D01*
X151594330Y-76809415D01*
X152080511Y-77134271D01*
X152654000Y-77248345D01*
X153227489Y-77134271D01*
X153713670Y-76809415D01*
X154038526Y-76323234D01*
X154152600Y-75749745D01*
X154152600Y-75380255D01*
X155219400Y-75380255D01*
X155219400Y-75749745D01*
X155333474Y-76323234D01*
X155658330Y-76809415D01*
X156144511Y-77134271D01*
X156718000Y-77248345D01*
X157291489Y-77134271D01*
X157777670Y-76809415D01*
X157988000Y-76494634D01*
X158198330Y-76809415D01*
X158684511Y-77134271D01*
X159258000Y-77248345D01*
X159831489Y-77134271D01*
X160317670Y-76809415D01*
X160528000Y-76494634D01*
X160738330Y-76809415D01*
X161224511Y-77134271D01*
X161798000Y-77248345D01*
X162371489Y-77134271D01*
X162857670Y-76809415D01*
X163068000Y-76494634D01*
X163278330Y-76809415D01*
X163764511Y-77134271D01*
X164338000Y-77248345D01*
X164911489Y-77134271D01*
X165397670Y-76809415D01*
X165608000Y-76494634D01*
X165818330Y-76809415D01*
X166304511Y-77134271D01*
X166878000Y-77248345D01*
X167451489Y-77134271D01*
X167937670Y-76809415D01*
X168148000Y-76494634D01*
X168358330Y-76809415D01*
X168844511Y-77134271D01*
X169418000Y-77248345D01*
X169991489Y-77134271D01*
X170477670Y-76809415D01*
X170688000Y-76494634D01*
X170898330Y-76809415D01*
X171384511Y-77134271D01*
X171958000Y-77248345D01*
X172531489Y-77134271D01*
X173017670Y-76809415D01*
X173228000Y-76494634D01*
X173438330Y-76809415D01*
X173924511Y-77134271D01*
X174498000Y-77248345D01*
X175071489Y-77134271D01*
X175557670Y-76809415D01*
X175882526Y-76323234D01*
X175996600Y-75749745D01*
X175996600Y-75380255D01*
X175882526Y-74806766D01*
X175557670Y-74320585D01*
X175071489Y-73995729D01*
X174498000Y-73881655D01*
X173924511Y-73995729D01*
X173438330Y-74320585D01*
X173228000Y-74635366D01*
X173017670Y-74320585D01*
X172531489Y-73995729D01*
X171958000Y-73881655D01*
X171384511Y-73995729D01*
X170898330Y-74320585D01*
X170688000Y-74635366D01*
X170477670Y-74320585D01*
X169991489Y-73995729D01*
X169418000Y-73881655D01*
X168844511Y-73995729D01*
X168358330Y-74320585D01*
X168148000Y-74635366D01*
X167937670Y-74320585D01*
X167451489Y-73995729D01*
X166878000Y-73881655D01*
X166304511Y-73995729D01*
X165818330Y-74320585D01*
X165608000Y-74635366D01*
X165397670Y-74320585D01*
X164911489Y-73995729D01*
X164338000Y-73881655D01*
X163764511Y-73995729D01*
X163278330Y-74320585D01*
X163068000Y-74635366D01*
X162857670Y-74320585D01*
X162371489Y-73995729D01*
X161798000Y-73881655D01*
X161224511Y-73995729D01*
X160738330Y-74320585D01*
X160528000Y-74635366D01*
X160317670Y-74320585D01*
X159831489Y-73995729D01*
X159258000Y-73881655D01*
X158684511Y-73995729D01*
X158198330Y-74320585D01*
X157988000Y-74635366D01*
X157777670Y-74320585D01*
X157291489Y-73995729D01*
X156718000Y-73881655D01*
X156144511Y-73995729D01*
X155658330Y-74320585D01*
X155333474Y-74806766D01*
X155219400Y-75380255D01*
X154152600Y-75380255D01*
X154038526Y-74806766D01*
X153713670Y-74320585D01*
X153227489Y-73995729D01*
X152654000Y-73881655D01*
X152080511Y-73995729D01*
X151594330Y-74320585D01*
X151384000Y-74635366D01*
X151173670Y-74320585D01*
X150687489Y-73995729D01*
X150114000Y-73881655D01*
X149540511Y-73995729D01*
X149054330Y-74320585D01*
X148844000Y-74635366D01*
X148633670Y-74320585D01*
X148147489Y-73995729D01*
X147574000Y-73881655D01*
X147000511Y-73995729D01*
X146514330Y-74320585D01*
X146304000Y-74635366D01*
X146093670Y-74320585D01*
X145607489Y-73995729D01*
X145034000Y-73881655D01*
X144460511Y-73995729D01*
X143974330Y-74320585D01*
X143764000Y-74635366D01*
X143553670Y-74320585D01*
X143067489Y-73995729D01*
X142494000Y-73881655D01*
X141920511Y-73995729D01*
X141434330Y-74320585D01*
X141224000Y-74635366D01*
X141013670Y-74320585D01*
X140527489Y-73995729D01*
X139954000Y-73881655D01*
X139380511Y-73995729D01*
X138894330Y-74320585D01*
X138687539Y-74630069D01*
X138316036Y-74214268D01*
X137788791Y-73960291D01*
X137773026Y-73957642D01*
X137541000Y-74078783D01*
X137287000Y-74078783D01*
X137054974Y-73957642D01*
X137039209Y-73960291D01*
X136511964Y-74214268D01*
X136140461Y-74630069D01*
X135933670Y-74320585D01*
X135447489Y-73995729D01*
X134874000Y-73881655D01*
X134300511Y-73995729D01*
X133814330Y-74320585D01*
X133604000Y-74635366D01*
X133393670Y-74320585D01*
X132907489Y-73995729D01*
X132334000Y-73881655D01*
X131760511Y-73995729D01*
X131274330Y-74320585D01*
X131064000Y-74635366D01*
X130853670Y-74320585D01*
X130367489Y-73995729D01*
X129794000Y-73881655D01*
X129220511Y-73995729D01*
X128734330Y-74320585D01*
X128409474Y-74806766D01*
X128383470Y-74937498D01*
X128123242Y-74307700D01*
X127551541Y-73735000D01*
X175219908Y-73735000D01*
X176328000Y-74843091D01*
X176328000Y-85979000D01*
X176382046Y-86250705D01*
X176535954Y-86481046D01*
X176911000Y-86856092D01*
X176911000Y-88582388D01*
X176597857Y-88582115D01*
X175780700Y-88919758D01*
X175154955Y-89544411D01*
X174815887Y-90360978D01*
X174815115Y-91245143D01*
X175152758Y-92062300D01*
X175777411Y-92688045D01*
X176593978Y-93027113D01*
X176911000Y-93027390D01*
X176911000Y-93270000D01*
X173863000Y-93270000D01*
X173794416Y-93283642D01*
X173481483Y-93331978D01*
X173225543Y-93437992D01*
X173225541Y-93437993D01*
X173019532Y-93575644D01*
X172823644Y-93771532D01*
X172685993Y-93977541D01*
X172685992Y-93977542D01*
X172579978Y-94233483D01*
X172531642Y-94476487D01*
X172531642Y-94546416D01*
X172518000Y-94615000D01*
X172518000Y-102235000D01*
X172531642Y-102303584D01*
X172531642Y-102373513D01*
X172579978Y-102616517D01*
X172685992Y-102872458D01*
X172685993Y-102872459D01*
X172823644Y-103078468D01*
X173019532Y-103274356D01*
X173225541Y-103412007D01*
X173225543Y-103412008D01*
X173481483Y-103518022D01*
X173724488Y-103566358D01*
X173794416Y-103566358D01*
X173863000Y-103580000D01*
X176911000Y-103580000D01*
X176911000Y-116522388D01*
X176597857Y-116522115D01*
X175780700Y-116859758D01*
X175154955Y-117484411D01*
X174815887Y-118300978D01*
X174815115Y-119185143D01*
X175152758Y-120002300D01*
X175777411Y-120628045D01*
X176593978Y-120967113D01*
X176911000Y-120967390D01*
X176911000Y-122947908D01*
X176535954Y-123322954D01*
X176382046Y-123553295D01*
X176328000Y-123825000D01*
X176328000Y-125655000D01*
X127635000Y-125655000D01*
X127635000Y-123270987D01*
X128612752Y-123270987D01*
X128830757Y-123798600D01*
X129234077Y-124202624D01*
X129761309Y-124421550D01*
X130332187Y-124422048D01*
X130859800Y-124204043D01*
X131263824Y-123800723D01*
X131330456Y-123640255D01*
X137439400Y-123640255D01*
X137439400Y-124009745D01*
X137553474Y-124583234D01*
X137878330Y-125069415D01*
X138364511Y-125394271D01*
X138938000Y-125508345D01*
X139511489Y-125394271D01*
X139997670Y-125069415D01*
X140208000Y-124754634D01*
X140418330Y-125069415D01*
X140904511Y-125394271D01*
X141478000Y-125508345D01*
X142051489Y-125394271D01*
X142537670Y-125069415D01*
X142748000Y-124754634D01*
X142958330Y-125069415D01*
X143444511Y-125394271D01*
X144018000Y-125508345D01*
X144591489Y-125394271D01*
X145077670Y-125069415D01*
X145288000Y-124754634D01*
X145498330Y-125069415D01*
X145984511Y-125394271D01*
X146558000Y-125508345D01*
X147131489Y-125394271D01*
X147617670Y-125069415D01*
X147828000Y-124754634D01*
X148038330Y-125069415D01*
X148524511Y-125394271D01*
X149098000Y-125508345D01*
X149671489Y-125394271D01*
X150157670Y-125069415D01*
X150364461Y-124759931D01*
X150735964Y-125175732D01*
X151263209Y-125429709D01*
X151278974Y-125432358D01*
X151511000Y-125311217D01*
X151511000Y-123952000D01*
X151765000Y-123952000D01*
X151765000Y-125311217D01*
X151997026Y-125432358D01*
X152012791Y-125429709D01*
X152540036Y-125175732D01*
X152908000Y-124763892D01*
X153275964Y-125175732D01*
X153803209Y-125429709D01*
X153818974Y-125432358D01*
X154051000Y-125311217D01*
X154051000Y-123952000D01*
X151765000Y-123952000D01*
X151511000Y-123952000D01*
X151491000Y-123952000D01*
X151491000Y-123698000D01*
X151511000Y-123698000D01*
X151511000Y-122338783D01*
X151765000Y-122338783D01*
X151765000Y-123698000D01*
X154051000Y-123698000D01*
X154051000Y-122338783D01*
X154305000Y-122338783D01*
X154305000Y-123698000D01*
X154325000Y-123698000D01*
X154325000Y-123952000D01*
X154305000Y-123952000D01*
X154305000Y-125311217D01*
X154537026Y-125432358D01*
X154552791Y-125429709D01*
X155080036Y-125175732D01*
X155451539Y-124759931D01*
X155658330Y-125069415D01*
X156144511Y-125394271D01*
X156718000Y-125508345D01*
X157291489Y-125394271D01*
X157777670Y-125069415D01*
X158102526Y-124583234D01*
X158216600Y-124009745D01*
X158216600Y-123640255D01*
X158102526Y-123066766D01*
X157777670Y-122580585D01*
X157291489Y-122255729D01*
X156718000Y-122141655D01*
X156144511Y-122255729D01*
X155658330Y-122580585D01*
X155451539Y-122890069D01*
X155080036Y-122474268D01*
X154552791Y-122220291D01*
X154537026Y-122217642D01*
X154305000Y-122338783D01*
X154051000Y-122338783D01*
X153818974Y-122217642D01*
X153803209Y-122220291D01*
X153275964Y-122474268D01*
X152908000Y-122886108D01*
X152540036Y-122474268D01*
X152012791Y-122220291D01*
X151997026Y-122217642D01*
X151765000Y-122338783D01*
X151511000Y-122338783D01*
X151278974Y-122217642D01*
X151263209Y-122220291D01*
X150735964Y-122474268D01*
X150364461Y-122890069D01*
X150157670Y-122580585D01*
X149671489Y-122255729D01*
X149098000Y-122141655D01*
X148524511Y-122255729D01*
X148038330Y-122580585D01*
X147828000Y-122895366D01*
X147617670Y-122580585D01*
X147131489Y-122255729D01*
X146558000Y-122141655D01*
X145984511Y-122255729D01*
X145498330Y-122580585D01*
X145288000Y-122895366D01*
X145077670Y-122580585D01*
X144591489Y-122255729D01*
X144018000Y-122141655D01*
X143444511Y-122255729D01*
X142958330Y-122580585D01*
X142748000Y-122895366D01*
X142537670Y-122580585D01*
X142051489Y-122255729D01*
X141478000Y-122141655D01*
X140904511Y-122255729D01*
X140418330Y-122580585D01*
X140208000Y-122895366D01*
X139997670Y-122580585D01*
X139511489Y-122255729D01*
X138938000Y-122141655D01*
X138364511Y-122255729D01*
X137878330Y-122580585D01*
X137553474Y-123066766D01*
X137439400Y-123640255D01*
X131330456Y-123640255D01*
X131482750Y-123273491D01*
X131483248Y-122702613D01*
X131265243Y-122175000D01*
X130861923Y-121770976D01*
X130334691Y-121552050D01*
X129763813Y-121551552D01*
X129236200Y-121769557D01*
X128832176Y-122172877D01*
X128613250Y-122700109D01*
X128612752Y-123270987D01*
X127635000Y-123270987D01*
X127635000Y-118110000D01*
X127626315Y-118063841D01*
X127599035Y-118021447D01*
X127557410Y-117993006D01*
X127508000Y-117983000D01*
X122191721Y-117983000D01*
X122078117Y-117708057D01*
X122045000Y-117674882D01*
X122045000Y-116392802D01*
X122107802Y-116330000D01*
X129286000Y-116330000D01*
X129576839Y-116272148D01*
X129823401Y-116107401D01*
X134945891Y-110984912D01*
X134920560Y-111110000D01*
X134920560Y-111129080D01*
X134780599Y-111222599D01*
X132050599Y-113952599D01*
X131885852Y-114199161D01*
X131828000Y-114490000D01*
X131828000Y-118303198D01*
X131307998Y-118823200D01*
X131286646Y-118823200D01*
X131265243Y-118771400D01*
X130861923Y-118367376D01*
X130334691Y-118148450D01*
X129763813Y-118147952D01*
X129236200Y-118365957D01*
X128832176Y-118769277D01*
X128613250Y-119296509D01*
X128612752Y-119867387D01*
X128830757Y-120395000D01*
X129234077Y-120799024D01*
X129761309Y-121017950D01*
X130332187Y-121018448D01*
X130859800Y-120800443D01*
X131263824Y-120397123D01*
X131286215Y-120343200D01*
X131622800Y-120343200D01*
X131913639Y-120285348D01*
X132160201Y-120120601D01*
X133125401Y-119155401D01*
X133290148Y-118908839D01*
X133348000Y-118618000D01*
X133348000Y-114804802D01*
X133829258Y-114323544D01*
X133962673Y-114457192D01*
X134306201Y-114599838D01*
X134678167Y-114600162D01*
X134952860Y-114486661D01*
X134964838Y-114550317D01*
X135007138Y-114616053D01*
X134971569Y-114668110D01*
X134955092Y-114749474D01*
X134679799Y-114635162D01*
X134307833Y-114634838D01*
X133964057Y-114776883D01*
X133700808Y-115039673D01*
X133558162Y-115383201D01*
X133557838Y-115755167D01*
X133699883Y-116098943D01*
X133962673Y-116362192D01*
X134306201Y-116504838D01*
X134678167Y-116505162D01*
X134952860Y-116391661D01*
X134964838Y-116455317D01*
X135103910Y-116671441D01*
X135316110Y-116816431D01*
X135568000Y-116867440D01*
X137068000Y-116867440D01*
X137303317Y-116823162D01*
X137519441Y-116684090D01*
X137664431Y-116471890D01*
X137667081Y-116458803D01*
X137803910Y-116671441D01*
X138016110Y-116816431D01*
X138268000Y-116867440D01*
X139768000Y-116867440D01*
X140003317Y-116823162D01*
X140219441Y-116684090D01*
X140230745Y-116667547D01*
X144115599Y-120552401D01*
X144362160Y-120717148D01*
X144653000Y-120775000D01*
X156559598Y-120775000D01*
X160146999Y-124362401D01*
X160393561Y-124527148D01*
X160402679Y-124528962D01*
X160413474Y-124583234D01*
X160738330Y-125069415D01*
X161224511Y-125394271D01*
X161798000Y-125508345D01*
X162371489Y-125394271D01*
X162857670Y-125069415D01*
X163068000Y-124754634D01*
X163278330Y-125069415D01*
X163764511Y-125394271D01*
X164338000Y-125508345D01*
X164911489Y-125394271D01*
X165397670Y-125069415D01*
X165608000Y-124754634D01*
X165818330Y-125069415D01*
X166304511Y-125394271D01*
X166878000Y-125508345D01*
X167451489Y-125394271D01*
X167937670Y-125069415D01*
X168148000Y-124754634D01*
X168358330Y-125069415D01*
X168844511Y-125394271D01*
X169418000Y-125508345D01*
X169991489Y-125394271D01*
X170477670Y-125069415D01*
X170688000Y-124754634D01*
X170898330Y-125069415D01*
X171384511Y-125394271D01*
X171958000Y-125508345D01*
X172531489Y-125394271D01*
X173017670Y-125069415D01*
X173228000Y-124754634D01*
X173438330Y-125069415D01*
X173924511Y-125394271D01*
X174498000Y-125508345D01*
X175071489Y-125394271D01*
X175557670Y-125069415D01*
X175882526Y-124583234D01*
X175996600Y-124009745D01*
X175996600Y-123640255D01*
X175882526Y-123066766D01*
X175557670Y-122580585D01*
X175071489Y-122255729D01*
X174498000Y-122141655D01*
X173924511Y-122255729D01*
X173438330Y-122580585D01*
X173228000Y-122895366D01*
X173017670Y-122580585D01*
X172531489Y-122255729D01*
X171958000Y-122141655D01*
X171384511Y-122255729D01*
X170898330Y-122580585D01*
X170688000Y-122895366D01*
X170477670Y-122580585D01*
X169991489Y-122255729D01*
X169418000Y-122141655D01*
X169037536Y-122217334D01*
X166805801Y-119985599D01*
X166559239Y-119820852D01*
X166268400Y-119763000D01*
X159606434Y-119763000D01*
X158288435Y-118445000D01*
X165030560Y-118445000D01*
X165030560Y-118635000D01*
X165074838Y-118870317D01*
X165213910Y-119086441D01*
X165426110Y-119231431D01*
X165678000Y-119282440D01*
X168078000Y-119282440D01*
X168313317Y-119238162D01*
X168529441Y-119099090D01*
X168674431Y-118886890D01*
X168725440Y-118635000D01*
X168725440Y-114735000D01*
X168681162Y-114499683D01*
X168542090Y-114283559D01*
X168329890Y-114138569D01*
X168078000Y-114087560D01*
X167683712Y-114087560D01*
X167916086Y-113991545D01*
X168432730Y-113475801D01*
X168712681Y-112801605D01*
X168713318Y-112071597D01*
X168434545Y-111396914D01*
X167918801Y-110880270D01*
X167244605Y-110600319D01*
X166514597Y-110599682D01*
X165839914Y-110878455D01*
X165323270Y-111394199D01*
X165043319Y-112068395D01*
X165042682Y-112798403D01*
X165321455Y-113473086D01*
X165837199Y-113989730D01*
X166072799Y-114087560D01*
X165678000Y-114087560D01*
X165442683Y-114131838D01*
X165226559Y-114270910D01*
X165081569Y-114483110D01*
X165030560Y-114735000D01*
X165030560Y-116425000D01*
X147571356Y-116425000D01*
X145028000Y-113881644D01*
X145028000Y-105980750D01*
X146233000Y-105980750D01*
X146233000Y-109321310D01*
X146329673Y-109554699D01*
X146508302Y-109733327D01*
X146741691Y-109830000D01*
X150082250Y-109830000D01*
X150241000Y-109671250D01*
X150241000Y-105822000D01*
X150495000Y-105822000D01*
X150495000Y-109671250D01*
X150653750Y-109830000D01*
X153994309Y-109830000D01*
X154227698Y-109733327D01*
X154406327Y-109554699D01*
X154503000Y-109321310D01*
X154503000Y-105980750D01*
X154344250Y-105822000D01*
X150495000Y-105822000D01*
X150241000Y-105822000D01*
X146391750Y-105822000D01*
X146233000Y-105980750D01*
X145028000Y-105980750D01*
X145028000Y-102068690D01*
X146233000Y-102068690D01*
X146233000Y-105409250D01*
X146391750Y-105568000D01*
X150241000Y-105568000D01*
X150241000Y-101718750D01*
X150495000Y-101718750D01*
X150495000Y-105568000D01*
X154344250Y-105568000D01*
X154503000Y-105409250D01*
X154503000Y-102068690D01*
X154406327Y-101835301D01*
X154227698Y-101656673D01*
X153994309Y-101560000D01*
X150653750Y-101560000D01*
X150495000Y-101718750D01*
X150241000Y-101718750D01*
X150082250Y-101560000D01*
X146741691Y-101560000D01*
X146508302Y-101656673D01*
X146329673Y-101835301D01*
X146233000Y-102068690D01*
X145028000Y-102068690D01*
X145028000Y-99305000D01*
X146420560Y-99305000D01*
X146420560Y-100045000D01*
X146464838Y-100280317D01*
X146603910Y-100496441D01*
X146816110Y-100641431D01*
X147068000Y-100692440D01*
X149068000Y-100692440D01*
X149303317Y-100648162D01*
X149519441Y-100509090D01*
X149664431Y-100296890D01*
X149715440Y-100045000D01*
X149715440Y-96545000D01*
X151000560Y-96545000D01*
X151000560Y-100045000D01*
X151044838Y-100280317D01*
X151183910Y-100496441D01*
X151396110Y-100641431D01*
X151648000Y-100692440D01*
X153648000Y-100692440D01*
X153883317Y-100648162D01*
X154099441Y-100509090D01*
X154244431Y-100296890D01*
X154295440Y-100045000D01*
X154295440Y-99305000D01*
X158074644Y-99305000D01*
X160788000Y-102018356D01*
X160788000Y-105410000D01*
X160864882Y-105796510D01*
X161083822Y-106124178D01*
X162948822Y-107989178D01*
X163276490Y-108208118D01*
X163663000Y-108285000D01*
X165030560Y-108285000D01*
X165030560Y-108475000D01*
X165074838Y-108710317D01*
X165213910Y-108926441D01*
X165426110Y-109071431D01*
X165678000Y-109122440D01*
X168078000Y-109122440D01*
X168313317Y-109078162D01*
X168529441Y-108939090D01*
X168674431Y-108726890D01*
X168725440Y-108475000D01*
X168725440Y-104575000D01*
X168681162Y-104339683D01*
X168542090Y-104123559D01*
X168329890Y-103978569D01*
X168078000Y-103927560D01*
X167683712Y-103927560D01*
X167916086Y-103831545D01*
X168432730Y-103315801D01*
X168712681Y-102641605D01*
X168713318Y-101911597D01*
X168434545Y-101236914D01*
X167918801Y-100720270D01*
X167244605Y-100440319D01*
X166514597Y-100439682D01*
X165839914Y-100718455D01*
X165323270Y-101234199D01*
X165043319Y-101908395D01*
X165042682Y-102638403D01*
X165321455Y-103313086D01*
X165837199Y-103829730D01*
X166072799Y-103927560D01*
X165678000Y-103927560D01*
X165442683Y-103971838D01*
X165226559Y-104110910D01*
X165081569Y-104323110D01*
X165030560Y-104575000D01*
X165030560Y-106265000D01*
X164081356Y-106265000D01*
X162808000Y-104991644D01*
X162808000Y-101600000D01*
X162731118Y-101213490D01*
X162512178Y-100885822D01*
X159207178Y-97580822D01*
X158879510Y-97361882D01*
X158493000Y-97285000D01*
X154295440Y-97285000D01*
X154295440Y-96545000D01*
X154251162Y-96309683D01*
X154112090Y-96093559D01*
X153899890Y-95948569D01*
X153658000Y-95899585D01*
X153658000Y-94990000D01*
X153654398Y-94971890D01*
X162896524Y-94971890D01*
X163066355Y-95381924D01*
X163456642Y-95810183D01*
X163981108Y-96056486D01*
X164211000Y-95935819D01*
X164211000Y-94742000D01*
X164465000Y-94742000D01*
X164465000Y-95935819D01*
X164694892Y-96056486D01*
X165219358Y-95810183D01*
X165608000Y-95383729D01*
X165996642Y-95810183D01*
X166521108Y-96056486D01*
X166751000Y-95935819D01*
X166751000Y-94742000D01*
X167005000Y-94742000D01*
X167005000Y-95935819D01*
X167234892Y-96056486D01*
X167759358Y-95810183D01*
X168148000Y-95383729D01*
X168536642Y-95810183D01*
X169061108Y-96056486D01*
X169291000Y-95935819D01*
X169291000Y-94742000D01*
X169545000Y-94742000D01*
X169545000Y-95935819D01*
X169774892Y-96056486D01*
X170299358Y-95810183D01*
X170689645Y-95381924D01*
X170859476Y-94971890D01*
X170738155Y-94742000D01*
X169545000Y-94742000D01*
X169291000Y-94742000D01*
X167005000Y-94742000D01*
X166751000Y-94742000D01*
X164465000Y-94742000D01*
X164211000Y-94742000D01*
X163017845Y-94742000D01*
X162896524Y-94971890D01*
X153654398Y-94971890D01*
X153581118Y-94603490D01*
X153362178Y-94275822D01*
X152987178Y-93900822D01*
X152659510Y-93681882D01*
X152273000Y-93605000D01*
X151886490Y-93681882D01*
X151558822Y-93900822D01*
X151339882Y-94228490D01*
X151263000Y-94615000D01*
X151339882Y-95001510D01*
X151558822Y-95329178D01*
X151638000Y-95408356D01*
X151638000Y-95899442D01*
X151412683Y-95941838D01*
X151196559Y-96080910D01*
X151051569Y-96293110D01*
X151000560Y-96545000D01*
X149715440Y-96545000D01*
X149671162Y-96309683D01*
X149532090Y-96093559D01*
X149319890Y-95948569D01*
X149068000Y-95897560D01*
X147068000Y-95897560D01*
X146832683Y-95941838D01*
X146616559Y-96080910D01*
X146471569Y-96293110D01*
X146420560Y-96545000D01*
X146420560Y-97285000D01*
X145028000Y-97285000D01*
X145028000Y-95250000D01*
X144951118Y-94863490D01*
X144732178Y-94535822D01*
X144404510Y-94316882D01*
X144018000Y-94240000D01*
X143631490Y-94316882D01*
X143303822Y-94535822D01*
X143084882Y-94863490D01*
X143008000Y-95250000D01*
X143008000Y-114300000D01*
X143084882Y-114686510D01*
X143303822Y-115014178D01*
X146194611Y-117904967D01*
X145527001Y-117904967D01*
X142873000Y-115250966D01*
X142873000Y-110490000D01*
X142815148Y-110199161D01*
X142650401Y-109952599D01*
X142015401Y-109317599D01*
X141768839Y-109152852D01*
X141478000Y-109095000D01*
X140394742Y-109095000D01*
X140371162Y-108969683D01*
X140232090Y-108753559D01*
X140019890Y-108608569D01*
X139768000Y-108557560D01*
X138268000Y-108557560D01*
X138032683Y-108601838D01*
X137816559Y-108740910D01*
X137671569Y-108953110D01*
X137668919Y-108966197D01*
X137532090Y-108753559D01*
X137319890Y-108608569D01*
X137068000Y-108557560D01*
X135568000Y-108557560D01*
X135332683Y-108601838D01*
X135116559Y-108740910D01*
X134971569Y-108953110D01*
X134940394Y-109107055D01*
X134710161Y-109152852D01*
X134463599Y-109317598D01*
X128971198Y-114810000D01*
X121793000Y-114810000D01*
X121502161Y-114867852D01*
X121426867Y-114918162D01*
X121255599Y-115032599D01*
X120747599Y-115540599D01*
X120582852Y-115787161D01*
X120525000Y-116078000D01*
X120525000Y-117674537D01*
X120492808Y-117706673D01*
X120378066Y-117983000D01*
X117348000Y-117983000D01*
X117301841Y-117991685D01*
X117259447Y-118018965D01*
X117231006Y-118060590D01*
X117221000Y-118110000D01*
X117221000Y-125655000D01*
X111708000Y-125655000D01*
X111708000Y-110067000D01*
X117773000Y-110067000D01*
X117773000Y-110817000D01*
X117927028Y-111337349D01*
X118268460Y-111759145D01*
X118745316Y-112018173D01*
X118816815Y-112032318D01*
X119031000Y-111909656D01*
X119031000Y-110067000D01*
X117773000Y-110067000D01*
X111708000Y-110067000D01*
X111708000Y-109063000D01*
X117773000Y-109063000D01*
X117773000Y-109813000D01*
X119031000Y-109813000D01*
X119031000Y-107970344D01*
X119285000Y-107970344D01*
X119285000Y-109813000D01*
X119305000Y-109813000D01*
X119305000Y-110067000D01*
X119285000Y-110067000D01*
X119285000Y-111909656D01*
X119499185Y-112032318D01*
X119570684Y-112018173D01*
X120047540Y-111759145D01*
X120136928Y-111648718D01*
X120178657Y-111711170D01*
X120627983Y-112011400D01*
X121158000Y-112116827D01*
X121688017Y-112011400D01*
X122137343Y-111711170D01*
X122158000Y-111680255D01*
X122178657Y-111711170D01*
X122627983Y-112011400D01*
X123158000Y-112116827D01*
X123688017Y-112011400D01*
X124137343Y-111711170D01*
X124437573Y-111261844D01*
X124543000Y-110731827D01*
X124543000Y-109148173D01*
X124437573Y-108618156D01*
X124137343Y-108168830D01*
X123688017Y-107868600D01*
X123158000Y-107763173D01*
X122627983Y-107868600D01*
X122178657Y-108168830D01*
X122158000Y-108199745D01*
X122137343Y-108168830D01*
X121688017Y-107868600D01*
X121158000Y-107763173D01*
X120627983Y-107868600D01*
X120178657Y-108168830D01*
X120136928Y-108231282D01*
X120047540Y-108120855D01*
X119570684Y-107861827D01*
X119499185Y-107847682D01*
X119285000Y-107970344D01*
X119031000Y-107970344D01*
X118816815Y-107847682D01*
X118745316Y-107861827D01*
X118268460Y-108120855D01*
X117927028Y-108542651D01*
X117773000Y-109063000D01*
X111708000Y-109063000D01*
X111708000Y-107249170D01*
X113722790Y-107249170D01*
X113940792Y-107776773D01*
X114344104Y-108180790D01*
X114871326Y-108399712D01*
X115442194Y-108400210D01*
X115969797Y-108182208D01*
X116373814Y-107778896D01*
X116592736Y-107251674D01*
X116593234Y-106680806D01*
X116375232Y-106153203D01*
X115971920Y-105749186D01*
X115444698Y-105530264D01*
X114873830Y-105529766D01*
X114346227Y-105747768D01*
X113942210Y-106151080D01*
X113723288Y-106678302D01*
X113722790Y-107249170D01*
X111708000Y-107249170D01*
X111708000Y-103306185D01*
X127915682Y-103306185D01*
X127929827Y-103377684D01*
X128188855Y-103854540D01*
X128610651Y-104195972D01*
X129131000Y-104350000D01*
X129881000Y-104350000D01*
X129881000Y-103092000D01*
X130135000Y-103092000D01*
X130135000Y-104350000D01*
X130885000Y-104350000D01*
X131405349Y-104195972D01*
X131827145Y-103854540D01*
X132086173Y-103377684D01*
X132100318Y-103306185D01*
X131977656Y-103092000D01*
X130135000Y-103092000D01*
X129881000Y-103092000D01*
X128038344Y-103092000D01*
X127915682Y-103306185D01*
X111708000Y-103306185D01*
X111708000Y-98965000D01*
X127831173Y-98965000D01*
X127936600Y-99495017D01*
X128236830Y-99944343D01*
X128267745Y-99965000D01*
X128236830Y-99985657D01*
X127936600Y-100434983D01*
X127831173Y-100965000D01*
X127936600Y-101495017D01*
X128236830Y-101944343D01*
X128299282Y-101986072D01*
X128188855Y-102075460D01*
X127929827Y-102552316D01*
X127915682Y-102623815D01*
X128038344Y-102838000D01*
X129881000Y-102838000D01*
X129881000Y-102818000D01*
X130135000Y-102818000D01*
X130135000Y-102838000D01*
X131977656Y-102838000D01*
X132100318Y-102623815D01*
X132086173Y-102552316D01*
X131827145Y-102075460D01*
X131716718Y-101986072D01*
X131779170Y-101944343D01*
X132079400Y-101495017D01*
X132184827Y-100965000D01*
X132079400Y-100434983D01*
X131779170Y-99985657D01*
X131748255Y-99965000D01*
X131779170Y-99944343D01*
X132079400Y-99495017D01*
X132184827Y-98965000D01*
X132079400Y-98434983D01*
X131779170Y-97985657D01*
X131329844Y-97685427D01*
X130799827Y-97580000D01*
X129216173Y-97580000D01*
X128686156Y-97685427D01*
X128236830Y-97985657D01*
X127936600Y-98434983D01*
X127831173Y-98965000D01*
X111708000Y-98965000D01*
X111708000Y-95249194D01*
X125722766Y-95249194D01*
X125940768Y-95776797D01*
X126344080Y-96180814D01*
X126871302Y-96399736D01*
X127442170Y-96400234D01*
X127969773Y-96182232D01*
X128373790Y-95778920D01*
X128592712Y-95251698D01*
X128593210Y-94680830D01*
X128375208Y-94153227D01*
X127971896Y-93749210D01*
X127444674Y-93530288D01*
X126873806Y-93529790D01*
X126346203Y-93747792D01*
X125942186Y-94151104D01*
X125723264Y-94678326D01*
X125722766Y-95249194D01*
X111708000Y-95249194D01*
X111708000Y-92075000D01*
X162823907Y-92075000D01*
X162936946Y-92643285D01*
X163258853Y-93125054D01*
X163599553Y-93352702D01*
X163456642Y-93419817D01*
X163066355Y-93848076D01*
X162896524Y-94258110D01*
X163017845Y-94488000D01*
X164211000Y-94488000D01*
X164211000Y-94468000D01*
X164465000Y-94468000D01*
X164465000Y-94488000D01*
X166751000Y-94488000D01*
X166751000Y-94468000D01*
X167005000Y-94468000D01*
X167005000Y-94488000D01*
X169291000Y-94488000D01*
X169291000Y-94468000D01*
X169545000Y-94468000D01*
X169545000Y-94488000D01*
X170738155Y-94488000D01*
X170859476Y-94258110D01*
X170689645Y-93848076D01*
X170299358Y-93419817D01*
X170156447Y-93352702D01*
X170497147Y-93125054D01*
X170819054Y-92643285D01*
X170932093Y-92075000D01*
X170819054Y-91506715D01*
X170497147Y-91024946D01*
X170455548Y-90997150D01*
X170503317Y-90988162D01*
X170719441Y-90849090D01*
X170864431Y-90636890D01*
X170915440Y-90385000D01*
X170915440Y-88685000D01*
X170871162Y-88449683D01*
X170732090Y-88233559D01*
X170519890Y-88088569D01*
X170268000Y-88037560D01*
X168568000Y-88037560D01*
X168332683Y-88081838D01*
X168145923Y-88202015D01*
X167979890Y-88088569D01*
X167728000Y-88037560D01*
X166028000Y-88037560D01*
X165792683Y-88081838D01*
X165605923Y-88202015D01*
X165439890Y-88088569D01*
X165188000Y-88037560D01*
X163488000Y-88037560D01*
X163252683Y-88081838D01*
X163036559Y-88220910D01*
X162891569Y-88433110D01*
X162840560Y-88685000D01*
X162840560Y-90385000D01*
X162884838Y-90620317D01*
X163023910Y-90836441D01*
X163236110Y-90981431D01*
X163303541Y-90995086D01*
X163258853Y-91024946D01*
X162936946Y-91506715D01*
X162823907Y-92075000D01*
X111708000Y-92075000D01*
X111708000Y-88621890D01*
X125431524Y-88621890D01*
X125601355Y-89031924D01*
X125991642Y-89460183D01*
X126516108Y-89706486D01*
X126746000Y-89585819D01*
X126746000Y-88392000D01*
X127000000Y-88392000D01*
X127000000Y-89585819D01*
X127229892Y-89706486D01*
X127754358Y-89460183D01*
X128144645Y-89031924D01*
X128314476Y-88621890D01*
X128193155Y-88392000D01*
X127000000Y-88392000D01*
X126746000Y-88392000D01*
X125552845Y-88392000D01*
X125431524Y-88621890D01*
X111708000Y-88621890D01*
X111708000Y-85725000D01*
X125358907Y-85725000D01*
X125471946Y-86293285D01*
X125793853Y-86775054D01*
X126134553Y-87002702D01*
X125991642Y-87069817D01*
X125601355Y-87498076D01*
X125431524Y-87908110D01*
X125552845Y-88138000D01*
X126746000Y-88138000D01*
X126746000Y-88118000D01*
X127000000Y-88118000D01*
X127000000Y-88138000D01*
X128193155Y-88138000D01*
X128314476Y-87908110D01*
X128144645Y-87498076D01*
X127754358Y-87069817D01*
X127611447Y-87002702D01*
X127952147Y-86775054D01*
X128274054Y-86293285D01*
X128387093Y-85725000D01*
X128274054Y-85156715D01*
X127952147Y-84674946D01*
X127910548Y-84647150D01*
X127958317Y-84638162D01*
X128174441Y-84499090D01*
X128319431Y-84286890D01*
X128370440Y-84035000D01*
X128370440Y-82335000D01*
X128326162Y-82099683D01*
X128187090Y-81883559D01*
X127974890Y-81738569D01*
X127723000Y-81687560D01*
X126023000Y-81687560D01*
X125787683Y-81731838D01*
X125571559Y-81870910D01*
X125426569Y-82083110D01*
X125375560Y-82335000D01*
X125375560Y-84035000D01*
X125419838Y-84270317D01*
X125558910Y-84486441D01*
X125771110Y-84631431D01*
X125838541Y-84645086D01*
X125793853Y-84674946D01*
X125471946Y-85156715D01*
X125358907Y-85725000D01*
X111708000Y-85725000D01*
X111708000Y-74715000D01*
X113310560Y-74715000D01*
X113310560Y-76415000D01*
X113354838Y-76650317D01*
X113493910Y-76866441D01*
X113706110Y-77011431D01*
X113958000Y-77062440D01*
X115658000Y-77062440D01*
X115893317Y-77018162D01*
X116109441Y-76879090D01*
X116254431Y-76666890D01*
X116268086Y-76599459D01*
X116297946Y-76644147D01*
X116779715Y-76966054D01*
X117348000Y-77079093D01*
X117916285Y-76966054D01*
X118398054Y-76644147D01*
X118618000Y-76314974D01*
X118837946Y-76644147D01*
X119319715Y-76966054D01*
X119888000Y-77079093D01*
X120456285Y-76966054D01*
X120938054Y-76644147D01*
X121165702Y-76303447D01*
X121232817Y-76446358D01*
X121661076Y-76836645D01*
X122071110Y-77006476D01*
X122301000Y-76885155D01*
X122301000Y-75692000D01*
X122555000Y-75692000D01*
X122555000Y-76885155D01*
X122784890Y-77006476D01*
X123194924Y-76836645D01*
X123623183Y-76446358D01*
X123869486Y-75921892D01*
X123748819Y-75692000D01*
X122555000Y-75692000D01*
X122301000Y-75692000D01*
X122281000Y-75692000D01*
X122281000Y-75438000D01*
X122301000Y-75438000D01*
X122301000Y-74244845D01*
X122555000Y-74244845D01*
X122555000Y-75438000D01*
X123748819Y-75438000D01*
X123869486Y-75208108D01*
X123623183Y-74683642D01*
X123194924Y-74293355D01*
X122784890Y-74123524D01*
X122555000Y-74244845D01*
X122301000Y-74244845D01*
X122071110Y-74123524D01*
X121661076Y-74293355D01*
X121232817Y-74683642D01*
X121165702Y-74826553D01*
X120938054Y-74485853D01*
X120456285Y-74163946D01*
X119888000Y-74050907D01*
X119319715Y-74163946D01*
X118837946Y-74485853D01*
X118618000Y-74815026D01*
X118398054Y-74485853D01*
X117916285Y-74163946D01*
X117348000Y-74050907D01*
X116779715Y-74163946D01*
X116297946Y-74485853D01*
X116270150Y-74527452D01*
X116261162Y-74479683D01*
X116122090Y-74263559D01*
X115909890Y-74118569D01*
X115658000Y-74067560D01*
X113958000Y-74067560D01*
X113722683Y-74111838D01*
X113506559Y-74250910D01*
X113361569Y-74463110D01*
X113310560Y-74715000D01*
X111708000Y-74715000D01*
X111708000Y-73735000D01*
X124925361Y-73735000D01*
X124354955Y-74304411D01*
X124354955Y-74304411D01*
G37*
X124354955Y-74304411D02*
X124015887Y-75120978D01*
X124015115Y-76005143D01*
X124352758Y-76822300D01*
X124977411Y-77448045D01*
X125793978Y-77787113D01*
X126678143Y-77787885D01*
X127495300Y-77450242D01*
X128121045Y-76825589D01*
X128383617Y-76193244D01*
X128409474Y-76323234D01*
X128734330Y-76809415D01*
X129220511Y-77134271D01*
X129794000Y-77248345D01*
X130367489Y-77134271D01*
X130853670Y-76809415D01*
X131064000Y-76494634D01*
X131274330Y-76809415D01*
X131760511Y-77134271D01*
X132334000Y-77248345D01*
X132907489Y-77134271D01*
X133393670Y-76809415D01*
X133604000Y-76494634D01*
X133814330Y-76809415D01*
X134300511Y-77134271D01*
X134874000Y-77248345D01*
X135447489Y-77134271D01*
X135933670Y-76809415D01*
X136140461Y-76499931D01*
X136511964Y-76915732D01*
X137039209Y-77169709D01*
X137054974Y-77172358D01*
X137287000Y-77051217D01*
X137287000Y-75692000D01*
X137267000Y-75692000D01*
X137267000Y-75438000D01*
X137287000Y-75438000D01*
X137287000Y-74078783D01*
X137541000Y-74078783D01*
X137541000Y-75438000D01*
X137561000Y-75438000D01*
X137561000Y-75692000D01*
X137541000Y-75692000D01*
X137541000Y-77051217D01*
X137773026Y-77172358D01*
X137788791Y-77169709D01*
X138316036Y-76915732D01*
X138687539Y-76499931D01*
X138894330Y-76809415D01*
X139380511Y-77134271D01*
X139954000Y-77248345D01*
X140527489Y-77134271D01*
X141013670Y-76809415D01*
X141224000Y-76494634D01*
X141434330Y-76809415D01*
X141920511Y-77134271D01*
X142494000Y-77248345D01*
X143067489Y-77134271D01*
X143553670Y-76809415D01*
X143764000Y-76494634D01*
X143974330Y-76809415D01*
X144460511Y-77134271D01*
X145034000Y-77248345D01*
X145607489Y-77134271D01*
X146093670Y-76809415D01*
X146304000Y-76494634D01*
X146514330Y-76809415D01*
X147000511Y-77134271D01*
X147574000Y-77248345D01*
X148147489Y-77134271D01*
X148633670Y-76809415D01*
X148844000Y-76494634D01*
X149054330Y-76809415D01*
X149540511Y-77134271D01*
X150114000Y-77248345D01*
X150687489Y-77134271D01*
X151173670Y-76809415D01*
X151384000Y-76494634D01*
X151594330Y-76809415D01*
X152080511Y-77134271D01*
X152654000Y-77248345D01*
X153227489Y-77134271D01*
X153713670Y-76809415D01*
X154038526Y-76323234D01*
X154152600Y-75749745D01*
X154152600Y-75380255D01*
X155219400Y-75380255D01*
X155219400Y-75749745D01*
X155333474Y-76323234D01*
X155658330Y-76809415D01*
X156144511Y-77134271D01*
X156718000Y-77248345D01*
X157291489Y-77134271D01*
X157777670Y-76809415D01*
X157988000Y-76494634D01*
X158198330Y-76809415D01*
X158684511Y-77134271D01*
X159258000Y-77248345D01*
X159831489Y-77134271D01*
X160317670Y-76809415D01*
X160528000Y-76494634D01*
X160738330Y-76809415D01*
X161224511Y-77134271D01*
X161798000Y-77248345D01*
X162371489Y-77134271D01*
X162857670Y-76809415D01*
X163068000Y-76494634D01*
X163278330Y-76809415D01*
X163764511Y-77134271D01*
X164338000Y-77248345D01*
X164911489Y-77134271D01*
X165397670Y-76809415D01*
X165608000Y-76494634D01*
X165818330Y-76809415D01*
X166304511Y-77134271D01*
X166878000Y-77248345D01*
X167451489Y-77134271D01*
X167937670Y-76809415D01*
X168148000Y-76494634D01*
X168358330Y-76809415D01*
X168844511Y-77134271D01*
X169418000Y-77248345D01*
X169991489Y-77134271D01*
X170477670Y-76809415D01*
X170688000Y-76494634D01*
X170898330Y-76809415D01*
X171384511Y-77134271D01*
X171958000Y-77248345D01*
X172531489Y-77134271D01*
X173017670Y-76809415D01*
X173228000Y-76494634D01*
X173438330Y-76809415D01*
X173924511Y-77134271D01*
X174498000Y-77248345D01*
X175071489Y-77134271D01*
X175557670Y-76809415D01*
X175882526Y-76323234D01*
X175996600Y-75749745D01*
X175996600Y-75380255D01*
X175882526Y-74806766D01*
X175557670Y-74320585D01*
X175071489Y-73995729D01*
X174498000Y-73881655D01*
X173924511Y-73995729D01*
X173438330Y-74320585D01*
X173228000Y-74635366D01*
X173017670Y-74320585D01*
X172531489Y-73995729D01*
X171958000Y-73881655D01*
X171384511Y-73995729D01*
X170898330Y-74320585D01*
X170688000Y-74635366D01*
X170477670Y-74320585D01*
X169991489Y-73995729D01*
X169418000Y-73881655D01*
X168844511Y-73995729D01*
X168358330Y-74320585D01*
X168148000Y-74635366D01*
X167937670Y-74320585D01*
X167451489Y-73995729D01*
X166878000Y-73881655D01*
X166304511Y-73995729D01*
X165818330Y-74320585D01*
X165608000Y-74635366D01*
X165397670Y-74320585D01*
X164911489Y-73995729D01*
X164338000Y-73881655D01*
X163764511Y-73995729D01*
X163278330Y-74320585D01*
X163068000Y-74635366D01*
X162857670Y-74320585D01*
X162371489Y-73995729D01*
X161798000Y-73881655D01*
X161224511Y-73995729D01*
X160738330Y-74320585D01*
X160528000Y-74635366D01*
X160317670Y-74320585D01*
X159831489Y-73995729D01*
X159258000Y-73881655D01*
X158684511Y-73995729D01*
X158198330Y-74320585D01*
X157988000Y-74635366D01*
X157777670Y-74320585D01*
X157291489Y-73995729D01*
X156718000Y-73881655D01*
X156144511Y-73995729D01*
X155658330Y-74320585D01*
X155333474Y-74806766D01*
X155219400Y-75380255D01*
X154152600Y-75380255D01*
X154038526Y-74806766D01*
X153713670Y-74320585D01*
X153227489Y-73995729D01*
X152654000Y-73881655D01*
X152080511Y-73995729D01*
X151594330Y-74320585D01*
X151384000Y-74635366D01*
X151173670Y-74320585D01*
X150687489Y-73995729D01*
X150114000Y-73881655D01*
X149540511Y-73995729D01*
X149054330Y-74320585D01*
X148844000Y-74635366D01*
X148633670Y-74320585D01*
X148147489Y-73995729D01*
X147574000Y-73881655D01*
X147000511Y-73995729D01*
X146514330Y-74320585D01*
X146304000Y-74635366D01*
X146093670Y-74320585D01*
X145607489Y-73995729D01*
X145034000Y-73881655D01*
X144460511Y-73995729D01*
X143974330Y-74320585D01*
X143764000Y-74635366D01*
X143553670Y-74320585D01*
X143067489Y-73995729D01*
X142494000Y-73881655D01*
X141920511Y-73995729D01*
X141434330Y-74320585D01*
X141224000Y-74635366D01*
X141013670Y-74320585D01*
X140527489Y-73995729D01*
X139954000Y-73881655D01*
X139380511Y-73995729D01*
X138894330Y-74320585D01*
X138687539Y-74630069D01*
X138316036Y-74214268D01*
X137788791Y-73960291D01*
X137773026Y-73957642D01*
X137541000Y-74078783D01*
X137287000Y-74078783D01*
X137054974Y-73957642D01*
X137039209Y-73960291D01*
X136511964Y-74214268D01*
X136140461Y-74630069D01*
X135933670Y-74320585D01*
X135447489Y-73995729D01*
X134874000Y-73881655D01*
X134300511Y-73995729D01*
X133814330Y-74320585D01*
X133604000Y-74635366D01*
X133393670Y-74320585D01*
X132907489Y-73995729D01*
X132334000Y-73881655D01*
X131760511Y-73995729D01*
X131274330Y-74320585D01*
X131064000Y-74635366D01*
X130853670Y-74320585D01*
X130367489Y-73995729D01*
X129794000Y-73881655D01*
X129220511Y-73995729D01*
X128734330Y-74320585D01*
X128409474Y-74806766D01*
X128383470Y-74937498D01*
X128123242Y-74307700D01*
X127551541Y-73735000D01*
X175219908Y-73735000D01*
X176328000Y-74843091D01*
X176328000Y-85979000D01*
X176382046Y-86250705D01*
X176535954Y-86481046D01*
X176911000Y-86856092D01*
X176911000Y-88582388D01*
X176597857Y-88582115D01*
X175780700Y-88919758D01*
X175154955Y-89544411D01*
X174815887Y-90360978D01*
X174815115Y-91245143D01*
X175152758Y-92062300D01*
X175777411Y-92688045D01*
X176593978Y-93027113D01*
X176911000Y-93027390D01*
X176911000Y-93270000D01*
X173863000Y-93270000D01*
X173794416Y-93283642D01*
X173481483Y-93331978D01*
X173225543Y-93437992D01*
X173225541Y-93437993D01*
X173019532Y-93575644D01*
X172823644Y-93771532D01*
X172685993Y-93977541D01*
X172685992Y-93977542D01*
X172579978Y-94233483D01*
X172531642Y-94476487D01*
X172531642Y-94546416D01*
X172518000Y-94615000D01*
X172518000Y-102235000D01*
X172531642Y-102303584D01*
X172531642Y-102373513D01*
X172579978Y-102616517D01*
X172685992Y-102872458D01*
X172685993Y-102872459D01*
X172823644Y-103078468D01*
X173019532Y-103274356D01*
X173225541Y-103412007D01*
X173225543Y-103412008D01*
X173481483Y-103518022D01*
X173724488Y-103566358D01*
X173794416Y-103566358D01*
X173863000Y-103580000D01*
X176911000Y-103580000D01*
X176911000Y-116522388D01*
X176597857Y-116522115D01*
X175780700Y-116859758D01*
X175154955Y-117484411D01*
X174815887Y-118300978D01*
X174815115Y-119185143D01*
X175152758Y-120002300D01*
X175777411Y-120628045D01*
X176593978Y-120967113D01*
X176911000Y-120967390D01*
X176911000Y-122947908D01*
X176535954Y-123322954D01*
X176382046Y-123553295D01*
X176328000Y-123825000D01*
X176328000Y-125655000D01*
X127635000Y-125655000D01*
X127635000Y-123270987D01*
X128612752Y-123270987D01*
X128830757Y-123798600D01*
X129234077Y-124202624D01*
X129761309Y-124421550D01*
X130332187Y-124422048D01*
X130859800Y-124204043D01*
X131263824Y-123800723D01*
X131330456Y-123640255D01*
X137439400Y-123640255D01*
X137439400Y-124009745D01*
X137553474Y-124583234D01*
X137878330Y-125069415D01*
X138364511Y-125394271D01*
X138938000Y-125508345D01*
X139511489Y-125394271D01*
X139997670Y-125069415D01*
X140208000Y-124754634D01*
X140418330Y-125069415D01*
X140904511Y-125394271D01*
X141478000Y-125508345D01*
X142051489Y-125394271D01*
X142537670Y-125069415D01*
X142748000Y-124754634D01*
X142958330Y-125069415D01*
X143444511Y-125394271D01*
X144018000Y-125508345D01*
X144591489Y-125394271D01*
X145077670Y-125069415D01*
X145288000Y-124754634D01*
X145498330Y-125069415D01*
X145984511Y-125394271D01*
X146558000Y-125508345D01*
X147131489Y-125394271D01*
X147617670Y-125069415D01*
X147828000Y-124754634D01*
X148038330Y-125069415D01*
X148524511Y-125394271D01*
X149098000Y-125508345D01*
X149671489Y-125394271D01*
X150157670Y-125069415D01*
X150364461Y-124759931D01*
X150735964Y-125175732D01*
X151263209Y-125429709D01*
X151278974Y-125432358D01*
X151511000Y-125311217D01*
X151511000Y-123952000D01*
X151765000Y-123952000D01*
X151765000Y-125311217D01*
X151997026Y-125432358D01*
X152012791Y-125429709D01*
X152540036Y-125175732D01*
X152908000Y-124763892D01*
X153275964Y-125175732D01*
X153803209Y-125429709D01*
X153818974Y-125432358D01*
X154051000Y-125311217D01*
X154051000Y-123952000D01*
X151765000Y-123952000D01*
X151511000Y-123952000D01*
X151491000Y-123952000D01*
X151491000Y-123698000D01*
X151511000Y-123698000D01*
X151511000Y-122338783D01*
X151765000Y-122338783D01*
X151765000Y-123698000D01*
X154051000Y-123698000D01*
X154051000Y-122338783D01*
X154305000Y-122338783D01*
X154305000Y-123698000D01*
X154325000Y-123698000D01*
X154325000Y-123952000D01*
X154305000Y-123952000D01*
X154305000Y-125311217D01*
X154537026Y-125432358D01*
X154552791Y-125429709D01*
X155080036Y-125175732D01*
X155451539Y-124759931D01*
X155658330Y-125069415D01*
X156144511Y-125394271D01*
X156718000Y-125508345D01*
X157291489Y-125394271D01*
X157777670Y-125069415D01*
X158102526Y-124583234D01*
X158216600Y-124009745D01*
X158216600Y-123640255D01*
X158102526Y-123066766D01*
X157777670Y-122580585D01*
X157291489Y-122255729D01*
X156718000Y-122141655D01*
X156144511Y-122255729D01*
X155658330Y-122580585D01*
X155451539Y-122890069D01*
X155080036Y-122474268D01*
X154552791Y-122220291D01*
X154537026Y-122217642D01*
X154305000Y-122338783D01*
X154051000Y-122338783D01*
X153818974Y-122217642D01*
X153803209Y-122220291D01*
X153275964Y-122474268D01*
X152908000Y-122886108D01*
X152540036Y-122474268D01*
X152012791Y-122220291D01*
X151997026Y-122217642D01*
X151765000Y-122338783D01*
X151511000Y-122338783D01*
X151278974Y-122217642D01*
X151263209Y-122220291D01*
X150735964Y-122474268D01*
X150364461Y-122890069D01*
X150157670Y-122580585D01*
X149671489Y-122255729D01*
X149098000Y-122141655D01*
X148524511Y-122255729D01*
X148038330Y-122580585D01*
X147828000Y-122895366D01*
X147617670Y-122580585D01*
X147131489Y-122255729D01*
X146558000Y-122141655D01*
X145984511Y-122255729D01*
X145498330Y-122580585D01*
X145288000Y-122895366D01*
X145077670Y-122580585D01*
X144591489Y-122255729D01*
X144018000Y-122141655D01*
X143444511Y-122255729D01*
X142958330Y-122580585D01*
X142748000Y-122895366D01*
X142537670Y-122580585D01*
X142051489Y-122255729D01*
X141478000Y-122141655D01*
X140904511Y-122255729D01*
X140418330Y-122580585D01*
X140208000Y-122895366D01*
X139997670Y-122580585D01*
X139511489Y-122255729D01*
X138938000Y-122141655D01*
X138364511Y-122255729D01*
X137878330Y-122580585D01*
X137553474Y-123066766D01*
X137439400Y-123640255D01*
X131330456Y-123640255D01*
X131482750Y-123273491D01*
X131483248Y-122702613D01*
X131265243Y-122175000D01*
X130861923Y-121770976D01*
X130334691Y-121552050D01*
X129763813Y-121551552D01*
X129236200Y-121769557D01*
X128832176Y-122172877D01*
X128613250Y-122700109D01*
X128612752Y-123270987D01*
X127635000Y-123270987D01*
X127635000Y-118110000D01*
X127626315Y-118063841D01*
X127599035Y-118021447D01*
X127557410Y-117993006D01*
X127508000Y-117983000D01*
X122191721Y-117983000D01*
X122078117Y-117708057D01*
X122045000Y-117674882D01*
X122045000Y-116392802D01*
X122107802Y-116330000D01*
X129286000Y-116330000D01*
X129576839Y-116272148D01*
X129823401Y-116107401D01*
X134945891Y-110984912D01*
X134920560Y-111110000D01*
X134920560Y-111129080D01*
X134780599Y-111222599D01*
X132050599Y-113952599D01*
X131885852Y-114199161D01*
X131828000Y-114490000D01*
X131828000Y-118303198D01*
X131307998Y-118823200D01*
X131286646Y-118823200D01*
X131265243Y-118771400D01*
X130861923Y-118367376D01*
X130334691Y-118148450D01*
X129763813Y-118147952D01*
X129236200Y-118365957D01*
X128832176Y-118769277D01*
X128613250Y-119296509D01*
X128612752Y-119867387D01*
X128830757Y-120395000D01*
X129234077Y-120799024D01*
X129761309Y-121017950D01*
X130332187Y-121018448D01*
X130859800Y-120800443D01*
X131263824Y-120397123D01*
X131286215Y-120343200D01*
X131622800Y-120343200D01*
X131913639Y-120285348D01*
X132160201Y-120120601D01*
X133125401Y-119155401D01*
X133290148Y-118908839D01*
X133348000Y-118618000D01*
X133348000Y-114804802D01*
X133829258Y-114323544D01*
X133962673Y-114457192D01*
X134306201Y-114599838D01*
X134678167Y-114600162D01*
X134952860Y-114486661D01*
X134964838Y-114550317D01*
X135007138Y-114616053D01*
X134971569Y-114668110D01*
X134955092Y-114749474D01*
X134679799Y-114635162D01*
X134307833Y-114634838D01*
X133964057Y-114776883D01*
X133700808Y-115039673D01*
X133558162Y-115383201D01*
X133557838Y-115755167D01*
X133699883Y-116098943D01*
X133962673Y-116362192D01*
X134306201Y-116504838D01*
X134678167Y-116505162D01*
X134952860Y-116391661D01*
X134964838Y-116455317D01*
X135103910Y-116671441D01*
X135316110Y-116816431D01*
X135568000Y-116867440D01*
X137068000Y-116867440D01*
X137303317Y-116823162D01*
X137519441Y-116684090D01*
X137664431Y-116471890D01*
X137667081Y-116458803D01*
X137803910Y-116671441D01*
X138016110Y-116816431D01*
X138268000Y-116867440D01*
X139768000Y-116867440D01*
X140003317Y-116823162D01*
X140219441Y-116684090D01*
X140230745Y-116667547D01*
X144115599Y-120552401D01*
X144362160Y-120717148D01*
X144653000Y-120775000D01*
X156559598Y-120775000D01*
X160146999Y-124362401D01*
X160393561Y-124527148D01*
X160402679Y-124528962D01*
X160413474Y-124583234D01*
X160738330Y-125069415D01*
X161224511Y-125394271D01*
X161798000Y-125508345D01*
X162371489Y-125394271D01*
X162857670Y-125069415D01*
X163068000Y-124754634D01*
X163278330Y-125069415D01*
X163764511Y-125394271D01*
X164338000Y-125508345D01*
X164911489Y-125394271D01*
X165397670Y-125069415D01*
X165608000Y-124754634D01*
X165818330Y-125069415D01*
X166304511Y-125394271D01*
X166878000Y-125508345D01*
X167451489Y-125394271D01*
X167937670Y-125069415D01*
X168148000Y-124754634D01*
X168358330Y-125069415D01*
X168844511Y-125394271D01*
X169418000Y-125508345D01*
X169991489Y-125394271D01*
X170477670Y-125069415D01*
X170688000Y-124754634D01*
X170898330Y-125069415D01*
X171384511Y-125394271D01*
X171958000Y-125508345D01*
X172531489Y-125394271D01*
X173017670Y-125069415D01*
X173228000Y-124754634D01*
X173438330Y-125069415D01*
X173924511Y-125394271D01*
X174498000Y-125508345D01*
X175071489Y-125394271D01*
X175557670Y-125069415D01*
X175882526Y-124583234D01*
X175996600Y-124009745D01*
X175996600Y-123640255D01*
X175882526Y-123066766D01*
X175557670Y-122580585D01*
X175071489Y-122255729D01*
X174498000Y-122141655D01*
X173924511Y-122255729D01*
X173438330Y-122580585D01*
X173228000Y-122895366D01*
X173017670Y-122580585D01*
X172531489Y-122255729D01*
X171958000Y-122141655D01*
X171384511Y-122255729D01*
X170898330Y-122580585D01*
X170688000Y-122895366D01*
X170477670Y-122580585D01*
X169991489Y-122255729D01*
X169418000Y-122141655D01*
X169037536Y-122217334D01*
X166805801Y-119985599D01*
X166559239Y-119820852D01*
X166268400Y-119763000D01*
X159606434Y-119763000D01*
X158288435Y-118445000D01*
X165030560Y-118445000D01*
X165030560Y-118635000D01*
X165074838Y-118870317D01*
X165213910Y-119086441D01*
X165426110Y-119231431D01*
X165678000Y-119282440D01*
X168078000Y-119282440D01*
X168313317Y-119238162D01*
X168529441Y-119099090D01*
X168674431Y-118886890D01*
X168725440Y-118635000D01*
X168725440Y-114735000D01*
X168681162Y-114499683D01*
X168542090Y-114283559D01*
X168329890Y-114138569D01*
X168078000Y-114087560D01*
X167683712Y-114087560D01*
X167916086Y-113991545D01*
X168432730Y-113475801D01*
X168712681Y-112801605D01*
X168713318Y-112071597D01*
X168434545Y-111396914D01*
X167918801Y-110880270D01*
X167244605Y-110600319D01*
X166514597Y-110599682D01*
X165839914Y-110878455D01*
X165323270Y-111394199D01*
X165043319Y-112068395D01*
X165042682Y-112798403D01*
X165321455Y-113473086D01*
X165837199Y-113989730D01*
X166072799Y-114087560D01*
X165678000Y-114087560D01*
X165442683Y-114131838D01*
X165226559Y-114270910D01*
X165081569Y-114483110D01*
X165030560Y-114735000D01*
X165030560Y-116425000D01*
X147571356Y-116425000D01*
X145028000Y-113881644D01*
X145028000Y-105980750D01*
X146233000Y-105980750D01*
X146233000Y-109321310D01*
X146329673Y-109554699D01*
X146508302Y-109733327D01*
X146741691Y-109830000D01*
X150082250Y-109830000D01*
X150241000Y-109671250D01*
X150241000Y-105822000D01*
X150495000Y-105822000D01*
X150495000Y-109671250D01*
X150653750Y-109830000D01*
X153994309Y-109830000D01*
X154227698Y-109733327D01*
X154406327Y-109554699D01*
X154503000Y-109321310D01*
X154503000Y-105980750D01*
X154344250Y-105822000D01*
X150495000Y-105822000D01*
X150241000Y-105822000D01*
X146391750Y-105822000D01*
X146233000Y-105980750D01*
X145028000Y-105980750D01*
X145028000Y-102068690D01*
X146233000Y-102068690D01*
X146233000Y-105409250D01*
X146391750Y-105568000D01*
X150241000Y-105568000D01*
X150241000Y-101718750D01*
X150495000Y-101718750D01*
X150495000Y-105568000D01*
X154344250Y-105568000D01*
X154503000Y-105409250D01*
X154503000Y-102068690D01*
X154406327Y-101835301D01*
X154227698Y-101656673D01*
X153994309Y-101560000D01*
X150653750Y-101560000D01*
X150495000Y-101718750D01*
X150241000Y-101718750D01*
X150082250Y-101560000D01*
X146741691Y-101560000D01*
X146508302Y-101656673D01*
X146329673Y-101835301D01*
X146233000Y-102068690D01*
X145028000Y-102068690D01*
X145028000Y-99305000D01*
X146420560Y-99305000D01*
X146420560Y-100045000D01*
X146464838Y-100280317D01*
X146603910Y-100496441D01*
X146816110Y-100641431D01*
X147068000Y-100692440D01*
X149068000Y-100692440D01*
X149303317Y-100648162D01*
X149519441Y-100509090D01*
X149664431Y-100296890D01*
X149715440Y-100045000D01*
X149715440Y-96545000D01*
X151000560Y-96545000D01*
X151000560Y-100045000D01*
X151044838Y-100280317D01*
X151183910Y-100496441D01*
X151396110Y-100641431D01*
X151648000Y-100692440D01*
X153648000Y-100692440D01*
X153883317Y-100648162D01*
X154099441Y-100509090D01*
X154244431Y-100296890D01*
X154295440Y-100045000D01*
X154295440Y-99305000D01*
X158074644Y-99305000D01*
X160788000Y-102018356D01*
X160788000Y-105410000D01*
X160864882Y-105796510D01*
X161083822Y-106124178D01*
X162948822Y-107989178D01*
X163276490Y-108208118D01*
X163663000Y-108285000D01*
X165030560Y-108285000D01*
X165030560Y-108475000D01*
X165074838Y-108710317D01*
X165213910Y-108926441D01*
X165426110Y-109071431D01*
X165678000Y-109122440D01*
X168078000Y-109122440D01*
X168313317Y-109078162D01*
X168529441Y-108939090D01*
X168674431Y-108726890D01*
X168725440Y-108475000D01*
X168725440Y-104575000D01*
X168681162Y-104339683D01*
X168542090Y-104123559D01*
X168329890Y-103978569D01*
X168078000Y-103927560D01*
X167683712Y-103927560D01*
X167916086Y-103831545D01*
X168432730Y-103315801D01*
X168712681Y-102641605D01*
X168713318Y-101911597D01*
X168434545Y-101236914D01*
X167918801Y-100720270D01*
X167244605Y-100440319D01*
X166514597Y-100439682D01*
X165839914Y-100718455D01*
X165323270Y-101234199D01*
X165043319Y-101908395D01*
X165042682Y-102638403D01*
X165321455Y-103313086D01*
X165837199Y-103829730D01*
X166072799Y-103927560D01*
X165678000Y-103927560D01*
X165442683Y-103971838D01*
X165226559Y-104110910D01*
X165081569Y-104323110D01*
X165030560Y-104575000D01*
X165030560Y-106265000D01*
X164081356Y-106265000D01*
X162808000Y-104991644D01*
X162808000Y-101600000D01*
X162731118Y-101213490D01*
X162512178Y-100885822D01*
X159207178Y-97580822D01*
X158879510Y-97361882D01*
X158493000Y-97285000D01*
X154295440Y-97285000D01*
X154295440Y-96545000D01*
X154251162Y-96309683D01*
X154112090Y-96093559D01*
X153899890Y-95948569D01*
X153658000Y-95899585D01*
X153658000Y-94990000D01*
X153654398Y-94971890D01*
X162896524Y-94971890D01*
X163066355Y-95381924D01*
X163456642Y-95810183D01*
X163981108Y-96056486D01*
X164211000Y-95935819D01*
X164211000Y-94742000D01*
X164465000Y-94742000D01*
X164465000Y-95935819D01*
X164694892Y-96056486D01*
X165219358Y-95810183D01*
X165608000Y-95383729D01*
X165996642Y-95810183D01*
X166521108Y-96056486D01*
X166751000Y-95935819D01*
X166751000Y-94742000D01*
X167005000Y-94742000D01*
X167005000Y-95935819D01*
X167234892Y-96056486D01*
X167759358Y-95810183D01*
X168148000Y-95383729D01*
X168536642Y-95810183D01*
X169061108Y-96056486D01*
X169291000Y-95935819D01*
X169291000Y-94742000D01*
X169545000Y-94742000D01*
X169545000Y-95935819D01*
X169774892Y-96056486D01*
X170299358Y-95810183D01*
X170689645Y-95381924D01*
X170859476Y-94971890D01*
X170738155Y-94742000D01*
X169545000Y-94742000D01*
X169291000Y-94742000D01*
X167005000Y-94742000D01*
X166751000Y-94742000D01*
X164465000Y-94742000D01*
X164211000Y-94742000D01*
X163017845Y-94742000D01*
X162896524Y-94971890D01*
X153654398Y-94971890D01*
X153581118Y-94603490D01*
X153362178Y-94275822D01*
X152987178Y-93900822D01*
X152659510Y-93681882D01*
X152273000Y-93605000D01*
X151886490Y-93681882D01*
X151558822Y-93900822D01*
X151339882Y-94228490D01*
X151263000Y-94615000D01*
X151339882Y-95001510D01*
X151558822Y-95329178D01*
X151638000Y-95408356D01*
X151638000Y-95899442D01*
X151412683Y-95941838D01*
X151196559Y-96080910D01*
X151051569Y-96293110D01*
X151000560Y-96545000D01*
X149715440Y-96545000D01*
X149671162Y-96309683D01*
X149532090Y-96093559D01*
X149319890Y-95948569D01*
X149068000Y-95897560D01*
X147068000Y-95897560D01*
X146832683Y-95941838D01*
X146616559Y-96080910D01*
X146471569Y-96293110D01*
X146420560Y-96545000D01*
X146420560Y-97285000D01*
X145028000Y-97285000D01*
X145028000Y-95250000D01*
X144951118Y-94863490D01*
X144732178Y-94535822D01*
X144404510Y-94316882D01*
X144018000Y-94240000D01*
X143631490Y-94316882D01*
X143303822Y-94535822D01*
X143084882Y-94863490D01*
X143008000Y-95250000D01*
X143008000Y-114300000D01*
X143084882Y-114686510D01*
X143303822Y-115014178D01*
X146194611Y-117904967D01*
X145527001Y-117904967D01*
X142873000Y-115250966D01*
X142873000Y-110490000D01*
X142815148Y-110199161D01*
X142650401Y-109952599D01*
X142015401Y-109317599D01*
X141768839Y-109152852D01*
X141478000Y-109095000D01*
X140394742Y-109095000D01*
X140371162Y-108969683D01*
X140232090Y-108753559D01*
X140019890Y-108608569D01*
X139768000Y-108557560D01*
X138268000Y-108557560D01*
X138032683Y-108601838D01*
X137816559Y-108740910D01*
X137671569Y-108953110D01*
X137668919Y-108966197D01*
X137532090Y-108753559D01*
X137319890Y-108608569D01*
X137068000Y-108557560D01*
X135568000Y-108557560D01*
X135332683Y-108601838D01*
X135116559Y-108740910D01*
X134971569Y-108953110D01*
X134940394Y-109107055D01*
X134710161Y-109152852D01*
X134463599Y-109317598D01*
X128971198Y-114810000D01*
X121793000Y-114810000D01*
X121502161Y-114867852D01*
X121426867Y-114918162D01*
X121255599Y-115032599D01*
X120747599Y-115540599D01*
X120582852Y-115787161D01*
X120525000Y-116078000D01*
X120525000Y-117674537D01*
X120492808Y-117706673D01*
X120378066Y-117983000D01*
X117348000Y-117983000D01*
X117301841Y-117991685D01*
X117259447Y-118018965D01*
X117231006Y-118060590D01*
X117221000Y-118110000D01*
X117221000Y-125655000D01*
X111708000Y-125655000D01*
X111708000Y-110067000D01*
X117773000Y-110067000D01*
X117773000Y-110817000D01*
X117927028Y-111337349D01*
X118268460Y-111759145D01*
X118745316Y-112018173D01*
X118816815Y-112032318D01*
X119031000Y-111909656D01*
X119031000Y-110067000D01*
X117773000Y-110067000D01*
X111708000Y-110067000D01*
X111708000Y-109063000D01*
X117773000Y-109063000D01*
X117773000Y-109813000D01*
X119031000Y-109813000D01*
X119031000Y-107970344D01*
X119285000Y-107970344D01*
X119285000Y-109813000D01*
X119305000Y-109813000D01*
X119305000Y-110067000D01*
X119285000Y-110067000D01*
X119285000Y-111909656D01*
X119499185Y-112032318D01*
X119570684Y-112018173D01*
X120047540Y-111759145D01*
X120136928Y-111648718D01*
X120178657Y-111711170D01*
X120627983Y-112011400D01*
X121158000Y-112116827D01*
X121688017Y-112011400D01*
X122137343Y-111711170D01*
X122158000Y-111680255D01*
X122178657Y-111711170D01*
X122627983Y-112011400D01*
X123158000Y-112116827D01*
X123688017Y-112011400D01*
X124137343Y-111711170D01*
X124437573Y-111261844D01*
X124543000Y-110731827D01*
X124543000Y-109148173D01*
X124437573Y-108618156D01*
X124137343Y-108168830D01*
X123688017Y-107868600D01*
X123158000Y-107763173D01*
X122627983Y-107868600D01*
X122178657Y-108168830D01*
X122158000Y-108199745D01*
X122137343Y-108168830D01*
X121688017Y-107868600D01*
X121158000Y-107763173D01*
X120627983Y-107868600D01*
X120178657Y-108168830D01*
X120136928Y-108231282D01*
X120047540Y-108120855D01*
X119570684Y-107861827D01*
X119499185Y-107847682D01*
X119285000Y-107970344D01*
X119031000Y-107970344D01*
X118816815Y-107847682D01*
X118745316Y-107861827D01*
X118268460Y-108120855D01*
X117927028Y-108542651D01*
X117773000Y-109063000D01*
X111708000Y-109063000D01*
X111708000Y-107249170D01*
X113722790Y-107249170D01*
X113940792Y-107776773D01*
X114344104Y-108180790D01*
X114871326Y-108399712D01*
X115442194Y-108400210D01*
X115969797Y-108182208D01*
X116373814Y-107778896D01*
X116592736Y-107251674D01*
X116593234Y-106680806D01*
X116375232Y-106153203D01*
X115971920Y-105749186D01*
X115444698Y-105530264D01*
X114873830Y-105529766D01*
X114346227Y-105747768D01*
X113942210Y-106151080D01*
X113723288Y-106678302D01*
X113722790Y-107249170D01*
X111708000Y-107249170D01*
X111708000Y-103306185D01*
X127915682Y-103306185D01*
X127929827Y-103377684D01*
X128188855Y-103854540D01*
X128610651Y-104195972D01*
X129131000Y-104350000D01*
X129881000Y-104350000D01*
X129881000Y-103092000D01*
X130135000Y-103092000D01*
X130135000Y-104350000D01*
X130885000Y-104350000D01*
X131405349Y-104195972D01*
X131827145Y-103854540D01*
X132086173Y-103377684D01*
X132100318Y-103306185D01*
X131977656Y-103092000D01*
X130135000Y-103092000D01*
X129881000Y-103092000D01*
X128038344Y-103092000D01*
X127915682Y-103306185D01*
X111708000Y-103306185D01*
X111708000Y-98965000D01*
X127831173Y-98965000D01*
X127936600Y-99495017D01*
X128236830Y-99944343D01*
X128267745Y-99965000D01*
X128236830Y-99985657D01*
X127936600Y-100434983D01*
X127831173Y-100965000D01*
X127936600Y-101495017D01*
X128236830Y-101944343D01*
X128299282Y-101986072D01*
X128188855Y-102075460D01*
X127929827Y-102552316D01*
X127915682Y-102623815D01*
X128038344Y-102838000D01*
X129881000Y-102838000D01*
X129881000Y-102818000D01*
X130135000Y-102818000D01*
X130135000Y-102838000D01*
X131977656Y-102838000D01*
X132100318Y-102623815D01*
X132086173Y-102552316D01*
X131827145Y-102075460D01*
X131716718Y-101986072D01*
X131779170Y-101944343D01*
X132079400Y-101495017D01*
X132184827Y-100965000D01*
X132079400Y-100434983D01*
X131779170Y-99985657D01*
X131748255Y-99965000D01*
X131779170Y-99944343D01*
X132079400Y-99495017D01*
X132184827Y-98965000D01*
X132079400Y-98434983D01*
X131779170Y-97985657D01*
X131329844Y-97685427D01*
X130799827Y-97580000D01*
X129216173Y-97580000D01*
X128686156Y-97685427D01*
X128236830Y-97985657D01*
X127936600Y-98434983D01*
X127831173Y-98965000D01*
X111708000Y-98965000D01*
X111708000Y-95249194D01*
X125722766Y-95249194D01*
X125940768Y-95776797D01*
X126344080Y-96180814D01*
X126871302Y-96399736D01*
X127442170Y-96400234D01*
X127969773Y-96182232D01*
X128373790Y-95778920D01*
X128592712Y-95251698D01*
X128593210Y-94680830D01*
X128375208Y-94153227D01*
X127971896Y-93749210D01*
X127444674Y-93530288D01*
X126873806Y-93529790D01*
X126346203Y-93747792D01*
X125942186Y-94151104D01*
X125723264Y-94678326D01*
X125722766Y-95249194D01*
X111708000Y-95249194D01*
X111708000Y-92075000D01*
X162823907Y-92075000D01*
X162936946Y-92643285D01*
X163258853Y-93125054D01*
X163599553Y-93352702D01*
X163456642Y-93419817D01*
X163066355Y-93848076D01*
X162896524Y-94258110D01*
X163017845Y-94488000D01*
X164211000Y-94488000D01*
X164211000Y-94468000D01*
X164465000Y-94468000D01*
X164465000Y-94488000D01*
X166751000Y-94488000D01*
X166751000Y-94468000D01*
X167005000Y-94468000D01*
X167005000Y-94488000D01*
X169291000Y-94488000D01*
X169291000Y-94468000D01*
X169545000Y-94468000D01*
X169545000Y-94488000D01*
X170738155Y-94488000D01*
X170859476Y-94258110D01*
X170689645Y-93848076D01*
X170299358Y-93419817D01*
X170156447Y-93352702D01*
X170497147Y-93125054D01*
X170819054Y-92643285D01*
X170932093Y-92075000D01*
X170819054Y-91506715D01*
X170497147Y-91024946D01*
X170455548Y-90997150D01*
X170503317Y-90988162D01*
X170719441Y-90849090D01*
X170864431Y-90636890D01*
X170915440Y-90385000D01*
X170915440Y-88685000D01*
X170871162Y-88449683D01*
X170732090Y-88233559D01*
X170519890Y-88088569D01*
X170268000Y-88037560D01*
X168568000Y-88037560D01*
X168332683Y-88081838D01*
X168145923Y-88202015D01*
X167979890Y-88088569D01*
X167728000Y-88037560D01*
X166028000Y-88037560D01*
X165792683Y-88081838D01*
X165605923Y-88202015D01*
X165439890Y-88088569D01*
X165188000Y-88037560D01*
X163488000Y-88037560D01*
X163252683Y-88081838D01*
X163036559Y-88220910D01*
X162891569Y-88433110D01*
X162840560Y-88685000D01*
X162840560Y-90385000D01*
X162884838Y-90620317D01*
X163023910Y-90836441D01*
X163236110Y-90981431D01*
X163303541Y-90995086D01*
X163258853Y-91024946D01*
X162936946Y-91506715D01*
X162823907Y-92075000D01*
X111708000Y-92075000D01*
X111708000Y-88621890D01*
X125431524Y-88621890D01*
X125601355Y-89031924D01*
X125991642Y-89460183D01*
X126516108Y-89706486D01*
X126746000Y-89585819D01*
X126746000Y-88392000D01*
X127000000Y-88392000D01*
X127000000Y-89585819D01*
X127229892Y-89706486D01*
X127754358Y-89460183D01*
X128144645Y-89031924D01*
X128314476Y-88621890D01*
X128193155Y-88392000D01*
X127000000Y-88392000D01*
X126746000Y-88392000D01*
X125552845Y-88392000D01*
X125431524Y-88621890D01*
X111708000Y-88621890D01*
X111708000Y-85725000D01*
X125358907Y-85725000D01*
X125471946Y-86293285D01*
X125793853Y-86775054D01*
X126134553Y-87002702D01*
X125991642Y-87069817D01*
X125601355Y-87498076D01*
X125431524Y-87908110D01*
X125552845Y-88138000D01*
X126746000Y-88138000D01*
X126746000Y-88118000D01*
X127000000Y-88118000D01*
X127000000Y-88138000D01*
X128193155Y-88138000D01*
X128314476Y-87908110D01*
X128144645Y-87498076D01*
X127754358Y-87069817D01*
X127611447Y-87002702D01*
X127952147Y-86775054D01*
X128274054Y-86293285D01*
X128387093Y-85725000D01*
X128274054Y-85156715D01*
X127952147Y-84674946D01*
X127910548Y-84647150D01*
X127958317Y-84638162D01*
X128174441Y-84499090D01*
X128319431Y-84286890D01*
X128370440Y-84035000D01*
X128370440Y-82335000D01*
X128326162Y-82099683D01*
X128187090Y-81883559D01*
X127974890Y-81738569D01*
X127723000Y-81687560D01*
X126023000Y-81687560D01*
X125787683Y-81731838D01*
X125571559Y-81870910D01*
X125426569Y-82083110D01*
X125375560Y-82335000D01*
X125375560Y-84035000D01*
X125419838Y-84270317D01*
X125558910Y-84486441D01*
X125771110Y-84631431D01*
X125838541Y-84645086D01*
X125793853Y-84674946D01*
X125471946Y-85156715D01*
X125358907Y-85725000D01*
X111708000Y-85725000D01*
X111708000Y-74715000D01*
X113310560Y-74715000D01*
X113310560Y-76415000D01*
X113354838Y-76650317D01*
X113493910Y-76866441D01*
X113706110Y-77011431D01*
X113958000Y-77062440D01*
X115658000Y-77062440D01*
X115893317Y-77018162D01*
X116109441Y-76879090D01*
X116254431Y-76666890D01*
X116268086Y-76599459D01*
X116297946Y-76644147D01*
X116779715Y-76966054D01*
X117348000Y-77079093D01*
X117916285Y-76966054D01*
X118398054Y-76644147D01*
X118618000Y-76314974D01*
X118837946Y-76644147D01*
X119319715Y-76966054D01*
X119888000Y-77079093D01*
X120456285Y-76966054D01*
X120938054Y-76644147D01*
X121165702Y-76303447D01*
X121232817Y-76446358D01*
X121661076Y-76836645D01*
X122071110Y-77006476D01*
X122301000Y-76885155D01*
X122301000Y-75692000D01*
X122555000Y-75692000D01*
X122555000Y-76885155D01*
X122784890Y-77006476D01*
X123194924Y-76836645D01*
X123623183Y-76446358D01*
X123869486Y-75921892D01*
X123748819Y-75692000D01*
X122555000Y-75692000D01*
X122301000Y-75692000D01*
X122281000Y-75692000D01*
X122281000Y-75438000D01*
X122301000Y-75438000D01*
X122301000Y-74244845D01*
X122555000Y-74244845D01*
X122555000Y-75438000D01*
X123748819Y-75438000D01*
X123869486Y-75208108D01*
X123623183Y-74683642D01*
X123194924Y-74293355D01*
X122784890Y-74123524D01*
X122555000Y-74244845D01*
X122301000Y-74244845D01*
X122071110Y-74123524D01*
X121661076Y-74293355D01*
X121232817Y-74683642D01*
X121165702Y-74826553D01*
X120938054Y-74485853D01*
X120456285Y-74163946D01*
X119888000Y-74050907D01*
X119319715Y-74163946D01*
X118837946Y-74485853D01*
X118618000Y-74815026D01*
X118398054Y-74485853D01*
X117916285Y-74163946D01*
X117348000Y-74050907D01*
X116779715Y-74163946D01*
X116297946Y-74485853D01*
X116270150Y-74527452D01*
X116261162Y-74479683D01*
X116122090Y-74263559D01*
X115909890Y-74118569D01*
X115658000Y-74067560D01*
X113958000Y-74067560D01*
X113722683Y-74111838D01*
X113506559Y-74250910D01*
X113361569Y-74463110D01*
X113310560Y-74715000D01*
X111708000Y-74715000D01*
X111708000Y-73735000D01*
X124925361Y-73735000D01*
X124354955Y-74304411D01*
M02*
