G04 #@! TF.FileFunction,Soldermask,Top*
%FSLAX46Y46*%
G04 Gerber Fmt 4.6, Leading zero omitted, Abs format (unit mm)*
G04 Created by KiCad (PCBNEW 4.0.7-e2-6376~58~ubuntu16.04.1) date Wed Sep  6 23:34:51 2017*
%MOMM*%
%LPD*%
G01*
G04 APERTURE LIST*
%ADD10C,0.100000*%
%ADD11R,1.700000X1.700000*%
%ADD12O,1.700000X1.700000*%
%ADD13R,1.600000X2.600000*%
%ADD14R,1.000000X1.600000*%
%ADD15R,1.300000X1.500000*%
%ADD16R,1.500000X1.300000*%
%ADD17R,0.700000X1.000000*%
%ADD18O,1.727200X2.032000*%
%ADD19R,1.800860X3.500120*%
%ADD20R,1.500000X1.250000*%
%ADD21R,1.250000X1.500000*%
%ADD22C,1.600000*%
%ADD23C,2.400000*%
%ADD24R,2.400000X2.400000*%
%ADD25R,1.200000X1.200000*%
%ADD26R,1.600000X1.600000*%
%ADD27R,1.200000X0.200000*%
%ADD28C,3.175000*%
%ADD29C,0.787400*%
%ADD30C,0.990600*%
%ADD31C,2.374900*%
G04 APERTURE END LIST*
D10*
D11*
X164338000Y-80010000D03*
D12*
X164338000Y-82550000D03*
X164338000Y-85090000D03*
D13*
X156718000Y-82020000D03*
X156718000Y-85620000D03*
D14*
X146863000Y-86320000D03*
X150063000Y-86320000D03*
X146863000Y-81320000D03*
X150063000Y-81320000D03*
D15*
X121158000Y-119935000D03*
X121158000Y-122635000D03*
X160528000Y-95330000D03*
X160528000Y-92630000D03*
X152908000Y-95330000D03*
X152908000Y-92630000D03*
X148463000Y-95330000D03*
X148463000Y-92630000D03*
X116078000Y-119935000D03*
X116078000Y-122635000D03*
D16*
X138223000Y-120015000D03*
X140923000Y-120015000D03*
D17*
X157668000Y-92680000D03*
X156718000Y-92680000D03*
X155768000Y-92680000D03*
X155768000Y-95280000D03*
X157668000Y-95280000D03*
X156718000Y-95280000D03*
D18*
X156718000Y-75565000D03*
X159258000Y-75565000D03*
X161798000Y-75565000D03*
X164338000Y-75565000D03*
X166878000Y-75565000D03*
X169418000Y-75565000D03*
X171958000Y-75565000D03*
X174498000Y-75565000D03*
X129794000Y-75565000D03*
X132334000Y-75565000D03*
X134874000Y-75565000D03*
X137414000Y-75565000D03*
X139954000Y-75565000D03*
X142494000Y-75565000D03*
X145034000Y-75565000D03*
X147574000Y-75565000D03*
X150114000Y-75565000D03*
X152654000Y-75565000D03*
X161798000Y-123825000D03*
X164338000Y-123825000D03*
X166878000Y-123825000D03*
X169418000Y-123825000D03*
X171958000Y-123825000D03*
X174498000Y-123825000D03*
X138938000Y-123825000D03*
X141478000Y-123825000D03*
X144018000Y-123825000D03*
X146558000Y-123825000D03*
X149098000Y-123825000D03*
X151638000Y-123825000D03*
X154178000Y-123825000D03*
X156718000Y-123825000D03*
D11*
X114808000Y-75565000D03*
D12*
X117348000Y-75565000D03*
X119888000Y-75565000D03*
X122428000Y-75565000D03*
D11*
X140843000Y-81280000D03*
D12*
X140843000Y-83820000D03*
X140843000Y-86360000D03*
D11*
X166878000Y-80010000D03*
D12*
X166878000Y-82550000D03*
X166878000Y-85090000D03*
D11*
X169418000Y-80010000D03*
D12*
X169418000Y-82550000D03*
X169418000Y-85090000D03*
D19*
X159893000Y-107274360D03*
X159893000Y-102275640D03*
X159893000Y-117434360D03*
X159893000Y-112435640D03*
D20*
X117368000Y-81280000D03*
X119868000Y-81280000D03*
D21*
X144018000Y-82570000D03*
X144018000Y-85070000D03*
X160528000Y-82570000D03*
X160528000Y-85070000D03*
X152908000Y-82570000D03*
X152908000Y-85070000D03*
X142113000Y-99715000D03*
X142113000Y-102215000D03*
D20*
X128798000Y-114300000D03*
X131298000Y-114300000D03*
D21*
X145923000Y-99715000D03*
X145923000Y-102215000D03*
D13*
X150368000Y-99165000D03*
X150368000Y-102765000D03*
D22*
X130048000Y-119583200D03*
X130048000Y-122986800D03*
D23*
X166878000Y-112395000D03*
D24*
X166878000Y-117395000D03*
X166878000Y-115895000D03*
D23*
X166878000Y-102275000D03*
D24*
X166878000Y-107275000D03*
X166878000Y-105775000D03*
D25*
X133493000Y-123085000D03*
X135493000Y-123085000D03*
D26*
X134493000Y-119785000D03*
D27*
X133893000Y-123585000D03*
X135093000Y-123585000D03*
D22*
X116028000Y-102945000D03*
X116028000Y-96445000D03*
X120528000Y-96445000D03*
X120528000Y-102945000D03*
X138428000Y-102195000D03*
X138428000Y-99695000D03*
X138428000Y-97195000D03*
X131278000Y-109695000D03*
X128778000Y-109695000D03*
X126278000Y-109695000D03*
D28*
X124968000Y-123825000D03*
X177038000Y-118745000D03*
X177038000Y-90805000D03*
X126238000Y-75565000D03*
D29*
X168783000Y-94615000D03*
X167513000Y-94615000D03*
X168783000Y-93345000D03*
X167513000Y-93345000D03*
X168783000Y-92075000D03*
X167513000Y-92075000D03*
D30*
X168148000Y-95885000D03*
X167132000Y-90805000D03*
X169164000Y-90805000D03*
D31*
X165608000Y-95885000D03*
X170688000Y-95885000D03*
X170688000Y-92710000D03*
X165608000Y-92710000D03*
M02*
