G04 #@! TF.FileFunction,Paste,Top*
%FSLAX46Y46*%
G04 Gerber Fmt 4.6, Leading zero omitted, Abs format (unit mm)*
G04 Created by KiCad (PCBNEW 4.0.7-e2-6376~58~ubuntu16.04.1) date Mon Oct  9 19:50:18 2017*
%MOMM*%
%LPD*%
G01*
G04 APERTURE LIST*
%ADD10C,0.100000*%
%ADD11R,1.600000X2.600000*%
%ADD12R,1.000000X1.600000*%
%ADD13R,1.300000X1.500000*%
%ADD14R,1.500000X1.300000*%
%ADD15R,0.700000X1.000000*%
%ADD16R,1.800860X3.500120*%
%ADD17R,1.500000X1.250000*%
%ADD18R,1.250000X1.500000*%
%ADD19R,1.200000X1.200000*%
%ADD20R,1.600000X1.600000*%
%ADD21R,1.200000X0.200000*%
G04 APERTURE END LIST*
D10*
D11*
X156718000Y-82020000D03*
X156718000Y-85620000D03*
D12*
X146863000Y-86320000D03*
X150063000Y-86320000D03*
X146863000Y-81320000D03*
X150063000Y-81320000D03*
D13*
X121158000Y-119935000D03*
X121158000Y-122635000D03*
X160528000Y-95330000D03*
X160528000Y-92630000D03*
X152908000Y-95330000D03*
X152908000Y-92630000D03*
X148463000Y-95330000D03*
X148463000Y-92630000D03*
X116078000Y-119935000D03*
X116078000Y-122635000D03*
D14*
X138223000Y-120015000D03*
X140923000Y-120015000D03*
D15*
X157668000Y-92680000D03*
X156718000Y-92680000D03*
X155768000Y-92680000D03*
X155768000Y-95280000D03*
X157668000Y-95280000D03*
X156718000Y-95280000D03*
D16*
X159893000Y-107274360D03*
X159893000Y-102275640D03*
X159893000Y-117434360D03*
X159893000Y-112435640D03*
D17*
X117368000Y-81280000D03*
X119868000Y-81280000D03*
D18*
X144018000Y-82570000D03*
X144018000Y-85070000D03*
X160528000Y-82570000D03*
X160528000Y-85070000D03*
X152908000Y-82570000D03*
X152908000Y-85070000D03*
X142113000Y-99715000D03*
X142113000Y-102215000D03*
D17*
X128798000Y-114300000D03*
X131298000Y-114300000D03*
D18*
X145923000Y-99715000D03*
X145923000Y-102215000D03*
D11*
X150368000Y-99165000D03*
X150368000Y-102765000D03*
D19*
X133493000Y-123085000D03*
X135493000Y-123085000D03*
D20*
X134493000Y-119785000D03*
D21*
X133893000Y-123585000D03*
X135093000Y-123585000D03*
M02*
