G04 #@! TF.FileFunction,Copper,L1,Top,Signal*
%FSLAX46Y46*%
G04 Gerber Fmt 4.6, Leading zero omitted, Abs format (unit mm)*
G04 Created by KiCad (PCBNEW 4.0.7-e0-6372~58~ubuntu16.04.1) date Sat Aug 26 16:44:31 2017*
%MOMM*%
%LPD*%
G01*
G04 APERTURE LIST*
%ADD10C,0.100000*%
%ADD11R,1.600000X2.600000*%
%ADD12R,1.000000X1.600000*%
%ADD13R,1.300000X1.500000*%
%ADD14R,1.550000X1.300000*%
%ADD15R,1.500000X1.300000*%
%ADD16R,0.700000X1.000000*%
%ADD17O,1.727200X2.032000*%
%ADD18R,1.700000X1.700000*%
%ADD19O,1.700000X1.700000*%
%ADD20R,1.800860X3.500120*%
%ADD21R,1.250000X1.500000*%
%ADD22R,1.500000X1.250000*%
%ADD23O,1.500000X3.000000*%
%ADD24O,3.000000X1.500000*%
%ADD25C,1.600000*%
%ADD26C,2.400000*%
%ADD27R,2.400000X2.400000*%
%ADD28R,1.200000X1.200000*%
%ADD29R,1.600000X1.600000*%
%ADD30R,1.200000X0.200000*%
%ADD31C,0.600000*%
%ADD32C,0.750000*%
%ADD33C,0.250000*%
G04 APERTURE END LIST*
D10*
D11*
X155448000Y-90275000D03*
X155448000Y-93875000D03*
D12*
X133528000Y-88225000D03*
X136728000Y-88225000D03*
X133528000Y-83225000D03*
X136728000Y-83225000D03*
D13*
X121158000Y-122635000D03*
X121158000Y-119935000D03*
D14*
X138768000Y-103215000D03*
X138768000Y-98715000D03*
X146728000Y-98715000D03*
X146728000Y-103215000D03*
D13*
X174498000Y-83265000D03*
X174498000Y-80565000D03*
X165608000Y-83265000D03*
X165608000Y-80565000D03*
X162433000Y-83265000D03*
X162433000Y-80565000D03*
X116078000Y-119935000D03*
X116078000Y-122635000D03*
D15*
X138223000Y-120015000D03*
X140923000Y-120015000D03*
D16*
X171003000Y-80615000D03*
X170053000Y-80615000D03*
X169103000Y-80615000D03*
X169103000Y-83215000D03*
X171003000Y-83215000D03*
X170053000Y-83215000D03*
D17*
X156718000Y-75565000D03*
X159258000Y-75565000D03*
X161798000Y-75565000D03*
X164338000Y-75565000D03*
X166878000Y-75565000D03*
X169418000Y-75565000D03*
X171958000Y-75565000D03*
X174498000Y-75565000D03*
X129794000Y-75565000D03*
X132334000Y-75565000D03*
X134874000Y-75565000D03*
X137414000Y-75565000D03*
X139954000Y-75565000D03*
X142494000Y-75565000D03*
X145034000Y-75565000D03*
X147574000Y-75565000D03*
X150114000Y-75565000D03*
X152654000Y-75565000D03*
X161798000Y-123825000D03*
X164338000Y-123825000D03*
X166878000Y-123825000D03*
X169418000Y-123825000D03*
X171958000Y-123825000D03*
X174498000Y-123825000D03*
X138938000Y-123825000D03*
X141478000Y-123825000D03*
X144018000Y-123825000D03*
X146558000Y-123825000D03*
X149098000Y-123825000D03*
X151638000Y-123825000D03*
X154178000Y-123825000D03*
X156718000Y-123825000D03*
D18*
X114808000Y-75565000D03*
D19*
X117348000Y-75565000D03*
X119888000Y-75565000D03*
X122428000Y-75565000D03*
D18*
X126873000Y-83185000D03*
D19*
X126873000Y-85725000D03*
X126873000Y-88265000D03*
D18*
X164338000Y-89535000D03*
D19*
X164338000Y-92075000D03*
X164338000Y-94615000D03*
D18*
X166878000Y-89535000D03*
D19*
X166878000Y-92075000D03*
X166878000Y-94615000D03*
D18*
X169418000Y-89535000D03*
D19*
X169418000Y-92075000D03*
X169418000Y-94615000D03*
D20*
X157988000Y-107274360D03*
X157988000Y-102275640D03*
X157988000Y-117434360D03*
X157988000Y-112435640D03*
D21*
X114808000Y-84475000D03*
X114808000Y-86975000D03*
X121158000Y-84475000D03*
X121158000Y-86975000D03*
X159893000Y-90825000D03*
X159893000Y-93325000D03*
X141478000Y-84475000D03*
X141478000Y-86975000D03*
X135128000Y-102215000D03*
X135128000Y-99715000D03*
D22*
X122408000Y-114935000D03*
X119908000Y-114935000D03*
D21*
X144018000Y-93325000D03*
X144018000Y-90825000D03*
D11*
X149098000Y-93875000D03*
X149098000Y-90275000D03*
D23*
X121158000Y-109940000D03*
X119158000Y-109940000D03*
X123158000Y-109940000D03*
D24*
X130008000Y-100965000D03*
X130008000Y-98965000D03*
X130008000Y-102965000D03*
D25*
X130048000Y-122986800D03*
X130048000Y-119583200D03*
D26*
X166878000Y-112435000D03*
D27*
X166878000Y-117435000D03*
X166878000Y-115935000D03*
D26*
X166878000Y-102275000D03*
D27*
X166878000Y-107275000D03*
X166878000Y-105775000D03*
D28*
X133493000Y-123085000D03*
X135493000Y-123085000D03*
D29*
X134493000Y-119785000D03*
D30*
X133893000Y-123585000D03*
X135093000Y-123585000D03*
D31*
X142113000Y-120015000D03*
X116078000Y-124460000D03*
X174498000Y-85090000D03*
X165608000Y-85090000D03*
X149098000Y-86995000D03*
X138938000Y-101600000D03*
X135128000Y-98425000D03*
X121158000Y-88265000D03*
X114808000Y-88265000D03*
X131953000Y-88265000D03*
X140208000Y-86995000D03*
X119888000Y-113665000D03*
X170053000Y-81915000D03*
X144018000Y-95250000D03*
X134493000Y-115570000D03*
X134493000Y-113665000D03*
X121285000Y-118237000D03*
X152273000Y-94615000D03*
D32*
X117348000Y-106680000D02*
X122148000Y-106680000D01*
X122148000Y-106680000D02*
X123158000Y-107690000D01*
X123158000Y-107690000D02*
X123158000Y-109940000D01*
X130008000Y-98965000D02*
X119348000Y-98965000D01*
X119348000Y-98965000D02*
X117348000Y-100965000D01*
X130008000Y-98965000D02*
X130008000Y-95210000D01*
X123698000Y-88900000D02*
X123698000Y-84455000D01*
X130008000Y-95210000D02*
X123698000Y-88900000D01*
X122936000Y-116840000D02*
X127508000Y-116840000D01*
X127508000Y-116840000D02*
X128143000Y-117475000D01*
X130048000Y-122986800D02*
X129209800Y-122986800D01*
X129209800Y-122986800D02*
X128143000Y-121920000D01*
X128143000Y-121920000D02*
X128143000Y-117475000D01*
X121158000Y-122635000D02*
X121840000Y-122635000D01*
X122936000Y-121539000D02*
X122936000Y-116840000D01*
X121840000Y-122635000D02*
X122936000Y-121539000D01*
X147193000Y-117475000D02*
X128143000Y-117475000D01*
X149098000Y-119380000D02*
X149098000Y-123825000D01*
X147193000Y-117475000D02*
X149098000Y-119380000D01*
X117348000Y-106680000D02*
X117348000Y-115443000D01*
X118745000Y-116840000D02*
X117348000Y-115443000D01*
X122936000Y-116840000D02*
X118745000Y-116840000D01*
X117348000Y-106680000D02*
X117348000Y-100965000D01*
X136728000Y-83225000D02*
X138343000Y-83225000D01*
X139593000Y-84475000D02*
X141478000Y-84475000D01*
X138343000Y-83225000D02*
X139593000Y-84475000D01*
X121158000Y-84475000D02*
X123698000Y-84475000D01*
X123698000Y-84475000D02*
X123698000Y-84455000D01*
X126873000Y-83185000D02*
X124968000Y-83185000D01*
X124968000Y-83185000D02*
X123698000Y-84455000D01*
X114808000Y-84475000D02*
X121158000Y-84475000D01*
X114808000Y-84475000D02*
X114808000Y-75565000D01*
X121178000Y-84455000D02*
X121158000Y-84475000D01*
X132588000Y-80645000D02*
X130048000Y-83185000D01*
X130048000Y-83185000D02*
X126873000Y-83185000D01*
X135698000Y-80645000D02*
X132588000Y-80645000D01*
X136728000Y-83225000D02*
X136728000Y-81675000D01*
X136728000Y-81675000D02*
X135698000Y-80645000D01*
X136748000Y-83205000D02*
X136728000Y-83225000D01*
X142113000Y-120015000D02*
X140923000Y-120015000D01*
X166243000Y-85090000D02*
X165608000Y-85090000D01*
X166878000Y-84455000D02*
X166243000Y-85090000D01*
X166878000Y-82550000D02*
X166878000Y-84455000D01*
X167513000Y-81915000D02*
X166878000Y-82550000D01*
X170053000Y-81915000D02*
X167513000Y-81915000D01*
X173228000Y-82550000D02*
X173228000Y-84455000D01*
X172593000Y-81915000D02*
X173228000Y-82550000D01*
X170053000Y-81915000D02*
X172593000Y-81915000D01*
X173228000Y-84455000D02*
X173863000Y-85090000D01*
X173863000Y-85090000D02*
X174498000Y-85090000D01*
X116078000Y-122635000D02*
X116078000Y-124460000D01*
X151638000Y-123825000D02*
X151638000Y-99695000D01*
X166878000Y-97155000D02*
X166878000Y-94615000D01*
X166243000Y-97790000D02*
X166878000Y-97155000D01*
X153543000Y-97790000D02*
X166243000Y-97790000D01*
X151638000Y-99695000D02*
X153543000Y-97790000D01*
X149098000Y-90275000D02*
X147088000Y-90275000D01*
X146538000Y-90825000D02*
X144018000Y-90825000D01*
X147088000Y-90275000D02*
X146538000Y-90825000D01*
X164338000Y-94615000D02*
X162433000Y-94615000D01*
X161143000Y-93325000D02*
X159893000Y-93325000D01*
X162433000Y-94615000D02*
X161143000Y-93325000D01*
X165608000Y-83265000D02*
X165608000Y-85090000D01*
X174498000Y-85090000D02*
X174498000Y-83265000D01*
X170053000Y-80615000D02*
X170053000Y-81915000D01*
X170053000Y-81915000D02*
X170053000Y-83215000D01*
X159893000Y-93325000D02*
X157988000Y-93325000D01*
X157438000Y-93875000D02*
X155448000Y-93875000D01*
X157988000Y-93325000D02*
X157438000Y-93875000D01*
X149098000Y-90275000D02*
X149098000Y-86995000D01*
X138768000Y-103215000D02*
X138768000Y-101770000D01*
X138768000Y-101770000D02*
X138938000Y-101600000D01*
X135128000Y-99715000D02*
X135128000Y-98425000D01*
X121158000Y-88265000D02*
X121158000Y-86975000D01*
X114808000Y-86975000D02*
X114808000Y-88265000D01*
X133528000Y-88225000D02*
X131993000Y-88225000D01*
X131993000Y-88225000D02*
X131953000Y-88265000D01*
X141478000Y-86975000D02*
X140228000Y-86975000D01*
X140228000Y-86975000D02*
X140208000Y-86995000D01*
X119908000Y-114935000D02*
X119908000Y-113685000D01*
X119908000Y-113685000D02*
X119888000Y-113665000D01*
X146728000Y-103215000D02*
X138768000Y-103215000D01*
X166878000Y-117435000D02*
X166878000Y-115935000D01*
X157988000Y-117434360D02*
X157988000Y-121285000D01*
X156718000Y-122555000D02*
X156718000Y-123825000D01*
X157988000Y-121285000D02*
X156718000Y-122555000D01*
X166878000Y-117435000D02*
X157988640Y-117435000D01*
X157988640Y-117435000D02*
X157988000Y-117434360D01*
X144018000Y-93325000D02*
X144018000Y-95250000D01*
D33*
X121158000Y-111760000D02*
X121158000Y-109940000D01*
X122408000Y-113010000D02*
X121158000Y-111760000D01*
X122408000Y-114935000D02*
X133858000Y-114935000D01*
X133858000Y-114935000D02*
X134493000Y-115570000D01*
X122408000Y-113010000D02*
X122408000Y-114935000D01*
X131953000Y-100965000D02*
X133203000Y-102215000D01*
X133203000Y-102215000D02*
X135128000Y-102215000D01*
X130008000Y-100965000D02*
X131953000Y-100965000D01*
X134493000Y-113665000D02*
X134493000Y-104140000D01*
X134493000Y-104140000D02*
X135128000Y-103505000D01*
X135128000Y-102215000D02*
X135128000Y-103505000D01*
X133493000Y-123085000D02*
X132643000Y-123085000D01*
X132643000Y-123085000D02*
X131953000Y-122395000D01*
X131953000Y-122395000D02*
X131953000Y-120015000D01*
X131953000Y-120015000D02*
X131521200Y-119583200D01*
X131521200Y-119583200D02*
X130048000Y-119583200D01*
X121158000Y-119935000D02*
X116078000Y-119935000D01*
X121158000Y-119126000D02*
X121285000Y-118999000D01*
X121285000Y-118999000D02*
X121285000Y-118237000D01*
X121158000Y-119935000D02*
X121158000Y-119126000D01*
X132334000Y-75565000D02*
X132334000Y-78359000D01*
X132334000Y-78359000D02*
X130683000Y-80010000D01*
X119888000Y-78740000D02*
X119888000Y-75565000D01*
X121158000Y-80010000D02*
X119888000Y-78740000D01*
X130683000Y-80010000D02*
X121158000Y-80010000D01*
X129794000Y-75565000D02*
X129794000Y-77724000D01*
X129794000Y-77724000D02*
X128778000Y-78740000D01*
X122428000Y-78740000D02*
X121158000Y-77470000D01*
X128778000Y-78740000D02*
X122428000Y-78740000D01*
X121158000Y-74295000D02*
X120523000Y-73660000D01*
X121158000Y-77470000D02*
X121158000Y-74295000D01*
X117983000Y-73660000D02*
X117348000Y-74295000D01*
X117348000Y-74295000D02*
X117348000Y-75565000D01*
X120523000Y-73660000D02*
X117983000Y-73660000D01*
X162433000Y-80565000D02*
X162433000Y-79375000D01*
X150114000Y-74549000D02*
X150114000Y-75565000D01*
X151003000Y-73660000D02*
X150114000Y-74549000D01*
X167513000Y-73660000D02*
X151003000Y-73660000D01*
X168148000Y-74295000D02*
X167513000Y-73660000D01*
X168148000Y-78105000D02*
X168148000Y-74295000D01*
X167513000Y-78740000D02*
X168148000Y-78105000D01*
X163068000Y-78740000D02*
X167513000Y-78740000D01*
X162433000Y-79375000D02*
X163068000Y-78740000D01*
X136728000Y-88225000D02*
X136728000Y-89275000D01*
X136988000Y-89535000D02*
X142875000Y-89535000D01*
X136728000Y-89275000D02*
X136988000Y-89535000D01*
X144145000Y-88265000D02*
X144145000Y-78994000D01*
X142875000Y-89535000D02*
X144145000Y-88265000D01*
X144145000Y-78994000D02*
X145034000Y-78105000D01*
X145034000Y-78105000D02*
X151638000Y-78105000D01*
X151638000Y-78105000D02*
X152654000Y-77089000D01*
X152654000Y-77089000D02*
X152654000Y-75565000D01*
X164338000Y-89535000D02*
X164338000Y-88265000D01*
X163703000Y-87630000D02*
X159893000Y-87630000D01*
X164338000Y-88265000D02*
X163703000Y-87630000D01*
X159893000Y-87630000D02*
X159258000Y-86995000D01*
X159258000Y-75565000D02*
X159258000Y-86995000D01*
X166878000Y-89535000D02*
X166878000Y-87630000D01*
X166243000Y-86995000D02*
X160528000Y-86995000D01*
X166878000Y-87630000D02*
X166243000Y-86995000D01*
X160528000Y-86995000D02*
X159893000Y-86360000D01*
X159893000Y-78740000D02*
X159893000Y-86360000D01*
X161798000Y-76835000D02*
X159893000Y-78740000D01*
X161798000Y-75565000D02*
X161798000Y-76835000D01*
X169418000Y-89535000D02*
X169418000Y-86995000D01*
X168783000Y-86360000D02*
X161163000Y-86360000D01*
X169418000Y-86995000D02*
X168783000Y-86360000D01*
X161163000Y-86360000D02*
X160528000Y-85725000D01*
X160528000Y-79375000D02*
X160528000Y-85725000D01*
X162433000Y-77470000D02*
X160528000Y-79375000D01*
X166878000Y-75717400D02*
X165125400Y-77470000D01*
X165125400Y-77470000D02*
X162433000Y-77470000D01*
X166878000Y-75565000D02*
X166878000Y-75717400D01*
X171003000Y-80615000D02*
X171003000Y-79055000D01*
X169418000Y-77470000D02*
X169418000Y-75565000D01*
X171003000Y-79055000D02*
X169418000Y-77470000D01*
X174498000Y-80565000D02*
X173308000Y-80565000D01*
X173258000Y-80615000D02*
X171003000Y-80615000D01*
X173308000Y-80565000D02*
X173258000Y-80615000D01*
X142113000Y-88900000D02*
X143002000Y-88011000D01*
X138768000Y-98715000D02*
X138768000Y-97620000D01*
X138768000Y-97620000D02*
X135128000Y-93980000D01*
X135128000Y-93980000D02*
X135128000Y-86360000D01*
X135128000Y-86360000D02*
X135763000Y-85725000D01*
X142494000Y-78486000D02*
X142494000Y-75565000D01*
X135763000Y-85725000D02*
X137668000Y-85725000D01*
X137668000Y-85725000D02*
X138303000Y-86360000D01*
X138303000Y-86360000D02*
X138303000Y-88265000D01*
X138303000Y-88265000D02*
X138938000Y-88900000D01*
X138938000Y-88900000D02*
X142113000Y-88900000D01*
X143002000Y-78994000D02*
X142494000Y-78486000D01*
X143002000Y-88011000D02*
X143002000Y-78994000D01*
X138768000Y-98715000D02*
X146728000Y-98715000D01*
D32*
X166878000Y-107275000D02*
X166878000Y-105775000D01*
X166878000Y-107275000D02*
X157988640Y-107275000D01*
X157988640Y-107275000D02*
X157988000Y-107274360D01*
X159893000Y-90825000D02*
X161818000Y-90825000D01*
X161818000Y-90825000D02*
X163068000Y-92075000D01*
X164338000Y-92075000D02*
X163068000Y-92075000D01*
X159893000Y-90825000D02*
X157988000Y-90825000D01*
X157438000Y-90275000D02*
X155448000Y-90275000D01*
X157988000Y-90825000D02*
X157438000Y-90275000D01*
X149098000Y-93875000D02*
X152273000Y-93875000D01*
X152273000Y-93875000D02*
X152273000Y-93980000D01*
X152273000Y-94615000D02*
X152273000Y-93980000D01*
X152273000Y-93980000D02*
X152273000Y-90805000D01*
X152803000Y-90275000D02*
X155448000Y-90275000D01*
X152273000Y-90805000D02*
X152803000Y-90275000D01*
X166878000Y-92075000D02*
X169418000Y-92075000D01*
X164338000Y-92075000D02*
X166878000Y-92075000D01*
D33*
X132548000Y-83225000D02*
X130048000Y-85725000D01*
X130048000Y-85725000D02*
X126873000Y-85725000D01*
X133528000Y-83225000D02*
X132548000Y-83225000D01*
X165608000Y-80565000D02*
X164799000Y-80565000D01*
X163369000Y-83265000D02*
X162433000Y-83265000D01*
X163957000Y-82677000D02*
X163369000Y-83265000D01*
X163957000Y-81407000D02*
X163957000Y-82677000D01*
X164799000Y-80565000D02*
X163957000Y-81407000D01*
X165608000Y-80565000D02*
X166798000Y-80565000D01*
X166848000Y-80615000D02*
X169103000Y-80615000D01*
X166798000Y-80565000D02*
X166848000Y-80615000D01*
D32*
X172212000Y-110490000D02*
X170267000Y-112435000D01*
X166878000Y-112435000D02*
X157988640Y-112435000D01*
X157988640Y-112435000D02*
X157988000Y-112435640D01*
X166878000Y-112435000D02*
X170267000Y-112435000D01*
X172212000Y-110490000D02*
X172212000Y-85344000D01*
X171003000Y-83215000D02*
X171003000Y-84135000D01*
X172212000Y-85344000D02*
X171003000Y-84135000D01*
X166878000Y-102275000D02*
X157988640Y-102275000D01*
X157988640Y-102275000D02*
X157988000Y-102275640D01*
X166878000Y-102275000D02*
X168743000Y-102275000D01*
X168743000Y-102275000D02*
X171119800Y-99898200D01*
X171119800Y-99898200D02*
X171119800Y-86791800D01*
X169103000Y-83215000D02*
X169103000Y-84775000D01*
X171119800Y-86791800D02*
X169103000Y-84775000D01*
D33*
X134493000Y-119785000D02*
X135543000Y-119785000D01*
X135543000Y-119785000D02*
X135773000Y-120015000D01*
X135773000Y-120015000D02*
X137033000Y-120015000D01*
X135493000Y-123085000D02*
X136343000Y-123085000D01*
X136343000Y-123085000D02*
X137033000Y-122395000D01*
X137033000Y-122395000D02*
X137033000Y-120015000D01*
X137033000Y-120015000D02*
X138223000Y-120015000D01*
M02*
