G04 #@! TF.FileFunction,Soldermask,Top*
%FSLAX46Y46*%
G04 Gerber Fmt 4.6, Leading zero omitted, Abs format (unit mm)*
G04 Created by KiCad (PCBNEW 4.0.7-e2-6376~58~ubuntu16.04.1) date Tue Sep  5 21:03:57 2017*
%MOMM*%
%LPD*%
G01*
G04 APERTURE LIST*
%ADD10C,0.100000*%
%ADD11R,1.600000X2.600000*%
%ADD12R,1.000000X1.600000*%
%ADD13R,1.300000X1.500000*%
%ADD14R,1.500000X1.300000*%
%ADD15R,0.700000X1.000000*%
%ADD16O,1.727200X2.032000*%
%ADD17R,1.700000X1.700000*%
%ADD18O,1.700000X1.700000*%
%ADD19R,1.800860X3.500120*%
%ADD20R,1.500000X1.250000*%
%ADD21R,1.250000X1.500000*%
%ADD22C,1.600000*%
%ADD23C,3.175000*%
%ADD24C,2.400000*%
%ADD25R,2.400000X2.400000*%
%ADD26R,1.200000X1.200000*%
%ADD27R,1.600000X1.600000*%
%ADD28R,1.200000X0.200000*%
G04 APERTURE END LIST*
D10*
D11*
X155448000Y-91545000D03*
X155448000Y-95145000D03*
D12*
X148768000Y-87590000D03*
X151968000Y-87590000D03*
X148768000Y-82590000D03*
X151968000Y-82590000D03*
D13*
X121158000Y-119935000D03*
X121158000Y-122635000D03*
X174498000Y-83265000D03*
X174498000Y-80565000D03*
X165608000Y-83265000D03*
X165608000Y-80565000D03*
X162433000Y-83265000D03*
X162433000Y-80565000D03*
X116078000Y-119935000D03*
X116078000Y-122635000D03*
D14*
X138223000Y-120015000D03*
X140923000Y-120015000D03*
D15*
X171003000Y-80615000D03*
X170053000Y-80615000D03*
X169103000Y-80615000D03*
X169103000Y-83215000D03*
X171003000Y-83215000D03*
X170053000Y-83215000D03*
D16*
X156718000Y-75565000D03*
X159258000Y-75565000D03*
X161798000Y-75565000D03*
X164338000Y-75565000D03*
X166878000Y-75565000D03*
X169418000Y-75565000D03*
X171958000Y-75565000D03*
X174498000Y-75565000D03*
X129794000Y-75565000D03*
X132334000Y-75565000D03*
X134874000Y-75565000D03*
X137414000Y-75565000D03*
X139954000Y-75565000D03*
X142494000Y-75565000D03*
X145034000Y-75565000D03*
X147574000Y-75565000D03*
X150114000Y-75565000D03*
X152654000Y-75565000D03*
X161798000Y-123825000D03*
X164338000Y-123825000D03*
X166878000Y-123825000D03*
X169418000Y-123825000D03*
X171958000Y-123825000D03*
X174498000Y-123825000D03*
X138938000Y-123825000D03*
X141478000Y-123825000D03*
X144018000Y-123825000D03*
X146558000Y-123825000D03*
X149098000Y-123825000D03*
X151638000Y-123825000D03*
X154178000Y-123825000D03*
X156718000Y-123825000D03*
D17*
X114808000Y-75565000D03*
D18*
X117348000Y-75565000D03*
X119888000Y-75565000D03*
X122428000Y-75565000D03*
D17*
X142113000Y-82550000D03*
D18*
X142113000Y-85090000D03*
X142113000Y-87630000D03*
D17*
X164338000Y-89535000D03*
D18*
X164338000Y-92075000D03*
X164338000Y-94615000D03*
D17*
X166878000Y-89535000D03*
D18*
X166878000Y-92075000D03*
X166878000Y-94615000D03*
D17*
X169418000Y-89535000D03*
D18*
X169418000Y-92075000D03*
X169418000Y-94615000D03*
D19*
X157988000Y-107274360D03*
X157988000Y-102275640D03*
X157988000Y-117434360D03*
X157988000Y-112435640D03*
D20*
X117368000Y-81280000D03*
X119868000Y-81280000D03*
D21*
X145288000Y-83840000D03*
X145288000Y-86340000D03*
X159893000Y-92095000D03*
X159893000Y-94595000D03*
X155448000Y-83840000D03*
X155448000Y-86340000D03*
X142113000Y-99715000D03*
X142113000Y-102215000D03*
D20*
X128798000Y-114300000D03*
X131298000Y-114300000D03*
D21*
X145923000Y-99715000D03*
X145923000Y-102215000D03*
D11*
X150368000Y-99165000D03*
X150368000Y-102765000D03*
D22*
X130048000Y-119583200D03*
X130048000Y-122986800D03*
D23*
X126238000Y-75565000D03*
X177038000Y-90805000D03*
X177038000Y-118745000D03*
X124968000Y-123825000D03*
D24*
X166878000Y-112435000D03*
D25*
X166878000Y-117435000D03*
X166878000Y-115935000D03*
D24*
X166878000Y-102275000D03*
D25*
X166878000Y-107275000D03*
X166878000Y-105775000D03*
D26*
X133493000Y-123085000D03*
X135493000Y-123085000D03*
D27*
X134493000Y-119785000D03*
D28*
X133893000Y-123585000D03*
X135093000Y-123585000D03*
D22*
X116028000Y-102945000D03*
X116028000Y-96445000D03*
X120528000Y-96445000D03*
X120528000Y-102945000D03*
X138428000Y-102195000D03*
X138428000Y-99695000D03*
X138428000Y-97195000D03*
X131278000Y-109695000D03*
X128778000Y-109695000D03*
X126278000Y-109695000D03*
M02*
