G04 #@! TF.FileFunction,Legend,Bot*
%FSLAX46Y46*%
G04 Gerber Fmt 4.6, Leading zero omitted, Abs format (unit mm)*
G04 Created by KiCad (PCBNEW 4.0.7-e1-6374~58~ubuntu16.04.1) date Sat Aug 26 01:38:44 2017*
%MOMM*%
%LPD*%
G01*
G04 APERTURE LIST*
%ADD10C,0.100000*%
%ADD11C,0.200000*%
%ADD12C,0.250000*%
%ADD13C,0.010000*%
%ADD14C,0.120000*%
%ADD15C,0.150000*%
%ADD16O,1.727200X2.032000*%
%ADD17R,1.700000X1.700000*%
%ADD18O,1.700000X1.700000*%
%ADD19C,2.400000*%
%ADD20R,2.400000X2.400000*%
%ADD21R,2.000000X3.500000*%
%ADD22R,7.000000X7.000000*%
%ADD23R,0.600000X0.152400*%
%ADD24R,1.500000X1.300000*%
%ADD25R,1.524000X1.524000*%
%ADD26O,1.500000X3.000000*%
%ADD27O,3.000000X1.500000*%
%ADD28C,1.599946*%
%ADD29C,1.600000*%
G04 APERTURE END LIST*
D10*
D11*
X135056333Y-109307381D02*
X134484904Y-109307381D01*
X134770619Y-110307381D02*
X134770619Y-109307381D01*
X133770618Y-110259762D02*
X133865856Y-110307381D01*
X134056333Y-110307381D01*
X134151571Y-110259762D01*
X134199190Y-110164524D01*
X134199190Y-109783571D01*
X134151571Y-109688333D01*
X134056333Y-109640714D01*
X133865856Y-109640714D01*
X133770618Y-109688333D01*
X133722999Y-109783571D01*
X133722999Y-109878810D01*
X134199190Y-109974048D01*
X133294428Y-110307381D02*
X133294428Y-109640714D01*
X133294428Y-109735952D02*
X133246809Y-109688333D01*
X133151571Y-109640714D01*
X133008713Y-109640714D01*
X132913475Y-109688333D01*
X132865856Y-109783571D01*
X132865856Y-110307381D01*
X132865856Y-109783571D02*
X132818237Y-109688333D01*
X132722999Y-109640714D01*
X132580142Y-109640714D01*
X132484904Y-109688333D01*
X132437285Y-109783571D01*
X132437285Y-110307381D01*
X131961095Y-109640714D02*
X131961095Y-110640714D01*
X131961095Y-109688333D02*
X131865857Y-109640714D01*
X131675380Y-109640714D01*
X131580142Y-109688333D01*
X131532523Y-109735952D01*
X131484904Y-109831190D01*
X131484904Y-110116905D01*
X131532523Y-110212143D01*
X131580142Y-110259762D01*
X131675380Y-110307381D01*
X131865857Y-110307381D01*
X131961095Y-110259762D01*
X134342047Y-112212381D02*
X134818238Y-112212381D01*
X134818238Y-111212381D01*
X134008714Y-112212381D02*
X134008714Y-111545714D01*
X134008714Y-111212381D02*
X134056333Y-111260000D01*
X134008714Y-111307619D01*
X133961095Y-111260000D01*
X134008714Y-111212381D01*
X134008714Y-111307619D01*
X133103952Y-111545714D02*
X133103952Y-112355238D01*
X133151571Y-112450476D01*
X133199190Y-112498095D01*
X133294429Y-112545714D01*
X133437286Y-112545714D01*
X133532524Y-112498095D01*
X133103952Y-112164762D02*
X133199190Y-112212381D01*
X133389667Y-112212381D01*
X133484905Y-112164762D01*
X133532524Y-112117143D01*
X133580143Y-112021905D01*
X133580143Y-111736190D01*
X133532524Y-111640952D01*
X133484905Y-111593333D01*
X133389667Y-111545714D01*
X133199190Y-111545714D01*
X133103952Y-111593333D01*
X132627762Y-112212381D02*
X132627762Y-111212381D01*
X132199190Y-112212381D02*
X132199190Y-111688571D01*
X132246809Y-111593333D01*
X132342047Y-111545714D01*
X132484905Y-111545714D01*
X132580143Y-111593333D01*
X132627762Y-111640952D01*
X131865857Y-111545714D02*
X131484905Y-111545714D01*
X131723000Y-111212381D02*
X131723000Y-112069524D01*
X131675381Y-112164762D01*
X131580143Y-112212381D01*
X131484905Y-112212381D01*
X134493000Y-113641190D02*
X134493000Y-114117381D01*
X134826333Y-113117381D02*
X134493000Y-113641190D01*
X134159666Y-113117381D01*
X134826333Y-115022381D02*
X134159666Y-116022381D01*
X134159666Y-115022381D02*
X134826333Y-116022381D01*
X141557286Y-115736667D02*
X141081095Y-115736667D01*
X141652524Y-116022381D02*
X141319191Y-115022381D01*
X140985857Y-116022381D01*
X140462048Y-115022381D02*
X140366809Y-115022381D01*
X140271571Y-115070000D01*
X140223952Y-115117619D01*
X140176333Y-115212857D01*
X140128714Y-115403333D01*
X140128714Y-115641429D01*
X140176333Y-115831905D01*
X140223952Y-115927143D01*
X140271571Y-115974762D01*
X140366809Y-116022381D01*
X140462048Y-116022381D01*
X140557286Y-115974762D01*
X140604905Y-115927143D01*
X140652524Y-115831905D01*
X140700143Y-115641429D01*
X140700143Y-115403333D01*
X140652524Y-115212857D01*
X140604905Y-115117619D01*
X140557286Y-115070000D01*
X140462048Y-115022381D01*
X141557286Y-113831667D02*
X141081095Y-113831667D01*
X141652524Y-114117381D02*
X141319191Y-113117381D01*
X140985857Y-114117381D01*
X140128714Y-114117381D02*
X140700143Y-114117381D01*
X140414429Y-114117381D02*
X140414429Y-113117381D01*
X140509667Y-113260238D01*
X140604905Y-113355476D01*
X140700143Y-113403095D01*
X141557286Y-111926667D02*
X141081095Y-111926667D01*
X141652524Y-112212381D02*
X141319191Y-111212381D01*
X140985857Y-112212381D01*
X140700143Y-111307619D02*
X140652524Y-111260000D01*
X140557286Y-111212381D01*
X140319190Y-111212381D01*
X140223952Y-111260000D01*
X140176333Y-111307619D01*
X140128714Y-111402857D01*
X140128714Y-111498095D01*
X140176333Y-111640952D01*
X140747762Y-112212381D01*
X140128714Y-112212381D01*
X141557286Y-110021667D02*
X141081095Y-110021667D01*
X141652524Y-110307381D02*
X141319191Y-109307381D01*
X140985857Y-110307381D01*
X140747762Y-109307381D02*
X140128714Y-109307381D01*
X140462048Y-109688333D01*
X140319190Y-109688333D01*
X140223952Y-109735952D01*
X140176333Y-109783571D01*
X140128714Y-109878810D01*
X140128714Y-110116905D01*
X140176333Y-110212143D01*
X140223952Y-110259762D01*
X140319190Y-110307381D01*
X140604905Y-110307381D01*
X140700143Y-110259762D01*
X140747762Y-110212143D01*
D12*
X121141571Y-122007381D02*
X120903476Y-123007381D01*
X120712999Y-122293095D01*
X120522523Y-123007381D01*
X120284428Y-122007381D01*
X119998714Y-122340714D02*
X119760619Y-123007381D01*
X119522523Y-122340714D02*
X119760619Y-123007381D01*
X119855857Y-123245476D01*
X119903476Y-123293095D01*
X119998714Y-123340714D01*
X118998714Y-123007381D02*
X119093952Y-122959762D01*
X119141571Y-122912143D01*
X119189190Y-122816905D01*
X119189190Y-122531190D01*
X119141571Y-122435952D01*
X119093952Y-122388333D01*
X118998714Y-122340714D01*
X118855856Y-122340714D01*
X118760618Y-122388333D01*
X118712999Y-122435952D01*
X118665380Y-122531190D01*
X118665380Y-122816905D01*
X118712999Y-122912143D01*
X118760618Y-122959762D01*
X118855856Y-123007381D01*
X118998714Y-123007381D01*
X118093952Y-123007381D02*
X118189190Y-122959762D01*
X118236809Y-122864524D01*
X118236809Y-122007381D01*
X117284427Y-122340714D02*
X117284427Y-123007381D01*
X117712999Y-122340714D02*
X117712999Y-122864524D01*
X117665380Y-122959762D01*
X117570142Y-123007381D01*
X117427284Y-123007381D01*
X117332046Y-122959762D01*
X117284427Y-122912143D01*
X116808237Y-123007381D02*
X116808237Y-122340714D01*
X116808237Y-122435952D02*
X116760618Y-122388333D01*
X116665380Y-122340714D01*
X116522522Y-122340714D01*
X116427284Y-122388333D01*
X116379665Y-122483571D01*
X116379665Y-123007381D01*
X116379665Y-122483571D02*
X116332046Y-122388333D01*
X116236808Y-122340714D01*
X116093951Y-122340714D01*
X115998713Y-122388333D01*
X115951094Y-122483571D01*
X115951094Y-123007381D01*
X115474904Y-122912143D02*
X115427285Y-122959762D01*
X115474904Y-123007381D01*
X115522523Y-122959762D01*
X115474904Y-122912143D01*
X115474904Y-123007381D01*
X114570142Y-122959762D02*
X114665380Y-123007381D01*
X114855857Y-123007381D01*
X114951095Y-122959762D01*
X114998714Y-122912143D01*
X115046333Y-122816905D01*
X115046333Y-122531190D01*
X114998714Y-122435952D01*
X114951095Y-122388333D01*
X114855857Y-122340714D01*
X114665380Y-122340714D01*
X114570142Y-122388333D01*
X113998714Y-123007381D02*
X114093952Y-122959762D01*
X114141571Y-122912143D01*
X114189190Y-122816905D01*
X114189190Y-122531190D01*
X114141571Y-122435952D01*
X114093952Y-122388333D01*
X113998714Y-122340714D01*
X113855856Y-122340714D01*
X113760618Y-122388333D01*
X113712999Y-122435952D01*
X113665380Y-122531190D01*
X113665380Y-122816905D01*
X113712999Y-122912143D01*
X113760618Y-122959762D01*
X113855856Y-123007381D01*
X113998714Y-123007381D01*
X113236809Y-123007381D02*
X113236809Y-122340714D01*
X113236809Y-122435952D02*
X113189190Y-122388333D01*
X113093952Y-122340714D01*
X112951094Y-122340714D01*
X112855856Y-122388333D01*
X112808237Y-122483571D01*
X112808237Y-123007381D01*
X112808237Y-122483571D02*
X112760618Y-122388333D01*
X112665380Y-122340714D01*
X112522523Y-122340714D01*
X112427285Y-122388333D01*
X112379666Y-122483571D01*
X112379666Y-123007381D01*
D13*
G36*
X126448038Y-121761685D02*
X126345462Y-121775389D01*
X126287692Y-121781512D01*
X126198035Y-121787992D01*
X126083672Y-121794451D01*
X125951787Y-121800515D01*
X125809562Y-121805808D01*
X125704349Y-121808942D01*
X125200005Y-121822308D01*
X125088887Y-121933117D01*
X125021751Y-121999279D01*
X124940618Y-122078091D01*
X124860001Y-122155481D01*
X124836999Y-122177348D01*
X124696228Y-122310769D01*
X124682818Y-122629136D01*
X124678015Y-122747552D01*
X124675598Y-122834902D01*
X124676291Y-122899160D01*
X124680820Y-122948303D01*
X124689911Y-122990305D01*
X124704287Y-123033140D01*
X124724118Y-123083405D01*
X124747888Y-123142051D01*
X124768661Y-123182043D01*
X124793790Y-123206028D01*
X124830626Y-123216650D01*
X124886521Y-123216555D01*
X124968828Y-123208389D01*
X125046154Y-123199280D01*
X125130012Y-123187378D01*
X125213320Y-123172271D01*
X125261077Y-123161455D01*
X125334741Y-123142272D01*
X125407697Y-123123319D01*
X125422898Y-123119378D01*
X125482660Y-123092217D01*
X125558953Y-123039533D01*
X125627650Y-122981647D01*
X125632934Y-122977158D01*
X125429757Y-122977158D01*
X125428989Y-122979755D01*
X125401376Y-122992385D01*
X125344785Y-123009064D01*
X125268835Y-123027728D01*
X125183145Y-123046316D01*
X125097334Y-123062764D01*
X125021020Y-123075009D01*
X124963822Y-123080989D01*
X124955717Y-123081250D01*
X124895819Y-123080229D01*
X124862166Y-123070988D01*
X124841977Y-123047242D01*
X124829182Y-123019039D01*
X124804540Y-122939062D01*
X124804544Y-122867445D01*
X124831379Y-122794445D01*
X124887227Y-122710317D01*
X124902825Y-122690351D01*
X124957420Y-122625067D01*
X124998399Y-122585885D01*
X125033822Y-122566391D01*
X125065975Y-122560483D01*
X125128430Y-122563455D01*
X125172362Y-122579046D01*
X125190259Y-122603167D01*
X125182503Y-122623891D01*
X125168988Y-122658700D01*
X125190203Y-122682766D01*
X125242336Y-122691769D01*
X125242446Y-122691769D01*
X125273105Y-122695276D01*
X125297991Y-122710595D01*
X125323696Y-122744926D01*
X125356817Y-122805470D01*
X125369547Y-122830541D01*
X125400969Y-122896569D01*
X125422233Y-122948440D01*
X125429757Y-122977158D01*
X125632934Y-122977158D01*
X125708538Y-122912937D01*
X125804605Y-122838049D01*
X125897625Y-122771077D01*
X125915214Y-122759240D01*
X126019029Y-122683363D01*
X126129895Y-122587846D01*
X126204292Y-122515267D01*
X126008176Y-122515267D01*
X125994420Y-122534715D01*
X125991150Y-122538356D01*
X125961942Y-122564443D01*
X125908759Y-122606466D01*
X125839762Y-122658130D01*
X125779343Y-122701693D01*
X125700294Y-122759431D01*
X125627534Y-122815613D01*
X125570585Y-122862723D01*
X125544539Y-122886993D01*
X125504493Y-122923818D01*
X125472986Y-122944282D01*
X125466769Y-122945769D01*
X125448193Y-122929480D01*
X125419386Y-122886590D01*
X125386303Y-122826063D01*
X125383468Y-122820360D01*
X125351854Y-122753217D01*
X125337337Y-122711539D01*
X125337969Y-122686668D01*
X125349967Y-122671429D01*
X125374244Y-122638346D01*
X125374871Y-122635712D01*
X125317366Y-122635712D01*
X125302562Y-122651550D01*
X125299606Y-122653444D01*
X125260165Y-122670830D01*
X125236007Y-122659031D01*
X125232604Y-122654042D01*
X125233454Y-122630783D01*
X125259579Y-122618314D01*
X125295657Y-122622704D01*
X125317366Y-122635712D01*
X125374871Y-122635712D01*
X125378308Y-122621274D01*
X125395214Y-122597403D01*
X125439056Y-122566742D01*
X125499521Y-122534308D01*
X125566297Y-122505121D01*
X125629069Y-122484198D01*
X125675712Y-122476547D01*
X125728464Y-122471492D01*
X125765809Y-122459743D01*
X125765974Y-122459639D01*
X125799838Y-122454867D01*
X125859573Y-122461728D01*
X125908322Y-122472287D01*
X125971342Y-122489012D01*
X126002555Y-122501686D01*
X126008176Y-122515267D01*
X126204292Y-122515267D01*
X126251876Y-122468846D01*
X126389035Y-122322518D01*
X126456961Y-122246536D01*
X126538759Y-122141028D01*
X126564577Y-122092858D01*
X126405796Y-122092858D01*
X126403990Y-122106723D01*
X126400624Y-122113173D01*
X126374994Y-122147760D01*
X126329924Y-122198300D01*
X126272068Y-122258363D01*
X126208078Y-122321519D01*
X126144609Y-122381337D01*
X126088314Y-122431388D01*
X126045847Y-122465240D01*
X126024635Y-122476550D01*
X125987132Y-122470909D01*
X125931553Y-122457215D01*
X125914072Y-122452127D01*
X125855993Y-122429473D01*
X125836644Y-122418231D01*
X125749538Y-122418231D01*
X125732818Y-122432918D01*
X125700692Y-122437769D01*
X125663974Y-122431081D01*
X125651846Y-122418231D01*
X125668567Y-122403543D01*
X125700692Y-122398692D01*
X125737411Y-122405381D01*
X125749538Y-122418231D01*
X125836644Y-122418231D01*
X125810699Y-122403158D01*
X125803172Y-122396650D01*
X125789965Y-122378755D01*
X125791325Y-122358833D01*
X125811266Y-122329794D01*
X125853805Y-122284554D01*
X125883436Y-122254996D01*
X125957886Y-122187756D01*
X126014071Y-122151954D01*
X126044159Y-122144692D01*
X126089282Y-122137694D01*
X126112403Y-122125705D01*
X126140078Y-122114730D01*
X126195375Y-122103458D01*
X126266921Y-122094150D01*
X126275299Y-122093342D01*
X126331895Y-122088635D01*
X126079366Y-122088635D01*
X126064562Y-122104473D01*
X126061606Y-122106367D01*
X126020820Y-122123000D01*
X125991049Y-122120003D01*
X125984000Y-122106769D01*
X125999870Y-122079176D01*
X126037016Y-122070868D01*
X126057657Y-122075628D01*
X126079366Y-122088635D01*
X126331895Y-122088635D01*
X126348380Y-122087264D01*
X126389570Y-122086737D01*
X126405796Y-122092858D01*
X126564577Y-122092858D01*
X126597284Y-122031838D01*
X126618108Y-121979321D01*
X126645293Y-121896124D01*
X126503945Y-121896124D01*
X126503508Y-121919291D01*
X126488251Y-121963275D01*
X126479488Y-121982385D01*
X126459309Y-122020679D01*
X126438299Y-122043780D01*
X126406028Y-122056757D01*
X126352068Y-122064677D01*
X126300107Y-122069542D01*
X126202778Y-122074200D01*
X126136681Y-122067372D01*
X126109138Y-122057452D01*
X126045603Y-122042079D01*
X125998184Y-122045636D01*
X125953609Y-122060799D01*
X125936744Y-122088335D01*
X125935154Y-122110594D01*
X125921277Y-122151941D01*
X125885523Y-122206031D01*
X125836706Y-122263326D01*
X125783642Y-122314287D01*
X125735144Y-122349376D01*
X125705027Y-122359616D01*
X125655598Y-122368877D01*
X125616096Y-122391312D01*
X125598886Y-122418896D01*
X125600168Y-122427666D01*
X125589834Y-122450464D01*
X125551653Y-122481097D01*
X125494795Y-122514878D01*
X125428430Y-122547124D01*
X125361729Y-122573150D01*
X125303861Y-122588270D01*
X125281871Y-122590278D01*
X125228182Y-122585005D01*
X125190118Y-122571997D01*
X125187808Y-122570301D01*
X125167100Y-122535112D01*
X125163385Y-122511702D01*
X125163242Y-122511390D01*
X125096678Y-122511390D01*
X125094166Y-122517273D01*
X125065317Y-122534114D01*
X125030132Y-122528942D01*
X125018112Y-122517971D01*
X125022788Y-122498877D01*
X125049245Y-122485305D01*
X125080239Y-122484748D01*
X125087313Y-122487902D01*
X125096678Y-122511390D01*
X125163242Y-122511390D01*
X125146563Y-122475183D01*
X125124308Y-122462969D01*
X125097855Y-122442333D01*
X125087205Y-122413388D01*
X125066622Y-122413388D01*
X125050246Y-122447312D01*
X125021731Y-122460834D01*
X124986442Y-122478231D01*
X124971399Y-122523048D01*
X124971239Y-122524412D01*
X124955275Y-122571511D01*
X124921275Y-122630985D01*
X124893085Y-122669301D01*
X124821462Y-122756855D01*
X124815659Y-122613794D01*
X124814073Y-122540176D01*
X124815334Y-122480439D01*
X124819162Y-122446642D01*
X124819592Y-122445365D01*
X124846202Y-122416396D01*
X124896097Y-122386107D01*
X124954345Y-122361325D01*
X125006012Y-122348879D01*
X125027727Y-122350199D01*
X125059404Y-122375679D01*
X125066622Y-122413388D01*
X125087205Y-122413388D01*
X125085175Y-122407871D01*
X125088297Y-122375130D01*
X125109255Y-122359657D01*
X125110804Y-122359616D01*
X125145973Y-122348801D01*
X125173567Y-122332422D01*
X125198473Y-122307325D01*
X125196663Y-122301000D01*
X125134077Y-122301000D01*
X125106519Y-122317414D01*
X125084078Y-122320539D01*
X125052960Y-122312134D01*
X125046154Y-122301000D01*
X125062909Y-122286437D01*
X125096153Y-122281462D01*
X125129396Y-122287664D01*
X125134077Y-122301000D01*
X125196663Y-122301000D01*
X125191302Y-122282267D01*
X125184678Y-122273807D01*
X125139421Y-122246663D01*
X125080723Y-122245666D01*
X125023095Y-122269659D01*
X125001259Y-122288429D01*
X124958141Y-122326063D01*
X124906435Y-122359895D01*
X124857478Y-122383827D01*
X124822604Y-122391760D01*
X124814779Y-122388753D01*
X124823855Y-122371778D01*
X124857242Y-122333220D01*
X124910410Y-122277864D01*
X124978828Y-122210493D01*
X125026121Y-122165537D01*
X125250283Y-121955141D01*
X125631796Y-121942415D01*
X125771132Y-121936938D01*
X125916802Y-121929783D01*
X126056741Y-121921638D01*
X126178887Y-121913192D01*
X126252688Y-121906968D01*
X126345360Y-121899171D01*
X126423344Y-121894493D01*
X126478731Y-121893276D01*
X126503614Y-121895860D01*
X126503945Y-121896124D01*
X126645293Y-121896124D01*
X126646796Y-121891526D01*
X126657192Y-121827722D01*
X126645905Y-121785372D01*
X126609544Y-121761940D01*
X126544719Y-121754889D01*
X126448038Y-121761685D01*
X126448038Y-121761685D01*
G37*
X126448038Y-121761685D02*
X126345462Y-121775389D01*
X126287692Y-121781512D01*
X126198035Y-121787992D01*
X126083672Y-121794451D01*
X125951787Y-121800515D01*
X125809562Y-121805808D01*
X125704349Y-121808942D01*
X125200005Y-121822308D01*
X125088887Y-121933117D01*
X125021751Y-121999279D01*
X124940618Y-122078091D01*
X124860001Y-122155481D01*
X124836999Y-122177348D01*
X124696228Y-122310769D01*
X124682818Y-122629136D01*
X124678015Y-122747552D01*
X124675598Y-122834902D01*
X124676291Y-122899160D01*
X124680820Y-122948303D01*
X124689911Y-122990305D01*
X124704287Y-123033140D01*
X124724118Y-123083405D01*
X124747888Y-123142051D01*
X124768661Y-123182043D01*
X124793790Y-123206028D01*
X124830626Y-123216650D01*
X124886521Y-123216555D01*
X124968828Y-123208389D01*
X125046154Y-123199280D01*
X125130012Y-123187378D01*
X125213320Y-123172271D01*
X125261077Y-123161455D01*
X125334741Y-123142272D01*
X125407697Y-123123319D01*
X125422898Y-123119378D01*
X125482660Y-123092217D01*
X125558953Y-123039533D01*
X125627650Y-122981647D01*
X125632934Y-122977158D01*
X125429757Y-122977158D01*
X125428989Y-122979755D01*
X125401376Y-122992385D01*
X125344785Y-123009064D01*
X125268835Y-123027728D01*
X125183145Y-123046316D01*
X125097334Y-123062764D01*
X125021020Y-123075009D01*
X124963822Y-123080989D01*
X124955717Y-123081250D01*
X124895819Y-123080229D01*
X124862166Y-123070988D01*
X124841977Y-123047242D01*
X124829182Y-123019039D01*
X124804540Y-122939062D01*
X124804544Y-122867445D01*
X124831379Y-122794445D01*
X124887227Y-122710317D01*
X124902825Y-122690351D01*
X124957420Y-122625067D01*
X124998399Y-122585885D01*
X125033822Y-122566391D01*
X125065975Y-122560483D01*
X125128430Y-122563455D01*
X125172362Y-122579046D01*
X125190259Y-122603167D01*
X125182503Y-122623891D01*
X125168988Y-122658700D01*
X125190203Y-122682766D01*
X125242336Y-122691769D01*
X125242446Y-122691769D01*
X125273105Y-122695276D01*
X125297991Y-122710595D01*
X125323696Y-122744926D01*
X125356817Y-122805470D01*
X125369547Y-122830541D01*
X125400969Y-122896569D01*
X125422233Y-122948440D01*
X125429757Y-122977158D01*
X125632934Y-122977158D01*
X125708538Y-122912937D01*
X125804605Y-122838049D01*
X125897625Y-122771077D01*
X125915214Y-122759240D01*
X126019029Y-122683363D01*
X126129895Y-122587846D01*
X126204292Y-122515267D01*
X126008176Y-122515267D01*
X125994420Y-122534715D01*
X125991150Y-122538356D01*
X125961942Y-122564443D01*
X125908759Y-122606466D01*
X125839762Y-122658130D01*
X125779343Y-122701693D01*
X125700294Y-122759431D01*
X125627534Y-122815613D01*
X125570585Y-122862723D01*
X125544539Y-122886993D01*
X125504493Y-122923818D01*
X125472986Y-122944282D01*
X125466769Y-122945769D01*
X125448193Y-122929480D01*
X125419386Y-122886590D01*
X125386303Y-122826063D01*
X125383468Y-122820360D01*
X125351854Y-122753217D01*
X125337337Y-122711539D01*
X125337969Y-122686668D01*
X125349967Y-122671429D01*
X125374244Y-122638346D01*
X125374871Y-122635712D01*
X125317366Y-122635712D01*
X125302562Y-122651550D01*
X125299606Y-122653444D01*
X125260165Y-122670830D01*
X125236007Y-122659031D01*
X125232604Y-122654042D01*
X125233454Y-122630783D01*
X125259579Y-122618314D01*
X125295657Y-122622704D01*
X125317366Y-122635712D01*
X125374871Y-122635712D01*
X125378308Y-122621274D01*
X125395214Y-122597403D01*
X125439056Y-122566742D01*
X125499521Y-122534308D01*
X125566297Y-122505121D01*
X125629069Y-122484198D01*
X125675712Y-122476547D01*
X125728464Y-122471492D01*
X125765809Y-122459743D01*
X125765974Y-122459639D01*
X125799838Y-122454867D01*
X125859573Y-122461728D01*
X125908322Y-122472287D01*
X125971342Y-122489012D01*
X126002555Y-122501686D01*
X126008176Y-122515267D01*
X126204292Y-122515267D01*
X126251876Y-122468846D01*
X126389035Y-122322518D01*
X126456961Y-122246536D01*
X126538759Y-122141028D01*
X126564577Y-122092858D01*
X126405796Y-122092858D01*
X126403990Y-122106723D01*
X126400624Y-122113173D01*
X126374994Y-122147760D01*
X126329924Y-122198300D01*
X126272068Y-122258363D01*
X126208078Y-122321519D01*
X126144609Y-122381337D01*
X126088314Y-122431388D01*
X126045847Y-122465240D01*
X126024635Y-122476550D01*
X125987132Y-122470909D01*
X125931553Y-122457215D01*
X125914072Y-122452127D01*
X125855993Y-122429473D01*
X125836644Y-122418231D01*
X125749538Y-122418231D01*
X125732818Y-122432918D01*
X125700692Y-122437769D01*
X125663974Y-122431081D01*
X125651846Y-122418231D01*
X125668567Y-122403543D01*
X125700692Y-122398692D01*
X125737411Y-122405381D01*
X125749538Y-122418231D01*
X125836644Y-122418231D01*
X125810699Y-122403158D01*
X125803172Y-122396650D01*
X125789965Y-122378755D01*
X125791325Y-122358833D01*
X125811266Y-122329794D01*
X125853805Y-122284554D01*
X125883436Y-122254996D01*
X125957886Y-122187756D01*
X126014071Y-122151954D01*
X126044159Y-122144692D01*
X126089282Y-122137694D01*
X126112403Y-122125705D01*
X126140078Y-122114730D01*
X126195375Y-122103458D01*
X126266921Y-122094150D01*
X126275299Y-122093342D01*
X126331895Y-122088635D01*
X126079366Y-122088635D01*
X126064562Y-122104473D01*
X126061606Y-122106367D01*
X126020820Y-122123000D01*
X125991049Y-122120003D01*
X125984000Y-122106769D01*
X125999870Y-122079176D01*
X126037016Y-122070868D01*
X126057657Y-122075628D01*
X126079366Y-122088635D01*
X126331895Y-122088635D01*
X126348380Y-122087264D01*
X126389570Y-122086737D01*
X126405796Y-122092858D01*
X126564577Y-122092858D01*
X126597284Y-122031838D01*
X126618108Y-121979321D01*
X126645293Y-121896124D01*
X126503945Y-121896124D01*
X126503508Y-121919291D01*
X126488251Y-121963275D01*
X126479488Y-121982385D01*
X126459309Y-122020679D01*
X126438299Y-122043780D01*
X126406028Y-122056757D01*
X126352068Y-122064677D01*
X126300107Y-122069542D01*
X126202778Y-122074200D01*
X126136681Y-122067372D01*
X126109138Y-122057452D01*
X126045603Y-122042079D01*
X125998184Y-122045636D01*
X125953609Y-122060799D01*
X125936744Y-122088335D01*
X125935154Y-122110594D01*
X125921277Y-122151941D01*
X125885523Y-122206031D01*
X125836706Y-122263326D01*
X125783642Y-122314287D01*
X125735144Y-122349376D01*
X125705027Y-122359616D01*
X125655598Y-122368877D01*
X125616096Y-122391312D01*
X125598886Y-122418896D01*
X125600168Y-122427666D01*
X125589834Y-122450464D01*
X125551653Y-122481097D01*
X125494795Y-122514878D01*
X125428430Y-122547124D01*
X125361729Y-122573150D01*
X125303861Y-122588270D01*
X125281871Y-122590278D01*
X125228182Y-122585005D01*
X125190118Y-122571997D01*
X125187808Y-122570301D01*
X125167100Y-122535112D01*
X125163385Y-122511702D01*
X125163242Y-122511390D01*
X125096678Y-122511390D01*
X125094166Y-122517273D01*
X125065317Y-122534114D01*
X125030132Y-122528942D01*
X125018112Y-122517971D01*
X125022788Y-122498877D01*
X125049245Y-122485305D01*
X125080239Y-122484748D01*
X125087313Y-122487902D01*
X125096678Y-122511390D01*
X125163242Y-122511390D01*
X125146563Y-122475183D01*
X125124308Y-122462969D01*
X125097855Y-122442333D01*
X125087205Y-122413388D01*
X125066622Y-122413388D01*
X125050246Y-122447312D01*
X125021731Y-122460834D01*
X124986442Y-122478231D01*
X124971399Y-122523048D01*
X124971239Y-122524412D01*
X124955275Y-122571511D01*
X124921275Y-122630985D01*
X124893085Y-122669301D01*
X124821462Y-122756855D01*
X124815659Y-122613794D01*
X124814073Y-122540176D01*
X124815334Y-122480439D01*
X124819162Y-122446642D01*
X124819592Y-122445365D01*
X124846202Y-122416396D01*
X124896097Y-122386107D01*
X124954345Y-122361325D01*
X125006012Y-122348879D01*
X125027727Y-122350199D01*
X125059404Y-122375679D01*
X125066622Y-122413388D01*
X125087205Y-122413388D01*
X125085175Y-122407871D01*
X125088297Y-122375130D01*
X125109255Y-122359657D01*
X125110804Y-122359616D01*
X125145973Y-122348801D01*
X125173567Y-122332422D01*
X125198473Y-122307325D01*
X125196663Y-122301000D01*
X125134077Y-122301000D01*
X125106519Y-122317414D01*
X125084078Y-122320539D01*
X125052960Y-122312134D01*
X125046154Y-122301000D01*
X125062909Y-122286437D01*
X125096153Y-122281462D01*
X125129396Y-122287664D01*
X125134077Y-122301000D01*
X125196663Y-122301000D01*
X125191302Y-122282267D01*
X125184678Y-122273807D01*
X125139421Y-122246663D01*
X125080723Y-122245666D01*
X125023095Y-122269659D01*
X125001259Y-122288429D01*
X124958141Y-122326063D01*
X124906435Y-122359895D01*
X124857478Y-122383827D01*
X124822604Y-122391760D01*
X124814779Y-122388753D01*
X124823855Y-122371778D01*
X124857242Y-122333220D01*
X124910410Y-122277864D01*
X124978828Y-122210493D01*
X125026121Y-122165537D01*
X125250283Y-121955141D01*
X125631796Y-121942415D01*
X125771132Y-121936938D01*
X125916802Y-121929783D01*
X126056741Y-121921638D01*
X126178887Y-121913192D01*
X126252688Y-121906968D01*
X126345360Y-121899171D01*
X126423344Y-121894493D01*
X126478731Y-121893276D01*
X126503614Y-121895860D01*
X126503945Y-121896124D01*
X126645293Y-121896124D01*
X126646796Y-121891526D01*
X126657192Y-121827722D01*
X126645905Y-121785372D01*
X126609544Y-121761940D01*
X126544719Y-121754889D01*
X126448038Y-121761685D01*
G36*
X123523517Y-118492996D02*
X123461157Y-118511680D01*
X123419909Y-118535256D01*
X123385846Y-118574491D01*
X123355142Y-118623164D01*
X123328862Y-118669547D01*
X123310772Y-118711273D01*
X123298816Y-118757955D01*
X123290935Y-118819208D01*
X123285073Y-118904647D01*
X123281980Y-118965087D01*
X123273175Y-119100967D01*
X123259607Y-119222653D01*
X123239206Y-119340041D01*
X123209905Y-119463025D01*
X123169634Y-119601500D01*
X123116326Y-119765361D01*
X123112027Y-119778117D01*
X123061130Y-119940117D01*
X123028452Y-120073101D01*
X123013421Y-120182317D01*
X123015461Y-120273010D01*
X123033999Y-120350425D01*
X123046211Y-120379496D01*
X123071020Y-120422203D01*
X123106019Y-120462350D01*
X123156637Y-120504058D01*
X123228309Y-120551449D01*
X123326464Y-120608646D01*
X123405689Y-120652301D01*
X123514576Y-120712817D01*
X123620820Y-120774966D01*
X123730152Y-120842453D01*
X123848304Y-120918982D01*
X123981008Y-121008258D01*
X124133994Y-121113987D01*
X124294966Y-121227123D01*
X124422722Y-121316383D01*
X124524913Y-121385093D01*
X124606968Y-121436498D01*
X124674320Y-121473844D01*
X124732400Y-121500374D01*
X124781516Y-121517773D01*
X124847505Y-121537310D01*
X124896721Y-121550285D01*
X124919444Y-121554158D01*
X124919895Y-121553937D01*
X124918460Y-121533958D01*
X124911731Y-121481474D01*
X124900568Y-121402568D01*
X124896055Y-121372170D01*
X124771031Y-121372170D01*
X124765717Y-121376170D01*
X124748189Y-121353385D01*
X124732012Y-121326051D01*
X124700620Y-121268963D01*
X124656676Y-121187114D01*
X124602841Y-121085498D01*
X124541778Y-120969108D01*
X124477839Y-120846204D01*
X124412954Y-120719933D01*
X124353889Y-120603005D01*
X124303126Y-120500495D01*
X124263148Y-120417477D01*
X124236438Y-120359025D01*
X124225538Y-120330525D01*
X124212863Y-120305058D01*
X124162670Y-120305058D01*
X124156899Y-120324471D01*
X124136600Y-120324597D01*
X124102334Y-120305858D01*
X124093023Y-120291557D01*
X124098794Y-120272145D01*
X124119092Y-120272019D01*
X124153359Y-120290758D01*
X124162670Y-120305058D01*
X124212863Y-120305058D01*
X124202673Y-120284584D01*
X124176692Y-120261320D01*
X124145174Y-120241135D01*
X124124245Y-120216430D01*
X124108997Y-120177145D01*
X124094520Y-120113214D01*
X124088068Y-120079670D01*
X124076292Y-120004941D01*
X124075635Y-119958315D01*
X124086082Y-119930438D01*
X124087831Y-119928208D01*
X124098849Y-119901104D01*
X124091957Y-119889551D01*
X124047419Y-119889551D01*
X124039103Y-119896330D01*
X124016653Y-119897148D01*
X123977667Y-119890246D01*
X123962604Y-119879581D01*
X123959970Y-119856818D01*
X123981626Y-119850782D01*
X124015569Y-119863704D01*
X124022391Y-119868466D01*
X124047419Y-119889551D01*
X124091957Y-119889551D01*
X124080415Y-119870206D01*
X124072131Y-119861593D01*
X124054342Y-119832303D01*
X123573816Y-119832303D01*
X123553564Y-119838993D01*
X123544085Y-119839154D01*
X123510396Y-119827487D01*
X123502615Y-119809846D01*
X123511894Y-119783827D01*
X123519762Y-119780539D01*
X123545225Y-119793906D01*
X123561231Y-119809846D01*
X123573816Y-119832303D01*
X124054342Y-119832303D01*
X124047545Y-119821112D01*
X124026909Y-119759761D01*
X124012517Y-119690290D01*
X124006664Y-119625447D01*
X124011643Y-119577983D01*
X124018747Y-119564917D01*
X124024278Y-119541222D01*
X124022730Y-119539226D01*
X123964585Y-119539226D01*
X123944333Y-119545916D01*
X123934854Y-119546077D01*
X123901165Y-119534410D01*
X123893385Y-119516769D01*
X123902663Y-119490750D01*
X123910531Y-119487462D01*
X123935994Y-119500829D01*
X123952000Y-119516769D01*
X123964585Y-119539226D01*
X124022730Y-119539226D01*
X123998253Y-119507679D01*
X123986451Y-119497031D01*
X123953131Y-119455107D01*
X123914667Y-119387567D01*
X123876370Y-119306450D01*
X123843550Y-119223793D01*
X123821520Y-119151633D01*
X123815231Y-119108981D01*
X123797468Y-119054597D01*
X123732823Y-119054597D01*
X123727053Y-119074009D01*
X123706754Y-119074135D01*
X123672488Y-119055396D01*
X123663177Y-119041096D01*
X123668948Y-119021683D01*
X123689246Y-119021557D01*
X123723512Y-119040296D01*
X123732823Y-119054597D01*
X123797468Y-119054597D01*
X123797053Y-119053328D01*
X123746961Y-119010016D01*
X123682365Y-118987081D01*
X123634881Y-118983415D01*
X123611408Y-118999672D01*
X123608192Y-119006636D01*
X123609929Y-119050145D01*
X123647951Y-119088574D01*
X123717281Y-119118462D01*
X123754366Y-119131985D01*
X123781169Y-119151647D01*
X123804086Y-119185960D01*
X123829510Y-119243433D01*
X123849170Y-119293993D01*
X123907799Y-119447575D01*
X123842970Y-119459737D01*
X123790626Y-119461533D01*
X123785528Y-119460125D01*
X123655779Y-119460125D01*
X123643534Y-119467466D01*
X123625186Y-119467923D01*
X123586464Y-119460393D01*
X123571834Y-119449735D01*
X123569905Y-119426404D01*
X123591384Y-119417516D01*
X123622336Y-119426001D01*
X123635677Y-119436304D01*
X123655779Y-119460125D01*
X123785528Y-119460125D01*
X123730629Y-119444963D01*
X123669802Y-119417042D01*
X123605824Y-119387165D01*
X123566159Y-119376221D01*
X123542132Y-119382194D01*
X123537362Y-119386284D01*
X123525322Y-119418993D01*
X123542315Y-119453523D01*
X123579214Y-119483273D01*
X123626894Y-119501641D01*
X123676228Y-119502027D01*
X123690829Y-119497294D01*
X123746945Y-119485756D01*
X123802053Y-119493143D01*
X123839279Y-119516858D01*
X123841649Y-119520511D01*
X123870028Y-119547294D01*
X123917587Y-119574387D01*
X123924688Y-119577478D01*
X123970276Y-119602439D01*
X123988680Y-119634895D01*
X123991344Y-119668455D01*
X123994859Y-119726544D01*
X124002297Y-119771467D01*
X124004636Y-119793642D01*
X123993628Y-119808569D01*
X123963402Y-119817624D01*
X123908089Y-119822182D01*
X123821816Y-119823622D01*
X123779765Y-119823637D01*
X123687612Y-119819701D01*
X123628646Y-119807716D01*
X123603919Y-119793706D01*
X123553482Y-119761142D01*
X123502716Y-119747982D01*
X123463619Y-119755947D01*
X123450693Y-119771740D01*
X123453406Y-119810195D01*
X123483625Y-119844269D01*
X123529798Y-119868445D01*
X123580370Y-119877210D01*
X123623788Y-119865047D01*
X123631984Y-119858277D01*
X123662306Y-119849723D01*
X123718029Y-119849998D01*
X123786933Y-119857364D01*
X123856798Y-119870083D01*
X123915403Y-119886418D01*
X123949152Y-119903384D01*
X123990738Y-119931644D01*
X124012990Y-119942069D01*
X124037392Y-119970495D01*
X124059480Y-120037522D01*
X124069118Y-120082786D01*
X124081295Y-120152673D01*
X124084369Y-120194833D01*
X124077531Y-120219725D01*
X124059975Y-120237808D01*
X124056974Y-120240120D01*
X124019930Y-120259062D01*
X123998756Y-120260366D01*
X123970674Y-120255590D01*
X123913655Y-120249133D01*
X123837742Y-120242071D01*
X123797855Y-120238808D01*
X123692661Y-120227508D01*
X123680108Y-120224824D01*
X123537922Y-120224824D01*
X123521643Y-120229153D01*
X123503211Y-120226915D01*
X123464134Y-120212540D01*
X123448787Y-120195731D01*
X123453356Y-120175163D01*
X123478205Y-120173394D01*
X123510042Y-120189225D01*
X123523711Y-120202492D01*
X123537922Y-120224824D01*
X123680108Y-120224824D01*
X123620696Y-120212121D01*
X123576212Y-120191383D01*
X123573711Y-120189488D01*
X123520611Y-120157737D01*
X123476832Y-120141139D01*
X123430111Y-120141235D01*
X123408391Y-120164297D01*
X123415050Y-120200744D01*
X123444121Y-120233950D01*
X123481729Y-120256432D01*
X123528044Y-120263515D01*
X123589033Y-120259012D01*
X123665115Y-120254990D01*
X123755838Y-120257846D01*
X123851056Y-120266328D01*
X123940621Y-120279182D01*
X124014386Y-120295154D01*
X124062205Y-120312992D01*
X124069849Y-120318406D01*
X124115514Y-120347455D01*
X124156905Y-120363530D01*
X124174992Y-120371950D01*
X124195260Y-120390222D01*
X124220036Y-120422123D01*
X124251650Y-120471431D01*
X124292429Y-120541924D01*
X124344703Y-120637379D01*
X124410800Y-120761574D01*
X124460281Y-120855690D01*
X124525332Y-120980659D01*
X124583485Y-121094054D01*
X124632502Y-121191376D01*
X124670149Y-121268127D01*
X124694189Y-121319811D01*
X124702386Y-121341929D01*
X124702243Y-121342347D01*
X124683797Y-121335382D01*
X124640568Y-121309842D01*
X124579466Y-121270011D01*
X124523082Y-121231244D01*
X124335028Y-121100600D01*
X124150024Y-120974673D01*
X123973058Y-120856722D01*
X123809117Y-120750007D01*
X123663188Y-120657788D01*
X123540261Y-120583324D01*
X123471855Y-120544219D01*
X123382972Y-120492940D01*
X123301631Y-120441963D01*
X123236921Y-120397240D01*
X123198317Y-120365126D01*
X123161706Y-120313326D01*
X123142274Y-120249152D01*
X123140310Y-120168092D01*
X123156105Y-120065635D01*
X123189948Y-119937268D01*
X123234618Y-119800077D01*
X123288953Y-119636099D01*
X123329709Y-119494751D01*
X123359607Y-119363150D01*
X123381370Y-119228410D01*
X123397718Y-119077648D01*
X123404409Y-118996224D01*
X123413267Y-118888702D01*
X123421864Y-118812187D01*
X123431932Y-118758659D01*
X123445205Y-118720099D01*
X123463414Y-118688487D01*
X123474040Y-118673918D01*
X123518870Y-118629763D01*
X123568612Y-118610689D01*
X123624881Y-118618005D01*
X123689294Y-118653021D01*
X123763464Y-118717046D01*
X123849007Y-118811389D01*
X123947538Y-118937359D01*
X124060672Y-119096265D01*
X124140202Y-119213923D01*
X124189570Y-119297199D01*
X124246598Y-119410585D01*
X124312304Y-119556274D01*
X124387708Y-119736458D01*
X124417286Y-119809846D01*
X124596867Y-120259231D01*
X124675298Y-120767231D01*
X124696899Y-120906637D01*
X124717085Y-121035961D01*
X124734932Y-121149357D01*
X124749515Y-121240978D01*
X124759911Y-121304980D01*
X124764869Y-121333846D01*
X124771031Y-121372170D01*
X124896055Y-121372170D01*
X124885832Y-121303326D01*
X124868386Y-121189830D01*
X124868019Y-121187478D01*
X124850536Y-121072713D01*
X124835893Y-120971064D01*
X124824941Y-120888892D01*
X124818525Y-120832562D01*
X124817495Y-120808438D01*
X124817497Y-120808431D01*
X124829639Y-120814292D01*
X124856490Y-120847406D01*
X124893748Y-120900887D01*
X124937112Y-120967845D01*
X124982279Y-121041394D01*
X125024950Y-121114645D01*
X125060823Y-121180711D01*
X125085595Y-121232705D01*
X125090714Y-121245923D01*
X125112197Y-121316977D01*
X125128220Y-121387021D01*
X125131058Y-121404673D01*
X125134789Y-121451446D01*
X125124462Y-121471264D01*
X125093675Y-121475494D01*
X125091153Y-121475500D01*
X125042856Y-121487142D01*
X125016042Y-121525268D01*
X125007387Y-121594678D01*
X125007376Y-121596417D01*
X125003678Y-121631333D01*
X124989274Y-121664202D01*
X124958684Y-121702549D01*
X124906428Y-121753898D01*
X124865423Y-121791350D01*
X124737918Y-121908718D01*
X124632186Y-122012345D01*
X124538990Y-122112260D01*
X124449090Y-122218494D01*
X124353245Y-122341079D01*
X124326670Y-122376258D01*
X124257287Y-122469349D01*
X124208438Y-122537764D01*
X124176735Y-122587726D01*
X124158792Y-122625459D01*
X124151222Y-122657186D01*
X124150639Y-122689131D01*
X124151243Y-122698642D01*
X124158269Y-122751106D01*
X124173966Y-122775900D01*
X124205597Y-122784408D01*
X124206000Y-122784447D01*
X124258720Y-122779934D01*
X124290219Y-122768162D01*
X124313675Y-122744470D01*
X124352801Y-122694547D01*
X124402511Y-122625271D01*
X124457722Y-122543519D01*
X124468469Y-122527058D01*
X124534922Y-122427580D01*
X124590945Y-122352267D01*
X124645255Y-122291222D01*
X124706571Y-122234548D01*
X124775020Y-122179046D01*
X124882417Y-122090486D01*
X124983062Y-121998932D01*
X125071357Y-121910158D01*
X125141702Y-121829941D01*
X125188499Y-121764055D01*
X125200655Y-121739959D01*
X125219456Y-121699682D01*
X125235287Y-121691067D01*
X125257677Y-121708655D01*
X125272499Y-121719482D01*
X125295534Y-121727059D01*
X125332224Y-121731616D01*
X125388012Y-121733388D01*
X125468343Y-121732606D01*
X125578657Y-121729501D01*
X125670785Y-121726285D01*
X125819464Y-121720144D01*
X125983331Y-121712159D01*
X126147425Y-121703135D01*
X126296788Y-121693877D01*
X126376167Y-121688318D01*
X126524776Y-121675912D01*
X126643070Y-121660866D01*
X126739258Y-121639270D01*
X126821549Y-121607215D01*
X126898153Y-121560793D01*
X126977277Y-121496096D01*
X127067131Y-121409214D01*
X127156308Y-121316857D01*
X127224740Y-121245793D01*
X127315761Y-121152429D01*
X127424220Y-121041988D01*
X127544966Y-120919691D01*
X127672846Y-120790760D01*
X127802710Y-120660416D01*
X127890741Y-120572423D01*
X128034156Y-120428626D01*
X128151210Y-120309589D01*
X128243877Y-120213163D01*
X128314133Y-120137198D01*
X128363950Y-120079545D01*
X128383717Y-120053386D01*
X128220804Y-120053386D01*
X127742287Y-120538334D01*
X127619531Y-120662943D01*
X127496214Y-120788493D01*
X127377405Y-120909799D01*
X127268169Y-121021675D01*
X127173573Y-121118936D01*
X127098685Y-121196397D01*
X127068385Y-121227998D01*
X126968707Y-121330364D01*
X126885419Y-121408133D01*
X126810151Y-121465158D01*
X126734530Y-121505294D01*
X126650187Y-121532393D01*
X126548749Y-121550308D01*
X126421846Y-121562894D01*
X126325923Y-121569762D01*
X126203379Y-121577224D01*
X126076884Y-121583658D01*
X125952194Y-121588912D01*
X125835070Y-121592835D01*
X125731268Y-121595273D01*
X125646547Y-121596076D01*
X125586665Y-121595089D01*
X125557381Y-121592163D01*
X125555782Y-121590113D01*
X125585745Y-121572561D01*
X125645043Y-121545335D01*
X125726015Y-121511347D01*
X125821001Y-121473511D01*
X125922341Y-121434739D01*
X126022376Y-121397944D01*
X126113445Y-121366037D01*
X126187888Y-121341933D01*
X126238045Y-121328543D01*
X126247769Y-121326991D01*
X126324889Y-121321768D01*
X126422363Y-121318916D01*
X126529412Y-121318330D01*
X126635253Y-121319905D01*
X126729106Y-121323533D01*
X126800189Y-121329109D01*
X126824154Y-121332659D01*
X126885444Y-121335570D01*
X126930971Y-121321198D01*
X126953255Y-121294413D01*
X126950941Y-121285000D01*
X126902308Y-121285000D01*
X126885587Y-121299688D01*
X126853462Y-121304539D01*
X126816743Y-121297850D01*
X126804615Y-121285000D01*
X126811098Y-121279305D01*
X126308205Y-121279305D01*
X126305550Y-121286350D01*
X126281338Y-121302177D01*
X126251953Y-121301947D01*
X126238000Y-121286153D01*
X126253445Y-121258912D01*
X126285347Y-121251447D01*
X126296934Y-121255889D01*
X126308205Y-121279305D01*
X126811098Y-121279305D01*
X126821336Y-121270313D01*
X126853462Y-121265462D01*
X126890180Y-121272150D01*
X126902308Y-121285000D01*
X126950941Y-121285000D01*
X126944814Y-121260086D01*
X126941733Y-121256113D01*
X126910468Y-121234209D01*
X126862499Y-121233351D01*
X126844779Y-121236352D01*
X126784780Y-121244939D01*
X126707857Y-121251845D01*
X126622801Y-121256818D01*
X126538407Y-121259607D01*
X126463468Y-121259963D01*
X126406778Y-121257634D01*
X126377130Y-121252368D01*
X126374769Y-121249762D01*
X126390266Y-121230746D01*
X126431362Y-121197839D01*
X126489966Y-121156241D01*
X126557986Y-121111152D01*
X126627331Y-121067771D01*
X126689910Y-121031299D01*
X126737631Y-121006935D01*
X126762403Y-120999878D01*
X126763122Y-121000199D01*
X126791853Y-121001447D01*
X126841883Y-120990689D01*
X126866818Y-120982789D01*
X126953736Y-120958778D01*
X127015732Y-120955188D01*
X127048762Y-120972249D01*
X127048846Y-120972385D01*
X127076465Y-120986492D01*
X127125434Y-120991620D01*
X127178882Y-120986930D01*
X127203556Y-120980064D01*
X127229111Y-120955388D01*
X127231622Y-120930321D01*
X127175846Y-120930321D01*
X127159810Y-120953935D01*
X127125710Y-120966308D01*
X127110881Y-120965383D01*
X127096493Y-120947436D01*
X126855735Y-120947436D01*
X126853547Y-120952708D01*
X126828813Y-120968314D01*
X126794189Y-120971569D01*
X126768828Y-120962192D01*
X126765538Y-120953999D01*
X126779789Y-120927680D01*
X126786013Y-120922960D01*
X126816951Y-120917155D01*
X126845679Y-120927731D01*
X126855735Y-120947436D01*
X127096493Y-120947436D01*
X127095625Y-120946354D01*
X127095453Y-120942589D01*
X127110502Y-120925437D01*
X127141367Y-120917000D01*
X127168862Y-120920205D01*
X127175846Y-120930321D01*
X127231622Y-120930321D01*
X127232523Y-120921333D01*
X127214440Y-120895442D01*
X127200269Y-120891192D01*
X127133332Y-120891171D01*
X127076865Y-120901345D01*
X127049823Y-120915096D01*
X127017041Y-120928988D01*
X126970193Y-120932721D01*
X126928653Y-120926170D01*
X126913442Y-120915977D01*
X126922562Y-120896727D01*
X126956851Y-120862816D01*
X127008269Y-120820179D01*
X127068775Y-120774750D01*
X127130330Y-120732464D01*
X127184892Y-120699254D01*
X127224422Y-120681055D01*
X127234109Y-120679308D01*
X127283759Y-120668946D01*
X127311788Y-120655752D01*
X127346055Y-120643179D01*
X127378777Y-120659100D01*
X127388895Y-120667842D01*
X127433755Y-120688930D01*
X127490513Y-120692251D01*
X127543658Y-120679499D01*
X127577682Y-120652366D01*
X127580259Y-120646950D01*
X127579967Y-120640231D01*
X127527538Y-120640231D01*
X127510818Y-120654918D01*
X127478692Y-120659769D01*
X127441974Y-120653081D01*
X127429846Y-120640231D01*
X127446567Y-120625543D01*
X127478692Y-120620692D01*
X127515411Y-120627381D01*
X127527538Y-120640231D01*
X127579967Y-120640231D01*
X127578987Y-120617705D01*
X127273538Y-120617705D01*
X127257502Y-120641320D01*
X127223403Y-120653693D01*
X127208573Y-120652768D01*
X127193318Y-120633739D01*
X127193145Y-120629973D01*
X127208194Y-120612822D01*
X127239059Y-120604385D01*
X127266554Y-120607589D01*
X127273538Y-120617705D01*
X127578987Y-120617705D01*
X127578762Y-120612546D01*
X127546461Y-120592678D01*
X127489221Y-120588374D01*
X127412905Y-120600662D01*
X127376115Y-120611165D01*
X127340589Y-120615017D01*
X127332154Y-120603678D01*
X127349017Y-120582582D01*
X127393119Y-120553407D01*
X127454726Y-120520731D01*
X127524107Y-120489132D01*
X127591530Y-120463186D01*
X127647261Y-120447471D01*
X127669855Y-120444846D01*
X127727121Y-120436768D01*
X127772182Y-120417653D01*
X127797089Y-120392556D01*
X127795279Y-120386231D01*
X127742462Y-120386231D01*
X127725741Y-120400918D01*
X127693615Y-120405769D01*
X127656897Y-120399081D01*
X127644769Y-120386231D01*
X127661490Y-120371543D01*
X127693615Y-120366692D01*
X127730334Y-120373381D01*
X127742462Y-120386231D01*
X127795279Y-120386231D01*
X127789918Y-120367498D01*
X127783293Y-120359037D01*
X127744047Y-120335136D01*
X127691528Y-120329773D01*
X127638945Y-120340489D01*
X127599504Y-120364826D01*
X127586154Y-120395731D01*
X127569803Y-120418655D01*
X127527215Y-120451421D01*
X127468092Y-120488525D01*
X127402133Y-120524458D01*
X127339037Y-120553713D01*
X127288504Y-120570785D01*
X127273963Y-120572970D01*
X127200930Y-120577670D01*
X127157754Y-120584012D01*
X127135224Y-120594440D01*
X127124127Y-120611399D01*
X127123540Y-120612895D01*
X127125389Y-120647323D01*
X127136305Y-120659483D01*
X127136089Y-120677773D01*
X127109034Y-120709814D01*
X127062446Y-120750359D01*
X127003634Y-120794160D01*
X126939907Y-120835971D01*
X126878573Y-120870544D01*
X126826939Y-120892632D01*
X126804615Y-120897628D01*
X126745968Y-120913832D01*
X126717700Y-120946205D01*
X126690068Y-120980536D01*
X126636490Y-121026508D01*
X126565960Y-121078267D01*
X126487472Y-121129957D01*
X126410021Y-121175723D01*
X126342600Y-121209708D01*
X126294203Y-121226057D01*
X126286846Y-121226707D01*
X126220960Y-121235947D01*
X126184378Y-121264896D01*
X126176947Y-121281562D01*
X126156415Y-121299589D01*
X126107627Y-121327634D01*
X126038664Y-121361349D01*
X125983518Y-121385655D01*
X125850564Y-121441473D01*
X125750576Y-121482570D01*
X125680771Y-121510002D01*
X125638365Y-121524827D01*
X125620574Y-121528102D01*
X125622538Y-121522776D01*
X125650982Y-121500256D01*
X125708108Y-121459288D01*
X125789767Y-121402615D01*
X125833006Y-121373108D01*
X125586851Y-121373108D01*
X125569068Y-121397617D01*
X125516083Y-121439074D01*
X125460015Y-121476882D01*
X125388742Y-121525632D01*
X125329209Y-121570868D01*
X125289865Y-121605947D01*
X125279886Y-121618517D01*
X125258116Y-121651768D01*
X125249993Y-121649788D01*
X125258381Y-121614908D01*
X125262287Y-121604203D01*
X125271869Y-121553246D01*
X125262070Y-121532178D01*
X125255193Y-121503509D01*
X125283520Y-121470297D01*
X125343823Y-121435064D01*
X125429119Y-121401577D01*
X125516864Y-121375058D01*
X125569446Y-121365578D01*
X125586851Y-121373108D01*
X125833006Y-121373108D01*
X125891809Y-121332981D01*
X126010084Y-121253129D01*
X126140443Y-121165803D01*
X126278737Y-121073745D01*
X126420815Y-120979699D01*
X126562528Y-120886409D01*
X126699726Y-120796618D01*
X126828261Y-120713069D01*
X126943981Y-120638506D01*
X127042739Y-120575672D01*
X127120383Y-120527310D01*
X127172765Y-120496164D01*
X127186970Y-120488505D01*
X127286771Y-120439917D01*
X127403654Y-120385210D01*
X127530773Y-120327370D01*
X127661283Y-120269381D01*
X127788337Y-120214226D01*
X127905091Y-120164891D01*
X128004697Y-120124358D01*
X128080311Y-120095613D01*
X128113518Y-120084615D01*
X128220804Y-120053386D01*
X128383717Y-120053386D01*
X128395304Y-120038053D01*
X128410168Y-120010574D01*
X128411610Y-120005281D01*
X128412537Y-119954450D01*
X128387443Y-119926980D01*
X128331118Y-119917733D01*
X128322703Y-119917607D01*
X128254664Y-119922668D01*
X128172336Y-119939357D01*
X128072180Y-119968911D01*
X127950661Y-120012570D01*
X127804241Y-120071572D01*
X127629383Y-120147156D01*
X127494840Y-120207563D01*
X127358883Y-120269472D01*
X127245990Y-120321707D01*
X127150024Y-120367780D01*
X127064851Y-120411202D01*
X126984332Y-120455487D01*
X126902332Y-120504147D01*
X126812715Y-120560692D01*
X126709343Y-120628637D01*
X126586081Y-120711492D01*
X126436792Y-120812770D01*
X126433385Y-120815085D01*
X126296098Y-120908445D01*
X126163775Y-120998588D01*
X126041262Y-121082200D01*
X125933402Y-121155971D01*
X125845041Y-121216586D01*
X125781024Y-121260735D01*
X125754746Y-121279044D01*
X125699286Y-121315484D01*
X125660180Y-121336204D01*
X125644044Y-121337870D01*
X125644490Y-121334603D01*
X125650661Y-121316095D01*
X125645926Y-121307455D01*
X125622609Y-121308144D01*
X125573030Y-121317623D01*
X125530693Y-121326622D01*
X125438881Y-121351244D01*
X125350358Y-121383706D01*
X125274826Y-121419629D01*
X125221990Y-121454635D01*
X125205145Y-121473501D01*
X125187841Y-121498166D01*
X125182012Y-121499923D01*
X125178916Y-121476229D01*
X125173540Y-121427772D01*
X125170866Y-121402231D01*
X125151326Y-121290785D01*
X125113847Y-121181131D01*
X125054495Y-121063954D01*
X124975006Y-120938269D01*
X124925172Y-120862176D01*
X124884869Y-120795707D01*
X124858631Y-120746665D01*
X124850769Y-120724359D01*
X124862796Y-120682074D01*
X124892301Y-120627507D01*
X124929417Y-120576296D01*
X124964281Y-120544077D01*
X124964634Y-120543876D01*
X124985500Y-120522655D01*
X124975507Y-120503393D01*
X124949887Y-120500925D01*
X124914688Y-120525541D01*
X124876501Y-120568748D01*
X124841914Y-120622054D01*
X124817518Y-120676968D01*
X124809746Y-120717017D01*
X124806254Y-120724094D01*
X124797925Y-120697257D01*
X124785838Y-120641218D01*
X124771072Y-120560690D01*
X124763105Y-120513231D01*
X124742195Y-120386838D01*
X124725277Y-120291093D01*
X124710301Y-120218039D01*
X124695219Y-120159717D01*
X124677982Y-120108169D01*
X124656541Y-120055436D01*
X124629931Y-119995936D01*
X124602095Y-119931796D01*
X124564672Y-119841281D01*
X124521796Y-119734603D01*
X124477602Y-119621976D01*
X124459491Y-119574960D01*
X124419562Y-119472350D01*
X124384710Y-119388868D01*
X124350365Y-119316302D01*
X124311960Y-119246437D01*
X124264923Y-119171061D01*
X124204686Y-119081960D01*
X124126680Y-118970921D01*
X124111648Y-118949729D01*
X124029923Y-118835444D01*
X123965672Y-118748277D01*
X123914356Y-118683061D01*
X123871435Y-118634630D01*
X123832367Y-118597817D01*
X123792614Y-118567453D01*
X123753260Y-118541842D01*
X123630355Y-118465685D01*
X123523517Y-118492996D01*
X123523517Y-118492996D01*
G37*
X123523517Y-118492996D02*
X123461157Y-118511680D01*
X123419909Y-118535256D01*
X123385846Y-118574491D01*
X123355142Y-118623164D01*
X123328862Y-118669547D01*
X123310772Y-118711273D01*
X123298816Y-118757955D01*
X123290935Y-118819208D01*
X123285073Y-118904647D01*
X123281980Y-118965087D01*
X123273175Y-119100967D01*
X123259607Y-119222653D01*
X123239206Y-119340041D01*
X123209905Y-119463025D01*
X123169634Y-119601500D01*
X123116326Y-119765361D01*
X123112027Y-119778117D01*
X123061130Y-119940117D01*
X123028452Y-120073101D01*
X123013421Y-120182317D01*
X123015461Y-120273010D01*
X123033999Y-120350425D01*
X123046211Y-120379496D01*
X123071020Y-120422203D01*
X123106019Y-120462350D01*
X123156637Y-120504058D01*
X123228309Y-120551449D01*
X123326464Y-120608646D01*
X123405689Y-120652301D01*
X123514576Y-120712817D01*
X123620820Y-120774966D01*
X123730152Y-120842453D01*
X123848304Y-120918982D01*
X123981008Y-121008258D01*
X124133994Y-121113987D01*
X124294966Y-121227123D01*
X124422722Y-121316383D01*
X124524913Y-121385093D01*
X124606968Y-121436498D01*
X124674320Y-121473844D01*
X124732400Y-121500374D01*
X124781516Y-121517773D01*
X124847505Y-121537310D01*
X124896721Y-121550285D01*
X124919444Y-121554158D01*
X124919895Y-121553937D01*
X124918460Y-121533958D01*
X124911731Y-121481474D01*
X124900568Y-121402568D01*
X124896055Y-121372170D01*
X124771031Y-121372170D01*
X124765717Y-121376170D01*
X124748189Y-121353385D01*
X124732012Y-121326051D01*
X124700620Y-121268963D01*
X124656676Y-121187114D01*
X124602841Y-121085498D01*
X124541778Y-120969108D01*
X124477839Y-120846204D01*
X124412954Y-120719933D01*
X124353889Y-120603005D01*
X124303126Y-120500495D01*
X124263148Y-120417477D01*
X124236438Y-120359025D01*
X124225538Y-120330525D01*
X124212863Y-120305058D01*
X124162670Y-120305058D01*
X124156899Y-120324471D01*
X124136600Y-120324597D01*
X124102334Y-120305858D01*
X124093023Y-120291557D01*
X124098794Y-120272145D01*
X124119092Y-120272019D01*
X124153359Y-120290758D01*
X124162670Y-120305058D01*
X124212863Y-120305058D01*
X124202673Y-120284584D01*
X124176692Y-120261320D01*
X124145174Y-120241135D01*
X124124245Y-120216430D01*
X124108997Y-120177145D01*
X124094520Y-120113214D01*
X124088068Y-120079670D01*
X124076292Y-120004941D01*
X124075635Y-119958315D01*
X124086082Y-119930438D01*
X124087831Y-119928208D01*
X124098849Y-119901104D01*
X124091957Y-119889551D01*
X124047419Y-119889551D01*
X124039103Y-119896330D01*
X124016653Y-119897148D01*
X123977667Y-119890246D01*
X123962604Y-119879581D01*
X123959970Y-119856818D01*
X123981626Y-119850782D01*
X124015569Y-119863704D01*
X124022391Y-119868466D01*
X124047419Y-119889551D01*
X124091957Y-119889551D01*
X124080415Y-119870206D01*
X124072131Y-119861593D01*
X124054342Y-119832303D01*
X123573816Y-119832303D01*
X123553564Y-119838993D01*
X123544085Y-119839154D01*
X123510396Y-119827487D01*
X123502615Y-119809846D01*
X123511894Y-119783827D01*
X123519762Y-119780539D01*
X123545225Y-119793906D01*
X123561231Y-119809846D01*
X123573816Y-119832303D01*
X124054342Y-119832303D01*
X124047545Y-119821112D01*
X124026909Y-119759761D01*
X124012517Y-119690290D01*
X124006664Y-119625447D01*
X124011643Y-119577983D01*
X124018747Y-119564917D01*
X124024278Y-119541222D01*
X124022730Y-119539226D01*
X123964585Y-119539226D01*
X123944333Y-119545916D01*
X123934854Y-119546077D01*
X123901165Y-119534410D01*
X123893385Y-119516769D01*
X123902663Y-119490750D01*
X123910531Y-119487462D01*
X123935994Y-119500829D01*
X123952000Y-119516769D01*
X123964585Y-119539226D01*
X124022730Y-119539226D01*
X123998253Y-119507679D01*
X123986451Y-119497031D01*
X123953131Y-119455107D01*
X123914667Y-119387567D01*
X123876370Y-119306450D01*
X123843550Y-119223793D01*
X123821520Y-119151633D01*
X123815231Y-119108981D01*
X123797468Y-119054597D01*
X123732823Y-119054597D01*
X123727053Y-119074009D01*
X123706754Y-119074135D01*
X123672488Y-119055396D01*
X123663177Y-119041096D01*
X123668948Y-119021683D01*
X123689246Y-119021557D01*
X123723512Y-119040296D01*
X123732823Y-119054597D01*
X123797468Y-119054597D01*
X123797053Y-119053328D01*
X123746961Y-119010016D01*
X123682365Y-118987081D01*
X123634881Y-118983415D01*
X123611408Y-118999672D01*
X123608192Y-119006636D01*
X123609929Y-119050145D01*
X123647951Y-119088574D01*
X123717281Y-119118462D01*
X123754366Y-119131985D01*
X123781169Y-119151647D01*
X123804086Y-119185960D01*
X123829510Y-119243433D01*
X123849170Y-119293993D01*
X123907799Y-119447575D01*
X123842970Y-119459737D01*
X123790626Y-119461533D01*
X123785528Y-119460125D01*
X123655779Y-119460125D01*
X123643534Y-119467466D01*
X123625186Y-119467923D01*
X123586464Y-119460393D01*
X123571834Y-119449735D01*
X123569905Y-119426404D01*
X123591384Y-119417516D01*
X123622336Y-119426001D01*
X123635677Y-119436304D01*
X123655779Y-119460125D01*
X123785528Y-119460125D01*
X123730629Y-119444963D01*
X123669802Y-119417042D01*
X123605824Y-119387165D01*
X123566159Y-119376221D01*
X123542132Y-119382194D01*
X123537362Y-119386284D01*
X123525322Y-119418993D01*
X123542315Y-119453523D01*
X123579214Y-119483273D01*
X123626894Y-119501641D01*
X123676228Y-119502027D01*
X123690829Y-119497294D01*
X123746945Y-119485756D01*
X123802053Y-119493143D01*
X123839279Y-119516858D01*
X123841649Y-119520511D01*
X123870028Y-119547294D01*
X123917587Y-119574387D01*
X123924688Y-119577478D01*
X123970276Y-119602439D01*
X123988680Y-119634895D01*
X123991344Y-119668455D01*
X123994859Y-119726544D01*
X124002297Y-119771467D01*
X124004636Y-119793642D01*
X123993628Y-119808569D01*
X123963402Y-119817624D01*
X123908089Y-119822182D01*
X123821816Y-119823622D01*
X123779765Y-119823637D01*
X123687612Y-119819701D01*
X123628646Y-119807716D01*
X123603919Y-119793706D01*
X123553482Y-119761142D01*
X123502716Y-119747982D01*
X123463619Y-119755947D01*
X123450693Y-119771740D01*
X123453406Y-119810195D01*
X123483625Y-119844269D01*
X123529798Y-119868445D01*
X123580370Y-119877210D01*
X123623788Y-119865047D01*
X123631984Y-119858277D01*
X123662306Y-119849723D01*
X123718029Y-119849998D01*
X123786933Y-119857364D01*
X123856798Y-119870083D01*
X123915403Y-119886418D01*
X123949152Y-119903384D01*
X123990738Y-119931644D01*
X124012990Y-119942069D01*
X124037392Y-119970495D01*
X124059480Y-120037522D01*
X124069118Y-120082786D01*
X124081295Y-120152673D01*
X124084369Y-120194833D01*
X124077531Y-120219725D01*
X124059975Y-120237808D01*
X124056974Y-120240120D01*
X124019930Y-120259062D01*
X123998756Y-120260366D01*
X123970674Y-120255590D01*
X123913655Y-120249133D01*
X123837742Y-120242071D01*
X123797855Y-120238808D01*
X123692661Y-120227508D01*
X123680108Y-120224824D01*
X123537922Y-120224824D01*
X123521643Y-120229153D01*
X123503211Y-120226915D01*
X123464134Y-120212540D01*
X123448787Y-120195731D01*
X123453356Y-120175163D01*
X123478205Y-120173394D01*
X123510042Y-120189225D01*
X123523711Y-120202492D01*
X123537922Y-120224824D01*
X123680108Y-120224824D01*
X123620696Y-120212121D01*
X123576212Y-120191383D01*
X123573711Y-120189488D01*
X123520611Y-120157737D01*
X123476832Y-120141139D01*
X123430111Y-120141235D01*
X123408391Y-120164297D01*
X123415050Y-120200744D01*
X123444121Y-120233950D01*
X123481729Y-120256432D01*
X123528044Y-120263515D01*
X123589033Y-120259012D01*
X123665115Y-120254990D01*
X123755838Y-120257846D01*
X123851056Y-120266328D01*
X123940621Y-120279182D01*
X124014386Y-120295154D01*
X124062205Y-120312992D01*
X124069849Y-120318406D01*
X124115514Y-120347455D01*
X124156905Y-120363530D01*
X124174992Y-120371950D01*
X124195260Y-120390222D01*
X124220036Y-120422123D01*
X124251650Y-120471431D01*
X124292429Y-120541924D01*
X124344703Y-120637379D01*
X124410800Y-120761574D01*
X124460281Y-120855690D01*
X124525332Y-120980659D01*
X124583485Y-121094054D01*
X124632502Y-121191376D01*
X124670149Y-121268127D01*
X124694189Y-121319811D01*
X124702386Y-121341929D01*
X124702243Y-121342347D01*
X124683797Y-121335382D01*
X124640568Y-121309842D01*
X124579466Y-121270011D01*
X124523082Y-121231244D01*
X124335028Y-121100600D01*
X124150024Y-120974673D01*
X123973058Y-120856722D01*
X123809117Y-120750007D01*
X123663188Y-120657788D01*
X123540261Y-120583324D01*
X123471855Y-120544219D01*
X123382972Y-120492940D01*
X123301631Y-120441963D01*
X123236921Y-120397240D01*
X123198317Y-120365126D01*
X123161706Y-120313326D01*
X123142274Y-120249152D01*
X123140310Y-120168092D01*
X123156105Y-120065635D01*
X123189948Y-119937268D01*
X123234618Y-119800077D01*
X123288953Y-119636099D01*
X123329709Y-119494751D01*
X123359607Y-119363150D01*
X123381370Y-119228410D01*
X123397718Y-119077648D01*
X123404409Y-118996224D01*
X123413267Y-118888702D01*
X123421864Y-118812187D01*
X123431932Y-118758659D01*
X123445205Y-118720099D01*
X123463414Y-118688487D01*
X123474040Y-118673918D01*
X123518870Y-118629763D01*
X123568612Y-118610689D01*
X123624881Y-118618005D01*
X123689294Y-118653021D01*
X123763464Y-118717046D01*
X123849007Y-118811389D01*
X123947538Y-118937359D01*
X124060672Y-119096265D01*
X124140202Y-119213923D01*
X124189570Y-119297199D01*
X124246598Y-119410585D01*
X124312304Y-119556274D01*
X124387708Y-119736458D01*
X124417286Y-119809846D01*
X124596867Y-120259231D01*
X124675298Y-120767231D01*
X124696899Y-120906637D01*
X124717085Y-121035961D01*
X124734932Y-121149357D01*
X124749515Y-121240978D01*
X124759911Y-121304980D01*
X124764869Y-121333846D01*
X124771031Y-121372170D01*
X124896055Y-121372170D01*
X124885832Y-121303326D01*
X124868386Y-121189830D01*
X124868019Y-121187478D01*
X124850536Y-121072713D01*
X124835893Y-120971064D01*
X124824941Y-120888892D01*
X124818525Y-120832562D01*
X124817495Y-120808438D01*
X124817497Y-120808431D01*
X124829639Y-120814292D01*
X124856490Y-120847406D01*
X124893748Y-120900887D01*
X124937112Y-120967845D01*
X124982279Y-121041394D01*
X125024950Y-121114645D01*
X125060823Y-121180711D01*
X125085595Y-121232705D01*
X125090714Y-121245923D01*
X125112197Y-121316977D01*
X125128220Y-121387021D01*
X125131058Y-121404673D01*
X125134789Y-121451446D01*
X125124462Y-121471264D01*
X125093675Y-121475494D01*
X125091153Y-121475500D01*
X125042856Y-121487142D01*
X125016042Y-121525268D01*
X125007387Y-121594678D01*
X125007376Y-121596417D01*
X125003678Y-121631333D01*
X124989274Y-121664202D01*
X124958684Y-121702549D01*
X124906428Y-121753898D01*
X124865423Y-121791350D01*
X124737918Y-121908718D01*
X124632186Y-122012345D01*
X124538990Y-122112260D01*
X124449090Y-122218494D01*
X124353245Y-122341079D01*
X124326670Y-122376258D01*
X124257287Y-122469349D01*
X124208438Y-122537764D01*
X124176735Y-122587726D01*
X124158792Y-122625459D01*
X124151222Y-122657186D01*
X124150639Y-122689131D01*
X124151243Y-122698642D01*
X124158269Y-122751106D01*
X124173966Y-122775900D01*
X124205597Y-122784408D01*
X124206000Y-122784447D01*
X124258720Y-122779934D01*
X124290219Y-122768162D01*
X124313675Y-122744470D01*
X124352801Y-122694547D01*
X124402511Y-122625271D01*
X124457722Y-122543519D01*
X124468469Y-122527058D01*
X124534922Y-122427580D01*
X124590945Y-122352267D01*
X124645255Y-122291222D01*
X124706571Y-122234548D01*
X124775020Y-122179046D01*
X124882417Y-122090486D01*
X124983062Y-121998932D01*
X125071357Y-121910158D01*
X125141702Y-121829941D01*
X125188499Y-121764055D01*
X125200655Y-121739959D01*
X125219456Y-121699682D01*
X125235287Y-121691067D01*
X125257677Y-121708655D01*
X125272499Y-121719482D01*
X125295534Y-121727059D01*
X125332224Y-121731616D01*
X125388012Y-121733388D01*
X125468343Y-121732606D01*
X125578657Y-121729501D01*
X125670785Y-121726285D01*
X125819464Y-121720144D01*
X125983331Y-121712159D01*
X126147425Y-121703135D01*
X126296788Y-121693877D01*
X126376167Y-121688318D01*
X126524776Y-121675912D01*
X126643070Y-121660866D01*
X126739258Y-121639270D01*
X126821549Y-121607215D01*
X126898153Y-121560793D01*
X126977277Y-121496096D01*
X127067131Y-121409214D01*
X127156308Y-121316857D01*
X127224740Y-121245793D01*
X127315761Y-121152429D01*
X127424220Y-121041988D01*
X127544966Y-120919691D01*
X127672846Y-120790760D01*
X127802710Y-120660416D01*
X127890741Y-120572423D01*
X128034156Y-120428626D01*
X128151210Y-120309589D01*
X128243877Y-120213163D01*
X128314133Y-120137198D01*
X128363950Y-120079545D01*
X128383717Y-120053386D01*
X128220804Y-120053386D01*
X127742287Y-120538334D01*
X127619531Y-120662943D01*
X127496214Y-120788493D01*
X127377405Y-120909799D01*
X127268169Y-121021675D01*
X127173573Y-121118936D01*
X127098685Y-121196397D01*
X127068385Y-121227998D01*
X126968707Y-121330364D01*
X126885419Y-121408133D01*
X126810151Y-121465158D01*
X126734530Y-121505294D01*
X126650187Y-121532393D01*
X126548749Y-121550308D01*
X126421846Y-121562894D01*
X126325923Y-121569762D01*
X126203379Y-121577224D01*
X126076884Y-121583658D01*
X125952194Y-121588912D01*
X125835070Y-121592835D01*
X125731268Y-121595273D01*
X125646547Y-121596076D01*
X125586665Y-121595089D01*
X125557381Y-121592163D01*
X125555782Y-121590113D01*
X125585745Y-121572561D01*
X125645043Y-121545335D01*
X125726015Y-121511347D01*
X125821001Y-121473511D01*
X125922341Y-121434739D01*
X126022376Y-121397944D01*
X126113445Y-121366037D01*
X126187888Y-121341933D01*
X126238045Y-121328543D01*
X126247769Y-121326991D01*
X126324889Y-121321768D01*
X126422363Y-121318916D01*
X126529412Y-121318330D01*
X126635253Y-121319905D01*
X126729106Y-121323533D01*
X126800189Y-121329109D01*
X126824154Y-121332659D01*
X126885444Y-121335570D01*
X126930971Y-121321198D01*
X126953255Y-121294413D01*
X126950941Y-121285000D01*
X126902308Y-121285000D01*
X126885587Y-121299688D01*
X126853462Y-121304539D01*
X126816743Y-121297850D01*
X126804615Y-121285000D01*
X126811098Y-121279305D01*
X126308205Y-121279305D01*
X126305550Y-121286350D01*
X126281338Y-121302177D01*
X126251953Y-121301947D01*
X126238000Y-121286153D01*
X126253445Y-121258912D01*
X126285347Y-121251447D01*
X126296934Y-121255889D01*
X126308205Y-121279305D01*
X126811098Y-121279305D01*
X126821336Y-121270313D01*
X126853462Y-121265462D01*
X126890180Y-121272150D01*
X126902308Y-121285000D01*
X126950941Y-121285000D01*
X126944814Y-121260086D01*
X126941733Y-121256113D01*
X126910468Y-121234209D01*
X126862499Y-121233351D01*
X126844779Y-121236352D01*
X126784780Y-121244939D01*
X126707857Y-121251845D01*
X126622801Y-121256818D01*
X126538407Y-121259607D01*
X126463468Y-121259963D01*
X126406778Y-121257634D01*
X126377130Y-121252368D01*
X126374769Y-121249762D01*
X126390266Y-121230746D01*
X126431362Y-121197839D01*
X126489966Y-121156241D01*
X126557986Y-121111152D01*
X126627331Y-121067771D01*
X126689910Y-121031299D01*
X126737631Y-121006935D01*
X126762403Y-120999878D01*
X126763122Y-121000199D01*
X126791853Y-121001447D01*
X126841883Y-120990689D01*
X126866818Y-120982789D01*
X126953736Y-120958778D01*
X127015732Y-120955188D01*
X127048762Y-120972249D01*
X127048846Y-120972385D01*
X127076465Y-120986492D01*
X127125434Y-120991620D01*
X127178882Y-120986930D01*
X127203556Y-120980064D01*
X127229111Y-120955388D01*
X127231622Y-120930321D01*
X127175846Y-120930321D01*
X127159810Y-120953935D01*
X127125710Y-120966308D01*
X127110881Y-120965383D01*
X127096493Y-120947436D01*
X126855735Y-120947436D01*
X126853547Y-120952708D01*
X126828813Y-120968314D01*
X126794189Y-120971569D01*
X126768828Y-120962192D01*
X126765538Y-120953999D01*
X126779789Y-120927680D01*
X126786013Y-120922960D01*
X126816951Y-120917155D01*
X126845679Y-120927731D01*
X126855735Y-120947436D01*
X127096493Y-120947436D01*
X127095625Y-120946354D01*
X127095453Y-120942589D01*
X127110502Y-120925437D01*
X127141367Y-120917000D01*
X127168862Y-120920205D01*
X127175846Y-120930321D01*
X127231622Y-120930321D01*
X127232523Y-120921333D01*
X127214440Y-120895442D01*
X127200269Y-120891192D01*
X127133332Y-120891171D01*
X127076865Y-120901345D01*
X127049823Y-120915096D01*
X127017041Y-120928988D01*
X126970193Y-120932721D01*
X126928653Y-120926170D01*
X126913442Y-120915977D01*
X126922562Y-120896727D01*
X126956851Y-120862816D01*
X127008269Y-120820179D01*
X127068775Y-120774750D01*
X127130330Y-120732464D01*
X127184892Y-120699254D01*
X127224422Y-120681055D01*
X127234109Y-120679308D01*
X127283759Y-120668946D01*
X127311788Y-120655752D01*
X127346055Y-120643179D01*
X127378777Y-120659100D01*
X127388895Y-120667842D01*
X127433755Y-120688930D01*
X127490513Y-120692251D01*
X127543658Y-120679499D01*
X127577682Y-120652366D01*
X127580259Y-120646950D01*
X127579967Y-120640231D01*
X127527538Y-120640231D01*
X127510818Y-120654918D01*
X127478692Y-120659769D01*
X127441974Y-120653081D01*
X127429846Y-120640231D01*
X127446567Y-120625543D01*
X127478692Y-120620692D01*
X127515411Y-120627381D01*
X127527538Y-120640231D01*
X127579967Y-120640231D01*
X127578987Y-120617705D01*
X127273538Y-120617705D01*
X127257502Y-120641320D01*
X127223403Y-120653693D01*
X127208573Y-120652768D01*
X127193318Y-120633739D01*
X127193145Y-120629973D01*
X127208194Y-120612822D01*
X127239059Y-120604385D01*
X127266554Y-120607589D01*
X127273538Y-120617705D01*
X127578987Y-120617705D01*
X127578762Y-120612546D01*
X127546461Y-120592678D01*
X127489221Y-120588374D01*
X127412905Y-120600662D01*
X127376115Y-120611165D01*
X127340589Y-120615017D01*
X127332154Y-120603678D01*
X127349017Y-120582582D01*
X127393119Y-120553407D01*
X127454726Y-120520731D01*
X127524107Y-120489132D01*
X127591530Y-120463186D01*
X127647261Y-120447471D01*
X127669855Y-120444846D01*
X127727121Y-120436768D01*
X127772182Y-120417653D01*
X127797089Y-120392556D01*
X127795279Y-120386231D01*
X127742462Y-120386231D01*
X127725741Y-120400918D01*
X127693615Y-120405769D01*
X127656897Y-120399081D01*
X127644769Y-120386231D01*
X127661490Y-120371543D01*
X127693615Y-120366692D01*
X127730334Y-120373381D01*
X127742462Y-120386231D01*
X127795279Y-120386231D01*
X127789918Y-120367498D01*
X127783293Y-120359037D01*
X127744047Y-120335136D01*
X127691528Y-120329773D01*
X127638945Y-120340489D01*
X127599504Y-120364826D01*
X127586154Y-120395731D01*
X127569803Y-120418655D01*
X127527215Y-120451421D01*
X127468092Y-120488525D01*
X127402133Y-120524458D01*
X127339037Y-120553713D01*
X127288504Y-120570785D01*
X127273963Y-120572970D01*
X127200930Y-120577670D01*
X127157754Y-120584012D01*
X127135224Y-120594440D01*
X127124127Y-120611399D01*
X127123540Y-120612895D01*
X127125389Y-120647323D01*
X127136305Y-120659483D01*
X127136089Y-120677773D01*
X127109034Y-120709814D01*
X127062446Y-120750359D01*
X127003634Y-120794160D01*
X126939907Y-120835971D01*
X126878573Y-120870544D01*
X126826939Y-120892632D01*
X126804615Y-120897628D01*
X126745968Y-120913832D01*
X126717700Y-120946205D01*
X126690068Y-120980536D01*
X126636490Y-121026508D01*
X126565960Y-121078267D01*
X126487472Y-121129957D01*
X126410021Y-121175723D01*
X126342600Y-121209708D01*
X126294203Y-121226057D01*
X126286846Y-121226707D01*
X126220960Y-121235947D01*
X126184378Y-121264896D01*
X126176947Y-121281562D01*
X126156415Y-121299589D01*
X126107627Y-121327634D01*
X126038664Y-121361349D01*
X125983518Y-121385655D01*
X125850564Y-121441473D01*
X125750576Y-121482570D01*
X125680771Y-121510002D01*
X125638365Y-121524827D01*
X125620574Y-121528102D01*
X125622538Y-121522776D01*
X125650982Y-121500256D01*
X125708108Y-121459288D01*
X125789767Y-121402615D01*
X125833006Y-121373108D01*
X125586851Y-121373108D01*
X125569068Y-121397617D01*
X125516083Y-121439074D01*
X125460015Y-121476882D01*
X125388742Y-121525632D01*
X125329209Y-121570868D01*
X125289865Y-121605947D01*
X125279886Y-121618517D01*
X125258116Y-121651768D01*
X125249993Y-121649788D01*
X125258381Y-121614908D01*
X125262287Y-121604203D01*
X125271869Y-121553246D01*
X125262070Y-121532178D01*
X125255193Y-121503509D01*
X125283520Y-121470297D01*
X125343823Y-121435064D01*
X125429119Y-121401577D01*
X125516864Y-121375058D01*
X125569446Y-121365578D01*
X125586851Y-121373108D01*
X125833006Y-121373108D01*
X125891809Y-121332981D01*
X126010084Y-121253129D01*
X126140443Y-121165803D01*
X126278737Y-121073745D01*
X126420815Y-120979699D01*
X126562528Y-120886409D01*
X126699726Y-120796618D01*
X126828261Y-120713069D01*
X126943981Y-120638506D01*
X127042739Y-120575672D01*
X127120383Y-120527310D01*
X127172765Y-120496164D01*
X127186970Y-120488505D01*
X127286771Y-120439917D01*
X127403654Y-120385210D01*
X127530773Y-120327370D01*
X127661283Y-120269381D01*
X127788337Y-120214226D01*
X127905091Y-120164891D01*
X128004697Y-120124358D01*
X128080311Y-120095613D01*
X128113518Y-120084615D01*
X128220804Y-120053386D01*
X128383717Y-120053386D01*
X128395304Y-120038053D01*
X128410168Y-120010574D01*
X128411610Y-120005281D01*
X128412537Y-119954450D01*
X128387443Y-119926980D01*
X128331118Y-119917733D01*
X128322703Y-119917607D01*
X128254664Y-119922668D01*
X128172336Y-119939357D01*
X128072180Y-119968911D01*
X127950661Y-120012570D01*
X127804241Y-120071572D01*
X127629383Y-120147156D01*
X127494840Y-120207563D01*
X127358883Y-120269472D01*
X127245990Y-120321707D01*
X127150024Y-120367780D01*
X127064851Y-120411202D01*
X126984332Y-120455487D01*
X126902332Y-120504147D01*
X126812715Y-120560692D01*
X126709343Y-120628637D01*
X126586081Y-120711492D01*
X126436792Y-120812770D01*
X126433385Y-120815085D01*
X126296098Y-120908445D01*
X126163775Y-120998588D01*
X126041262Y-121082200D01*
X125933402Y-121155971D01*
X125845041Y-121216586D01*
X125781024Y-121260735D01*
X125754746Y-121279044D01*
X125699286Y-121315484D01*
X125660180Y-121336204D01*
X125644044Y-121337870D01*
X125644490Y-121334603D01*
X125650661Y-121316095D01*
X125645926Y-121307455D01*
X125622609Y-121308144D01*
X125573030Y-121317623D01*
X125530693Y-121326622D01*
X125438881Y-121351244D01*
X125350358Y-121383706D01*
X125274826Y-121419629D01*
X125221990Y-121454635D01*
X125205145Y-121473501D01*
X125187841Y-121498166D01*
X125182012Y-121499923D01*
X125178916Y-121476229D01*
X125173540Y-121427772D01*
X125170866Y-121402231D01*
X125151326Y-121290785D01*
X125113847Y-121181131D01*
X125054495Y-121063954D01*
X124975006Y-120938269D01*
X124925172Y-120862176D01*
X124884869Y-120795707D01*
X124858631Y-120746665D01*
X124850769Y-120724359D01*
X124862796Y-120682074D01*
X124892301Y-120627507D01*
X124929417Y-120576296D01*
X124964281Y-120544077D01*
X124964634Y-120543876D01*
X124985500Y-120522655D01*
X124975507Y-120503393D01*
X124949887Y-120500925D01*
X124914688Y-120525541D01*
X124876501Y-120568748D01*
X124841914Y-120622054D01*
X124817518Y-120676968D01*
X124809746Y-120717017D01*
X124806254Y-120724094D01*
X124797925Y-120697257D01*
X124785838Y-120641218D01*
X124771072Y-120560690D01*
X124763105Y-120513231D01*
X124742195Y-120386838D01*
X124725277Y-120291093D01*
X124710301Y-120218039D01*
X124695219Y-120159717D01*
X124677982Y-120108169D01*
X124656541Y-120055436D01*
X124629931Y-119995936D01*
X124602095Y-119931796D01*
X124564672Y-119841281D01*
X124521796Y-119734603D01*
X124477602Y-119621976D01*
X124459491Y-119574960D01*
X124419562Y-119472350D01*
X124384710Y-119388868D01*
X124350365Y-119316302D01*
X124311960Y-119246437D01*
X124264923Y-119171061D01*
X124204686Y-119081960D01*
X124126680Y-118970921D01*
X124111648Y-118949729D01*
X124029923Y-118835444D01*
X123965672Y-118748277D01*
X123914356Y-118683061D01*
X123871435Y-118634630D01*
X123832367Y-118597817D01*
X123792614Y-118567453D01*
X123753260Y-118541842D01*
X123630355Y-118465685D01*
X123523517Y-118492996D01*
G36*
X122919855Y-120531016D02*
X122919182Y-120531363D01*
X122851075Y-120578784D01*
X122774842Y-120651138D01*
X122699507Y-120738248D01*
X122634099Y-120829936D01*
X122598010Y-120893493D01*
X122573148Y-120945818D01*
X122555747Y-120990694D01*
X122544254Y-121037177D01*
X122537112Y-121094325D01*
X122532769Y-121171193D01*
X122529668Y-121276839D01*
X122529254Y-121294031D01*
X122527383Y-121410431D01*
X122528950Y-121503221D01*
X122535254Y-121585800D01*
X122547595Y-121671566D01*
X122567270Y-121773917D01*
X122582928Y-121847903D01*
X122610129Y-121971147D01*
X122633236Y-122064118D01*
X122655638Y-122134899D01*
X122680722Y-122191571D01*
X122711876Y-122242216D01*
X122752488Y-122294915D01*
X122787872Y-122336788D01*
X122832290Y-122390542D01*
X122864321Y-122433241D01*
X122877351Y-122456035D01*
X122877385Y-122456504D01*
X122894997Y-122467816D01*
X122942126Y-122484962D01*
X123010209Y-122505005D01*
X123046093Y-122514362D01*
X123131909Y-122537184D01*
X123211492Y-122560598D01*
X123271019Y-122580473D01*
X123282941Y-122585145D01*
X123352318Y-122606099D01*
X123426502Y-122610032D01*
X123514116Y-122596105D01*
X123623779Y-122563480D01*
X123668692Y-122547588D01*
X123762950Y-122511955D01*
X123876192Y-122467225D01*
X123991660Y-122420091D01*
X124061385Y-122390731D01*
X124158175Y-122347922D01*
X124232111Y-122310262D01*
X124294954Y-122269966D01*
X124358469Y-122219252D01*
X124434418Y-122150333D01*
X124457608Y-122128515D01*
X124636985Y-121959077D01*
X124621865Y-121893291D01*
X124491245Y-121893291D01*
X124481521Y-121922474D01*
X124445806Y-121967544D01*
X124390671Y-122022788D01*
X124322690Y-122082492D01*
X124248432Y-122140941D01*
X124174472Y-122192423D01*
X124107380Y-122231222D01*
X124096659Y-122236364D01*
X123990572Y-122283394D01*
X123876705Y-122330675D01*
X123761670Y-122375807D01*
X123652081Y-122416386D01*
X123554549Y-122450011D01*
X123475686Y-122474279D01*
X123422105Y-122486788D01*
X123404923Y-122487663D01*
X123349284Y-122474422D01*
X123299636Y-122458183D01*
X123262813Y-122441637D01*
X123250485Y-122430845D01*
X123250790Y-122430517D01*
X123269493Y-122420070D01*
X123317933Y-122394041D01*
X123391249Y-122355015D01*
X123484578Y-122305574D01*
X123593060Y-122248300D01*
X123670652Y-122207435D01*
X123820349Y-122129787D01*
X123938308Y-122071167D01*
X124026426Y-122030713D01*
X124086602Y-122007563D01*
X124120734Y-122000858D01*
X124124684Y-122001435D01*
X124164513Y-121999407D01*
X124182111Y-121974537D01*
X124180594Y-121967042D01*
X124038808Y-121967042D01*
X124025646Y-121980724D01*
X123983201Y-122008841D01*
X123917147Y-122048359D01*
X123833153Y-122096244D01*
X123736894Y-122149461D01*
X123634039Y-122204975D01*
X123530262Y-122259752D01*
X123431234Y-122310757D01*
X123342627Y-122354955D01*
X123270113Y-122389313D01*
X123219364Y-122410794D01*
X123198431Y-122416664D01*
X123156436Y-122412132D01*
X123095242Y-122398844D01*
X123061584Y-122389594D01*
X122993324Y-122362434D01*
X122939061Y-122321019D01*
X122893293Y-122267774D01*
X122856227Y-122217853D01*
X122832292Y-122181989D01*
X122826781Y-122169245D01*
X122846444Y-122162598D01*
X122897568Y-122147537D01*
X122973891Y-122125847D01*
X123069151Y-122099313D01*
X123152718Y-122076360D01*
X123260590Y-122046411D01*
X123356448Y-122018866D01*
X123433410Y-121995776D01*
X123484595Y-121979192D01*
X123501836Y-121972312D01*
X123541335Y-121966664D01*
X123585290Y-121976533D01*
X123639548Y-121987120D01*
X123678612Y-121973287D01*
X123714453Y-121962251D01*
X123774108Y-121954517D01*
X123846407Y-121950277D01*
X123920182Y-121949725D01*
X123984262Y-121953055D01*
X124027477Y-121960461D01*
X124038808Y-121967042D01*
X124180594Y-121967042D01*
X124175024Y-121939539D01*
X124127846Y-121939539D01*
X124124176Y-121964249D01*
X124104841Y-121965524D01*
X124080598Y-121956987D01*
X124060987Y-121942457D01*
X123632431Y-121942457D01*
X123612179Y-121949147D01*
X123602700Y-121949308D01*
X123574492Y-121939539D01*
X123504653Y-121939539D01*
X123485215Y-121949445D01*
X123435382Y-121967463D01*
X123362457Y-121991418D01*
X123273744Y-122019135D01*
X123176546Y-122048438D01*
X123078166Y-122077153D01*
X122985909Y-122103104D01*
X122907077Y-122124117D01*
X122848973Y-122138016D01*
X122823235Y-122142477D01*
X122797449Y-122128332D01*
X122779730Y-122100731D01*
X122768076Y-122066020D01*
X122750944Y-122006705D01*
X122731173Y-121933705D01*
X122711604Y-121857938D01*
X122695077Y-121790321D01*
X122684432Y-121741771D01*
X122682000Y-121725026D01*
X122699942Y-121718996D01*
X122747787Y-121716474D01*
X122816562Y-121717002D01*
X122897295Y-121720122D01*
X122981012Y-121725375D01*
X123058743Y-121732303D01*
X123121515Y-121740448D01*
X123160354Y-121749350D01*
X123160692Y-121749481D01*
X123219622Y-121769463D01*
X123268154Y-121782123D01*
X123311529Y-121797785D01*
X123366249Y-121826626D01*
X123422464Y-121862091D01*
X123470322Y-121897621D01*
X123499975Y-121926662D01*
X123504653Y-121939539D01*
X123574492Y-121939539D01*
X123569011Y-121937641D01*
X123561231Y-121920000D01*
X123570510Y-121893981D01*
X123578377Y-121890692D01*
X123603840Y-121904060D01*
X123619846Y-121920000D01*
X123632431Y-121942457D01*
X124060987Y-121942457D01*
X124052193Y-121935942D01*
X124059131Y-121916576D01*
X124088769Y-121910231D01*
X124120593Y-121922448D01*
X124127846Y-121939539D01*
X124175024Y-121939539D01*
X124174687Y-121937879D01*
X124148478Y-121907188D01*
X124097647Y-121879688D01*
X124046464Y-121872487D01*
X124008139Y-121886178D01*
X123998143Y-121900462D01*
X123972870Y-121917710D01*
X123920462Y-121928211D01*
X123852257Y-121932062D01*
X123779593Y-121929363D01*
X123713807Y-121920213D01*
X123666236Y-121904710D01*
X123655625Y-121897477D01*
X123613796Y-121876133D01*
X123553976Y-121863058D01*
X123536856Y-121861740D01*
X123463881Y-121847330D01*
X123385375Y-121814365D01*
X123314155Y-121770046D01*
X123263035Y-121721571D01*
X123257033Y-121711828D01*
X123205285Y-121711828D01*
X123199514Y-121731240D01*
X123179215Y-121731366D01*
X123144949Y-121712627D01*
X123135638Y-121698326D01*
X123141409Y-121678914D01*
X123161708Y-121678788D01*
X123195974Y-121697527D01*
X123205285Y-121711828D01*
X123257033Y-121711828D01*
X123250177Y-121700702D01*
X123213497Y-121660806D01*
X123182079Y-121647886D01*
X123086441Y-121647886D01*
X123066117Y-121676021D01*
X123020086Y-121690111D01*
X122943078Y-121694909D01*
X122888230Y-121695308D01*
X122795389Y-121693697D01*
X122734273Y-121688158D01*
X122697638Y-121677628D01*
X122681140Y-121664964D01*
X122672003Y-121637829D01*
X122662781Y-121584009D01*
X122654212Y-121512891D01*
X122647033Y-121433862D01*
X122641980Y-121356312D01*
X122639790Y-121289626D01*
X122641201Y-121243194D01*
X122646709Y-121226385D01*
X122668166Y-121232239D01*
X122716862Y-121247731D01*
X122783094Y-121269757D01*
X122797044Y-121274487D01*
X122910823Y-121322966D01*
X122991509Y-121381978D01*
X123044728Y-121456779D01*
X123071045Y-121530479D01*
X123086327Y-121600956D01*
X123086441Y-121647886D01*
X123182079Y-121647886D01*
X123172461Y-121643931D01*
X123130669Y-121627749D01*
X123109269Y-121592590D01*
X123102714Y-121564835D01*
X123091063Y-121510730D01*
X123079963Y-121471011D01*
X123079302Y-121469228D01*
X123083985Y-121446214D01*
X123108603Y-121441308D01*
X123151717Y-121430660D01*
X123162226Y-121402874D01*
X123157697Y-121395380D01*
X123104893Y-121395380D01*
X123084641Y-121402070D01*
X123075162Y-121402231D01*
X123041473Y-121390564D01*
X123033692Y-121372923D01*
X123042971Y-121346904D01*
X123050838Y-121343616D01*
X123076302Y-121356983D01*
X123092308Y-121372923D01*
X123104893Y-121395380D01*
X123157697Y-121395380D01*
X123138843Y-121364183D01*
X123126861Y-121352941D01*
X123076999Y-121310051D01*
X123128615Y-121228162D01*
X123163368Y-121178623D01*
X123191816Y-121156707D01*
X123224767Y-121154911D01*
X123232257Y-121156192D01*
X123285250Y-121155236D01*
X123312170Y-121132808D01*
X123312072Y-121131946D01*
X123153425Y-121131946D01*
X123133017Y-121183863D01*
X123098693Y-121238281D01*
X123057799Y-121283143D01*
X123024818Y-121304231D01*
X122988553Y-121304658D01*
X122927204Y-121292919D01*
X122851651Y-121272136D01*
X122772771Y-121245431D01*
X122701443Y-121215927D01*
X122679525Y-121205126D01*
X122660896Y-121174848D01*
X122660621Y-121118990D01*
X122677139Y-121045591D01*
X122708888Y-120962692D01*
X122737540Y-120906478D01*
X122778999Y-120837218D01*
X122813125Y-120798173D01*
X122847949Y-120788615D01*
X122891503Y-120807813D01*
X122951816Y-120855037D01*
X122985137Y-120883983D01*
X123044867Y-120938869D01*
X123092556Y-120987270D01*
X123120756Y-121021435D01*
X123124923Y-121029419D01*
X123142286Y-121073588D01*
X123152569Y-121094587D01*
X123153425Y-121131946D01*
X123312072Y-121131946D01*
X123309404Y-121108541D01*
X123268154Y-121108541D01*
X123255911Y-121127283D01*
X123220165Y-121115939D01*
X123210104Y-121109917D01*
X123192020Y-121088463D01*
X123194608Y-121078495D01*
X123222462Y-121072875D01*
X123254409Y-121086589D01*
X123268154Y-121108541D01*
X123309404Y-121108541D01*
X123308017Y-121096383D01*
X123289000Y-121071384D01*
X123245298Y-121041458D01*
X123206909Y-121031000D01*
X123171592Y-121017335D01*
X123118939Y-120980341D01*
X123057436Y-120926017D01*
X123054707Y-120923370D01*
X122995575Y-120867307D01*
X122941499Y-120818691D01*
X122903042Y-120786978D01*
X122899603Y-120784494D01*
X122854993Y-120753248D01*
X122898903Y-120706508D01*
X122937513Y-120673954D01*
X122970217Y-120659789D01*
X122971061Y-120659769D01*
X122993100Y-120670436D01*
X123043610Y-120700820D01*
X123118866Y-120748498D01*
X123215138Y-120811045D01*
X123328701Y-120886038D01*
X123455827Y-120971052D01*
X123592790Y-121063665D01*
X123607540Y-121073697D01*
X123792453Y-121199442D01*
X123947824Y-121305092D01*
X124076279Y-121392742D01*
X124180442Y-121464484D01*
X124262938Y-121522411D01*
X124326393Y-121568618D01*
X124373432Y-121605198D01*
X124406679Y-121634243D01*
X124428759Y-121657848D01*
X124442299Y-121678106D01*
X124449922Y-121697109D01*
X124454255Y-121716953D01*
X124457921Y-121739729D01*
X124460536Y-121753923D01*
X124474229Y-121819558D01*
X124486093Y-121872681D01*
X124491245Y-121893291D01*
X124621865Y-121893291D01*
X124590991Y-121758973D01*
X124571293Y-121675884D01*
X124554126Y-121608258D01*
X124541656Y-121564346D01*
X124536691Y-121551941D01*
X124516003Y-121537197D01*
X124466878Y-121503333D01*
X124393286Y-121453036D01*
X124299199Y-121388988D01*
X124188589Y-121313873D01*
X124065428Y-121230377D01*
X123933687Y-121141181D01*
X123797337Y-121048972D01*
X123660351Y-120956432D01*
X123526700Y-120866245D01*
X123400355Y-120781096D01*
X123285288Y-120703669D01*
X123185471Y-120636647D01*
X123104875Y-120582715D01*
X123047472Y-120544557D01*
X123017234Y-120524856D01*
X123014049Y-120522944D01*
X122971779Y-120513236D01*
X122919855Y-120531016D01*
X122919855Y-120531016D01*
G37*
X122919855Y-120531016D02*
X122919182Y-120531363D01*
X122851075Y-120578784D01*
X122774842Y-120651138D01*
X122699507Y-120738248D01*
X122634099Y-120829936D01*
X122598010Y-120893493D01*
X122573148Y-120945818D01*
X122555747Y-120990694D01*
X122544254Y-121037177D01*
X122537112Y-121094325D01*
X122532769Y-121171193D01*
X122529668Y-121276839D01*
X122529254Y-121294031D01*
X122527383Y-121410431D01*
X122528950Y-121503221D01*
X122535254Y-121585800D01*
X122547595Y-121671566D01*
X122567270Y-121773917D01*
X122582928Y-121847903D01*
X122610129Y-121971147D01*
X122633236Y-122064118D01*
X122655638Y-122134899D01*
X122680722Y-122191571D01*
X122711876Y-122242216D01*
X122752488Y-122294915D01*
X122787872Y-122336788D01*
X122832290Y-122390542D01*
X122864321Y-122433241D01*
X122877351Y-122456035D01*
X122877385Y-122456504D01*
X122894997Y-122467816D01*
X122942126Y-122484962D01*
X123010209Y-122505005D01*
X123046093Y-122514362D01*
X123131909Y-122537184D01*
X123211492Y-122560598D01*
X123271019Y-122580473D01*
X123282941Y-122585145D01*
X123352318Y-122606099D01*
X123426502Y-122610032D01*
X123514116Y-122596105D01*
X123623779Y-122563480D01*
X123668692Y-122547588D01*
X123762950Y-122511955D01*
X123876192Y-122467225D01*
X123991660Y-122420091D01*
X124061385Y-122390731D01*
X124158175Y-122347922D01*
X124232111Y-122310262D01*
X124294954Y-122269966D01*
X124358469Y-122219252D01*
X124434418Y-122150333D01*
X124457608Y-122128515D01*
X124636985Y-121959077D01*
X124621865Y-121893291D01*
X124491245Y-121893291D01*
X124481521Y-121922474D01*
X124445806Y-121967544D01*
X124390671Y-122022788D01*
X124322690Y-122082492D01*
X124248432Y-122140941D01*
X124174472Y-122192423D01*
X124107380Y-122231222D01*
X124096659Y-122236364D01*
X123990572Y-122283394D01*
X123876705Y-122330675D01*
X123761670Y-122375807D01*
X123652081Y-122416386D01*
X123554549Y-122450011D01*
X123475686Y-122474279D01*
X123422105Y-122486788D01*
X123404923Y-122487663D01*
X123349284Y-122474422D01*
X123299636Y-122458183D01*
X123262813Y-122441637D01*
X123250485Y-122430845D01*
X123250790Y-122430517D01*
X123269493Y-122420070D01*
X123317933Y-122394041D01*
X123391249Y-122355015D01*
X123484578Y-122305574D01*
X123593060Y-122248300D01*
X123670652Y-122207435D01*
X123820349Y-122129787D01*
X123938308Y-122071167D01*
X124026426Y-122030713D01*
X124086602Y-122007563D01*
X124120734Y-122000858D01*
X124124684Y-122001435D01*
X124164513Y-121999407D01*
X124182111Y-121974537D01*
X124180594Y-121967042D01*
X124038808Y-121967042D01*
X124025646Y-121980724D01*
X123983201Y-122008841D01*
X123917147Y-122048359D01*
X123833153Y-122096244D01*
X123736894Y-122149461D01*
X123634039Y-122204975D01*
X123530262Y-122259752D01*
X123431234Y-122310757D01*
X123342627Y-122354955D01*
X123270113Y-122389313D01*
X123219364Y-122410794D01*
X123198431Y-122416664D01*
X123156436Y-122412132D01*
X123095242Y-122398844D01*
X123061584Y-122389594D01*
X122993324Y-122362434D01*
X122939061Y-122321019D01*
X122893293Y-122267774D01*
X122856227Y-122217853D01*
X122832292Y-122181989D01*
X122826781Y-122169245D01*
X122846444Y-122162598D01*
X122897568Y-122147537D01*
X122973891Y-122125847D01*
X123069151Y-122099313D01*
X123152718Y-122076360D01*
X123260590Y-122046411D01*
X123356448Y-122018866D01*
X123433410Y-121995776D01*
X123484595Y-121979192D01*
X123501836Y-121972312D01*
X123541335Y-121966664D01*
X123585290Y-121976533D01*
X123639548Y-121987120D01*
X123678612Y-121973287D01*
X123714453Y-121962251D01*
X123774108Y-121954517D01*
X123846407Y-121950277D01*
X123920182Y-121949725D01*
X123984262Y-121953055D01*
X124027477Y-121960461D01*
X124038808Y-121967042D01*
X124180594Y-121967042D01*
X124175024Y-121939539D01*
X124127846Y-121939539D01*
X124124176Y-121964249D01*
X124104841Y-121965524D01*
X124080598Y-121956987D01*
X124060987Y-121942457D01*
X123632431Y-121942457D01*
X123612179Y-121949147D01*
X123602700Y-121949308D01*
X123574492Y-121939539D01*
X123504653Y-121939539D01*
X123485215Y-121949445D01*
X123435382Y-121967463D01*
X123362457Y-121991418D01*
X123273744Y-122019135D01*
X123176546Y-122048438D01*
X123078166Y-122077153D01*
X122985909Y-122103104D01*
X122907077Y-122124117D01*
X122848973Y-122138016D01*
X122823235Y-122142477D01*
X122797449Y-122128332D01*
X122779730Y-122100731D01*
X122768076Y-122066020D01*
X122750944Y-122006705D01*
X122731173Y-121933705D01*
X122711604Y-121857938D01*
X122695077Y-121790321D01*
X122684432Y-121741771D01*
X122682000Y-121725026D01*
X122699942Y-121718996D01*
X122747787Y-121716474D01*
X122816562Y-121717002D01*
X122897295Y-121720122D01*
X122981012Y-121725375D01*
X123058743Y-121732303D01*
X123121515Y-121740448D01*
X123160354Y-121749350D01*
X123160692Y-121749481D01*
X123219622Y-121769463D01*
X123268154Y-121782123D01*
X123311529Y-121797785D01*
X123366249Y-121826626D01*
X123422464Y-121862091D01*
X123470322Y-121897621D01*
X123499975Y-121926662D01*
X123504653Y-121939539D01*
X123574492Y-121939539D01*
X123569011Y-121937641D01*
X123561231Y-121920000D01*
X123570510Y-121893981D01*
X123578377Y-121890692D01*
X123603840Y-121904060D01*
X123619846Y-121920000D01*
X123632431Y-121942457D01*
X124060987Y-121942457D01*
X124052193Y-121935942D01*
X124059131Y-121916576D01*
X124088769Y-121910231D01*
X124120593Y-121922448D01*
X124127846Y-121939539D01*
X124175024Y-121939539D01*
X124174687Y-121937879D01*
X124148478Y-121907188D01*
X124097647Y-121879688D01*
X124046464Y-121872487D01*
X124008139Y-121886178D01*
X123998143Y-121900462D01*
X123972870Y-121917710D01*
X123920462Y-121928211D01*
X123852257Y-121932062D01*
X123779593Y-121929363D01*
X123713807Y-121920213D01*
X123666236Y-121904710D01*
X123655625Y-121897477D01*
X123613796Y-121876133D01*
X123553976Y-121863058D01*
X123536856Y-121861740D01*
X123463881Y-121847330D01*
X123385375Y-121814365D01*
X123314155Y-121770046D01*
X123263035Y-121721571D01*
X123257033Y-121711828D01*
X123205285Y-121711828D01*
X123199514Y-121731240D01*
X123179215Y-121731366D01*
X123144949Y-121712627D01*
X123135638Y-121698326D01*
X123141409Y-121678914D01*
X123161708Y-121678788D01*
X123195974Y-121697527D01*
X123205285Y-121711828D01*
X123257033Y-121711828D01*
X123250177Y-121700702D01*
X123213497Y-121660806D01*
X123182079Y-121647886D01*
X123086441Y-121647886D01*
X123066117Y-121676021D01*
X123020086Y-121690111D01*
X122943078Y-121694909D01*
X122888230Y-121695308D01*
X122795389Y-121693697D01*
X122734273Y-121688158D01*
X122697638Y-121677628D01*
X122681140Y-121664964D01*
X122672003Y-121637829D01*
X122662781Y-121584009D01*
X122654212Y-121512891D01*
X122647033Y-121433862D01*
X122641980Y-121356312D01*
X122639790Y-121289626D01*
X122641201Y-121243194D01*
X122646709Y-121226385D01*
X122668166Y-121232239D01*
X122716862Y-121247731D01*
X122783094Y-121269757D01*
X122797044Y-121274487D01*
X122910823Y-121322966D01*
X122991509Y-121381978D01*
X123044728Y-121456779D01*
X123071045Y-121530479D01*
X123086327Y-121600956D01*
X123086441Y-121647886D01*
X123182079Y-121647886D01*
X123172461Y-121643931D01*
X123130669Y-121627749D01*
X123109269Y-121592590D01*
X123102714Y-121564835D01*
X123091063Y-121510730D01*
X123079963Y-121471011D01*
X123079302Y-121469228D01*
X123083985Y-121446214D01*
X123108603Y-121441308D01*
X123151717Y-121430660D01*
X123162226Y-121402874D01*
X123157697Y-121395380D01*
X123104893Y-121395380D01*
X123084641Y-121402070D01*
X123075162Y-121402231D01*
X123041473Y-121390564D01*
X123033692Y-121372923D01*
X123042971Y-121346904D01*
X123050838Y-121343616D01*
X123076302Y-121356983D01*
X123092308Y-121372923D01*
X123104893Y-121395380D01*
X123157697Y-121395380D01*
X123138843Y-121364183D01*
X123126861Y-121352941D01*
X123076999Y-121310051D01*
X123128615Y-121228162D01*
X123163368Y-121178623D01*
X123191816Y-121156707D01*
X123224767Y-121154911D01*
X123232257Y-121156192D01*
X123285250Y-121155236D01*
X123312170Y-121132808D01*
X123312072Y-121131946D01*
X123153425Y-121131946D01*
X123133017Y-121183863D01*
X123098693Y-121238281D01*
X123057799Y-121283143D01*
X123024818Y-121304231D01*
X122988553Y-121304658D01*
X122927204Y-121292919D01*
X122851651Y-121272136D01*
X122772771Y-121245431D01*
X122701443Y-121215927D01*
X122679525Y-121205126D01*
X122660896Y-121174848D01*
X122660621Y-121118990D01*
X122677139Y-121045591D01*
X122708888Y-120962692D01*
X122737540Y-120906478D01*
X122778999Y-120837218D01*
X122813125Y-120798173D01*
X122847949Y-120788615D01*
X122891503Y-120807813D01*
X122951816Y-120855037D01*
X122985137Y-120883983D01*
X123044867Y-120938869D01*
X123092556Y-120987270D01*
X123120756Y-121021435D01*
X123124923Y-121029419D01*
X123142286Y-121073588D01*
X123152569Y-121094587D01*
X123153425Y-121131946D01*
X123312072Y-121131946D01*
X123309404Y-121108541D01*
X123268154Y-121108541D01*
X123255911Y-121127283D01*
X123220165Y-121115939D01*
X123210104Y-121109917D01*
X123192020Y-121088463D01*
X123194608Y-121078495D01*
X123222462Y-121072875D01*
X123254409Y-121086589D01*
X123268154Y-121108541D01*
X123309404Y-121108541D01*
X123308017Y-121096383D01*
X123289000Y-121071384D01*
X123245298Y-121041458D01*
X123206909Y-121031000D01*
X123171592Y-121017335D01*
X123118939Y-120980341D01*
X123057436Y-120926017D01*
X123054707Y-120923370D01*
X122995575Y-120867307D01*
X122941499Y-120818691D01*
X122903042Y-120786978D01*
X122899603Y-120784494D01*
X122854993Y-120753248D01*
X122898903Y-120706508D01*
X122937513Y-120673954D01*
X122970217Y-120659789D01*
X122971061Y-120659769D01*
X122993100Y-120670436D01*
X123043610Y-120700820D01*
X123118866Y-120748498D01*
X123215138Y-120811045D01*
X123328701Y-120886038D01*
X123455827Y-120971052D01*
X123592790Y-121063665D01*
X123607540Y-121073697D01*
X123792453Y-121199442D01*
X123947824Y-121305092D01*
X124076279Y-121392742D01*
X124180442Y-121464484D01*
X124262938Y-121522411D01*
X124326393Y-121568618D01*
X124373432Y-121605198D01*
X124406679Y-121634243D01*
X124428759Y-121657848D01*
X124442299Y-121678106D01*
X124449922Y-121697109D01*
X124454255Y-121716953D01*
X124457921Y-121739729D01*
X124460536Y-121753923D01*
X124474229Y-121819558D01*
X124486093Y-121872681D01*
X124491245Y-121893291D01*
X124621865Y-121893291D01*
X124590991Y-121758973D01*
X124571293Y-121675884D01*
X124554126Y-121608258D01*
X124541656Y-121564346D01*
X124536691Y-121551941D01*
X124516003Y-121537197D01*
X124466878Y-121503333D01*
X124393286Y-121453036D01*
X124299199Y-121388988D01*
X124188589Y-121313873D01*
X124065428Y-121230377D01*
X123933687Y-121141181D01*
X123797337Y-121048972D01*
X123660351Y-120956432D01*
X123526700Y-120866245D01*
X123400355Y-120781096D01*
X123285288Y-120703669D01*
X123185471Y-120636647D01*
X123104875Y-120582715D01*
X123047472Y-120544557D01*
X123017234Y-120524856D01*
X123014049Y-120522944D01*
X122971779Y-120513236D01*
X122919855Y-120531016D01*
D14*
X147318000Y-100595000D02*
X146968000Y-100595000D01*
X146968000Y-100595000D02*
X146968000Y-102095000D01*
X151968000Y-100595000D02*
X148768000Y-100595000D01*
X153768000Y-102095000D02*
X153768000Y-100595000D01*
X153768000Y-100595000D02*
X153368000Y-100595000D01*
D15*
X151129905Y-109942381D02*
X151129905Y-110751905D01*
X151082286Y-110847143D01*
X151034667Y-110894762D01*
X150939429Y-110942381D01*
X150748952Y-110942381D01*
X150653714Y-110894762D01*
X150606095Y-110847143D01*
X150558476Y-110751905D01*
X150558476Y-109942381D01*
X150129905Y-110037619D02*
X150082286Y-109990000D01*
X149987048Y-109942381D01*
X149748952Y-109942381D01*
X149653714Y-109990000D01*
X149606095Y-110037619D01*
X149558476Y-110132857D01*
X149558476Y-110228095D01*
X149606095Y-110370952D01*
X150177524Y-110942381D01*
X149558476Y-110942381D01*
%LPC*%
D16*
X156718000Y-75565000D03*
X159258000Y-75565000D03*
X161798000Y-75565000D03*
X164338000Y-75565000D03*
X166878000Y-75565000D03*
X169418000Y-75565000D03*
X171958000Y-75565000D03*
X174498000Y-75565000D03*
X129794000Y-75565000D03*
X132334000Y-75565000D03*
X134874000Y-75565000D03*
X137414000Y-75565000D03*
X139954000Y-75565000D03*
X142494000Y-75565000D03*
X145034000Y-75565000D03*
X147574000Y-75565000D03*
X150114000Y-75565000D03*
X152654000Y-75565000D03*
X161798000Y-123825000D03*
X164338000Y-123825000D03*
X166878000Y-123825000D03*
X169418000Y-123825000D03*
X171958000Y-123825000D03*
X174498000Y-123825000D03*
X138938000Y-123825000D03*
X141478000Y-123825000D03*
X144018000Y-123825000D03*
X146558000Y-123825000D03*
X149098000Y-123825000D03*
X151638000Y-123825000D03*
X154178000Y-123825000D03*
X156718000Y-123825000D03*
D17*
X114808000Y-75565000D03*
D18*
X117348000Y-75565000D03*
X119888000Y-75565000D03*
X122428000Y-75565000D03*
D17*
X126873000Y-83185000D03*
D18*
X126873000Y-85725000D03*
X126873000Y-88265000D03*
D17*
X163068000Y-80645000D03*
D18*
X163068000Y-83185000D03*
X163068000Y-85725000D03*
D17*
X165608000Y-80645000D03*
D18*
X165608000Y-83185000D03*
X165608000Y-85725000D03*
D17*
X168148000Y-80645000D03*
D18*
X168148000Y-83185000D03*
X168148000Y-85725000D03*
D19*
X165608000Y-103500000D03*
D20*
X165608000Y-108500000D03*
D19*
X165608000Y-113705000D03*
D20*
X165608000Y-118705000D03*
D21*
X148068000Y-98295000D03*
X152648000Y-98295000D03*
D22*
X150368000Y-105695000D03*
D23*
X137968000Y-115570000D03*
D24*
X139018000Y-115570000D03*
X136318000Y-115570000D03*
D23*
X137368000Y-115570000D03*
D25*
X137668000Y-115570000D03*
D23*
X137968000Y-109855000D03*
D24*
X139018000Y-109855000D03*
X136318000Y-109855000D03*
D23*
X137368000Y-109855000D03*
D25*
X137668000Y-109855000D03*
D23*
X137968000Y-111760000D03*
D24*
X139018000Y-111760000D03*
X136318000Y-111760000D03*
D23*
X137368000Y-111760000D03*
D25*
X137668000Y-111760000D03*
D23*
X137968000Y-113665000D03*
D24*
X139018000Y-113665000D03*
X136318000Y-113665000D03*
D23*
X137368000Y-113665000D03*
D25*
X137668000Y-113665000D03*
D26*
X121158000Y-109940000D03*
X119158000Y-109940000D03*
X123158000Y-109940000D03*
D27*
X130008000Y-100965000D03*
X130008000Y-98965000D03*
X130008000Y-102965000D03*
D28*
X127157988Y-94965012D03*
X115158012Y-106964988D03*
D29*
X132588000Y-123621800D03*
X132588000Y-120218200D03*
M02*
