G04 #@! TF.FileFunction,Legend,Bot*
%FSLAX46Y46*%
G04 Gerber Fmt 4.6, Leading zero omitted, Abs format (unit mm)*
G04 Created by KiCad (PCBNEW 4.0.7-e2-6376~58~ubuntu16.04.1) date Wed Sep  6 23:34:51 2017*
%MOMM*%
%LPD*%
G01*
G04 APERTURE LIST*
%ADD10C,0.100000*%
%ADD11C,0.200000*%
%ADD12C,0.250000*%
%ADD13C,0.010000*%
%ADD14C,0.120000*%
%ADD15C,0.150000*%
%ADD16R,1.700000X1.700000*%
%ADD17O,1.700000X1.700000*%
%ADD18O,1.727200X2.032000*%
%ADD19R,2.000000X3.500000*%
%ADD20R,7.000000X7.000000*%
%ADD21R,0.600000X0.152400*%
%ADD22R,1.500000X1.300000*%
%ADD23R,1.524000X1.524000*%
%ADD24C,1.600000*%
%ADD25C,2.400000*%
%ADD26R,2.400000X2.400000*%
%ADD27C,3.175000*%
%ADD28C,0.990600*%
%ADD29C,2.374900*%
G04 APERTURE END LIST*
D10*
D11*
X133786333Y-115022381D02*
X133214904Y-115022381D01*
X133500619Y-116022381D02*
X133500619Y-115022381D01*
X132500618Y-115974762D02*
X132595856Y-116022381D01*
X132786333Y-116022381D01*
X132881571Y-115974762D01*
X132929190Y-115879524D01*
X132929190Y-115498571D01*
X132881571Y-115403333D01*
X132786333Y-115355714D01*
X132595856Y-115355714D01*
X132500618Y-115403333D01*
X132452999Y-115498571D01*
X132452999Y-115593810D01*
X132929190Y-115689048D01*
X132024428Y-116022381D02*
X132024428Y-115355714D01*
X132024428Y-115450952D02*
X131976809Y-115403333D01*
X131881571Y-115355714D01*
X131738713Y-115355714D01*
X131643475Y-115403333D01*
X131595856Y-115498571D01*
X131595856Y-116022381D01*
X131595856Y-115498571D02*
X131548237Y-115403333D01*
X131452999Y-115355714D01*
X131310142Y-115355714D01*
X131214904Y-115403333D01*
X131167285Y-115498571D01*
X131167285Y-116022381D01*
X130691095Y-115355714D02*
X130691095Y-116355714D01*
X130691095Y-115403333D02*
X130595857Y-115355714D01*
X130405380Y-115355714D01*
X130310142Y-115403333D01*
X130262523Y-115450952D01*
X130214904Y-115546190D01*
X130214904Y-115831905D01*
X130262523Y-115927143D01*
X130310142Y-115974762D01*
X130405380Y-116022381D01*
X130595857Y-116022381D01*
X130691095Y-115974762D01*
X133072047Y-117927381D02*
X133548238Y-117927381D01*
X133548238Y-116927381D01*
X132738714Y-117927381D02*
X132738714Y-117260714D01*
X132738714Y-116927381D02*
X132786333Y-116975000D01*
X132738714Y-117022619D01*
X132691095Y-116975000D01*
X132738714Y-116927381D01*
X132738714Y-117022619D01*
X131833952Y-117260714D02*
X131833952Y-118070238D01*
X131881571Y-118165476D01*
X131929190Y-118213095D01*
X132024429Y-118260714D01*
X132167286Y-118260714D01*
X132262524Y-118213095D01*
X131833952Y-117879762D02*
X131929190Y-117927381D01*
X132119667Y-117927381D01*
X132214905Y-117879762D01*
X132262524Y-117832143D01*
X132310143Y-117736905D01*
X132310143Y-117451190D01*
X132262524Y-117355952D01*
X132214905Y-117308333D01*
X132119667Y-117260714D01*
X131929190Y-117260714D01*
X131833952Y-117308333D01*
X131357762Y-117927381D02*
X131357762Y-116927381D01*
X130929190Y-117927381D02*
X130929190Y-117403571D01*
X130976809Y-117308333D01*
X131072047Y-117260714D01*
X131214905Y-117260714D01*
X131310143Y-117308333D01*
X131357762Y-117355952D01*
X130595857Y-117260714D02*
X130214905Y-117260714D01*
X130453000Y-116927381D02*
X130453000Y-117784524D01*
X130405381Y-117879762D01*
X130310143Y-117927381D01*
X130214905Y-117927381D01*
X133223000Y-111736190D02*
X133223000Y-112212381D01*
X133556333Y-111212381D02*
X133223000Y-111736190D01*
X132889666Y-111212381D01*
X133556333Y-113117381D02*
X132889666Y-114117381D01*
X132889666Y-113117381D02*
X133556333Y-114117381D01*
X142192286Y-113831667D02*
X141716095Y-113831667D01*
X142287524Y-114117381D02*
X141954191Y-113117381D01*
X141620857Y-114117381D01*
X141097048Y-113117381D02*
X141001809Y-113117381D01*
X140906571Y-113165000D01*
X140858952Y-113212619D01*
X140811333Y-113307857D01*
X140763714Y-113498333D01*
X140763714Y-113736429D01*
X140811333Y-113926905D01*
X140858952Y-114022143D01*
X140906571Y-114069762D01*
X141001809Y-114117381D01*
X141097048Y-114117381D01*
X141192286Y-114069762D01*
X141239905Y-114022143D01*
X141287524Y-113926905D01*
X141335143Y-113736429D01*
X141335143Y-113498333D01*
X141287524Y-113307857D01*
X141239905Y-113212619D01*
X141192286Y-113165000D01*
X141097048Y-113117381D01*
X142192286Y-111926667D02*
X141716095Y-111926667D01*
X142287524Y-112212381D02*
X141954191Y-111212381D01*
X141620857Y-112212381D01*
X140763714Y-112212381D02*
X141335143Y-112212381D01*
X141049429Y-112212381D02*
X141049429Y-111212381D01*
X141144667Y-111355238D01*
X141239905Y-111450476D01*
X141335143Y-111498095D01*
X142192286Y-117641667D02*
X141716095Y-117641667D01*
X142287524Y-117927381D02*
X141954191Y-116927381D01*
X141620857Y-117927381D01*
X141335143Y-117022619D02*
X141287524Y-116975000D01*
X141192286Y-116927381D01*
X140954190Y-116927381D01*
X140858952Y-116975000D01*
X140811333Y-117022619D01*
X140763714Y-117117857D01*
X140763714Y-117213095D01*
X140811333Y-117355952D01*
X141382762Y-117927381D01*
X140763714Y-117927381D01*
X142192286Y-115736667D02*
X141716095Y-115736667D01*
X142287524Y-116022381D02*
X141954191Y-115022381D01*
X141620857Y-116022381D01*
X141382762Y-115022381D02*
X140763714Y-115022381D01*
X141097048Y-115403333D01*
X140954190Y-115403333D01*
X140858952Y-115450952D01*
X140811333Y-115498571D01*
X140763714Y-115593810D01*
X140763714Y-115831905D01*
X140811333Y-115927143D01*
X140858952Y-115974762D01*
X140954190Y-116022381D01*
X141239905Y-116022381D01*
X141335143Y-115974762D01*
X141382762Y-115927143D01*
D12*
X133206571Y-99147381D02*
X132968476Y-100147381D01*
X132777999Y-99433095D01*
X132587523Y-100147381D01*
X132349428Y-99147381D01*
X132063714Y-99480714D02*
X131825619Y-100147381D01*
X131587523Y-99480714D02*
X131825619Y-100147381D01*
X131920857Y-100385476D01*
X131968476Y-100433095D01*
X132063714Y-100480714D01*
X131063714Y-100147381D02*
X131158952Y-100099762D01*
X131206571Y-100052143D01*
X131254190Y-99956905D01*
X131254190Y-99671190D01*
X131206571Y-99575952D01*
X131158952Y-99528333D01*
X131063714Y-99480714D01*
X130920856Y-99480714D01*
X130825618Y-99528333D01*
X130777999Y-99575952D01*
X130730380Y-99671190D01*
X130730380Y-99956905D01*
X130777999Y-100052143D01*
X130825618Y-100099762D01*
X130920856Y-100147381D01*
X131063714Y-100147381D01*
X130158952Y-100147381D02*
X130254190Y-100099762D01*
X130301809Y-100004524D01*
X130301809Y-99147381D01*
X129349427Y-99480714D02*
X129349427Y-100147381D01*
X129777999Y-99480714D02*
X129777999Y-100004524D01*
X129730380Y-100099762D01*
X129635142Y-100147381D01*
X129492284Y-100147381D01*
X129397046Y-100099762D01*
X129349427Y-100052143D01*
X128873237Y-100147381D02*
X128873237Y-99480714D01*
X128873237Y-99575952D02*
X128825618Y-99528333D01*
X128730380Y-99480714D01*
X128587522Y-99480714D01*
X128492284Y-99528333D01*
X128444665Y-99623571D01*
X128444665Y-100147381D01*
X128444665Y-99623571D02*
X128397046Y-99528333D01*
X128301808Y-99480714D01*
X128158951Y-99480714D01*
X128063713Y-99528333D01*
X128016094Y-99623571D01*
X128016094Y-100147381D01*
X127539904Y-100052143D02*
X127492285Y-100099762D01*
X127539904Y-100147381D01*
X127587523Y-100099762D01*
X127539904Y-100052143D01*
X127539904Y-100147381D01*
X126635142Y-100099762D02*
X126730380Y-100147381D01*
X126920857Y-100147381D01*
X127016095Y-100099762D01*
X127063714Y-100052143D01*
X127111333Y-99956905D01*
X127111333Y-99671190D01*
X127063714Y-99575952D01*
X127016095Y-99528333D01*
X126920857Y-99480714D01*
X126730380Y-99480714D01*
X126635142Y-99528333D01*
X126063714Y-100147381D02*
X126158952Y-100099762D01*
X126206571Y-100052143D01*
X126254190Y-99956905D01*
X126254190Y-99671190D01*
X126206571Y-99575952D01*
X126158952Y-99528333D01*
X126063714Y-99480714D01*
X125920856Y-99480714D01*
X125825618Y-99528333D01*
X125777999Y-99575952D01*
X125730380Y-99671190D01*
X125730380Y-99956905D01*
X125777999Y-100052143D01*
X125825618Y-100099762D01*
X125920856Y-100147381D01*
X126063714Y-100147381D01*
X125301809Y-100147381D02*
X125301809Y-99480714D01*
X125301809Y-99575952D02*
X125254190Y-99528333D01*
X125158952Y-99480714D01*
X125016094Y-99480714D01*
X124920856Y-99528333D01*
X124873237Y-99623571D01*
X124873237Y-100147381D01*
X124873237Y-99623571D02*
X124825618Y-99528333D01*
X124730380Y-99480714D01*
X124587523Y-99480714D01*
X124492285Y-99528333D01*
X124444666Y-99623571D01*
X124444666Y-100147381D01*
D13*
G36*
X130258038Y-96996685D02*
X130155462Y-97010389D01*
X130097692Y-97016512D01*
X130008035Y-97022992D01*
X129893672Y-97029451D01*
X129761787Y-97035515D01*
X129619562Y-97040808D01*
X129514349Y-97043942D01*
X129010005Y-97057308D01*
X128898887Y-97168117D01*
X128831751Y-97234279D01*
X128750618Y-97313091D01*
X128670001Y-97390481D01*
X128646999Y-97412348D01*
X128506228Y-97545769D01*
X128492818Y-97864136D01*
X128488015Y-97982552D01*
X128485598Y-98069902D01*
X128486291Y-98134160D01*
X128490820Y-98183303D01*
X128499911Y-98225305D01*
X128514287Y-98268140D01*
X128534118Y-98318405D01*
X128557888Y-98377051D01*
X128578661Y-98417043D01*
X128603790Y-98441028D01*
X128640626Y-98451650D01*
X128696521Y-98451555D01*
X128778828Y-98443389D01*
X128856154Y-98434280D01*
X128940012Y-98422378D01*
X129023320Y-98407271D01*
X129071077Y-98396455D01*
X129144741Y-98377272D01*
X129217697Y-98358319D01*
X129232898Y-98354378D01*
X129292660Y-98327217D01*
X129368953Y-98274533D01*
X129437650Y-98216647D01*
X129442934Y-98212158D01*
X129239757Y-98212158D01*
X129238989Y-98214755D01*
X129211376Y-98227385D01*
X129154785Y-98244064D01*
X129078835Y-98262728D01*
X128993145Y-98281316D01*
X128907334Y-98297764D01*
X128831020Y-98310009D01*
X128773822Y-98315989D01*
X128765717Y-98316250D01*
X128705819Y-98315229D01*
X128672166Y-98305988D01*
X128651977Y-98282242D01*
X128639182Y-98254039D01*
X128614540Y-98174062D01*
X128614544Y-98102445D01*
X128641379Y-98029445D01*
X128697227Y-97945317D01*
X128712825Y-97925351D01*
X128767420Y-97860067D01*
X128808399Y-97820885D01*
X128843822Y-97801391D01*
X128875975Y-97795483D01*
X128938430Y-97798455D01*
X128982362Y-97814046D01*
X129000259Y-97838167D01*
X128992503Y-97858891D01*
X128978988Y-97893700D01*
X129000203Y-97917766D01*
X129052336Y-97926769D01*
X129052446Y-97926769D01*
X129083105Y-97930276D01*
X129107991Y-97945595D01*
X129133696Y-97979926D01*
X129166817Y-98040470D01*
X129179547Y-98065541D01*
X129210969Y-98131569D01*
X129232233Y-98183440D01*
X129239757Y-98212158D01*
X129442934Y-98212158D01*
X129518538Y-98147937D01*
X129614605Y-98073049D01*
X129707625Y-98006077D01*
X129725214Y-97994240D01*
X129829029Y-97918363D01*
X129939895Y-97822846D01*
X130014292Y-97750267D01*
X129818176Y-97750267D01*
X129804420Y-97769715D01*
X129801150Y-97773356D01*
X129771942Y-97799443D01*
X129718759Y-97841466D01*
X129649762Y-97893130D01*
X129589343Y-97936693D01*
X129510294Y-97994431D01*
X129437534Y-98050613D01*
X129380585Y-98097723D01*
X129354539Y-98121993D01*
X129314493Y-98158818D01*
X129282986Y-98179282D01*
X129276769Y-98180769D01*
X129258193Y-98164480D01*
X129229386Y-98121590D01*
X129196303Y-98061063D01*
X129193468Y-98055360D01*
X129161854Y-97988217D01*
X129147337Y-97946539D01*
X129147969Y-97921668D01*
X129159967Y-97906429D01*
X129184244Y-97873346D01*
X129184871Y-97870712D01*
X129127366Y-97870712D01*
X129112562Y-97886550D01*
X129109606Y-97888444D01*
X129070165Y-97905830D01*
X129046007Y-97894031D01*
X129042604Y-97889042D01*
X129043454Y-97865783D01*
X129069579Y-97853314D01*
X129105657Y-97857704D01*
X129127366Y-97870712D01*
X129184871Y-97870712D01*
X129188308Y-97856274D01*
X129205214Y-97832403D01*
X129249056Y-97801742D01*
X129309521Y-97769308D01*
X129376297Y-97740121D01*
X129439069Y-97719198D01*
X129485712Y-97711547D01*
X129538464Y-97706492D01*
X129575809Y-97694743D01*
X129575974Y-97694639D01*
X129609838Y-97689867D01*
X129669573Y-97696728D01*
X129718322Y-97707287D01*
X129781342Y-97724012D01*
X129812555Y-97736686D01*
X129818176Y-97750267D01*
X130014292Y-97750267D01*
X130061876Y-97703846D01*
X130199035Y-97557518D01*
X130266961Y-97481536D01*
X130348759Y-97376028D01*
X130374577Y-97327858D01*
X130215796Y-97327858D01*
X130213990Y-97341723D01*
X130210624Y-97348173D01*
X130184994Y-97382760D01*
X130139924Y-97433300D01*
X130082068Y-97493363D01*
X130018078Y-97556519D01*
X129954609Y-97616337D01*
X129898314Y-97666388D01*
X129855847Y-97700240D01*
X129834635Y-97711550D01*
X129797132Y-97705909D01*
X129741553Y-97692215D01*
X129724072Y-97687127D01*
X129665993Y-97664473D01*
X129646644Y-97653231D01*
X129559538Y-97653231D01*
X129542818Y-97667918D01*
X129510692Y-97672769D01*
X129473974Y-97666081D01*
X129461846Y-97653231D01*
X129478567Y-97638543D01*
X129510692Y-97633692D01*
X129547411Y-97640381D01*
X129559538Y-97653231D01*
X129646644Y-97653231D01*
X129620699Y-97638158D01*
X129613172Y-97631650D01*
X129599965Y-97613755D01*
X129601325Y-97593833D01*
X129621266Y-97564794D01*
X129663805Y-97519554D01*
X129693436Y-97489996D01*
X129767886Y-97422756D01*
X129824071Y-97386954D01*
X129854159Y-97379692D01*
X129899282Y-97372694D01*
X129922403Y-97360705D01*
X129950078Y-97349730D01*
X130005375Y-97338458D01*
X130076921Y-97329150D01*
X130085299Y-97328342D01*
X130141895Y-97323635D01*
X129889366Y-97323635D01*
X129874562Y-97339473D01*
X129871606Y-97341367D01*
X129830820Y-97358000D01*
X129801049Y-97355003D01*
X129794000Y-97341769D01*
X129809870Y-97314176D01*
X129847016Y-97305868D01*
X129867657Y-97310628D01*
X129889366Y-97323635D01*
X130141895Y-97323635D01*
X130158380Y-97322264D01*
X130199570Y-97321737D01*
X130215796Y-97327858D01*
X130374577Y-97327858D01*
X130407284Y-97266838D01*
X130428108Y-97214321D01*
X130455293Y-97131124D01*
X130313945Y-97131124D01*
X130313508Y-97154291D01*
X130298251Y-97198275D01*
X130289488Y-97217385D01*
X130269309Y-97255679D01*
X130248299Y-97278780D01*
X130216028Y-97291757D01*
X130162068Y-97299677D01*
X130110107Y-97304542D01*
X130012778Y-97309200D01*
X129946681Y-97302372D01*
X129919138Y-97292452D01*
X129855603Y-97277079D01*
X129808184Y-97280636D01*
X129763609Y-97295799D01*
X129746744Y-97323335D01*
X129745154Y-97345594D01*
X129731277Y-97386941D01*
X129695523Y-97441031D01*
X129646706Y-97498326D01*
X129593642Y-97549287D01*
X129545144Y-97584376D01*
X129515027Y-97594616D01*
X129465598Y-97603877D01*
X129426096Y-97626312D01*
X129408886Y-97653896D01*
X129410168Y-97662666D01*
X129399834Y-97685464D01*
X129361653Y-97716097D01*
X129304795Y-97749878D01*
X129238430Y-97782124D01*
X129171729Y-97808150D01*
X129113861Y-97823270D01*
X129091871Y-97825278D01*
X129038182Y-97820005D01*
X129000118Y-97806997D01*
X128997808Y-97805301D01*
X128977100Y-97770112D01*
X128973385Y-97746702D01*
X128973242Y-97746390D01*
X128906678Y-97746390D01*
X128904166Y-97752273D01*
X128875317Y-97769114D01*
X128840132Y-97763942D01*
X128828112Y-97752971D01*
X128832788Y-97733877D01*
X128859245Y-97720305D01*
X128890239Y-97719748D01*
X128897313Y-97722902D01*
X128906678Y-97746390D01*
X128973242Y-97746390D01*
X128956563Y-97710183D01*
X128934308Y-97697969D01*
X128907855Y-97677333D01*
X128897205Y-97648388D01*
X128876622Y-97648388D01*
X128860246Y-97682312D01*
X128831731Y-97695834D01*
X128796442Y-97713231D01*
X128781399Y-97758048D01*
X128781239Y-97759412D01*
X128765275Y-97806511D01*
X128731275Y-97865985D01*
X128703085Y-97904301D01*
X128631462Y-97991855D01*
X128625659Y-97848794D01*
X128624073Y-97775176D01*
X128625334Y-97715439D01*
X128629162Y-97681642D01*
X128629592Y-97680365D01*
X128656202Y-97651396D01*
X128706097Y-97621107D01*
X128764345Y-97596325D01*
X128816012Y-97583879D01*
X128837727Y-97585199D01*
X128869404Y-97610679D01*
X128876622Y-97648388D01*
X128897205Y-97648388D01*
X128895175Y-97642871D01*
X128898297Y-97610130D01*
X128919255Y-97594657D01*
X128920804Y-97594616D01*
X128955973Y-97583801D01*
X128983567Y-97567422D01*
X129008473Y-97542325D01*
X129006663Y-97536000D01*
X128944077Y-97536000D01*
X128916519Y-97552414D01*
X128894078Y-97555539D01*
X128862960Y-97547134D01*
X128856154Y-97536000D01*
X128872909Y-97521437D01*
X128906153Y-97516462D01*
X128939396Y-97522664D01*
X128944077Y-97536000D01*
X129006663Y-97536000D01*
X129001302Y-97517267D01*
X128994678Y-97508807D01*
X128949421Y-97481663D01*
X128890723Y-97480666D01*
X128833095Y-97504659D01*
X128811259Y-97523429D01*
X128768141Y-97561063D01*
X128716435Y-97594895D01*
X128667478Y-97618827D01*
X128632604Y-97626760D01*
X128624779Y-97623753D01*
X128633855Y-97606778D01*
X128667242Y-97568220D01*
X128720410Y-97512864D01*
X128788828Y-97445493D01*
X128836121Y-97400537D01*
X129060283Y-97190141D01*
X129441796Y-97177415D01*
X129581132Y-97171938D01*
X129726802Y-97164783D01*
X129866741Y-97156638D01*
X129988887Y-97148192D01*
X130062688Y-97141968D01*
X130155360Y-97134171D01*
X130233344Y-97129493D01*
X130288731Y-97128276D01*
X130313614Y-97130860D01*
X130313945Y-97131124D01*
X130455293Y-97131124D01*
X130456796Y-97126526D01*
X130467192Y-97062722D01*
X130455905Y-97020372D01*
X130419544Y-96996940D01*
X130354719Y-96989889D01*
X130258038Y-96996685D01*
X130258038Y-96996685D01*
G37*
X130258038Y-96996685D02*
X130155462Y-97010389D01*
X130097692Y-97016512D01*
X130008035Y-97022992D01*
X129893672Y-97029451D01*
X129761787Y-97035515D01*
X129619562Y-97040808D01*
X129514349Y-97043942D01*
X129010005Y-97057308D01*
X128898887Y-97168117D01*
X128831751Y-97234279D01*
X128750618Y-97313091D01*
X128670001Y-97390481D01*
X128646999Y-97412348D01*
X128506228Y-97545769D01*
X128492818Y-97864136D01*
X128488015Y-97982552D01*
X128485598Y-98069902D01*
X128486291Y-98134160D01*
X128490820Y-98183303D01*
X128499911Y-98225305D01*
X128514287Y-98268140D01*
X128534118Y-98318405D01*
X128557888Y-98377051D01*
X128578661Y-98417043D01*
X128603790Y-98441028D01*
X128640626Y-98451650D01*
X128696521Y-98451555D01*
X128778828Y-98443389D01*
X128856154Y-98434280D01*
X128940012Y-98422378D01*
X129023320Y-98407271D01*
X129071077Y-98396455D01*
X129144741Y-98377272D01*
X129217697Y-98358319D01*
X129232898Y-98354378D01*
X129292660Y-98327217D01*
X129368953Y-98274533D01*
X129437650Y-98216647D01*
X129442934Y-98212158D01*
X129239757Y-98212158D01*
X129238989Y-98214755D01*
X129211376Y-98227385D01*
X129154785Y-98244064D01*
X129078835Y-98262728D01*
X128993145Y-98281316D01*
X128907334Y-98297764D01*
X128831020Y-98310009D01*
X128773822Y-98315989D01*
X128765717Y-98316250D01*
X128705819Y-98315229D01*
X128672166Y-98305988D01*
X128651977Y-98282242D01*
X128639182Y-98254039D01*
X128614540Y-98174062D01*
X128614544Y-98102445D01*
X128641379Y-98029445D01*
X128697227Y-97945317D01*
X128712825Y-97925351D01*
X128767420Y-97860067D01*
X128808399Y-97820885D01*
X128843822Y-97801391D01*
X128875975Y-97795483D01*
X128938430Y-97798455D01*
X128982362Y-97814046D01*
X129000259Y-97838167D01*
X128992503Y-97858891D01*
X128978988Y-97893700D01*
X129000203Y-97917766D01*
X129052336Y-97926769D01*
X129052446Y-97926769D01*
X129083105Y-97930276D01*
X129107991Y-97945595D01*
X129133696Y-97979926D01*
X129166817Y-98040470D01*
X129179547Y-98065541D01*
X129210969Y-98131569D01*
X129232233Y-98183440D01*
X129239757Y-98212158D01*
X129442934Y-98212158D01*
X129518538Y-98147937D01*
X129614605Y-98073049D01*
X129707625Y-98006077D01*
X129725214Y-97994240D01*
X129829029Y-97918363D01*
X129939895Y-97822846D01*
X130014292Y-97750267D01*
X129818176Y-97750267D01*
X129804420Y-97769715D01*
X129801150Y-97773356D01*
X129771942Y-97799443D01*
X129718759Y-97841466D01*
X129649762Y-97893130D01*
X129589343Y-97936693D01*
X129510294Y-97994431D01*
X129437534Y-98050613D01*
X129380585Y-98097723D01*
X129354539Y-98121993D01*
X129314493Y-98158818D01*
X129282986Y-98179282D01*
X129276769Y-98180769D01*
X129258193Y-98164480D01*
X129229386Y-98121590D01*
X129196303Y-98061063D01*
X129193468Y-98055360D01*
X129161854Y-97988217D01*
X129147337Y-97946539D01*
X129147969Y-97921668D01*
X129159967Y-97906429D01*
X129184244Y-97873346D01*
X129184871Y-97870712D01*
X129127366Y-97870712D01*
X129112562Y-97886550D01*
X129109606Y-97888444D01*
X129070165Y-97905830D01*
X129046007Y-97894031D01*
X129042604Y-97889042D01*
X129043454Y-97865783D01*
X129069579Y-97853314D01*
X129105657Y-97857704D01*
X129127366Y-97870712D01*
X129184871Y-97870712D01*
X129188308Y-97856274D01*
X129205214Y-97832403D01*
X129249056Y-97801742D01*
X129309521Y-97769308D01*
X129376297Y-97740121D01*
X129439069Y-97719198D01*
X129485712Y-97711547D01*
X129538464Y-97706492D01*
X129575809Y-97694743D01*
X129575974Y-97694639D01*
X129609838Y-97689867D01*
X129669573Y-97696728D01*
X129718322Y-97707287D01*
X129781342Y-97724012D01*
X129812555Y-97736686D01*
X129818176Y-97750267D01*
X130014292Y-97750267D01*
X130061876Y-97703846D01*
X130199035Y-97557518D01*
X130266961Y-97481536D01*
X130348759Y-97376028D01*
X130374577Y-97327858D01*
X130215796Y-97327858D01*
X130213990Y-97341723D01*
X130210624Y-97348173D01*
X130184994Y-97382760D01*
X130139924Y-97433300D01*
X130082068Y-97493363D01*
X130018078Y-97556519D01*
X129954609Y-97616337D01*
X129898314Y-97666388D01*
X129855847Y-97700240D01*
X129834635Y-97711550D01*
X129797132Y-97705909D01*
X129741553Y-97692215D01*
X129724072Y-97687127D01*
X129665993Y-97664473D01*
X129646644Y-97653231D01*
X129559538Y-97653231D01*
X129542818Y-97667918D01*
X129510692Y-97672769D01*
X129473974Y-97666081D01*
X129461846Y-97653231D01*
X129478567Y-97638543D01*
X129510692Y-97633692D01*
X129547411Y-97640381D01*
X129559538Y-97653231D01*
X129646644Y-97653231D01*
X129620699Y-97638158D01*
X129613172Y-97631650D01*
X129599965Y-97613755D01*
X129601325Y-97593833D01*
X129621266Y-97564794D01*
X129663805Y-97519554D01*
X129693436Y-97489996D01*
X129767886Y-97422756D01*
X129824071Y-97386954D01*
X129854159Y-97379692D01*
X129899282Y-97372694D01*
X129922403Y-97360705D01*
X129950078Y-97349730D01*
X130005375Y-97338458D01*
X130076921Y-97329150D01*
X130085299Y-97328342D01*
X130141895Y-97323635D01*
X129889366Y-97323635D01*
X129874562Y-97339473D01*
X129871606Y-97341367D01*
X129830820Y-97358000D01*
X129801049Y-97355003D01*
X129794000Y-97341769D01*
X129809870Y-97314176D01*
X129847016Y-97305868D01*
X129867657Y-97310628D01*
X129889366Y-97323635D01*
X130141895Y-97323635D01*
X130158380Y-97322264D01*
X130199570Y-97321737D01*
X130215796Y-97327858D01*
X130374577Y-97327858D01*
X130407284Y-97266838D01*
X130428108Y-97214321D01*
X130455293Y-97131124D01*
X130313945Y-97131124D01*
X130313508Y-97154291D01*
X130298251Y-97198275D01*
X130289488Y-97217385D01*
X130269309Y-97255679D01*
X130248299Y-97278780D01*
X130216028Y-97291757D01*
X130162068Y-97299677D01*
X130110107Y-97304542D01*
X130012778Y-97309200D01*
X129946681Y-97302372D01*
X129919138Y-97292452D01*
X129855603Y-97277079D01*
X129808184Y-97280636D01*
X129763609Y-97295799D01*
X129746744Y-97323335D01*
X129745154Y-97345594D01*
X129731277Y-97386941D01*
X129695523Y-97441031D01*
X129646706Y-97498326D01*
X129593642Y-97549287D01*
X129545144Y-97584376D01*
X129515027Y-97594616D01*
X129465598Y-97603877D01*
X129426096Y-97626312D01*
X129408886Y-97653896D01*
X129410168Y-97662666D01*
X129399834Y-97685464D01*
X129361653Y-97716097D01*
X129304795Y-97749878D01*
X129238430Y-97782124D01*
X129171729Y-97808150D01*
X129113861Y-97823270D01*
X129091871Y-97825278D01*
X129038182Y-97820005D01*
X129000118Y-97806997D01*
X128997808Y-97805301D01*
X128977100Y-97770112D01*
X128973385Y-97746702D01*
X128973242Y-97746390D01*
X128906678Y-97746390D01*
X128904166Y-97752273D01*
X128875317Y-97769114D01*
X128840132Y-97763942D01*
X128828112Y-97752971D01*
X128832788Y-97733877D01*
X128859245Y-97720305D01*
X128890239Y-97719748D01*
X128897313Y-97722902D01*
X128906678Y-97746390D01*
X128973242Y-97746390D01*
X128956563Y-97710183D01*
X128934308Y-97697969D01*
X128907855Y-97677333D01*
X128897205Y-97648388D01*
X128876622Y-97648388D01*
X128860246Y-97682312D01*
X128831731Y-97695834D01*
X128796442Y-97713231D01*
X128781399Y-97758048D01*
X128781239Y-97759412D01*
X128765275Y-97806511D01*
X128731275Y-97865985D01*
X128703085Y-97904301D01*
X128631462Y-97991855D01*
X128625659Y-97848794D01*
X128624073Y-97775176D01*
X128625334Y-97715439D01*
X128629162Y-97681642D01*
X128629592Y-97680365D01*
X128656202Y-97651396D01*
X128706097Y-97621107D01*
X128764345Y-97596325D01*
X128816012Y-97583879D01*
X128837727Y-97585199D01*
X128869404Y-97610679D01*
X128876622Y-97648388D01*
X128897205Y-97648388D01*
X128895175Y-97642871D01*
X128898297Y-97610130D01*
X128919255Y-97594657D01*
X128920804Y-97594616D01*
X128955973Y-97583801D01*
X128983567Y-97567422D01*
X129008473Y-97542325D01*
X129006663Y-97536000D01*
X128944077Y-97536000D01*
X128916519Y-97552414D01*
X128894078Y-97555539D01*
X128862960Y-97547134D01*
X128856154Y-97536000D01*
X128872909Y-97521437D01*
X128906153Y-97516462D01*
X128939396Y-97522664D01*
X128944077Y-97536000D01*
X129006663Y-97536000D01*
X129001302Y-97517267D01*
X128994678Y-97508807D01*
X128949421Y-97481663D01*
X128890723Y-97480666D01*
X128833095Y-97504659D01*
X128811259Y-97523429D01*
X128768141Y-97561063D01*
X128716435Y-97594895D01*
X128667478Y-97618827D01*
X128632604Y-97626760D01*
X128624779Y-97623753D01*
X128633855Y-97606778D01*
X128667242Y-97568220D01*
X128720410Y-97512864D01*
X128788828Y-97445493D01*
X128836121Y-97400537D01*
X129060283Y-97190141D01*
X129441796Y-97177415D01*
X129581132Y-97171938D01*
X129726802Y-97164783D01*
X129866741Y-97156638D01*
X129988887Y-97148192D01*
X130062688Y-97141968D01*
X130155360Y-97134171D01*
X130233344Y-97129493D01*
X130288731Y-97128276D01*
X130313614Y-97130860D01*
X130313945Y-97131124D01*
X130455293Y-97131124D01*
X130456796Y-97126526D01*
X130467192Y-97062722D01*
X130455905Y-97020372D01*
X130419544Y-96996940D01*
X130354719Y-96989889D01*
X130258038Y-96996685D01*
G36*
X127333517Y-93727996D02*
X127271157Y-93746680D01*
X127229909Y-93770256D01*
X127195846Y-93809491D01*
X127165142Y-93858164D01*
X127138862Y-93904547D01*
X127120772Y-93946273D01*
X127108816Y-93992955D01*
X127100935Y-94054208D01*
X127095073Y-94139647D01*
X127091980Y-94200087D01*
X127083175Y-94335967D01*
X127069607Y-94457653D01*
X127049206Y-94575041D01*
X127019905Y-94698025D01*
X126979634Y-94836500D01*
X126926326Y-95000361D01*
X126922027Y-95013117D01*
X126871130Y-95175117D01*
X126838452Y-95308101D01*
X126823421Y-95417317D01*
X126825461Y-95508010D01*
X126843999Y-95585425D01*
X126856211Y-95614496D01*
X126881020Y-95657203D01*
X126916019Y-95697350D01*
X126966637Y-95739058D01*
X127038309Y-95786449D01*
X127136464Y-95843646D01*
X127215689Y-95887301D01*
X127324576Y-95947817D01*
X127430820Y-96009966D01*
X127540152Y-96077453D01*
X127658304Y-96153982D01*
X127791008Y-96243258D01*
X127943994Y-96348987D01*
X128104966Y-96462123D01*
X128232722Y-96551383D01*
X128334913Y-96620093D01*
X128416968Y-96671498D01*
X128484320Y-96708844D01*
X128542400Y-96735374D01*
X128591516Y-96752773D01*
X128657505Y-96772310D01*
X128706721Y-96785285D01*
X128729444Y-96789158D01*
X128729895Y-96788937D01*
X128728460Y-96768958D01*
X128721731Y-96716474D01*
X128710568Y-96637568D01*
X128706055Y-96607170D01*
X128581031Y-96607170D01*
X128575717Y-96611170D01*
X128558189Y-96588385D01*
X128542012Y-96561051D01*
X128510620Y-96503963D01*
X128466676Y-96422114D01*
X128412841Y-96320498D01*
X128351778Y-96204108D01*
X128287839Y-96081204D01*
X128222954Y-95954933D01*
X128163889Y-95838005D01*
X128113126Y-95735495D01*
X128073148Y-95652477D01*
X128046438Y-95594025D01*
X128035538Y-95565525D01*
X128022863Y-95540058D01*
X127972670Y-95540058D01*
X127966899Y-95559471D01*
X127946600Y-95559597D01*
X127912334Y-95540858D01*
X127903023Y-95526557D01*
X127908794Y-95507145D01*
X127929092Y-95507019D01*
X127963359Y-95525758D01*
X127972670Y-95540058D01*
X128022863Y-95540058D01*
X128012673Y-95519584D01*
X127986692Y-95496320D01*
X127955174Y-95476135D01*
X127934245Y-95451430D01*
X127918997Y-95412145D01*
X127904520Y-95348214D01*
X127898068Y-95314670D01*
X127886292Y-95239941D01*
X127885635Y-95193315D01*
X127896082Y-95165438D01*
X127897831Y-95163208D01*
X127908849Y-95136104D01*
X127901957Y-95124551D01*
X127857419Y-95124551D01*
X127849103Y-95131330D01*
X127826653Y-95132148D01*
X127787667Y-95125246D01*
X127772604Y-95114581D01*
X127769970Y-95091818D01*
X127791626Y-95085782D01*
X127825569Y-95098704D01*
X127832391Y-95103466D01*
X127857419Y-95124551D01*
X127901957Y-95124551D01*
X127890415Y-95105206D01*
X127882131Y-95096593D01*
X127864342Y-95067303D01*
X127383816Y-95067303D01*
X127363564Y-95073993D01*
X127354085Y-95074154D01*
X127320396Y-95062487D01*
X127312615Y-95044846D01*
X127321894Y-95018827D01*
X127329762Y-95015539D01*
X127355225Y-95028906D01*
X127371231Y-95044846D01*
X127383816Y-95067303D01*
X127864342Y-95067303D01*
X127857545Y-95056112D01*
X127836909Y-94994761D01*
X127822517Y-94925290D01*
X127816664Y-94860447D01*
X127821643Y-94812983D01*
X127828747Y-94799917D01*
X127834278Y-94776222D01*
X127832730Y-94774226D01*
X127774585Y-94774226D01*
X127754333Y-94780916D01*
X127744854Y-94781077D01*
X127711165Y-94769410D01*
X127703385Y-94751769D01*
X127712663Y-94725750D01*
X127720531Y-94722462D01*
X127745994Y-94735829D01*
X127762000Y-94751769D01*
X127774585Y-94774226D01*
X127832730Y-94774226D01*
X127808253Y-94742679D01*
X127796451Y-94732031D01*
X127763131Y-94690107D01*
X127724667Y-94622567D01*
X127686370Y-94541450D01*
X127653550Y-94458793D01*
X127631520Y-94386633D01*
X127625231Y-94343981D01*
X127607468Y-94289597D01*
X127542823Y-94289597D01*
X127537053Y-94309009D01*
X127516754Y-94309135D01*
X127482488Y-94290396D01*
X127473177Y-94276096D01*
X127478948Y-94256683D01*
X127499246Y-94256557D01*
X127533512Y-94275296D01*
X127542823Y-94289597D01*
X127607468Y-94289597D01*
X127607053Y-94288328D01*
X127556961Y-94245016D01*
X127492365Y-94222081D01*
X127444881Y-94218415D01*
X127421408Y-94234672D01*
X127418192Y-94241636D01*
X127419929Y-94285145D01*
X127457951Y-94323574D01*
X127527281Y-94353462D01*
X127564366Y-94366985D01*
X127591169Y-94386647D01*
X127614086Y-94420960D01*
X127639510Y-94478433D01*
X127659170Y-94528993D01*
X127717799Y-94682575D01*
X127652970Y-94694737D01*
X127600626Y-94696533D01*
X127595528Y-94695125D01*
X127465779Y-94695125D01*
X127453534Y-94702466D01*
X127435186Y-94702923D01*
X127396464Y-94695393D01*
X127381834Y-94684735D01*
X127379905Y-94661404D01*
X127401384Y-94652516D01*
X127432336Y-94661001D01*
X127445677Y-94671304D01*
X127465779Y-94695125D01*
X127595528Y-94695125D01*
X127540629Y-94679963D01*
X127479802Y-94652042D01*
X127415824Y-94622165D01*
X127376159Y-94611221D01*
X127352132Y-94617194D01*
X127347362Y-94621284D01*
X127335322Y-94653993D01*
X127352315Y-94688523D01*
X127389214Y-94718273D01*
X127436894Y-94736641D01*
X127486228Y-94737027D01*
X127500829Y-94732294D01*
X127556945Y-94720756D01*
X127612053Y-94728143D01*
X127649279Y-94751858D01*
X127651649Y-94755511D01*
X127680028Y-94782294D01*
X127727587Y-94809387D01*
X127734688Y-94812478D01*
X127780276Y-94837439D01*
X127798680Y-94869895D01*
X127801344Y-94903455D01*
X127804859Y-94961544D01*
X127812297Y-95006467D01*
X127814636Y-95028642D01*
X127803628Y-95043569D01*
X127773402Y-95052624D01*
X127718089Y-95057182D01*
X127631816Y-95058622D01*
X127589765Y-95058637D01*
X127497612Y-95054701D01*
X127438646Y-95042716D01*
X127413919Y-95028706D01*
X127363482Y-94996142D01*
X127312716Y-94982982D01*
X127273619Y-94990947D01*
X127260693Y-95006740D01*
X127263406Y-95045195D01*
X127293625Y-95079269D01*
X127339798Y-95103445D01*
X127390370Y-95112210D01*
X127433788Y-95100047D01*
X127441984Y-95093277D01*
X127472306Y-95084723D01*
X127528029Y-95084998D01*
X127596933Y-95092364D01*
X127666798Y-95105083D01*
X127725403Y-95121418D01*
X127759152Y-95138384D01*
X127800738Y-95166644D01*
X127822990Y-95177069D01*
X127847392Y-95205495D01*
X127869480Y-95272522D01*
X127879118Y-95317786D01*
X127891295Y-95387673D01*
X127894369Y-95429833D01*
X127887531Y-95454725D01*
X127869975Y-95472808D01*
X127866974Y-95475120D01*
X127829930Y-95494062D01*
X127808756Y-95495366D01*
X127780674Y-95490590D01*
X127723655Y-95484133D01*
X127647742Y-95477071D01*
X127607855Y-95473808D01*
X127502661Y-95462508D01*
X127490108Y-95459824D01*
X127347922Y-95459824D01*
X127331643Y-95464153D01*
X127313211Y-95461915D01*
X127274134Y-95447540D01*
X127258787Y-95430731D01*
X127263356Y-95410163D01*
X127288205Y-95408394D01*
X127320042Y-95424225D01*
X127333711Y-95437492D01*
X127347922Y-95459824D01*
X127490108Y-95459824D01*
X127430696Y-95447121D01*
X127386212Y-95426383D01*
X127383711Y-95424488D01*
X127330611Y-95392737D01*
X127286832Y-95376139D01*
X127240111Y-95376235D01*
X127218391Y-95399297D01*
X127225050Y-95435744D01*
X127254121Y-95468950D01*
X127291729Y-95491432D01*
X127338044Y-95498515D01*
X127399033Y-95494012D01*
X127475115Y-95489990D01*
X127565838Y-95492846D01*
X127661056Y-95501328D01*
X127750621Y-95514182D01*
X127824386Y-95530154D01*
X127872205Y-95547992D01*
X127879849Y-95553406D01*
X127925514Y-95582455D01*
X127966905Y-95598530D01*
X127984992Y-95606950D01*
X128005260Y-95625222D01*
X128030036Y-95657123D01*
X128061650Y-95706431D01*
X128102429Y-95776924D01*
X128154703Y-95872379D01*
X128220800Y-95996574D01*
X128270281Y-96090690D01*
X128335332Y-96215659D01*
X128393485Y-96329054D01*
X128442502Y-96426376D01*
X128480149Y-96503127D01*
X128504189Y-96554811D01*
X128512386Y-96576929D01*
X128512243Y-96577347D01*
X128493797Y-96570382D01*
X128450568Y-96544842D01*
X128389466Y-96505011D01*
X128333082Y-96466244D01*
X128145028Y-96335600D01*
X127960024Y-96209673D01*
X127783058Y-96091722D01*
X127619117Y-95985007D01*
X127473188Y-95892788D01*
X127350261Y-95818324D01*
X127281855Y-95779219D01*
X127192972Y-95727940D01*
X127111631Y-95676963D01*
X127046921Y-95632240D01*
X127008317Y-95600126D01*
X126971706Y-95548326D01*
X126952274Y-95484152D01*
X126950310Y-95403092D01*
X126966105Y-95300635D01*
X126999948Y-95172268D01*
X127044618Y-95035077D01*
X127098953Y-94871099D01*
X127139709Y-94729751D01*
X127169607Y-94598150D01*
X127191370Y-94463410D01*
X127207718Y-94312648D01*
X127214409Y-94231224D01*
X127223267Y-94123702D01*
X127231864Y-94047187D01*
X127241932Y-93993659D01*
X127255205Y-93955099D01*
X127273414Y-93923487D01*
X127284040Y-93908918D01*
X127328870Y-93864763D01*
X127378612Y-93845689D01*
X127434881Y-93853005D01*
X127499294Y-93888021D01*
X127573464Y-93952046D01*
X127659007Y-94046389D01*
X127757538Y-94172359D01*
X127870672Y-94331265D01*
X127950202Y-94448923D01*
X127999570Y-94532199D01*
X128056598Y-94645585D01*
X128122304Y-94791274D01*
X128197708Y-94971458D01*
X128227286Y-95044846D01*
X128406867Y-95494231D01*
X128485298Y-96002231D01*
X128506899Y-96141637D01*
X128527085Y-96270961D01*
X128544932Y-96384357D01*
X128559515Y-96475978D01*
X128569911Y-96539980D01*
X128574869Y-96568846D01*
X128581031Y-96607170D01*
X128706055Y-96607170D01*
X128695832Y-96538326D01*
X128678386Y-96424830D01*
X128678019Y-96422478D01*
X128660536Y-96307713D01*
X128645893Y-96206064D01*
X128634941Y-96123892D01*
X128628525Y-96067562D01*
X128627495Y-96043438D01*
X128627497Y-96043431D01*
X128639639Y-96049292D01*
X128666490Y-96082406D01*
X128703748Y-96135887D01*
X128747112Y-96202845D01*
X128792279Y-96276394D01*
X128834950Y-96349645D01*
X128870823Y-96415711D01*
X128895595Y-96467705D01*
X128900714Y-96480923D01*
X128922197Y-96551977D01*
X128938220Y-96622021D01*
X128941058Y-96639673D01*
X128944789Y-96686446D01*
X128934462Y-96706264D01*
X128903675Y-96710494D01*
X128901153Y-96710500D01*
X128852856Y-96722142D01*
X128826042Y-96760268D01*
X128817387Y-96829678D01*
X128817376Y-96831417D01*
X128813678Y-96866333D01*
X128799274Y-96899202D01*
X128768684Y-96937549D01*
X128716428Y-96988898D01*
X128675423Y-97026350D01*
X128547918Y-97143718D01*
X128442186Y-97247345D01*
X128348990Y-97347260D01*
X128259090Y-97453494D01*
X128163245Y-97576079D01*
X128136670Y-97611258D01*
X128067287Y-97704349D01*
X128018438Y-97772764D01*
X127986735Y-97822726D01*
X127968792Y-97860459D01*
X127961222Y-97892186D01*
X127960639Y-97924131D01*
X127961243Y-97933642D01*
X127968269Y-97986106D01*
X127983966Y-98010900D01*
X128015597Y-98019408D01*
X128016000Y-98019447D01*
X128068720Y-98014934D01*
X128100219Y-98003162D01*
X128123675Y-97979470D01*
X128162801Y-97929547D01*
X128212511Y-97860271D01*
X128267722Y-97778519D01*
X128278469Y-97762058D01*
X128344922Y-97662580D01*
X128400945Y-97587267D01*
X128455255Y-97526222D01*
X128516571Y-97469548D01*
X128585020Y-97414046D01*
X128692417Y-97325486D01*
X128793062Y-97233932D01*
X128881357Y-97145158D01*
X128951702Y-97064941D01*
X128998499Y-96999055D01*
X129010655Y-96974959D01*
X129029456Y-96934682D01*
X129045287Y-96926067D01*
X129067677Y-96943655D01*
X129082499Y-96954482D01*
X129105534Y-96962059D01*
X129142224Y-96966616D01*
X129198012Y-96968388D01*
X129278343Y-96967606D01*
X129388657Y-96964501D01*
X129480785Y-96961285D01*
X129629464Y-96955144D01*
X129793331Y-96947159D01*
X129957425Y-96938135D01*
X130106788Y-96928877D01*
X130186167Y-96923318D01*
X130334776Y-96910912D01*
X130453070Y-96895866D01*
X130549258Y-96874270D01*
X130631549Y-96842215D01*
X130708153Y-96795793D01*
X130787277Y-96731096D01*
X130877131Y-96644214D01*
X130966308Y-96551857D01*
X131034740Y-96480793D01*
X131125761Y-96387429D01*
X131234220Y-96276988D01*
X131354966Y-96154691D01*
X131482846Y-96025760D01*
X131612710Y-95895416D01*
X131700741Y-95807423D01*
X131844156Y-95663626D01*
X131961210Y-95544589D01*
X132053877Y-95448163D01*
X132124133Y-95372198D01*
X132173950Y-95314545D01*
X132193717Y-95288386D01*
X132030804Y-95288386D01*
X131552287Y-95773334D01*
X131429531Y-95897943D01*
X131306214Y-96023493D01*
X131187405Y-96144799D01*
X131078169Y-96256675D01*
X130983573Y-96353936D01*
X130908685Y-96431397D01*
X130878385Y-96462998D01*
X130778707Y-96565364D01*
X130695419Y-96643133D01*
X130620151Y-96700158D01*
X130544530Y-96740294D01*
X130460187Y-96767393D01*
X130358749Y-96785308D01*
X130231846Y-96797894D01*
X130135923Y-96804762D01*
X130013379Y-96812224D01*
X129886884Y-96818658D01*
X129762194Y-96823912D01*
X129645070Y-96827835D01*
X129541268Y-96830273D01*
X129456547Y-96831076D01*
X129396665Y-96830089D01*
X129367381Y-96827163D01*
X129365782Y-96825113D01*
X129395745Y-96807561D01*
X129455043Y-96780335D01*
X129536015Y-96746347D01*
X129631001Y-96708511D01*
X129732341Y-96669739D01*
X129832376Y-96632944D01*
X129923445Y-96601037D01*
X129997888Y-96576933D01*
X130048045Y-96563543D01*
X130057769Y-96561991D01*
X130134889Y-96556768D01*
X130232363Y-96553916D01*
X130339412Y-96553330D01*
X130445253Y-96554905D01*
X130539106Y-96558533D01*
X130610189Y-96564109D01*
X130634154Y-96567659D01*
X130695444Y-96570570D01*
X130740971Y-96556198D01*
X130763255Y-96529413D01*
X130760941Y-96520000D01*
X130712308Y-96520000D01*
X130695587Y-96534688D01*
X130663462Y-96539539D01*
X130626743Y-96532850D01*
X130614615Y-96520000D01*
X130621098Y-96514305D01*
X130118205Y-96514305D01*
X130115550Y-96521350D01*
X130091338Y-96537177D01*
X130061953Y-96536947D01*
X130048000Y-96521153D01*
X130063445Y-96493912D01*
X130095347Y-96486447D01*
X130106934Y-96490889D01*
X130118205Y-96514305D01*
X130621098Y-96514305D01*
X130631336Y-96505313D01*
X130663462Y-96500462D01*
X130700180Y-96507150D01*
X130712308Y-96520000D01*
X130760941Y-96520000D01*
X130754814Y-96495086D01*
X130751733Y-96491113D01*
X130720468Y-96469209D01*
X130672499Y-96468351D01*
X130654779Y-96471352D01*
X130594780Y-96479939D01*
X130517857Y-96486845D01*
X130432801Y-96491818D01*
X130348407Y-96494607D01*
X130273468Y-96494963D01*
X130216778Y-96492634D01*
X130187130Y-96487368D01*
X130184769Y-96484762D01*
X130200266Y-96465746D01*
X130241362Y-96432839D01*
X130299966Y-96391241D01*
X130367986Y-96346152D01*
X130437331Y-96302771D01*
X130499910Y-96266299D01*
X130547631Y-96241935D01*
X130572403Y-96234878D01*
X130573122Y-96235199D01*
X130601853Y-96236447D01*
X130651883Y-96225689D01*
X130676818Y-96217789D01*
X130763736Y-96193778D01*
X130825732Y-96190188D01*
X130858762Y-96207249D01*
X130858846Y-96207385D01*
X130886465Y-96221492D01*
X130935434Y-96226620D01*
X130988882Y-96221930D01*
X131013556Y-96215064D01*
X131039111Y-96190388D01*
X131041622Y-96165321D01*
X130985846Y-96165321D01*
X130969810Y-96188935D01*
X130935710Y-96201308D01*
X130920881Y-96200383D01*
X130906493Y-96182436D01*
X130665735Y-96182436D01*
X130663547Y-96187708D01*
X130638813Y-96203314D01*
X130604189Y-96206569D01*
X130578828Y-96197192D01*
X130575538Y-96188999D01*
X130589789Y-96162680D01*
X130596013Y-96157960D01*
X130626951Y-96152155D01*
X130655679Y-96162731D01*
X130665735Y-96182436D01*
X130906493Y-96182436D01*
X130905625Y-96181354D01*
X130905453Y-96177589D01*
X130920502Y-96160437D01*
X130951367Y-96152000D01*
X130978862Y-96155205D01*
X130985846Y-96165321D01*
X131041622Y-96165321D01*
X131042523Y-96156333D01*
X131024440Y-96130442D01*
X131010269Y-96126192D01*
X130943332Y-96126171D01*
X130886865Y-96136345D01*
X130859823Y-96150096D01*
X130827041Y-96163988D01*
X130780193Y-96167721D01*
X130738653Y-96161170D01*
X130723442Y-96150977D01*
X130732562Y-96131727D01*
X130766851Y-96097816D01*
X130818269Y-96055179D01*
X130878775Y-96009750D01*
X130940330Y-95967464D01*
X130994892Y-95934254D01*
X131034422Y-95916055D01*
X131044109Y-95914308D01*
X131093759Y-95903946D01*
X131121788Y-95890752D01*
X131156055Y-95878179D01*
X131188777Y-95894100D01*
X131198895Y-95902842D01*
X131243755Y-95923930D01*
X131300513Y-95927251D01*
X131353658Y-95914499D01*
X131387682Y-95887366D01*
X131390259Y-95881950D01*
X131389967Y-95875231D01*
X131337538Y-95875231D01*
X131320818Y-95889918D01*
X131288692Y-95894769D01*
X131251974Y-95888081D01*
X131239846Y-95875231D01*
X131256567Y-95860543D01*
X131288692Y-95855692D01*
X131325411Y-95862381D01*
X131337538Y-95875231D01*
X131389967Y-95875231D01*
X131388987Y-95852705D01*
X131083538Y-95852705D01*
X131067502Y-95876320D01*
X131033403Y-95888693D01*
X131018573Y-95887768D01*
X131003318Y-95868739D01*
X131003145Y-95864973D01*
X131018194Y-95847822D01*
X131049059Y-95839385D01*
X131076554Y-95842589D01*
X131083538Y-95852705D01*
X131388987Y-95852705D01*
X131388762Y-95847546D01*
X131356461Y-95827678D01*
X131299221Y-95823374D01*
X131222905Y-95835662D01*
X131186115Y-95846165D01*
X131150589Y-95850017D01*
X131142154Y-95838678D01*
X131159017Y-95817582D01*
X131203119Y-95788407D01*
X131264726Y-95755731D01*
X131334107Y-95724132D01*
X131401530Y-95698186D01*
X131457261Y-95682471D01*
X131479855Y-95679846D01*
X131537121Y-95671768D01*
X131582182Y-95652653D01*
X131607089Y-95627556D01*
X131605279Y-95621231D01*
X131552462Y-95621231D01*
X131535741Y-95635918D01*
X131503615Y-95640769D01*
X131466897Y-95634081D01*
X131454769Y-95621231D01*
X131471490Y-95606543D01*
X131503615Y-95601692D01*
X131540334Y-95608381D01*
X131552462Y-95621231D01*
X131605279Y-95621231D01*
X131599918Y-95602498D01*
X131593293Y-95594037D01*
X131554047Y-95570136D01*
X131501528Y-95564773D01*
X131448945Y-95575489D01*
X131409504Y-95599826D01*
X131396154Y-95630731D01*
X131379803Y-95653655D01*
X131337215Y-95686421D01*
X131278092Y-95723525D01*
X131212133Y-95759458D01*
X131149037Y-95788713D01*
X131098504Y-95805785D01*
X131083963Y-95807970D01*
X131010930Y-95812670D01*
X130967754Y-95819012D01*
X130945224Y-95829440D01*
X130934127Y-95846399D01*
X130933540Y-95847895D01*
X130935389Y-95882323D01*
X130946305Y-95894483D01*
X130946089Y-95912773D01*
X130919034Y-95944814D01*
X130872446Y-95985359D01*
X130813634Y-96029160D01*
X130749907Y-96070971D01*
X130688573Y-96105544D01*
X130636939Y-96127632D01*
X130614615Y-96132628D01*
X130555968Y-96148832D01*
X130527700Y-96181205D01*
X130500068Y-96215536D01*
X130446490Y-96261508D01*
X130375960Y-96313267D01*
X130297472Y-96364957D01*
X130220021Y-96410723D01*
X130152600Y-96444708D01*
X130104203Y-96461057D01*
X130096846Y-96461707D01*
X130030960Y-96470947D01*
X129994378Y-96499896D01*
X129986947Y-96516562D01*
X129966415Y-96534589D01*
X129917627Y-96562634D01*
X129848664Y-96596349D01*
X129793518Y-96620655D01*
X129660564Y-96676473D01*
X129560576Y-96717570D01*
X129490771Y-96745002D01*
X129448365Y-96759827D01*
X129430574Y-96763102D01*
X129432538Y-96757776D01*
X129460982Y-96735256D01*
X129518108Y-96694288D01*
X129599767Y-96637615D01*
X129643006Y-96608108D01*
X129396851Y-96608108D01*
X129379068Y-96632617D01*
X129326083Y-96674074D01*
X129270015Y-96711882D01*
X129198742Y-96760632D01*
X129139209Y-96805868D01*
X129099865Y-96840947D01*
X129089886Y-96853517D01*
X129068116Y-96886768D01*
X129059993Y-96884788D01*
X129068381Y-96849908D01*
X129072287Y-96839203D01*
X129081869Y-96788246D01*
X129072070Y-96767178D01*
X129065193Y-96738509D01*
X129093520Y-96705297D01*
X129153823Y-96670064D01*
X129239119Y-96636577D01*
X129326864Y-96610058D01*
X129379446Y-96600578D01*
X129396851Y-96608108D01*
X129643006Y-96608108D01*
X129701809Y-96567981D01*
X129820084Y-96488129D01*
X129950443Y-96400803D01*
X130088737Y-96308745D01*
X130230815Y-96214699D01*
X130372528Y-96121409D01*
X130509726Y-96031618D01*
X130638261Y-95948069D01*
X130753981Y-95873506D01*
X130852739Y-95810672D01*
X130930383Y-95762310D01*
X130982765Y-95731164D01*
X130996970Y-95723505D01*
X131096771Y-95674917D01*
X131213654Y-95620210D01*
X131340773Y-95562370D01*
X131471283Y-95504381D01*
X131598337Y-95449226D01*
X131715091Y-95399891D01*
X131814697Y-95359358D01*
X131890311Y-95330613D01*
X131923518Y-95319615D01*
X132030804Y-95288386D01*
X132193717Y-95288386D01*
X132205304Y-95273053D01*
X132220168Y-95245574D01*
X132221610Y-95240281D01*
X132222537Y-95189450D01*
X132197443Y-95161980D01*
X132141118Y-95152733D01*
X132132703Y-95152607D01*
X132064664Y-95157668D01*
X131982336Y-95174357D01*
X131882180Y-95203911D01*
X131760661Y-95247570D01*
X131614241Y-95306572D01*
X131439383Y-95382156D01*
X131304840Y-95442563D01*
X131168883Y-95504472D01*
X131055990Y-95556707D01*
X130960024Y-95602780D01*
X130874851Y-95646202D01*
X130794332Y-95690487D01*
X130712332Y-95739147D01*
X130622715Y-95795692D01*
X130519343Y-95863637D01*
X130396081Y-95946492D01*
X130246792Y-96047770D01*
X130243385Y-96050085D01*
X130106098Y-96143445D01*
X129973775Y-96233588D01*
X129851262Y-96317200D01*
X129743402Y-96390971D01*
X129655041Y-96451586D01*
X129591024Y-96495735D01*
X129564746Y-96514044D01*
X129509286Y-96550484D01*
X129470180Y-96571204D01*
X129454044Y-96572870D01*
X129454490Y-96569603D01*
X129460661Y-96551095D01*
X129455926Y-96542455D01*
X129432609Y-96543144D01*
X129383030Y-96552623D01*
X129340693Y-96561622D01*
X129248881Y-96586244D01*
X129160358Y-96618706D01*
X129084826Y-96654629D01*
X129031990Y-96689635D01*
X129015145Y-96708501D01*
X128997841Y-96733166D01*
X128992012Y-96734923D01*
X128988916Y-96711229D01*
X128983540Y-96662772D01*
X128980866Y-96637231D01*
X128961326Y-96525785D01*
X128923847Y-96416131D01*
X128864495Y-96298954D01*
X128785006Y-96173269D01*
X128735172Y-96097176D01*
X128694869Y-96030707D01*
X128668631Y-95981665D01*
X128660769Y-95959359D01*
X128672796Y-95917074D01*
X128702301Y-95862507D01*
X128739417Y-95811296D01*
X128774281Y-95779077D01*
X128774634Y-95778876D01*
X128795500Y-95757655D01*
X128785507Y-95738393D01*
X128759887Y-95735925D01*
X128724688Y-95760541D01*
X128686501Y-95803748D01*
X128651914Y-95857054D01*
X128627518Y-95911968D01*
X128619746Y-95952017D01*
X128616254Y-95959094D01*
X128607925Y-95932257D01*
X128595838Y-95876218D01*
X128581072Y-95795690D01*
X128573105Y-95748231D01*
X128552195Y-95621838D01*
X128535277Y-95526093D01*
X128520301Y-95453039D01*
X128505219Y-95394717D01*
X128487982Y-95343169D01*
X128466541Y-95290436D01*
X128439931Y-95230936D01*
X128412095Y-95166796D01*
X128374672Y-95076281D01*
X128331796Y-94969603D01*
X128287602Y-94856976D01*
X128269491Y-94809960D01*
X128229562Y-94707350D01*
X128194710Y-94623868D01*
X128160365Y-94551302D01*
X128121960Y-94481437D01*
X128074923Y-94406061D01*
X128014686Y-94316960D01*
X127936680Y-94205921D01*
X127921648Y-94184729D01*
X127839923Y-94070444D01*
X127775672Y-93983277D01*
X127724356Y-93918061D01*
X127681435Y-93869630D01*
X127642367Y-93832817D01*
X127602614Y-93802453D01*
X127563260Y-93776842D01*
X127440355Y-93700685D01*
X127333517Y-93727996D01*
X127333517Y-93727996D01*
G37*
X127333517Y-93727996D02*
X127271157Y-93746680D01*
X127229909Y-93770256D01*
X127195846Y-93809491D01*
X127165142Y-93858164D01*
X127138862Y-93904547D01*
X127120772Y-93946273D01*
X127108816Y-93992955D01*
X127100935Y-94054208D01*
X127095073Y-94139647D01*
X127091980Y-94200087D01*
X127083175Y-94335967D01*
X127069607Y-94457653D01*
X127049206Y-94575041D01*
X127019905Y-94698025D01*
X126979634Y-94836500D01*
X126926326Y-95000361D01*
X126922027Y-95013117D01*
X126871130Y-95175117D01*
X126838452Y-95308101D01*
X126823421Y-95417317D01*
X126825461Y-95508010D01*
X126843999Y-95585425D01*
X126856211Y-95614496D01*
X126881020Y-95657203D01*
X126916019Y-95697350D01*
X126966637Y-95739058D01*
X127038309Y-95786449D01*
X127136464Y-95843646D01*
X127215689Y-95887301D01*
X127324576Y-95947817D01*
X127430820Y-96009966D01*
X127540152Y-96077453D01*
X127658304Y-96153982D01*
X127791008Y-96243258D01*
X127943994Y-96348987D01*
X128104966Y-96462123D01*
X128232722Y-96551383D01*
X128334913Y-96620093D01*
X128416968Y-96671498D01*
X128484320Y-96708844D01*
X128542400Y-96735374D01*
X128591516Y-96752773D01*
X128657505Y-96772310D01*
X128706721Y-96785285D01*
X128729444Y-96789158D01*
X128729895Y-96788937D01*
X128728460Y-96768958D01*
X128721731Y-96716474D01*
X128710568Y-96637568D01*
X128706055Y-96607170D01*
X128581031Y-96607170D01*
X128575717Y-96611170D01*
X128558189Y-96588385D01*
X128542012Y-96561051D01*
X128510620Y-96503963D01*
X128466676Y-96422114D01*
X128412841Y-96320498D01*
X128351778Y-96204108D01*
X128287839Y-96081204D01*
X128222954Y-95954933D01*
X128163889Y-95838005D01*
X128113126Y-95735495D01*
X128073148Y-95652477D01*
X128046438Y-95594025D01*
X128035538Y-95565525D01*
X128022863Y-95540058D01*
X127972670Y-95540058D01*
X127966899Y-95559471D01*
X127946600Y-95559597D01*
X127912334Y-95540858D01*
X127903023Y-95526557D01*
X127908794Y-95507145D01*
X127929092Y-95507019D01*
X127963359Y-95525758D01*
X127972670Y-95540058D01*
X128022863Y-95540058D01*
X128012673Y-95519584D01*
X127986692Y-95496320D01*
X127955174Y-95476135D01*
X127934245Y-95451430D01*
X127918997Y-95412145D01*
X127904520Y-95348214D01*
X127898068Y-95314670D01*
X127886292Y-95239941D01*
X127885635Y-95193315D01*
X127896082Y-95165438D01*
X127897831Y-95163208D01*
X127908849Y-95136104D01*
X127901957Y-95124551D01*
X127857419Y-95124551D01*
X127849103Y-95131330D01*
X127826653Y-95132148D01*
X127787667Y-95125246D01*
X127772604Y-95114581D01*
X127769970Y-95091818D01*
X127791626Y-95085782D01*
X127825569Y-95098704D01*
X127832391Y-95103466D01*
X127857419Y-95124551D01*
X127901957Y-95124551D01*
X127890415Y-95105206D01*
X127882131Y-95096593D01*
X127864342Y-95067303D01*
X127383816Y-95067303D01*
X127363564Y-95073993D01*
X127354085Y-95074154D01*
X127320396Y-95062487D01*
X127312615Y-95044846D01*
X127321894Y-95018827D01*
X127329762Y-95015539D01*
X127355225Y-95028906D01*
X127371231Y-95044846D01*
X127383816Y-95067303D01*
X127864342Y-95067303D01*
X127857545Y-95056112D01*
X127836909Y-94994761D01*
X127822517Y-94925290D01*
X127816664Y-94860447D01*
X127821643Y-94812983D01*
X127828747Y-94799917D01*
X127834278Y-94776222D01*
X127832730Y-94774226D01*
X127774585Y-94774226D01*
X127754333Y-94780916D01*
X127744854Y-94781077D01*
X127711165Y-94769410D01*
X127703385Y-94751769D01*
X127712663Y-94725750D01*
X127720531Y-94722462D01*
X127745994Y-94735829D01*
X127762000Y-94751769D01*
X127774585Y-94774226D01*
X127832730Y-94774226D01*
X127808253Y-94742679D01*
X127796451Y-94732031D01*
X127763131Y-94690107D01*
X127724667Y-94622567D01*
X127686370Y-94541450D01*
X127653550Y-94458793D01*
X127631520Y-94386633D01*
X127625231Y-94343981D01*
X127607468Y-94289597D01*
X127542823Y-94289597D01*
X127537053Y-94309009D01*
X127516754Y-94309135D01*
X127482488Y-94290396D01*
X127473177Y-94276096D01*
X127478948Y-94256683D01*
X127499246Y-94256557D01*
X127533512Y-94275296D01*
X127542823Y-94289597D01*
X127607468Y-94289597D01*
X127607053Y-94288328D01*
X127556961Y-94245016D01*
X127492365Y-94222081D01*
X127444881Y-94218415D01*
X127421408Y-94234672D01*
X127418192Y-94241636D01*
X127419929Y-94285145D01*
X127457951Y-94323574D01*
X127527281Y-94353462D01*
X127564366Y-94366985D01*
X127591169Y-94386647D01*
X127614086Y-94420960D01*
X127639510Y-94478433D01*
X127659170Y-94528993D01*
X127717799Y-94682575D01*
X127652970Y-94694737D01*
X127600626Y-94696533D01*
X127595528Y-94695125D01*
X127465779Y-94695125D01*
X127453534Y-94702466D01*
X127435186Y-94702923D01*
X127396464Y-94695393D01*
X127381834Y-94684735D01*
X127379905Y-94661404D01*
X127401384Y-94652516D01*
X127432336Y-94661001D01*
X127445677Y-94671304D01*
X127465779Y-94695125D01*
X127595528Y-94695125D01*
X127540629Y-94679963D01*
X127479802Y-94652042D01*
X127415824Y-94622165D01*
X127376159Y-94611221D01*
X127352132Y-94617194D01*
X127347362Y-94621284D01*
X127335322Y-94653993D01*
X127352315Y-94688523D01*
X127389214Y-94718273D01*
X127436894Y-94736641D01*
X127486228Y-94737027D01*
X127500829Y-94732294D01*
X127556945Y-94720756D01*
X127612053Y-94728143D01*
X127649279Y-94751858D01*
X127651649Y-94755511D01*
X127680028Y-94782294D01*
X127727587Y-94809387D01*
X127734688Y-94812478D01*
X127780276Y-94837439D01*
X127798680Y-94869895D01*
X127801344Y-94903455D01*
X127804859Y-94961544D01*
X127812297Y-95006467D01*
X127814636Y-95028642D01*
X127803628Y-95043569D01*
X127773402Y-95052624D01*
X127718089Y-95057182D01*
X127631816Y-95058622D01*
X127589765Y-95058637D01*
X127497612Y-95054701D01*
X127438646Y-95042716D01*
X127413919Y-95028706D01*
X127363482Y-94996142D01*
X127312716Y-94982982D01*
X127273619Y-94990947D01*
X127260693Y-95006740D01*
X127263406Y-95045195D01*
X127293625Y-95079269D01*
X127339798Y-95103445D01*
X127390370Y-95112210D01*
X127433788Y-95100047D01*
X127441984Y-95093277D01*
X127472306Y-95084723D01*
X127528029Y-95084998D01*
X127596933Y-95092364D01*
X127666798Y-95105083D01*
X127725403Y-95121418D01*
X127759152Y-95138384D01*
X127800738Y-95166644D01*
X127822990Y-95177069D01*
X127847392Y-95205495D01*
X127869480Y-95272522D01*
X127879118Y-95317786D01*
X127891295Y-95387673D01*
X127894369Y-95429833D01*
X127887531Y-95454725D01*
X127869975Y-95472808D01*
X127866974Y-95475120D01*
X127829930Y-95494062D01*
X127808756Y-95495366D01*
X127780674Y-95490590D01*
X127723655Y-95484133D01*
X127647742Y-95477071D01*
X127607855Y-95473808D01*
X127502661Y-95462508D01*
X127490108Y-95459824D01*
X127347922Y-95459824D01*
X127331643Y-95464153D01*
X127313211Y-95461915D01*
X127274134Y-95447540D01*
X127258787Y-95430731D01*
X127263356Y-95410163D01*
X127288205Y-95408394D01*
X127320042Y-95424225D01*
X127333711Y-95437492D01*
X127347922Y-95459824D01*
X127490108Y-95459824D01*
X127430696Y-95447121D01*
X127386212Y-95426383D01*
X127383711Y-95424488D01*
X127330611Y-95392737D01*
X127286832Y-95376139D01*
X127240111Y-95376235D01*
X127218391Y-95399297D01*
X127225050Y-95435744D01*
X127254121Y-95468950D01*
X127291729Y-95491432D01*
X127338044Y-95498515D01*
X127399033Y-95494012D01*
X127475115Y-95489990D01*
X127565838Y-95492846D01*
X127661056Y-95501328D01*
X127750621Y-95514182D01*
X127824386Y-95530154D01*
X127872205Y-95547992D01*
X127879849Y-95553406D01*
X127925514Y-95582455D01*
X127966905Y-95598530D01*
X127984992Y-95606950D01*
X128005260Y-95625222D01*
X128030036Y-95657123D01*
X128061650Y-95706431D01*
X128102429Y-95776924D01*
X128154703Y-95872379D01*
X128220800Y-95996574D01*
X128270281Y-96090690D01*
X128335332Y-96215659D01*
X128393485Y-96329054D01*
X128442502Y-96426376D01*
X128480149Y-96503127D01*
X128504189Y-96554811D01*
X128512386Y-96576929D01*
X128512243Y-96577347D01*
X128493797Y-96570382D01*
X128450568Y-96544842D01*
X128389466Y-96505011D01*
X128333082Y-96466244D01*
X128145028Y-96335600D01*
X127960024Y-96209673D01*
X127783058Y-96091722D01*
X127619117Y-95985007D01*
X127473188Y-95892788D01*
X127350261Y-95818324D01*
X127281855Y-95779219D01*
X127192972Y-95727940D01*
X127111631Y-95676963D01*
X127046921Y-95632240D01*
X127008317Y-95600126D01*
X126971706Y-95548326D01*
X126952274Y-95484152D01*
X126950310Y-95403092D01*
X126966105Y-95300635D01*
X126999948Y-95172268D01*
X127044618Y-95035077D01*
X127098953Y-94871099D01*
X127139709Y-94729751D01*
X127169607Y-94598150D01*
X127191370Y-94463410D01*
X127207718Y-94312648D01*
X127214409Y-94231224D01*
X127223267Y-94123702D01*
X127231864Y-94047187D01*
X127241932Y-93993659D01*
X127255205Y-93955099D01*
X127273414Y-93923487D01*
X127284040Y-93908918D01*
X127328870Y-93864763D01*
X127378612Y-93845689D01*
X127434881Y-93853005D01*
X127499294Y-93888021D01*
X127573464Y-93952046D01*
X127659007Y-94046389D01*
X127757538Y-94172359D01*
X127870672Y-94331265D01*
X127950202Y-94448923D01*
X127999570Y-94532199D01*
X128056598Y-94645585D01*
X128122304Y-94791274D01*
X128197708Y-94971458D01*
X128227286Y-95044846D01*
X128406867Y-95494231D01*
X128485298Y-96002231D01*
X128506899Y-96141637D01*
X128527085Y-96270961D01*
X128544932Y-96384357D01*
X128559515Y-96475978D01*
X128569911Y-96539980D01*
X128574869Y-96568846D01*
X128581031Y-96607170D01*
X128706055Y-96607170D01*
X128695832Y-96538326D01*
X128678386Y-96424830D01*
X128678019Y-96422478D01*
X128660536Y-96307713D01*
X128645893Y-96206064D01*
X128634941Y-96123892D01*
X128628525Y-96067562D01*
X128627495Y-96043438D01*
X128627497Y-96043431D01*
X128639639Y-96049292D01*
X128666490Y-96082406D01*
X128703748Y-96135887D01*
X128747112Y-96202845D01*
X128792279Y-96276394D01*
X128834950Y-96349645D01*
X128870823Y-96415711D01*
X128895595Y-96467705D01*
X128900714Y-96480923D01*
X128922197Y-96551977D01*
X128938220Y-96622021D01*
X128941058Y-96639673D01*
X128944789Y-96686446D01*
X128934462Y-96706264D01*
X128903675Y-96710494D01*
X128901153Y-96710500D01*
X128852856Y-96722142D01*
X128826042Y-96760268D01*
X128817387Y-96829678D01*
X128817376Y-96831417D01*
X128813678Y-96866333D01*
X128799274Y-96899202D01*
X128768684Y-96937549D01*
X128716428Y-96988898D01*
X128675423Y-97026350D01*
X128547918Y-97143718D01*
X128442186Y-97247345D01*
X128348990Y-97347260D01*
X128259090Y-97453494D01*
X128163245Y-97576079D01*
X128136670Y-97611258D01*
X128067287Y-97704349D01*
X128018438Y-97772764D01*
X127986735Y-97822726D01*
X127968792Y-97860459D01*
X127961222Y-97892186D01*
X127960639Y-97924131D01*
X127961243Y-97933642D01*
X127968269Y-97986106D01*
X127983966Y-98010900D01*
X128015597Y-98019408D01*
X128016000Y-98019447D01*
X128068720Y-98014934D01*
X128100219Y-98003162D01*
X128123675Y-97979470D01*
X128162801Y-97929547D01*
X128212511Y-97860271D01*
X128267722Y-97778519D01*
X128278469Y-97762058D01*
X128344922Y-97662580D01*
X128400945Y-97587267D01*
X128455255Y-97526222D01*
X128516571Y-97469548D01*
X128585020Y-97414046D01*
X128692417Y-97325486D01*
X128793062Y-97233932D01*
X128881357Y-97145158D01*
X128951702Y-97064941D01*
X128998499Y-96999055D01*
X129010655Y-96974959D01*
X129029456Y-96934682D01*
X129045287Y-96926067D01*
X129067677Y-96943655D01*
X129082499Y-96954482D01*
X129105534Y-96962059D01*
X129142224Y-96966616D01*
X129198012Y-96968388D01*
X129278343Y-96967606D01*
X129388657Y-96964501D01*
X129480785Y-96961285D01*
X129629464Y-96955144D01*
X129793331Y-96947159D01*
X129957425Y-96938135D01*
X130106788Y-96928877D01*
X130186167Y-96923318D01*
X130334776Y-96910912D01*
X130453070Y-96895866D01*
X130549258Y-96874270D01*
X130631549Y-96842215D01*
X130708153Y-96795793D01*
X130787277Y-96731096D01*
X130877131Y-96644214D01*
X130966308Y-96551857D01*
X131034740Y-96480793D01*
X131125761Y-96387429D01*
X131234220Y-96276988D01*
X131354966Y-96154691D01*
X131482846Y-96025760D01*
X131612710Y-95895416D01*
X131700741Y-95807423D01*
X131844156Y-95663626D01*
X131961210Y-95544589D01*
X132053877Y-95448163D01*
X132124133Y-95372198D01*
X132173950Y-95314545D01*
X132193717Y-95288386D01*
X132030804Y-95288386D01*
X131552287Y-95773334D01*
X131429531Y-95897943D01*
X131306214Y-96023493D01*
X131187405Y-96144799D01*
X131078169Y-96256675D01*
X130983573Y-96353936D01*
X130908685Y-96431397D01*
X130878385Y-96462998D01*
X130778707Y-96565364D01*
X130695419Y-96643133D01*
X130620151Y-96700158D01*
X130544530Y-96740294D01*
X130460187Y-96767393D01*
X130358749Y-96785308D01*
X130231846Y-96797894D01*
X130135923Y-96804762D01*
X130013379Y-96812224D01*
X129886884Y-96818658D01*
X129762194Y-96823912D01*
X129645070Y-96827835D01*
X129541268Y-96830273D01*
X129456547Y-96831076D01*
X129396665Y-96830089D01*
X129367381Y-96827163D01*
X129365782Y-96825113D01*
X129395745Y-96807561D01*
X129455043Y-96780335D01*
X129536015Y-96746347D01*
X129631001Y-96708511D01*
X129732341Y-96669739D01*
X129832376Y-96632944D01*
X129923445Y-96601037D01*
X129997888Y-96576933D01*
X130048045Y-96563543D01*
X130057769Y-96561991D01*
X130134889Y-96556768D01*
X130232363Y-96553916D01*
X130339412Y-96553330D01*
X130445253Y-96554905D01*
X130539106Y-96558533D01*
X130610189Y-96564109D01*
X130634154Y-96567659D01*
X130695444Y-96570570D01*
X130740971Y-96556198D01*
X130763255Y-96529413D01*
X130760941Y-96520000D01*
X130712308Y-96520000D01*
X130695587Y-96534688D01*
X130663462Y-96539539D01*
X130626743Y-96532850D01*
X130614615Y-96520000D01*
X130621098Y-96514305D01*
X130118205Y-96514305D01*
X130115550Y-96521350D01*
X130091338Y-96537177D01*
X130061953Y-96536947D01*
X130048000Y-96521153D01*
X130063445Y-96493912D01*
X130095347Y-96486447D01*
X130106934Y-96490889D01*
X130118205Y-96514305D01*
X130621098Y-96514305D01*
X130631336Y-96505313D01*
X130663462Y-96500462D01*
X130700180Y-96507150D01*
X130712308Y-96520000D01*
X130760941Y-96520000D01*
X130754814Y-96495086D01*
X130751733Y-96491113D01*
X130720468Y-96469209D01*
X130672499Y-96468351D01*
X130654779Y-96471352D01*
X130594780Y-96479939D01*
X130517857Y-96486845D01*
X130432801Y-96491818D01*
X130348407Y-96494607D01*
X130273468Y-96494963D01*
X130216778Y-96492634D01*
X130187130Y-96487368D01*
X130184769Y-96484762D01*
X130200266Y-96465746D01*
X130241362Y-96432839D01*
X130299966Y-96391241D01*
X130367986Y-96346152D01*
X130437331Y-96302771D01*
X130499910Y-96266299D01*
X130547631Y-96241935D01*
X130572403Y-96234878D01*
X130573122Y-96235199D01*
X130601853Y-96236447D01*
X130651883Y-96225689D01*
X130676818Y-96217789D01*
X130763736Y-96193778D01*
X130825732Y-96190188D01*
X130858762Y-96207249D01*
X130858846Y-96207385D01*
X130886465Y-96221492D01*
X130935434Y-96226620D01*
X130988882Y-96221930D01*
X131013556Y-96215064D01*
X131039111Y-96190388D01*
X131041622Y-96165321D01*
X130985846Y-96165321D01*
X130969810Y-96188935D01*
X130935710Y-96201308D01*
X130920881Y-96200383D01*
X130906493Y-96182436D01*
X130665735Y-96182436D01*
X130663547Y-96187708D01*
X130638813Y-96203314D01*
X130604189Y-96206569D01*
X130578828Y-96197192D01*
X130575538Y-96188999D01*
X130589789Y-96162680D01*
X130596013Y-96157960D01*
X130626951Y-96152155D01*
X130655679Y-96162731D01*
X130665735Y-96182436D01*
X130906493Y-96182436D01*
X130905625Y-96181354D01*
X130905453Y-96177589D01*
X130920502Y-96160437D01*
X130951367Y-96152000D01*
X130978862Y-96155205D01*
X130985846Y-96165321D01*
X131041622Y-96165321D01*
X131042523Y-96156333D01*
X131024440Y-96130442D01*
X131010269Y-96126192D01*
X130943332Y-96126171D01*
X130886865Y-96136345D01*
X130859823Y-96150096D01*
X130827041Y-96163988D01*
X130780193Y-96167721D01*
X130738653Y-96161170D01*
X130723442Y-96150977D01*
X130732562Y-96131727D01*
X130766851Y-96097816D01*
X130818269Y-96055179D01*
X130878775Y-96009750D01*
X130940330Y-95967464D01*
X130994892Y-95934254D01*
X131034422Y-95916055D01*
X131044109Y-95914308D01*
X131093759Y-95903946D01*
X131121788Y-95890752D01*
X131156055Y-95878179D01*
X131188777Y-95894100D01*
X131198895Y-95902842D01*
X131243755Y-95923930D01*
X131300513Y-95927251D01*
X131353658Y-95914499D01*
X131387682Y-95887366D01*
X131390259Y-95881950D01*
X131389967Y-95875231D01*
X131337538Y-95875231D01*
X131320818Y-95889918D01*
X131288692Y-95894769D01*
X131251974Y-95888081D01*
X131239846Y-95875231D01*
X131256567Y-95860543D01*
X131288692Y-95855692D01*
X131325411Y-95862381D01*
X131337538Y-95875231D01*
X131389967Y-95875231D01*
X131388987Y-95852705D01*
X131083538Y-95852705D01*
X131067502Y-95876320D01*
X131033403Y-95888693D01*
X131018573Y-95887768D01*
X131003318Y-95868739D01*
X131003145Y-95864973D01*
X131018194Y-95847822D01*
X131049059Y-95839385D01*
X131076554Y-95842589D01*
X131083538Y-95852705D01*
X131388987Y-95852705D01*
X131388762Y-95847546D01*
X131356461Y-95827678D01*
X131299221Y-95823374D01*
X131222905Y-95835662D01*
X131186115Y-95846165D01*
X131150589Y-95850017D01*
X131142154Y-95838678D01*
X131159017Y-95817582D01*
X131203119Y-95788407D01*
X131264726Y-95755731D01*
X131334107Y-95724132D01*
X131401530Y-95698186D01*
X131457261Y-95682471D01*
X131479855Y-95679846D01*
X131537121Y-95671768D01*
X131582182Y-95652653D01*
X131607089Y-95627556D01*
X131605279Y-95621231D01*
X131552462Y-95621231D01*
X131535741Y-95635918D01*
X131503615Y-95640769D01*
X131466897Y-95634081D01*
X131454769Y-95621231D01*
X131471490Y-95606543D01*
X131503615Y-95601692D01*
X131540334Y-95608381D01*
X131552462Y-95621231D01*
X131605279Y-95621231D01*
X131599918Y-95602498D01*
X131593293Y-95594037D01*
X131554047Y-95570136D01*
X131501528Y-95564773D01*
X131448945Y-95575489D01*
X131409504Y-95599826D01*
X131396154Y-95630731D01*
X131379803Y-95653655D01*
X131337215Y-95686421D01*
X131278092Y-95723525D01*
X131212133Y-95759458D01*
X131149037Y-95788713D01*
X131098504Y-95805785D01*
X131083963Y-95807970D01*
X131010930Y-95812670D01*
X130967754Y-95819012D01*
X130945224Y-95829440D01*
X130934127Y-95846399D01*
X130933540Y-95847895D01*
X130935389Y-95882323D01*
X130946305Y-95894483D01*
X130946089Y-95912773D01*
X130919034Y-95944814D01*
X130872446Y-95985359D01*
X130813634Y-96029160D01*
X130749907Y-96070971D01*
X130688573Y-96105544D01*
X130636939Y-96127632D01*
X130614615Y-96132628D01*
X130555968Y-96148832D01*
X130527700Y-96181205D01*
X130500068Y-96215536D01*
X130446490Y-96261508D01*
X130375960Y-96313267D01*
X130297472Y-96364957D01*
X130220021Y-96410723D01*
X130152600Y-96444708D01*
X130104203Y-96461057D01*
X130096846Y-96461707D01*
X130030960Y-96470947D01*
X129994378Y-96499896D01*
X129986947Y-96516562D01*
X129966415Y-96534589D01*
X129917627Y-96562634D01*
X129848664Y-96596349D01*
X129793518Y-96620655D01*
X129660564Y-96676473D01*
X129560576Y-96717570D01*
X129490771Y-96745002D01*
X129448365Y-96759827D01*
X129430574Y-96763102D01*
X129432538Y-96757776D01*
X129460982Y-96735256D01*
X129518108Y-96694288D01*
X129599767Y-96637615D01*
X129643006Y-96608108D01*
X129396851Y-96608108D01*
X129379068Y-96632617D01*
X129326083Y-96674074D01*
X129270015Y-96711882D01*
X129198742Y-96760632D01*
X129139209Y-96805868D01*
X129099865Y-96840947D01*
X129089886Y-96853517D01*
X129068116Y-96886768D01*
X129059993Y-96884788D01*
X129068381Y-96849908D01*
X129072287Y-96839203D01*
X129081869Y-96788246D01*
X129072070Y-96767178D01*
X129065193Y-96738509D01*
X129093520Y-96705297D01*
X129153823Y-96670064D01*
X129239119Y-96636577D01*
X129326864Y-96610058D01*
X129379446Y-96600578D01*
X129396851Y-96608108D01*
X129643006Y-96608108D01*
X129701809Y-96567981D01*
X129820084Y-96488129D01*
X129950443Y-96400803D01*
X130088737Y-96308745D01*
X130230815Y-96214699D01*
X130372528Y-96121409D01*
X130509726Y-96031618D01*
X130638261Y-95948069D01*
X130753981Y-95873506D01*
X130852739Y-95810672D01*
X130930383Y-95762310D01*
X130982765Y-95731164D01*
X130996970Y-95723505D01*
X131096771Y-95674917D01*
X131213654Y-95620210D01*
X131340773Y-95562370D01*
X131471283Y-95504381D01*
X131598337Y-95449226D01*
X131715091Y-95399891D01*
X131814697Y-95359358D01*
X131890311Y-95330613D01*
X131923518Y-95319615D01*
X132030804Y-95288386D01*
X132193717Y-95288386D01*
X132205304Y-95273053D01*
X132220168Y-95245574D01*
X132221610Y-95240281D01*
X132222537Y-95189450D01*
X132197443Y-95161980D01*
X132141118Y-95152733D01*
X132132703Y-95152607D01*
X132064664Y-95157668D01*
X131982336Y-95174357D01*
X131882180Y-95203911D01*
X131760661Y-95247570D01*
X131614241Y-95306572D01*
X131439383Y-95382156D01*
X131304840Y-95442563D01*
X131168883Y-95504472D01*
X131055990Y-95556707D01*
X130960024Y-95602780D01*
X130874851Y-95646202D01*
X130794332Y-95690487D01*
X130712332Y-95739147D01*
X130622715Y-95795692D01*
X130519343Y-95863637D01*
X130396081Y-95946492D01*
X130246792Y-96047770D01*
X130243385Y-96050085D01*
X130106098Y-96143445D01*
X129973775Y-96233588D01*
X129851262Y-96317200D01*
X129743402Y-96390971D01*
X129655041Y-96451586D01*
X129591024Y-96495735D01*
X129564746Y-96514044D01*
X129509286Y-96550484D01*
X129470180Y-96571204D01*
X129454044Y-96572870D01*
X129454490Y-96569603D01*
X129460661Y-96551095D01*
X129455926Y-96542455D01*
X129432609Y-96543144D01*
X129383030Y-96552623D01*
X129340693Y-96561622D01*
X129248881Y-96586244D01*
X129160358Y-96618706D01*
X129084826Y-96654629D01*
X129031990Y-96689635D01*
X129015145Y-96708501D01*
X128997841Y-96733166D01*
X128992012Y-96734923D01*
X128988916Y-96711229D01*
X128983540Y-96662772D01*
X128980866Y-96637231D01*
X128961326Y-96525785D01*
X128923847Y-96416131D01*
X128864495Y-96298954D01*
X128785006Y-96173269D01*
X128735172Y-96097176D01*
X128694869Y-96030707D01*
X128668631Y-95981665D01*
X128660769Y-95959359D01*
X128672796Y-95917074D01*
X128702301Y-95862507D01*
X128739417Y-95811296D01*
X128774281Y-95779077D01*
X128774634Y-95778876D01*
X128795500Y-95757655D01*
X128785507Y-95738393D01*
X128759887Y-95735925D01*
X128724688Y-95760541D01*
X128686501Y-95803748D01*
X128651914Y-95857054D01*
X128627518Y-95911968D01*
X128619746Y-95952017D01*
X128616254Y-95959094D01*
X128607925Y-95932257D01*
X128595838Y-95876218D01*
X128581072Y-95795690D01*
X128573105Y-95748231D01*
X128552195Y-95621838D01*
X128535277Y-95526093D01*
X128520301Y-95453039D01*
X128505219Y-95394717D01*
X128487982Y-95343169D01*
X128466541Y-95290436D01*
X128439931Y-95230936D01*
X128412095Y-95166796D01*
X128374672Y-95076281D01*
X128331796Y-94969603D01*
X128287602Y-94856976D01*
X128269491Y-94809960D01*
X128229562Y-94707350D01*
X128194710Y-94623868D01*
X128160365Y-94551302D01*
X128121960Y-94481437D01*
X128074923Y-94406061D01*
X128014686Y-94316960D01*
X127936680Y-94205921D01*
X127921648Y-94184729D01*
X127839923Y-94070444D01*
X127775672Y-93983277D01*
X127724356Y-93918061D01*
X127681435Y-93869630D01*
X127642367Y-93832817D01*
X127602614Y-93802453D01*
X127563260Y-93776842D01*
X127440355Y-93700685D01*
X127333517Y-93727996D01*
G36*
X126729855Y-95766016D02*
X126729182Y-95766363D01*
X126661075Y-95813784D01*
X126584842Y-95886138D01*
X126509507Y-95973248D01*
X126444099Y-96064936D01*
X126408010Y-96128493D01*
X126383148Y-96180818D01*
X126365747Y-96225694D01*
X126354254Y-96272177D01*
X126347112Y-96329325D01*
X126342769Y-96406193D01*
X126339668Y-96511839D01*
X126339254Y-96529031D01*
X126337383Y-96645431D01*
X126338950Y-96738221D01*
X126345254Y-96820800D01*
X126357595Y-96906566D01*
X126377270Y-97008917D01*
X126392928Y-97082903D01*
X126420129Y-97206147D01*
X126443236Y-97299118D01*
X126465638Y-97369899D01*
X126490722Y-97426571D01*
X126521876Y-97477216D01*
X126562488Y-97529915D01*
X126597872Y-97571788D01*
X126642290Y-97625542D01*
X126674321Y-97668241D01*
X126687351Y-97691035D01*
X126687385Y-97691504D01*
X126704997Y-97702816D01*
X126752126Y-97719962D01*
X126820209Y-97740005D01*
X126856093Y-97749362D01*
X126941909Y-97772184D01*
X127021492Y-97795598D01*
X127081019Y-97815473D01*
X127092941Y-97820145D01*
X127162318Y-97841099D01*
X127236502Y-97845032D01*
X127324116Y-97831105D01*
X127433779Y-97798480D01*
X127478692Y-97782588D01*
X127572950Y-97746955D01*
X127686192Y-97702225D01*
X127801660Y-97655091D01*
X127871385Y-97625731D01*
X127968175Y-97582922D01*
X128042111Y-97545262D01*
X128104954Y-97504966D01*
X128168469Y-97454252D01*
X128244418Y-97385333D01*
X128267608Y-97363515D01*
X128446985Y-97194077D01*
X128431865Y-97128291D01*
X128301245Y-97128291D01*
X128291521Y-97157474D01*
X128255806Y-97202544D01*
X128200671Y-97257788D01*
X128132690Y-97317492D01*
X128058432Y-97375941D01*
X127984472Y-97427423D01*
X127917380Y-97466222D01*
X127906659Y-97471364D01*
X127800572Y-97518394D01*
X127686705Y-97565675D01*
X127571670Y-97610807D01*
X127462081Y-97651386D01*
X127364549Y-97685011D01*
X127285686Y-97709279D01*
X127232105Y-97721788D01*
X127214923Y-97722663D01*
X127159284Y-97709422D01*
X127109636Y-97693183D01*
X127072813Y-97676637D01*
X127060485Y-97665845D01*
X127060790Y-97665517D01*
X127079493Y-97655070D01*
X127127933Y-97629041D01*
X127201249Y-97590015D01*
X127294578Y-97540574D01*
X127403060Y-97483300D01*
X127480652Y-97442435D01*
X127630349Y-97364787D01*
X127748308Y-97306167D01*
X127836426Y-97265713D01*
X127896602Y-97242563D01*
X127930734Y-97235858D01*
X127934684Y-97236435D01*
X127974513Y-97234407D01*
X127992111Y-97209537D01*
X127990594Y-97202042D01*
X127848808Y-97202042D01*
X127835646Y-97215724D01*
X127793201Y-97243841D01*
X127727147Y-97283359D01*
X127643153Y-97331244D01*
X127546894Y-97384461D01*
X127444039Y-97439975D01*
X127340262Y-97494752D01*
X127241234Y-97545757D01*
X127152627Y-97589955D01*
X127080113Y-97624313D01*
X127029364Y-97645794D01*
X127008431Y-97651664D01*
X126966436Y-97647132D01*
X126905242Y-97633844D01*
X126871584Y-97624594D01*
X126803324Y-97597434D01*
X126749061Y-97556019D01*
X126703293Y-97502774D01*
X126666227Y-97452853D01*
X126642292Y-97416989D01*
X126636781Y-97404245D01*
X126656444Y-97397598D01*
X126707568Y-97382537D01*
X126783891Y-97360847D01*
X126879151Y-97334313D01*
X126962718Y-97311360D01*
X127070590Y-97281411D01*
X127166448Y-97253866D01*
X127243410Y-97230776D01*
X127294595Y-97214192D01*
X127311836Y-97207312D01*
X127351335Y-97201664D01*
X127395290Y-97211533D01*
X127449548Y-97222120D01*
X127488612Y-97208287D01*
X127524453Y-97197251D01*
X127584108Y-97189517D01*
X127656407Y-97185277D01*
X127730182Y-97184725D01*
X127794262Y-97188055D01*
X127837477Y-97195461D01*
X127848808Y-97202042D01*
X127990594Y-97202042D01*
X127985024Y-97174539D01*
X127937846Y-97174539D01*
X127934176Y-97199249D01*
X127914841Y-97200524D01*
X127890598Y-97191987D01*
X127870987Y-97177457D01*
X127442431Y-97177457D01*
X127422179Y-97184147D01*
X127412700Y-97184308D01*
X127384492Y-97174539D01*
X127314653Y-97174539D01*
X127295215Y-97184445D01*
X127245382Y-97202463D01*
X127172457Y-97226418D01*
X127083744Y-97254135D01*
X126986546Y-97283438D01*
X126888166Y-97312153D01*
X126795909Y-97338104D01*
X126717077Y-97359117D01*
X126658973Y-97373016D01*
X126633235Y-97377477D01*
X126607449Y-97363332D01*
X126589730Y-97335731D01*
X126578076Y-97301020D01*
X126560944Y-97241705D01*
X126541173Y-97168705D01*
X126521604Y-97092938D01*
X126505077Y-97025321D01*
X126494432Y-96976771D01*
X126492000Y-96960026D01*
X126509942Y-96953996D01*
X126557787Y-96951474D01*
X126626562Y-96952002D01*
X126707295Y-96955122D01*
X126791012Y-96960375D01*
X126868743Y-96967303D01*
X126931515Y-96975448D01*
X126970354Y-96984350D01*
X126970692Y-96984481D01*
X127029622Y-97004463D01*
X127078154Y-97017123D01*
X127121529Y-97032785D01*
X127176249Y-97061626D01*
X127232464Y-97097091D01*
X127280322Y-97132621D01*
X127309975Y-97161662D01*
X127314653Y-97174539D01*
X127384492Y-97174539D01*
X127379011Y-97172641D01*
X127371231Y-97155000D01*
X127380510Y-97128981D01*
X127388377Y-97125692D01*
X127413840Y-97139060D01*
X127429846Y-97155000D01*
X127442431Y-97177457D01*
X127870987Y-97177457D01*
X127862193Y-97170942D01*
X127869131Y-97151576D01*
X127898769Y-97145231D01*
X127930593Y-97157448D01*
X127937846Y-97174539D01*
X127985024Y-97174539D01*
X127984687Y-97172879D01*
X127958478Y-97142188D01*
X127907647Y-97114688D01*
X127856464Y-97107487D01*
X127818139Y-97121178D01*
X127808143Y-97135462D01*
X127782870Y-97152710D01*
X127730462Y-97163211D01*
X127662257Y-97167062D01*
X127589593Y-97164363D01*
X127523807Y-97155213D01*
X127476236Y-97139710D01*
X127465625Y-97132477D01*
X127423796Y-97111133D01*
X127363976Y-97098058D01*
X127346856Y-97096740D01*
X127273881Y-97082330D01*
X127195375Y-97049365D01*
X127124155Y-97005046D01*
X127073035Y-96956571D01*
X127067033Y-96946828D01*
X127015285Y-96946828D01*
X127009514Y-96966240D01*
X126989215Y-96966366D01*
X126954949Y-96947627D01*
X126945638Y-96933326D01*
X126951409Y-96913914D01*
X126971708Y-96913788D01*
X127005974Y-96932527D01*
X127015285Y-96946828D01*
X127067033Y-96946828D01*
X127060177Y-96935702D01*
X127023497Y-96895806D01*
X126992079Y-96882886D01*
X126896441Y-96882886D01*
X126876117Y-96911021D01*
X126830086Y-96925111D01*
X126753078Y-96929909D01*
X126698230Y-96930308D01*
X126605389Y-96928697D01*
X126544273Y-96923158D01*
X126507638Y-96912628D01*
X126491140Y-96899964D01*
X126482003Y-96872829D01*
X126472781Y-96819009D01*
X126464212Y-96747891D01*
X126457033Y-96668862D01*
X126451980Y-96591312D01*
X126449790Y-96524626D01*
X126451201Y-96478194D01*
X126456709Y-96461385D01*
X126478166Y-96467239D01*
X126526862Y-96482731D01*
X126593094Y-96504757D01*
X126607044Y-96509487D01*
X126720823Y-96557966D01*
X126801509Y-96616978D01*
X126854728Y-96691779D01*
X126881045Y-96765479D01*
X126896327Y-96835956D01*
X126896441Y-96882886D01*
X126992079Y-96882886D01*
X126982461Y-96878931D01*
X126940669Y-96862749D01*
X126919269Y-96827590D01*
X126912714Y-96799835D01*
X126901063Y-96745730D01*
X126889963Y-96706011D01*
X126889302Y-96704228D01*
X126893985Y-96681214D01*
X126918603Y-96676308D01*
X126961717Y-96665660D01*
X126972226Y-96637874D01*
X126967697Y-96630380D01*
X126914893Y-96630380D01*
X126894641Y-96637070D01*
X126885162Y-96637231D01*
X126851473Y-96625564D01*
X126843692Y-96607923D01*
X126852971Y-96581904D01*
X126860838Y-96578616D01*
X126886302Y-96591983D01*
X126902308Y-96607923D01*
X126914893Y-96630380D01*
X126967697Y-96630380D01*
X126948843Y-96599183D01*
X126936861Y-96587941D01*
X126886999Y-96545051D01*
X126938615Y-96463162D01*
X126973368Y-96413623D01*
X127001816Y-96391707D01*
X127034767Y-96389911D01*
X127042257Y-96391192D01*
X127095250Y-96390236D01*
X127122170Y-96367808D01*
X127122072Y-96366946D01*
X126963425Y-96366946D01*
X126943017Y-96418863D01*
X126908693Y-96473281D01*
X126867799Y-96518143D01*
X126834818Y-96539231D01*
X126798553Y-96539658D01*
X126737204Y-96527919D01*
X126661651Y-96507136D01*
X126582771Y-96480431D01*
X126511443Y-96450927D01*
X126489525Y-96440126D01*
X126470896Y-96409848D01*
X126470621Y-96353990D01*
X126487139Y-96280591D01*
X126518888Y-96197692D01*
X126547540Y-96141478D01*
X126588999Y-96072218D01*
X126623125Y-96033173D01*
X126657949Y-96023615D01*
X126701503Y-96042813D01*
X126761816Y-96090037D01*
X126795137Y-96118983D01*
X126854867Y-96173869D01*
X126902556Y-96222270D01*
X126930756Y-96256435D01*
X126934923Y-96264419D01*
X126952286Y-96308588D01*
X126962569Y-96329587D01*
X126963425Y-96366946D01*
X127122072Y-96366946D01*
X127119404Y-96343541D01*
X127078154Y-96343541D01*
X127065911Y-96362283D01*
X127030165Y-96350939D01*
X127020104Y-96344917D01*
X127002020Y-96323463D01*
X127004608Y-96313495D01*
X127032462Y-96307875D01*
X127064409Y-96321589D01*
X127078154Y-96343541D01*
X127119404Y-96343541D01*
X127118017Y-96331383D01*
X127099000Y-96306384D01*
X127055298Y-96276458D01*
X127016909Y-96266000D01*
X126981592Y-96252335D01*
X126928939Y-96215341D01*
X126867436Y-96161017D01*
X126864707Y-96158370D01*
X126805575Y-96102307D01*
X126751499Y-96053691D01*
X126713042Y-96021978D01*
X126709603Y-96019494D01*
X126664993Y-95988248D01*
X126708903Y-95941508D01*
X126747513Y-95908954D01*
X126780217Y-95894789D01*
X126781061Y-95894769D01*
X126803100Y-95905436D01*
X126853610Y-95935820D01*
X126928866Y-95983498D01*
X127025138Y-96046045D01*
X127138701Y-96121038D01*
X127265827Y-96206052D01*
X127402790Y-96298665D01*
X127417540Y-96308697D01*
X127602453Y-96434442D01*
X127757824Y-96540092D01*
X127886279Y-96627742D01*
X127990442Y-96699484D01*
X128072938Y-96757411D01*
X128136393Y-96803618D01*
X128183432Y-96840198D01*
X128216679Y-96869243D01*
X128238759Y-96892848D01*
X128252299Y-96913106D01*
X128259922Y-96932109D01*
X128264255Y-96951953D01*
X128267921Y-96974729D01*
X128270536Y-96988923D01*
X128284229Y-97054558D01*
X128296093Y-97107681D01*
X128301245Y-97128291D01*
X128431865Y-97128291D01*
X128400991Y-96993973D01*
X128381293Y-96910884D01*
X128364126Y-96843258D01*
X128351656Y-96799346D01*
X128346691Y-96786941D01*
X128326003Y-96772197D01*
X128276878Y-96738333D01*
X128203286Y-96688036D01*
X128109199Y-96623988D01*
X127998589Y-96548873D01*
X127875428Y-96465377D01*
X127743687Y-96376181D01*
X127607337Y-96283972D01*
X127470351Y-96191432D01*
X127336700Y-96101245D01*
X127210355Y-96016096D01*
X127095288Y-95938669D01*
X126995471Y-95871647D01*
X126914875Y-95817715D01*
X126857472Y-95779557D01*
X126827234Y-95759856D01*
X126824049Y-95757944D01*
X126781779Y-95748236D01*
X126729855Y-95766016D01*
X126729855Y-95766016D01*
G37*
X126729855Y-95766016D02*
X126729182Y-95766363D01*
X126661075Y-95813784D01*
X126584842Y-95886138D01*
X126509507Y-95973248D01*
X126444099Y-96064936D01*
X126408010Y-96128493D01*
X126383148Y-96180818D01*
X126365747Y-96225694D01*
X126354254Y-96272177D01*
X126347112Y-96329325D01*
X126342769Y-96406193D01*
X126339668Y-96511839D01*
X126339254Y-96529031D01*
X126337383Y-96645431D01*
X126338950Y-96738221D01*
X126345254Y-96820800D01*
X126357595Y-96906566D01*
X126377270Y-97008917D01*
X126392928Y-97082903D01*
X126420129Y-97206147D01*
X126443236Y-97299118D01*
X126465638Y-97369899D01*
X126490722Y-97426571D01*
X126521876Y-97477216D01*
X126562488Y-97529915D01*
X126597872Y-97571788D01*
X126642290Y-97625542D01*
X126674321Y-97668241D01*
X126687351Y-97691035D01*
X126687385Y-97691504D01*
X126704997Y-97702816D01*
X126752126Y-97719962D01*
X126820209Y-97740005D01*
X126856093Y-97749362D01*
X126941909Y-97772184D01*
X127021492Y-97795598D01*
X127081019Y-97815473D01*
X127092941Y-97820145D01*
X127162318Y-97841099D01*
X127236502Y-97845032D01*
X127324116Y-97831105D01*
X127433779Y-97798480D01*
X127478692Y-97782588D01*
X127572950Y-97746955D01*
X127686192Y-97702225D01*
X127801660Y-97655091D01*
X127871385Y-97625731D01*
X127968175Y-97582922D01*
X128042111Y-97545262D01*
X128104954Y-97504966D01*
X128168469Y-97454252D01*
X128244418Y-97385333D01*
X128267608Y-97363515D01*
X128446985Y-97194077D01*
X128431865Y-97128291D01*
X128301245Y-97128291D01*
X128291521Y-97157474D01*
X128255806Y-97202544D01*
X128200671Y-97257788D01*
X128132690Y-97317492D01*
X128058432Y-97375941D01*
X127984472Y-97427423D01*
X127917380Y-97466222D01*
X127906659Y-97471364D01*
X127800572Y-97518394D01*
X127686705Y-97565675D01*
X127571670Y-97610807D01*
X127462081Y-97651386D01*
X127364549Y-97685011D01*
X127285686Y-97709279D01*
X127232105Y-97721788D01*
X127214923Y-97722663D01*
X127159284Y-97709422D01*
X127109636Y-97693183D01*
X127072813Y-97676637D01*
X127060485Y-97665845D01*
X127060790Y-97665517D01*
X127079493Y-97655070D01*
X127127933Y-97629041D01*
X127201249Y-97590015D01*
X127294578Y-97540574D01*
X127403060Y-97483300D01*
X127480652Y-97442435D01*
X127630349Y-97364787D01*
X127748308Y-97306167D01*
X127836426Y-97265713D01*
X127896602Y-97242563D01*
X127930734Y-97235858D01*
X127934684Y-97236435D01*
X127974513Y-97234407D01*
X127992111Y-97209537D01*
X127990594Y-97202042D01*
X127848808Y-97202042D01*
X127835646Y-97215724D01*
X127793201Y-97243841D01*
X127727147Y-97283359D01*
X127643153Y-97331244D01*
X127546894Y-97384461D01*
X127444039Y-97439975D01*
X127340262Y-97494752D01*
X127241234Y-97545757D01*
X127152627Y-97589955D01*
X127080113Y-97624313D01*
X127029364Y-97645794D01*
X127008431Y-97651664D01*
X126966436Y-97647132D01*
X126905242Y-97633844D01*
X126871584Y-97624594D01*
X126803324Y-97597434D01*
X126749061Y-97556019D01*
X126703293Y-97502774D01*
X126666227Y-97452853D01*
X126642292Y-97416989D01*
X126636781Y-97404245D01*
X126656444Y-97397598D01*
X126707568Y-97382537D01*
X126783891Y-97360847D01*
X126879151Y-97334313D01*
X126962718Y-97311360D01*
X127070590Y-97281411D01*
X127166448Y-97253866D01*
X127243410Y-97230776D01*
X127294595Y-97214192D01*
X127311836Y-97207312D01*
X127351335Y-97201664D01*
X127395290Y-97211533D01*
X127449548Y-97222120D01*
X127488612Y-97208287D01*
X127524453Y-97197251D01*
X127584108Y-97189517D01*
X127656407Y-97185277D01*
X127730182Y-97184725D01*
X127794262Y-97188055D01*
X127837477Y-97195461D01*
X127848808Y-97202042D01*
X127990594Y-97202042D01*
X127985024Y-97174539D01*
X127937846Y-97174539D01*
X127934176Y-97199249D01*
X127914841Y-97200524D01*
X127890598Y-97191987D01*
X127870987Y-97177457D01*
X127442431Y-97177457D01*
X127422179Y-97184147D01*
X127412700Y-97184308D01*
X127384492Y-97174539D01*
X127314653Y-97174539D01*
X127295215Y-97184445D01*
X127245382Y-97202463D01*
X127172457Y-97226418D01*
X127083744Y-97254135D01*
X126986546Y-97283438D01*
X126888166Y-97312153D01*
X126795909Y-97338104D01*
X126717077Y-97359117D01*
X126658973Y-97373016D01*
X126633235Y-97377477D01*
X126607449Y-97363332D01*
X126589730Y-97335731D01*
X126578076Y-97301020D01*
X126560944Y-97241705D01*
X126541173Y-97168705D01*
X126521604Y-97092938D01*
X126505077Y-97025321D01*
X126494432Y-96976771D01*
X126492000Y-96960026D01*
X126509942Y-96953996D01*
X126557787Y-96951474D01*
X126626562Y-96952002D01*
X126707295Y-96955122D01*
X126791012Y-96960375D01*
X126868743Y-96967303D01*
X126931515Y-96975448D01*
X126970354Y-96984350D01*
X126970692Y-96984481D01*
X127029622Y-97004463D01*
X127078154Y-97017123D01*
X127121529Y-97032785D01*
X127176249Y-97061626D01*
X127232464Y-97097091D01*
X127280322Y-97132621D01*
X127309975Y-97161662D01*
X127314653Y-97174539D01*
X127384492Y-97174539D01*
X127379011Y-97172641D01*
X127371231Y-97155000D01*
X127380510Y-97128981D01*
X127388377Y-97125692D01*
X127413840Y-97139060D01*
X127429846Y-97155000D01*
X127442431Y-97177457D01*
X127870987Y-97177457D01*
X127862193Y-97170942D01*
X127869131Y-97151576D01*
X127898769Y-97145231D01*
X127930593Y-97157448D01*
X127937846Y-97174539D01*
X127985024Y-97174539D01*
X127984687Y-97172879D01*
X127958478Y-97142188D01*
X127907647Y-97114688D01*
X127856464Y-97107487D01*
X127818139Y-97121178D01*
X127808143Y-97135462D01*
X127782870Y-97152710D01*
X127730462Y-97163211D01*
X127662257Y-97167062D01*
X127589593Y-97164363D01*
X127523807Y-97155213D01*
X127476236Y-97139710D01*
X127465625Y-97132477D01*
X127423796Y-97111133D01*
X127363976Y-97098058D01*
X127346856Y-97096740D01*
X127273881Y-97082330D01*
X127195375Y-97049365D01*
X127124155Y-97005046D01*
X127073035Y-96956571D01*
X127067033Y-96946828D01*
X127015285Y-96946828D01*
X127009514Y-96966240D01*
X126989215Y-96966366D01*
X126954949Y-96947627D01*
X126945638Y-96933326D01*
X126951409Y-96913914D01*
X126971708Y-96913788D01*
X127005974Y-96932527D01*
X127015285Y-96946828D01*
X127067033Y-96946828D01*
X127060177Y-96935702D01*
X127023497Y-96895806D01*
X126992079Y-96882886D01*
X126896441Y-96882886D01*
X126876117Y-96911021D01*
X126830086Y-96925111D01*
X126753078Y-96929909D01*
X126698230Y-96930308D01*
X126605389Y-96928697D01*
X126544273Y-96923158D01*
X126507638Y-96912628D01*
X126491140Y-96899964D01*
X126482003Y-96872829D01*
X126472781Y-96819009D01*
X126464212Y-96747891D01*
X126457033Y-96668862D01*
X126451980Y-96591312D01*
X126449790Y-96524626D01*
X126451201Y-96478194D01*
X126456709Y-96461385D01*
X126478166Y-96467239D01*
X126526862Y-96482731D01*
X126593094Y-96504757D01*
X126607044Y-96509487D01*
X126720823Y-96557966D01*
X126801509Y-96616978D01*
X126854728Y-96691779D01*
X126881045Y-96765479D01*
X126896327Y-96835956D01*
X126896441Y-96882886D01*
X126992079Y-96882886D01*
X126982461Y-96878931D01*
X126940669Y-96862749D01*
X126919269Y-96827590D01*
X126912714Y-96799835D01*
X126901063Y-96745730D01*
X126889963Y-96706011D01*
X126889302Y-96704228D01*
X126893985Y-96681214D01*
X126918603Y-96676308D01*
X126961717Y-96665660D01*
X126972226Y-96637874D01*
X126967697Y-96630380D01*
X126914893Y-96630380D01*
X126894641Y-96637070D01*
X126885162Y-96637231D01*
X126851473Y-96625564D01*
X126843692Y-96607923D01*
X126852971Y-96581904D01*
X126860838Y-96578616D01*
X126886302Y-96591983D01*
X126902308Y-96607923D01*
X126914893Y-96630380D01*
X126967697Y-96630380D01*
X126948843Y-96599183D01*
X126936861Y-96587941D01*
X126886999Y-96545051D01*
X126938615Y-96463162D01*
X126973368Y-96413623D01*
X127001816Y-96391707D01*
X127034767Y-96389911D01*
X127042257Y-96391192D01*
X127095250Y-96390236D01*
X127122170Y-96367808D01*
X127122072Y-96366946D01*
X126963425Y-96366946D01*
X126943017Y-96418863D01*
X126908693Y-96473281D01*
X126867799Y-96518143D01*
X126834818Y-96539231D01*
X126798553Y-96539658D01*
X126737204Y-96527919D01*
X126661651Y-96507136D01*
X126582771Y-96480431D01*
X126511443Y-96450927D01*
X126489525Y-96440126D01*
X126470896Y-96409848D01*
X126470621Y-96353990D01*
X126487139Y-96280591D01*
X126518888Y-96197692D01*
X126547540Y-96141478D01*
X126588999Y-96072218D01*
X126623125Y-96033173D01*
X126657949Y-96023615D01*
X126701503Y-96042813D01*
X126761816Y-96090037D01*
X126795137Y-96118983D01*
X126854867Y-96173869D01*
X126902556Y-96222270D01*
X126930756Y-96256435D01*
X126934923Y-96264419D01*
X126952286Y-96308588D01*
X126962569Y-96329587D01*
X126963425Y-96366946D01*
X127122072Y-96366946D01*
X127119404Y-96343541D01*
X127078154Y-96343541D01*
X127065911Y-96362283D01*
X127030165Y-96350939D01*
X127020104Y-96344917D01*
X127002020Y-96323463D01*
X127004608Y-96313495D01*
X127032462Y-96307875D01*
X127064409Y-96321589D01*
X127078154Y-96343541D01*
X127119404Y-96343541D01*
X127118017Y-96331383D01*
X127099000Y-96306384D01*
X127055298Y-96276458D01*
X127016909Y-96266000D01*
X126981592Y-96252335D01*
X126928939Y-96215341D01*
X126867436Y-96161017D01*
X126864707Y-96158370D01*
X126805575Y-96102307D01*
X126751499Y-96053691D01*
X126713042Y-96021978D01*
X126709603Y-96019494D01*
X126664993Y-95988248D01*
X126708903Y-95941508D01*
X126747513Y-95908954D01*
X126780217Y-95894789D01*
X126781061Y-95894769D01*
X126803100Y-95905436D01*
X126853610Y-95935820D01*
X126928866Y-95983498D01*
X127025138Y-96046045D01*
X127138701Y-96121038D01*
X127265827Y-96206052D01*
X127402790Y-96298665D01*
X127417540Y-96308697D01*
X127602453Y-96434442D01*
X127757824Y-96540092D01*
X127886279Y-96627742D01*
X127990442Y-96699484D01*
X128072938Y-96757411D01*
X128136393Y-96803618D01*
X128183432Y-96840198D01*
X128216679Y-96869243D01*
X128238759Y-96892848D01*
X128252299Y-96913106D01*
X128259922Y-96932109D01*
X128264255Y-96951953D01*
X128267921Y-96974729D01*
X128270536Y-96988923D01*
X128284229Y-97054558D01*
X128296093Y-97107681D01*
X128301245Y-97128291D01*
X128431865Y-97128291D01*
X128400991Y-96993973D01*
X128381293Y-96910884D01*
X128364126Y-96843258D01*
X128351656Y-96799346D01*
X128346691Y-96786941D01*
X128326003Y-96772197D01*
X128276878Y-96738333D01*
X128203286Y-96688036D01*
X128109199Y-96623988D01*
X127998589Y-96548873D01*
X127875428Y-96465377D01*
X127743687Y-96376181D01*
X127607337Y-96283972D01*
X127470351Y-96191432D01*
X127336700Y-96101245D01*
X127210355Y-96016096D01*
X127095288Y-95938669D01*
X126995471Y-95871647D01*
X126914875Y-95817715D01*
X126857472Y-95779557D01*
X126827234Y-95759856D01*
X126824049Y-95757944D01*
X126781779Y-95748236D01*
X126729855Y-95766016D01*
D14*
X147318000Y-100595000D02*
X146968000Y-100595000D01*
X146968000Y-100595000D02*
X146968000Y-102095000D01*
X151968000Y-100595000D02*
X148768000Y-100595000D01*
X153768000Y-102095000D02*
X153768000Y-100595000D01*
X153768000Y-100595000D02*
X153368000Y-100595000D01*
D15*
X151129905Y-109942381D02*
X151129905Y-110751905D01*
X151082286Y-110847143D01*
X151034667Y-110894762D01*
X150939429Y-110942381D01*
X150748952Y-110942381D01*
X150653714Y-110894762D01*
X150606095Y-110847143D01*
X150558476Y-110751905D01*
X150558476Y-109942381D01*
X150129905Y-110037619D02*
X150082286Y-109990000D01*
X149987048Y-109942381D01*
X149748952Y-109942381D01*
X149653714Y-109990000D01*
X149606095Y-110037619D01*
X149558476Y-110132857D01*
X149558476Y-110228095D01*
X149606095Y-110370952D01*
X150177524Y-110942381D01*
X149558476Y-110942381D01*
%LPC*%
D16*
X164338000Y-80010000D03*
D17*
X164338000Y-82550000D03*
X164338000Y-85090000D03*
D18*
X156718000Y-75565000D03*
X159258000Y-75565000D03*
X161798000Y-75565000D03*
X164338000Y-75565000D03*
X166878000Y-75565000D03*
X169418000Y-75565000D03*
X171958000Y-75565000D03*
X174498000Y-75565000D03*
X129794000Y-75565000D03*
X132334000Y-75565000D03*
X134874000Y-75565000D03*
X137414000Y-75565000D03*
X139954000Y-75565000D03*
X142494000Y-75565000D03*
X145034000Y-75565000D03*
X147574000Y-75565000D03*
X150114000Y-75565000D03*
X152654000Y-75565000D03*
X161798000Y-123825000D03*
X164338000Y-123825000D03*
X166878000Y-123825000D03*
X169418000Y-123825000D03*
X171958000Y-123825000D03*
X174498000Y-123825000D03*
X138938000Y-123825000D03*
X141478000Y-123825000D03*
X144018000Y-123825000D03*
X146558000Y-123825000D03*
X149098000Y-123825000D03*
X151638000Y-123825000D03*
X154178000Y-123825000D03*
X156718000Y-123825000D03*
D16*
X114808000Y-75565000D03*
D17*
X117348000Y-75565000D03*
X119888000Y-75565000D03*
X122428000Y-75565000D03*
D16*
X140843000Y-81280000D03*
D17*
X140843000Y-83820000D03*
X140843000Y-86360000D03*
D16*
X166878000Y-80010000D03*
D17*
X166878000Y-82550000D03*
X166878000Y-85090000D03*
D16*
X169418000Y-80010000D03*
D17*
X169418000Y-82550000D03*
X169418000Y-85090000D03*
D19*
X148068000Y-98295000D03*
X152648000Y-98295000D03*
D20*
X150368000Y-105695000D03*
D21*
X137968000Y-113665000D03*
D22*
X139018000Y-113665000D03*
X136318000Y-113665000D03*
D21*
X137368000Y-113665000D03*
D23*
X137668000Y-113665000D03*
D21*
X137968000Y-115570000D03*
D22*
X139018000Y-115570000D03*
X136318000Y-115570000D03*
D21*
X137368000Y-115570000D03*
D23*
X137668000Y-115570000D03*
D21*
X137968000Y-117475000D03*
D22*
X139018000Y-117475000D03*
X136318000Y-117475000D03*
D21*
X137368000Y-117475000D03*
D23*
X137668000Y-117475000D03*
D21*
X137968000Y-111760000D03*
D22*
X139018000Y-111760000D03*
X136318000Y-111760000D03*
D21*
X137368000Y-111760000D03*
D23*
X137668000Y-111760000D03*
D24*
X130048000Y-119583200D03*
X130048000Y-122986800D03*
D25*
X166878000Y-112395000D03*
D26*
X166878000Y-117395000D03*
X166878000Y-115895000D03*
D25*
X166878000Y-102275000D03*
D26*
X166878000Y-107275000D03*
X166878000Y-105775000D03*
D24*
X116028000Y-102945000D03*
X116028000Y-96445000D03*
X120528000Y-96445000D03*
X120528000Y-102945000D03*
X138428000Y-102195000D03*
X138428000Y-99695000D03*
X138428000Y-97195000D03*
X131278000Y-109695000D03*
X128778000Y-109695000D03*
X126278000Y-109695000D03*
D27*
X124968000Y-123825000D03*
X177038000Y-118745000D03*
X177038000Y-90805000D03*
X126238000Y-75565000D03*
D28*
X168148000Y-95885000D03*
X167132000Y-90805000D03*
X169164000Y-90805000D03*
D29*
X165608000Y-95885000D03*
X170688000Y-95885000D03*
X170688000Y-92710000D03*
X165608000Y-92710000D03*
M02*
