M48
INCH,TZ
T1C0.016
T2C0.031
T3C0.040
T4C0.047
T5C0.059
T6C0.125
%
G90
G05
T1
X045700Y-049000
X047700Y-034750
X051950Y-034750
X052950Y-044000
X052950Y-044750
X052950Y-045500
X052950Y-046250
X055200Y-034250
X055950Y-047250
X056700Y-037500
X058700Y-034250
X059950Y-037250
X063700Y-047250
X064200Y-046750
X065200Y-033500
X066950Y-032250
X068700Y-033500
T2
X051200Y-047080
X051200Y-048420
T3
X045200Y-029750
X045680Y-037970
X045680Y-040530
X046200Y-029750
X047200Y-029750
X047452Y-037970
X047452Y-040530
X048200Y-029750
X049716Y-043187
X049950Y-032750
X049950Y-033750
X049950Y-034750
X050700Y-043187
X051100Y-029750
X051684Y-043187
X052100Y-029750
X053100Y-029750
X054100Y-029750
X054499Y-038266
X054499Y-039250
X054499Y-040234
X054700Y-048750
X055100Y-029750
X055700Y-048750
X056100Y-029750
X056700Y-048750
X057100Y-029750
X057700Y-048750
X058100Y-029750
X058700Y-048750
X059100Y-029750
X059700Y-048750
X060100Y-029750
X060700Y-048750
X061700Y-029750
X061700Y-048750
X062700Y-029750
X063700Y-029750
X063700Y-048750
X064700Y-029750
X064700Y-035250
X064700Y-036250
X064700Y-037250
X064700Y-048750
X065700Y-029750
X065700Y-035250
X065700Y-036250
X065700Y-037250
X065700Y-048750
X066700Y-029750
X066700Y-035250
X066700Y-036250
X066700Y-037250
X066700Y-048750
X067700Y-029750
X067700Y-048750
X068700Y-029750
X068700Y-048750
T4
X065700Y-040266
X065700Y-041644
X065700Y-042234
X065700Y-044266
X065700Y-045644
X065700Y-046234
T5
X048082Y-036199
X048082Y-042301
X053318Y-036199
X053318Y-042301
T6
X049200Y-048750
X049700Y-029750
X069700Y-035750
X069700Y-046750
T0
M30
