M48
INCH,TZ
T1C0.016
T2C0.031
T3C0.035
T4C0.039
T5C0.040
T6C0.047
T7C0.063
%
G90
G05
T1
X045200Y-034250
X045200Y-046750
X047200Y-044750
X047700Y-034250
X047750Y-046550
X048700Y-048250
X051950Y-034750
X052950Y-044750
X052950Y-045500
X053200Y-038750
X054700Y-040000
X055200Y-033750
X058200Y-037500
X058700Y-035758
X059700Y-037750
X061700Y-033750
X064200Y-035500
X064200Y-038500
X067450Y-038000
T2
X052200Y-047250
X052200Y-048250
T3
X046913Y-043283
X047700Y-043283
X048487Y-043283
X051184Y-038963
X051184Y-039750
X051184Y-040537
T4
X045200Y-029750
X046200Y-029750
X047200Y-029750
X048200Y-029750
X049950Y-032750
X049950Y-033750
X049950Y-034750
X064200Y-031750
X064200Y-032750
X064200Y-033750
X065200Y-031750
X065200Y-032750
X065200Y-033750
X066200Y-031750
X066200Y-032750
X066200Y-033750
T5
X051100Y-029750
X052100Y-029750
X053100Y-029750
X054100Y-029750
X054700Y-048750
X055100Y-029750
X055700Y-048750
X056100Y-029750
X056700Y-048750
X057100Y-029750
X057700Y-048750
X058100Y-029750
X058700Y-048750
X059100Y-029750
X059700Y-048750
X060100Y-029750
X060700Y-048750
X061700Y-029750
X061700Y-048750
X062700Y-029750
X063700Y-029750
X063700Y-048750
X064700Y-029750
X064700Y-048750
X065700Y-029750
X065700Y-048750
X066700Y-029750
X066700Y-048750
X067700Y-029750
X067700Y-048750
X068700Y-029750
X068700Y-048750
T6
X065200Y-040748
X065200Y-042717
X065200Y-044766
X065200Y-046734
T7
X045338Y-042112
X050062Y-037388
T0
M30
