M48
INCH,TZ
T1C0.016
T2C0.031
T3C0.040
T4C0.047
T5C0.039
T6C0.059
T7C0.093
T8C0.125
%
G90
G05
T1
X045700Y-049000
X047950Y-032250
X052950Y-044000
X052950Y-044750
X052950Y-045500
X052950Y-046250
X055950Y-047250
X057450Y-038500
X057450Y-040750
X057700Y-033250
X059200Y-041612
X059700Y-033500
X059700Y-037500
X060950Y-038750
X061700Y-036000
X062450Y-038750
X062700Y-037500
X063700Y-047250
X064200Y-046750
X064400Y-038650
X065200Y-034750
X068450Y-032500
T2
X051200Y-047080
X051200Y-048420
T3
X045200Y-029750
X045680Y-037970
X045680Y-040530
X046200Y-029750
X047200Y-029750
X047452Y-037970
X047452Y-040530
X048200Y-029750
X049716Y-043187
X050700Y-043187
X051100Y-029750
X051684Y-043187
X052100Y-029750
X053100Y-029750
X054100Y-029750
X054499Y-038266
X054499Y-039250
X054499Y-040234
X054700Y-048750
X055100Y-029750
X055450Y-032000
X055450Y-033000
X055450Y-034000
X055700Y-048750
X056100Y-029750
X056700Y-048750
X057100Y-029750
X057700Y-048750
X058100Y-029750
X058700Y-048750
X059100Y-029750
X059700Y-048750
X060100Y-029750
X060700Y-048750
X061700Y-029750
X061700Y-048750
X062700Y-029750
X063700Y-029750
X063700Y-048750
X064700Y-029750
X064700Y-031500
X064700Y-032500
X064700Y-033500
X064700Y-048750
X065700Y-029750
X065700Y-031500
X065700Y-032500
X065700Y-033500
X065700Y-048750
X066700Y-029750
X066700Y-031500
X066700Y-032500
X066700Y-033500
X066700Y-048750
X067700Y-029750
X067700Y-048750
X068700Y-029750
X068700Y-048750
T4
X065700Y-040266
X065700Y-041644
X065700Y-042234
X065700Y-044250
X065700Y-045628
X065700Y-046219
T5
X065800Y-035750
X066200Y-037750
X066600Y-035750
T6
X048082Y-036199
X048082Y-042301
X053318Y-036199
X053318Y-042301
T7
X065200Y-036500
X065200Y-037750
X067200Y-036500
X067200Y-037750
T8
X049200Y-048750
X049700Y-029750
X069700Y-035750
X069700Y-046750
T0
M30
