G04 #@! TF.FileFunction,Copper,L1,Top,Signal*
%FSLAX46Y46*%
G04 Gerber Fmt 4.6, Leading zero omitted, Abs format (unit mm)*
G04 Created by KiCad (PCBNEW 4.0.6-e0-6349~53~ubuntu16.04.1) date Wed Aug  2 12:33:15 2017*
%MOMM*%
%LPD*%
G01*
G04 APERTURE LIST*
%ADD10C,0.100000*%
%ADD11O,1.727200X2.032000*%
%ADD12R,1.700000X1.700000*%
%ADD13O,1.700000X1.700000*%
%ADD14C,2.400000*%
%ADD15R,2.400000X2.400000*%
%ADD16O,1.500000X3.000000*%
%ADD17O,3.000000X1.500000*%
%ADD18R,1.000000X0.700000*%
%ADD19R,1.500000X1.300000*%
%ADD20R,1.600000X1.000000*%
%ADD21C,1.600000*%
%ADD22R,1.550000X1.300000*%
%ADD23R,1.250000X1.500000*%
%ADD24R,1.600000X2.600000*%
%ADD25C,0.600000*%
%ADD26C,0.750000*%
%ADD27C,0.250000*%
%ADD28C,0.500000*%
G04 APERTURE END LIST*
D10*
D11*
X138938000Y-123825000D03*
X141478000Y-123825000D03*
X144018000Y-123825000D03*
X146558000Y-123825000D03*
X149098000Y-123825000D03*
X151638000Y-123825000D03*
X154178000Y-123825000D03*
X156718000Y-123825000D03*
X161798000Y-123825000D03*
X164338000Y-123825000D03*
X166878000Y-123825000D03*
X169418000Y-123825000D03*
X171958000Y-123825000D03*
X174498000Y-123825000D03*
X129794000Y-75565000D03*
X132334000Y-75565000D03*
X134874000Y-75565000D03*
X137414000Y-75565000D03*
X139954000Y-75565000D03*
X142494000Y-75565000D03*
X145034000Y-75565000D03*
X147574000Y-75565000D03*
X150114000Y-75565000D03*
X152654000Y-75565000D03*
X156718000Y-75565000D03*
X159258000Y-75565000D03*
X161798000Y-75565000D03*
X164338000Y-75565000D03*
X166878000Y-75565000D03*
X169418000Y-75565000D03*
X171958000Y-75565000D03*
X174498000Y-75565000D03*
D12*
X164338000Y-80645000D03*
D13*
X164338000Y-83185000D03*
X164338000Y-85725000D03*
D12*
X161798000Y-80645000D03*
D13*
X161798000Y-83185000D03*
X161798000Y-85725000D03*
D14*
X173888400Y-113581300D03*
D15*
X173888400Y-117081300D03*
D12*
X159258000Y-80645000D03*
D13*
X159258000Y-83185000D03*
X159258000Y-85725000D03*
D14*
X173888400Y-105313600D03*
D15*
X173888400Y-108813600D03*
D12*
X123698000Y-83185000D03*
D13*
X123698000Y-85725000D03*
X123698000Y-88265000D03*
D12*
X114808000Y-75565000D03*
D13*
X117348000Y-75565000D03*
X119888000Y-75565000D03*
X122428000Y-75565000D03*
D16*
X121158000Y-109940000D03*
X119158000Y-109940000D03*
X123158000Y-109940000D03*
D17*
X130008000Y-100965000D03*
X130008000Y-98965000D03*
X130008000Y-102965000D03*
D18*
X174468000Y-97475000D03*
X174468000Y-98425000D03*
X174468000Y-99375000D03*
X177068000Y-99375000D03*
X177068000Y-97475000D03*
X177068000Y-98425000D03*
D19*
X142096500Y-87477600D03*
X144796500Y-87477600D03*
X172038000Y-85725000D03*
X169338000Y-85725000D03*
X170768000Y-94615000D03*
X168068000Y-94615000D03*
X168068000Y-99695000D03*
X170768000Y-99695000D03*
X174418000Y-92075000D03*
X177118000Y-92075000D03*
X169338000Y-81915000D03*
X172038000Y-81915000D03*
D20*
X133144900Y-84746900D03*
X133144900Y-81546900D03*
X128144900Y-84746900D03*
X128144900Y-81546900D03*
D21*
X151993600Y-82194400D03*
X149453600Y-82194400D03*
D22*
X139022000Y-103469000D03*
X139022000Y-98969000D03*
X146982000Y-98969000D03*
X146982000Y-103469000D03*
D23*
X162814000Y-111359000D03*
X162814000Y-108859000D03*
D24*
X163068000Y-96625000D03*
X163068000Y-100225000D03*
D25*
X174498000Y-85725000D03*
X163068000Y-103505000D03*
X149352000Y-94615000D03*
X147320000Y-87757000D03*
X169338000Y-89455000D03*
X166878000Y-91440000D03*
X139700000Y-95377000D03*
X163068000Y-92583000D03*
X154432000Y-88011000D03*
D26*
X130008000Y-98965000D02*
X127286000Y-98965000D01*
X119253000Y-90932000D02*
X119253000Y-83185000D01*
X127286000Y-98965000D02*
X119253000Y-90932000D01*
X123158000Y-109940000D02*
X142579000Y-109940000D01*
X149098000Y-116459000D02*
X149098000Y-123825000D01*
X142579000Y-109940000D02*
X149098000Y-116459000D01*
X130008000Y-98965000D02*
X127730000Y-98965000D01*
X123158000Y-103537000D02*
X123158000Y-109940000D01*
X127730000Y-98965000D02*
X123158000Y-103537000D01*
X128144900Y-81546900D02*
X125336100Y-81546900D01*
X125336100Y-81546900D02*
X123698000Y-83185000D01*
X123698000Y-83185000D02*
X119253000Y-83185000D01*
X119253000Y-83185000D02*
X115087400Y-79019400D01*
X115087400Y-79019400D02*
X114808000Y-75565000D01*
X149453600Y-82194400D02*
X149453600Y-90805000D01*
X149453600Y-90805000D02*
X149098000Y-90805000D01*
X172038000Y-81915000D02*
X172038000Y-80725000D01*
X138168000Y-90805000D02*
X130008000Y-98965000D01*
X164338000Y-90805000D02*
X149098000Y-90805000D01*
X149098000Y-90805000D02*
X138168000Y-90805000D01*
X166878000Y-88265000D02*
X164338000Y-90805000D01*
X166878000Y-80645000D02*
X166878000Y-88265000D01*
X168148000Y-79375000D02*
X166878000Y-80645000D01*
X170688000Y-79375000D02*
X168148000Y-79375000D01*
X172038000Y-80725000D02*
X170688000Y-79375000D01*
X145880000Y-103215000D02*
X137516000Y-103361000D01*
X137516000Y-103361000D02*
X130008000Y-102965000D01*
X146982000Y-103469000D02*
X145880000Y-103215000D01*
X133144900Y-84746900D02*
X133144900Y-85168100D01*
X133144900Y-85168100D02*
X130048000Y-88265000D01*
X130048000Y-88265000D02*
X123698000Y-88265000D01*
X133144900Y-84746900D02*
X139365800Y-84746900D01*
X139365800Y-84746900D02*
X142096500Y-87477600D01*
X172038000Y-85725000D02*
X174498000Y-85725000D01*
X174468000Y-98425000D02*
X173228000Y-98425000D01*
X172593000Y-93900000D02*
X174418000Y-92075000D01*
X172593000Y-97790000D02*
X172593000Y-93900000D01*
X173228000Y-98425000D02*
X172593000Y-97790000D01*
X174468000Y-98425000D02*
X177068000Y-98425000D01*
X162814000Y-108859000D02*
X163068000Y-103759000D01*
X163068000Y-103759000D02*
X163068000Y-103505000D01*
X163068000Y-100225000D02*
X163068000Y-103505000D01*
X168068000Y-99695000D02*
X168068000Y-99775000D01*
X168068000Y-99775000D02*
X167618000Y-100225000D01*
X167618000Y-100225000D02*
X163068000Y-100225000D01*
X172038000Y-85725000D02*
X172038000Y-89695000D01*
X172038000Y-89695000D02*
X174418000Y-92075000D01*
X161798000Y-85725000D02*
X164338000Y-85725000D01*
X159258000Y-85725000D02*
X161798000Y-85725000D01*
X162814000Y-111359000D02*
X154666000Y-111359000D01*
X149352000Y-106045000D02*
X149352000Y-94615000D01*
X154666000Y-111359000D02*
X149352000Y-106045000D01*
X162814000Y-111359000D02*
X162814000Y-111379000D01*
X162814000Y-111379000D02*
X156718000Y-117475000D01*
X156718000Y-117475000D02*
X156718000Y-123825000D01*
X162814000Y-111359000D02*
X173119100Y-116312000D01*
X173119100Y-116312000D02*
X173888400Y-117081300D01*
D27*
X147320000Y-87757000D02*
X147040600Y-87477600D01*
X147040600Y-87477600D02*
X144796500Y-87477600D01*
X151993600Y-82194400D02*
X151993600Y-79730600D01*
X144796500Y-82406500D02*
X144796500Y-87477600D01*
X147828000Y-79375000D02*
X144796500Y-82406500D01*
X151638000Y-79375000D02*
X147828000Y-79375000D01*
X151993600Y-79730600D02*
X151638000Y-79375000D01*
X169338000Y-85725000D02*
X169338000Y-89455000D01*
X169338000Y-81915000D02*
X169338000Y-85725000D01*
X119888000Y-75565000D02*
X120167400Y-77114400D01*
X129794000Y-78105000D02*
X132334000Y-75565000D01*
X121158000Y-78105000D02*
X129794000Y-78105000D01*
X120167400Y-77114400D02*
X121158000Y-78105000D01*
X129794000Y-75565000D02*
X126873000Y-75565000D01*
X119494300Y-74041000D02*
X117348000Y-75565000D01*
X124968000Y-74041000D02*
X119494300Y-74041000D01*
X126873000Y-75565000D02*
X124968000Y-74041000D01*
X168068000Y-94615000D02*
X168068000Y-92630000D01*
X168068000Y-92630000D02*
X166878000Y-91440000D01*
X152654000Y-75565000D02*
X152654000Y-75819000D01*
X152654000Y-75819000D02*
X149733000Y-78740000D01*
X149733000Y-78740000D02*
X135951800Y-78740000D01*
X135951800Y-78740000D02*
X133144900Y-81546900D01*
X159258000Y-80645000D02*
X159258000Y-75565000D01*
X161798000Y-80645000D02*
X161798000Y-75565000D01*
X164338000Y-80645000D02*
X164338000Y-78105000D01*
X164338000Y-78105000D02*
X166878000Y-75565000D01*
X174468000Y-97475000D02*
X174468000Y-94725000D01*
X174468000Y-94725000D02*
X177118000Y-92075000D01*
X169418000Y-75565000D02*
X169418000Y-75653900D01*
X169418000Y-75653900D02*
X173062900Y-79298800D01*
X173062900Y-79298800D02*
X174739300Y-79298800D01*
X174739300Y-79298800D02*
X175793400Y-80352900D01*
X175793400Y-80352900D02*
X175793400Y-90750400D01*
X175793400Y-90750400D02*
X177118000Y-92075000D01*
X146982000Y-98969000D02*
X139022000Y-98969000D01*
X139700000Y-95377000D02*
X139474000Y-98969000D01*
X139474000Y-98969000D02*
X139022000Y-98969000D01*
D26*
X163068000Y-96625000D02*
X163068000Y-92583000D01*
X164338000Y-83185000D02*
X159258000Y-83185000D01*
X159258000Y-83185000D02*
X154432000Y-88011000D01*
D28*
X173888400Y-113581300D02*
X173946700Y-113581300D01*
X173946700Y-113581300D02*
X177038000Y-111760000D01*
X177038000Y-111760000D02*
X177038000Y-103505000D01*
X177038000Y-103505000D02*
X178308000Y-100965000D01*
X178308000Y-100965000D02*
X178308000Y-97790000D01*
X178308000Y-97790000D02*
X177993000Y-97475000D01*
X177993000Y-97475000D02*
X177068000Y-97475000D01*
X177068000Y-99375000D02*
X177068000Y-100300000D01*
X173888400Y-103479600D02*
X173888400Y-105313600D01*
X177068000Y-100300000D02*
X173888400Y-103479600D01*
D27*
X128144900Y-84746900D02*
X127216100Y-84746900D01*
X126238000Y-85725000D02*
X123698000Y-85725000D01*
X127216100Y-84746900D02*
X126238000Y-85725000D01*
X170768000Y-94615000D02*
X170768000Y-99695000D01*
X174468000Y-99375000D02*
X171088000Y-99375000D01*
X171088000Y-99375000D02*
X170768000Y-99695000D01*
M02*
