G04 #@! TF.GenerationSoftware,KiCad,Pcbnew,(5.0.0-rc2-66-g0a91f0b)*
G04 #@! TF.CreationDate,2018-07-23T17:51:53-04:00*
G04 #@! TF.ProjectId,airmount,6169726D6F756E742E6B696361645F70,rev?*
G04 #@! TF.SameCoordinates,Original*
G04 #@! TF.FileFunction,Soldermask,Bot*
G04 #@! TF.FilePolarity,Negative*
%FSLAX46Y46*%
G04 Gerber Fmt 4.6, Leading zero omitted, Abs format (unit mm)*
G04 Created by KiCad (PCBNEW (5.0.0-rc2-66-g0a91f0b)) date Monday, July 23, 2018 at 05:51:53 PM*
%MOMM*%
%LPD*%
G01*
G04 APERTURE LIST*
%ADD10R,2.150000X2.150000*%
%ADD11C,2.150000*%
%ADD12C,4.400000*%
%ADD13C,0.100000*%
%ADD14C,3.400000*%
G04 APERTURE END LIST*
D10*
G04 #@! TO.C,J1*
X133350000Y-74930000D03*
D11*
X135850000Y-74930000D03*
G04 #@! TD*
D12*
G04 #@! TO.C,M1*
X143390000Y-88587500D03*
X125390000Y-88587500D03*
G04 #@! TD*
D13*
G04 #@! TO.C,M2*
G36*
X139426315Y-95102493D02*
X139508827Y-95114733D01*
X139589742Y-95135001D01*
X139668281Y-95163102D01*
X139743687Y-95198767D01*
X139815235Y-95241651D01*
X139882234Y-95291341D01*
X139944041Y-95347359D01*
X140000059Y-95409166D01*
X140049749Y-95476165D01*
X140092633Y-95547713D01*
X140128298Y-95623119D01*
X140156399Y-95701658D01*
X140176667Y-95782573D01*
X140188907Y-95865085D01*
X140193000Y-95948400D01*
X140193000Y-97648400D01*
X140188907Y-97731715D01*
X140176667Y-97814227D01*
X140156399Y-97895142D01*
X140128298Y-97973681D01*
X140092633Y-98049087D01*
X140049749Y-98120635D01*
X140000059Y-98187634D01*
X139944041Y-98249441D01*
X139882234Y-98305459D01*
X139815235Y-98355149D01*
X139743687Y-98398033D01*
X139668281Y-98433698D01*
X139589742Y-98461799D01*
X139508827Y-98482067D01*
X139426315Y-98494307D01*
X139343000Y-98498400D01*
X129643000Y-98498400D01*
X129559685Y-98494307D01*
X129477173Y-98482067D01*
X129396258Y-98461799D01*
X129317719Y-98433698D01*
X129242313Y-98398033D01*
X129170765Y-98355149D01*
X129103766Y-98305459D01*
X129041959Y-98249441D01*
X128985941Y-98187634D01*
X128936251Y-98120635D01*
X128893367Y-98049087D01*
X128857702Y-97973681D01*
X128829601Y-97895142D01*
X128809333Y-97814227D01*
X128797093Y-97731715D01*
X128793000Y-97648400D01*
X128793000Y-95948400D01*
X128797093Y-95865085D01*
X128809333Y-95782573D01*
X128829601Y-95701658D01*
X128857702Y-95623119D01*
X128893367Y-95547713D01*
X128936251Y-95476165D01*
X128985941Y-95409166D01*
X129041959Y-95347359D01*
X129103766Y-95291341D01*
X129170765Y-95241651D01*
X129242313Y-95198767D01*
X129317719Y-95163102D01*
X129396258Y-95135001D01*
X129477173Y-95114733D01*
X129559685Y-95102493D01*
X129643000Y-95098400D01*
X139343000Y-95098400D01*
X139426315Y-95102493D01*
X139426315Y-95102493D01*
G37*
D14*
X134493000Y-96798400D03*
D13*
G36*
X139426315Y-79102493D02*
X139508827Y-79114733D01*
X139589742Y-79135001D01*
X139668281Y-79163102D01*
X139743687Y-79198767D01*
X139815235Y-79241651D01*
X139882234Y-79291341D01*
X139944041Y-79347359D01*
X140000059Y-79409166D01*
X140049749Y-79476165D01*
X140092633Y-79547713D01*
X140128298Y-79623119D01*
X140156399Y-79701658D01*
X140176667Y-79782573D01*
X140188907Y-79865085D01*
X140193000Y-79948400D01*
X140193000Y-81648400D01*
X140188907Y-81731715D01*
X140176667Y-81814227D01*
X140156399Y-81895142D01*
X140128298Y-81973681D01*
X140092633Y-82049087D01*
X140049749Y-82120635D01*
X140000059Y-82187634D01*
X139944041Y-82249441D01*
X139882234Y-82305459D01*
X139815235Y-82355149D01*
X139743687Y-82398033D01*
X139668281Y-82433698D01*
X139589742Y-82461799D01*
X139508827Y-82482067D01*
X139426315Y-82494307D01*
X139343000Y-82498400D01*
X129643000Y-82498400D01*
X129559685Y-82494307D01*
X129477173Y-82482067D01*
X129396258Y-82461799D01*
X129317719Y-82433698D01*
X129242313Y-82398033D01*
X129170765Y-82355149D01*
X129103766Y-82305459D01*
X129041959Y-82249441D01*
X128985941Y-82187634D01*
X128936251Y-82120635D01*
X128893367Y-82049087D01*
X128857702Y-81973681D01*
X128829601Y-81895142D01*
X128809333Y-81814227D01*
X128797093Y-81731715D01*
X128793000Y-81648400D01*
X128793000Y-79948400D01*
X128797093Y-79865085D01*
X128809333Y-79782573D01*
X128829601Y-79701658D01*
X128857702Y-79623119D01*
X128893367Y-79547713D01*
X128936251Y-79476165D01*
X128985941Y-79409166D01*
X129041959Y-79347359D01*
X129103766Y-79291341D01*
X129170765Y-79241651D01*
X129242313Y-79198767D01*
X129317719Y-79163102D01*
X129396258Y-79135001D01*
X129477173Y-79114733D01*
X129559685Y-79102493D01*
X129643000Y-79098400D01*
X139343000Y-79098400D01*
X139426315Y-79102493D01*
X139426315Y-79102493D01*
G37*
D14*
X134493000Y-80798400D03*
G04 #@! TD*
M02*
