G04 #@! TF.GenerationSoftware,KiCad,Pcbnew,(5.0.0-rc2-66-g0a91f0b)*
G04 #@! TF.CreationDate,2018-07-23T17:51:53-04:00*
G04 #@! TF.ProjectId,airmount,6169726D6F756E742E6B696361645F70,rev?*
G04 #@! TF.SameCoordinates,Original*
G04 #@! TF.FileFunction,Copper,L1,Top,Signal*
G04 #@! TF.FilePolarity,Positive*
%FSLAX46Y46*%
G04 Gerber Fmt 4.6, Leading zero omitted, Abs format (unit mm)*
G04 Created by KiCad (PCBNEW (5.0.0-rc2-66-g0a91f0b)) date Monday, July 23, 2018 at 05:51:53 PM*
%MOMM*%
%LPD*%
G01*
G04 APERTURE LIST*
G04 #@! TA.AperFunction,ComponentPad*
%ADD10R,1.750000X1.750000*%
G04 #@! TD*
G04 #@! TA.AperFunction,ComponentPad*
%ADD11C,1.750000*%
G04 #@! TD*
G04 #@! TA.AperFunction,ComponentPad*
%ADD12C,4.000000*%
G04 #@! TD*
G04 #@! TA.AperFunction,Conductor*
%ADD13C,0.100000*%
G04 #@! TD*
G04 #@! TA.AperFunction,ComponentPad*
%ADD14C,3.000000*%
G04 #@! TD*
G04 #@! TA.AperFunction,ViaPad*
%ADD15C,0.800000*%
G04 #@! TD*
G04 #@! TA.AperFunction,Conductor*
%ADD16C,0.400000*%
G04 #@! TD*
G04 APERTURE END LIST*
D10*
G04 #@! TO.P,J1,1*
G04 #@! TO.N,Net-(J1-Pad1)*
X133350000Y-74930000D03*
D11*
G04 #@! TO.P,J1,2*
G04 #@! TO.N,GND*
X135850000Y-74930000D03*
G04 #@! TD*
D12*
G04 #@! TO.P,M1,2*
G04 #@! TO.N,GND*
X143390000Y-88587500D03*
G04 #@! TO.P,M1,1*
G04 #@! TO.N,Net-(J1-Pad1)*
X125390000Y-88587500D03*
G04 #@! TD*
D13*
G04 #@! TO.N,GND*
G04 #@! TO.C,M2*
G36*
X139316513Y-95302011D02*
X139389318Y-95312811D01*
X139460714Y-95330695D01*
X139530013Y-95355490D01*
X139596548Y-95386959D01*
X139659678Y-95424798D01*
X139718795Y-95468642D01*
X139773330Y-95518070D01*
X139822758Y-95572605D01*
X139866602Y-95631722D01*
X139904441Y-95694852D01*
X139935910Y-95761387D01*
X139960705Y-95830686D01*
X139978589Y-95902082D01*
X139989389Y-95974887D01*
X139993000Y-96048400D01*
X139993000Y-97548400D01*
X139989389Y-97621913D01*
X139978589Y-97694718D01*
X139960705Y-97766114D01*
X139935910Y-97835413D01*
X139904441Y-97901948D01*
X139866602Y-97965078D01*
X139822758Y-98024195D01*
X139773330Y-98078730D01*
X139718795Y-98128158D01*
X139659678Y-98172002D01*
X139596548Y-98209841D01*
X139530013Y-98241310D01*
X139460714Y-98266105D01*
X139389318Y-98283989D01*
X139316513Y-98294789D01*
X139243000Y-98298400D01*
X129743000Y-98298400D01*
X129669487Y-98294789D01*
X129596682Y-98283989D01*
X129525286Y-98266105D01*
X129455987Y-98241310D01*
X129389452Y-98209841D01*
X129326322Y-98172002D01*
X129267205Y-98128158D01*
X129212670Y-98078730D01*
X129163242Y-98024195D01*
X129119398Y-97965078D01*
X129081559Y-97901948D01*
X129050090Y-97835413D01*
X129025295Y-97766114D01*
X129007411Y-97694718D01*
X128996611Y-97621913D01*
X128993000Y-97548400D01*
X128993000Y-96048400D01*
X128996611Y-95974887D01*
X129007411Y-95902082D01*
X129025295Y-95830686D01*
X129050090Y-95761387D01*
X129081559Y-95694852D01*
X129119398Y-95631722D01*
X129163242Y-95572605D01*
X129212670Y-95518070D01*
X129267205Y-95468642D01*
X129326322Y-95424798D01*
X129389452Y-95386959D01*
X129455987Y-95355490D01*
X129525286Y-95330695D01*
X129596682Y-95312811D01*
X129669487Y-95302011D01*
X129743000Y-95298400D01*
X139243000Y-95298400D01*
X139316513Y-95302011D01*
X139316513Y-95302011D01*
G37*
D14*
G04 #@! TD*
G04 #@! TO.P,M2,2*
G04 #@! TO.N,GND*
X134493000Y-96798400D03*
D13*
G04 #@! TO.N,Net-(J1-Pad1)*
G04 #@! TO.C,M2*
G36*
X139316513Y-79302011D02*
X139389318Y-79312811D01*
X139460714Y-79330695D01*
X139530013Y-79355490D01*
X139596548Y-79386959D01*
X139659678Y-79424798D01*
X139718795Y-79468642D01*
X139773330Y-79518070D01*
X139822758Y-79572605D01*
X139866602Y-79631722D01*
X139904441Y-79694852D01*
X139935910Y-79761387D01*
X139960705Y-79830686D01*
X139978589Y-79902082D01*
X139989389Y-79974887D01*
X139993000Y-80048400D01*
X139993000Y-81548400D01*
X139989389Y-81621913D01*
X139978589Y-81694718D01*
X139960705Y-81766114D01*
X139935910Y-81835413D01*
X139904441Y-81901948D01*
X139866602Y-81965078D01*
X139822758Y-82024195D01*
X139773330Y-82078730D01*
X139718795Y-82128158D01*
X139659678Y-82172002D01*
X139596548Y-82209841D01*
X139530013Y-82241310D01*
X139460714Y-82266105D01*
X139389318Y-82283989D01*
X139316513Y-82294789D01*
X139243000Y-82298400D01*
X129743000Y-82298400D01*
X129669487Y-82294789D01*
X129596682Y-82283989D01*
X129525286Y-82266105D01*
X129455987Y-82241310D01*
X129389452Y-82209841D01*
X129326322Y-82172002D01*
X129267205Y-82128158D01*
X129212670Y-82078730D01*
X129163242Y-82024195D01*
X129119398Y-81965078D01*
X129081559Y-81901948D01*
X129050090Y-81835413D01*
X129025295Y-81766114D01*
X129007411Y-81694718D01*
X128996611Y-81621913D01*
X128993000Y-81548400D01*
X128993000Y-80048400D01*
X128996611Y-79974887D01*
X129007411Y-79902082D01*
X129025295Y-79830686D01*
X129050090Y-79761387D01*
X129081559Y-79694852D01*
X129119398Y-79631722D01*
X129163242Y-79572605D01*
X129212670Y-79518070D01*
X129267205Y-79468642D01*
X129326322Y-79424798D01*
X129389452Y-79386959D01*
X129455987Y-79355490D01*
X129525286Y-79330695D01*
X129596682Y-79312811D01*
X129669487Y-79302011D01*
X129743000Y-79298400D01*
X139243000Y-79298400D01*
X139316513Y-79302011D01*
X139316513Y-79302011D01*
G37*
D14*
G04 #@! TD*
G04 #@! TO.P,M2,1*
G04 #@! TO.N,Net-(J1-Pad1)*
X134493000Y-80798400D03*
D15*
G04 #@! TO.N,GND*
X142519400Y-94538800D03*
X143390000Y-83616800D03*
X142316200Y-81000600D03*
G04 #@! TD*
D16*
G04 #@! TO.N,GND*
X135850000Y-74578200D02*
X141478000Y-80096833D01*
X143390000Y-81972800D02*
X143390000Y-83616800D01*
X143332200Y-81915000D02*
X143390000Y-81972800D01*
X143390000Y-88587500D02*
X143390000Y-93668200D01*
X140259800Y-96798400D02*
X134493000Y-96798400D01*
X143390000Y-93668200D02*
X142519400Y-94538800D01*
X142519400Y-94538800D02*
X140259800Y-96798400D01*
X143390000Y-83616800D02*
X143390000Y-88587500D01*
X141478000Y-80096833D02*
X143332200Y-81915000D01*
G04 #@! TO.N,Net-(J1-Pad1)*
X133350000Y-79655400D02*
X134493000Y-80798400D01*
X133350000Y-74930000D02*
X133350000Y-79655400D01*
X127389999Y-86587501D02*
X125390000Y-88587500D01*
X131608390Y-82369110D02*
X127389999Y-86587501D01*
X132922290Y-82369110D02*
X131608390Y-82369110D01*
X134493000Y-80798400D02*
X132922290Y-82369110D01*
G04 #@! TD*
M02*
