G04 #@! TF.GenerationSoftware,KiCad,Pcbnew,(5.0.0-rc2-66-g0a91f0b)*
G04 #@! TF.CreationDate,2018-07-23T17:51:53-04:00*
G04 #@! TF.ProjectId,airmount,6169726D6F756E742E6B696361645F70,rev?*
G04 #@! TF.SameCoordinates,Original*
G04 #@! TF.FileFunction,Legend,Top*
G04 #@! TF.FilePolarity,Positive*
%FSLAX46Y46*%
G04 Gerber Fmt 4.6, Leading zero omitted, Abs format (unit mm)*
G04 Created by KiCad (PCBNEW (5.0.0-rc2-66-g0a91f0b)) date Monday, July 23, 2018 at 05:51:53 PM*
%MOMM*%
%LPD*%
G01*
G04 APERTURE LIST*
%ADD10C,0.120000*%
G04 APERTURE END LIST*
D10*
G04 #@! TO.C,J1*
X130800000Y-72480000D02*
X130800000Y-78430000D01*
X130800000Y-78430000D02*
X138400000Y-78430000D01*
X138400000Y-78430000D02*
X138400000Y-72480000D01*
X138400000Y-72480000D02*
X130800000Y-72480000D01*
X134100000Y-72480000D02*
X134100000Y-73230000D01*
X134100000Y-73230000D02*
X135100000Y-73230000D01*
X135100000Y-73230000D02*
X135100000Y-72480000D01*
X135100000Y-72480000D02*
X134100000Y-72480000D01*
X130800000Y-72480000D02*
X130800000Y-73230000D01*
X130800000Y-73230000D02*
X132600000Y-73230000D01*
X132600000Y-73230000D02*
X132600000Y-72480000D01*
X132600000Y-72480000D02*
X130800000Y-72480000D01*
X136600000Y-72480000D02*
X136600000Y-73230000D01*
X136600000Y-73230000D02*
X138400000Y-73230000D01*
X138400000Y-73230000D02*
X138400000Y-72480000D01*
X138400000Y-72480000D02*
X136600000Y-72480000D01*
X130800000Y-74730000D02*
X131550000Y-74730000D01*
X131550000Y-74730000D02*
X131550000Y-77680000D01*
X131550000Y-77680000D02*
X134600000Y-77680000D01*
X138400000Y-74730000D02*
X137650000Y-74730000D01*
X137650000Y-74730000D02*
X137650000Y-77680000D01*
X137650000Y-77680000D02*
X134600000Y-77680000D01*
X133000000Y-72180000D02*
X130500000Y-72180000D01*
X130500000Y-72180000D02*
X130500000Y-74680000D01*
G04 #@! TD*
M02*
