G04 #@! TF.FileFunction,Soldermask,Top*
%FSLAX46Y46*%
G04 Gerber Fmt 4.6, Leading zero omitted, Abs format (unit mm)*
G04 Created by KiCad (PCBNEW 4.0.6-e0-6349~53~ubuntu16.04.1) date Wed Aug  2 12:33:15 2017*
%MOMM*%
%LPD*%
G01*
G04 APERTURE LIST*
%ADD10C,0.100000*%
%ADD11O,1.727200X2.032000*%
%ADD12R,1.700000X1.700000*%
%ADD13O,1.700000X1.700000*%
%ADD14C,2.400000*%
%ADD15R,2.400000X2.400000*%
%ADD16O,1.500000X3.000000*%
%ADD17O,3.000000X1.500000*%
%ADD18C,1.599946*%
%ADD19R,1.000000X0.700000*%
%ADD20R,1.500000X1.300000*%
%ADD21R,1.600000X1.000000*%
%ADD22C,1.600000*%
%ADD23R,1.550000X1.300000*%
%ADD24R,1.250000X1.500000*%
%ADD25R,1.600000X2.600000*%
G04 APERTURE END LIST*
D10*
D11*
X138938000Y-123825000D03*
X141478000Y-123825000D03*
X144018000Y-123825000D03*
X146558000Y-123825000D03*
X149098000Y-123825000D03*
X151638000Y-123825000D03*
X154178000Y-123825000D03*
X156718000Y-123825000D03*
X161798000Y-123825000D03*
X164338000Y-123825000D03*
X166878000Y-123825000D03*
X169418000Y-123825000D03*
X171958000Y-123825000D03*
X174498000Y-123825000D03*
X129794000Y-75565000D03*
X132334000Y-75565000D03*
X134874000Y-75565000D03*
X137414000Y-75565000D03*
X139954000Y-75565000D03*
X142494000Y-75565000D03*
X145034000Y-75565000D03*
X147574000Y-75565000D03*
X150114000Y-75565000D03*
X152654000Y-75565000D03*
X156718000Y-75565000D03*
X159258000Y-75565000D03*
X161798000Y-75565000D03*
X164338000Y-75565000D03*
X166878000Y-75565000D03*
X169418000Y-75565000D03*
X171958000Y-75565000D03*
X174498000Y-75565000D03*
D12*
X164338000Y-80645000D03*
D13*
X164338000Y-83185000D03*
X164338000Y-85725000D03*
D12*
X161798000Y-80645000D03*
D13*
X161798000Y-83185000D03*
X161798000Y-85725000D03*
D14*
X173888400Y-113581300D03*
D15*
X173888400Y-117081300D03*
D12*
X159258000Y-80645000D03*
D13*
X159258000Y-83185000D03*
X159258000Y-85725000D03*
D14*
X173888400Y-105313600D03*
D15*
X173888400Y-108813600D03*
D12*
X123698000Y-83185000D03*
D13*
X123698000Y-85725000D03*
X123698000Y-88265000D03*
D12*
X114808000Y-75565000D03*
D13*
X117348000Y-75565000D03*
X119888000Y-75565000D03*
X122428000Y-75565000D03*
D16*
X121158000Y-109940000D03*
X119158000Y-109940000D03*
X123158000Y-109940000D03*
D17*
X130008000Y-100965000D03*
X130008000Y-98965000D03*
X130008000Y-102965000D03*
D18*
X127157988Y-94965012D03*
X115158012Y-106964988D03*
D19*
X174468000Y-97475000D03*
X174468000Y-98425000D03*
X174468000Y-99375000D03*
X177068000Y-99375000D03*
X177068000Y-97475000D03*
X177068000Y-98425000D03*
D20*
X142096500Y-87477600D03*
X144796500Y-87477600D03*
X172038000Y-85725000D03*
X169338000Y-85725000D03*
X170768000Y-94615000D03*
X168068000Y-94615000D03*
X168068000Y-99695000D03*
X170768000Y-99695000D03*
X174418000Y-92075000D03*
X177118000Y-92075000D03*
X169338000Y-81915000D03*
X172038000Y-81915000D03*
D21*
X133144900Y-84746900D03*
X133144900Y-81546900D03*
X128144900Y-84746900D03*
X128144900Y-81546900D03*
D22*
X151993600Y-82194400D03*
X149453600Y-82194400D03*
D23*
X139022000Y-103469000D03*
X139022000Y-98969000D03*
X146982000Y-98969000D03*
X146982000Y-103469000D03*
D24*
X162814000Y-111359000D03*
X162814000Y-108859000D03*
D25*
X163068000Y-96625000D03*
X163068000Y-100225000D03*
M02*
