G04 #@! TF.FileFunction,Copper,L2,Bot,Signal*
%FSLAX46Y46*%
G04 Gerber Fmt 4.6, Leading zero omitted, Abs format (unit mm)*
G04 Created by KiCad (PCBNEW 4.0.6-e0-6349~53~ubuntu16.04.1) date Wed Aug  2 12:33:15 2017*
%MOMM*%
%LPD*%
G01*
G04 APERTURE LIST*
%ADD10C,0.100000*%
%ADD11O,1.727200X2.032000*%
%ADD12R,1.700000X1.700000*%
%ADD13O,1.700000X1.700000*%
%ADD14C,2.400000*%
%ADD15R,2.400000X2.400000*%
%ADD16O,1.500000X3.000000*%
%ADD17O,3.000000X1.500000*%
%ADD18C,1.600000*%
%ADD19R,0.600000X0.152400*%
%ADD20R,1.500000X1.300000*%
%ADD21R,2.000000X3.500000*%
%ADD22R,7.000000X7.000000*%
%ADD23C,0.600000*%
%ADD24C,0.750000*%
%ADD25C,0.250000*%
%ADD26C,0.254000*%
G04 APERTURE END LIST*
D10*
D11*
X138938000Y-123825000D03*
X141478000Y-123825000D03*
X144018000Y-123825000D03*
X146558000Y-123825000D03*
X149098000Y-123825000D03*
X151638000Y-123825000D03*
X154178000Y-123825000D03*
X156718000Y-123825000D03*
X161798000Y-123825000D03*
X164338000Y-123825000D03*
X166878000Y-123825000D03*
X169418000Y-123825000D03*
X171958000Y-123825000D03*
X174498000Y-123825000D03*
X129794000Y-75565000D03*
X132334000Y-75565000D03*
X134874000Y-75565000D03*
X137414000Y-75565000D03*
X139954000Y-75565000D03*
X142494000Y-75565000D03*
X145034000Y-75565000D03*
X147574000Y-75565000D03*
X150114000Y-75565000D03*
X152654000Y-75565000D03*
X156718000Y-75565000D03*
X159258000Y-75565000D03*
X161798000Y-75565000D03*
X164338000Y-75565000D03*
X166878000Y-75565000D03*
X169418000Y-75565000D03*
X171958000Y-75565000D03*
X174498000Y-75565000D03*
D12*
X164338000Y-80645000D03*
D13*
X164338000Y-83185000D03*
X164338000Y-85725000D03*
D12*
X161798000Y-80645000D03*
D13*
X161798000Y-83185000D03*
X161798000Y-85725000D03*
D14*
X173888400Y-113581300D03*
D15*
X173888400Y-117081300D03*
D12*
X159258000Y-80645000D03*
D13*
X159258000Y-83185000D03*
X159258000Y-85725000D03*
D14*
X173888400Y-105313600D03*
D15*
X173888400Y-108813600D03*
D12*
X123698000Y-83185000D03*
D13*
X123698000Y-85725000D03*
X123698000Y-88265000D03*
D12*
X114808000Y-75565000D03*
D13*
X117348000Y-75565000D03*
X119888000Y-75565000D03*
X122428000Y-75565000D03*
D16*
X121158000Y-109940000D03*
X119158000Y-109940000D03*
X123158000Y-109940000D03*
D17*
X130008000Y-100965000D03*
X130008000Y-98965000D03*
X130008000Y-102965000D03*
D18*
X151993600Y-82194400D03*
X149453600Y-82194400D03*
D19*
X141458000Y-113553000D03*
D20*
X142508000Y-113553000D03*
X139808000Y-113553000D03*
D19*
X140858000Y-113553000D03*
X141458000Y-111553000D03*
D20*
X142508000Y-111553000D03*
X139808000Y-111553000D03*
D19*
X140858000Y-111553000D03*
X141458000Y-109553000D03*
D20*
X142508000Y-109553000D03*
X139808000Y-109553000D03*
D19*
X140858000Y-109553000D03*
X141458000Y-115553000D03*
D20*
X142508000Y-115553000D03*
X139808000Y-115553000D03*
D19*
X140858000Y-115553000D03*
D21*
X153186100Y-94459600D03*
X157766100Y-94459600D03*
D22*
X155486100Y-101859600D03*
D23*
X174498000Y-85725000D03*
X163068000Y-103505000D03*
X149352000Y-94615000D03*
X147320000Y-87757000D03*
X169338000Y-89455000D03*
X166878000Y-91440000D03*
X139700000Y-95377000D03*
X163068000Y-92583000D03*
X154432000Y-88011000D03*
D24*
X174498000Y-85725000D02*
X164338000Y-85725000D01*
X161798000Y-104775000D02*
X156718000Y-104775000D01*
X163068000Y-103505000D02*
X161798000Y-104775000D01*
X156718000Y-104775000D02*
X155486100Y-101859600D01*
X149507400Y-94459600D02*
X153186100Y-94459600D01*
X149352000Y-94615000D02*
X149507400Y-94459600D01*
D25*
X139808000Y-115553000D02*
X124570000Y-115553000D01*
X121158000Y-112141000D02*
X121158000Y-109940000D01*
X124570000Y-115553000D02*
X121158000Y-112141000D01*
X161798000Y-123825000D02*
X161798000Y-116459000D01*
X160892000Y-115553000D02*
X142508000Y-115553000D01*
X161798000Y-116459000D02*
X160892000Y-115553000D01*
X139808000Y-113553000D02*
X138826000Y-113553000D01*
X132334000Y-100965000D02*
X130008000Y-100965000D01*
X133096000Y-101727000D02*
X132334000Y-100965000D01*
X133096000Y-107823000D02*
X133096000Y-101727000D01*
X138826000Y-113553000D02*
X133096000Y-107823000D01*
X164338000Y-123825000D02*
X164338000Y-114935000D01*
X162956000Y-113553000D02*
X142508000Y-113553000D01*
X164338000Y-114935000D02*
X162956000Y-113553000D01*
X139808000Y-111553000D02*
X139366000Y-111553000D01*
X139366000Y-111553000D02*
X137414000Y-109601000D01*
X137414000Y-109601000D02*
X137414000Y-106807000D01*
X137414000Y-106807000D02*
X142494000Y-101727000D01*
X142494000Y-101727000D02*
X142494000Y-95377000D01*
X142494000Y-95377000D02*
X147320000Y-90551000D01*
X147320000Y-90551000D02*
X147320000Y-87757000D01*
X166878000Y-123825000D02*
X166878000Y-114427000D01*
X164004000Y-111553000D02*
X142508000Y-111553000D01*
X166878000Y-114427000D02*
X164004000Y-111553000D01*
X154686000Y-87310992D02*
X155509992Y-87310992D01*
X157549010Y-89350010D02*
X157664990Y-89350010D01*
X155509992Y-87310992D02*
X157549010Y-89350010D01*
X144018000Y-97155000D02*
X144018000Y-107143000D01*
X144018000Y-107143000D02*
X142508000Y-108653000D01*
X142508000Y-108653000D02*
X142508000Y-109553000D01*
X153862008Y-87310992D02*
X144018000Y-97155000D01*
X168148000Y-93345000D02*
X164819962Y-93345000D01*
X169338000Y-89879264D02*
X168148000Y-91069264D01*
X169338000Y-89455000D02*
X169338000Y-89879264D01*
X168148000Y-91069264D02*
X168148000Y-93345000D01*
X160824972Y-89350010D02*
X157664990Y-89350010D01*
X164819962Y-93345000D02*
X160824972Y-89350010D01*
X154721954Y-87310992D02*
X154686000Y-87310992D01*
X154686000Y-87310992D02*
X153862008Y-87310992D01*
X169418000Y-123825000D02*
X169418000Y-114173000D01*
X164798000Y-109553000D02*
X142508000Y-109553000D01*
X169418000Y-114173000D02*
X164798000Y-109553000D01*
X154178000Y-79629000D02*
X150114000Y-75565000D01*
X154178000Y-85090000D02*
X154178000Y-79629000D01*
X157988000Y-88900000D02*
X154178000Y-85090000D01*
X164338000Y-88900000D02*
X157988000Y-88900000D01*
X166878000Y-91440000D02*
X164338000Y-88900000D01*
X142494000Y-75565000D02*
X142494000Y-93091000D01*
X142494000Y-93091000D02*
X139700000Y-95377000D01*
D24*
X162560000Y-92075000D02*
X157766100Y-92075000D01*
X163068000Y-92583000D02*
X162560000Y-92075000D01*
X154432000Y-88011000D02*
X157766100Y-91345100D01*
X157766100Y-91345100D02*
X157766100Y-92075000D01*
X157766100Y-92075000D02*
X157766100Y-94459600D01*
X173888400Y-108813600D02*
X172186600Y-108813600D01*
X162912600Y-94459600D02*
X157766100Y-94459600D01*
X166243000Y-97790000D02*
X162912600Y-94459600D01*
X166243000Y-102870000D02*
X166243000Y-97790000D01*
X172186600Y-108813600D02*
X166243000Y-102870000D01*
D26*
G36*
X175308095Y-73823187D02*
X175712844Y-74227936D01*
X176328000Y-75396732D01*
X176328000Y-85979000D01*
X176382046Y-86250705D01*
X176535954Y-86481046D01*
X176578857Y-86523949D01*
X176698124Y-87060650D01*
X176718610Y-87106713D01*
X176738200Y-87128441D01*
X178868000Y-89002665D01*
X178868000Y-120990909D01*
X176535954Y-123322954D01*
X176382046Y-123553295D01*
X176328000Y-123825000D01*
X176328000Y-125655000D01*
X111884546Y-125655000D01*
X111869500Y-123640255D01*
X137439400Y-123640255D01*
X137439400Y-124009745D01*
X137553474Y-124583234D01*
X137878330Y-125069415D01*
X138364511Y-125394271D01*
X138938000Y-125508345D01*
X139511489Y-125394271D01*
X139997670Y-125069415D01*
X140208000Y-124754634D01*
X140418330Y-125069415D01*
X140904511Y-125394271D01*
X141478000Y-125508345D01*
X142051489Y-125394271D01*
X142537670Y-125069415D01*
X142748000Y-124754634D01*
X142958330Y-125069415D01*
X143444511Y-125394271D01*
X144018000Y-125508345D01*
X144591489Y-125394271D01*
X145077670Y-125069415D01*
X145288000Y-124754634D01*
X145498330Y-125069415D01*
X145984511Y-125394271D01*
X146558000Y-125508345D01*
X147131489Y-125394271D01*
X147617670Y-125069415D01*
X147828000Y-124754634D01*
X148038330Y-125069415D01*
X148524511Y-125394271D01*
X149098000Y-125508345D01*
X149671489Y-125394271D01*
X150157670Y-125069415D01*
X150364461Y-124759931D01*
X150735964Y-125175732D01*
X151263209Y-125429709D01*
X151278974Y-125432358D01*
X151511000Y-125311217D01*
X151511000Y-123952000D01*
X151765000Y-123952000D01*
X151765000Y-125311217D01*
X151997026Y-125432358D01*
X152012791Y-125429709D01*
X152540036Y-125175732D01*
X152908000Y-124763892D01*
X153275964Y-125175732D01*
X153803209Y-125429709D01*
X153818974Y-125432358D01*
X154051000Y-125311217D01*
X154051000Y-123952000D01*
X151765000Y-123952000D01*
X151511000Y-123952000D01*
X151491000Y-123952000D01*
X151491000Y-123698000D01*
X151511000Y-123698000D01*
X151511000Y-122338783D01*
X151765000Y-122338783D01*
X151765000Y-123698000D01*
X154051000Y-123698000D01*
X154051000Y-122338783D01*
X154305000Y-122338783D01*
X154305000Y-123698000D01*
X154325000Y-123698000D01*
X154325000Y-123952000D01*
X154305000Y-123952000D01*
X154305000Y-125311217D01*
X154537026Y-125432358D01*
X154552791Y-125429709D01*
X155080036Y-125175732D01*
X155451539Y-124759931D01*
X155658330Y-125069415D01*
X156144511Y-125394271D01*
X156718000Y-125508345D01*
X157291489Y-125394271D01*
X157777670Y-125069415D01*
X158102526Y-124583234D01*
X158216600Y-124009745D01*
X158216600Y-123640255D01*
X158102526Y-123066766D01*
X157777670Y-122580585D01*
X157291489Y-122255729D01*
X156718000Y-122141655D01*
X156144511Y-122255729D01*
X155658330Y-122580585D01*
X155451539Y-122890069D01*
X155080036Y-122474268D01*
X154552791Y-122220291D01*
X154537026Y-122217642D01*
X154305000Y-122338783D01*
X154051000Y-122338783D01*
X153818974Y-122217642D01*
X153803209Y-122220291D01*
X153275964Y-122474268D01*
X152908000Y-122886108D01*
X152540036Y-122474268D01*
X152012791Y-122220291D01*
X151997026Y-122217642D01*
X151765000Y-122338783D01*
X151511000Y-122338783D01*
X151278974Y-122217642D01*
X151263209Y-122220291D01*
X150735964Y-122474268D01*
X150364461Y-122890069D01*
X150157670Y-122580585D01*
X149671489Y-122255729D01*
X149098000Y-122141655D01*
X148524511Y-122255729D01*
X148038330Y-122580585D01*
X147828000Y-122895366D01*
X147617670Y-122580585D01*
X147131489Y-122255729D01*
X146558000Y-122141655D01*
X145984511Y-122255729D01*
X145498330Y-122580585D01*
X145288000Y-122895366D01*
X145077670Y-122580585D01*
X144591489Y-122255729D01*
X144018000Y-122141655D01*
X143444511Y-122255729D01*
X142958330Y-122580585D01*
X142748000Y-122895366D01*
X142537670Y-122580585D01*
X142051489Y-122255729D01*
X141478000Y-122141655D01*
X140904511Y-122255729D01*
X140418330Y-122580585D01*
X140208000Y-122895366D01*
X139997670Y-122580585D01*
X139511489Y-122255729D01*
X138938000Y-122141655D01*
X138364511Y-122255729D01*
X137878330Y-122580585D01*
X137553474Y-123066766D01*
X137439400Y-123640255D01*
X111869500Y-123640255D01*
X111768134Y-110067000D01*
X117773000Y-110067000D01*
X117773000Y-110817000D01*
X117927028Y-111337349D01*
X118268460Y-111759145D01*
X118745316Y-112018173D01*
X118816815Y-112032318D01*
X119031000Y-111909656D01*
X119031000Y-110067000D01*
X117773000Y-110067000D01*
X111768134Y-110067000D01*
X111760636Y-109063000D01*
X117773000Y-109063000D01*
X117773000Y-109813000D01*
X119031000Y-109813000D01*
X119031000Y-107970344D01*
X119285000Y-107970344D01*
X119285000Y-109813000D01*
X119305000Y-109813000D01*
X119305000Y-110067000D01*
X119285000Y-110067000D01*
X119285000Y-111909656D01*
X119499185Y-112032318D01*
X119570684Y-112018173D01*
X120047540Y-111759145D01*
X120136928Y-111648718D01*
X120178657Y-111711170D01*
X120398000Y-111857730D01*
X120398000Y-112141000D01*
X120455852Y-112431839D01*
X120620599Y-112678401D01*
X124032599Y-116090401D01*
X124279161Y-116255148D01*
X124570000Y-116313000D01*
X138431258Y-116313000D01*
X138454838Y-116438317D01*
X138593910Y-116654441D01*
X138806110Y-116799431D01*
X139058000Y-116850440D01*
X140558000Y-116850440D01*
X140793317Y-116806162D01*
X141009441Y-116667090D01*
X141154431Y-116454890D01*
X141157081Y-116441803D01*
X141293910Y-116654441D01*
X141506110Y-116799431D01*
X141758000Y-116850440D01*
X143258000Y-116850440D01*
X143493317Y-116806162D01*
X143709441Y-116667090D01*
X143854431Y-116454890D01*
X143883164Y-116313000D01*
X160577198Y-116313000D01*
X161038000Y-116773802D01*
X161038000Y-122380352D01*
X160738330Y-122580585D01*
X160413474Y-123066766D01*
X160299400Y-123640255D01*
X160299400Y-124009745D01*
X160413474Y-124583234D01*
X160738330Y-125069415D01*
X161224511Y-125394271D01*
X161798000Y-125508345D01*
X162371489Y-125394271D01*
X162857670Y-125069415D01*
X163068000Y-124754634D01*
X163278330Y-125069415D01*
X163764511Y-125394271D01*
X164338000Y-125508345D01*
X164911489Y-125394271D01*
X165397670Y-125069415D01*
X165608000Y-124754634D01*
X165818330Y-125069415D01*
X166304511Y-125394271D01*
X166878000Y-125508345D01*
X167451489Y-125394271D01*
X167937670Y-125069415D01*
X168148000Y-124754634D01*
X168358330Y-125069415D01*
X168844511Y-125394271D01*
X169418000Y-125508345D01*
X169991489Y-125394271D01*
X170477670Y-125069415D01*
X170688000Y-124754634D01*
X170898330Y-125069415D01*
X171384511Y-125394271D01*
X171958000Y-125508345D01*
X172531489Y-125394271D01*
X173017670Y-125069415D01*
X173228000Y-124754634D01*
X173438330Y-125069415D01*
X173924511Y-125394271D01*
X174498000Y-125508345D01*
X175071489Y-125394271D01*
X175557670Y-125069415D01*
X175882526Y-124583234D01*
X175996600Y-124009745D01*
X175996600Y-123640255D01*
X175882526Y-123066766D01*
X175557670Y-122580585D01*
X175071489Y-122255729D01*
X174498000Y-122141655D01*
X173924511Y-122255729D01*
X173438330Y-122580585D01*
X173228000Y-122895366D01*
X173017670Y-122580585D01*
X172531489Y-122255729D01*
X171958000Y-122141655D01*
X171384511Y-122255729D01*
X170898330Y-122580585D01*
X170688000Y-122895366D01*
X170477670Y-122580585D01*
X170178000Y-122380352D01*
X170178000Y-115881300D01*
X172040960Y-115881300D01*
X172040960Y-118281300D01*
X172085238Y-118516617D01*
X172224310Y-118732741D01*
X172436510Y-118877731D01*
X172688400Y-118928740D01*
X175088400Y-118928740D01*
X175323717Y-118884462D01*
X175539841Y-118745390D01*
X175684831Y-118533190D01*
X175735840Y-118281300D01*
X175735840Y-115881300D01*
X175691562Y-115645983D01*
X175552490Y-115429859D01*
X175340290Y-115284869D01*
X175088400Y-115233860D01*
X174694112Y-115233860D01*
X174926486Y-115137845D01*
X175443130Y-114622101D01*
X175723081Y-113947905D01*
X175723718Y-113217897D01*
X175444945Y-112543214D01*
X174929201Y-112026570D01*
X174255005Y-111746619D01*
X173524997Y-111745982D01*
X172850314Y-112024755D01*
X172333670Y-112540499D01*
X172053719Y-113214695D01*
X172053082Y-113944703D01*
X172331855Y-114619386D01*
X172847599Y-115136030D01*
X173083199Y-115233860D01*
X172688400Y-115233860D01*
X172453083Y-115278138D01*
X172236959Y-115417210D01*
X172091969Y-115629410D01*
X172040960Y-115881300D01*
X170178000Y-115881300D01*
X170178000Y-114173000D01*
X170120148Y-113882161D01*
X169955401Y-113635599D01*
X165335401Y-109015599D01*
X165088839Y-108850852D01*
X164798000Y-108793000D01*
X143884742Y-108793000D01*
X143861162Y-108667683D01*
X143746425Y-108489377D01*
X144555401Y-107680401D01*
X144720148Y-107433840D01*
X144756881Y-107249170D01*
X144778000Y-107143000D01*
X144778000Y-102145350D01*
X151351100Y-102145350D01*
X151351100Y-105485910D01*
X151447773Y-105719299D01*
X151626402Y-105897927D01*
X151859791Y-105994600D01*
X155200350Y-105994600D01*
X155359100Y-105835850D01*
X155359100Y-101986600D01*
X155613100Y-101986600D01*
X155613100Y-105835850D01*
X155771850Y-105994600D01*
X159112409Y-105994600D01*
X159345798Y-105897927D01*
X159524427Y-105719299D01*
X159621100Y-105485910D01*
X159621100Y-102145350D01*
X159462350Y-101986600D01*
X155613100Y-101986600D01*
X155359100Y-101986600D01*
X151509850Y-101986600D01*
X151351100Y-102145350D01*
X144778000Y-102145350D01*
X144778000Y-98233290D01*
X151351100Y-98233290D01*
X151351100Y-101573850D01*
X151509850Y-101732600D01*
X155359100Y-101732600D01*
X155359100Y-97883350D01*
X155613100Y-97883350D01*
X155613100Y-101732600D01*
X159462350Y-101732600D01*
X159621100Y-101573850D01*
X159621100Y-98233290D01*
X159524427Y-97999901D01*
X159345798Y-97821273D01*
X159112409Y-97724600D01*
X155771850Y-97724600D01*
X155613100Y-97883350D01*
X155359100Y-97883350D01*
X155200350Y-97724600D01*
X151859791Y-97724600D01*
X151626402Y-97821273D01*
X151447773Y-97999901D01*
X151351100Y-98233290D01*
X144778000Y-98233290D01*
X144778000Y-97469802D01*
X147632802Y-94615000D01*
X148342000Y-94615000D01*
X148418882Y-95001510D01*
X148637822Y-95329178D01*
X148965490Y-95548118D01*
X149352000Y-95625000D01*
X149738510Y-95548118D01*
X149856021Y-95469600D01*
X151538660Y-95469600D01*
X151538660Y-96209600D01*
X151582938Y-96444917D01*
X151722010Y-96661041D01*
X151934210Y-96806031D01*
X152186100Y-96857040D01*
X154186100Y-96857040D01*
X154421417Y-96812762D01*
X154637541Y-96673690D01*
X154782531Y-96461490D01*
X154833540Y-96209600D01*
X154833540Y-92709600D01*
X154789262Y-92474283D01*
X154650190Y-92258159D01*
X154437990Y-92113169D01*
X154186100Y-92062160D01*
X152186100Y-92062160D01*
X151950783Y-92106438D01*
X151734659Y-92245510D01*
X151589669Y-92457710D01*
X151538660Y-92709600D01*
X151538660Y-93449600D01*
X149507400Y-93449600D01*
X149120890Y-93526482D01*
X148793222Y-93745422D01*
X148637822Y-93900822D01*
X148418882Y-94228490D01*
X148342000Y-94615000D01*
X147632802Y-94615000D01*
X153639637Y-88608165D01*
X153717822Y-88725178D01*
X156756100Y-91763456D01*
X156756100Y-92064042D01*
X156530783Y-92106438D01*
X156314659Y-92245510D01*
X156169669Y-92457710D01*
X156118660Y-92709600D01*
X156118660Y-96209600D01*
X156162938Y-96444917D01*
X156302010Y-96661041D01*
X156514210Y-96806031D01*
X156766100Y-96857040D01*
X158766100Y-96857040D01*
X159001417Y-96812762D01*
X159217541Y-96673690D01*
X159362531Y-96461490D01*
X159413540Y-96209600D01*
X159413540Y-95469600D01*
X162494244Y-95469600D01*
X165233000Y-98208356D01*
X165233000Y-102870000D01*
X165309882Y-103256510D01*
X165528822Y-103584178D01*
X171472422Y-109527778D01*
X171800090Y-109746718D01*
X172040960Y-109794630D01*
X172040960Y-110013600D01*
X172085238Y-110248917D01*
X172224310Y-110465041D01*
X172436510Y-110610031D01*
X172688400Y-110661040D01*
X175088400Y-110661040D01*
X175323717Y-110616762D01*
X175539841Y-110477690D01*
X175684831Y-110265490D01*
X175735840Y-110013600D01*
X175735840Y-107613600D01*
X175691562Y-107378283D01*
X175552490Y-107162159D01*
X175340290Y-107017169D01*
X175088400Y-106966160D01*
X174694112Y-106966160D01*
X174926486Y-106870145D01*
X175443130Y-106354401D01*
X175723081Y-105680205D01*
X175723718Y-104950197D01*
X175444945Y-104275514D01*
X174929201Y-103758870D01*
X174255005Y-103478919D01*
X173524997Y-103478282D01*
X172850314Y-103757055D01*
X172333670Y-104272799D01*
X172053719Y-104946995D01*
X172053082Y-105677003D01*
X172331855Y-106351686D01*
X172847599Y-106868330D01*
X173083199Y-106966160D01*
X172688400Y-106966160D01*
X172453083Y-107010438D01*
X172236959Y-107149510D01*
X172120829Y-107319473D01*
X167253000Y-102451644D01*
X167253000Y-97790000D01*
X167176118Y-97403490D01*
X166957178Y-97075822D01*
X163626778Y-93745422D01*
X163322807Y-93542316D01*
X163454510Y-93516118D01*
X163731320Y-93331160D01*
X164282561Y-93882401D01*
X164529123Y-94047148D01*
X164819962Y-94105000D01*
X168148000Y-94105000D01*
X168438839Y-94047148D01*
X168685401Y-93882401D01*
X168850148Y-93635839D01*
X168908000Y-93345000D01*
X168908000Y-91384066D01*
X169875401Y-90416665D01*
X170040148Y-90170103D01*
X170063699Y-90051704D01*
X170130192Y-89985327D01*
X170272838Y-89641799D01*
X170273162Y-89269833D01*
X170131117Y-88926057D01*
X169868327Y-88662808D01*
X169524799Y-88520162D01*
X169152833Y-88519838D01*
X168809057Y-88661883D01*
X168545808Y-88924673D01*
X168403162Y-89268201D01*
X168402838Y-89640167D01*
X168431917Y-89710545D01*
X167610599Y-90531863D01*
X167483087Y-90722699D01*
X167408327Y-90647808D01*
X167064799Y-90505162D01*
X167017923Y-90505121D01*
X164875401Y-88362599D01*
X164628839Y-88197852D01*
X164338000Y-88140000D01*
X158302802Y-88140000D01*
X156244692Y-86081890D01*
X157816524Y-86081890D01*
X157986355Y-86491924D01*
X158376642Y-86920183D01*
X158901108Y-87166486D01*
X159131000Y-87045819D01*
X159131000Y-85852000D01*
X159385000Y-85852000D01*
X159385000Y-87045819D01*
X159614892Y-87166486D01*
X160139358Y-86920183D01*
X160528000Y-86493729D01*
X160916642Y-86920183D01*
X161441108Y-87166486D01*
X161671000Y-87045819D01*
X161671000Y-85852000D01*
X161925000Y-85852000D01*
X161925000Y-87045819D01*
X162154892Y-87166486D01*
X162679358Y-86920183D01*
X163068000Y-86493729D01*
X163456642Y-86920183D01*
X163981108Y-87166486D01*
X164211000Y-87045819D01*
X164211000Y-85852000D01*
X164465000Y-85852000D01*
X164465000Y-87045819D01*
X164694892Y-87166486D01*
X165219358Y-86920183D01*
X165609645Y-86491924D01*
X165779476Y-86081890D01*
X165658155Y-85852000D01*
X164465000Y-85852000D01*
X164211000Y-85852000D01*
X161925000Y-85852000D01*
X161671000Y-85852000D01*
X159385000Y-85852000D01*
X159131000Y-85852000D01*
X157937845Y-85852000D01*
X157816524Y-86081890D01*
X156244692Y-86081890D01*
X154938000Y-84775198D01*
X154938000Y-83185000D01*
X157743907Y-83185000D01*
X157856946Y-83753285D01*
X158178853Y-84235054D01*
X158519553Y-84462702D01*
X158376642Y-84529817D01*
X157986355Y-84958076D01*
X157816524Y-85368110D01*
X157937845Y-85598000D01*
X159131000Y-85598000D01*
X159131000Y-85578000D01*
X159385000Y-85578000D01*
X159385000Y-85598000D01*
X161671000Y-85598000D01*
X161671000Y-85578000D01*
X161925000Y-85578000D01*
X161925000Y-85598000D01*
X164211000Y-85598000D01*
X164211000Y-85578000D01*
X164465000Y-85578000D01*
X164465000Y-85598000D01*
X165658155Y-85598000D01*
X165779476Y-85368110D01*
X165609645Y-84958076D01*
X165219358Y-84529817D01*
X165076447Y-84462702D01*
X165417147Y-84235054D01*
X165739054Y-83753285D01*
X165852093Y-83185000D01*
X165739054Y-82616715D01*
X165417147Y-82134946D01*
X165375548Y-82107150D01*
X165423317Y-82098162D01*
X165639441Y-81959090D01*
X165784431Y-81746890D01*
X165835440Y-81495000D01*
X165835440Y-79795000D01*
X165791162Y-79559683D01*
X165652090Y-79343559D01*
X165439890Y-79198569D01*
X165188000Y-79147560D01*
X163488000Y-79147560D01*
X163252683Y-79191838D01*
X163065923Y-79312015D01*
X162899890Y-79198569D01*
X162648000Y-79147560D01*
X160948000Y-79147560D01*
X160712683Y-79191838D01*
X160525923Y-79312015D01*
X160359890Y-79198569D01*
X160108000Y-79147560D01*
X158408000Y-79147560D01*
X158172683Y-79191838D01*
X157956559Y-79330910D01*
X157811569Y-79543110D01*
X157760560Y-79795000D01*
X157760560Y-81495000D01*
X157804838Y-81730317D01*
X157943910Y-81946441D01*
X158156110Y-82091431D01*
X158223541Y-82105086D01*
X158178853Y-82134946D01*
X157856946Y-82616715D01*
X157743907Y-83185000D01*
X154938000Y-83185000D01*
X154938000Y-79629000D01*
X154880148Y-79338161D01*
X154715401Y-79091599D01*
X152835954Y-77212152D01*
X153227489Y-77134271D01*
X153713670Y-76809415D01*
X154038526Y-76323234D01*
X154152600Y-75749745D01*
X154152600Y-75380255D01*
X155219400Y-75380255D01*
X155219400Y-75749745D01*
X155333474Y-76323234D01*
X155658330Y-76809415D01*
X156144511Y-77134271D01*
X156718000Y-77248345D01*
X157291489Y-77134271D01*
X157777670Y-76809415D01*
X157988000Y-76494634D01*
X158198330Y-76809415D01*
X158684511Y-77134271D01*
X159258000Y-77248345D01*
X159831489Y-77134271D01*
X160317670Y-76809415D01*
X160528000Y-76494634D01*
X160738330Y-76809415D01*
X161224511Y-77134271D01*
X161798000Y-77248345D01*
X162371489Y-77134271D01*
X162857670Y-76809415D01*
X163068000Y-76494634D01*
X163278330Y-76809415D01*
X163764511Y-77134271D01*
X164338000Y-77248345D01*
X164911489Y-77134271D01*
X165397670Y-76809415D01*
X165608000Y-76494634D01*
X165818330Y-76809415D01*
X166304511Y-77134271D01*
X166878000Y-77248345D01*
X167451489Y-77134271D01*
X167937670Y-76809415D01*
X168148000Y-76494634D01*
X168358330Y-76809415D01*
X168844511Y-77134271D01*
X169418000Y-77248345D01*
X169991489Y-77134271D01*
X170477670Y-76809415D01*
X170688000Y-76494634D01*
X170898330Y-76809415D01*
X171384511Y-77134271D01*
X171958000Y-77248345D01*
X172531489Y-77134271D01*
X173017670Y-76809415D01*
X173228000Y-76494634D01*
X173438330Y-76809415D01*
X173924511Y-77134271D01*
X174498000Y-77248345D01*
X175071489Y-77134271D01*
X175557670Y-76809415D01*
X175882526Y-76323234D01*
X175996600Y-75749745D01*
X175996600Y-75380255D01*
X175882526Y-74806766D01*
X175557670Y-74320585D01*
X175071489Y-73995729D01*
X174498000Y-73881655D01*
X173924511Y-73995729D01*
X173438330Y-74320585D01*
X173228000Y-74635366D01*
X173017670Y-74320585D01*
X172531489Y-73995729D01*
X171958000Y-73881655D01*
X171384511Y-73995729D01*
X170898330Y-74320585D01*
X170688000Y-74635366D01*
X170477670Y-74320585D01*
X169991489Y-73995729D01*
X169418000Y-73881655D01*
X168844511Y-73995729D01*
X168358330Y-74320585D01*
X168148000Y-74635366D01*
X167937670Y-74320585D01*
X167451489Y-73995729D01*
X166878000Y-73881655D01*
X166304511Y-73995729D01*
X165818330Y-74320585D01*
X165608000Y-74635366D01*
X165397670Y-74320585D01*
X164911489Y-73995729D01*
X164338000Y-73881655D01*
X163764511Y-73995729D01*
X163278330Y-74320585D01*
X163068000Y-74635366D01*
X162857670Y-74320585D01*
X162371489Y-73995729D01*
X161798000Y-73881655D01*
X161224511Y-73995729D01*
X160738330Y-74320585D01*
X160528000Y-74635366D01*
X160317670Y-74320585D01*
X159831489Y-73995729D01*
X159258000Y-73881655D01*
X158684511Y-73995729D01*
X158198330Y-74320585D01*
X157988000Y-74635366D01*
X157777670Y-74320585D01*
X157291489Y-73995729D01*
X156718000Y-73881655D01*
X156144511Y-73995729D01*
X155658330Y-74320585D01*
X155333474Y-74806766D01*
X155219400Y-75380255D01*
X154152600Y-75380255D01*
X154038526Y-74806766D01*
X153713670Y-74320585D01*
X153227489Y-73995729D01*
X152654000Y-73881655D01*
X152080511Y-73995729D01*
X151594330Y-74320585D01*
X151384000Y-74635366D01*
X151173670Y-74320585D01*
X150687489Y-73995729D01*
X150114000Y-73881655D01*
X149540511Y-73995729D01*
X149054330Y-74320585D01*
X148844000Y-74635366D01*
X148633670Y-74320585D01*
X148147489Y-73995729D01*
X147574000Y-73881655D01*
X147000511Y-73995729D01*
X146514330Y-74320585D01*
X146304000Y-74635366D01*
X146093670Y-74320585D01*
X145607489Y-73995729D01*
X145034000Y-73881655D01*
X144460511Y-73995729D01*
X143974330Y-74320585D01*
X143764000Y-74635366D01*
X143553670Y-74320585D01*
X143067489Y-73995729D01*
X142494000Y-73881655D01*
X141920511Y-73995729D01*
X141434330Y-74320585D01*
X141224000Y-74635366D01*
X141013670Y-74320585D01*
X140527489Y-73995729D01*
X139954000Y-73881655D01*
X139380511Y-73995729D01*
X138894330Y-74320585D01*
X138687539Y-74630069D01*
X138316036Y-74214268D01*
X137788791Y-73960291D01*
X137773026Y-73957642D01*
X137541000Y-74078783D01*
X137541000Y-75438000D01*
X137561000Y-75438000D01*
X137561000Y-75692000D01*
X137541000Y-75692000D01*
X137541000Y-77051217D01*
X137773026Y-77172358D01*
X137788791Y-77169709D01*
X138316036Y-76915732D01*
X138687539Y-76499931D01*
X138894330Y-76809415D01*
X139380511Y-77134271D01*
X139954000Y-77248345D01*
X140527489Y-77134271D01*
X141013670Y-76809415D01*
X141224000Y-76494634D01*
X141434330Y-76809415D01*
X141734000Y-77009648D01*
X141734000Y-92730852D01*
X139642658Y-94441949D01*
X139514833Y-94441838D01*
X139171057Y-94583883D01*
X138907808Y-94846673D01*
X138765162Y-95190201D01*
X138764838Y-95562167D01*
X138906883Y-95905943D01*
X139169673Y-96169192D01*
X139513201Y-96311838D01*
X139885167Y-96312162D01*
X140228943Y-96170117D01*
X140492192Y-95907327D01*
X140615782Y-95609691D01*
X142975261Y-93679208D01*
X142999584Y-93649661D01*
X143031401Y-93628401D01*
X143093119Y-93536033D01*
X143163723Y-93450263D01*
X143174886Y-93413659D01*
X143196148Y-93381839D01*
X143217821Y-93272881D01*
X143250228Y-93166623D01*
X143246534Y-93128534D01*
X143254000Y-93091000D01*
X143254000Y-77009648D01*
X143553670Y-76809415D01*
X143764000Y-76494634D01*
X143974330Y-76809415D01*
X144460511Y-77134271D01*
X145034000Y-77248345D01*
X145607489Y-77134271D01*
X146093670Y-76809415D01*
X146304000Y-76494634D01*
X146514330Y-76809415D01*
X147000511Y-77134271D01*
X147574000Y-77248345D01*
X148147489Y-77134271D01*
X148633670Y-76809415D01*
X148844000Y-76494634D01*
X149054330Y-76809415D01*
X149540511Y-77134271D01*
X150114000Y-77248345D01*
X150621579Y-77147381D01*
X153418000Y-79943802D01*
X153418000Y-81883959D01*
X153210843Y-81382600D01*
X152807523Y-80978576D01*
X152280291Y-80759650D01*
X151709413Y-80759152D01*
X151181800Y-80977157D01*
X150777776Y-81380477D01*
X150723738Y-81510615D01*
X150670843Y-81382600D01*
X150267523Y-80978576D01*
X149740291Y-80759650D01*
X149169413Y-80759152D01*
X148641800Y-80977157D01*
X148237776Y-81380477D01*
X148018850Y-81907709D01*
X148018352Y-82478587D01*
X148236357Y-83006200D01*
X148639677Y-83410224D01*
X149166909Y-83629150D01*
X149737787Y-83629648D01*
X150265400Y-83411643D01*
X150669424Y-83008323D01*
X150723462Y-82878185D01*
X150776357Y-83006200D01*
X151179677Y-83410224D01*
X151706909Y-83629150D01*
X152277787Y-83629648D01*
X152805400Y-83411643D01*
X153209424Y-83008323D01*
X153418000Y-82506017D01*
X153418000Y-85090000D01*
X153475852Y-85380839D01*
X153640599Y-85627401D01*
X154564190Y-86550992D01*
X153862008Y-86550992D01*
X153571169Y-86608844D01*
X153324607Y-86773591D01*
X143480599Y-96617599D01*
X143315852Y-96864161D01*
X143258000Y-97155000D01*
X143258000Y-106828198D01*
X141970599Y-108115599D01*
X141877080Y-108255560D01*
X141758000Y-108255560D01*
X141522683Y-108299838D01*
X141306559Y-108438910D01*
X141161569Y-108651110D01*
X141158919Y-108664197D01*
X141022090Y-108451559D01*
X140809890Y-108306569D01*
X140558000Y-108255560D01*
X139058000Y-108255560D01*
X138822683Y-108299838D01*
X138606559Y-108438910D01*
X138461569Y-108651110D01*
X138410560Y-108903000D01*
X138410560Y-109522758D01*
X138174000Y-109286198D01*
X138174000Y-107121802D01*
X143031401Y-102264401D01*
X143196148Y-102017839D01*
X143254000Y-101727000D01*
X143254000Y-95691802D01*
X147857401Y-91088401D01*
X148022148Y-90841839D01*
X148080000Y-90551000D01*
X148080000Y-88319463D01*
X148112192Y-88287327D01*
X148254838Y-87943799D01*
X148255162Y-87571833D01*
X148113117Y-87228057D01*
X147850327Y-86964808D01*
X147506799Y-86822162D01*
X147134833Y-86821838D01*
X146791057Y-86963883D01*
X146527808Y-87226673D01*
X146385162Y-87570201D01*
X146384838Y-87942167D01*
X146526883Y-88285943D01*
X146560000Y-88319118D01*
X146560000Y-90236198D01*
X141956599Y-94839599D01*
X141791852Y-95086161D01*
X141734000Y-95377000D01*
X141734000Y-101412198D01*
X136876599Y-106269599D01*
X136711852Y-106516161D01*
X136654000Y-106807000D01*
X136654000Y-109601000D01*
X136711852Y-109891839D01*
X136876599Y-110138401D01*
X138410560Y-111672362D01*
X138410560Y-112062758D01*
X133856000Y-107508198D01*
X133856000Y-101727000D01*
X133798148Y-101436161D01*
X133633401Y-101189599D01*
X132871401Y-100427599D01*
X132624839Y-100262852D01*
X132334000Y-100205000D01*
X131925730Y-100205000D01*
X131779170Y-99985657D01*
X131748255Y-99965000D01*
X131779170Y-99944343D01*
X132079400Y-99495017D01*
X132184827Y-98965000D01*
X132079400Y-98434983D01*
X131779170Y-97985657D01*
X131329844Y-97685427D01*
X130799827Y-97580000D01*
X129216173Y-97580000D01*
X128686156Y-97685427D01*
X128236830Y-97985657D01*
X127936600Y-98434983D01*
X127831173Y-98965000D01*
X127936600Y-99495017D01*
X128236830Y-99944343D01*
X128267745Y-99965000D01*
X128236830Y-99985657D01*
X127936600Y-100434983D01*
X127831173Y-100965000D01*
X127936600Y-101495017D01*
X128236830Y-101944343D01*
X128299282Y-101986072D01*
X128188855Y-102075460D01*
X127929827Y-102552316D01*
X127915682Y-102623815D01*
X128038344Y-102838000D01*
X129881000Y-102838000D01*
X129881000Y-102818000D01*
X130135000Y-102818000D01*
X130135000Y-102838000D01*
X131977656Y-102838000D01*
X132100318Y-102623815D01*
X132086173Y-102552316D01*
X131827145Y-102075460D01*
X131716718Y-101986072D01*
X131779170Y-101944343D01*
X131925730Y-101725000D01*
X132019198Y-101725000D01*
X132336000Y-102041802D01*
X132336000Y-107823000D01*
X132393852Y-108113839D01*
X132558599Y-108360401D01*
X138288599Y-114090401D01*
X138410560Y-114171893D01*
X138410560Y-114203000D01*
X138454838Y-114438317D01*
X138528620Y-114552978D01*
X138461569Y-114651110D01*
X138432836Y-114793000D01*
X124884802Y-114793000D01*
X121936902Y-111845100D01*
X122137343Y-111711170D01*
X122158000Y-111680255D01*
X122178657Y-111711170D01*
X122627983Y-112011400D01*
X123158000Y-112116827D01*
X123688017Y-112011400D01*
X124137343Y-111711170D01*
X124437573Y-111261844D01*
X124543000Y-110731827D01*
X124543000Y-109148173D01*
X124437573Y-108618156D01*
X124137343Y-108168830D01*
X123688017Y-107868600D01*
X123158000Y-107763173D01*
X122627983Y-107868600D01*
X122178657Y-108168830D01*
X122158000Y-108199745D01*
X122137343Y-108168830D01*
X121688017Y-107868600D01*
X121158000Y-107763173D01*
X120627983Y-107868600D01*
X120178657Y-108168830D01*
X120136928Y-108231282D01*
X120047540Y-108120855D01*
X119570684Y-107861827D01*
X119499185Y-107847682D01*
X119285000Y-107970344D01*
X119031000Y-107970344D01*
X118816815Y-107847682D01*
X118745316Y-107861827D01*
X118268460Y-108120855D01*
X117927028Y-108542651D01*
X117773000Y-109063000D01*
X111760636Y-109063000D01*
X111747090Y-107249170D01*
X113722790Y-107249170D01*
X113940792Y-107776773D01*
X114344104Y-108180790D01*
X114871326Y-108399712D01*
X115442194Y-108400210D01*
X115969797Y-108182208D01*
X116373814Y-107778896D01*
X116592736Y-107251674D01*
X116593234Y-106680806D01*
X116375232Y-106153203D01*
X115971920Y-105749186D01*
X115444698Y-105530264D01*
X114873830Y-105529766D01*
X114346227Y-105747768D01*
X113942210Y-106151080D01*
X113723288Y-106678302D01*
X113722790Y-107249170D01*
X111747090Y-107249170D01*
X111717644Y-103306185D01*
X127915682Y-103306185D01*
X127929827Y-103377684D01*
X128188855Y-103854540D01*
X128610651Y-104195972D01*
X129131000Y-104350000D01*
X129881000Y-104350000D01*
X129881000Y-103092000D01*
X130135000Y-103092000D01*
X130135000Y-104350000D01*
X130885000Y-104350000D01*
X131405349Y-104195972D01*
X131827145Y-103854540D01*
X132086173Y-103377684D01*
X132100318Y-103306185D01*
X131977656Y-103092000D01*
X130135000Y-103092000D01*
X129881000Y-103092000D01*
X128038344Y-103092000D01*
X127915682Y-103306185D01*
X111717644Y-103306185D01*
X111708000Y-102014916D01*
X111708000Y-95249194D01*
X125722766Y-95249194D01*
X125940768Y-95776797D01*
X126344080Y-96180814D01*
X126871302Y-96399736D01*
X127442170Y-96400234D01*
X127969773Y-96182232D01*
X128373790Y-95778920D01*
X128592712Y-95251698D01*
X128593210Y-94680830D01*
X128375208Y-94153227D01*
X127971896Y-93749210D01*
X127444674Y-93530288D01*
X126873806Y-93529790D01*
X126346203Y-93747792D01*
X125942186Y-94151104D01*
X125723264Y-94678326D01*
X125722766Y-95249194D01*
X111708000Y-95249194D01*
X111708000Y-88621890D01*
X122256524Y-88621890D01*
X122426355Y-89031924D01*
X122816642Y-89460183D01*
X123341108Y-89706486D01*
X123571000Y-89585819D01*
X123571000Y-88392000D01*
X123825000Y-88392000D01*
X123825000Y-89585819D01*
X124054892Y-89706486D01*
X124579358Y-89460183D01*
X124969645Y-89031924D01*
X125139476Y-88621890D01*
X125018155Y-88392000D01*
X123825000Y-88392000D01*
X123571000Y-88392000D01*
X122377845Y-88392000D01*
X122256524Y-88621890D01*
X111708000Y-88621890D01*
X111708000Y-85725000D01*
X122183907Y-85725000D01*
X122296946Y-86293285D01*
X122618853Y-86775054D01*
X122959553Y-87002702D01*
X122816642Y-87069817D01*
X122426355Y-87498076D01*
X122256524Y-87908110D01*
X122377845Y-88138000D01*
X123571000Y-88138000D01*
X123571000Y-88118000D01*
X123825000Y-88118000D01*
X123825000Y-88138000D01*
X125018155Y-88138000D01*
X125139476Y-87908110D01*
X124969645Y-87498076D01*
X124579358Y-87069817D01*
X124436447Y-87002702D01*
X124777147Y-86775054D01*
X125099054Y-86293285D01*
X125212093Y-85725000D01*
X125099054Y-85156715D01*
X124777147Y-84674946D01*
X124735548Y-84647150D01*
X124783317Y-84638162D01*
X124999441Y-84499090D01*
X125144431Y-84286890D01*
X125195440Y-84035000D01*
X125195440Y-82335000D01*
X125151162Y-82099683D01*
X125012090Y-81883559D01*
X124799890Y-81738569D01*
X124548000Y-81687560D01*
X122848000Y-81687560D01*
X122612683Y-81731838D01*
X122396559Y-81870910D01*
X122251569Y-82083110D01*
X122200560Y-82335000D01*
X122200560Y-84035000D01*
X122244838Y-84270317D01*
X122383910Y-84486441D01*
X122596110Y-84631431D01*
X122663541Y-84645086D01*
X122618853Y-84674946D01*
X122296946Y-85156715D01*
X122183907Y-85725000D01*
X111708000Y-85725000D01*
X111708000Y-74715000D01*
X113310560Y-74715000D01*
X113310560Y-76415000D01*
X113354838Y-76650317D01*
X113493910Y-76866441D01*
X113706110Y-77011431D01*
X113958000Y-77062440D01*
X115658000Y-77062440D01*
X115893317Y-77018162D01*
X116109441Y-76879090D01*
X116254431Y-76666890D01*
X116268086Y-76599459D01*
X116297946Y-76644147D01*
X116779715Y-76966054D01*
X117348000Y-77079093D01*
X117916285Y-76966054D01*
X118398054Y-76644147D01*
X118618000Y-76314974D01*
X118837946Y-76644147D01*
X119319715Y-76966054D01*
X119888000Y-77079093D01*
X120456285Y-76966054D01*
X120938054Y-76644147D01*
X121165702Y-76303447D01*
X121232817Y-76446358D01*
X121661076Y-76836645D01*
X122071110Y-77006476D01*
X122301000Y-76885155D01*
X122301000Y-75692000D01*
X122555000Y-75692000D01*
X122555000Y-76885155D01*
X122784890Y-77006476D01*
X123194924Y-76836645D01*
X123623183Y-76446358D01*
X123869486Y-75921892D01*
X123748819Y-75692000D01*
X122555000Y-75692000D01*
X122301000Y-75692000D01*
X122281000Y-75692000D01*
X122281000Y-75438000D01*
X122301000Y-75438000D01*
X122301000Y-74244845D01*
X122555000Y-74244845D01*
X122555000Y-75438000D01*
X123748819Y-75438000D01*
X123779128Y-75380255D01*
X128295400Y-75380255D01*
X128295400Y-75749745D01*
X128409474Y-76323234D01*
X128734330Y-76809415D01*
X129220511Y-77134271D01*
X129794000Y-77248345D01*
X130367489Y-77134271D01*
X130853670Y-76809415D01*
X131064000Y-76494634D01*
X131274330Y-76809415D01*
X131760511Y-77134271D01*
X132334000Y-77248345D01*
X132907489Y-77134271D01*
X133393670Y-76809415D01*
X133604000Y-76494634D01*
X133814330Y-76809415D01*
X134300511Y-77134271D01*
X134874000Y-77248345D01*
X135447489Y-77134271D01*
X135933670Y-76809415D01*
X136140461Y-76499931D01*
X136511964Y-76915732D01*
X137039209Y-77169709D01*
X137054974Y-77172358D01*
X137287000Y-77051217D01*
X137287000Y-75692000D01*
X137267000Y-75692000D01*
X137267000Y-75438000D01*
X137287000Y-75438000D01*
X137287000Y-74078783D01*
X137054974Y-73957642D01*
X137039209Y-73960291D01*
X136511964Y-74214268D01*
X136140461Y-74630069D01*
X135933670Y-74320585D01*
X135447489Y-73995729D01*
X134874000Y-73881655D01*
X134300511Y-73995729D01*
X133814330Y-74320585D01*
X133604000Y-74635366D01*
X133393670Y-74320585D01*
X132907489Y-73995729D01*
X132334000Y-73881655D01*
X131760511Y-73995729D01*
X131274330Y-74320585D01*
X131064000Y-74635366D01*
X130853670Y-74320585D01*
X130367489Y-73995729D01*
X129794000Y-73881655D01*
X129220511Y-73995729D01*
X128734330Y-74320585D01*
X128409474Y-74806766D01*
X128295400Y-75380255D01*
X123779128Y-75380255D01*
X123869486Y-75208108D01*
X123623183Y-74683642D01*
X123194924Y-74293355D01*
X122784890Y-74123524D01*
X122555000Y-74244845D01*
X122301000Y-74244845D01*
X122071110Y-74123524D01*
X121661076Y-74293355D01*
X121232817Y-74683642D01*
X121165702Y-74826553D01*
X120938054Y-74485853D01*
X120456285Y-74163946D01*
X119888000Y-74050907D01*
X119319715Y-74163946D01*
X118837946Y-74485853D01*
X118618000Y-74815026D01*
X118398054Y-74485853D01*
X117916285Y-74163946D01*
X117348000Y-74050907D01*
X116779715Y-74163946D01*
X116297946Y-74485853D01*
X116270150Y-74527452D01*
X116261162Y-74479683D01*
X116122090Y-74263559D01*
X115909890Y-74118569D01*
X115658000Y-74067560D01*
X113958000Y-74067560D01*
X113722683Y-74111838D01*
X113506559Y-74250910D01*
X113361569Y-74463110D01*
X113310560Y-74715000D01*
X111708000Y-74715000D01*
X111708000Y-73735000D01*
X162912946Y-73735000D01*
X175308095Y-73823187D01*
X175308095Y-73823187D01*
G37*
X175308095Y-73823187D02*
X175712844Y-74227936D01*
X176328000Y-75396732D01*
X176328000Y-85979000D01*
X176382046Y-86250705D01*
X176535954Y-86481046D01*
X176578857Y-86523949D01*
X176698124Y-87060650D01*
X176718610Y-87106713D01*
X176738200Y-87128441D01*
X178868000Y-89002665D01*
X178868000Y-120990909D01*
X176535954Y-123322954D01*
X176382046Y-123553295D01*
X176328000Y-123825000D01*
X176328000Y-125655000D01*
X111884546Y-125655000D01*
X111869500Y-123640255D01*
X137439400Y-123640255D01*
X137439400Y-124009745D01*
X137553474Y-124583234D01*
X137878330Y-125069415D01*
X138364511Y-125394271D01*
X138938000Y-125508345D01*
X139511489Y-125394271D01*
X139997670Y-125069415D01*
X140208000Y-124754634D01*
X140418330Y-125069415D01*
X140904511Y-125394271D01*
X141478000Y-125508345D01*
X142051489Y-125394271D01*
X142537670Y-125069415D01*
X142748000Y-124754634D01*
X142958330Y-125069415D01*
X143444511Y-125394271D01*
X144018000Y-125508345D01*
X144591489Y-125394271D01*
X145077670Y-125069415D01*
X145288000Y-124754634D01*
X145498330Y-125069415D01*
X145984511Y-125394271D01*
X146558000Y-125508345D01*
X147131489Y-125394271D01*
X147617670Y-125069415D01*
X147828000Y-124754634D01*
X148038330Y-125069415D01*
X148524511Y-125394271D01*
X149098000Y-125508345D01*
X149671489Y-125394271D01*
X150157670Y-125069415D01*
X150364461Y-124759931D01*
X150735964Y-125175732D01*
X151263209Y-125429709D01*
X151278974Y-125432358D01*
X151511000Y-125311217D01*
X151511000Y-123952000D01*
X151765000Y-123952000D01*
X151765000Y-125311217D01*
X151997026Y-125432358D01*
X152012791Y-125429709D01*
X152540036Y-125175732D01*
X152908000Y-124763892D01*
X153275964Y-125175732D01*
X153803209Y-125429709D01*
X153818974Y-125432358D01*
X154051000Y-125311217D01*
X154051000Y-123952000D01*
X151765000Y-123952000D01*
X151511000Y-123952000D01*
X151491000Y-123952000D01*
X151491000Y-123698000D01*
X151511000Y-123698000D01*
X151511000Y-122338783D01*
X151765000Y-122338783D01*
X151765000Y-123698000D01*
X154051000Y-123698000D01*
X154051000Y-122338783D01*
X154305000Y-122338783D01*
X154305000Y-123698000D01*
X154325000Y-123698000D01*
X154325000Y-123952000D01*
X154305000Y-123952000D01*
X154305000Y-125311217D01*
X154537026Y-125432358D01*
X154552791Y-125429709D01*
X155080036Y-125175732D01*
X155451539Y-124759931D01*
X155658330Y-125069415D01*
X156144511Y-125394271D01*
X156718000Y-125508345D01*
X157291489Y-125394271D01*
X157777670Y-125069415D01*
X158102526Y-124583234D01*
X158216600Y-124009745D01*
X158216600Y-123640255D01*
X158102526Y-123066766D01*
X157777670Y-122580585D01*
X157291489Y-122255729D01*
X156718000Y-122141655D01*
X156144511Y-122255729D01*
X155658330Y-122580585D01*
X155451539Y-122890069D01*
X155080036Y-122474268D01*
X154552791Y-122220291D01*
X154537026Y-122217642D01*
X154305000Y-122338783D01*
X154051000Y-122338783D01*
X153818974Y-122217642D01*
X153803209Y-122220291D01*
X153275964Y-122474268D01*
X152908000Y-122886108D01*
X152540036Y-122474268D01*
X152012791Y-122220291D01*
X151997026Y-122217642D01*
X151765000Y-122338783D01*
X151511000Y-122338783D01*
X151278974Y-122217642D01*
X151263209Y-122220291D01*
X150735964Y-122474268D01*
X150364461Y-122890069D01*
X150157670Y-122580585D01*
X149671489Y-122255729D01*
X149098000Y-122141655D01*
X148524511Y-122255729D01*
X148038330Y-122580585D01*
X147828000Y-122895366D01*
X147617670Y-122580585D01*
X147131489Y-122255729D01*
X146558000Y-122141655D01*
X145984511Y-122255729D01*
X145498330Y-122580585D01*
X145288000Y-122895366D01*
X145077670Y-122580585D01*
X144591489Y-122255729D01*
X144018000Y-122141655D01*
X143444511Y-122255729D01*
X142958330Y-122580585D01*
X142748000Y-122895366D01*
X142537670Y-122580585D01*
X142051489Y-122255729D01*
X141478000Y-122141655D01*
X140904511Y-122255729D01*
X140418330Y-122580585D01*
X140208000Y-122895366D01*
X139997670Y-122580585D01*
X139511489Y-122255729D01*
X138938000Y-122141655D01*
X138364511Y-122255729D01*
X137878330Y-122580585D01*
X137553474Y-123066766D01*
X137439400Y-123640255D01*
X111869500Y-123640255D01*
X111768134Y-110067000D01*
X117773000Y-110067000D01*
X117773000Y-110817000D01*
X117927028Y-111337349D01*
X118268460Y-111759145D01*
X118745316Y-112018173D01*
X118816815Y-112032318D01*
X119031000Y-111909656D01*
X119031000Y-110067000D01*
X117773000Y-110067000D01*
X111768134Y-110067000D01*
X111760636Y-109063000D01*
X117773000Y-109063000D01*
X117773000Y-109813000D01*
X119031000Y-109813000D01*
X119031000Y-107970344D01*
X119285000Y-107970344D01*
X119285000Y-109813000D01*
X119305000Y-109813000D01*
X119305000Y-110067000D01*
X119285000Y-110067000D01*
X119285000Y-111909656D01*
X119499185Y-112032318D01*
X119570684Y-112018173D01*
X120047540Y-111759145D01*
X120136928Y-111648718D01*
X120178657Y-111711170D01*
X120398000Y-111857730D01*
X120398000Y-112141000D01*
X120455852Y-112431839D01*
X120620599Y-112678401D01*
X124032599Y-116090401D01*
X124279161Y-116255148D01*
X124570000Y-116313000D01*
X138431258Y-116313000D01*
X138454838Y-116438317D01*
X138593910Y-116654441D01*
X138806110Y-116799431D01*
X139058000Y-116850440D01*
X140558000Y-116850440D01*
X140793317Y-116806162D01*
X141009441Y-116667090D01*
X141154431Y-116454890D01*
X141157081Y-116441803D01*
X141293910Y-116654441D01*
X141506110Y-116799431D01*
X141758000Y-116850440D01*
X143258000Y-116850440D01*
X143493317Y-116806162D01*
X143709441Y-116667090D01*
X143854431Y-116454890D01*
X143883164Y-116313000D01*
X160577198Y-116313000D01*
X161038000Y-116773802D01*
X161038000Y-122380352D01*
X160738330Y-122580585D01*
X160413474Y-123066766D01*
X160299400Y-123640255D01*
X160299400Y-124009745D01*
X160413474Y-124583234D01*
X160738330Y-125069415D01*
X161224511Y-125394271D01*
X161798000Y-125508345D01*
X162371489Y-125394271D01*
X162857670Y-125069415D01*
X163068000Y-124754634D01*
X163278330Y-125069415D01*
X163764511Y-125394271D01*
X164338000Y-125508345D01*
X164911489Y-125394271D01*
X165397670Y-125069415D01*
X165608000Y-124754634D01*
X165818330Y-125069415D01*
X166304511Y-125394271D01*
X166878000Y-125508345D01*
X167451489Y-125394271D01*
X167937670Y-125069415D01*
X168148000Y-124754634D01*
X168358330Y-125069415D01*
X168844511Y-125394271D01*
X169418000Y-125508345D01*
X169991489Y-125394271D01*
X170477670Y-125069415D01*
X170688000Y-124754634D01*
X170898330Y-125069415D01*
X171384511Y-125394271D01*
X171958000Y-125508345D01*
X172531489Y-125394271D01*
X173017670Y-125069415D01*
X173228000Y-124754634D01*
X173438330Y-125069415D01*
X173924511Y-125394271D01*
X174498000Y-125508345D01*
X175071489Y-125394271D01*
X175557670Y-125069415D01*
X175882526Y-124583234D01*
X175996600Y-124009745D01*
X175996600Y-123640255D01*
X175882526Y-123066766D01*
X175557670Y-122580585D01*
X175071489Y-122255729D01*
X174498000Y-122141655D01*
X173924511Y-122255729D01*
X173438330Y-122580585D01*
X173228000Y-122895366D01*
X173017670Y-122580585D01*
X172531489Y-122255729D01*
X171958000Y-122141655D01*
X171384511Y-122255729D01*
X170898330Y-122580585D01*
X170688000Y-122895366D01*
X170477670Y-122580585D01*
X170178000Y-122380352D01*
X170178000Y-115881300D01*
X172040960Y-115881300D01*
X172040960Y-118281300D01*
X172085238Y-118516617D01*
X172224310Y-118732741D01*
X172436510Y-118877731D01*
X172688400Y-118928740D01*
X175088400Y-118928740D01*
X175323717Y-118884462D01*
X175539841Y-118745390D01*
X175684831Y-118533190D01*
X175735840Y-118281300D01*
X175735840Y-115881300D01*
X175691562Y-115645983D01*
X175552490Y-115429859D01*
X175340290Y-115284869D01*
X175088400Y-115233860D01*
X174694112Y-115233860D01*
X174926486Y-115137845D01*
X175443130Y-114622101D01*
X175723081Y-113947905D01*
X175723718Y-113217897D01*
X175444945Y-112543214D01*
X174929201Y-112026570D01*
X174255005Y-111746619D01*
X173524997Y-111745982D01*
X172850314Y-112024755D01*
X172333670Y-112540499D01*
X172053719Y-113214695D01*
X172053082Y-113944703D01*
X172331855Y-114619386D01*
X172847599Y-115136030D01*
X173083199Y-115233860D01*
X172688400Y-115233860D01*
X172453083Y-115278138D01*
X172236959Y-115417210D01*
X172091969Y-115629410D01*
X172040960Y-115881300D01*
X170178000Y-115881300D01*
X170178000Y-114173000D01*
X170120148Y-113882161D01*
X169955401Y-113635599D01*
X165335401Y-109015599D01*
X165088839Y-108850852D01*
X164798000Y-108793000D01*
X143884742Y-108793000D01*
X143861162Y-108667683D01*
X143746425Y-108489377D01*
X144555401Y-107680401D01*
X144720148Y-107433840D01*
X144756881Y-107249170D01*
X144778000Y-107143000D01*
X144778000Y-102145350D01*
X151351100Y-102145350D01*
X151351100Y-105485910D01*
X151447773Y-105719299D01*
X151626402Y-105897927D01*
X151859791Y-105994600D01*
X155200350Y-105994600D01*
X155359100Y-105835850D01*
X155359100Y-101986600D01*
X155613100Y-101986600D01*
X155613100Y-105835850D01*
X155771850Y-105994600D01*
X159112409Y-105994600D01*
X159345798Y-105897927D01*
X159524427Y-105719299D01*
X159621100Y-105485910D01*
X159621100Y-102145350D01*
X159462350Y-101986600D01*
X155613100Y-101986600D01*
X155359100Y-101986600D01*
X151509850Y-101986600D01*
X151351100Y-102145350D01*
X144778000Y-102145350D01*
X144778000Y-98233290D01*
X151351100Y-98233290D01*
X151351100Y-101573850D01*
X151509850Y-101732600D01*
X155359100Y-101732600D01*
X155359100Y-97883350D01*
X155613100Y-97883350D01*
X155613100Y-101732600D01*
X159462350Y-101732600D01*
X159621100Y-101573850D01*
X159621100Y-98233290D01*
X159524427Y-97999901D01*
X159345798Y-97821273D01*
X159112409Y-97724600D01*
X155771850Y-97724600D01*
X155613100Y-97883350D01*
X155359100Y-97883350D01*
X155200350Y-97724600D01*
X151859791Y-97724600D01*
X151626402Y-97821273D01*
X151447773Y-97999901D01*
X151351100Y-98233290D01*
X144778000Y-98233290D01*
X144778000Y-97469802D01*
X147632802Y-94615000D01*
X148342000Y-94615000D01*
X148418882Y-95001510D01*
X148637822Y-95329178D01*
X148965490Y-95548118D01*
X149352000Y-95625000D01*
X149738510Y-95548118D01*
X149856021Y-95469600D01*
X151538660Y-95469600D01*
X151538660Y-96209600D01*
X151582938Y-96444917D01*
X151722010Y-96661041D01*
X151934210Y-96806031D01*
X152186100Y-96857040D01*
X154186100Y-96857040D01*
X154421417Y-96812762D01*
X154637541Y-96673690D01*
X154782531Y-96461490D01*
X154833540Y-96209600D01*
X154833540Y-92709600D01*
X154789262Y-92474283D01*
X154650190Y-92258159D01*
X154437990Y-92113169D01*
X154186100Y-92062160D01*
X152186100Y-92062160D01*
X151950783Y-92106438D01*
X151734659Y-92245510D01*
X151589669Y-92457710D01*
X151538660Y-92709600D01*
X151538660Y-93449600D01*
X149507400Y-93449600D01*
X149120890Y-93526482D01*
X148793222Y-93745422D01*
X148637822Y-93900822D01*
X148418882Y-94228490D01*
X148342000Y-94615000D01*
X147632802Y-94615000D01*
X153639637Y-88608165D01*
X153717822Y-88725178D01*
X156756100Y-91763456D01*
X156756100Y-92064042D01*
X156530783Y-92106438D01*
X156314659Y-92245510D01*
X156169669Y-92457710D01*
X156118660Y-92709600D01*
X156118660Y-96209600D01*
X156162938Y-96444917D01*
X156302010Y-96661041D01*
X156514210Y-96806031D01*
X156766100Y-96857040D01*
X158766100Y-96857040D01*
X159001417Y-96812762D01*
X159217541Y-96673690D01*
X159362531Y-96461490D01*
X159413540Y-96209600D01*
X159413540Y-95469600D01*
X162494244Y-95469600D01*
X165233000Y-98208356D01*
X165233000Y-102870000D01*
X165309882Y-103256510D01*
X165528822Y-103584178D01*
X171472422Y-109527778D01*
X171800090Y-109746718D01*
X172040960Y-109794630D01*
X172040960Y-110013600D01*
X172085238Y-110248917D01*
X172224310Y-110465041D01*
X172436510Y-110610031D01*
X172688400Y-110661040D01*
X175088400Y-110661040D01*
X175323717Y-110616762D01*
X175539841Y-110477690D01*
X175684831Y-110265490D01*
X175735840Y-110013600D01*
X175735840Y-107613600D01*
X175691562Y-107378283D01*
X175552490Y-107162159D01*
X175340290Y-107017169D01*
X175088400Y-106966160D01*
X174694112Y-106966160D01*
X174926486Y-106870145D01*
X175443130Y-106354401D01*
X175723081Y-105680205D01*
X175723718Y-104950197D01*
X175444945Y-104275514D01*
X174929201Y-103758870D01*
X174255005Y-103478919D01*
X173524997Y-103478282D01*
X172850314Y-103757055D01*
X172333670Y-104272799D01*
X172053719Y-104946995D01*
X172053082Y-105677003D01*
X172331855Y-106351686D01*
X172847599Y-106868330D01*
X173083199Y-106966160D01*
X172688400Y-106966160D01*
X172453083Y-107010438D01*
X172236959Y-107149510D01*
X172120829Y-107319473D01*
X167253000Y-102451644D01*
X167253000Y-97790000D01*
X167176118Y-97403490D01*
X166957178Y-97075822D01*
X163626778Y-93745422D01*
X163322807Y-93542316D01*
X163454510Y-93516118D01*
X163731320Y-93331160D01*
X164282561Y-93882401D01*
X164529123Y-94047148D01*
X164819962Y-94105000D01*
X168148000Y-94105000D01*
X168438839Y-94047148D01*
X168685401Y-93882401D01*
X168850148Y-93635839D01*
X168908000Y-93345000D01*
X168908000Y-91384066D01*
X169875401Y-90416665D01*
X170040148Y-90170103D01*
X170063699Y-90051704D01*
X170130192Y-89985327D01*
X170272838Y-89641799D01*
X170273162Y-89269833D01*
X170131117Y-88926057D01*
X169868327Y-88662808D01*
X169524799Y-88520162D01*
X169152833Y-88519838D01*
X168809057Y-88661883D01*
X168545808Y-88924673D01*
X168403162Y-89268201D01*
X168402838Y-89640167D01*
X168431917Y-89710545D01*
X167610599Y-90531863D01*
X167483087Y-90722699D01*
X167408327Y-90647808D01*
X167064799Y-90505162D01*
X167017923Y-90505121D01*
X164875401Y-88362599D01*
X164628839Y-88197852D01*
X164338000Y-88140000D01*
X158302802Y-88140000D01*
X156244692Y-86081890D01*
X157816524Y-86081890D01*
X157986355Y-86491924D01*
X158376642Y-86920183D01*
X158901108Y-87166486D01*
X159131000Y-87045819D01*
X159131000Y-85852000D01*
X159385000Y-85852000D01*
X159385000Y-87045819D01*
X159614892Y-87166486D01*
X160139358Y-86920183D01*
X160528000Y-86493729D01*
X160916642Y-86920183D01*
X161441108Y-87166486D01*
X161671000Y-87045819D01*
X161671000Y-85852000D01*
X161925000Y-85852000D01*
X161925000Y-87045819D01*
X162154892Y-87166486D01*
X162679358Y-86920183D01*
X163068000Y-86493729D01*
X163456642Y-86920183D01*
X163981108Y-87166486D01*
X164211000Y-87045819D01*
X164211000Y-85852000D01*
X164465000Y-85852000D01*
X164465000Y-87045819D01*
X164694892Y-87166486D01*
X165219358Y-86920183D01*
X165609645Y-86491924D01*
X165779476Y-86081890D01*
X165658155Y-85852000D01*
X164465000Y-85852000D01*
X164211000Y-85852000D01*
X161925000Y-85852000D01*
X161671000Y-85852000D01*
X159385000Y-85852000D01*
X159131000Y-85852000D01*
X157937845Y-85852000D01*
X157816524Y-86081890D01*
X156244692Y-86081890D01*
X154938000Y-84775198D01*
X154938000Y-83185000D01*
X157743907Y-83185000D01*
X157856946Y-83753285D01*
X158178853Y-84235054D01*
X158519553Y-84462702D01*
X158376642Y-84529817D01*
X157986355Y-84958076D01*
X157816524Y-85368110D01*
X157937845Y-85598000D01*
X159131000Y-85598000D01*
X159131000Y-85578000D01*
X159385000Y-85578000D01*
X159385000Y-85598000D01*
X161671000Y-85598000D01*
X161671000Y-85578000D01*
X161925000Y-85578000D01*
X161925000Y-85598000D01*
X164211000Y-85598000D01*
X164211000Y-85578000D01*
X164465000Y-85578000D01*
X164465000Y-85598000D01*
X165658155Y-85598000D01*
X165779476Y-85368110D01*
X165609645Y-84958076D01*
X165219358Y-84529817D01*
X165076447Y-84462702D01*
X165417147Y-84235054D01*
X165739054Y-83753285D01*
X165852093Y-83185000D01*
X165739054Y-82616715D01*
X165417147Y-82134946D01*
X165375548Y-82107150D01*
X165423317Y-82098162D01*
X165639441Y-81959090D01*
X165784431Y-81746890D01*
X165835440Y-81495000D01*
X165835440Y-79795000D01*
X165791162Y-79559683D01*
X165652090Y-79343559D01*
X165439890Y-79198569D01*
X165188000Y-79147560D01*
X163488000Y-79147560D01*
X163252683Y-79191838D01*
X163065923Y-79312015D01*
X162899890Y-79198569D01*
X162648000Y-79147560D01*
X160948000Y-79147560D01*
X160712683Y-79191838D01*
X160525923Y-79312015D01*
X160359890Y-79198569D01*
X160108000Y-79147560D01*
X158408000Y-79147560D01*
X158172683Y-79191838D01*
X157956559Y-79330910D01*
X157811569Y-79543110D01*
X157760560Y-79795000D01*
X157760560Y-81495000D01*
X157804838Y-81730317D01*
X157943910Y-81946441D01*
X158156110Y-82091431D01*
X158223541Y-82105086D01*
X158178853Y-82134946D01*
X157856946Y-82616715D01*
X157743907Y-83185000D01*
X154938000Y-83185000D01*
X154938000Y-79629000D01*
X154880148Y-79338161D01*
X154715401Y-79091599D01*
X152835954Y-77212152D01*
X153227489Y-77134271D01*
X153713670Y-76809415D01*
X154038526Y-76323234D01*
X154152600Y-75749745D01*
X154152600Y-75380255D01*
X155219400Y-75380255D01*
X155219400Y-75749745D01*
X155333474Y-76323234D01*
X155658330Y-76809415D01*
X156144511Y-77134271D01*
X156718000Y-77248345D01*
X157291489Y-77134271D01*
X157777670Y-76809415D01*
X157988000Y-76494634D01*
X158198330Y-76809415D01*
X158684511Y-77134271D01*
X159258000Y-77248345D01*
X159831489Y-77134271D01*
X160317670Y-76809415D01*
X160528000Y-76494634D01*
X160738330Y-76809415D01*
X161224511Y-77134271D01*
X161798000Y-77248345D01*
X162371489Y-77134271D01*
X162857670Y-76809415D01*
X163068000Y-76494634D01*
X163278330Y-76809415D01*
X163764511Y-77134271D01*
X164338000Y-77248345D01*
X164911489Y-77134271D01*
X165397670Y-76809415D01*
X165608000Y-76494634D01*
X165818330Y-76809415D01*
X166304511Y-77134271D01*
X166878000Y-77248345D01*
X167451489Y-77134271D01*
X167937670Y-76809415D01*
X168148000Y-76494634D01*
X168358330Y-76809415D01*
X168844511Y-77134271D01*
X169418000Y-77248345D01*
X169991489Y-77134271D01*
X170477670Y-76809415D01*
X170688000Y-76494634D01*
X170898330Y-76809415D01*
X171384511Y-77134271D01*
X171958000Y-77248345D01*
X172531489Y-77134271D01*
X173017670Y-76809415D01*
X173228000Y-76494634D01*
X173438330Y-76809415D01*
X173924511Y-77134271D01*
X174498000Y-77248345D01*
X175071489Y-77134271D01*
X175557670Y-76809415D01*
X175882526Y-76323234D01*
X175996600Y-75749745D01*
X175996600Y-75380255D01*
X175882526Y-74806766D01*
X175557670Y-74320585D01*
X175071489Y-73995729D01*
X174498000Y-73881655D01*
X173924511Y-73995729D01*
X173438330Y-74320585D01*
X173228000Y-74635366D01*
X173017670Y-74320585D01*
X172531489Y-73995729D01*
X171958000Y-73881655D01*
X171384511Y-73995729D01*
X170898330Y-74320585D01*
X170688000Y-74635366D01*
X170477670Y-74320585D01*
X169991489Y-73995729D01*
X169418000Y-73881655D01*
X168844511Y-73995729D01*
X168358330Y-74320585D01*
X168148000Y-74635366D01*
X167937670Y-74320585D01*
X167451489Y-73995729D01*
X166878000Y-73881655D01*
X166304511Y-73995729D01*
X165818330Y-74320585D01*
X165608000Y-74635366D01*
X165397670Y-74320585D01*
X164911489Y-73995729D01*
X164338000Y-73881655D01*
X163764511Y-73995729D01*
X163278330Y-74320585D01*
X163068000Y-74635366D01*
X162857670Y-74320585D01*
X162371489Y-73995729D01*
X161798000Y-73881655D01*
X161224511Y-73995729D01*
X160738330Y-74320585D01*
X160528000Y-74635366D01*
X160317670Y-74320585D01*
X159831489Y-73995729D01*
X159258000Y-73881655D01*
X158684511Y-73995729D01*
X158198330Y-74320585D01*
X157988000Y-74635366D01*
X157777670Y-74320585D01*
X157291489Y-73995729D01*
X156718000Y-73881655D01*
X156144511Y-73995729D01*
X155658330Y-74320585D01*
X155333474Y-74806766D01*
X155219400Y-75380255D01*
X154152600Y-75380255D01*
X154038526Y-74806766D01*
X153713670Y-74320585D01*
X153227489Y-73995729D01*
X152654000Y-73881655D01*
X152080511Y-73995729D01*
X151594330Y-74320585D01*
X151384000Y-74635366D01*
X151173670Y-74320585D01*
X150687489Y-73995729D01*
X150114000Y-73881655D01*
X149540511Y-73995729D01*
X149054330Y-74320585D01*
X148844000Y-74635366D01*
X148633670Y-74320585D01*
X148147489Y-73995729D01*
X147574000Y-73881655D01*
X147000511Y-73995729D01*
X146514330Y-74320585D01*
X146304000Y-74635366D01*
X146093670Y-74320585D01*
X145607489Y-73995729D01*
X145034000Y-73881655D01*
X144460511Y-73995729D01*
X143974330Y-74320585D01*
X143764000Y-74635366D01*
X143553670Y-74320585D01*
X143067489Y-73995729D01*
X142494000Y-73881655D01*
X141920511Y-73995729D01*
X141434330Y-74320585D01*
X141224000Y-74635366D01*
X141013670Y-74320585D01*
X140527489Y-73995729D01*
X139954000Y-73881655D01*
X139380511Y-73995729D01*
X138894330Y-74320585D01*
X138687539Y-74630069D01*
X138316036Y-74214268D01*
X137788791Y-73960291D01*
X137773026Y-73957642D01*
X137541000Y-74078783D01*
X137541000Y-75438000D01*
X137561000Y-75438000D01*
X137561000Y-75692000D01*
X137541000Y-75692000D01*
X137541000Y-77051217D01*
X137773026Y-77172358D01*
X137788791Y-77169709D01*
X138316036Y-76915732D01*
X138687539Y-76499931D01*
X138894330Y-76809415D01*
X139380511Y-77134271D01*
X139954000Y-77248345D01*
X140527489Y-77134271D01*
X141013670Y-76809415D01*
X141224000Y-76494634D01*
X141434330Y-76809415D01*
X141734000Y-77009648D01*
X141734000Y-92730852D01*
X139642658Y-94441949D01*
X139514833Y-94441838D01*
X139171057Y-94583883D01*
X138907808Y-94846673D01*
X138765162Y-95190201D01*
X138764838Y-95562167D01*
X138906883Y-95905943D01*
X139169673Y-96169192D01*
X139513201Y-96311838D01*
X139885167Y-96312162D01*
X140228943Y-96170117D01*
X140492192Y-95907327D01*
X140615782Y-95609691D01*
X142975261Y-93679208D01*
X142999584Y-93649661D01*
X143031401Y-93628401D01*
X143093119Y-93536033D01*
X143163723Y-93450263D01*
X143174886Y-93413659D01*
X143196148Y-93381839D01*
X143217821Y-93272881D01*
X143250228Y-93166623D01*
X143246534Y-93128534D01*
X143254000Y-93091000D01*
X143254000Y-77009648D01*
X143553670Y-76809415D01*
X143764000Y-76494634D01*
X143974330Y-76809415D01*
X144460511Y-77134271D01*
X145034000Y-77248345D01*
X145607489Y-77134271D01*
X146093670Y-76809415D01*
X146304000Y-76494634D01*
X146514330Y-76809415D01*
X147000511Y-77134271D01*
X147574000Y-77248345D01*
X148147489Y-77134271D01*
X148633670Y-76809415D01*
X148844000Y-76494634D01*
X149054330Y-76809415D01*
X149540511Y-77134271D01*
X150114000Y-77248345D01*
X150621579Y-77147381D01*
X153418000Y-79943802D01*
X153418000Y-81883959D01*
X153210843Y-81382600D01*
X152807523Y-80978576D01*
X152280291Y-80759650D01*
X151709413Y-80759152D01*
X151181800Y-80977157D01*
X150777776Y-81380477D01*
X150723738Y-81510615D01*
X150670843Y-81382600D01*
X150267523Y-80978576D01*
X149740291Y-80759650D01*
X149169413Y-80759152D01*
X148641800Y-80977157D01*
X148237776Y-81380477D01*
X148018850Y-81907709D01*
X148018352Y-82478587D01*
X148236357Y-83006200D01*
X148639677Y-83410224D01*
X149166909Y-83629150D01*
X149737787Y-83629648D01*
X150265400Y-83411643D01*
X150669424Y-83008323D01*
X150723462Y-82878185D01*
X150776357Y-83006200D01*
X151179677Y-83410224D01*
X151706909Y-83629150D01*
X152277787Y-83629648D01*
X152805400Y-83411643D01*
X153209424Y-83008323D01*
X153418000Y-82506017D01*
X153418000Y-85090000D01*
X153475852Y-85380839D01*
X153640599Y-85627401D01*
X154564190Y-86550992D01*
X153862008Y-86550992D01*
X153571169Y-86608844D01*
X153324607Y-86773591D01*
X143480599Y-96617599D01*
X143315852Y-96864161D01*
X143258000Y-97155000D01*
X143258000Y-106828198D01*
X141970599Y-108115599D01*
X141877080Y-108255560D01*
X141758000Y-108255560D01*
X141522683Y-108299838D01*
X141306559Y-108438910D01*
X141161569Y-108651110D01*
X141158919Y-108664197D01*
X141022090Y-108451559D01*
X140809890Y-108306569D01*
X140558000Y-108255560D01*
X139058000Y-108255560D01*
X138822683Y-108299838D01*
X138606559Y-108438910D01*
X138461569Y-108651110D01*
X138410560Y-108903000D01*
X138410560Y-109522758D01*
X138174000Y-109286198D01*
X138174000Y-107121802D01*
X143031401Y-102264401D01*
X143196148Y-102017839D01*
X143254000Y-101727000D01*
X143254000Y-95691802D01*
X147857401Y-91088401D01*
X148022148Y-90841839D01*
X148080000Y-90551000D01*
X148080000Y-88319463D01*
X148112192Y-88287327D01*
X148254838Y-87943799D01*
X148255162Y-87571833D01*
X148113117Y-87228057D01*
X147850327Y-86964808D01*
X147506799Y-86822162D01*
X147134833Y-86821838D01*
X146791057Y-86963883D01*
X146527808Y-87226673D01*
X146385162Y-87570201D01*
X146384838Y-87942167D01*
X146526883Y-88285943D01*
X146560000Y-88319118D01*
X146560000Y-90236198D01*
X141956599Y-94839599D01*
X141791852Y-95086161D01*
X141734000Y-95377000D01*
X141734000Y-101412198D01*
X136876599Y-106269599D01*
X136711852Y-106516161D01*
X136654000Y-106807000D01*
X136654000Y-109601000D01*
X136711852Y-109891839D01*
X136876599Y-110138401D01*
X138410560Y-111672362D01*
X138410560Y-112062758D01*
X133856000Y-107508198D01*
X133856000Y-101727000D01*
X133798148Y-101436161D01*
X133633401Y-101189599D01*
X132871401Y-100427599D01*
X132624839Y-100262852D01*
X132334000Y-100205000D01*
X131925730Y-100205000D01*
X131779170Y-99985657D01*
X131748255Y-99965000D01*
X131779170Y-99944343D01*
X132079400Y-99495017D01*
X132184827Y-98965000D01*
X132079400Y-98434983D01*
X131779170Y-97985657D01*
X131329844Y-97685427D01*
X130799827Y-97580000D01*
X129216173Y-97580000D01*
X128686156Y-97685427D01*
X128236830Y-97985657D01*
X127936600Y-98434983D01*
X127831173Y-98965000D01*
X127936600Y-99495017D01*
X128236830Y-99944343D01*
X128267745Y-99965000D01*
X128236830Y-99985657D01*
X127936600Y-100434983D01*
X127831173Y-100965000D01*
X127936600Y-101495017D01*
X128236830Y-101944343D01*
X128299282Y-101986072D01*
X128188855Y-102075460D01*
X127929827Y-102552316D01*
X127915682Y-102623815D01*
X128038344Y-102838000D01*
X129881000Y-102838000D01*
X129881000Y-102818000D01*
X130135000Y-102818000D01*
X130135000Y-102838000D01*
X131977656Y-102838000D01*
X132100318Y-102623815D01*
X132086173Y-102552316D01*
X131827145Y-102075460D01*
X131716718Y-101986072D01*
X131779170Y-101944343D01*
X131925730Y-101725000D01*
X132019198Y-101725000D01*
X132336000Y-102041802D01*
X132336000Y-107823000D01*
X132393852Y-108113839D01*
X132558599Y-108360401D01*
X138288599Y-114090401D01*
X138410560Y-114171893D01*
X138410560Y-114203000D01*
X138454838Y-114438317D01*
X138528620Y-114552978D01*
X138461569Y-114651110D01*
X138432836Y-114793000D01*
X124884802Y-114793000D01*
X121936902Y-111845100D01*
X122137343Y-111711170D01*
X122158000Y-111680255D01*
X122178657Y-111711170D01*
X122627983Y-112011400D01*
X123158000Y-112116827D01*
X123688017Y-112011400D01*
X124137343Y-111711170D01*
X124437573Y-111261844D01*
X124543000Y-110731827D01*
X124543000Y-109148173D01*
X124437573Y-108618156D01*
X124137343Y-108168830D01*
X123688017Y-107868600D01*
X123158000Y-107763173D01*
X122627983Y-107868600D01*
X122178657Y-108168830D01*
X122158000Y-108199745D01*
X122137343Y-108168830D01*
X121688017Y-107868600D01*
X121158000Y-107763173D01*
X120627983Y-107868600D01*
X120178657Y-108168830D01*
X120136928Y-108231282D01*
X120047540Y-108120855D01*
X119570684Y-107861827D01*
X119499185Y-107847682D01*
X119285000Y-107970344D01*
X119031000Y-107970344D01*
X118816815Y-107847682D01*
X118745316Y-107861827D01*
X118268460Y-108120855D01*
X117927028Y-108542651D01*
X117773000Y-109063000D01*
X111760636Y-109063000D01*
X111747090Y-107249170D01*
X113722790Y-107249170D01*
X113940792Y-107776773D01*
X114344104Y-108180790D01*
X114871326Y-108399712D01*
X115442194Y-108400210D01*
X115969797Y-108182208D01*
X116373814Y-107778896D01*
X116592736Y-107251674D01*
X116593234Y-106680806D01*
X116375232Y-106153203D01*
X115971920Y-105749186D01*
X115444698Y-105530264D01*
X114873830Y-105529766D01*
X114346227Y-105747768D01*
X113942210Y-106151080D01*
X113723288Y-106678302D01*
X113722790Y-107249170D01*
X111747090Y-107249170D01*
X111717644Y-103306185D01*
X127915682Y-103306185D01*
X127929827Y-103377684D01*
X128188855Y-103854540D01*
X128610651Y-104195972D01*
X129131000Y-104350000D01*
X129881000Y-104350000D01*
X129881000Y-103092000D01*
X130135000Y-103092000D01*
X130135000Y-104350000D01*
X130885000Y-104350000D01*
X131405349Y-104195972D01*
X131827145Y-103854540D01*
X132086173Y-103377684D01*
X132100318Y-103306185D01*
X131977656Y-103092000D01*
X130135000Y-103092000D01*
X129881000Y-103092000D01*
X128038344Y-103092000D01*
X127915682Y-103306185D01*
X111717644Y-103306185D01*
X111708000Y-102014916D01*
X111708000Y-95249194D01*
X125722766Y-95249194D01*
X125940768Y-95776797D01*
X126344080Y-96180814D01*
X126871302Y-96399736D01*
X127442170Y-96400234D01*
X127969773Y-96182232D01*
X128373790Y-95778920D01*
X128592712Y-95251698D01*
X128593210Y-94680830D01*
X128375208Y-94153227D01*
X127971896Y-93749210D01*
X127444674Y-93530288D01*
X126873806Y-93529790D01*
X126346203Y-93747792D01*
X125942186Y-94151104D01*
X125723264Y-94678326D01*
X125722766Y-95249194D01*
X111708000Y-95249194D01*
X111708000Y-88621890D01*
X122256524Y-88621890D01*
X122426355Y-89031924D01*
X122816642Y-89460183D01*
X123341108Y-89706486D01*
X123571000Y-89585819D01*
X123571000Y-88392000D01*
X123825000Y-88392000D01*
X123825000Y-89585819D01*
X124054892Y-89706486D01*
X124579358Y-89460183D01*
X124969645Y-89031924D01*
X125139476Y-88621890D01*
X125018155Y-88392000D01*
X123825000Y-88392000D01*
X123571000Y-88392000D01*
X122377845Y-88392000D01*
X122256524Y-88621890D01*
X111708000Y-88621890D01*
X111708000Y-85725000D01*
X122183907Y-85725000D01*
X122296946Y-86293285D01*
X122618853Y-86775054D01*
X122959553Y-87002702D01*
X122816642Y-87069817D01*
X122426355Y-87498076D01*
X122256524Y-87908110D01*
X122377845Y-88138000D01*
X123571000Y-88138000D01*
X123571000Y-88118000D01*
X123825000Y-88118000D01*
X123825000Y-88138000D01*
X125018155Y-88138000D01*
X125139476Y-87908110D01*
X124969645Y-87498076D01*
X124579358Y-87069817D01*
X124436447Y-87002702D01*
X124777147Y-86775054D01*
X125099054Y-86293285D01*
X125212093Y-85725000D01*
X125099054Y-85156715D01*
X124777147Y-84674946D01*
X124735548Y-84647150D01*
X124783317Y-84638162D01*
X124999441Y-84499090D01*
X125144431Y-84286890D01*
X125195440Y-84035000D01*
X125195440Y-82335000D01*
X125151162Y-82099683D01*
X125012090Y-81883559D01*
X124799890Y-81738569D01*
X124548000Y-81687560D01*
X122848000Y-81687560D01*
X122612683Y-81731838D01*
X122396559Y-81870910D01*
X122251569Y-82083110D01*
X122200560Y-82335000D01*
X122200560Y-84035000D01*
X122244838Y-84270317D01*
X122383910Y-84486441D01*
X122596110Y-84631431D01*
X122663541Y-84645086D01*
X122618853Y-84674946D01*
X122296946Y-85156715D01*
X122183907Y-85725000D01*
X111708000Y-85725000D01*
X111708000Y-74715000D01*
X113310560Y-74715000D01*
X113310560Y-76415000D01*
X113354838Y-76650317D01*
X113493910Y-76866441D01*
X113706110Y-77011431D01*
X113958000Y-77062440D01*
X115658000Y-77062440D01*
X115893317Y-77018162D01*
X116109441Y-76879090D01*
X116254431Y-76666890D01*
X116268086Y-76599459D01*
X116297946Y-76644147D01*
X116779715Y-76966054D01*
X117348000Y-77079093D01*
X117916285Y-76966054D01*
X118398054Y-76644147D01*
X118618000Y-76314974D01*
X118837946Y-76644147D01*
X119319715Y-76966054D01*
X119888000Y-77079093D01*
X120456285Y-76966054D01*
X120938054Y-76644147D01*
X121165702Y-76303447D01*
X121232817Y-76446358D01*
X121661076Y-76836645D01*
X122071110Y-77006476D01*
X122301000Y-76885155D01*
X122301000Y-75692000D01*
X122555000Y-75692000D01*
X122555000Y-76885155D01*
X122784890Y-77006476D01*
X123194924Y-76836645D01*
X123623183Y-76446358D01*
X123869486Y-75921892D01*
X123748819Y-75692000D01*
X122555000Y-75692000D01*
X122301000Y-75692000D01*
X122281000Y-75692000D01*
X122281000Y-75438000D01*
X122301000Y-75438000D01*
X122301000Y-74244845D01*
X122555000Y-74244845D01*
X122555000Y-75438000D01*
X123748819Y-75438000D01*
X123779128Y-75380255D01*
X128295400Y-75380255D01*
X128295400Y-75749745D01*
X128409474Y-76323234D01*
X128734330Y-76809415D01*
X129220511Y-77134271D01*
X129794000Y-77248345D01*
X130367489Y-77134271D01*
X130853670Y-76809415D01*
X131064000Y-76494634D01*
X131274330Y-76809415D01*
X131760511Y-77134271D01*
X132334000Y-77248345D01*
X132907489Y-77134271D01*
X133393670Y-76809415D01*
X133604000Y-76494634D01*
X133814330Y-76809415D01*
X134300511Y-77134271D01*
X134874000Y-77248345D01*
X135447489Y-77134271D01*
X135933670Y-76809415D01*
X136140461Y-76499931D01*
X136511964Y-76915732D01*
X137039209Y-77169709D01*
X137054974Y-77172358D01*
X137287000Y-77051217D01*
X137287000Y-75692000D01*
X137267000Y-75692000D01*
X137267000Y-75438000D01*
X137287000Y-75438000D01*
X137287000Y-74078783D01*
X137054974Y-73957642D01*
X137039209Y-73960291D01*
X136511964Y-74214268D01*
X136140461Y-74630069D01*
X135933670Y-74320585D01*
X135447489Y-73995729D01*
X134874000Y-73881655D01*
X134300511Y-73995729D01*
X133814330Y-74320585D01*
X133604000Y-74635366D01*
X133393670Y-74320585D01*
X132907489Y-73995729D01*
X132334000Y-73881655D01*
X131760511Y-73995729D01*
X131274330Y-74320585D01*
X131064000Y-74635366D01*
X130853670Y-74320585D01*
X130367489Y-73995729D01*
X129794000Y-73881655D01*
X129220511Y-73995729D01*
X128734330Y-74320585D01*
X128409474Y-74806766D01*
X128295400Y-75380255D01*
X123779128Y-75380255D01*
X123869486Y-75208108D01*
X123623183Y-74683642D01*
X123194924Y-74293355D01*
X122784890Y-74123524D01*
X122555000Y-74244845D01*
X122301000Y-74244845D01*
X122071110Y-74123524D01*
X121661076Y-74293355D01*
X121232817Y-74683642D01*
X121165702Y-74826553D01*
X120938054Y-74485853D01*
X120456285Y-74163946D01*
X119888000Y-74050907D01*
X119319715Y-74163946D01*
X118837946Y-74485853D01*
X118618000Y-74815026D01*
X118398054Y-74485853D01*
X117916285Y-74163946D01*
X117348000Y-74050907D01*
X116779715Y-74163946D01*
X116297946Y-74485853D01*
X116270150Y-74527452D01*
X116261162Y-74479683D01*
X116122090Y-74263559D01*
X115909890Y-74118569D01*
X115658000Y-74067560D01*
X113958000Y-74067560D01*
X113722683Y-74111838D01*
X113506559Y-74250910D01*
X113361569Y-74463110D01*
X113310560Y-74715000D01*
X111708000Y-74715000D01*
X111708000Y-73735000D01*
X162912946Y-73735000D01*
X175308095Y-73823187D01*
M02*
