G04 #@! TF.FileFunction,Legend,Top*
%FSLAX46Y46*%
G04 Gerber Fmt 4.6, Leading zero omitted, Abs format (unit mm)*
G04 Created by KiCad (PCBNEW 4.0.6-e0-6349~53~ubuntu16.04.1) date Wed Aug  2 12:33:15 2017*
%MOMM*%
%LPD*%
G01*
G04 APERTURE LIST*
%ADD10C,0.100000*%
%ADD11C,0.200000*%
%ADD12C,0.300000*%
%ADD13C,0.150000*%
%ADD14C,0.120000*%
%ADD15C,0.002540*%
%ADD16C,0.127000*%
%ADD17O,1.727200X2.032000*%
%ADD18R,1.700000X1.700000*%
%ADD19O,1.700000X1.700000*%
%ADD20C,2.400000*%
%ADD21R,2.400000X2.400000*%
%ADD22O,1.500000X3.000000*%
%ADD23O,3.000000X1.500000*%
%ADD24C,1.599946*%
%ADD25R,1.000000X0.700000*%
%ADD26R,1.500000X1.300000*%
%ADD27R,1.600000X1.000000*%
%ADD28C,1.600000*%
%ADD29R,1.550000X1.300000*%
%ADD30R,1.250000X1.500000*%
%ADD31R,1.600000X2.600000*%
G04 APERTURE END LIST*
D10*
D11*
X156281429Y-85907571D02*
X156424286Y-85955190D01*
X156471905Y-86002810D01*
X156519524Y-86098048D01*
X156519524Y-86240905D01*
X156471905Y-86336143D01*
X156424286Y-86383762D01*
X156329048Y-86431381D01*
X155948095Y-86431381D01*
X155948095Y-85431381D01*
X156281429Y-85431381D01*
X156376667Y-85479000D01*
X156424286Y-85526619D01*
X156471905Y-85621857D01*
X156471905Y-85717095D01*
X156424286Y-85812333D01*
X156376667Y-85859952D01*
X156281429Y-85907571D01*
X155948095Y-85907571D01*
X156519524Y-83637381D02*
X156186190Y-83161190D01*
X155948095Y-83637381D02*
X155948095Y-82637381D01*
X156329048Y-82637381D01*
X156424286Y-82685000D01*
X156471905Y-82732619D01*
X156519524Y-82827857D01*
X156519524Y-82970714D01*
X156471905Y-83065952D01*
X156424286Y-83113571D01*
X156329048Y-83161190D01*
X155948095Y-83161190D01*
X155781429Y-80097381D02*
X156019524Y-81097381D01*
X156210001Y-80383095D01*
X156400477Y-81097381D01*
X156638572Y-80097381D01*
X159448477Y-77557381D02*
X159258000Y-77557381D01*
X159162762Y-77605000D01*
X159115143Y-77652619D01*
X159019905Y-77795476D01*
X158972286Y-77985952D01*
X158972286Y-78366905D01*
X159019905Y-78462143D01*
X159067524Y-78509762D01*
X159162762Y-78557381D01*
X159353239Y-78557381D01*
X159448477Y-78509762D01*
X159496096Y-78462143D01*
X159543715Y-78366905D01*
X159543715Y-78128810D01*
X159496096Y-78033571D01*
X159448477Y-77985952D01*
X159353239Y-77938333D01*
X159162762Y-77938333D01*
X159067524Y-77985952D01*
X159019905Y-78033571D01*
X158972286Y-78128810D01*
X162036096Y-77557381D02*
X161559905Y-77557381D01*
X161512286Y-78033571D01*
X161559905Y-77985952D01*
X161655143Y-77938333D01*
X161893239Y-77938333D01*
X161988477Y-77985952D01*
X162036096Y-78033571D01*
X162083715Y-78128810D01*
X162083715Y-78366905D01*
X162036096Y-78462143D01*
X161988477Y-78509762D01*
X161893239Y-78557381D01*
X161655143Y-78557381D01*
X161559905Y-78509762D01*
X161512286Y-78462143D01*
X164004667Y-77557381D02*
X164623715Y-77557381D01*
X164290381Y-77938333D01*
X164433239Y-77938333D01*
X164528477Y-77985952D01*
X164576096Y-78033571D01*
X164623715Y-78128810D01*
X164623715Y-78366905D01*
X164576096Y-78462143D01*
X164528477Y-78509762D01*
X164433239Y-78557381D01*
X164147524Y-78557381D01*
X164052286Y-78509762D01*
X164004667Y-78462143D01*
D12*
X173676571Y-84919000D02*
X173676571Y-84061857D01*
X175176571Y-84490428D02*
X173676571Y-84490428D01*
X175105143Y-82990429D02*
X175176571Y-83133286D01*
X175176571Y-83419000D01*
X175105143Y-83561857D01*
X174962286Y-83633286D01*
X174390857Y-83633286D01*
X174248000Y-83561857D01*
X174176571Y-83419000D01*
X174176571Y-83133286D01*
X174248000Y-82990429D01*
X174390857Y-82919000D01*
X174533714Y-82919000D01*
X174676571Y-83633286D01*
X175176571Y-82276143D02*
X174176571Y-82276143D01*
X174319429Y-82276143D02*
X174248000Y-82204715D01*
X174176571Y-82061857D01*
X174176571Y-81847572D01*
X174248000Y-81704715D01*
X174390857Y-81633286D01*
X175176571Y-81633286D01*
X174390857Y-81633286D02*
X174248000Y-81561857D01*
X174176571Y-81419000D01*
X174176571Y-81204715D01*
X174248000Y-81061857D01*
X174390857Y-80990429D01*
X175176571Y-80990429D01*
X174176571Y-80276143D02*
X175676571Y-80276143D01*
X174248000Y-80276143D02*
X174176571Y-80133286D01*
X174176571Y-79847572D01*
X174248000Y-79704715D01*
X174319429Y-79633286D01*
X174462286Y-79561857D01*
X174890857Y-79561857D01*
X175033714Y-79633286D01*
X175105143Y-79704715D01*
X175176571Y-79847572D01*
X175176571Y-80133286D01*
X175105143Y-80276143D01*
D11*
X118467286Y-86177381D02*
X118467286Y-85177381D01*
X118705381Y-85177381D01*
X118848239Y-85225000D01*
X118943477Y-85320238D01*
X118991096Y-85415476D01*
X119038715Y-85605952D01*
X119038715Y-85748810D01*
X118991096Y-85939286D01*
X118943477Y-86034524D01*
X118848239Y-86129762D01*
X118705381Y-86177381D01*
X118467286Y-86177381D01*
X119657762Y-85177381D02*
X119848239Y-85177381D01*
X119943477Y-85225000D01*
X120038715Y-85320238D01*
X120086334Y-85510714D01*
X120086334Y-85844048D01*
X120038715Y-86034524D01*
X119943477Y-86129762D01*
X119848239Y-86177381D01*
X119657762Y-86177381D01*
X119562524Y-86129762D01*
X119467286Y-86034524D01*
X119419667Y-85844048D01*
X119419667Y-85510714D01*
X119467286Y-85320238D01*
X119562524Y-85225000D01*
X119657762Y-85177381D01*
X118491096Y-87765000D02*
X118395858Y-87717381D01*
X118253001Y-87717381D01*
X118110143Y-87765000D01*
X118014905Y-87860238D01*
X117967286Y-87955476D01*
X117919667Y-88145952D01*
X117919667Y-88288810D01*
X117967286Y-88479286D01*
X118014905Y-88574524D01*
X118110143Y-88669762D01*
X118253001Y-88717381D01*
X118348239Y-88717381D01*
X118491096Y-88669762D01*
X118538715Y-88622143D01*
X118538715Y-88288810D01*
X118348239Y-88288810D01*
X118967286Y-88717381D02*
X118967286Y-87717381D01*
X119538715Y-88717381D01*
X119538715Y-87717381D01*
X120014905Y-88717381D02*
X120014905Y-87717381D01*
X120253000Y-87717381D01*
X120395858Y-87765000D01*
X120491096Y-87860238D01*
X120538715Y-87955476D01*
X120586334Y-88145952D01*
X120586334Y-88288810D01*
X120538715Y-88479286D01*
X120491096Y-88574524D01*
X120395858Y-88669762D01*
X120253000Y-88717381D01*
X120014905Y-88717381D01*
X117967286Y-83256429D02*
X118729191Y-83256429D01*
X118348239Y-83637381D02*
X118348239Y-82875476D01*
X119681572Y-82637381D02*
X119205381Y-82637381D01*
X119157762Y-83113571D01*
X119205381Y-83065952D01*
X119300619Y-83018333D01*
X119538715Y-83018333D01*
X119633953Y-83065952D01*
X119681572Y-83113571D01*
X119729191Y-83208810D01*
X119729191Y-83446905D01*
X119681572Y-83542143D01*
X119633953Y-83589762D01*
X119538715Y-83637381D01*
X119300619Y-83637381D01*
X119205381Y-83589762D01*
X119157762Y-83542143D01*
X120014905Y-82637381D02*
X120348238Y-83637381D01*
X120681572Y-82637381D01*
X122928000Y-77978096D02*
X122975619Y-77882858D01*
X122975619Y-77740001D01*
X122928000Y-77597143D01*
X122832762Y-77501905D01*
X122737524Y-77454286D01*
X122547048Y-77406667D01*
X122404190Y-77406667D01*
X122213714Y-77454286D01*
X122118476Y-77501905D01*
X122023238Y-77597143D01*
X121975619Y-77740001D01*
X121975619Y-77835239D01*
X122023238Y-77978096D01*
X122070857Y-78025715D01*
X122404190Y-78025715D01*
X122404190Y-77835239D01*
X121975619Y-78454286D02*
X122975619Y-78454286D01*
X121975619Y-79025715D01*
X122975619Y-79025715D01*
X121975619Y-79501905D02*
X122975619Y-79501905D01*
X122975619Y-79740000D01*
X122928000Y-79882858D01*
X122832762Y-79978096D01*
X122737524Y-80025715D01*
X122547048Y-80073334D01*
X122404190Y-80073334D01*
X122213714Y-80025715D01*
X122118476Y-79978096D01*
X122023238Y-79882858D01*
X121975619Y-79740000D01*
X121975619Y-79501905D01*
X114736571Y-77454286D02*
X114736571Y-78216191D01*
X114355619Y-77835239D02*
X115117524Y-77835239D01*
X115355619Y-79168572D02*
X115355619Y-78692381D01*
X114879429Y-78644762D01*
X114927048Y-78692381D01*
X114974667Y-78787619D01*
X114974667Y-79025715D01*
X114927048Y-79120953D01*
X114879429Y-79168572D01*
X114784190Y-79216191D01*
X114546095Y-79216191D01*
X114450857Y-79168572D01*
X114403238Y-79120953D01*
X114355619Y-79025715D01*
X114355619Y-78787619D01*
X114403238Y-78692381D01*
X114450857Y-78644762D01*
X115355619Y-79501905D02*
X114355619Y-79835238D01*
X115355619Y-80168572D01*
X119483238Y-77525714D02*
X119435619Y-77668571D01*
X119435619Y-77906667D01*
X119483238Y-78001905D01*
X119530857Y-78049524D01*
X119626095Y-78097143D01*
X119721333Y-78097143D01*
X119816571Y-78049524D01*
X119864190Y-78001905D01*
X119911810Y-77906667D01*
X119959429Y-77716190D01*
X120007048Y-77620952D01*
X120054667Y-77573333D01*
X120149905Y-77525714D01*
X120245143Y-77525714D01*
X120340381Y-77573333D01*
X120388000Y-77620952D01*
X120435619Y-77716190D01*
X120435619Y-77954286D01*
X120388000Y-78097143D01*
X119435619Y-78525714D02*
X120435619Y-78525714D01*
X120435619Y-78763809D01*
X120388000Y-78906667D01*
X120292762Y-79001905D01*
X120197524Y-79049524D01*
X120007048Y-79097143D01*
X119864190Y-79097143D01*
X119673714Y-79049524D01*
X119578476Y-79001905D01*
X119483238Y-78906667D01*
X119435619Y-78763809D01*
X119435619Y-78525714D01*
X119721333Y-79478095D02*
X119721333Y-79954286D01*
X119435619Y-79382857D02*
X120435619Y-79716190D01*
X119435619Y-80049524D01*
X116943238Y-77549524D02*
X116895619Y-77692381D01*
X116895619Y-77930477D01*
X116943238Y-78025715D01*
X116990857Y-78073334D01*
X117086095Y-78120953D01*
X117181333Y-78120953D01*
X117276571Y-78073334D01*
X117324190Y-78025715D01*
X117371810Y-77930477D01*
X117419429Y-77740000D01*
X117467048Y-77644762D01*
X117514667Y-77597143D01*
X117609905Y-77549524D01*
X117705143Y-77549524D01*
X117800381Y-77597143D01*
X117848000Y-77644762D01*
X117895619Y-77740000D01*
X117895619Y-77978096D01*
X117848000Y-78120953D01*
X116990857Y-79120953D02*
X116943238Y-79073334D01*
X116895619Y-78930477D01*
X116895619Y-78835239D01*
X116943238Y-78692381D01*
X117038476Y-78597143D01*
X117133714Y-78549524D01*
X117324190Y-78501905D01*
X117467048Y-78501905D01*
X117657524Y-78549524D01*
X117752762Y-78597143D01*
X117848000Y-78692381D01*
X117895619Y-78835239D01*
X117895619Y-78930477D01*
X117848000Y-79073334D01*
X117800381Y-79120953D01*
X116895619Y-80025715D02*
X116895619Y-79549524D01*
X117895619Y-79549524D01*
D12*
X114610859Y-118153571D02*
X114110859Y-117439286D01*
X113753716Y-118153571D02*
X113753716Y-116653571D01*
X114325144Y-116653571D01*
X114468002Y-116725000D01*
X114539430Y-116796429D01*
X114610859Y-116939286D01*
X114610859Y-117153571D01*
X114539430Y-117296429D01*
X114468002Y-117367857D01*
X114325144Y-117439286D01*
X113753716Y-117439286D01*
X115825144Y-118082143D02*
X115682287Y-118153571D01*
X115396573Y-118153571D01*
X115253716Y-118082143D01*
X115182287Y-117939286D01*
X115182287Y-117367857D01*
X115253716Y-117225000D01*
X115396573Y-117153571D01*
X115682287Y-117153571D01*
X115825144Y-117225000D01*
X115896573Y-117367857D01*
X115896573Y-117510714D01*
X115182287Y-117653571D01*
X117182287Y-118153571D02*
X117182287Y-117367857D01*
X117110858Y-117225000D01*
X116968001Y-117153571D01*
X116682287Y-117153571D01*
X116539430Y-117225000D01*
X117182287Y-118082143D02*
X117039430Y-118153571D01*
X116682287Y-118153571D01*
X116539430Y-118082143D01*
X116468001Y-117939286D01*
X116468001Y-117796429D01*
X116539430Y-117653571D01*
X116682287Y-117582143D01*
X117039430Y-117582143D01*
X117182287Y-117510714D01*
X118539430Y-118153571D02*
X118539430Y-116653571D01*
X118539430Y-118082143D02*
X118396573Y-118153571D01*
X118110859Y-118153571D01*
X117968001Y-118082143D01*
X117896573Y-118010714D01*
X117825144Y-117867857D01*
X117825144Y-117439286D01*
X117896573Y-117296429D01*
X117968001Y-117225000D01*
X118110859Y-117153571D01*
X118396573Y-117153571D01*
X118539430Y-117225000D01*
X119110859Y-117153571D02*
X119468002Y-118153571D01*
X119825144Y-117153571D02*
X119468002Y-118153571D01*
X119325144Y-118510714D01*
X119253716Y-118582143D01*
X119110859Y-118653571D01*
X121468001Y-117725000D02*
X122182287Y-117725000D01*
X121325144Y-118153571D02*
X121825144Y-116653571D01*
X122325144Y-118153571D01*
X122825144Y-118153571D02*
X122825144Y-117153571D01*
X122825144Y-116653571D02*
X122753715Y-116725000D01*
X122825144Y-116796429D01*
X122896572Y-116725000D01*
X122825144Y-116653571D01*
X122825144Y-116796429D01*
X123539430Y-118153571D02*
X123539430Y-117153571D01*
X123539430Y-117296429D02*
X123610858Y-117225000D01*
X123753716Y-117153571D01*
X123968001Y-117153571D01*
X124110858Y-117225000D01*
X124182287Y-117367857D01*
X124182287Y-118153571D01*
X124182287Y-117367857D02*
X124253716Y-117225000D01*
X124396573Y-117153571D01*
X124610858Y-117153571D01*
X124753716Y-117225000D01*
X124825144Y-117367857D01*
X124825144Y-118153571D01*
X127182287Y-117367857D02*
X126682287Y-117367857D01*
X126682287Y-118153571D02*
X126682287Y-116653571D01*
X127396573Y-116653571D01*
X127968001Y-118153571D02*
X127968001Y-117153571D01*
X127968001Y-116653571D02*
X127896572Y-116725000D01*
X127968001Y-116796429D01*
X128039429Y-116725000D01*
X127968001Y-116653571D01*
X127968001Y-116796429D01*
X128682287Y-118153571D02*
X128682287Y-117153571D01*
X128682287Y-117439286D02*
X128753715Y-117296429D01*
X128825144Y-117225000D01*
X128968001Y-117153571D01*
X129110858Y-117153571D01*
X130182286Y-118082143D02*
X130039429Y-118153571D01*
X129753715Y-118153571D01*
X129610858Y-118082143D01*
X129539429Y-117939286D01*
X129539429Y-117367857D01*
X129610858Y-117225000D01*
X129753715Y-117153571D01*
X130039429Y-117153571D01*
X130182286Y-117225000D01*
X130253715Y-117367857D01*
X130253715Y-117510714D01*
X129539429Y-117653571D01*
X131825143Y-116653571D02*
X132325143Y-118153571D01*
X132825143Y-116653571D01*
X133253714Y-116796429D02*
X133325143Y-116725000D01*
X133468000Y-116653571D01*
X133825143Y-116653571D01*
X133968000Y-116725000D01*
X134039429Y-116796429D01*
X134110857Y-116939286D01*
X134110857Y-117082143D01*
X134039429Y-117296429D01*
X133182286Y-118153571D01*
X134110857Y-118153571D01*
X134753714Y-118010714D02*
X134825142Y-118082143D01*
X134753714Y-118153571D01*
X134682285Y-118082143D01*
X134753714Y-118010714D01*
X134753714Y-118153571D01*
X135753714Y-116653571D02*
X135896571Y-116653571D01*
X136039428Y-116725000D01*
X136110857Y-116796429D01*
X136182286Y-116939286D01*
X136253714Y-117225000D01*
X136253714Y-117582143D01*
X136182286Y-117867857D01*
X136110857Y-118010714D01*
X136039428Y-118082143D01*
X135896571Y-118153571D01*
X135753714Y-118153571D01*
X135610857Y-118082143D01*
X135539428Y-118010714D01*
X135468000Y-117867857D01*
X135396571Y-117582143D01*
X135396571Y-117225000D01*
X135468000Y-116939286D01*
X135539428Y-116796429D01*
X135610857Y-116725000D01*
X135753714Y-116653571D01*
D13*
X140208000Y-125095000D02*
X157988000Y-125095000D01*
X157988000Y-125095000D02*
X157988000Y-122555000D01*
X157988000Y-122555000D02*
X140208000Y-122555000D01*
X137388000Y-125375000D02*
X138938000Y-125375000D01*
X140208000Y-125095000D02*
X140208000Y-122555000D01*
X138938000Y-122275000D02*
X137388000Y-122275000D01*
X137388000Y-122275000D02*
X137388000Y-125375000D01*
X163068000Y-125095000D02*
X175768000Y-125095000D01*
X175768000Y-125095000D02*
X175768000Y-122555000D01*
X175768000Y-122555000D02*
X163068000Y-122555000D01*
X160248000Y-125375000D02*
X161798000Y-125375000D01*
X163068000Y-125095000D02*
X163068000Y-122555000D01*
X161798000Y-122275000D02*
X160248000Y-122275000D01*
X160248000Y-122275000D02*
X160248000Y-125375000D01*
X131064000Y-76835000D02*
X153924000Y-76835000D01*
X153924000Y-76835000D02*
X153924000Y-74295000D01*
X153924000Y-74295000D02*
X131064000Y-74295000D01*
X128244000Y-77115000D02*
X129794000Y-77115000D01*
X131064000Y-76835000D02*
X131064000Y-74295000D01*
X129794000Y-74015000D02*
X128244000Y-74015000D01*
X128244000Y-74015000D02*
X128244000Y-77115000D01*
X157988000Y-76835000D02*
X175768000Y-76835000D01*
X175768000Y-76835000D02*
X175768000Y-74295000D01*
X175768000Y-74295000D02*
X157988000Y-74295000D01*
X155168000Y-77115000D02*
X156718000Y-77115000D01*
X157988000Y-76835000D02*
X157988000Y-74295000D01*
X156718000Y-74015000D02*
X155168000Y-74015000D01*
X155168000Y-74015000D02*
X155168000Y-77115000D01*
D14*
X163008000Y-87055000D02*
X165668000Y-87055000D01*
X163008000Y-81915000D02*
X163008000Y-87055000D01*
X165668000Y-81915000D02*
X165668000Y-87055000D01*
X163008000Y-81915000D02*
X165668000Y-81915000D01*
X163008000Y-80645000D02*
X163008000Y-79315000D01*
X163008000Y-79315000D02*
X164338000Y-79315000D01*
X160468000Y-87055000D02*
X163128000Y-87055000D01*
X160468000Y-81915000D02*
X160468000Y-87055000D01*
X163128000Y-81915000D02*
X163128000Y-87055000D01*
X160468000Y-81915000D02*
X163128000Y-81915000D01*
X160468000Y-80645000D02*
X160468000Y-79315000D01*
X160468000Y-79315000D02*
X161798000Y-79315000D01*
D13*
X177988400Y-115331300D02*
X178388400Y-115331300D01*
X176888400Y-118831300D02*
X176888400Y-111831300D01*
X177988400Y-118831300D02*
X177988400Y-111831300D01*
X170788400Y-118831300D02*
X178388400Y-118831300D01*
X178388400Y-111831300D02*
X170788400Y-111831300D01*
X170788400Y-111831300D02*
X170788400Y-118831300D01*
D14*
X157928000Y-87055000D02*
X160588000Y-87055000D01*
X157928000Y-81915000D02*
X157928000Y-87055000D01*
X160588000Y-81915000D02*
X160588000Y-87055000D01*
X157928000Y-81915000D02*
X160588000Y-81915000D01*
X157928000Y-80645000D02*
X157928000Y-79315000D01*
X157928000Y-79315000D02*
X159258000Y-79315000D01*
D13*
X177988400Y-107063600D02*
X178388400Y-107063600D01*
X176888400Y-110563600D02*
X176888400Y-103563600D01*
X177988400Y-110563600D02*
X177988400Y-103563600D01*
X170788400Y-110563600D02*
X178388400Y-110563600D01*
X178388400Y-103563600D02*
X170788400Y-103563600D01*
X170788400Y-103563600D02*
X170788400Y-110563600D01*
D14*
X122368000Y-89595000D02*
X125028000Y-89595000D01*
X122368000Y-84455000D02*
X122368000Y-89595000D01*
X125028000Y-84455000D02*
X125028000Y-89595000D01*
X122368000Y-84455000D02*
X125028000Y-84455000D01*
X122368000Y-83185000D02*
X122368000Y-81855000D01*
X122368000Y-81855000D02*
X123698000Y-81855000D01*
X123758000Y-76895000D02*
X123758000Y-74235000D01*
X116078000Y-76895000D02*
X123758000Y-76895000D01*
X116078000Y-74235000D02*
X123758000Y-74235000D01*
X116078000Y-76895000D02*
X116078000Y-74235000D01*
X114808000Y-76895000D02*
X113478000Y-76895000D01*
X113478000Y-76895000D02*
X113478000Y-75565000D01*
D13*
X115158100Y-91990000D02*
X112283000Y-94965100D01*
X115159000Y-109940000D02*
X112308000Y-106964900D01*
X130008000Y-106964900D02*
X127157900Y-109940000D01*
X127157900Y-91990000D02*
X130033000Y-94965100D01*
X122633000Y-100965000D02*
G75*
G03X122633000Y-100965000I-1475000J0D01*
G01*
X125258000Y-100965000D02*
G75*
G03X125258000Y-100965000I-4100000J0D01*
G01*
X112308000Y-94965100D02*
X112308000Y-106964900D01*
X130008000Y-94965100D02*
X130008000Y-106964000D01*
X115158100Y-91990000D02*
X127157900Y-91990000D01*
X115158100Y-109940000D02*
X127157900Y-109940000D01*
D14*
X176618000Y-96825000D02*
X174018000Y-96825000D01*
X176618000Y-100025000D02*
X174918000Y-100025000D01*
X144046500Y-88357600D02*
X142846500Y-88357600D01*
X142846500Y-86597600D02*
X144046500Y-86597600D01*
X170088000Y-84845000D02*
X171288000Y-84845000D01*
X171288000Y-86605000D02*
X170088000Y-86605000D01*
X168818000Y-93735000D02*
X170018000Y-93735000D01*
X170018000Y-95495000D02*
X168818000Y-95495000D01*
X170018000Y-100575000D02*
X168818000Y-100575000D01*
X168818000Y-98815000D02*
X170018000Y-98815000D01*
X176368000Y-92955000D02*
X175168000Y-92955000D01*
X175168000Y-91195000D02*
X176368000Y-91195000D01*
X171288000Y-82795000D02*
X170088000Y-82795000D01*
X170088000Y-81035000D02*
X171288000Y-81035000D01*
X127144900Y-80546900D02*
X134144900Y-80546900D01*
X127144900Y-85746900D02*
X134144900Y-85746900D01*
X134144900Y-85746900D02*
X134144900Y-84746900D01*
X152043600Y-80044400D02*
X149393600Y-80044400D01*
X152043600Y-84344400D02*
X149393600Y-84344400D01*
X152069076Y-84328788D02*
G75*
G03X152043600Y-80044400I-1325476J2134388D01*
G01*
X149365573Y-80062256D02*
G75*
G03X149393600Y-84344400I1378027J-2132144D01*
G01*
X146232000Y-97989000D02*
X146232000Y-98019000D01*
X146232000Y-104449000D02*
X146232000Y-104419000D01*
X139772000Y-104449000D02*
X139772000Y-104419000D01*
X139772000Y-98019000D02*
X139772000Y-97989000D01*
X146232000Y-99919000D02*
X146232000Y-102519000D01*
X139772000Y-97989000D02*
X146232000Y-97989000D01*
X139772000Y-99919000D02*
X139772000Y-102519000D01*
X139772000Y-104449000D02*
X146232000Y-104449000D01*
X161964000Y-109609000D02*
X161964000Y-110609000D01*
X163664000Y-110609000D02*
X163664000Y-109609000D01*
X160778000Y-100715000D02*
X161948000Y-100715000D01*
X165358000Y-100715000D02*
X164188000Y-100715000D01*
X164588000Y-96135000D02*
X164188000Y-96135000D01*
X161548000Y-96135000D02*
X161948000Y-96135000D01*
X160778000Y-96905000D02*
X160778000Y-100715000D01*
X160778000Y-96905000D02*
X161548000Y-96135000D01*
X165358000Y-96905000D02*
X165358000Y-100715000D01*
X165358000Y-96905000D02*
X164588000Y-96135000D01*
D15*
G36*
X134627620Y-92534740D02*
X134663180Y-92514420D01*
X134741920Y-92466160D01*
X134853680Y-92392500D01*
X134985760Y-92306140D01*
X135117840Y-92214700D01*
X135227060Y-92143580D01*
X135303260Y-92092780D01*
X135333740Y-92075000D01*
X135351520Y-92082620D01*
X135415020Y-92113100D01*
X135503920Y-92158820D01*
X135557260Y-92186760D01*
X135641080Y-92222320D01*
X135684260Y-92229940D01*
X135689340Y-92219780D01*
X135719820Y-92156280D01*
X135768080Y-92047060D01*
X135831580Y-91902280D01*
X135905240Y-91732100D01*
X135981440Y-91549220D01*
X136060180Y-91363800D01*
X136133840Y-91186000D01*
X136197340Y-91025980D01*
X136250680Y-90893900D01*
X136286240Y-90805000D01*
X136298940Y-90766900D01*
X136293860Y-90756740D01*
X136253220Y-90716100D01*
X136179560Y-90662760D01*
X136022080Y-90533220D01*
X135864600Y-90340180D01*
X135770620Y-90119200D01*
X135737600Y-89872820D01*
X135765540Y-89644220D01*
X135854440Y-89425780D01*
X136006840Y-89230200D01*
X136192260Y-89082880D01*
X136408160Y-88991440D01*
X136652000Y-88960960D01*
X136883140Y-88986360D01*
X137106660Y-89075260D01*
X137304780Y-89225120D01*
X137388600Y-89321640D01*
X137502900Y-89519760D01*
X137566400Y-89733120D01*
X137574020Y-89789000D01*
X137563860Y-90022680D01*
X137495280Y-90246200D01*
X137370820Y-90446860D01*
X137200640Y-90611960D01*
X137177780Y-90627200D01*
X137099040Y-90688160D01*
X137045700Y-90728800D01*
X137002520Y-90761820D01*
X137302240Y-91480640D01*
X137350500Y-91594940D01*
X137431780Y-91793060D01*
X137502900Y-91960700D01*
X137561320Y-92095320D01*
X137601960Y-92186760D01*
X137619740Y-92222320D01*
X137619740Y-92224860D01*
X137647680Y-92229940D01*
X137701020Y-92209620D01*
X137802620Y-92161360D01*
X137868660Y-92125800D01*
X137944860Y-92090240D01*
X137980420Y-92075000D01*
X138008360Y-92092780D01*
X138082020Y-92138500D01*
X138188700Y-92209620D01*
X138318240Y-92298520D01*
X138440160Y-92382340D01*
X138551920Y-92456000D01*
X138633200Y-92509340D01*
X138673840Y-92529660D01*
X138678920Y-92529660D01*
X138714480Y-92509340D01*
X138780520Y-92456000D01*
X138877040Y-92364560D01*
X139016740Y-92227400D01*
X139037060Y-92204540D01*
X139151360Y-92090240D01*
X139242800Y-91993720D01*
X139306300Y-91922600D01*
X139329160Y-91892120D01*
X139329160Y-91892120D01*
X139308840Y-91854020D01*
X139255500Y-91770200D01*
X139181840Y-91655900D01*
X139090400Y-91523820D01*
X138851640Y-91178380D01*
X138983720Y-90850720D01*
X139024360Y-90751660D01*
X139075160Y-90629740D01*
X139113260Y-90543380D01*
X139131040Y-90505280D01*
X139166600Y-90492580D01*
X139255500Y-90472260D01*
X139385040Y-90444320D01*
X139539980Y-90416380D01*
X139687300Y-90388440D01*
X139819380Y-90363040D01*
X139915900Y-90345260D01*
X139959080Y-90337640D01*
X139969240Y-90330020D01*
X139979400Y-90309700D01*
X139984480Y-90263980D01*
X139987020Y-90182700D01*
X139989560Y-90055700D01*
X139989560Y-89872820D01*
X139989560Y-89852500D01*
X139987020Y-89677240D01*
X139984480Y-89537540D01*
X139979400Y-89446100D01*
X139974320Y-89410540D01*
X139974320Y-89410540D01*
X139931140Y-89400380D01*
X139837160Y-89380060D01*
X139705080Y-89354660D01*
X139547600Y-89324180D01*
X139537440Y-89321640D01*
X139379960Y-89291160D01*
X139245340Y-89263220D01*
X139153900Y-89242900D01*
X139115800Y-89230200D01*
X139105640Y-89220040D01*
X139075160Y-89156540D01*
X139029440Y-89060020D01*
X138976100Y-88940640D01*
X138925300Y-88816180D01*
X138882120Y-88704420D01*
X138851640Y-88620600D01*
X138841480Y-88582500D01*
X138841480Y-88582500D01*
X138866880Y-88544400D01*
X138920220Y-88463120D01*
X138996420Y-88348820D01*
X139090400Y-88214200D01*
X139095480Y-88204040D01*
X139186920Y-88071960D01*
X139260580Y-87957660D01*
X139308840Y-87876380D01*
X139329160Y-87840820D01*
X139326620Y-87838280D01*
X139298680Y-87800180D01*
X139230100Y-87723980D01*
X139133580Y-87622380D01*
X139016740Y-87503000D01*
X138978640Y-87467440D01*
X138849100Y-87340440D01*
X138757660Y-87256620D01*
X138701780Y-87213440D01*
X138676380Y-87203280D01*
X138673840Y-87203280D01*
X138633200Y-87228680D01*
X138549380Y-87284560D01*
X138435080Y-87360760D01*
X138300460Y-87452200D01*
X138290300Y-87459820D01*
X138158220Y-87551260D01*
X138046460Y-87624920D01*
X137967720Y-87678260D01*
X137932160Y-87698580D01*
X137927080Y-87698580D01*
X137871200Y-87683340D01*
X137777220Y-87650320D01*
X137660380Y-87604600D01*
X137535920Y-87553800D01*
X137424160Y-87508080D01*
X137340340Y-87469980D01*
X137302240Y-87447120D01*
X137299700Y-87444580D01*
X137287000Y-87396320D01*
X137264140Y-87297260D01*
X137233660Y-87160100D01*
X137203180Y-86995000D01*
X137198100Y-86969600D01*
X137167620Y-86809580D01*
X137142220Y-86680040D01*
X137124440Y-86588600D01*
X137114280Y-86550500D01*
X137091420Y-86545420D01*
X137015220Y-86540340D01*
X136895840Y-86537800D01*
X136753600Y-86535260D01*
X136601200Y-86535260D01*
X136453880Y-86540340D01*
X136329420Y-86542880D01*
X136237980Y-86550500D01*
X136199880Y-86558120D01*
X136199880Y-86560660D01*
X136184640Y-86608920D01*
X136164320Y-86707980D01*
X136136380Y-86847680D01*
X136103360Y-87010240D01*
X136098280Y-87040720D01*
X136067800Y-87198200D01*
X136042400Y-87327740D01*
X136022080Y-87419180D01*
X136011920Y-87454740D01*
X135999220Y-87462360D01*
X135933180Y-87490300D01*
X135826500Y-87533480D01*
X135694420Y-87586820D01*
X135389620Y-87711280D01*
X135013700Y-87454740D01*
X134980680Y-87431880D01*
X134846060Y-87337900D01*
X134734300Y-87264240D01*
X134658100Y-87215980D01*
X134625080Y-87198200D01*
X134622540Y-87198200D01*
X134584440Y-87231220D01*
X134510780Y-87299800D01*
X134409180Y-87398860D01*
X134292340Y-87518240D01*
X134203440Y-87604600D01*
X134101840Y-87708740D01*
X134035800Y-87779860D01*
X134000240Y-87825580D01*
X133987540Y-87853520D01*
X133990080Y-87871300D01*
X134015480Y-87909400D01*
X134068820Y-87993220D01*
X134147560Y-88104980D01*
X134239000Y-88239600D01*
X134312660Y-88348820D01*
X134393940Y-88475820D01*
X134447280Y-88564720D01*
X134465060Y-88607900D01*
X134459980Y-88628220D01*
X134434580Y-88699340D01*
X134391400Y-88811100D01*
X134332980Y-88943180D01*
X134203440Y-89240360D01*
X134010400Y-89278460D01*
X133891020Y-89298780D01*
X133725920Y-89331800D01*
X133568440Y-89362280D01*
X133322060Y-89410540D01*
X133314440Y-90314780D01*
X133352540Y-90330020D01*
X133388100Y-90340180D01*
X133479540Y-90360500D01*
X133609080Y-90385900D01*
X133764020Y-90413840D01*
X133893560Y-90439240D01*
X134025640Y-90464640D01*
X134122160Y-90482420D01*
X134162800Y-90492580D01*
X134172960Y-90505280D01*
X134205980Y-90568780D01*
X134254240Y-90670380D01*
X134305040Y-90792300D01*
X134358380Y-90919300D01*
X134404100Y-91036140D01*
X134437120Y-91125040D01*
X134449820Y-91173300D01*
X134432040Y-91206320D01*
X134381240Y-91285060D01*
X134310120Y-91394280D01*
X134218680Y-91526360D01*
X134129780Y-91655900D01*
X134053580Y-91770200D01*
X134002780Y-91848940D01*
X133979920Y-91887040D01*
X133990080Y-91912440D01*
X134043420Y-91975940D01*
X134142480Y-92077540D01*
X134289800Y-92222320D01*
X134312660Y-92245180D01*
X134429500Y-92359480D01*
X134528560Y-92450920D01*
X134597140Y-92511880D01*
X134627620Y-92534740D01*
X134627620Y-92534740D01*
G37*
X134627620Y-92534740D02*
X134663180Y-92514420D01*
X134741920Y-92466160D01*
X134853680Y-92392500D01*
X134985760Y-92306140D01*
X135117840Y-92214700D01*
X135227060Y-92143580D01*
X135303260Y-92092780D01*
X135333740Y-92075000D01*
X135351520Y-92082620D01*
X135415020Y-92113100D01*
X135503920Y-92158820D01*
X135557260Y-92186760D01*
X135641080Y-92222320D01*
X135684260Y-92229940D01*
X135689340Y-92219780D01*
X135719820Y-92156280D01*
X135768080Y-92047060D01*
X135831580Y-91902280D01*
X135905240Y-91732100D01*
X135981440Y-91549220D01*
X136060180Y-91363800D01*
X136133840Y-91186000D01*
X136197340Y-91025980D01*
X136250680Y-90893900D01*
X136286240Y-90805000D01*
X136298940Y-90766900D01*
X136293860Y-90756740D01*
X136253220Y-90716100D01*
X136179560Y-90662760D01*
X136022080Y-90533220D01*
X135864600Y-90340180D01*
X135770620Y-90119200D01*
X135737600Y-89872820D01*
X135765540Y-89644220D01*
X135854440Y-89425780D01*
X136006840Y-89230200D01*
X136192260Y-89082880D01*
X136408160Y-88991440D01*
X136652000Y-88960960D01*
X136883140Y-88986360D01*
X137106660Y-89075260D01*
X137304780Y-89225120D01*
X137388600Y-89321640D01*
X137502900Y-89519760D01*
X137566400Y-89733120D01*
X137574020Y-89789000D01*
X137563860Y-90022680D01*
X137495280Y-90246200D01*
X137370820Y-90446860D01*
X137200640Y-90611960D01*
X137177780Y-90627200D01*
X137099040Y-90688160D01*
X137045700Y-90728800D01*
X137002520Y-90761820D01*
X137302240Y-91480640D01*
X137350500Y-91594940D01*
X137431780Y-91793060D01*
X137502900Y-91960700D01*
X137561320Y-92095320D01*
X137601960Y-92186760D01*
X137619740Y-92222320D01*
X137619740Y-92224860D01*
X137647680Y-92229940D01*
X137701020Y-92209620D01*
X137802620Y-92161360D01*
X137868660Y-92125800D01*
X137944860Y-92090240D01*
X137980420Y-92075000D01*
X138008360Y-92092780D01*
X138082020Y-92138500D01*
X138188700Y-92209620D01*
X138318240Y-92298520D01*
X138440160Y-92382340D01*
X138551920Y-92456000D01*
X138633200Y-92509340D01*
X138673840Y-92529660D01*
X138678920Y-92529660D01*
X138714480Y-92509340D01*
X138780520Y-92456000D01*
X138877040Y-92364560D01*
X139016740Y-92227400D01*
X139037060Y-92204540D01*
X139151360Y-92090240D01*
X139242800Y-91993720D01*
X139306300Y-91922600D01*
X139329160Y-91892120D01*
X139329160Y-91892120D01*
X139308840Y-91854020D01*
X139255500Y-91770200D01*
X139181840Y-91655900D01*
X139090400Y-91523820D01*
X138851640Y-91178380D01*
X138983720Y-90850720D01*
X139024360Y-90751660D01*
X139075160Y-90629740D01*
X139113260Y-90543380D01*
X139131040Y-90505280D01*
X139166600Y-90492580D01*
X139255500Y-90472260D01*
X139385040Y-90444320D01*
X139539980Y-90416380D01*
X139687300Y-90388440D01*
X139819380Y-90363040D01*
X139915900Y-90345260D01*
X139959080Y-90337640D01*
X139969240Y-90330020D01*
X139979400Y-90309700D01*
X139984480Y-90263980D01*
X139987020Y-90182700D01*
X139989560Y-90055700D01*
X139989560Y-89872820D01*
X139989560Y-89852500D01*
X139987020Y-89677240D01*
X139984480Y-89537540D01*
X139979400Y-89446100D01*
X139974320Y-89410540D01*
X139974320Y-89410540D01*
X139931140Y-89400380D01*
X139837160Y-89380060D01*
X139705080Y-89354660D01*
X139547600Y-89324180D01*
X139537440Y-89321640D01*
X139379960Y-89291160D01*
X139245340Y-89263220D01*
X139153900Y-89242900D01*
X139115800Y-89230200D01*
X139105640Y-89220040D01*
X139075160Y-89156540D01*
X139029440Y-89060020D01*
X138976100Y-88940640D01*
X138925300Y-88816180D01*
X138882120Y-88704420D01*
X138851640Y-88620600D01*
X138841480Y-88582500D01*
X138841480Y-88582500D01*
X138866880Y-88544400D01*
X138920220Y-88463120D01*
X138996420Y-88348820D01*
X139090400Y-88214200D01*
X139095480Y-88204040D01*
X139186920Y-88071960D01*
X139260580Y-87957660D01*
X139308840Y-87876380D01*
X139329160Y-87840820D01*
X139326620Y-87838280D01*
X139298680Y-87800180D01*
X139230100Y-87723980D01*
X139133580Y-87622380D01*
X139016740Y-87503000D01*
X138978640Y-87467440D01*
X138849100Y-87340440D01*
X138757660Y-87256620D01*
X138701780Y-87213440D01*
X138676380Y-87203280D01*
X138673840Y-87203280D01*
X138633200Y-87228680D01*
X138549380Y-87284560D01*
X138435080Y-87360760D01*
X138300460Y-87452200D01*
X138290300Y-87459820D01*
X138158220Y-87551260D01*
X138046460Y-87624920D01*
X137967720Y-87678260D01*
X137932160Y-87698580D01*
X137927080Y-87698580D01*
X137871200Y-87683340D01*
X137777220Y-87650320D01*
X137660380Y-87604600D01*
X137535920Y-87553800D01*
X137424160Y-87508080D01*
X137340340Y-87469980D01*
X137302240Y-87447120D01*
X137299700Y-87444580D01*
X137287000Y-87396320D01*
X137264140Y-87297260D01*
X137233660Y-87160100D01*
X137203180Y-86995000D01*
X137198100Y-86969600D01*
X137167620Y-86809580D01*
X137142220Y-86680040D01*
X137124440Y-86588600D01*
X137114280Y-86550500D01*
X137091420Y-86545420D01*
X137015220Y-86540340D01*
X136895840Y-86537800D01*
X136753600Y-86535260D01*
X136601200Y-86535260D01*
X136453880Y-86540340D01*
X136329420Y-86542880D01*
X136237980Y-86550500D01*
X136199880Y-86558120D01*
X136199880Y-86560660D01*
X136184640Y-86608920D01*
X136164320Y-86707980D01*
X136136380Y-86847680D01*
X136103360Y-87010240D01*
X136098280Y-87040720D01*
X136067800Y-87198200D01*
X136042400Y-87327740D01*
X136022080Y-87419180D01*
X136011920Y-87454740D01*
X135999220Y-87462360D01*
X135933180Y-87490300D01*
X135826500Y-87533480D01*
X135694420Y-87586820D01*
X135389620Y-87711280D01*
X135013700Y-87454740D01*
X134980680Y-87431880D01*
X134846060Y-87337900D01*
X134734300Y-87264240D01*
X134658100Y-87215980D01*
X134625080Y-87198200D01*
X134622540Y-87198200D01*
X134584440Y-87231220D01*
X134510780Y-87299800D01*
X134409180Y-87398860D01*
X134292340Y-87518240D01*
X134203440Y-87604600D01*
X134101840Y-87708740D01*
X134035800Y-87779860D01*
X134000240Y-87825580D01*
X133987540Y-87853520D01*
X133990080Y-87871300D01*
X134015480Y-87909400D01*
X134068820Y-87993220D01*
X134147560Y-88104980D01*
X134239000Y-88239600D01*
X134312660Y-88348820D01*
X134393940Y-88475820D01*
X134447280Y-88564720D01*
X134465060Y-88607900D01*
X134459980Y-88628220D01*
X134434580Y-88699340D01*
X134391400Y-88811100D01*
X134332980Y-88943180D01*
X134203440Y-89240360D01*
X134010400Y-89278460D01*
X133891020Y-89298780D01*
X133725920Y-89331800D01*
X133568440Y-89362280D01*
X133322060Y-89410540D01*
X133314440Y-90314780D01*
X133352540Y-90330020D01*
X133388100Y-90340180D01*
X133479540Y-90360500D01*
X133609080Y-90385900D01*
X133764020Y-90413840D01*
X133893560Y-90439240D01*
X134025640Y-90464640D01*
X134122160Y-90482420D01*
X134162800Y-90492580D01*
X134172960Y-90505280D01*
X134205980Y-90568780D01*
X134254240Y-90670380D01*
X134305040Y-90792300D01*
X134358380Y-90919300D01*
X134404100Y-91036140D01*
X134437120Y-91125040D01*
X134449820Y-91173300D01*
X134432040Y-91206320D01*
X134381240Y-91285060D01*
X134310120Y-91394280D01*
X134218680Y-91526360D01*
X134129780Y-91655900D01*
X134053580Y-91770200D01*
X134002780Y-91848940D01*
X133979920Y-91887040D01*
X133990080Y-91912440D01*
X134043420Y-91975940D01*
X134142480Y-92077540D01*
X134289800Y-92222320D01*
X134312660Y-92245180D01*
X134429500Y-92359480D01*
X134528560Y-92450920D01*
X134597140Y-92511880D01*
X134627620Y-92534740D01*
D13*
X169040781Y-115664633D02*
X169755067Y-115664633D01*
X169897924Y-115712253D01*
X169993162Y-115807491D01*
X170040781Y-115950348D01*
X170040781Y-116045586D01*
X169040781Y-115283681D02*
X169040781Y-114664633D01*
X169421733Y-114997967D01*
X169421733Y-114855109D01*
X169469352Y-114759871D01*
X169516971Y-114712252D01*
X169612210Y-114664633D01*
X169850305Y-114664633D01*
X169945543Y-114712252D01*
X169993162Y-114759871D01*
X170040781Y-114855109D01*
X170040781Y-115140824D01*
X169993162Y-115236062D01*
X169945543Y-115283681D01*
X169040781Y-107396933D02*
X169755067Y-107396933D01*
X169897924Y-107444553D01*
X169993162Y-107539791D01*
X170040781Y-107682648D01*
X170040781Y-107777886D01*
X169040781Y-106444552D02*
X169040781Y-106920743D01*
X169516971Y-106968362D01*
X169469352Y-106920743D01*
X169421733Y-106825505D01*
X169421733Y-106587409D01*
X169469352Y-106492171D01*
X169516971Y-106444552D01*
X169612210Y-106396933D01*
X169850305Y-106396933D01*
X169945543Y-106444552D01*
X169993162Y-106492171D01*
X170040781Y-106587409D01*
X170040781Y-106825505D01*
X169993162Y-106920743D01*
X169945543Y-106968362D01*
X111930381Y-75898333D02*
X112644667Y-75898333D01*
X112787524Y-75945953D01*
X112882762Y-76041191D01*
X112930381Y-76184048D01*
X112930381Y-76279286D01*
X111930381Y-75517381D02*
X111930381Y-74850714D01*
X112930381Y-75279286D01*
X119872286Y-112117381D02*
X119872286Y-112831667D01*
X119824666Y-112974524D01*
X119729428Y-113069762D01*
X119586571Y-113117381D01*
X119491333Y-113117381D01*
X120538952Y-112117381D02*
X120729429Y-112117381D01*
X120824667Y-112165000D01*
X120919905Y-112260238D01*
X120967524Y-112450714D01*
X120967524Y-112784048D01*
X120919905Y-112974524D01*
X120824667Y-113069762D01*
X120729429Y-113117381D01*
X120538952Y-113117381D01*
X120443714Y-113069762D01*
X120348476Y-112974524D01*
X120300857Y-112784048D01*
X120300857Y-112450714D01*
X120348476Y-112260238D01*
X120443714Y-112165000D01*
X120538952Y-112117381D01*
X121586571Y-112641190D02*
X121586571Y-113117381D01*
X121253238Y-112117381D02*
X121586571Y-112641190D01*
X121919905Y-112117381D01*
X122777048Y-113117381D02*
X122205619Y-113117381D01*
X122491333Y-113117381D02*
X122491333Y-112117381D01*
X122396095Y-112260238D01*
X122300857Y-112355476D01*
X122205619Y-112403095D01*
X175672762Y-96622619D02*
X175577524Y-96575000D01*
X175482286Y-96479762D01*
X175339429Y-96336905D01*
X175244190Y-96289286D01*
X175148952Y-96289286D01*
X175196571Y-96527381D02*
X175101333Y-96479762D01*
X175006095Y-96384524D01*
X174958476Y-96194048D01*
X174958476Y-95860714D01*
X175006095Y-95670238D01*
X175101333Y-95575000D01*
X175196571Y-95527381D01*
X175387048Y-95527381D01*
X175482286Y-95575000D01*
X175577524Y-95670238D01*
X175625143Y-95860714D01*
X175625143Y-96194048D01*
X175577524Y-96384524D01*
X175482286Y-96479762D01*
X175387048Y-96527381D01*
X175196571Y-96527381D01*
X176577524Y-96527381D02*
X176006095Y-96527381D01*
X176291809Y-96527381D02*
X176291809Y-95527381D01*
X176196571Y-95670238D01*
X176101333Y-95765476D01*
X176006095Y-95813095D01*
X143279834Y-86229981D02*
X142946500Y-85753790D01*
X142708405Y-86229981D02*
X142708405Y-85229981D01*
X143089358Y-85229981D01*
X143184596Y-85277600D01*
X143232215Y-85325219D01*
X143279834Y-85420457D01*
X143279834Y-85563314D01*
X143232215Y-85658552D01*
X143184596Y-85706171D01*
X143089358Y-85753790D01*
X142708405Y-85753790D01*
X144232215Y-86229981D02*
X143660786Y-86229981D01*
X143946500Y-86229981D02*
X143946500Y-85229981D01*
X143851262Y-85372838D01*
X143756024Y-85468076D01*
X143660786Y-85515695D01*
X170521334Y-87877381D02*
X170188000Y-87401190D01*
X169949905Y-87877381D02*
X169949905Y-86877381D01*
X170330858Y-86877381D01*
X170426096Y-86925000D01*
X170473715Y-86972619D01*
X170521334Y-87067857D01*
X170521334Y-87210714D01*
X170473715Y-87305952D01*
X170426096Y-87353571D01*
X170330858Y-87401190D01*
X169949905Y-87401190D01*
X170902286Y-86972619D02*
X170949905Y-86925000D01*
X171045143Y-86877381D01*
X171283239Y-86877381D01*
X171378477Y-86925000D01*
X171426096Y-86972619D01*
X171473715Y-87067857D01*
X171473715Y-87163095D01*
X171426096Y-87305952D01*
X170854667Y-87877381D01*
X171473715Y-87877381D01*
X169251334Y-93162381D02*
X168918000Y-92686190D01*
X168679905Y-93162381D02*
X168679905Y-92162381D01*
X169060858Y-92162381D01*
X169156096Y-92210000D01*
X169203715Y-92257619D01*
X169251334Y-92352857D01*
X169251334Y-92495714D01*
X169203715Y-92590952D01*
X169156096Y-92638571D01*
X169060858Y-92686190D01*
X168679905Y-92686190D01*
X170156096Y-92162381D02*
X169679905Y-92162381D01*
X169632286Y-92638571D01*
X169679905Y-92590952D01*
X169775143Y-92543333D01*
X170013239Y-92543333D01*
X170108477Y-92590952D01*
X170156096Y-92638571D01*
X170203715Y-92733810D01*
X170203715Y-92971905D01*
X170156096Y-93067143D01*
X170108477Y-93114762D01*
X170013239Y-93162381D01*
X169775143Y-93162381D01*
X169679905Y-93114762D01*
X169632286Y-93067143D01*
X169251334Y-98447381D02*
X168918000Y-97971190D01*
X168679905Y-98447381D02*
X168679905Y-97447381D01*
X169060858Y-97447381D01*
X169156096Y-97495000D01*
X169203715Y-97542619D01*
X169251334Y-97637857D01*
X169251334Y-97780714D01*
X169203715Y-97875952D01*
X169156096Y-97923571D01*
X169060858Y-97971190D01*
X168679905Y-97971190D01*
X170108477Y-97447381D02*
X169918000Y-97447381D01*
X169822762Y-97495000D01*
X169775143Y-97542619D01*
X169679905Y-97685476D01*
X169632286Y-97875952D01*
X169632286Y-98256905D01*
X169679905Y-98352143D01*
X169727524Y-98399762D01*
X169822762Y-98447381D01*
X170013239Y-98447381D01*
X170108477Y-98399762D01*
X170156096Y-98352143D01*
X170203715Y-98256905D01*
X170203715Y-98018810D01*
X170156096Y-97923571D01*
X170108477Y-97875952D01*
X170013239Y-97828333D01*
X169822762Y-97828333D01*
X169727524Y-97875952D01*
X169679905Y-97923571D01*
X169632286Y-98018810D01*
X175601334Y-90827381D02*
X175268000Y-90351190D01*
X175029905Y-90827381D02*
X175029905Y-89827381D01*
X175410858Y-89827381D01*
X175506096Y-89875000D01*
X175553715Y-89922619D01*
X175601334Y-90017857D01*
X175601334Y-90160714D01*
X175553715Y-90255952D01*
X175506096Y-90303571D01*
X175410858Y-90351190D01*
X175029905Y-90351190D01*
X175934667Y-89827381D02*
X176601334Y-89827381D01*
X176172762Y-90827381D01*
X169402286Y-79667381D02*
X169973715Y-79667381D01*
X169688000Y-80667381D02*
X169688000Y-79667381D01*
X170307048Y-80667381D02*
X170307048Y-79667381D01*
X170307048Y-80143571D02*
X170878477Y-80143571D01*
X170878477Y-80667381D02*
X170878477Y-79667381D01*
X171878477Y-80667381D02*
X171307048Y-80667381D01*
X171592762Y-80667381D02*
X171592762Y-79667381D01*
X171497524Y-79810238D01*
X171402286Y-79905476D01*
X171307048Y-79953095D01*
X129882995Y-79099281D02*
X129882995Y-79908805D01*
X129930614Y-80004043D01*
X129978233Y-80051662D01*
X130073471Y-80099281D01*
X130263948Y-80099281D01*
X130359186Y-80051662D01*
X130406805Y-80004043D01*
X130454424Y-79908805D01*
X130454424Y-79099281D01*
X131454424Y-80099281D02*
X130882995Y-80099281D01*
X131168709Y-80099281D02*
X131168709Y-79099281D01*
X131073471Y-79242138D01*
X130978233Y-79337376D01*
X130882995Y-79384995D01*
X149556934Y-85546781D02*
X149080743Y-85546781D01*
X149080743Y-84546781D01*
X149890267Y-85546781D02*
X149890267Y-84546781D01*
X150128362Y-84546781D01*
X150271220Y-84594400D01*
X150366458Y-84689638D01*
X150414077Y-84784876D01*
X150461696Y-84975352D01*
X150461696Y-85118210D01*
X150414077Y-85308686D01*
X150366458Y-85403924D01*
X150271220Y-85499162D01*
X150128362Y-85546781D01*
X149890267Y-85546781D01*
X151461696Y-85546781D02*
X151128362Y-85070590D01*
X150890267Y-85546781D02*
X150890267Y-84546781D01*
X151271220Y-84546781D01*
X151366458Y-84594400D01*
X151414077Y-84642019D01*
X151461696Y-84737257D01*
X151461696Y-84880114D01*
X151414077Y-84975352D01*
X151366458Y-85022971D01*
X151271220Y-85070590D01*
X150890267Y-85070590D01*
X152414077Y-85546781D02*
X151842648Y-85546781D01*
X152128362Y-85546781D02*
X152128362Y-84546781D01*
X152033124Y-84689638D01*
X151937886Y-84784876D01*
X151842648Y-84832495D01*
X142240095Y-97573762D02*
X142382952Y-97621381D01*
X142621048Y-97621381D01*
X142716286Y-97573762D01*
X142763905Y-97526143D01*
X142811524Y-97430905D01*
X142811524Y-97335667D01*
X142763905Y-97240429D01*
X142716286Y-97192810D01*
X142621048Y-97145190D01*
X142430571Y-97097571D01*
X142335333Y-97049952D01*
X142287714Y-97002333D01*
X142240095Y-96907095D01*
X142240095Y-96811857D01*
X142287714Y-96716619D01*
X142335333Y-96669000D01*
X142430571Y-96621381D01*
X142668667Y-96621381D01*
X142811524Y-96669000D01*
X143763905Y-97621381D02*
X143192476Y-97621381D01*
X143478190Y-97621381D02*
X143478190Y-96621381D01*
X143382952Y-96764238D01*
X143287714Y-96859476D01*
X143192476Y-96907095D01*
X161421143Y-110275666D02*
X161468762Y-110323285D01*
X161516381Y-110466142D01*
X161516381Y-110561380D01*
X161468762Y-110704238D01*
X161373524Y-110799476D01*
X161278286Y-110847095D01*
X161087810Y-110894714D01*
X160944952Y-110894714D01*
X160754476Y-110847095D01*
X160659238Y-110799476D01*
X160564000Y-110704238D01*
X160516381Y-110561380D01*
X160516381Y-110466142D01*
X160564000Y-110323285D01*
X160611619Y-110275666D01*
X161516381Y-109323285D02*
X161516381Y-109894714D01*
X161516381Y-109609000D02*
X160516381Y-109609000D01*
X160659238Y-109704238D01*
X160754476Y-109799476D01*
X160802095Y-109894714D01*
X159885143Y-98591666D02*
X159932762Y-98639285D01*
X159980381Y-98782142D01*
X159980381Y-98877380D01*
X159932762Y-99020238D01*
X159837524Y-99115476D01*
X159742286Y-99163095D01*
X159551810Y-99210714D01*
X159408952Y-99210714D01*
X159218476Y-99163095D01*
X159123238Y-99115476D01*
X159028000Y-99020238D01*
X158980381Y-98877380D01*
X158980381Y-98782142D01*
X159028000Y-98639285D01*
X159075619Y-98591666D01*
X159075619Y-98210714D02*
X159028000Y-98163095D01*
X158980381Y-98067857D01*
X158980381Y-97829761D01*
X159028000Y-97734523D01*
X159075619Y-97686904D01*
X159170857Y-97639285D01*
X159266095Y-97639285D01*
X159408952Y-97686904D01*
X159980381Y-98258333D01*
X159980381Y-97639285D01*
X161129429Y-96035952D02*
X161129429Y-95274047D01*
X161510381Y-95654999D02*
X160748476Y-95654999D01*
D16*
X133676571Y-93308714D02*
X133792685Y-93308714D01*
X133850743Y-93345000D01*
X133908800Y-93417571D01*
X133937828Y-93562714D01*
X133937828Y-93816714D01*
X133908800Y-93961857D01*
X133850743Y-94034429D01*
X133792685Y-94070714D01*
X133676571Y-94070714D01*
X133618514Y-94034429D01*
X133560457Y-93961857D01*
X133531428Y-93816714D01*
X133531428Y-93562714D01*
X133560457Y-93417571D01*
X133618514Y-93345000D01*
X133676571Y-93308714D01*
X134199086Y-93562714D02*
X134199086Y-94324714D01*
X134199086Y-93599000D02*
X134257143Y-93562714D01*
X134373257Y-93562714D01*
X134431314Y-93599000D01*
X134460343Y-93635286D01*
X134489372Y-93707857D01*
X134489372Y-93925571D01*
X134460343Y-93998143D01*
X134431314Y-94034429D01*
X134373257Y-94070714D01*
X134257143Y-94070714D01*
X134199086Y-94034429D01*
X134982857Y-94034429D02*
X134924800Y-94070714D01*
X134808686Y-94070714D01*
X134750629Y-94034429D01*
X134721600Y-93961857D01*
X134721600Y-93671571D01*
X134750629Y-93599000D01*
X134808686Y-93562714D01*
X134924800Y-93562714D01*
X134982857Y-93599000D01*
X135011886Y-93671571D01*
X135011886Y-93744143D01*
X134721600Y-93816714D01*
X135273143Y-93562714D02*
X135273143Y-94070714D01*
X135273143Y-93635286D02*
X135302171Y-93599000D01*
X135360229Y-93562714D01*
X135447314Y-93562714D01*
X135505371Y-93599000D01*
X135534400Y-93671571D01*
X135534400Y-94070714D01*
X135824686Y-94070714D02*
X135824686Y-93308714D01*
X135824686Y-93671571D02*
X136173029Y-93671571D01*
X136173029Y-94070714D02*
X136173029Y-93308714D01*
X136724572Y-94070714D02*
X136724572Y-93671571D01*
X136695543Y-93599000D01*
X136637486Y-93562714D01*
X136521372Y-93562714D01*
X136463315Y-93599000D01*
X136724572Y-94034429D02*
X136666515Y-94070714D01*
X136521372Y-94070714D01*
X136463315Y-94034429D01*
X136434286Y-93961857D01*
X136434286Y-93889286D01*
X136463315Y-93816714D01*
X136521372Y-93780429D01*
X136666515Y-93780429D01*
X136724572Y-93744143D01*
X137014858Y-94070714D02*
X137014858Y-93562714D01*
X137014858Y-93707857D02*
X137043886Y-93635286D01*
X137072915Y-93599000D01*
X137130972Y-93562714D01*
X137189029Y-93562714D01*
X137653486Y-94070714D02*
X137653486Y-93308714D01*
X137653486Y-94034429D02*
X137595429Y-94070714D01*
X137479315Y-94070714D01*
X137421257Y-94034429D01*
X137392229Y-93998143D01*
X137363200Y-93925571D01*
X137363200Y-93707857D01*
X137392229Y-93635286D01*
X137421257Y-93599000D01*
X137479315Y-93562714D01*
X137595429Y-93562714D01*
X137653486Y-93599000D01*
X137885715Y-93562714D02*
X138001829Y-94070714D01*
X138117943Y-93707857D01*
X138234058Y-94070714D01*
X138350172Y-93562714D01*
X138843658Y-94070714D02*
X138843658Y-93671571D01*
X138814629Y-93599000D01*
X138756572Y-93562714D01*
X138640458Y-93562714D01*
X138582401Y-93599000D01*
X138843658Y-94034429D02*
X138785601Y-94070714D01*
X138640458Y-94070714D01*
X138582401Y-94034429D01*
X138553372Y-93961857D01*
X138553372Y-93889286D01*
X138582401Y-93816714D01*
X138640458Y-93780429D01*
X138785601Y-93780429D01*
X138843658Y-93744143D01*
X139133944Y-94070714D02*
X139133944Y-93562714D01*
X139133944Y-93707857D02*
X139162972Y-93635286D01*
X139192001Y-93599000D01*
X139250058Y-93562714D01*
X139308115Y-93562714D01*
X139743543Y-94034429D02*
X139685486Y-94070714D01*
X139569372Y-94070714D01*
X139511315Y-94034429D01*
X139482286Y-93961857D01*
X139482286Y-93671571D01*
X139511315Y-93599000D01*
X139569372Y-93562714D01*
X139685486Y-93562714D01*
X139743543Y-93599000D01*
X139772572Y-93671571D01*
X139772572Y-93744143D01*
X139482286Y-93816714D01*
%LPC*%
D17*
X138938000Y-123825000D03*
X141478000Y-123825000D03*
X144018000Y-123825000D03*
X146558000Y-123825000D03*
X149098000Y-123825000D03*
X151638000Y-123825000D03*
X154178000Y-123825000D03*
X156718000Y-123825000D03*
X161798000Y-123825000D03*
X164338000Y-123825000D03*
X166878000Y-123825000D03*
X169418000Y-123825000D03*
X171958000Y-123825000D03*
X174498000Y-123825000D03*
X129794000Y-75565000D03*
X132334000Y-75565000D03*
X134874000Y-75565000D03*
X137414000Y-75565000D03*
X139954000Y-75565000D03*
X142494000Y-75565000D03*
X145034000Y-75565000D03*
X147574000Y-75565000D03*
X150114000Y-75565000D03*
X152654000Y-75565000D03*
X156718000Y-75565000D03*
X159258000Y-75565000D03*
X161798000Y-75565000D03*
X164338000Y-75565000D03*
X166878000Y-75565000D03*
X169418000Y-75565000D03*
X171958000Y-75565000D03*
X174498000Y-75565000D03*
D18*
X164338000Y-80645000D03*
D19*
X164338000Y-83185000D03*
X164338000Y-85725000D03*
D18*
X161798000Y-80645000D03*
D19*
X161798000Y-83185000D03*
X161798000Y-85725000D03*
D20*
X173888400Y-113581300D03*
D21*
X173888400Y-117081300D03*
D18*
X159258000Y-80645000D03*
D19*
X159258000Y-83185000D03*
X159258000Y-85725000D03*
D20*
X173888400Y-105313600D03*
D21*
X173888400Y-108813600D03*
D18*
X123698000Y-83185000D03*
D19*
X123698000Y-85725000D03*
X123698000Y-88265000D03*
D18*
X114808000Y-75565000D03*
D19*
X117348000Y-75565000D03*
X119888000Y-75565000D03*
X122428000Y-75565000D03*
D22*
X121158000Y-109940000D03*
X119158000Y-109940000D03*
X123158000Y-109940000D03*
D23*
X130008000Y-100965000D03*
X130008000Y-98965000D03*
X130008000Y-102965000D03*
D24*
X127157988Y-94965012D03*
X115158012Y-106964988D03*
D25*
X174468000Y-97475000D03*
X174468000Y-98425000D03*
X174468000Y-99375000D03*
X177068000Y-99375000D03*
X177068000Y-97475000D03*
X177068000Y-98425000D03*
D26*
X142096500Y-87477600D03*
X144796500Y-87477600D03*
X172038000Y-85725000D03*
X169338000Y-85725000D03*
X170768000Y-94615000D03*
X168068000Y-94615000D03*
X168068000Y-99695000D03*
X170768000Y-99695000D03*
X174418000Y-92075000D03*
X177118000Y-92075000D03*
X169338000Y-81915000D03*
X172038000Y-81915000D03*
D27*
X133144900Y-84746900D03*
X133144900Y-81546900D03*
X128144900Y-84746900D03*
X128144900Y-81546900D03*
D28*
X151993600Y-82194400D03*
X149453600Y-82194400D03*
D29*
X139022000Y-103469000D03*
X139022000Y-98969000D03*
X146982000Y-98969000D03*
X146982000Y-103469000D03*
D30*
X162814000Y-111359000D03*
X162814000Y-108859000D03*
D31*
X163068000Y-96625000D03*
X163068000Y-100225000D03*
M02*
