M48
;DRILL file {KiCad 4.0.6-e0-6349~53~ubuntu16.04.1} date Wed Aug  2 12:30:23 2017
;FORMAT={2:4/ absolute / inch / keep zeros}
FMAT,2
INCH,TZ
T1C0.016
T2C0.031
T3C0.035
T4C0.039
T5C0.040
T6C0.047
T7C0.063
%
G90
G05
M72
T1
X055000Y-037550
X058000Y-034550
X058800Y-037250
X060800Y-034650
X064200Y-036450
X064200Y-040750
X065700Y-036000
X066669Y-035219
X068700Y-033750
T2
X058840Y-032360
X059840Y-032360
T3
X046913Y-043283
X047700Y-043283
X048487Y-043283
X051184Y-038963
X051184Y-039750
X051184Y-040537
T4
X045200Y-029750
X046200Y-029750
X047200Y-029750
X048200Y-029750
X048700Y-032750
X048700Y-033750
X048700Y-034750
X062700Y-031750
X062700Y-032750
X062700Y-033750
X063700Y-031750
X063700Y-032750
X063700Y-033750
X064700Y-031750
X064700Y-032750
X064700Y-033750
T5
X051100Y-029750
X052100Y-029750
X053100Y-029750
X054100Y-029750
X054700Y-048750
X055100Y-029750
X055700Y-048750
X056100Y-029750
X056700Y-048750
X057100Y-029750
X057700Y-048750
X058100Y-029750
X058700Y-048750
X059100Y-029750
X059700Y-048750
X060100Y-029750
X060700Y-048750
X061700Y-029750
X061700Y-048750
X062700Y-029750
X063700Y-029750
X063700Y-048750
X064700Y-029750
X064700Y-048750
X065700Y-029750
X065700Y-048750
X066700Y-029750
X066700Y-048750
X067700Y-029750
X067700Y-048750
X068700Y-029750
X068700Y-048750
T6
X068460Y-041462
X068460Y-042840
X068460Y-044717
X068460Y-046095
T7
X045338Y-042112
X050062Y-037388
T0
M30
