G04 #@! TF.GenerationSoftware,KiCad,Pcbnew,6.0.0-rc1-unknown-7dfc4e3~65~ubuntu18.04.1*
G04 #@! TF.CreationDate,2018-07-28T12:07:41+05:30*
G04 #@! TF.ProjectId,airmount,6169726D6F756E742E6B696361645F70,rev?*
G04 #@! TF.SameCoordinates,Original*
G04 #@! TF.FileFunction,Legend,Bot*
G04 #@! TF.FilePolarity,Positive*
%FSLAX46Y46*%
G04 Gerber Fmt 4.6, Leading zero omitted, Abs format (unit mm)*
G04 Created by KiCad (PCBNEW 6.0.0-rc1-unknown-7dfc4e3~65~ubuntu18.04.1) date Sat Jul 28 12:07:41 2018*
%MOMM*%
%LPD*%
G01*
G04 APERTURE LIST*
%ADD10C,0.152400*%
%ADD11C,4.464000*%
%ADD12C,0.100000*%
%ADD13C,2.940000*%
%ADD14R,2.150000X2.150000*%
%ADD15C,2.150000*%
G04 APERTURE END LIST*
D10*
X131402666Y-99356333D02*
X130918857Y-99356333D01*
X131499428Y-99646619D02*
X131160761Y-98630619D01*
X130822095Y-99646619D01*
X130483428Y-99646619D02*
X130483428Y-98969285D01*
X130483428Y-98630619D02*
X130531809Y-98679000D01*
X130483428Y-98727380D01*
X130435047Y-98679000D01*
X130483428Y-98630619D01*
X130483428Y-98727380D01*
X129999619Y-99646619D02*
X129999619Y-98969285D01*
X129999619Y-99162809D02*
X129951238Y-99066047D01*
X129902857Y-99017666D01*
X129806095Y-98969285D01*
X129709333Y-98969285D01*
X129370666Y-99646619D02*
X129370666Y-98969285D01*
X129370666Y-99066047D02*
X129322285Y-99017666D01*
X129225523Y-98969285D01*
X129080380Y-98969285D01*
X128983619Y-99017666D01*
X128935238Y-99114428D01*
X128935238Y-99646619D01*
X128935238Y-99114428D02*
X128886857Y-99017666D01*
X128790095Y-98969285D01*
X128644952Y-98969285D01*
X128548190Y-99017666D01*
X128499809Y-99114428D01*
X128499809Y-99646619D01*
X127870857Y-99646619D02*
X127967619Y-99598238D01*
X128016000Y-99549857D01*
X128064380Y-99453095D01*
X128064380Y-99162809D01*
X128016000Y-99066047D01*
X127967619Y-99017666D01*
X127870857Y-98969285D01*
X127725714Y-98969285D01*
X127628952Y-99017666D01*
X127580571Y-99066047D01*
X127532190Y-99162809D01*
X127532190Y-99453095D01*
X127580571Y-99549857D01*
X127628952Y-99598238D01*
X127725714Y-99646619D01*
X127870857Y-99646619D01*
X126661333Y-98969285D02*
X126661333Y-99646619D01*
X127096761Y-98969285D02*
X127096761Y-99501476D01*
X127048380Y-99598238D01*
X126951619Y-99646619D01*
X126806476Y-99646619D01*
X126709714Y-99598238D01*
X126661333Y-99549857D01*
X126177523Y-98969285D02*
X126177523Y-99646619D01*
X126177523Y-99066047D02*
X126129142Y-99017666D01*
X126032380Y-98969285D01*
X125887238Y-98969285D01*
X125790476Y-99017666D01*
X125742095Y-99114428D01*
X125742095Y-99646619D01*
X125403428Y-98969285D02*
X125016380Y-98969285D01*
X125258285Y-98630619D02*
X125258285Y-99501476D01*
X125209904Y-99598238D01*
X125113142Y-99646619D01*
X125016380Y-99646619D01*
X124919619Y-99743380D02*
X124145523Y-99743380D01*
X124000380Y-98969285D02*
X123758476Y-99646619D01*
X123516571Y-98969285D01*
X123177904Y-98727380D02*
X123129523Y-98679000D01*
X123032761Y-98630619D01*
X122790857Y-98630619D01*
X122694095Y-98679000D01*
X122645714Y-98727380D01*
X122597333Y-98824142D01*
X122597333Y-98920904D01*
X122645714Y-99066047D01*
X123226285Y-99646619D01*
X122597333Y-99646619D01*
%LPC*%
D11*
G04 #@! TO.C,M1*
X135991600Y-88900000D03*
X118008400Y-88900000D03*
G04 #@! TD*
D12*
G04 #@! TO.C,M2*
G36*
X131081085Y-95438077D02*
X131223783Y-95459245D01*
X131363718Y-95494297D01*
X131499545Y-95542896D01*
X131629953Y-95604575D01*
X131753688Y-95678739D01*
X131869558Y-95764674D01*
X131976447Y-95861552D01*
X132073325Y-95968441D01*
X132159260Y-96084311D01*
X132233424Y-96208046D01*
X132295103Y-96338454D01*
X132343702Y-96474281D01*
X132378754Y-96614216D01*
X132399922Y-96756914D01*
X132407000Y-96900999D01*
X132407000Y-96901001D01*
X132399922Y-97045086D01*
X132378754Y-97187784D01*
X132343702Y-97327719D01*
X132295103Y-97463546D01*
X132233424Y-97593954D01*
X132159260Y-97717689D01*
X132073325Y-97833559D01*
X131976447Y-97940448D01*
X131869558Y-98037326D01*
X131753688Y-98123261D01*
X131629953Y-98197425D01*
X131499545Y-98259104D01*
X131363718Y-98307703D01*
X131223783Y-98342755D01*
X131081085Y-98363923D01*
X130937000Y-98371001D01*
X123063000Y-98371001D01*
X122918915Y-98363923D01*
X122776217Y-98342755D01*
X122636282Y-98307703D01*
X122500455Y-98259104D01*
X122370047Y-98197425D01*
X122246312Y-98123261D01*
X122130442Y-98037326D01*
X122023553Y-97940448D01*
X121926675Y-97833559D01*
X121840740Y-97717689D01*
X121766576Y-97593954D01*
X121704897Y-97463546D01*
X121656298Y-97327719D01*
X121621246Y-97187784D01*
X121600078Y-97045086D01*
X121593000Y-96901001D01*
X121593000Y-96900999D01*
X121600078Y-96756914D01*
X121621246Y-96614216D01*
X121656298Y-96474281D01*
X121704897Y-96338454D01*
X121766576Y-96208046D01*
X121840740Y-96084311D01*
X121926675Y-95968441D01*
X122023553Y-95861552D01*
X122130442Y-95764674D01*
X122246312Y-95678739D01*
X122370047Y-95604575D01*
X122500455Y-95542896D01*
X122636282Y-95494297D01*
X122776217Y-95459245D01*
X122918915Y-95438077D01*
X123063000Y-95430999D01*
X130937000Y-95430999D01*
X131081085Y-95438077D01*
X131081085Y-95438077D01*
G37*
D13*
X127000000Y-96901000D03*
D12*
G36*
X131081085Y-79436077D02*
X131223783Y-79457245D01*
X131363718Y-79492297D01*
X131499545Y-79540896D01*
X131629953Y-79602575D01*
X131753688Y-79676739D01*
X131869558Y-79762674D01*
X131976447Y-79859552D01*
X132073325Y-79966441D01*
X132159260Y-80082311D01*
X132233424Y-80206046D01*
X132295103Y-80336454D01*
X132343702Y-80472281D01*
X132378754Y-80612216D01*
X132399922Y-80754914D01*
X132407000Y-80898999D01*
X132407000Y-80899001D01*
X132399922Y-81043086D01*
X132378754Y-81185784D01*
X132343702Y-81325719D01*
X132295103Y-81461546D01*
X132233424Y-81591954D01*
X132159260Y-81715689D01*
X132073325Y-81831559D01*
X131976447Y-81938448D01*
X131869558Y-82035326D01*
X131753688Y-82121261D01*
X131629953Y-82195425D01*
X131499545Y-82257104D01*
X131363718Y-82305703D01*
X131223783Y-82340755D01*
X131081085Y-82361923D01*
X130937000Y-82369001D01*
X123063000Y-82369001D01*
X122918915Y-82361923D01*
X122776217Y-82340755D01*
X122636282Y-82305703D01*
X122500455Y-82257104D01*
X122370047Y-82195425D01*
X122246312Y-82121261D01*
X122130442Y-82035326D01*
X122023553Y-81938448D01*
X121926675Y-81831559D01*
X121840740Y-81715689D01*
X121766576Y-81591954D01*
X121704897Y-81461546D01*
X121656298Y-81325719D01*
X121621246Y-81185784D01*
X121600078Y-81043086D01*
X121593000Y-80899001D01*
X121593000Y-80898999D01*
X121600078Y-80754914D01*
X121621246Y-80612216D01*
X121656298Y-80472281D01*
X121704897Y-80336454D01*
X121766576Y-80206046D01*
X121840740Y-80082311D01*
X121926675Y-79966441D01*
X122023553Y-79859552D01*
X122130442Y-79762674D01*
X122246312Y-79676739D01*
X122370047Y-79602575D01*
X122500455Y-79540896D01*
X122636282Y-79492297D01*
X122776217Y-79457245D01*
X122918915Y-79436077D01*
X123063000Y-79428999D01*
X130937000Y-79428999D01*
X131081085Y-79436077D01*
X131081085Y-79436077D01*
G37*
D13*
X127000000Y-80899000D03*
G04 #@! TD*
D14*
G04 #@! TO.C,J1*
X125780800Y-74941800D03*
D15*
X128280800Y-74941800D03*
G04 #@! TD*
M02*
