G04 #@! TF.GenerationSoftware,KiCad,Pcbnew,6.0.0-rc1-unknown-7dfc4e3~65~ubuntu18.04.1*
G04 #@! TF.CreationDate,2018-07-28T16:40:43+05:30*
G04 #@! TF.ProjectId,airmount,6169726D6F756E742E6B696361645F70,rev?*
G04 #@! TF.SameCoordinates,Original*
G04 #@! TF.FileFunction,Copper,L1,Top,Signal*
G04 #@! TF.FilePolarity,Positive*
%FSLAX46Y46*%
G04 Gerber Fmt 4.6, Leading zero omitted, Abs format (unit mm)*
G04 Created by KiCad (PCBNEW 6.0.0-rc1-unknown-7dfc4e3~65~ubuntu18.04.1) date Sat Jul 28 16:40:43 2018*
%MOMM*%
%LPD*%
G01*
G04 APERTURE LIST*
G04 #@! TA.AperFunction,ComponentPad*
%ADD10C,4.064000*%
G04 #@! TD*
G04 #@! TA.AperFunction,Conductor*
%ADD11C,0.100000*%
G04 #@! TD*
G04 #@! TA.AperFunction,ComponentPad*
%ADD12C,2.540000*%
G04 #@! TD*
G04 #@! TA.AperFunction,ComponentPad*
%ADD13R,1.750000X1.750000*%
G04 #@! TD*
G04 #@! TA.AperFunction,ComponentPad*
%ADD14C,1.750000*%
G04 #@! TD*
G04 #@! TA.AperFunction,ViaPad*
%ADD15C,0.800000*%
G04 #@! TD*
G04 #@! TA.AperFunction,Conductor*
%ADD16C,0.762000*%
G04 #@! TD*
G04 APERTURE END LIST*
D10*
G04 #@! TO.P,M1,2*
G04 #@! TO.N,GND*
X135991600Y-88900000D03*
G04 #@! TO.P,M1,1*
G04 #@! TO.N,Net-(J1-Pad1)*
X118008400Y-88900000D03*
G04 #@! TD*
D11*
G04 #@! TO.N,GND*
G04 #@! TO.C,M2*
G36*
X131061482Y-95637114D02*
X131184765Y-95655402D01*
X131305662Y-95685685D01*
X131423008Y-95727672D01*
X131535674Y-95780959D01*
X131642574Y-95845033D01*
X131742679Y-95919276D01*
X131835026Y-96002973D01*
X131918723Y-96095320D01*
X131992966Y-96195425D01*
X132057040Y-96302325D01*
X132110327Y-96414991D01*
X132152314Y-96532337D01*
X132182597Y-96653234D01*
X132200885Y-96776517D01*
X132207000Y-96900999D01*
X132207000Y-96901001D01*
X132200885Y-97025483D01*
X132182597Y-97148766D01*
X132152314Y-97269663D01*
X132110327Y-97387009D01*
X132057040Y-97499675D01*
X131992966Y-97606575D01*
X131918723Y-97706680D01*
X131835026Y-97799027D01*
X131742679Y-97882724D01*
X131642574Y-97956967D01*
X131535674Y-98021041D01*
X131423008Y-98074328D01*
X131305662Y-98116315D01*
X131184765Y-98146598D01*
X131061482Y-98164886D01*
X130937000Y-98171001D01*
X123063000Y-98171001D01*
X122938518Y-98164886D01*
X122815235Y-98146598D01*
X122694338Y-98116315D01*
X122576992Y-98074328D01*
X122464326Y-98021041D01*
X122357426Y-97956967D01*
X122257321Y-97882724D01*
X122164974Y-97799027D01*
X122081277Y-97706680D01*
X122007034Y-97606575D01*
X121942960Y-97499675D01*
X121889673Y-97387009D01*
X121847686Y-97269663D01*
X121817403Y-97148766D01*
X121799115Y-97025483D01*
X121793000Y-96901001D01*
X121793000Y-96900999D01*
X121799115Y-96776517D01*
X121817403Y-96653234D01*
X121847686Y-96532337D01*
X121889673Y-96414991D01*
X121942960Y-96302325D01*
X122007034Y-96195425D01*
X122081277Y-96095320D01*
X122164974Y-96002973D01*
X122257321Y-95919276D01*
X122357426Y-95845033D01*
X122464326Y-95780959D01*
X122576992Y-95727672D01*
X122694338Y-95685685D01*
X122815235Y-95655402D01*
X122938518Y-95637114D01*
X123063000Y-95630999D01*
X130937000Y-95630999D01*
X131061482Y-95637114D01*
X131061482Y-95637114D01*
G37*
D12*
G04 #@! TD*
G04 #@! TO.P,M2,2*
G04 #@! TO.N,GND*
X127000000Y-96901000D03*
D11*
G04 #@! TO.N,Net-(J1-Pad1)*
G04 #@! TO.C,M2*
G36*
X131061482Y-79635114D02*
X131184765Y-79653402D01*
X131305662Y-79683685D01*
X131423008Y-79725672D01*
X131535674Y-79778959D01*
X131642574Y-79843033D01*
X131742679Y-79917276D01*
X131835026Y-80000973D01*
X131918723Y-80093320D01*
X131992966Y-80193425D01*
X132057040Y-80300325D01*
X132110327Y-80412991D01*
X132152314Y-80530337D01*
X132182597Y-80651234D01*
X132200885Y-80774517D01*
X132207000Y-80898999D01*
X132207000Y-80899001D01*
X132200885Y-81023483D01*
X132182597Y-81146766D01*
X132152314Y-81267663D01*
X132110327Y-81385009D01*
X132057040Y-81497675D01*
X131992966Y-81604575D01*
X131918723Y-81704680D01*
X131835026Y-81797027D01*
X131742679Y-81880724D01*
X131642574Y-81954967D01*
X131535674Y-82019041D01*
X131423008Y-82072328D01*
X131305662Y-82114315D01*
X131184765Y-82144598D01*
X131061482Y-82162886D01*
X130937000Y-82169001D01*
X123063000Y-82169001D01*
X122938518Y-82162886D01*
X122815235Y-82144598D01*
X122694338Y-82114315D01*
X122576992Y-82072328D01*
X122464326Y-82019041D01*
X122357426Y-81954967D01*
X122257321Y-81880724D01*
X122164974Y-81797027D01*
X122081277Y-81704680D01*
X122007034Y-81604575D01*
X121942960Y-81497675D01*
X121889673Y-81385009D01*
X121847686Y-81267663D01*
X121817403Y-81146766D01*
X121799115Y-81023483D01*
X121793000Y-80899001D01*
X121793000Y-80898999D01*
X121799115Y-80774517D01*
X121817403Y-80651234D01*
X121847686Y-80530337D01*
X121889673Y-80412991D01*
X121942960Y-80300325D01*
X122007034Y-80193425D01*
X122081277Y-80093320D01*
X122164974Y-80000973D01*
X122257321Y-79917276D01*
X122357426Y-79843033D01*
X122464326Y-79778959D01*
X122576992Y-79725672D01*
X122694338Y-79683685D01*
X122815235Y-79653402D01*
X122938518Y-79635114D01*
X123063000Y-79628999D01*
X130937000Y-79628999D01*
X131061482Y-79635114D01*
X131061482Y-79635114D01*
G37*
D12*
G04 #@! TD*
G04 #@! TO.P,M2,1*
G04 #@! TO.N,Net-(J1-Pad1)*
X127000000Y-80899000D03*
D13*
G04 #@! TO.P,J1,1*
G04 #@! TO.N,Net-(J1-Pad1)*
X125780800Y-74941800D03*
D14*
G04 #@! TO.P,J1,2*
G04 #@! TO.N,GND*
X128280800Y-74941800D03*
G04 #@! TD*
D15*
G04 #@! TO.N,GND*
X135991600Y-85090000D03*
X135991600Y-92710000D03*
X134112000Y-95758000D03*
X134366000Y-80772000D03*
G04 #@! TD*
D16*
G04 #@! TO.N,GND*
X132969000Y-96901000D02*
X127000000Y-96901000D01*
X135991600Y-93878400D02*
X134112000Y-95758000D01*
X135991600Y-88900000D02*
X135991600Y-92710000D01*
X130567800Y-74941800D02*
X128280800Y-74941800D01*
X131826000Y-76200000D02*
X130567800Y-74941800D01*
X131826000Y-78232000D02*
X131826000Y-76200000D01*
X135991600Y-88900000D02*
X135991600Y-85090000D01*
X135991600Y-82397600D02*
X134366000Y-80772000D01*
X135991600Y-85090000D02*
X135991600Y-82397600D01*
X135991600Y-92710000D02*
X135991600Y-93878400D01*
X134112000Y-95758000D02*
X132969000Y-96901000D01*
X134366000Y-80772000D02*
X131826000Y-78232000D01*
G04 #@! TO.N,Net-(J1-Pad1)*
X125780800Y-77012800D02*
X127000000Y-78232000D01*
X125780800Y-74941800D02*
X125780800Y-77012800D01*
X127000000Y-78232000D02*
X127000000Y-80899000D01*
X118008400Y-85598000D02*
X118008400Y-88900000D01*
X118008400Y-83921600D02*
X118008400Y-85598000D01*
X127000000Y-80899000D02*
X121031000Y-80899000D01*
X121031000Y-80899000D02*
X118008400Y-83921600D01*
G04 #@! TD*
M02*
