G04 #@! TF.GenerationSoftware,KiCad,Pcbnew,6.0.0-rc1-unknown-7dfc4e3~65~ubuntu18.04.1*
G04 #@! TF.CreationDate,2018-07-28T12:07:41+05:30*
G04 #@! TF.ProjectId,airmount,6169726D6F756E742E6B696361645F70,rev?*
G04 #@! TF.SameCoordinates,Original*
G04 #@! TF.FileFunction,Copper,L2,Bot,Signal*
G04 #@! TF.FilePolarity,Positive*
%FSLAX46Y46*%
G04 Gerber Fmt 4.6, Leading zero omitted, Abs format (unit mm)*
G04 Created by KiCad (PCBNEW 6.0.0-rc1-unknown-7dfc4e3~65~ubuntu18.04.1) date Sat Jul 28 12:07:41 2018*
%MOMM*%
%LPD*%
G01*
G04 APERTURE LIST*
G04 #@! TA.AperFunction,ComponentPad*
%ADD10R,1.750000X1.750000*%
G04 #@! TD*
G04 #@! TA.AperFunction,ComponentPad*
%ADD11C,1.750000*%
G04 #@! TD*
G04 #@! TA.AperFunction,ViaPad*
%ADD12C,0.800000*%
G04 #@! TD*
G04 #@! TA.AperFunction,Conductor*
%ADD13C,0.254000*%
G04 #@! TD*
G04 APERTURE END LIST*
D10*
G04 #@! TO.P,J1,1*
G04 #@! TO.N,Net-(J1-Pad1)*
X125780800Y-74941800D03*
D11*
G04 #@! TO.P,J1,2*
G04 #@! TO.N,GND*
X128280800Y-74941800D03*
G04 #@! TD*
D12*
G04 #@! TO.N,GND*
X135991600Y-85090000D03*
X135991600Y-92710000D03*
X134112000Y-95758000D03*
X134366000Y-80772000D03*
G04 #@! TD*
D13*
G04 #@! TO.N,GND*
G36*
X123869896Y-74066800D02*
X123869896Y-75816800D01*
X123948749Y-76213223D01*
X124173305Y-76549295D01*
X124509377Y-76773851D01*
X124905800Y-76852704D01*
X126655800Y-76852704D01*
X127052223Y-76773851D01*
X127388295Y-76549295D01*
X127485648Y-76403597D01*
X128078946Y-76598620D01*
X128728349Y-76549748D01*
X129101326Y-76395256D01*
X129182890Y-76113298D01*
X128280800Y-75211208D01*
X128266658Y-75225350D01*
X127997250Y-74955942D01*
X128011392Y-74941800D01*
X127997250Y-74927658D01*
X128266658Y-74658250D01*
X128280800Y-74672392D01*
X128294942Y-74658250D01*
X128564350Y-74927658D01*
X128550208Y-74941800D01*
X129452298Y-75843890D01*
X129734256Y-75762326D01*
X129937620Y-75143654D01*
X129888748Y-74494251D01*
X129734256Y-74121274D01*
X129452300Y-74039710D01*
X129503010Y-73989000D01*
X131972546Y-73989000D01*
X131999615Y-73994385D01*
X132005001Y-74021459D01*
X132005000Y-78593449D01*
X132068301Y-78911686D01*
X132309434Y-79272566D01*
X132670313Y-79513699D01*
X132671834Y-79514001D01*
X133580461Y-80117537D01*
X134532371Y-80918929D01*
X135387429Y-81822915D01*
X136134664Y-82817892D01*
X136764459Y-83891065D01*
X137268719Y-85028628D01*
X137640962Y-86215967D01*
X137876401Y-87437812D01*
X137885928Y-87561436D01*
X137286515Y-86962023D01*
X136446314Y-86614000D01*
X135536886Y-86614000D01*
X134696685Y-86962023D01*
X134053623Y-87605085D01*
X133705600Y-88445286D01*
X133705600Y-89354714D01*
X134053623Y-90194915D01*
X134696685Y-90837977D01*
X135536886Y-91186000D01*
X136446314Y-91186000D01*
X137286515Y-90837977D01*
X137877432Y-90247060D01*
X137740637Y-91152296D01*
X137416628Y-92353690D01*
X136958697Y-93510691D01*
X136372737Y-94608407D01*
X135666276Y-95632739D01*
X134848401Y-96570509D01*
X133929623Y-97409667D01*
X132921755Y-98139423D01*
X131837758Y-98750392D01*
X130691567Y-99234721D01*
X129497913Y-99586185D01*
X128272146Y-99800264D01*
X127030020Y-99874207D01*
X125787518Y-99807062D01*
X124560599Y-99599693D01*
X123365037Y-99254764D01*
X122216207Y-98776712D01*
X121128886Y-98171685D01*
X120117039Y-97447453D01*
X119193682Y-96613334D01*
X118370692Y-95680055D01*
X117658636Y-94659603D01*
X117066680Y-93565112D01*
X116602427Y-92410636D01*
X116271848Y-91211029D01*
X116120445Y-90244937D01*
X116713485Y-90837977D01*
X117553686Y-91186000D01*
X118463114Y-91186000D01*
X119303315Y-90837977D01*
X119946377Y-90194915D01*
X120294400Y-89354714D01*
X120294400Y-88445286D01*
X120277430Y-88404316D01*
X120407609Y-88404316D01*
X120418340Y-89522150D01*
X120617260Y-90622195D01*
X120998683Y-91672998D01*
X121551702Y-92644512D01*
X122260504Y-93508958D01*
X123104823Y-94241621D01*
X124060517Y-94821550D01*
X125100260Y-95232165D01*
X125790536Y-95377000D01*
X122912903Y-95377000D01*
X122468365Y-95465424D01*
X121964258Y-95802258D01*
X121627424Y-96306365D01*
X121509144Y-96901000D01*
X121627424Y-97495635D01*
X121964258Y-97999742D01*
X122468365Y-98336576D01*
X122912903Y-98425000D01*
X131087097Y-98425000D01*
X131531635Y-98336576D01*
X132035742Y-97999742D01*
X132372576Y-97495635D01*
X132490856Y-96901000D01*
X132372576Y-96306365D01*
X132035742Y-95802258D01*
X131531635Y-95465424D01*
X131087097Y-95377000D01*
X128267058Y-95377000D01*
X128419615Y-95356780D01*
X129487219Y-95025281D01*
X130483705Y-94518641D01*
X131380581Y-93851346D01*
X132152203Y-93042478D01*
X132776508Y-92115163D01*
X133235645Y-91095917D01*
X133516486Y-90013883D01*
X133611000Y-88900000D01*
X133609782Y-88773086D01*
X133493901Y-87661222D01*
X133192340Y-86584779D01*
X132713721Y-85574535D01*
X132071729Y-84659376D01*
X131284721Y-83865470D01*
X130375199Y-83215517D01*
X129369171Y-82728100D01*
X128315581Y-82423000D01*
X131087097Y-82423000D01*
X131531635Y-82334576D01*
X132035742Y-81997742D01*
X132372576Y-81493635D01*
X132490856Y-80899000D01*
X132372576Y-80304365D01*
X132035742Y-79800258D01*
X131531635Y-79463424D01*
X131087097Y-79375000D01*
X122912903Y-79375000D01*
X122468365Y-79463424D01*
X121964258Y-79800258D01*
X121627424Y-80304365D01*
X121509144Y-80899000D01*
X121627424Y-81493635D01*
X121964258Y-81997742D01*
X122468365Y-82334576D01*
X122912903Y-82423000D01*
X125772584Y-82423000D01*
X124979048Y-82605473D01*
X123947380Y-83035971D01*
X123002995Y-83634141D01*
X122172897Y-84382877D01*
X121480821Y-85260772D01*
X120946555Y-86242723D01*
X120585375Y-87300654D01*
X120407609Y-88404316D01*
X120277430Y-88404316D01*
X119946377Y-87605085D01*
X119303315Y-86962023D01*
X118463114Y-86614000D01*
X117553686Y-86614000D01*
X116713485Y-86962023D01*
X116110950Y-87564558D01*
X116115760Y-87497346D01*
X116344511Y-86274232D01*
X116710252Y-85084872D01*
X117208278Y-83944570D01*
X117832192Y-82867969D01*
X118573972Y-81868915D01*
X119424077Y-80960258D01*
X120371574Y-80153682D01*
X121321221Y-79515383D01*
X121329687Y-79513699D01*
X121690566Y-79272566D01*
X121931699Y-78911687D01*
X121995000Y-78593450D01*
X121995000Y-74021454D01*
X122000385Y-73994385D01*
X122027454Y-73989000D01*
X123885371Y-73989000D01*
X123869896Y-74066800D01*
X123869896Y-74066800D01*
G37*
X123869896Y-74066800D02*
X123869896Y-75816800D01*
X123948749Y-76213223D01*
X124173305Y-76549295D01*
X124509377Y-76773851D01*
X124905800Y-76852704D01*
X126655800Y-76852704D01*
X127052223Y-76773851D01*
X127388295Y-76549295D01*
X127485648Y-76403597D01*
X128078946Y-76598620D01*
X128728349Y-76549748D01*
X129101326Y-76395256D01*
X129182890Y-76113298D01*
X128280800Y-75211208D01*
X128266658Y-75225350D01*
X127997250Y-74955942D01*
X128011392Y-74941800D01*
X127997250Y-74927658D01*
X128266658Y-74658250D01*
X128280800Y-74672392D01*
X128294942Y-74658250D01*
X128564350Y-74927658D01*
X128550208Y-74941800D01*
X129452298Y-75843890D01*
X129734256Y-75762326D01*
X129937620Y-75143654D01*
X129888748Y-74494251D01*
X129734256Y-74121274D01*
X129452300Y-74039710D01*
X129503010Y-73989000D01*
X131972546Y-73989000D01*
X131999615Y-73994385D01*
X132005001Y-74021459D01*
X132005000Y-78593449D01*
X132068301Y-78911686D01*
X132309434Y-79272566D01*
X132670313Y-79513699D01*
X132671834Y-79514001D01*
X133580461Y-80117537D01*
X134532371Y-80918929D01*
X135387429Y-81822915D01*
X136134664Y-82817892D01*
X136764459Y-83891065D01*
X137268719Y-85028628D01*
X137640962Y-86215967D01*
X137876401Y-87437812D01*
X137885928Y-87561436D01*
X137286515Y-86962023D01*
X136446314Y-86614000D01*
X135536886Y-86614000D01*
X134696685Y-86962023D01*
X134053623Y-87605085D01*
X133705600Y-88445286D01*
X133705600Y-89354714D01*
X134053623Y-90194915D01*
X134696685Y-90837977D01*
X135536886Y-91186000D01*
X136446314Y-91186000D01*
X137286515Y-90837977D01*
X137877432Y-90247060D01*
X137740637Y-91152296D01*
X137416628Y-92353690D01*
X136958697Y-93510691D01*
X136372737Y-94608407D01*
X135666276Y-95632739D01*
X134848401Y-96570509D01*
X133929623Y-97409667D01*
X132921755Y-98139423D01*
X131837758Y-98750392D01*
X130691567Y-99234721D01*
X129497913Y-99586185D01*
X128272146Y-99800264D01*
X127030020Y-99874207D01*
X125787518Y-99807062D01*
X124560599Y-99599693D01*
X123365037Y-99254764D01*
X122216207Y-98776712D01*
X121128886Y-98171685D01*
X120117039Y-97447453D01*
X119193682Y-96613334D01*
X118370692Y-95680055D01*
X117658636Y-94659603D01*
X117066680Y-93565112D01*
X116602427Y-92410636D01*
X116271848Y-91211029D01*
X116120445Y-90244937D01*
X116713485Y-90837977D01*
X117553686Y-91186000D01*
X118463114Y-91186000D01*
X119303315Y-90837977D01*
X119946377Y-90194915D01*
X120294400Y-89354714D01*
X120294400Y-88445286D01*
X120277430Y-88404316D01*
X120407609Y-88404316D01*
X120418340Y-89522150D01*
X120617260Y-90622195D01*
X120998683Y-91672998D01*
X121551702Y-92644512D01*
X122260504Y-93508958D01*
X123104823Y-94241621D01*
X124060517Y-94821550D01*
X125100260Y-95232165D01*
X125790536Y-95377000D01*
X122912903Y-95377000D01*
X122468365Y-95465424D01*
X121964258Y-95802258D01*
X121627424Y-96306365D01*
X121509144Y-96901000D01*
X121627424Y-97495635D01*
X121964258Y-97999742D01*
X122468365Y-98336576D01*
X122912903Y-98425000D01*
X131087097Y-98425000D01*
X131531635Y-98336576D01*
X132035742Y-97999742D01*
X132372576Y-97495635D01*
X132490856Y-96901000D01*
X132372576Y-96306365D01*
X132035742Y-95802258D01*
X131531635Y-95465424D01*
X131087097Y-95377000D01*
X128267058Y-95377000D01*
X128419615Y-95356780D01*
X129487219Y-95025281D01*
X130483705Y-94518641D01*
X131380581Y-93851346D01*
X132152203Y-93042478D01*
X132776508Y-92115163D01*
X133235645Y-91095917D01*
X133516486Y-90013883D01*
X133611000Y-88900000D01*
X133609782Y-88773086D01*
X133493901Y-87661222D01*
X133192340Y-86584779D01*
X132713721Y-85574535D01*
X132071729Y-84659376D01*
X131284721Y-83865470D01*
X130375199Y-83215517D01*
X129369171Y-82728100D01*
X128315581Y-82423000D01*
X131087097Y-82423000D01*
X131531635Y-82334576D01*
X132035742Y-81997742D01*
X132372576Y-81493635D01*
X132490856Y-80899000D01*
X132372576Y-80304365D01*
X132035742Y-79800258D01*
X131531635Y-79463424D01*
X131087097Y-79375000D01*
X122912903Y-79375000D01*
X122468365Y-79463424D01*
X121964258Y-79800258D01*
X121627424Y-80304365D01*
X121509144Y-80899000D01*
X121627424Y-81493635D01*
X121964258Y-81997742D01*
X122468365Y-82334576D01*
X122912903Y-82423000D01*
X125772584Y-82423000D01*
X124979048Y-82605473D01*
X123947380Y-83035971D01*
X123002995Y-83634141D01*
X122172897Y-84382877D01*
X121480821Y-85260772D01*
X120946555Y-86242723D01*
X120585375Y-87300654D01*
X120407609Y-88404316D01*
X120277430Y-88404316D01*
X119946377Y-87605085D01*
X119303315Y-86962023D01*
X118463114Y-86614000D01*
X117553686Y-86614000D01*
X116713485Y-86962023D01*
X116110950Y-87564558D01*
X116115760Y-87497346D01*
X116344511Y-86274232D01*
X116710252Y-85084872D01*
X117208278Y-83944570D01*
X117832192Y-82867969D01*
X118573972Y-81868915D01*
X119424077Y-80960258D01*
X120371574Y-80153682D01*
X121321221Y-79515383D01*
X121329687Y-79513699D01*
X121690566Y-79272566D01*
X121931699Y-78911687D01*
X121995000Y-78593450D01*
X121995000Y-74021454D01*
X122000385Y-73994385D01*
X122027454Y-73989000D01*
X123885371Y-73989000D01*
X123869896Y-74066800D01*
G04 #@! TD*
M02*
