G04 #@! TF.GenerationSoftware,KiCad,Pcbnew,6.0.0-rc1-unknown-7dfc4e3~65~ubuntu18.04.1*
G04 #@! TF.CreationDate,2018-07-28T16:40:43+05:30*
G04 #@! TF.ProjectId,airmount,6169726D6F756E742E6B696361645F70,rev?*
G04 #@! TF.SameCoordinates,Original*
G04 #@! TF.FileFunction,Copper,L2,Bot,Signal*
G04 #@! TF.FilePolarity,Positive*
%FSLAX46Y46*%
G04 Gerber Fmt 4.6, Leading zero omitted, Abs format (unit mm)*
G04 Created by KiCad (PCBNEW 6.0.0-rc1-unknown-7dfc4e3~65~ubuntu18.04.1) date Sat Jul 28 16:40:43 2018*
%MOMM*%
%LPD*%
G01*
G04 APERTURE LIST*
G04 #@! TA.AperFunction,ComponentPad*
%ADD10R,1.750000X1.750000*%
G04 #@! TD*
G04 #@! TA.AperFunction,ComponentPad*
%ADD11C,1.750000*%
G04 #@! TD*
G04 #@! TA.AperFunction,ViaPad*
%ADD12C,0.800000*%
G04 #@! TD*
G04 #@! TA.AperFunction,Conductor*
%ADD13C,0.254000*%
G04 #@! TD*
G04 APERTURE END LIST*
D10*
G04 #@! TO.P,J1,1*
G04 #@! TO.N,Net-(J1-Pad1)*
X125780800Y-74941800D03*
D11*
G04 #@! TO.P,J1,2*
G04 #@! TO.N,GND*
X128280800Y-74941800D03*
G04 #@! TD*
D12*
G04 #@! TO.N,GND*
X135991600Y-85090000D03*
X135991600Y-92710000D03*
X134112000Y-95758000D03*
X134366000Y-80772000D03*
G04 #@! TD*
D13*
G04 #@! TO.N,GND*
G36*
X123869896Y-74066800D02*
X123869896Y-75816800D01*
X123948749Y-76213223D01*
X124173305Y-76549295D01*
X124509377Y-76773851D01*
X124905800Y-76852704D01*
X126655800Y-76852704D01*
X127052223Y-76773851D01*
X127388295Y-76549295D01*
X127485648Y-76403597D01*
X128078946Y-76598620D01*
X128728349Y-76549748D01*
X129101326Y-76395256D01*
X129182890Y-76113298D01*
X128280800Y-75211208D01*
X128266658Y-75225350D01*
X127997250Y-74955942D01*
X128011392Y-74941800D01*
X127997250Y-74927658D01*
X128266658Y-74658250D01*
X128280800Y-74672392D01*
X128294942Y-74658250D01*
X128564350Y-74927658D01*
X128550208Y-74941800D01*
X129452298Y-75843890D01*
X129734256Y-75762326D01*
X129937620Y-75143654D01*
X129888748Y-74494251D01*
X129734256Y-74121274D01*
X129452300Y-74039710D01*
X129503010Y-73989000D01*
X131972546Y-73989000D01*
X131999615Y-73994385D01*
X132005001Y-74021459D01*
X132005000Y-78286207D01*
X131998900Y-78302303D01*
X132005000Y-78502555D01*
X132005000Y-78593449D01*
X132008269Y-78609886D01*
X132012115Y-78736127D01*
X132050203Y-78820702D01*
X132068301Y-78911686D01*
X132138474Y-79016707D01*
X132190339Y-79131873D01*
X132257899Y-79195439D01*
X132309434Y-79272566D01*
X132414455Y-79342739D01*
X132426654Y-79354217D01*
X132503692Y-79402366D01*
X132670313Y-79513699D01*
X132687199Y-79517058D01*
X132744658Y-79552970D01*
X133752328Y-80251523D01*
X134687954Y-81071497D01*
X135524752Y-81992127D01*
X136251945Y-83001557D01*
X136860194Y-84086821D01*
X137341680Y-85233971D01*
X137690208Y-86428247D01*
X137885184Y-87560692D01*
X137286515Y-86962023D01*
X136446314Y-86614000D01*
X135536886Y-86614000D01*
X134696685Y-86962023D01*
X134053623Y-87605085D01*
X133705600Y-88445286D01*
X133705600Y-89354714D01*
X134053623Y-90194915D01*
X134696685Y-90837977D01*
X135536886Y-91186000D01*
X136446314Y-91186000D01*
X137286515Y-90837977D01*
X137884759Y-90239733D01*
X137691839Y-91364687D01*
X137344105Y-92559180D01*
X136863378Y-93706649D01*
X136255848Y-94792316D01*
X135529318Y-95802236D01*
X134693135Y-96723412D01*
X133758047Y-97544010D01*
X132736075Y-98253478D01*
X131640357Y-98842696D01*
X130484987Y-99304085D01*
X129284806Y-99631718D01*
X128050631Y-99822094D01*
X127029134Y-99871329D01*
X125758203Y-99799160D01*
X124532353Y-99588521D01*
X123338248Y-99240471D01*
X122191212Y-98759479D01*
X121106000Y-98151731D01*
X120096559Y-97425036D01*
X119175877Y-96588748D01*
X118355780Y-95653607D01*
X117646817Y-94631642D01*
X117058097Y-93535980D01*
X116597197Y-92380726D01*
X116270038Y-91180721D01*
X116127019Y-90251511D01*
X116713485Y-90837977D01*
X117553686Y-91186000D01*
X118463114Y-91186000D01*
X119303315Y-90837977D01*
X119946377Y-90194915D01*
X120294400Y-89354714D01*
X120294400Y-88445286D01*
X120277430Y-88404316D01*
X120407609Y-88404316D01*
X120418340Y-89522150D01*
X120617260Y-90622195D01*
X120998683Y-91672998D01*
X121551702Y-92644512D01*
X122260504Y-93508958D01*
X123104823Y-94241621D01*
X124060517Y-94821550D01*
X125100260Y-95232165D01*
X125790536Y-95377000D01*
X122912903Y-95377000D01*
X122468365Y-95465424D01*
X121964258Y-95802258D01*
X121627424Y-96306365D01*
X121509144Y-96901000D01*
X121627424Y-97495635D01*
X121964258Y-97999742D01*
X122468365Y-98336576D01*
X122912903Y-98425000D01*
X131087097Y-98425000D01*
X131531635Y-98336576D01*
X132035742Y-97999742D01*
X132372576Y-97495635D01*
X132490856Y-96901000D01*
X132372576Y-96306365D01*
X132035742Y-95802258D01*
X131531635Y-95465424D01*
X131087097Y-95377000D01*
X128267058Y-95377000D01*
X128419615Y-95356780D01*
X129487219Y-95025281D01*
X130483705Y-94518641D01*
X131380581Y-93851346D01*
X132152203Y-93042478D01*
X132776508Y-92115163D01*
X133235645Y-91095917D01*
X133516486Y-90013883D01*
X133611000Y-88900000D01*
X133609782Y-88773086D01*
X133493901Y-87661222D01*
X133192340Y-86584779D01*
X132713721Y-85574535D01*
X132071729Y-84659376D01*
X131284721Y-83865470D01*
X130375199Y-83215517D01*
X129369171Y-82728100D01*
X128315581Y-82423000D01*
X131087097Y-82423000D01*
X131531635Y-82334576D01*
X132035742Y-81997742D01*
X132372576Y-81493635D01*
X132490856Y-80899000D01*
X132372576Y-80304365D01*
X132035742Y-79800258D01*
X131531635Y-79463424D01*
X131087097Y-79375000D01*
X122912903Y-79375000D01*
X122468365Y-79463424D01*
X121964258Y-79800258D01*
X121627424Y-80304365D01*
X121509144Y-80899000D01*
X121627424Y-81493635D01*
X121964258Y-81997742D01*
X122468365Y-82334576D01*
X122912903Y-82423000D01*
X125772584Y-82423000D01*
X124979048Y-82605473D01*
X123947380Y-83035971D01*
X123002995Y-83634141D01*
X122172897Y-84382877D01*
X121480821Y-85260772D01*
X120946555Y-86242723D01*
X120585375Y-87300654D01*
X120407609Y-88404316D01*
X120277430Y-88404316D01*
X119946377Y-87605085D01*
X119303315Y-86962023D01*
X118463114Y-86614000D01*
X117553686Y-86614000D01*
X116713485Y-86962023D01*
X116117497Y-87558011D01*
X116124173Y-87468167D01*
X116356171Y-86246200D01*
X116725010Y-85058341D01*
X117225950Y-83919868D01*
X117852543Y-82845433D01*
X118596739Y-81848832D01*
X119448978Y-80942877D01*
X120401863Y-80136199D01*
X121297128Y-79526854D01*
X121312801Y-79517058D01*
X121329687Y-79513699D01*
X121496308Y-79402366D01*
X121573346Y-79354217D01*
X121585545Y-79342739D01*
X121690566Y-79272566D01*
X121742101Y-79195439D01*
X121809661Y-79131873D01*
X121861525Y-79016709D01*
X121931699Y-78911687D01*
X121949797Y-78820701D01*
X121987885Y-78736127D01*
X121991730Y-78609887D01*
X121995000Y-78593450D01*
X121995000Y-78502555D01*
X122001100Y-78302303D01*
X121995000Y-78286207D01*
X121995000Y-74021454D01*
X122000385Y-73994385D01*
X122027454Y-73989000D01*
X123885371Y-73989000D01*
X123869896Y-74066800D01*
X123869896Y-74066800D01*
G37*
X123869896Y-74066800D02*
X123869896Y-75816800D01*
X123948749Y-76213223D01*
X124173305Y-76549295D01*
X124509377Y-76773851D01*
X124905800Y-76852704D01*
X126655800Y-76852704D01*
X127052223Y-76773851D01*
X127388295Y-76549295D01*
X127485648Y-76403597D01*
X128078946Y-76598620D01*
X128728349Y-76549748D01*
X129101326Y-76395256D01*
X129182890Y-76113298D01*
X128280800Y-75211208D01*
X128266658Y-75225350D01*
X127997250Y-74955942D01*
X128011392Y-74941800D01*
X127997250Y-74927658D01*
X128266658Y-74658250D01*
X128280800Y-74672392D01*
X128294942Y-74658250D01*
X128564350Y-74927658D01*
X128550208Y-74941800D01*
X129452298Y-75843890D01*
X129734256Y-75762326D01*
X129937620Y-75143654D01*
X129888748Y-74494251D01*
X129734256Y-74121274D01*
X129452300Y-74039710D01*
X129503010Y-73989000D01*
X131972546Y-73989000D01*
X131999615Y-73994385D01*
X132005001Y-74021459D01*
X132005000Y-78286207D01*
X131998900Y-78302303D01*
X132005000Y-78502555D01*
X132005000Y-78593449D01*
X132008269Y-78609886D01*
X132012115Y-78736127D01*
X132050203Y-78820702D01*
X132068301Y-78911686D01*
X132138474Y-79016707D01*
X132190339Y-79131873D01*
X132257899Y-79195439D01*
X132309434Y-79272566D01*
X132414455Y-79342739D01*
X132426654Y-79354217D01*
X132503692Y-79402366D01*
X132670313Y-79513699D01*
X132687199Y-79517058D01*
X132744658Y-79552970D01*
X133752328Y-80251523D01*
X134687954Y-81071497D01*
X135524752Y-81992127D01*
X136251945Y-83001557D01*
X136860194Y-84086821D01*
X137341680Y-85233971D01*
X137690208Y-86428247D01*
X137885184Y-87560692D01*
X137286515Y-86962023D01*
X136446314Y-86614000D01*
X135536886Y-86614000D01*
X134696685Y-86962023D01*
X134053623Y-87605085D01*
X133705600Y-88445286D01*
X133705600Y-89354714D01*
X134053623Y-90194915D01*
X134696685Y-90837977D01*
X135536886Y-91186000D01*
X136446314Y-91186000D01*
X137286515Y-90837977D01*
X137884759Y-90239733D01*
X137691839Y-91364687D01*
X137344105Y-92559180D01*
X136863378Y-93706649D01*
X136255848Y-94792316D01*
X135529318Y-95802236D01*
X134693135Y-96723412D01*
X133758047Y-97544010D01*
X132736075Y-98253478D01*
X131640357Y-98842696D01*
X130484987Y-99304085D01*
X129284806Y-99631718D01*
X128050631Y-99822094D01*
X127029134Y-99871329D01*
X125758203Y-99799160D01*
X124532353Y-99588521D01*
X123338248Y-99240471D01*
X122191212Y-98759479D01*
X121106000Y-98151731D01*
X120096559Y-97425036D01*
X119175877Y-96588748D01*
X118355780Y-95653607D01*
X117646817Y-94631642D01*
X117058097Y-93535980D01*
X116597197Y-92380726D01*
X116270038Y-91180721D01*
X116127019Y-90251511D01*
X116713485Y-90837977D01*
X117553686Y-91186000D01*
X118463114Y-91186000D01*
X119303315Y-90837977D01*
X119946377Y-90194915D01*
X120294400Y-89354714D01*
X120294400Y-88445286D01*
X120277430Y-88404316D01*
X120407609Y-88404316D01*
X120418340Y-89522150D01*
X120617260Y-90622195D01*
X120998683Y-91672998D01*
X121551702Y-92644512D01*
X122260504Y-93508958D01*
X123104823Y-94241621D01*
X124060517Y-94821550D01*
X125100260Y-95232165D01*
X125790536Y-95377000D01*
X122912903Y-95377000D01*
X122468365Y-95465424D01*
X121964258Y-95802258D01*
X121627424Y-96306365D01*
X121509144Y-96901000D01*
X121627424Y-97495635D01*
X121964258Y-97999742D01*
X122468365Y-98336576D01*
X122912903Y-98425000D01*
X131087097Y-98425000D01*
X131531635Y-98336576D01*
X132035742Y-97999742D01*
X132372576Y-97495635D01*
X132490856Y-96901000D01*
X132372576Y-96306365D01*
X132035742Y-95802258D01*
X131531635Y-95465424D01*
X131087097Y-95377000D01*
X128267058Y-95377000D01*
X128419615Y-95356780D01*
X129487219Y-95025281D01*
X130483705Y-94518641D01*
X131380581Y-93851346D01*
X132152203Y-93042478D01*
X132776508Y-92115163D01*
X133235645Y-91095917D01*
X133516486Y-90013883D01*
X133611000Y-88900000D01*
X133609782Y-88773086D01*
X133493901Y-87661222D01*
X133192340Y-86584779D01*
X132713721Y-85574535D01*
X132071729Y-84659376D01*
X131284721Y-83865470D01*
X130375199Y-83215517D01*
X129369171Y-82728100D01*
X128315581Y-82423000D01*
X131087097Y-82423000D01*
X131531635Y-82334576D01*
X132035742Y-81997742D01*
X132372576Y-81493635D01*
X132490856Y-80899000D01*
X132372576Y-80304365D01*
X132035742Y-79800258D01*
X131531635Y-79463424D01*
X131087097Y-79375000D01*
X122912903Y-79375000D01*
X122468365Y-79463424D01*
X121964258Y-79800258D01*
X121627424Y-80304365D01*
X121509144Y-80899000D01*
X121627424Y-81493635D01*
X121964258Y-81997742D01*
X122468365Y-82334576D01*
X122912903Y-82423000D01*
X125772584Y-82423000D01*
X124979048Y-82605473D01*
X123947380Y-83035971D01*
X123002995Y-83634141D01*
X122172897Y-84382877D01*
X121480821Y-85260772D01*
X120946555Y-86242723D01*
X120585375Y-87300654D01*
X120407609Y-88404316D01*
X120277430Y-88404316D01*
X119946377Y-87605085D01*
X119303315Y-86962023D01*
X118463114Y-86614000D01*
X117553686Y-86614000D01*
X116713485Y-86962023D01*
X116117497Y-87558011D01*
X116124173Y-87468167D01*
X116356171Y-86246200D01*
X116725010Y-85058341D01*
X117225950Y-83919868D01*
X117852543Y-82845433D01*
X118596739Y-81848832D01*
X119448978Y-80942877D01*
X120401863Y-80136199D01*
X121297128Y-79526854D01*
X121312801Y-79517058D01*
X121329687Y-79513699D01*
X121496308Y-79402366D01*
X121573346Y-79354217D01*
X121585545Y-79342739D01*
X121690566Y-79272566D01*
X121742101Y-79195439D01*
X121809661Y-79131873D01*
X121861525Y-79016709D01*
X121931699Y-78911687D01*
X121949797Y-78820701D01*
X121987885Y-78736127D01*
X121991730Y-78609887D01*
X121995000Y-78593450D01*
X121995000Y-78502555D01*
X122001100Y-78302303D01*
X121995000Y-78286207D01*
X121995000Y-74021454D01*
X122000385Y-73994385D01*
X122027454Y-73989000D01*
X123885371Y-73989000D01*
X123869896Y-74066800D01*
G04 #@! TD*
M02*
